<svg width="323" height="78" viewBox="0 0 323 78" fill="none" xmlns="http://www.w3.org/2000/svg">
<path d="M30.408 22.632V30.64H13.328V39.04H28.84V46.936H13.328V53.992H30.408V62H3.64V22.632H30.408ZM52.7524 40.944V46.768H36.5684V40.944H52.7524ZM73.2323 63.232C67.3523 63.176 61.9203 60.936 58.5042 57.072L63.6003 50.24C66.2883 52.984 70.2643 54.552 73.5123 54.552C76.4243 54.552 78.6083 53.264 78.6083 50.296C78.6083 47.944 77.2643 47.16 72.8403 46.096L69.4803 45.312C62.2563 43.576 58.6723 39.88 58.6723 34.28C58.6723 25.992 65.7283 21.624 73.7363 21.624C78.2723 21.624 83.1443 23.08 87.3443 26.104L82.6403 33.048C80.0643 30.92 77.2643 29.912 73.7923 29.912C70.4323 29.912 68.5283 31.2 68.5283 33.496C68.5283 36.016 71.0482 36.856 74.4083 37.584L77.7123 38.312C85.0483 39.992 88.7443 43.688 88.7443 49.4C88.7443 57.184 82.8643 63.232 73.2323 63.232ZM120.424 22.632V30.64H103.344V39.04H118.856V46.936H103.344V53.992H120.424V62H93.6556V22.632H120.424ZM150.389 47.832L160.917 62H149.269L140.645 50.016H136.165V62H125.917V22.856H141.765C151.005 22.856 157.277 28.064 157.277 36.52C157.277 41.168 154.701 45.424 150.389 47.832ZM141.317 30.416H136.165V41.784H141.317C144.173 41.784 147.253 39.04 147.253 35.848C147.253 31.368 144.229 30.416 141.317 30.416ZM184.593 62H174.177L160.121 22.632H170.313L179.609 51.304L188.569 22.632H198.425L184.593 62ZM211.625 62H201.937C201.993 48.896 201.993 35.736 201.937 22.632H211.625C211.681 35.736 211.681 48.896 211.625 62ZM237.594 62.84C225.778 62.84 217.21 53.6 217.21 42.232C217.21 30.808 225.778 21.568 237.594 21.568C246.61 21.568 253.666 26.944 256.522 34.504L248.29 37.92C246.386 33.496 242.522 30.472 237.594 30.472C231.154 30.472 226.562 35.512 226.562 42.232C226.562 48.952 231.154 53.992 237.594 53.992C242.466 53.992 246.442 51.024 248.234 46.544L256.522 50.016C253.666 57.464 246.61 62.84 237.594 62.84ZM287.111 22.632V30.64H270.031V39.04H285.543V46.936H270.031V53.992H287.111V62H260.343V22.632H287.111ZM305.928 63.232C300.048 63.176 294.616 60.936 291.2 57.072L296.296 50.24C298.984 52.984 302.96 54.552 306.208 54.552C309.12 54.552 311.304 53.264 311.304 50.296C311.304 47.944 309.96 47.16 305.536 46.096L302.176 45.312C294.952 43.576 291.368 39.88 291.368 34.28C291.368 25.992 298.424 21.624 306.432 21.624C310.968 21.624 315.84 23.08 320.04 26.104L315.336 33.048C312.76 30.92 309.96 29.912 306.488 29.912C303.128 29.912 301.224 31.2 301.224 33.496C301.224 36.016 303.744 36.856 307.104 37.584L310.408 38.312C317.744 39.992 321.44 43.688 321.44 49.4C321.44 57.184 315.56 63.232 305.928 63.232Z" fill="white"/>
<path d="M17 0L11 9.5L5 19L17 14.4823L29 19L23 9.5L17 0Z" fill="#B01E41"/>
</svg>
