<svg width="192" height="78" viewBox="0 0 192 78" fill="none" xmlns="http://www.w3.org/2000/svg">
<path d="M30.408 22.632V30.64H13.328V39.04H28.84V46.936H13.328V53.992H30.408V62H3.64V22.632H30.408ZM61.7177 41.224C66.8697 43.744 67.6537 46.992 67.6537 51.136C67.6537 57.744 62.8937 62 53.4857 62H36.0697V22.632H51.3577C59.8697 22.632 65.5817 25.936 65.5817 33.552C65.5817 36.688 64.1817 39.488 61.7177 41.224ZM50.1817 29.968H45.7577V39.264H50.1817C54.4937 39.264 56.2857 37.024 56.2857 34.392C56.2857 31.816 54.3257 29.968 50.1817 29.968ZM45.7577 54.608H50.7417C56.2857 54.608 57.5737 52.312 57.5737 50.128C57.5737 47.776 56.2297 45.536 50.5177 45.536H45.7577V54.608ZM100.548 38.816V22.632H110.236V62H100.548V47.496H82.1796V62H72.4916V22.632H82.1796V38.816H100.548ZM152.555 62H142.475L140.123 54.272H125.563L123.155 62H113.691L128.027 22.632H138.443L152.555 62ZM132.787 32.04L128.195 46.544H137.435L132.787 32.04ZM179.921 47.832L190.449 62H178.801L170.177 50.016H165.697V62H155.449V22.856H171.297C180.537 22.856 186.809 28.064 186.809 36.52C186.809 41.168 184.233 45.424 179.921 47.832ZM170.849 30.416H165.697V41.784H170.849C173.705 41.784 176.785 39.04 176.785 35.848C176.785 31.368 173.761 30.416 170.849 30.416Z" fill="white"/>
<path d="M17 0L11 9.5L5 19L17 14.4823L29 19L23 9.5L17 0Z" fill="#B01E41"/>
</svg>
