<svg width="154" height="45" viewBox="0 0 154 45" fill="none" xmlns="http://www.w3.org/2000/svg">
<g id="Layer_1" clip-path="url(#clip0_683_1219)">
<path id="Vector" d="M7.40423 32.8121H23.5012C23.5223 32.8121 23.5434 32.8162 23.5645 32.8162C24.252 32.8162 24.8108 32.2711 24.8108 31.596C24.8108 30.9208 24.2541 30.3757 23.5645 30.3757C23.5413 30.3757 23.5202 30.3778 23.4991 30.3799H7.40001C2.67826 30.3964 0.0506128 32.9876 0 37.6765L1.13668 37.6889L0 37.7013C0.0506128 42.3902 2.67826 44.9814 7.40423 44.9979H23.5012C23.5223 44.9979 23.5434 45.002 23.5645 45.002C24.252 45.002 24.8108 44.4569 24.8108 43.7818C24.8108 43.1066 24.2541 42.5616 23.5645 42.5616C23.5413 42.5616 23.5202 42.5636 23.4991 42.5657H7.40845C4.48134 42.5554 2.95241 41.4157 2.57704 38.907H23.5012C23.5223 38.907 23.5434 38.9112 23.5645 38.9112C24.252 38.9112 24.8108 38.3661 24.8108 37.6909C24.8108 37.0158 24.2541 36.4707 23.5645 36.4707C23.5434 36.4707 23.5202 36.4728 23.4991 36.4748H2.57704C2.95241 33.9662 4.47923 32.8245 7.40423 32.8141V32.8121Z" fill="#DBE0E0"/>
<path id="Vector_2" d="M67.083 31.6642C67.083 31.6415 67.0873 31.6209 67.0873 31.5982C67.0873 30.9251 66.5305 30.3779 65.8409 30.3779C65.1513 30.3779 64.5946 30.923 64.5946 31.5982C64.5946 31.6188 64.5946 31.6374 64.5967 31.658V43.6808C64.5967 43.7014 64.5925 43.722 64.5925 43.7427C64.5925 44.4158 65.1513 44.9629 65.8388 44.9629C66.5263 44.9629 67.0851 44.4178 67.0851 43.7427C67.0851 43.72 67.083 43.6973 67.0809 43.6766V31.6663L67.083 31.6642Z" fill="#DBE0E0"/>
<path id="Vector_3" d="M89.494 31.596C89.494 30.9229 88.9373 30.3757 88.2477 30.3757C87.5581 30.3757 87.0013 30.9208 87.0013 31.596C87.0013 31.6187 87.0034 31.6393 87.0055 31.662V36.4707H67.0831V38.9029H87.0055V43.6744C87.0055 43.6971 87.0013 43.7178 87.0013 43.7405C87.0013 44.4136 87.5581 44.9607 88.2477 44.9607C88.9373 44.9607 89.494 44.4157 89.494 43.7405C89.494 43.7219 89.494 43.7033 89.4919 43.6827V31.6538C89.4919 31.6352 89.494 31.6166 89.494 31.596Z" fill="#DBE0E0"/>
<path id="Vector_4" d="M152.724 38.5706C153.572 37.7612 153.996 36.6772 153.994 35.3517C153.998 35.3125 154 35.2753 154 35.2361C154 35.1968 153.998 35.1576 153.994 35.1205C153.994 33.7949 153.572 32.711 152.724 31.8995C151.522 30.7495 149.59 30.254 146.819 30.382H130.689V30.413C130.596 30.3902 130.499 30.3779 130.4 30.3779C129.712 30.3779 129.153 30.9229 129.153 31.5981C129.153 32.2732 129.71 32.8183 130.4 32.8183C130.499 32.8183 130.596 32.8059 130.689 32.7832V32.8142H146.91C148.916 32.7171 150.324 33.0041 150.991 33.6421C151.355 33.9911 151.526 34.4928 151.514 35.1762C151.514 35.1968 151.509 35.2175 151.509 35.2381C151.509 35.2588 151.512 35.2794 151.512 35.3001C151.522 35.9835 151.351 36.4852 150.989 36.8341C150.322 37.4721 148.911 37.7571 146.908 37.6621H130.421C130.412 37.6621 130.404 37.6621 130.395 37.6621C129.708 37.6621 129.149 38.2072 129.149 38.8823C129.149 38.903 129.151 38.9236 129.153 38.9443V43.6848C129.153 43.7055 129.149 43.7261 129.149 43.7467C129.149 43.7529 129.149 43.7591 129.149 43.7674C129.149 43.7736 129.149 43.7798 129.149 43.788C129.149 44.4611 129.706 45.0083 130.395 45.0083C131.085 45.0083 131.642 44.4632 131.642 43.788C131.642 43.7818 131.642 43.7756 131.642 43.7674C131.642 43.7612 131.642 43.755 131.642 43.7467C131.642 43.7261 131.64 43.7055 131.64 43.6848V40.0943H145.225L149.301 44.5189C149.529 44.7997 149.881 44.9794 150.274 44.9794C150.961 44.9794 151.52 44.4322 151.52 43.7591C151.52 43.4164 151.377 43.1088 151.145 42.8858L148.563 40.084C150.423 39.9642 151.794 39.4666 152.724 38.5747V38.5706Z" fill="#DBE0E0"/>
<path id="Vector_5" d="M57.1018 34.6333C57.1018 32.5211 55.3831 30.3821 52.1017 30.3821H33.5205C33.4994 30.3821 33.4783 30.3779 33.4551 30.3779C32.7676 30.3779 32.2087 30.923 32.2087 31.5982C32.2087 31.6188 32.2109 31.6374 32.2109 31.658V37.6291C32.2109 37.6498 32.2087 37.6684 32.2087 37.689C32.2087 37.7097 32.2109 37.7282 32.2109 37.7489V43.6787C32.2109 43.6993 32.2087 43.7179 32.2087 43.7386C32.2087 43.7448 32.2087 43.751 32.2087 43.7592C32.2087 43.7654 32.2087 43.7716 32.2087 43.7799C32.2087 44.4529 32.7655 45.0001 33.4551 45.0001C33.4762 45.0001 33.4973 44.998 33.5183 44.996H52.0996V42.5637H34.6972V38.9258H52.0996C53.8373 38.9258 54.6155 39.8404 54.6155 40.7448C54.6155 41.6491 53.8373 42.5637 52.0996 42.5637V44.996C55.3831 44.996 57.0997 42.8569 57.0997 40.7448C57.0997 39.6257 56.6189 38.5004 55.6783 37.689C56.6189 36.8776 57.0997 35.7503 57.0997 34.6333H57.1018ZM54.6176 34.6333C54.6176 35.5397 53.8394 36.4523 52.1017 36.4523L47.2998 36.4729H34.7035V36.4936H34.6993V32.8576H52.1017V32.8143C53.8394 32.8143 54.6176 33.7289 54.6176 34.6333Z" fill="#DBE0E0"/>
<path id="Vector_6" d="M121.452 42.9209L121.433 42.9002C121.422 42.8899 121.414 42.8775 121.403 42.8672L110.254 30.766C110.026 30.5203 109.699 30.3613 109.332 30.3613C109.33 30.3613 109.328 30.3613 109.326 30.3613C109.324 30.3613 109.322 30.3613 109.319 30.3613C109.125 30.3613 108.942 30.4067 108.78 30.4852C108.56 30.5802 108.375 30.7371 108.244 30.9312L97.2462 42.8692C97.2462 42.8692 97.2293 42.8878 97.2188 42.8981L97.1956 42.9229C96.8392 43.3111 96.7211 43.9119 97.1281 44.5189C97.1808 44.5974 97.2525 44.6655 97.3327 44.7171C97.9948 45.1301 98.6549 44.967 99.0387 44.552L104.511 38.6118C107.084 35.8204 111.559 35.8204 114.132 38.6118L119.604 44.552C119.986 44.9649 120.646 45.1301 121.308 44.7171C121.389 44.6676 121.46 44.5974 121.513 44.5189C121.92 43.9119 121.802 43.309 121.445 42.9229L121.452 42.9209Z" fill="#DBE0E0"/>
<path id="Vector_7" d="M109.324 38.7893L107.506 41.8719L105.688 44.9545L109.324 43.4886L112.959 44.9545L111.142 41.8719L109.324 38.7893Z" fill="#B01E41"/>
<path id="Vector_8" d="M129.286 13.3627C129.286 13.373 129.288 13.3833 129.29 13.3937V13.4019C129.312 14.0564 129.858 14.5809 130.533 14.5809C131.207 14.5809 131.751 14.0564 131.775 13.4019V13.3937C131.775 13.3937 131.777 13.373 131.777 13.3627C131.777 13.3524 131.775 13.3421 131.775 13.3317V1.24914C131.775 1.23882 131.777 1.22849 131.777 1.21817C131.777 0.545079 131.218 0 130.53 0C129.843 0 129.286 0.545079 129.286 1.22023C129.286 1.23056 129.288 1.24088 129.29 1.2512V13.3317C129.29 13.3421 129.286 13.3524 129.286 13.3627Z" fill="#DBE0E0"/>
<path id="Vector_9" d="M23.6995 6.11353C23.012 6.11353 22.4531 6.6586 22.4531 7.33376C22.4531 7.35441 22.4552 7.37505 22.4573 7.3957V13.4432C22.4447 16.7116 20.9305 18.2002 17.5542 18.2622C17.5289 18.2622 17.5036 18.2581 17.4762 18.2581C16.7887 18.2581 16.2299 18.8031 16.2299 19.4783C16.2299 20.1534 16.7866 20.6985 17.4762 20.6985C17.4804 20.6985 17.4846 20.6985 17.4889 20.6985C22.2781 20.651 24.9247 18.0784 24.9416 13.4494V7.3957C24.9416 7.37505 24.9437 7.35647 24.9437 7.33582C24.9437 6.66273 24.387 6.11559 23.6974 6.11559L23.6995 6.11353Z" fill="#DBE0E0"/>
<path id="Vector_10" d="M32.3437 13.3628C32.3437 14.0359 32.9004 14.583 33.59 14.583C33.6343 14.583 33.6807 14.581 33.725 14.5748V14.5789H84.5888V14.6099C84.8144 14.6099 85.0316 14.5996 85.2425 14.5789H120.349C120.378 14.5789 120.408 14.583 120.437 14.583C120.467 14.583 120.496 14.581 120.526 14.5789H120.587V14.5727C121.205 14.5005 121.684 13.9863 121.684 13.3628C121.684 13.3401 121.682 13.3174 121.679 13.2967V7.37726C121.679 7.35455 121.684 7.33184 121.684 7.31119C121.684 6.6381 121.127 6.09096 120.437 6.09096C119.794 6.09096 119.263 6.56997 119.199 7.18318H119.193C119.193 7.18318 118.402 11.9258 113.042 12.1446H89.1629C89.4476 11.581 89.5931 10.9678 89.5931 10.3546C89.5931 8.24237 87.8765 6.10335 84.593 6.10335H66.1573C66.0982 6.09509 66.0413 6.08889 65.9801 6.08889C65.2926 6.08889 64.7338 6.63397 64.7338 7.30913C64.7338 7.98428 65.2905 8.52936 65.9801 8.52936V8.53762H84.5951C86.3328 8.53762 87.111 9.45228 87.111 10.3566C87.111 11.168 86.4825 11.9857 85.1012 12.1467H41.473C41.4498 12.1446 41.4266 12.1426 41.4034 12.1405C34.8532 11.5232 34.849 5.7317 34.849 5.7317L34.8406 5.7379V1.27816C34.8406 1.25751 34.8427 1.23893 34.8427 1.21828C34.8427 0.545191 34.286 -0.00195312 33.5964 -0.00195312C32.9068 -0.00195312 32.35 0.545191 32.35 1.21828C32.35 1.23893 32.3521 1.25957 32.3542 1.28229V13.2988C32.3542 13.3195 32.35 13.3401 32.35 13.3628H32.3437Z" fill="#DBE0E0"/>
<path id="Vector_11" d="M129.29 19.7921H131.03C131.307 19.7921 131.532 19.5733 131.532 19.3007C131.532 19.0282 131.309 18.8093 131.03 18.8093H129.29C129.014 18.8093 128.789 19.0282 128.789 19.3007C128.789 19.5733 129.012 19.7921 129.29 19.7921Z" fill="#DBE0E0"/>
<path id="Vector_12" d="M129.792 17.0439C129.516 17.0439 129.29 17.2628 129.29 17.5353V18.8113H130.292C130.292 18.3777 130.653 18.0247 131.096 18.0247H131.239C131.488 18.0247 131.72 17.8574 131.76 17.6159C131.81 17.3082 131.57 17.0439 131.266 17.0439H129.79H129.792Z" fill="#DBE0E0"/>
<path id="Vector_13" d="M107.506 20.139L105.688 23.2216L109.324 21.7556L112.959 23.2216L111.142 20.139L109.324 17.0564L107.506 20.139Z" fill="#B01E41"/>
</g>
<defs>
<clipPath id="clip0_683_1219">
<rect width="154" height="45" fill="white"/>
</clipPath>
</defs>
</svg>
