<svg width="23" height="23" viewBox="0 0 23 23" fill="none" xmlns="http://www.w3.org/2000/svg">
<path d="M11.5 19.9062C11.7871 19.9062 12.6074 19.6191 13.4277 17.9375C13.7969 17.1992 14.125 16.3379 14.3301 15.3125H8.62891C8.875 16.3379 9.16211 17.1992 9.53125 17.9375C10.3926 19.6191 11.1719 19.9062 11.5 19.9062ZM8.30078 13.3438H14.6582C14.7402 12.7285 14.7812 12.0723 14.7812 11.375C14.7812 10.7188 14.7402 10.0625 14.6582 9.40625H8.30078C8.21875 10.0625 8.21875 10.7188 8.21875 11.375C8.21875 12.0723 8.21875 12.7285 8.30078 13.3438ZM8.62891 7.4375H14.3301C14.125 6.45312 13.7969 5.5918 13.4277 4.85352C12.6074 3.17188 11.7871 2.84375 11.5 2.84375C11.1719 2.84375 10.3926 3.17188 9.53125 4.85352C9.16211 5.5918 8.875 6.45312 8.62891 7.4375ZM16.627 9.40625C16.709 10.0625 16.709 10.7188 16.709 11.375C16.709 12.0723 16.709 12.7285 16.627 13.3438H19.7852C19.9492 12.7285 20.0312 12.0723 20.0312 11.375C20.0312 10.7188 19.9492 10.0625 19.7852 9.40625H16.627ZM19.0469 7.4375C18.1855 5.75586 16.75 4.40234 15.0273 3.62305C15.6016 4.68945 16.0527 6.00195 16.3398 7.4375H19.0469ZM6.61914 7.4375C6.90625 6.00195 7.35742 4.68945 7.93164 3.62305C6.20898 4.40234 4.77344 5.75586 3.91211 7.4375H6.61914ZM3.17383 9.40625C3.05078 10.0625 2.96875 10.7188 2.96875 11.375C2.96875 12.0723 3.00977 12.7285 3.17383 13.3438H6.33203C6.25 12.7285 6.25 12.0723 6.25 11.375C6.25 10.7188 6.25 10.0625 6.33203 9.40625H3.17383ZM15.0273 19.168C16.75 18.3887 18.1855 17.0352 19.0469 15.3125H16.3398C16.0527 16.7891 15.6016 18.1016 15.0273 19.168ZM7.93164 19.168C7.35742 18.1016 6.90625 16.7891 6.61914 15.3125H3.91211C4.77344 17.0352 6.20898 18.3887 7.93164 19.168ZM11.5 21.875C7.72656 21.875 4.28125 19.9062 2.39453 16.625C0.507812 13.3848 0.507812 9.40625 2.39453 6.125C4.28125 2.88477 7.72656 0.875 11.5 0.875C15.2324 0.875 18.6777 2.88477 20.5645 6.125C22.4512 9.40625 22.4512 13.3848 20.5645 16.625C18.6777 19.9062 15.2324 21.875 11.5 21.875Z" fill="white"/>
</svg>
