<svg width="18" height="17" viewBox="0 0 18 17" fill="none" xmlns="http://www.w3.org/2000/svg">
<path fill-rule="evenodd" clip-rule="evenodd" d="M4.89505 0H13.289C15.6025 0 17.478 1.87513 17.478 4.189V12.5829C17.478 14.8964 15.6028 16.7719 13.289 16.7719H4.89505C2.58153 16.7719 0.706055 14.8968 0.706055 12.5829V4.189C0.706055 1.87548 2.58119 0 4.89505 0ZM2.38379 12.5825C2.38379 13.9699 3.50822 15.0943 4.8956 15.0943H13.2895C14.677 15.0943 15.8013 13.9699 15.8013 12.5825V4.18856C15.8013 2.80113 14.6769 1.67676 13.2895 1.67676H4.8956C3.50816 1.67676 2.38379 2.80119 2.38379 4.18856V12.5825ZM4.89954 8.38551C4.89954 6.0698 6.7768 4.19254 9.09252 4.19254C11.4082 4.19254 13.2855 6.0698 13.2855 8.38551C13.2855 10.7012 11.4082 12.5785 9.09252 12.5785C6.7768 12.5785 4.89954 10.7012 4.89954 8.38551ZM11.6068 8.38575C11.6068 6.99632 10.4804 5.86996 9.09098 5.86996C7.70155 5.86996 6.5752 6.99632 6.5752 8.38575C6.5752 9.77518 7.70155 10.9015 9.09098 10.9015C10.4804 10.9015 11.6068 9.77518 11.6068 8.38575ZM13.2849 5.03136C12.8217 5.03136 12.4463 4.65591 12.4463 4.19277C12.4463 3.72962 12.8217 3.35417 13.2849 3.35417C13.748 3.35417 14.1235 3.72962 14.1235 4.19277C14.1235 4.65591 13.748 5.03136 13.2849 5.03136Z" fill="white"/>
</svg>
