<svg width="18" height="17" viewBox="0 0 18 17" fill="none" xmlns="http://www.w3.org/2000/svg">
<path fill-rule="evenodd" clip-rule="evenodd" d="M0.93457 14.2602V2.51167C0.93457 1.12438 2.05871 0 3.44624 0H15.1948C16.5821 0 17.7065 1.12414 17.7065 2.51167V14.2602C17.7065 15.6475 16.5823 16.7719 15.1948 16.7719H3.44624C2.05895 16.7719 0.93457 15.6478 0.93457 14.2602ZM3.44687 1.67676C2.9857 1.67676 2.61239 2.05015 2.61239 2.51124V14.2598C2.61239 14.721 2.98578 15.0943 3.44687 15.0943H15.1954C15.6566 15.0943 16.0299 14.7209 16.0299 14.2598V2.51124C16.0299 2.05007 15.6565 1.67676 15.1954 1.67676H3.44687ZM5.96661 6.70833C5.50024 6.70833 5.12801 7.08488 5.12801 7.54938V11.7374C5.12801 12.2024 5.50347 12.5785 5.96661 12.5785C6.43298 12.5785 6.80521 12.2019 6.80521 11.7374V7.54938C6.80521 7.08447 6.42975 6.70833 5.96661 6.70833ZM5.96661 5.86974C5.50347 5.86974 5.12801 5.49429 5.12801 5.03114C5.12801 4.568 5.50347 4.19255 5.96661 4.19255C6.42975 4.19255 6.80521 4.568 6.80521 5.03114C6.80521 5.49429 6.42975 5.86974 5.96661 5.86974ZM9.73978 11.7399V9.43397C9.73978 8.85579 10.2104 8.38552 10.788 8.38552C11.3655 8.38552 11.8363 8.85688 11.8363 9.43397V11.7399C11.8363 12.203 12.2117 12.5785 12.6749 12.5785C13.138 12.5785 13.5135 12.203 13.5135 11.7399V9.43397C13.5135 7.9311 12.2923 6.70833 10.788 6.70833C9.28432 6.70833 8.06258 7.92925 8.06258 9.43397V11.7399C8.06258 12.203 8.43804 12.5785 8.90118 12.5785C9.36432 12.5785 9.73978 12.203 9.73978 11.7399Z" fill="white"/>
</svg>
