<svg width="19" height="23" viewBox="0 0 19 23" fill="none" xmlns="http://www.w3.org/2000/svg">
<path d="M12.7812 6.125C12.7812 4.97656 12.125 3.91016 11.1406 3.29492C10.1152 2.7207 8.84375 2.7207 7.85938 3.29492C6.83398 3.91016 6.21875 4.97656 6.21875 6.125C6.21875 7.31445 6.83398 8.38086 7.85938 8.99609C8.84375 9.57031 10.1152 9.57031 11.1406 8.99609C12.125 8.38086 12.7812 7.31445 12.7812 6.125ZM4.25 6.125C4.25 4.2793 5.23438 2.55664 6.875 1.61328C8.47461 0.669922 10.4844 0.669922 12.125 1.61328C13.7246 2.55664 14.75 4.2793 14.75 6.125C14.75 8.01172 13.7246 9.73438 12.125 10.6777C10.4844 11.6211 8.47461 11.6211 6.875 10.6777C5.23438 9.73438 4.25 8.01172 4.25 6.125ZM2.32227 19.9062H16.6367C16.2676 17.3223 14.0527 15.3125 11.3457 15.3125H7.61328C4.90625 15.3125 2.69141 17.3223 2.32227 19.9062ZM0.3125 20.6855C0.3125 16.625 3.55273 13.3438 7.61328 13.3438H11.3457C15.4062 13.3438 18.6875 16.625 18.6875 20.6855C18.6875 21.3418 18.1133 21.875 17.457 21.875H1.50195C0.845703 21.875 0.3125 21.3418 0.3125 20.6855Z" fill="white"/>
</svg>
