<svg width="21" height="21" viewBox="0 0 21 21" fill="none" xmlns="http://www.w3.org/2000/svg">
<path d="M14.375 8.875C14.375 6.64844 13.1641 4.61719 11.25 3.48438C9.29688 2.35156 6.91406 2.35156 5 3.48438C3.04688 4.61719 1.875 6.64844 1.875 8.875C1.875 11.1406 3.04688 13.1719 5 14.3047C6.91406 15.4375 9.29688 15.4375 11.25 14.3047C13.1641 13.1719 14.375 11.1406 14.375 8.875ZM13.1641 15.2812C11.7578 16.375 10 17 8.125 17C3.63281 17 0 13.3672 0 8.875C0 4.42188 3.63281 0.75 8.125 0.75C12.5781 0.75 16.25 4.42188 16.25 8.875C16.25 10.7891 15.5859 12.5469 14.4922 13.9531L19.7266 19.1484C20.0781 19.5391 20.0781 20.125 19.7266 20.4766C19.3359 20.8672 18.75 20.8672 18.3984 20.4766L13.1641 15.2812Z" fill="white"/>
</svg>
