<?xml version="1.0" standalone="no"?>
<!DOCTYPE svg PUBLIC "-//W3C//DTD SVG 1.1//EN" "http://www.w3.org/Graphics/SVG/1.1/DTD/svg11.dtd" >
<svg xmlns="http://www.w3.org/2000/svg" xmlns:xlink="http://www.w3.org/1999/xlink" version="1.1">
<metadata>
Created by FontForge 20170731 at Wed Dec  6 12:08:59 2023
 By Aleksey,,,
Copyright (c) 2022 HadiType Foundry. All rights reserved.
</metadata>
<defs>
<font id="HTRakikDisplay-Bold" horiz-adv-x="0" >
  <font-face 
    font-family="HT Rakik Display Bold"
    font-weight="700"
    font-stretch="normal"
    units-per-em="2048"
    panose-1="0 0 8 0 0 0 0 0 0 0"
    ascent="1638"
    descent="-410"
    x-height="1087"
    cap-height="1440"
    bbox="-469 -1411 5134 2966"
    underline-thickness="0"
    underline-position="-1140"
    unicode-range="U+000D-FEFC"
  />
<missing-glyph horiz-adv-x="1136" 
 />
    <glyph glyph-name="allahar" unicode="&#x627;&#xfedf;&#xfee0;&#xfeea;" horiz-adv-x="2793" arabic-form="isolated" 
d="M1100 2910l198 56q50 -194 65 -344t3 -326l-141 -21q0 183 -27 331t-98 304zM1001 1987l156 53q-50 -122 -40.5 -181t73.5 -59q29 0 45 26.5t16 74.5v153l150 51v-180q0 -43 22 -67.5t60 -24.5q67 0 67 117q0 47 -11 83t-34 85l140 45q55 -124 55 -246q0 -131 -60.5 -212
t-164.5 -81q-82 0 -134 74q-66 -111 -170 -111q-83 0 -135.5 55t-60 144t25.5 201zM2638 1583l18 -1583h-268l-39 1563zM1812 1395l293 20l19 -891q2 -116 -23 -210t-75.5 -165t-134.5 -110t-195 -39q-77 0 -160.5 29.5t-142.5 79.5q-64 -60 -131.5 -84.5t-174.5 -24.5
q-130 0 -242.5 65t-164.5 175q-147 -103 -291 -103q-167 0 -256.5 81.5t-89.5 242.5q0 91 38.5 178t101 153.5t142 122.5t160 92t156.5 54v160l289 20l-21 -715q-3 -87 44.5 -123t129.5 -36q81 0 123.5 38.5t40.5 106.5l-20 829l293 21l-2 -850q0 -68 49.5 -105.5
t128.5 -37.5q76 0 117 39t38 106zM283 526q0 -47 34.5 -67.5t108.5 -20.5q108 0 213 60l2 278q-45 -16 -99 -40.5t-115.5 -59t-102.5 -75t-41 -75.5z" />
    <glyph glyph-name="lam_alefMaddaar" unicode="&#xfedf;&#xfe82;" horiz-adv-x="1355" arabic-form="isolated" 
d="M86 1366l-149 53q0 105 51 171.5t147 66.5q52 0 136.5 -25.5t129.5 -25.5q75 0 156 75l29 -145q-30 -55 -85.5 -86t-117.5 -31q-51 0 -120.5 20.5t-102.5 20.5q-12 0 -21 -2.5t-21 -10.5t-20 -28.5t-12 -52.5zM111 20l-45 342q226 -17 430 -20q-43 191 -133.5 407
t-196.5 404l287 80q77 -170 123 -276.5t107.5 -280.5t88.5 -309q105 2 149 74t37 247l-40 875l288 20l13 -936q0 -123 -25.5 -223.5t-67 -169t-103.5 -119.5t-126 -79.5t-144.5 -45.5t-148.5 -21t-149.5 -1t-136.5 9t-119 13.5t-88 9.5z" />
    <glyph glyph-name="lam_alefMaddaar.fina" unicode="&#xfee0;&#xfe82;" horiz-adv-x="1476" arabic-form="final" 
d="M92 1399l-149 53q0 105 51 171.5t147 66.5q52 0 137 -26t130 -26q73 0 155 76l29 -145q-30 -55 -85.5 -86t-117.5 -31q-51 0 -120.5 20.5t-102.5 20.5q-12 0 -21 -2.5t-21 -10.5t-20 -28.5t-12 -52.5zM1477 367v-367q-300 0 -383 215q-105 -269 -748 -216q-9 1 -207 21
l-49 342q191 -16 426 -20q-74 337 -319 811l284 80q216 -452 314 -866q98 1 147.5 78.5t44.5 191.5l-41 926l289 20l14 -981q1 -123 56.5 -179t171.5 -56z" />
    <glyph glyph-name="lam_alefHamzaabovear" unicode="&#xfedf;&#xfe84;" horiz-adv-x="1355" arabic-form="isolated" 
d="M563 1567v-135q-34 -9 -235 -20.5t-254 -27.5v140l84 14q-27 49 -27 104q0 94 71.5 149.5t168.5 55.5q69 0 127 -30v-136q-60 29 -115 29q-51 0 -86 -18.5t-35 -46.5q0 -65 90 -86q110 0 211 8zM918 1563l288 20l13 -936q0 -123 -25.5 -223.5t-67 -169t-103.5 -119.5
t-126 -79.5t-144.5 -45.5t-148.5 -21t-149.5 -1t-136.5 9t-119 13.5t-88 9.5l-45 342q226 -17 430 -20q-43 191 -133.5 407t-196.5 404l287 80q77 -170 123 -276.5t107.5 -280.5t88.5 -309q105 2 149 74t37 247z" />
    <glyph glyph-name="lam_alefHamzaabovear.fina" unicode="&#xfee0;&#xfe84;" horiz-adv-x="1476" arabic-form="final" 
d="M569 1599v-135q-34 -9 -235 -20t-254 -27v139l84 15q-27 49 -27 104q0 94 71.5 149.5t168.5 55.5q67 0 127 -31v-135q-60 29 -115 29q-51 0 -86 -19t-35 -47q0 -65 90 -86q110 0 211 8zM1235 1583l14 -981q1 -123 56.5 -179t171.5 -56v-367q-300 0 -383 215
q-105 -269 -748 -216q-9 1 -207 21l-49 342q191 -16 426 -20q-74 337 -319 811l284 80q216 -452 314 -866q98 1 147.5 78.5t44.5 191.5l-41 926z" />
    <glyph glyph-name="lam_alefHamzabelowar" unicode="&#xfedf;&#xfe88;" horiz-adv-x="1355" arabic-form="isolated" 
d="M918 1563l288 20l13 -936q0 -123 -25.5 -223.5t-67 -169t-103.5 -119.5t-126 -79.5t-144.5 -45.5t-148.5 -21t-149.5 -1t-136.5 9t-119 13.5t-88 9.5l-45 342q226 -17 430 -20q-43 191 -133.5 407t-196.5 404l287 80q77 -170 123 -276.5t107.5 -280.5t88.5 -309
q105 2 149 74t37 247zM453 -375q0 -66 90 -86q110 0 211 8v-135q-37 -11 -238 -21.5t-254 -25.5v139l84 15q-27 49 -27 104q0 93 72 149t168 56q65 0 129 -31v-135q-60 29 -115 29q-51 0 -85.5 -19t-34.5 -47z" />
    <glyph glyph-name="lam_alefHamzabelowar.fina" unicode="&#xfee0;&#xfe88;" horiz-adv-x="1476" arabic-form="final" 
d="M1235 1583l14 -981q1 -123 56.5 -179t171.5 -56v-367q-300 0 -383 215q-105 -269 -748 -216q-9 1 -207 21l-49 342q191 -16 426 -20q-74 337 -319 811l284 80q216 -452 314 -866q98 1 147.5 78.5t44.5 191.5l-41 926zM330 -461q0 -66 90 -86q110 0 211 8v-135
q-37 -11 -238 -21.5t-254 -25.5v139l84 15q-26 47 -26 104q0 93 72 149t167 56q65 0 129 -31v-135q-60 29 -114 29q-51 0 -86 -19t-35 -47z" />
    <glyph glyph-name="lam_alefar" unicode="&#xfedf;&#xfe8e;" horiz-adv-x="1355" arabic-form="isolated" 
d="M111 20l-45 342q226 -17 430 -20q-43 191 -133.5 407t-196.5 404l287 80q77 -170 123 -276.5t107.5 -280.5t88.5 -309q105 2 149 74t37 247l-40 875l288 20l13 -936q0 -123 -25.5 -223.5t-67 -169t-103.5 -119.5t-126 -79.5t-144.5 -45.5t-148.5 -21t-149.5 -1t-136.5 9
t-119 13.5t-88 9.5z" />
    <glyph glyph-name="lam_alefar.fina" unicode="&#xfee0;&#xfe8e;" horiz-adv-x="1476" arabic-form="final" 
d="M1477 367v-367q-300 0 -383 215q-105 -269 -748 -216q-9 1 -207 21l-49 342q191 -16 426 -20q-74 337 -319 811l284 80q216 -452 314 -866q98 1 147.5 78.5t44.5 191.5l-41 926l289 20l14 -981q1 -123 56.5 -179t171.5 -56z" />
    <glyph glyph-name="behDotlessar.init" unicode="&#x66e;" horiz-adv-x="602" 
d="M498 485q0 -106 -26.5 -191t-83 -152t-153.5 -104t-229 -38h-6v2l-98 18v324l98 21v2q124 0 176.5 41t52.5 122q0 37 -14 94.5t-28 99t-44 124.5l263 65q38 -63 65 -194.5t27 -233.5z" />
    <glyph glyph-name="behDotlessar.medi" unicode="&#x66e;" horiz-adv-x="692" 
d="M481 756v-181q0 -116 49.5 -162t165.5 -46v-367q-287 0 -379 205q-83 -202 -311 -205h-6v2l-98 18v324l98 21v2q113 0 156.5 44t58.5 164l21 160z" />
    <glyph glyph-name="behDotlessar.fina" unicode="&#x66e;" horiz-adv-x="1945" 
d="M1284 0h-659q-146 0 -258.5 38t-182 107.5t-104.5 161t-35 203.5q0 165 80 377l297 -86q-51 -128 -51 -232t67.5 -153t210.5 -49h617q104 0 144 43t54 165l21 183l246 20v-203q0 -115 49.5 -161.5t161.5 -46.5l4 -367q-251 0 -359 156q-54 -74 -132 -115t-171 -41z" />
    <glyph glyph-name="qafDotlessar.fina" unicode="&#x66f;" horiz-adv-x="1624" 
d="M1483 367h141v-367h-172q-34 -164 -132 -279t-240 -171t-318 -56q-321 0 -494.5 165.5t-173.5 444.5q0 201 92 435l222 -74q-48 -151 -48 -258q0 -170 113.5 -268.5t333.5 -98.5q36 0 80.5 7.5t99 24t106.5 50t85 78.5h-78q-212 0 -345.5 111t-133.5 297q0 123 52.5 242
t149 198.5t209.5 79.5q190 0 307 -150.5t144 -410.5zM1010 369l221 -2q-67 241 -232 241q-56 0 -109.5 -43.5t-53.5 -111.5q0 -84 174 -84z" />
    <glyph glyph-name="ainThreedotsar.init" unicode="&#x6a0;" horiz-adv-x="1116" 
d="M524 1978l185 -182l-185 -186l-182 186zM688 1315l-160 162l-161 -162l-183 184l183 184l161 -161l160 161l184 -184zM1059 508l-41 -363q-424 -145 -1012 -145h-6v2l-98 18v324l98 21v2h164q-64 104 -64 223q-1 138 73.5 248t196.5 168.5t265 58.5q151 0 295 -72
l-109 -317q-125 41 -227 41q-116 0 -179 -42t-63 -106q0 -151 252 -151q152 0 455 90z" />
    <glyph glyph-name="ainThreedotsar.medi" unicode="&#x6a0;" horiz-adv-x="1443" 
d="M731 1911l184 -182l-184 -187l-182 187zM895 1247l-160 162l-162 -162l-182 185l182 184l162 -162l160 162l184 -184zM1442 367v-367q-222 0 -401 74t-347 202q-186 -127 -360 -201.5t-346 -74.5v123l-4 -123l-103 20l10 324l97 21v2h18q227 0 455 106
q-125 105 -213 158.5t-180 58.5l38 266q141 82 304.5 121.5t322.5 35.5t310 -39.5t282 -100.5l-43 -305q-35 -4 -91 -35t-101 -63.5t-136 -100.5q209 -102 488 -102zM457 803q24 -10 49 -24.5t41.5 -24.5t46.5 -32t39 -29t45 -35.5t41 -32.5q37 25 90.5 63.5t93 65.5
t70.5 45q-114 29 -256.5 30t-259.5 -26z" />
    <glyph glyph-name="ainThreedotsar.fina" unicode="&#x6a0;" horiz-adv-x="1449" 
d="M717 1911l184 -182l-184 -187l-182 187zM881 1247l-160 162l-162 -162l-182 185l182 184l162 -162l160 162l184 -184zM723 254q-167 -95 -266.5 -190.5t-98.5 -178.5q2 -102 73.5 -169.5t183 -94t248.5 -28.5t270.5 19t248.5 58l-53 -372q-206 -64 -485 -64
q-109 0 -211 22t-193.5 69.5t-160 115t-109 164.5t-41.5 213q-7 87 0 143q35 266 305 466q19 14 39 28q-86 69 -140 107.5t-127 72t-138 37.5l38 268q184 108 411.5 141t437.5 -2t391 -123l-43 -305q-30 -2 -79.5 -26.5t-97 -55t-127.5 -84.5q-25 -17 -38 -26
q235 -92 489 -92v-367q-111 0 -216 21t-197 59.5t-165 79.5t-149 94zM451 786q47 -18 96.5 -47.5t80 -51.5t87.5 -66q185 128 272 163q-115 29 -264.5 29t-271.5 -27z" />
    <glyph glyph-name="fehDotlessar.init" unicode="&#x6a1;" horiz-adv-x="954" 
d="M831 666q7 -128 -23.5 -236.5t-87 -184t-135 -130t-165.5 -82t-180 -33.5h-240l-104 20v324l104 23h227q293 3 361 157q-78 -23 -158.5 -28t-156 12t-135 54t-95 104.5t-35.5 156.5q0 84 29.5 168.5t82 153.5t132.5 112t172 43q126 0 220 -87t140.5 -229.5t46.5 -317.5z
M217 883q0 -40 35.5 -65.5t92.5 -35t122 -9t131 10.5q-13 93 -77.5 155t-143.5 62q-53 0 -106.5 -34.5t-53.5 -83.5z" />
    <glyph glyph-name="fehDotlessar.medi" unicode="&#x6a1;" horiz-adv-x="1105" 
d="M1106 367v-367q-402 0 -574 115q-97 -65 -222.5 -90t-309.5 -25v4l-98 19v321l98 21v2h6h219q-80 109 -80 227q0 96 42 182.5t105.5 143.5t137.5 90.5t139 33.5q74 0 142 -33t119.5 -90.5t82.5 -142.5t31 -184q0 -108 -80 -229q63 2 242 2zM543 408q54 15 100.5 71.5
t46.5 110.5q0 50 -36.5 99.5t-92.5 49.5q-69 0 -122.5 -52t-53.5 -105q0 -48 47.5 -99t110.5 -75z" />
    <glyph glyph-name="fehDotlessar.fina" unicode="&#x6a1;" horiz-adv-x="2000" 
d="M2060 367v-367q-400 0 -573 115q-91 -62 -209 -87.5t-285 -27.5h-377q-142 3 -249.5 42.5t-173.5 109t-99 160.5t-33 202q0 170 80 375l295 -88q-49 -127 -49 -230q0 -105 68 -154.5t209 -49.5h329h187q-80 109 -80 227q0 96 42 182.5t105.5 143.5t137.5 90.5t139 33.5
q153 0 263.5 -126.5t110.5 -323.5q0 -110 -79 -229q63 2 241 2zM1339 582q0 -48 47.5 -99t110.5 -75q54 15 101 71.5t47 110.5q0 50 -36.5 99.5t-92.5 49.5q-69 0 -123 -52t-54 -105z" />
    <glyph glyph-name="noonThreedotsabovear.init" unicode="&#x6bd;" horiz-adv-x="602" 
d="M270 1653l185 -183l-185 -186l-182 186zM434 989l-160 162l-161 -162l-183 185l183 184l161 -162l160 162l184 -184zM143 848l263 65q38 -63 65 -194.5t27 -233.5q0 -106 -26.5 -191t-83 -152t-153.5 -104t-229 -38h-6v2l-98 18v324l98 21v2q124 0 176.5 41t52.5 122
q0 37 -14 94.5t-28 99t-44 124.5z" />
    <glyph glyph-name="noonThreedotsabovear.medi" unicode="&#x6bd;" horiz-adv-x="692" 
d="M344 1526l184 -183l-184 -186l-182 186zM508 862l-160 162l-162 -162l-182 185l182 184l162 -162l160 162l184 -184zM481 756v-181q0 -116 49.5 -162t165.5 -46v-367q-287 0 -379 205q-83 -202 -311 -205h-6v2l-98 18v324l98 21v2q113 0 156.5 44t58.5 164l21 160z" />
    <glyph glyph-name="noonThreedotsabovear.fina" unicode="&#x6bd;" horiz-adv-x="1624" 
d="M696 1552l185 -182l-185 -186l-182 186zM860 889l-160 162l-161 -162l-183 184l183 184l161 -161l160 161l184 -184zM1624 367v-367q-170 0 -262 76q-45 -245 -214.5 -382.5t-438.5 -137.5q-159 0 -286.5 47t-211 131t-128 199.5t-44.5 252.5q0 205 98 426l299 -80
q-80 -174 -80 -305q0 -147 98.5 -227t286.5 -80q158 0 258.5 76t100.5 211q0 53 -9 113.5t-16.5 95.5t-32 129t-34.5 133l284 41q40 -87 60 -195q19 -58 45.5 -90t80.5 -49.5t146 -17.5z" />
    <glyph glyph-name="hehgoalHamzaabovear.fina" unicode="&#x6c2;" horiz-adv-x="1110" 
d="M795 1552v-135q-34 -9 -235.5 -20t-254.5 -27v139l84 15q-27 49 -27 104q0 94 71.5 149.5t168.5 55.5q67 0 127 -31v-135q-60 29 -115 29q-51 0 -85.5 -19t-34.5 -47q0 -65 90 -86q110 0 211 8zM473 1075l57 111q240 -162 353 -325.5t114 -383.5q0 -205 -127 -340
t-329 -135q-145 0 -248.5 61.5t-154 166.5t-50.5 243q0 164 105.5 327t279.5 275zM551 367q99 0 150 47t51 108q0 114 -213 279q-28 -20 -56.5 -45t-64 -63t-58 -83.5t-22.5 -87.5q0 -64 52.5 -109.5t160.5 -45.5z" />
    <glyph glyph-name="tehMarbutagoalar.fina" unicode="&#x6c3;" horiz-adv-x="1110" 
d="M698 1313l-159 164l-162 -164l-182 186l182 182l162 -159l159 159l185 -182zM473 1075l57 111q240 -162 353 -325.5t114 -383.5q0 -205 -127 -340t-329 -135q-145 0 -248.5 61.5t-154 166.5t-50.5 243q0 164 105.5 327t279.5 275zM551 367q99 0 150 47t51 108
q0 114 -213 279q-28 -20 -56.5 -45t-64 -63t-58 -83.5t-22.5 -87.5q0 -64 52.5 -109.5t160.5 -45.5z" />
    <glyph glyph-name="wawDotabovear.fina" unicode="&#x6cf;" horiz-adv-x="1071" 
d="M444 1546l185 -182l-185 -186l-182 186zM922 367h149v-367h-211q-79 -217 -264.5 -364.5t-441.5 -219.5l-82 308q72 26 123.5 48t130 61t143.5 89.5t111 108.5h-177q-142 0 -236.5 100.5t-94.5 257.5q0 77 29 163t79 161t126.5 123.5t162.5 48.5q166 0 290 -145.5
t163 -372.5zM268 426q0 -43 48.5 -62.5t117.5 -19.5h217q-94 211 -223 211q-55 0 -107.5 -39t-52.5 -90z" />
    <glyph glyph-name="alefWaslaar.fina" unicode="&#x671;" horiz-adv-x="681" arabic-form="final" 
d="M393 1520q-43 3 -107 22t-98 19q-12 0 -21 -2.5t-20.5 -11t-19 -29t-10.5 -52.5l-152 52q0 105 51.5 170.5t145.5 66.5q78 144 173 223.5t189 79.5t154.5 -71.5t60.5 -180.5q0 -113 -104 -203t-242 -83zM504 1882q-103 0 -211 -149q72 -23 108 -27q73 -3 134 35l24 18
q27 24 27 47q0 28 -25 52t-57 24zM463 1327l35 -799q4 -97 48.5 -129t135.5 -32v-367q-215 0 -339.5 106.5t-133.5 331.5l-35 869z" />
    <glyph glyph-name="pehar.fina" unicode="&#x67e;" horiz-adv-x="1945" arabic-form="final" 
d="M1942 367l4 -367q-251 0 -359 156q-54 -74 -132 -115t-171 -41h-659q-146 0 -258.5 38t-182 107.5t-104.5 161t-35 203.5q0 165 80 377l297 -86q-51 -128 -51 -232t67.5 -153t210.5 -49h617q104 0 144 43t54 165l21 183l246 20v-203q0 -115 49.5 -161.5t161.5 -46.5z
M733 -86l160 -162l162 162l182 -184l-182 -185l-162 162l-160 -162l-184 185zM889 -750l-182 183l182 186l184 -186z" />
    <glyph glyph-name="pehar.init" unicode="&#x67e;" horiz-adv-x="602" arabic-form="initial" 
d="M0 0v2l-98 18v324l98 21v2q124 0 176.5 41t52.5 122q0 37 -14 94.5t-28 99t-44 124.5l263 65q38 -63 65 -194.5t27 -233.5q0 -106 -26.5 -191t-83 -152t-153.5 -104t-229 -38h-6zM440 -455l-161 162l-160 -162l-185 185l185 184l160 -162l161 162l183 -184zM274 -750
l-182 183l182 186l185 -186z" />
    <glyph glyph-name="pehar.medi" unicode="&#x67e;" horiz-adv-x="692" arabic-form="medial" 
d="M481 756v-181q0 -116 49.5 -162t165.5 -46v-367q-287 0 -379 205q-83 -202 -311 -205h-6v2l-98 18v324l98 21v2q113 0 156.5 44t58.5 164l21 160zM113 -86l159 -162l162 162l182 -184l-182 -185l-162 162l-159 -162l-185 185zM268 -750l-182 183l182 186l185 -186z" />
    <glyph glyph-name="ttehar.fina" unicode="&#x679;" horiz-adv-x="1945" arabic-form="final" 
d="M854 1087v-141q-169 -3 -260 21v133q66 -10 115 -13l32 56l-14 422h111l12 -285q78 70 164 70q68 0 116 -61t48 -144q0 -48 -14 -83.5t-37 -57.5t-58 -35t-72 -18t-84 -5h-57v141h47h23h43.5t37 1.5t34 4.5t24 8t17.5 13.5t5 20.5q0 28 -27 53.5t-63 25.5
q-50 0 -97 -24.5t-105 -102.5h59zM1942 367l4 -367q-251 0 -359 156q-54 -74 -132 -115t-171 -41h-659q-146 0 -258.5 38t-182 107.5t-104.5 161t-35 203.5q0 165 80 377l297 -86q-51 -128 -51 -232t67.5 -153t210.5 -49h617q104 0 144 43t54 165l21 183l246 20v-203
q0 -115 49.5 -161.5t161.5 -46.5z" />
    <glyph glyph-name="ttehar.init" unicode="&#x679;" horiz-adv-x="602" arabic-form="initial" 
d="M395 1491q68 0 117 -61t49 -144q0 -59 -20.5 -99.5t-59 -60.5t-82.5 -28t-104 -8h-57v141h47h27q22 -1 42 -0.5t37.5 1.5t31.5 4t24.5 8t16 13.5t5.5 20.5q0 28 -26.5 53t-63.5 25q-49 0 -96 -24.5t-105 -100.5h58v-141q-170 -3 -261 18v135q56 -9 115 -12l33 53l-14 422
h110l12 -285q78 70 164 70zM143 848l263 65q38 -63 65 -194.5t27 -233.5q0 -106 -26.5 -191t-83 -152t-153.5 -104t-229 -38h-6v2l-98 18v324l98 21v2q124 0 176.5 41t52.5 122q0 37 -14 94.5t-28 99t-44 124.5z" />
    <glyph glyph-name="ttehar.medi" unicode="&#x679;" horiz-adv-x="692" arabic-form="medial" 
d="M174 1100v-142q-169 -3 -260 21v133q56 -9 115 -12l32 53l-14 422h113l12 -285q75 70 162 70q68 0 117 -61t49 -144q0 -59 -20.5 -99t-59.5 -60.5t-83.5 -29t-103.5 -8.5h-57v142h47h27q42 0 62.5 0.5t47 4.5t37.5 14.5t11 27.5q0 28 -27.5 54t-63.5 26
q-49 0 -95.5 -24.5t-104.5 -102.5h57zM481 756v-181q0 -116 49.5 -162t165.5 -46v-367q-287 0 -379 205q-83 -202 -311 -205h-6v2l-98 18v324l98 21v2q113 0 156.5 44t58.5 164l21 160z" />
    <glyph glyph-name="vehar.fina" unicode="&#x6a4;" horiz-adv-x="2000" arabic-form="final" 
d="M1516 1796l184 -182l-184 -187l-183 187zM1679 1133l-159 161l-162 -161l-182 184l182 184l162 -162l159 162l185 -184zM2060 367v-367q-400 0 -573 115q-91 -62 -209 -87.5t-285 -27.5h-377q-142 3 -249.5 42.5t-173.5 109t-99 160.5t-33 202q0 170 80 375l295 -88
q-49 -127 -49 -230q0 -105 68 -154.5t209 -49.5h329h187q-80 109 -80 227q0 96 42 182.5t105.5 143.5t137.5 90.5t139 33.5q153 0 263.5 -126.5t110.5 -323.5q0 -110 -79 -229q63 2 241 2zM1339 582q0 -48 47.5 -99t110.5 -75q54 15 101 71.5t47 110.5q0 50 -36.5 99.5
t-92.5 49.5q-69 0 -123 -52t-54 -105z" />
    <glyph glyph-name="vehar.init" unicode="&#x6a4;" horiz-adv-x="954" arabic-form="initial" 
d="M414 2122l184 -183l-184 -186l-183 186zM578 1458l-160 162l-162 -162l-182 184l182 185l162 -162l160 162l184 -185zM831 666q7 -128 -23.5 -236.5t-87 -184t-135 -130t-165.5 -82t-180 -33.5h-240l-104 20v324l104 23h227q293 3 361 157q-78 -23 -158.5 -28t-156 12
t-135 54t-95 104.5t-35.5 156.5q0 84 29.5 168.5t82 153.5t132.5 112t172 43q126 0 220 -87t140.5 -229.5t46.5 -317.5zM217 883q0 -40 35.5 -65.5t92.5 -35t122 -9t131 10.5q-13 93 -77.5 155t-143.5 62q-53 0 -106.5 -34.5t-53.5 -83.5z" />
    <glyph glyph-name="vehar.medi" unicode="&#x6a4;" horiz-adv-x="1105" arabic-form="medial" 
d="M565 1810l185 -182l-185 -186l-182 186zM729 1147l-160 162l-161 -162l-183 184l183 185l161 -162l160 162l184 -185zM1106 367v-367q-402 0 -574 115q-97 -65 -222.5 -90t-309.5 -25v4l-98 19v321l98 21v2h6h219q-80 109 -80 227q0 96 42 182.5t105.5 143.5t137.5 90.5
t139 33.5q74 0 142 -33t119.5 -90.5t82.5 -142.5t31 -184q0 -108 -80 -229q63 2 242 2zM543 408q54 15 100.5 71.5t46.5 110.5q0 50 -36.5 99.5t-92.5 49.5q-69 0 -122.5 -52t-53.5 -105q0 -48 47.5 -99t110.5 -75z" />
    <glyph glyph-name="tchehar.fina" unicode="&#x686;" horiz-adv-x="1624" arabic-form="final" 
d="M1626 367v-367q-122 0 -209 28.5t-138 84t-76.5 125.5t-31.5 163q-122 -20 -230.5 -47t-216 -71t-184 -98.5t-124 -130.5t-47.5 -165q0 -155 127.5 -227t349.5 -72q217 0 514 68v-6l-43 -348q-238 -78 -465 -78q-120 0 -225.5 23t-196 72t-155.5 120.5t-102 174.5
t-38 228q0 131 38.5 241t103 190t162.5 146t204.5 110.5t239.5 82.5q-65 29 -97 41q-74 30 -137 49.5t-141.5 34t-159.5 10.5t-160 -28l43 293q82 25 165 29t150.5 -6t147.5 -38t137.5 -53.5t139.5 -65.5l24 -12q83 -41 133 -64t124.5 -51.5t144.5 -41.5t141 -13l-47 -260
q-56 -4 -88 -8q60 -63 223 -63zM905 109l109 108l123 -125l-123 -123l-109 109l-108 -109l-125 123l125 125zM903 -231l-125 125l125 124l123 -124z" />
    <glyph glyph-name="tchehar.init" unicode="&#x686;" horiz-adv-x="1464" arabic-form="initial" 
d="M698 864q86 -32 136.5 -49.5t137.5 -41.5t174.5 -35t182.5 -11l-33 -278q-109 -1 -221.5 -47t-279.5 -138q-86 -47 -140 -75.5t-143.5 -68.5t-161.5 -62.5t-164.5 -39.5t-181.5 -18h-6v2l-98 18v324l98 21v2q258 0 786 161q-70 18 -135 39q-17 5 -67.5 20.5t-69 20.5
t-62.5 17t-66 14.5t-61.5 8t-66.5 2.5t-63.5 -7t-70.5 -14.5t-69 -26.5l43 311q43 18 83.5 29.5t83 14t73 4t75.5 -7.5t68.5 -13.5t73.5 -22t69 -24.5t76 -29zM532 27l160 -162l162 162l182 -185l-182 -184l-162 162l-160 -162l-184 184zM688 -637l-182 182l182 187
l184 -187z" />
    <glyph glyph-name="tchehar.medi" unicode="&#x686;" horiz-adv-x="1417" arabic-form="medial" 
d="M1102 410q75 -43 317 -43v-367q-119 0 -213.5 16t-156 42t-106 64.5t-68 77.5t-37.5 87l-41 -23q-86 -47 -140 -75.5t-143.5 -68.5t-161.5 -62.5t-164.5 -39.5t-181.5 -18h-6v2l-98 18v324l98 21v2q258 0 786 161q-70 18 -135 39q-17 5 -67.5 20.5t-69 20.5t-62.5 17
t-66 14.5t-61.5 8t-66.5 2.5t-63.5 -7t-70.5 -14.5t-69 -26.5l43 311q43 18 83.5 29.5t83 14t73 4t75.5 -7.5t68.5 -13.5t73.5 -22t69 -24.5t76 -29q86 -32 136.5 -49.5t137.5 -41.5t174.5 -35t182.5 -11l-33 -278q-93 0 -196 -39zM532 -6l162 -162l160 162l182 -184
l-182 -185l-160 162l-162 -162l-184 185zM690 -670l-184 183l184 186l182 -186z" />
    <glyph glyph-name="ddalar.fina" unicode="&#x688;" horiz-adv-x="1335" arabic-form="final" 
d="M575 1546v-141q-172 -3 -260 18v136q66 -10 115 -13l33 53l-17 422h113l12 -286q74 71 162 71q70 0 118 -60.5t48 -143.5q0 -59 -20 -99.5t-58.5 -61t-83 -28.5t-104.5 -8h-55v141h45h27q43 0 63.5 0.5t47 4.5t37.5 14.5t11 27.5q0 28 -27 53t-65 25q-48 0 -94.5 -24.5
t-104.5 -100.5h57zM864 1196l209 -616q40 -119 96.5 -166t165.5 -47v-367q-160 0 -249 62t-146 192q-88 -272 -420 -272q-168 0 -297.5 79t-181.5 197l135 256q71 -82 175.5 -121t207.5 -39q212 0 252 84l-225 629z" />
    <glyph glyph-name="jehar.fina" unicode="&#x698;" horiz-adv-x="1017" arabic-form="final" 
d="M518 1681l182 -182l-182 -186l-184 186zM682 1018l-162 162l-160 -162l-184 184l184 184l160 -161l162 161l182 -184zM1018 367v-367q-171 0 -268 78q-29 -135 -93.5 -244.5t-160 -188.5t-208.5 -134.5t-253 -94.5l-111 351q69 19 133.5 43.5t144.5 70.5t137.5 101.5
t97.5 139.5t40 181q0 179 -92 447l283 84q42 -125 67 -254q12 -39 23.5 -66t33.5 -57t50.5 -48t73 -30t102.5 -12z" />
    <glyph glyph-name="rrehar.fina" unicode="&#x691;" horiz-adv-x="1017" arabic-form="final" 
d="M465 1251v-141q-169 -3 -260 18v136q65 -10 117 -13q25 45 30 52l-14 423h113l12 -284q74 69 162 69q68 0 117 -61t49 -143q0 -59 -20.5 -99.5t-59.5 -61t-83.5 -28.5t-103.5 -8h-57v141h47h27q22 -1 42 -0.5t37.5 1.5t31.5 4t24.5 8t16 13.5t5.5 20.5q0 28 -26.5 53
t-63.5 25q-49 0 -95.5 -24.5t-104.5 -100.5h57zM1018 367v-367q-171 0 -268 78q-29 -135 -93.5 -244.5t-160 -188.5t-208.5 -134.5t-253 -94.5l-111 351q69 19 133.5 43.5t144.5 70.5t137.5 101.5t97.5 139.5t40 181q0 179 -92 447l283 84q42 -125 67 -254q12 -39 23.5 -66
t33.5 -57t50.5 -48t73 -30t102.5 -12z" />
    <glyph glyph-name="kehehar.fina" unicode="&#x6a9;" horiz-adv-x="1804" arabic-form="final" 
d="M1427 571q61 -85 86 -110q75 -74 208 -89q42 -5 94 -5v-367q-342 0 -451 190q-108 -190 -490 -190h-256q-573 0 -573 535q0 117 25 239h274q-12 -61 -12 -145q0 -128 70 -195t243 -67h252q143 0 204.5 18.5t61.5 73.5q0 45 -72 114t-280 238q-79 64 -123 100
q21 225 31 299q75 31 150 59t182 63t162.5 53t211 66.5t207.5 64.5l-65 -361q-52 -9 -113 -22t-133.5 -30.5t-117 -29t-122.5 -32t-90 -23.5q72 -51 134.5 -104.5t103 -94t83 -92.5t62.5 -80t53 -76z" />
    <glyph glyph-name="kehehar.init" unicode="&#x6a9;" horiz-adv-x="1075" arabic-form="initial" 
d="M1096 1518l-109 -361q-205 -36 -565 -127q232 -147 320.5 -283t88.5 -325q0 -62 -18.5 -121t-60 -114t-101.5 -96.5t-149 -66t-197 -24.5h-297v367h295q148 0 206 21t58 75q0 32 -23.5 76t-73.5 101t-145 125.5t-221 133.5q14 185 29 311q115 47 252 92t375.5 115.5
t335.5 100.5zM-98 20v324l104 23v-367z" />
    <glyph glyph-name="kehehar.medi" unicode="&#x6a9;" horiz-adv-x="1136" arabic-form="medial" 
d="M750 571q61 -85 85 -109q73 -74 202 -90q45 -5 100 -5v-367q-340 0 -449 190q-108 -190 -489 -190h-199v2l-98 18v324l98 21v2h221q142 0 204 18.5t62 73.5q-1 45 -72.5 113.5t-272.5 232.5q-83 67 -130 106q11 148 29 299q75 31 152 59t179.5 62t165.5 54.5t207.5 65.5
t208.5 65l-65 -361q-142 -24 -576 -137q89 -62 160 -124.5t125 -124.5t83 -100.5t69 -97.5z" />
    <glyph glyph-name="gafar.fina" unicode="&#x6af;" horiz-adv-x="1804" arabic-form="final" 
d="M737 1462l598 234v-129l-618 -234zM1427 571q61 -85 86 -110q75 -74 208 -89q42 -5 94 -5v-367q-342 0 -451 190q-108 -190 -490 -190h-256q-573 0 -573 535q0 117 25 239h274q-12 -61 -12 -145q0 -128 70 -195t243 -67h252q143 0 204.5 18.5t61.5 73.5q0 45 -72 114
t-280 238q-79 64 -123 100q21 225 31 299q75 31 150 59t182 63t162.5 53t211 66.5t207.5 64.5l-65 -361q-52 -9 -113 -22t-133.5 -30.5t-117 -29t-122.5 -32t-90 -23.5q72 -51 134.5 -104.5t103 -94t83 -92.5t62.5 -80t53 -76z" />
    <glyph glyph-name="gafar.init" unicode="&#x6af;" horiz-adv-x="1013" arabic-form="initial" 
d="M135 1333l21 129l618 244v-129zM1096 1518l-109 -361q-205 -36 -565 -127q232 -147 320.5 -283t88.5 -325q0 -62 -18.5 -121t-60 -114t-101.5 -96.5t-149 -66t-197 -24.5h-297v367h295q148 0 206 21t58 75q0 32 -23.5 76t-73.5 101t-145 125.5t-221 133.5q14 185 29 311
q115 47 252 92t375.5 115.5t335.5 100.5zM-98 20v324l104 23v-367z" />
    <glyph glyph-name="gafar.medi" unicode="&#x6af;" horiz-adv-x="1128" arabic-form="medial" 
d="M66 1462l618 244v-129l-639 -244zM750 571q61 -85 85 -109q73 -74 202 -90q45 -5 100 -5v-367q-340 0 -449 190q-108 -190 -489 -190h-199v2l-98 18v324l98 21v2h221q142 0 204 18.5t62 73.5q-1 45 -72.5 113.5t-272.5 232.5q-83 67 -130 106q11 148 29 299q75 31 152 59
t179.5 62t165.5 54.5t207.5 65.5t208.5 65l-65 -361q-142 -24 -576 -137q89 -62 160 -124.5t125 -124.5t83 -100.5t69 -97.5z" />
    <glyph glyph-name="noonghunnaar.fina" unicode="&#x6ba;" horiz-adv-x="1624" arabic-form="final" 
d="M1624 367v-367q-170 0 -262 76q-45 -245 -214.5 -382.5t-438.5 -137.5q-159 0 -286.5 47t-211 131t-128 199.5t-44.5 252.5q0 205 98 426l299 -80q-80 -174 -80 -305q0 -147 98.5 -227t286.5 -80q158 0 258.5 76t100.5 211q0 53 -9 113.5t-16.5 95.5t-32 129t-34.5 133
l284 41q40 -87 60 -195q19 -58 45.5 -90t80.5 -49.5t146 -17.5z" />
    <glyph glyph-name="hehgoalar.fina" unicode="&#x6c1;" horiz-adv-x="1230" arabic-form="final" 
d="M256 0l-195 219q85 95 168.5 177t177.5 159t184 121.5t161 44.5q59 0 105.5 -19.5t76.5 -50.5t55.5 -69t49.5 -76t51.5 -69t69.5 -50.5t95 -19.5v-367q-71 0 -127.5 19t-93 49t-66.5 66.5t-56 73t-53.5 66.5t-67 49t-89.5 19q-71 0 -212 -113.5t-234 -228.5z" />
    <glyph glyph-name="hehgoalar.init" unicode="&#x6c1;" horiz-adv-x="602" arabic-form="initial" 
d="M498 485q0 -106 -26.5 -191t-83 -152t-153.5 -104t-229 -38h-6v2l-98 18v324l98 21v2q124 0 176.5 41t52.5 122q0 37 -14 94.5t-28 99t-44 124.5l263 65q38 -63 65 -194.5t27 -233.5zM174 -352q0 88 36.5 173.5t96 151.5t132 114.5t147.5 70.5l139 -129
q-123 -35 -206.5 -105t-108.5 -137q101 15 166 -39.5t65 -161.5q0 -98 -64 -158.5t-167 -60.5q-104 0 -170 77.5t-66 203.5z" />
    <glyph glyph-name="hehgoalar.medi" unicode="&#x6c1;" horiz-adv-x="1067" arabic-form="medial" 
d="M696 -45q-6 106 43 200.5t144.5 153t212.5 58.5l-29 -367q-59 0 -88 -10.5t-53 -48.5q-22 -44 -16 -114t32 -97l-166 -232q-72 32 -145.5 89t-141 132.5t-122 172t-82.5 198.5q-87 -90 -289 -90l-6 367q141 0 196.5 36t55.5 144v112h262v-112q0 -201 35 -305
q43 -184 157 -287z" />
    <glyph glyph-name="hehDoachashmeear.fina" unicode="&#x6be;" horiz-adv-x="1337" arabic-form="final" 
d="M870 -465q-129 0 -238 56.5t-185 167t-99 259.5l-239 -34v344l245 26q41 254 203 452.5t383 262.5q115 -58 199 -193t84 -274q0 -142 -90 -235h204v-367h-149q33 -61 33 -131q0 -62 -19.5 -118.5t-59 -106.5t-109.5 -79.5t-163 -29.5zM575 369q191 0 296.5 54t105.5 146
q0 81 -92 150q-28 -2 -70.5 -26.5t-89.5 -66t-89 -110t-61 -147.5zM844 -193q97 0 128 48q26 41 -15 82q-65 63 -224 63h-151q9 -72 95.5 -132.5t166.5 -60.5z" />
    <glyph glyph-name="hehDoachashmeear.init" unicode="&#x6be;" horiz-adv-x="1368" arabic-form="initial" 
d="M315 883l105 280q259 -105 376 -165q536 -274 537 -615q0 -98 -39.5 -175.5t-105 -124.5t-153 -71t-181.5 -20t-193.5 34.5t-185.5 86.5q-90 -72 -186 -92.5t-283 -20.5h-6v2l-98 18v324l98 21v2h6h176q-32 75 -32 151q0 110 68.5 201t166.5 133zM768 330q236 -42 236 78
q0 46 -34.5 91t-75 73.5t-89.5 52.5q16 -53 16 -109q0 -103 -53 -186zM487 381q34 22 46 30.5t30.5 24.5t24 29.5t4.5 30.5q0 43 -31 74.5t-74 31.5q-48 0 -84 -28t-36 -70q0 -31 36.5 -66t83.5 -57z" />
    <glyph glyph-name="hehDoachashmeear.medi" unicode="&#x6be;" horiz-adv-x="1585" arabic-form="medial" 
d="M1585 367l2 -367q-275 0 -346 129q-122 -132 -346.5 -137t-419.5 121q-90 -72 -186 -92.5t-283 -20.5h-6v2l-98 18v324l98 21v2h6h176q-32 75 -32 151q0 110 68.5 201t166.5 133l-70 31l105 280q264 -107 390 -172q461 -238 515 -528l2 2q3 -48 57.5 -73t200.5 -25z
M768 330q236 -42 236 78q0 46 -34.5 91t-75 73.5t-89.5 52.5q16 -53 16 -109q0 -103 -53 -186zM487 381q34 22 46 30.5t30.5 24.5t24 29.5t4.5 30.5q0 43 -31 74.5t-74 31.5q-48 0 -84 -28t-36 -70q0 -31 36.5 -66t83.5 -57z" />
    <glyph glyph-name="yehbarreear.fina" unicode="&#x6d2;" horiz-adv-x="1511" arabic-form="final" 
d="M549 -559q-239 0 -348 100t-109 299q0 91 37 172q26 83 121 174q79 76 227 131q159 48 359 48l727 2l-31 -367h-746q-128 0 -211 -12q-71 -13 -129 -39q-46 -22 -61 -49q-20 -26 -20 -54q0 -36 38 -57q31 -22 107 -22h893l-68 -326h-786z" />
    <glyph glyph-name="yehbarreeHamzaabovear.fina" unicode="&#x6d3;" horiz-adv-x="1511" arabic-form="final" 
d="M645 696v-135q-34 -9 -235 -20t-254 -27v139l84 15q-27 49 -27 104q0 94 71.5 149.5t168.5 55.5q67 0 127 -31v-135q-60 29 -115 29q-51 0 -86 -19t-35 -47q0 -65 90 -86q110 0 211 8zM446 -51q-46 -22 -61 -49q-20 -26 -20 -54q0 -36 38 -57q31 -22 107 -22h893
l-68 -326h-786q-239 0 -348 100t-109 299q0 91 37 172q26 83 121 174q79 76 227 131q159 48 359 48l727 2l-31 -367h-746q-128 0 -211 -12q-71 -13 -129 -39z" />
    <glyph glyph-name="alefMaksuraar.init" unicode="&#x649;" horiz-adv-x="602" arabic-form="initial" 
d="M498 485q0 -106 -26.5 -191t-83 -152t-153.5 -104t-229 -38h-6v2l-98 18v324l98 21v2q124 0 176.5 41t52.5 122q0 37 -14 94.5t-28 99t-44 124.5l263 65q38 -63 65 -194.5t27 -233.5z" />
    <glyph glyph-name="alefMaksuraar.medi" unicode="&#x649;" horiz-adv-x="692" arabic-form="medial" 
d="M481 756v-181q0 -116 49.5 -162t165.5 -46v-367q-287 0 -379 205q-83 -202 -311 -205h-6v2l-98 18v324l98 21v2q113 0 156.5 44t58.5 164l21 160z" />
    <glyph glyph-name="yehfarsi.fina" unicode="&#x6cc;" horiz-adv-x="1572" arabic-form="final" 
d="M1573 367v-367q-41 0 -92 10q2 -6 2 -20q0 -70 -21.5 -132.5t-76.5 -123.5t-138.5 -105t-217.5 -71t-304 -27q-344 0 -518 147t-174 431q0 267 145 585l299 -98q-129 -255 -129 -424q0 -146 103 -212t301 -66q88 0 140.5 1t132 5.5t119.5 17t40 31.5q0 14 -31.5 30
t-82.5 30.5t-96 25.5t-92 20.5t-51 10.5l107 331q217 -30 635 -30z" />
    <glyph glyph-name="yehfarsi.init" unicode="&#x6cc;" horiz-adv-x="602" arabic-form="initial" 
d="M0 0v2l-98 18v324l98 21v2q124 0 176.5 41t52.5 122q0 37 -14 94.5t-28 99t-44 124.5l263 65q38 -63 65 -194.5t27 -233.5q0 -106 -26.5 -191t-83 -152t-153.5 -104t-229 -38h-6zM444 -68l185 -182l-185 -186l-159 164l-162 -164l-182 186l182 182l162 -159z" />
    <glyph glyph-name="yehfarsi.medi" unicode="&#x6cc;" horiz-adv-x="692" arabic-form="medial" 
d="M481 756v-181q0 -116 49.5 -162t165.5 -46v-367q-287 0 -379 205q-83 -202 -311 -205h-6v2l-98 18v324l98 21v2q113 0 156.5 44t58.5 164l21 160zM117 -68l162 -159l159 159l185 -182l-185 -186l-159 164l-162 -164l-183 186z" />
    <glyph glyph-name="yehHamzaabove_alefMaksuraar" unicode="&#xfc03;" horiz-adv-x="1660" arabic-form="isolated" 
d="M1403 1450v-135q-34 -9 -235.5 -20t-254.5 -27v139l84 14q-26 47 -26 105q0 94 71 149.5t168 55.5q67 0 127 -31v-135q-58 28 -114 28q-51 0 -86 -18.5t-35 -46.5q0 -65 90 -86q110 0 211 8zM1352 401q52 -38 87.5 -88.5t50 -99.5t19 -79t4.5 -54q0 -49 -10 -98.5
t-34.5 -104t-62 -102.5t-96.5 -92.5t-133.5 -76t-178.5 -50.5t-226 -19q-322 0 -506 173.5t-184 461.5q0 246 137 524l234 -84q-80 -195 -80 -333q0 -180 119 -277.5t339 -97.5q86 0 181.5 15t169 47.5t73.5 72.5q0 32 -79.5 52.5t-174 25.5t-184 9t-98.5 7l108 334
q103 -11 121 -12v2q189 0 189 182q0 132 -109 375l270 78q113 -267 113 -482q0 -126 -59 -209z" />
    <glyph glyph-name="yehHamzaabove_yehar" unicode="&#xfc04;" horiz-adv-x="1660" arabic-form="isolated" 
d="M1403 1450v-135q-34 -9 -235.5 -20t-254.5 -27v139l84 14q-26 47 -26 105q0 94 71 149.5t168 55.5q67 0 127 -31v-135q-58 28 -114 28q-51 0 -86 -18.5t-35 -46.5q0 -65 90 -86q110 0 211 8zM1352 401q52 -38 87.5 -88.5t50 -99.5t19 -79t4.5 -54q0 -49 -10 -98.5
t-34.5 -104t-62 -102.5t-96.5 -92.5t-133.5 -76t-178.5 -50.5t-226 -19q-322 0 -506 173.5t-184 461.5q0 246 137 524l234 -84q-80 -195 -80 -333q0 -180 119 -277.5t339 -97.5q86 0 181.5 15t169 47.5t73.5 72.5q0 32 -79.5 52.5t-174 25.5t-184 9t-98.5 7l108 334
q103 -11 121 -12v2q189 0 189 182q0 132 -109 375l270 78q113 -267 113 -482q0 -126 -59 -209zM475 -768l162 -160l160 160l184 -182l-184 -187l-160 164l-162 -164l-182 187z" />
    <glyph glyph-name="beh_alefMaksuraar" unicode="&#xfc09;" horiz-adv-x="1660" arabic-form="isolated" 
d="M1513 80q0 -49 -10 -98.5t-34.5 -104t-62 -102.5t-96.5 -92.5t-133.5 -76t-178.5 -50.5t-226 -19q-322 0 -506 173.5t-184 461.5q0 246 137 524l234 -84q-80 -195 -80 -333q0 -180 119 -277.5t339 -97.5q86 0 181.5 15t169 47.5t73.5 72.5q0 32 -79.5 52.5t-174 25.5
t-184 9t-98.5 7l108 334q103 -11 121 -12v2q189 0 189 182q0 132 -109 375l270 78q113 -267 113 -482q0 -126 -59 -209q52 -38 87.5 -88.5t50 -99.5t19 -79t4.5 -54zM1255 -750l185 185l182 -185l-182 -184z" />
    <glyph glyph-name="beh_yehar" unicode="&#xfc0a;" horiz-adv-x="1767" arabic-form="isolated" 
d="M1513 80q0 -49 -10 -98.5t-34.5 -104t-62 -102.5t-96.5 -92.5t-133.5 -76t-178.5 -50.5t-226 -19q-322 0 -506 173.5t-184 461.5q0 246 137 524l234 -84q-80 -195 -80 -333q0 -180 119 -277.5t339 -97.5q86 0 181.5 15t169 47.5t73.5 72.5q0 32 -79.5 52.5t-174 25.5
t-184 9t-98.5 7l108 334q103 -11 121 -12v2q189 0 189 182q0 132 -109 375l270 78q113 -267 113 -482q0 -126 -59 -209q52 -38 87.5 -88.5t50 -99.5t19 -79t4.5 -54zM1257 -750l183 183l184 -183l-184 -186zM477 -766l162 -162l160 162l182 -184l-182 -185l-160 162
l-162 -162l-184 185z" />
    <glyph glyph-name="teh_alefMaksuraar" unicode="&#xfc0f;" horiz-adv-x="1660" arabic-form="isolated" 
d="M1307 1210l-160 164l-162 -164l-182 187l182 182l162 -160l160 160l184 -182zM1352 401q52 -38 87.5 -88.5t50 -99.5t19 -79t4.5 -54q0 -49 -10 -98.5t-34.5 -104t-62 -102.5t-96.5 -92.5t-133.5 -76t-178.5 -50.5t-226 -19q-322 0 -506 173.5t-184 461.5q0 246 137 524
l234 -84q-80 -195 -80 -333q0 -180 119 -277.5t339 -97.5q86 0 181.5 15t169 47.5t73.5 72.5q0 32 -79.5 52.5t-174 25.5t-184 9t-98.5 7l108 334q103 -11 121 -12v2q189 0 189 182q0 132 -109 375l270 78q113 -267 113 -482q0 -126 -59 -209z" />
    <glyph glyph-name="teh_yehar" unicode="&#xfc10;" horiz-adv-x="1660" arabic-form="isolated" 
d="M1307 1210l-160 164l-162 -164l-182 187l182 182l162 -160l160 160l184 -182zM1352 401q52 -38 87.5 -88.5t50 -99.5t19 -79t4.5 -54q0 -49 -10 -98.5t-34.5 -104t-62 -102.5t-96.5 -92.5t-133.5 -76t-178.5 -50.5t-226 -19q-322 0 -506 173.5t-184 461.5q0 246 137 524
l234 -84q-80 -195 -80 -333q0 -180 119 -277.5t339 -97.5q86 0 181.5 15t169 47.5t73.5 72.5q0 32 -79.5 52.5t-174 25.5t-184 9t-98.5 7l108 334q103 -11 121 -12v2q189 0 189 182q0 132 -109 375l270 78q113 -267 113 -482q0 -126 -59 -209zM475 -768l162 -160l160 160
l184 -182l-184 -187l-160 164l-162 -164l-182 187z" />
    <glyph glyph-name="theh_alefMaksuraar" unicode="&#xfc13;" horiz-adv-x="1660" arabic-form="isolated" 
d="M1153 1872l184 -182l-184 -187l-182 187zM1317 1208l-160 162l-162 -162l-182 185l182 184l162 -162l160 162l184 -184zM1352 401q52 -38 87.5 -88.5t50 -99.5t19 -79t4.5 -54q0 -49 -10 -98.5t-34.5 -104t-62 -102.5t-96.5 -92.5t-133.5 -76t-178.5 -50.5t-226 -19
q-322 0 -506 173.5t-184 461.5q0 246 137 524l234 -84q-80 -195 -80 -333q0 -180 119 -277.5t339 -97.5q86 0 181.5 15t169 47.5t73.5 72.5q0 32 -79.5 52.5t-174 25.5t-184 9t-98.5 7l108 334q103 -11 121 -12v2q189 0 189 182q0 132 -109 375l270 78q113 -267 113 -482
q0 -126 -59 -209z" />
    <glyph glyph-name="theh_yehar" unicode="&#xfc14;" horiz-adv-x="1660" arabic-form="isolated" 
d="M1153 1872l184 -182l-184 -187l-182 187zM1317 1208l-160 162l-162 -162l-182 185l182 184l162 -162l160 162l184 -184zM1352 401q52 -38 87.5 -88.5t50 -99.5t19 -79t4.5 -54q0 -49 -10 -98.5t-34.5 -104t-62 -102.5t-96.5 -92.5t-133.5 -76t-178.5 -50.5t-226 -19
q-322 0 -506 173.5t-184 461.5q0 246 137 524l234 -84q-80 -195 -80 -333q0 -180 119 -277.5t339 -97.5q86 0 181.5 15t169 47.5t73.5 72.5q0 32 -79.5 52.5t-174 25.5t-184 9t-98.5 7l108 334q103 -11 121 -12v2q189 0 189 182q0 132 -109 375l270 78q113 -267 113 -482
q0 -126 -59 -209zM475 -768l162 -160l160 160l184 -182l-184 -187l-160 164l-162 -164l-182 187z" />
    <glyph glyph-name="lam_alefMaksuraar" unicode="&#xfc43;" horiz-adv-x="1591" arabic-form="isolated" 
d="M1321 393q106 -78 149 -152.5t43 -160.5q0 -49 -10 -98.5t-34.5 -104t-62 -102.5t-96.5 -92.5t-133.5 -76t-178.5 -50.5t-226 -19q-322 0 -506 173.5t-184 461.5q0 246 137 524l234 -84q-80 -195 -80 -333q0 -180 119 -277.5t339 -97.5q86 0 181.5 15t169 47.5t73.5 72.5
q0 32 -78.5 52.5t-171.5 26t-182 9.5t-98 6l104 324q93 0 144 5.5t87 25.5t48 55t12 96l-39 924l289 20l19 -973q0 -67 -17 -126t-51 -91z" />
    <glyph glyph-name="lam_yehar" unicode="&#xfc44;" horiz-adv-x="1591" arabic-form="isolated" 
d="M1321 393q106 -78 149 -152.5t43 -160.5q0 -49 -10 -98.5t-34.5 -104t-62 -102.5t-96.5 -92.5t-133.5 -76t-178.5 -50.5t-226 -19q-322 0 -506 173.5t-184 461.5q0 246 137 524l234 -84q-80 -195 -80 -333q0 -180 119 -277.5t339 -97.5q86 0 181.5 15t169 47.5t73.5 72.5
q0 32 -78.5 52.5t-171.5 26t-182 9.5t-98 6l104 324q93 0 144 5.5t87 25.5t48 55t12 96l-39 924l289 20l19 -973q0 -67 -17 -126t-51 -91zM543 -686l162 -160l159 160l185 -182l-185 -187l-159 164l-162 -164l-183 187z" />
    <glyph glyph-name="noon_alefMaksuraar" unicode="&#xfc4f;" horiz-adv-x="1660" arabic-form="isolated" 
d="M1155 1556l184 -182l-184 -186l-182 186zM1352 401q52 -38 87.5 -88.5t50 -99.5t19 -79t4.5 -54q0 -49 -10 -98.5t-34.5 -104t-62 -102.5t-96.5 -92.5t-133.5 -76t-178.5 -50.5t-226 -19q-322 0 -506 173.5t-184 461.5q0 246 137 524l234 -84q-80 -195 -80 -333
q0 -180 119 -277.5t339 -97.5q86 0 181.5 15t169 47.5t73.5 72.5q0 32 -79.5 52.5t-174 25.5t-184 9t-98.5 7l108 334q103 -11 121 -12v2q189 0 189 182q0 132 -109 375l270 78q113 -267 113 -482q0 -126 -59 -209z" />
    <glyph glyph-name="noon_yehar" unicode="&#xfc50;" horiz-adv-x="1660" arabic-form="isolated" 
d="M1155 1556l184 -182l-184 -186l-182 186zM1352 401q52 -38 87.5 -88.5t50 -99.5t19 -79t4.5 -54q0 -49 -10 -98.5t-34.5 -104t-62 -102.5t-96.5 -92.5t-133.5 -76t-178.5 -50.5t-226 -19q-322 0 -506 173.5t-184 461.5q0 246 137 524l234 -84q-80 -195 -80 -333
q0 -180 119 -277.5t339 -97.5q86 0 181.5 15t169 47.5t73.5 72.5q0 32 -79.5 52.5t-174 25.5t-184 9t-98.5 7l108 334q103 -11 121 -12v2q189 0 189 182q0 132 -109 375l270 78q113 -267 113 -482q0 -126 -59 -209zM475 -768l162 -160l160 160l184 -182l-184 -187l-160 164
l-162 -164l-182 187z" />
    <glyph glyph-name="yeh_alefMaksuraar" unicode="&#xfc59;" horiz-adv-x="1660" arabic-form="isolated" 
d="M1513 80q0 -49 -10 -98.5t-34.5 -104t-62 -102.5t-96.5 -92.5t-133.5 -76t-178.5 -50.5t-226 -19q-322 0 -506 173.5t-184 461.5q0 246 137 524l234 -84q-80 -195 -80 -333q0 -180 119 -277.5t339 -97.5q86 0 181.5 15t169 47.5t73.5 72.5q0 32 -79.5 52.5t-174 25.5
t-184 9t-98.5 7l108 334q103 -11 121 -12v2q189 0 189 182q0 132 -109 375l270 78q113 -267 113 -482q0 -126 -59 -209q52 -38 87.5 -88.5t50 -99.5t19 -79t4.5 -54zM1563 -555l184 -182l-184 -187l-160 164l-162 -164l-182 187l182 182l162 -160z" />
    <glyph glyph-name="yeh_yehar" unicode="&#xfc5a;" horiz-adv-x="1968" arabic-form="isolated" 
d="M1513 80q0 -49 -10 -98.5t-34.5 -104t-62 -102.5t-96.5 -92.5t-133.5 -76t-178.5 -50.5t-226 -19q-322 0 -506 173.5t-184 461.5q0 246 137 524l234 -84q-80 -195 -80 -333q0 -180 119 -277.5t339 -97.5q86 0 181.5 15t169 47.5t73.5 72.5q0 32 -79.5 52.5t-174 25.5
t-184 9t-98.5 7l108 334q103 -11 121 -12v2q189 0 189 182q0 132 -109 375l270 78q113 -267 113 -482q0 -126 -59 -209q52 -38 87.5 -88.5t50 -99.5t19 -79t4.5 -54zM1563 -555l184 -184l-184 -185l-160 162l-162 -162l-182 185l182 184l162 -162zM477 -766l162 -162
l160 162l182 -184l-182 -185l-160 162l-162 -162l-184 185z" />
    <glyph glyph-name="shadda_dammatanar" unicode="&#xfc5e;" arabic-form="isolated" 
d="M319 2021q83 0 144 -69t61 -189q0 -108 -73 -200t-183 -142t-225 -51l-109 105q11 75 11 124q0 101 -148 15l15 141q64 54 124 62.5t98 -33.5t38 -125q0 -55 -6 -123q139 12 239 96q-75 7 -127.5 53.5t-52.5 126.5q0 84 56.5 146.5t137.5 62.5zM238 1831q0 -35 49.5 -64
t111.5 -18q7 53 -23 95t-69 42q-23 0 -46 -16.5t-23 -38.5zM39 1233l127 43q-81 -197 27 -197q51 0 51 82v127l123 41v-147q0 -36 17.5 -56t49.5 -20q55 0 55 96q0 58 -36 139l114 35q45 -99 45 -200q0 -108 -49.5 -175t-134.5 -67q-66 0 -111 61q-53 -90 -139 -90
q-104 0 -144 96.5t5 231.5z" />
    <glyph glyph-name="shadda_dammaar" unicode="&#xfc61;" arabic-form="isolated" 
d="M446 1724q0 -83 -39 -152t-105.5 -108.5t-153.5 -49.5t-183 24l15 121q184 -29 266 34q-81 0 -140 48t-59 133q0 84 58 146t137 62q83 0 143.5 -69t60.5 -189zM160 1792q0 -34 50 -63.5t112 -18.5q7 53 -23.5 95t-69.5 42q-23 0 -46 -16.5t-23 -38.5zM410 1343l114 35
q45 -99 45 -200q0 -108 -49.5 -175t-134.5 -67q-66 0 -111 61q-53 -90 -139 -90q-104 0 -144 96.5t5 231.5l127 43q-81 -197 27 -197q51 0 51 82v127l123 41v-147q0 -36 17.5 -56t49.5 -20q55 0 55 96q0 58 -36 139z" />
    <glyph glyph-name="yehHamzaabove_zainar.fina" unicode="&#xfc65;" horiz-adv-x="1519" arabic-form="final" 
d="M1372 1358v-135q-34 -9 -235 -20t-254 -27v139l84 14q-27 49 -27 105q0 94 71.5 149t168.5 55q68 0 127 -30v-135q-58 28 -115 28q-51 0 -86 -18.5t-35 -46.5q0 -65 90 -86q110 0 211 8zM434 1182l184 -183l-184 -186l-182 186zM1309 813v-242q0 -118 49.5 -164.5
t165.5 -46.5v-364q-152 0 -248.5 45.5t-157.5 167.5q-72 -80 -229 -80q-72 0 -139 25q-5 -144 -44 -268t-103 -218.5t-153 -169.5t-192 -125t-223 -82l-111 373q43 7 104 30.5t136.5 70t139 106t106.5 147t43 183.5q0 107 -16 189t-66 220l297 70q17 -35 28 -76
q34 -55 80 -77.5t113 -22.5q44 0 82.5 14.5t50 23t18.5 15.5l23 236z" />
    <glyph glyph-name="yehHamzaabove_alefMaksuraar.fina" unicode="&#xfc68;" horiz-adv-x="1957" arabic-form="final" 
d="M1567 1378v-135q-34 -9 -235.5 -20t-254.5 -27v139l84 15q-26 47 -26 104q0 94 71 149.5t168 55.5q67 0 127 -31v-135q-60 29 -115 29q-51 0 -85.5 -19t-34.5 -47q0 -65 90 -86q110 0 211 8zM1718 639l78 -143q22 -41 33 -58t30.5 -37.5t42 -27t56.5 -6.5v-367
q-78 0 -136.5 17t-104.5 54.5t-80 83.5t-74 119l-54 99q-6 12 -19 38.5t-20.5 40.5t-23.5 34.5t-33 31.5t-45 19t-63 8q-70 0 -129.5 -13.5t-94.5 -33.5t-54 -40t-19 -36q0 -18 11.5 -29t26.5 -16.5t56 -16.5l162 -49q50 -14 80.5 -24t66 -24.5t56 -29.5t41.5 -36.5
t31.5 -48t17 -61.5t6.5 -79q0 -72 -24.5 -148t-81.5 -154t-139 -139t-209.5 -99.5t-281.5 -38.5q-172 0 -309.5 49t-226 137t-135.5 207.5t-47 261.5q0 241 131 506l284 -117q-100 -218 -100 -362q0 -149 108 -232.5t342 -83.5q102 0 190 15.5t142 38.5t84.5 48t30.5 46
q0 27 -36.5 43.5t-111.5 37.5q-13 3 -20 5l-180 49q-55 15 -94.5 42t-60 60.5t-29.5 66t-9 66.5q0 116 49 226t130 190.5t191.5 129t227.5 48.5q57 0 106.5 -17.5t82 -42.5t61.5 -61.5t46 -65.5t35 -63l5 -10z" />
    <glyph glyph-name="yehHamzaabove_yehar.fina" unicode="&#xfc69;" horiz-adv-x="1957" arabic-form="final" 
d="M1567 1378v-135q-34 -9 -235.5 -20t-254.5 -27v139l84 15q-26 47 -26 104q0 94 71 149.5t168 55.5q67 0 127 -31v-135q-60 29 -115 29q-51 0 -85.5 -19t-34.5 -47q0 -65 90 -86q110 0 211 8zM1718 639l78 -143q22 -41 33 -58t30.5 -37.5t42 -27t56.5 -6.5v-367
q-78 0 -136.5 17t-104.5 54.5t-80 83.5t-74 119l-54 99q-6 12 -19 38.5t-20.5 40.5t-23.5 34.5t-33 31.5t-45 19t-63 8q-70 0 -129.5 -13.5t-94.5 -33.5t-54 -40t-19 -36q0 -18 11.5 -29t26.5 -16.5t56 -16.5l162 -49q50 -14 80.5 -24t66 -24.5t56 -29.5t41.5 -36.5
t31.5 -48t17 -61.5t6.5 -79q0 -72 -24.5 -148t-81.5 -154t-139 -139t-209.5 -99.5t-281.5 -38.5q-172 0 -309.5 49t-226 137t-135.5 207.5t-47 261.5q0 241 131 506l284 -117q-100 -218 -100 -362q0 -149 108 -232.5t342 -83.5q102 0 190 15.5t142 38.5t84.5 48t30.5 46
q0 27 -36.5 43.5t-111.5 37.5q-13 3 -20 5l-180 49q-55 15 -94.5 42t-60 60.5t-29.5 66t-9 66.5q0 116 49 226t130 190.5t191.5 129t227.5 48.5q57 0 106.5 -17.5t82 -42.5t61.5 -61.5t46 -65.5t35 -63l5 -10zM651 -670l162 -159l160 159l184 -182l-184 -186l-160 164
l-162 -164l-182 186z" />
    <glyph glyph-name="beh_zainar.fina" unicode="&#xfc6b;" horiz-adv-x="1587" arabic-form="final" 
d="M600 1178l184 -185l-184 -186l-184 186zM1376 813v-242q0 -118 49.5 -164.5t165.5 -46.5v-364q-152 0 -249 45t-158 166q-73 -78 -230 -78q-77 0 -137 25q-7 -179 -64 -326.5t-155.5 -251.5t-222.5 -174.5t-275 -110.5l-108 373q42 7 103 30.5t136.5 70t139 106
t106.5 147t43 183.5q0 107 -16 189t-66 220l295 70q19 -39 29 -76q36 -55 81.5 -77.5t112.5 -22.5q44 0 82.5 14t50.5 23t19 16l22 236zM1106 -768l-184 186l184 185l184 -185z" />
    <glyph glyph-name="beh_alefMaksuraar.fina" unicode="&#xfc6e;" horiz-adv-x="1957" arabic-form="final" 
d="M827 -571q-172 0 -309.5 49t-226 137t-135.5 207.5t-47 261.5q0 241 131 506l284 -117q-100 -218 -100 -362q0 -149 108 -232.5t342 -83.5q102 0 190 15.5t142 38.5t84.5 48t30.5 46q0 27 -36.5 43.5t-111.5 37.5q-13 3 -20 5l-180 49q-55 15 -94.5 42t-60 60.5t-29.5 66
t-9 66.5q0 116 49 226t130 190.5t191.5 129t227.5 48.5q57 0 106.5 -17.5t82 -42.5t61.5 -61.5t46 -65.5t35 -63l5 -10l4 -8l78 -143q22 -41 33 -58t30.5 -37.5t42 -27t56.5 -6.5v-367q-78 0 -136.5 17t-104.5 54.5t-80 83.5t-74 119l-54 99q-6 12 -19 38.5t-20.5 40.5
t-23.5 34.5t-33 31.5t-45 19t-63 8q-70 0 -129.5 -13.5t-94.5 -33.5t-54 -40t-19 -36q0 -18 11.5 -29t26.5 -16.5t56 -16.5l162 -49q50 -14 80.5 -24t66 -24.5t56 -29.5t41.5 -36.5t31.5 -48t17 -61.5t6.5 -79q0 -72 -24.5 -148t-81.5 -154t-139 -139t-209.5 -99.5
t-281.5 -38.5zM1802 -813l-182 -184l-184 184l184 184z" />
    <glyph glyph-name="beh_yehar.fina" unicode="&#xfc6f;" horiz-adv-x="1957" arabic-form="final" 
d="M1718 639l78 -143q22 -41 33 -58t30.5 -37.5t42 -27t56.5 -6.5v-367q-78 0 -136.5 17t-104.5 54.5t-80 83.5t-74 119l-54 99q-6 12 -19 38.5t-20.5 40.5t-23.5 34.5t-33 31.5t-45 19t-63 8q-70 0 -129.5 -13.5t-94.5 -33.5t-54 -40t-19 -36q0 -18 11.5 -29t26.5 -16.5
t56 -16.5l162 -49q50 -14 80.5 -24t66 -24.5t56 -29.5t41.5 -36.5t31.5 -48t17 -61.5t6.5 -79q0 -72 -24.5 -148t-81.5 -154t-139 -139t-209.5 -99.5t-281.5 -38.5q-172 0 -309.5 49t-226 137t-135.5 207.5t-47 261.5q0 241 131 506l284 -117q-100 -218 -100 -362
q0 -149 108 -232.5t342 -83.5q102 0 190 15.5t142 38.5t84.5 48t30.5 46q0 27 -36.5 43.5t-111.5 37.5q-13 3 -20 5l-180 49q-55 15 -94.5 42t-60 60.5t-29.5 66t-9 66.5q0 116 49 226t130 190.5t191.5 129t227.5 48.5q57 0 106.5 -17.5t82 -42.5t61.5 -61.5t46 -65.5
t35 -63l5 -10zM1618 -997l-182 184l182 184l184 -184zM651 -670l162 -161l160 161l182 -182l-182 -184l-160 162l-162 -162l-184 184z" />
    <glyph glyph-name="teh_zainar.fina" unicode="&#xfc71;" horiz-adv-x="1519" arabic-form="final" 
d="M1315 1120l-160 164l-162 -164l-182 187l182 182l162 -160l160 160l184 -182zM530 1176l185 -183l-185 -186l-182 186zM1309 813v-242q0 -118 49.5 -164.5t165.5 -46.5v-364q-152 0 -248.5 45.5t-157.5 167.5q-72 -80 -229 -80q-72 0 -139 25q-5 -144 -44 -268
t-103 -218.5t-153 -169.5t-192 -125t-223 -82l-111 373q43 7 104 30.5t136.5 70t139 106t106.5 147t43 183.5q0 107 -16 189t-66 220l297 70q17 -35 28 -76q34 -55 80 -77.5t113 -22.5q44 0 82.5 14.5t50 23t18.5 15.5l23 236z" />
    <glyph glyph-name="teh_alefMaksuraar.fina" unicode="&#xfc74;" horiz-adv-x="1957" arabic-form="final" 
d="M1473 1139l-160 164l-162 -164l-182 186l182 182l162 -159l160 159l184 -182zM1718 639l78 -143q22 -41 33 -58t30.5 -37.5t42 -27t56.5 -6.5v-367q-78 0 -136.5 17t-104.5 54.5t-80 83.5t-74 119l-54 99q-6 12 -19 38.5t-20.5 40.5t-23.5 34.5t-33 31.5t-45 19t-63 8
q-70 0 -129.5 -13.5t-94.5 -33.5t-54 -40t-19 -36q0 -18 11.5 -29t26.5 -16.5t56 -16.5l162 -49q50 -14 80.5 -24t66 -24.5t56 -29.5t41.5 -36.5t31.5 -48t17 -61.5t6.5 -79q0 -72 -24.5 -148t-81.5 -154t-139 -139t-209.5 -99.5t-281.5 -38.5q-172 0 -309.5 49t-226 137
t-135.5 207.5t-47 261.5q0 241 131 506l284 -117q-100 -218 -100 -362q0 -149 108 -232.5t342 -83.5q102 0 190 15.5t142 38.5t84.5 48t30.5 46q0 27 -36.5 43.5t-111.5 37.5q-13 3 -20 5l-180 49q-55 15 -94.5 42t-60 60.5t-29.5 66t-9 66.5q0 116 49 226t130 190.5
t191.5 129t227.5 48.5q57 0 106.5 -17.5t82 -42.5t61.5 -61.5t46 -65.5t35 -63l5 -10z" />
    <glyph glyph-name="teh_yehar.fina" unicode="&#xfc75;" horiz-adv-x="1957" arabic-form="final" 
d="M1473 1139l-160 164l-162 -164l-182 186l182 182l162 -159l160 159l184 -182zM1718 639l78 -143q22 -41 33 -58t30.5 -37.5t42 -27t56.5 -6.5v-367q-78 0 -136.5 17t-104.5 54.5t-80 83.5t-74 119l-54 99q-6 12 -19 38.5t-20.5 40.5t-23.5 34.5t-33 31.5t-45 19t-63 8
q-70 0 -129.5 -13.5t-94.5 -33.5t-54 -40t-19 -36q0 -18 11.5 -29t26.5 -16.5t56 -16.5l162 -49q50 -14 80.5 -24t66 -24.5t56 -29.5t41.5 -36.5t31.5 -48t17 -61.5t6.5 -79q0 -72 -24.5 -148t-81.5 -154t-139 -139t-209.5 -99.5t-281.5 -38.5q-172 0 -309.5 49t-226 137
t-135.5 207.5t-47 261.5q0 241 131 506l284 -117q-100 -218 -100 -362q0 -149 108 -232.5t342 -83.5q102 0 190 15.5t142 38.5t84.5 48t30.5 46q0 27 -36.5 43.5t-111.5 37.5q-13 3 -20 5l-180 49q-55 15 -94.5 42t-60 60.5t-29.5 66t-9 66.5q0 116 49 226t130 190.5
t191.5 129t227.5 48.5q57 0 106.5 -17.5t82 -42.5t61.5 -61.5t46 -65.5t35 -63l5 -10zM651 -670l162 -159l160 159l184 -182l-184 -186l-160 164l-162 -164l-182 186z" />
    <glyph glyph-name="theh_zainar.fina" unicode="&#xfc77;" horiz-adv-x="1519" arabic-form="final" 
d="M1122 1780l185 -183l-185 -186l-182 186zM1286 1116l-160 162l-161 -162l-183 184l183 185l161 -162l160 162l184 -185zM434 1182l184 -183l-184 -186l-182 186zM1309 813v-242q0 -118 49.5 -164.5t165.5 -46.5v-364q-152 0 -248.5 45.5t-157.5 167.5q-72 -80 -229 -80
q-72 0 -139 25q-5 -144 -44 -268t-103 -218.5t-153 -169.5t-192 -125t-223 -82l-111 373q43 7 104 30.5t136.5 70t139 106t106.5 147t43 183.5q0 107 -16 189t-66 220l297 70q17 -35 28 -76q34 -55 80 -77.5t113 -22.5q44 0 82.5 14.5t50 23t18.5 15.5l23 236z" />
    <glyph glyph-name="theh_alefMaksuraar.fina" unicode="&#xfc7a;" horiz-adv-x="1957" arabic-form="final" 
d="M1317 1800l184 -182l-184 -186l-182 186zM1481 1137l-160 161l-162 -161l-182 184l182 184l162 -162l160 162l184 -184zM1718 639l78 -143q22 -41 33 -58t30.5 -37.5t42 -27t56.5 -6.5v-367q-78 0 -136.5 17t-104.5 54.5t-80 83.5t-74 119l-54 99q-6 12 -19 38.5
t-20.5 40.5t-23.5 34.5t-33 31.5t-45 19t-63 8q-70 0 -129.5 -13.5t-94.5 -33.5t-54 -40t-19 -36q0 -18 11.5 -29t26.5 -16.5t56 -16.5l162 -49q50 -14 80.5 -24t66 -24.5t56 -29.5t41.5 -36.5t31.5 -48t17 -61.5t6.5 -79q0 -72 -24.5 -148t-81.5 -154t-139 -139
t-209.5 -99.5t-281.5 -38.5q-172 0 -309.5 49t-226 137t-135.5 207.5t-47 261.5q0 241 131 506l284 -117q-100 -218 -100 -362q0 -149 108 -232.5t342 -83.5q102 0 190 15.5t142 38.5t84.5 48t30.5 46q0 27 -36.5 43.5t-111.5 37.5q-13 3 -20 5l-180 49q-55 15 -94.5 42
t-60 60.5t-29.5 66t-9 66.5q0 116 49 226t130 190.5t191.5 129t227.5 48.5q57 0 106.5 -17.5t82 -42.5t61.5 -61.5t46 -65.5t35 -63l5 -10z" />
    <glyph glyph-name="theh_yehar.fina" unicode="&#xfc7b;" horiz-adv-x="1957" arabic-form="final" 
d="M1317 1800l184 -182l-184 -186l-182 186zM1481 1137l-160 161l-162 -161l-182 184l182 184l162 -162l160 162l184 -184zM1718 639l78 -143q22 -41 33 -58t30.5 -37.5t42 -27t56.5 -6.5v-367q-78 0 -136.5 17t-104.5 54.5t-80 83.5t-74 119l-54 99q-6 12 -19 38.5
t-20.5 40.5t-23.5 34.5t-33 31.5t-45 19t-63 8q-70 0 -129.5 -13.5t-94.5 -33.5t-54 -40t-19 -36q0 -18 11.5 -29t26.5 -16.5t56 -16.5l162 -49q50 -14 80.5 -24t66 -24.5t56 -29.5t41.5 -36.5t31.5 -48t17 -61.5t6.5 -79q0 -72 -24.5 -148t-81.5 -154t-139 -139
t-209.5 -99.5t-281.5 -38.5q-172 0 -309.5 49t-226 137t-135.5 207.5t-47 261.5q0 241 131 506l284 -117q-100 -218 -100 -362q0 -149 108 -232.5t342 -83.5q102 0 190 15.5t142 38.5t84.5 48t30.5 46q0 27 -36.5 43.5t-111.5 37.5q-13 3 -20 5l-180 49q-55 15 -94.5 42
t-60 60.5t-29.5 66t-9 66.5q0 116 49 226t130 190.5t191.5 129t227.5 48.5q57 0 106.5 -17.5t82 -42.5t61.5 -61.5t46 -65.5t35 -63l5 -10zM651 -670l162 -159l160 159l184 -182l-184 -186l-160 164l-162 -164l-182 186z" />
    <glyph glyph-name="noon_zainar.fina" unicode="&#xfc8b;" horiz-adv-x="1519" arabic-form="final" 
d="M1124 1464l185 -182l-185 -186l-182 186zM434 1182l184 -183l-184 -186l-182 186zM1309 813v-242q0 -118 49.5 -164.5t165.5 -46.5v-364q-152 0 -248.5 45.5t-157.5 167.5q-72 -80 -229 -80q-72 0 -139 25q-5 -144 -44 -268t-103 -218.5t-153 -169.5t-192 -125t-223 -82
l-111 373q43 7 104 30.5t136.5 70t139 106t106.5 147t43 183.5q0 107 -16 189t-66 220l297 70q17 -35 28 -76q34 -55 80 -77.5t113 -22.5q44 0 82.5 14.5t50 23t18.5 15.5l23 236z" />
    <glyph glyph-name="noon_alefMaksuraar.fina" unicode="&#xfc8e;" horiz-adv-x="1957" arabic-form="final" 
d="M1503 1303l-184 -187l-182 187l182 182zM827 -571q-172 0 -309.5 49t-226 137t-135.5 207.5t-47 261.5q0 241 131 506l284 -117q-100 -218 -100 -362q0 -149 108 -232.5t342 -83.5q102 0 190 15.5t142 38.5t84.5 48t30.5 46q0 27 -36.5 43.5t-111.5 37.5q-13 3 -20 5
l-180 49q-55 15 -94.5 42t-60 60.5t-29.5 66t-9 66.5q0 116 49 226t130 190.5t191.5 129t227.5 48.5q57 0 106.5 -17.5t82 -42.5t61.5 -61.5t46 -65.5t35 -63l5 -10l4 -8l78 -143q22 -41 33 -58t30.5 -37.5t42 -27t56.5 -6.5v-367q-78 0 -136.5 17t-104.5 54.5t-80 83.5
t-74 119l-54 99q-6 12 -19 38.5t-20.5 40.5t-23.5 34.5t-33 31.5t-45 19t-63 8q-70 0 -129.5 -13.5t-94.5 -33.5t-54 -40t-19 -36q0 -18 11.5 -29t26.5 -16.5t56 -16.5l162 -49q50 -14 80.5 -24t66 -24.5t56 -29.5t41.5 -36.5t31.5 -48t17 -61.5t6.5 -79q0 -72 -24.5 -148
t-81.5 -154t-139 -139t-209.5 -99.5t-281.5 -38.5z" />
    <glyph glyph-name="noon_yehar.fina" unicode="&#xfc8f;" horiz-adv-x="1957" arabic-form="final" 
d="M1319 1485l184 -182l-184 -187l-182 187zM1718 639l78 -143q22 -41 33 -58t30.5 -37.5t42 -27t56.5 -6.5v-367q-78 0 -136.5 17t-104.5 54.5t-80 83.5t-74 119l-54 99q-6 12 -19 38.5t-20.5 40.5t-23.5 34.5t-33 31.5t-45 19t-63 8q-70 0 -129.5 -13.5t-94.5 -33.5
t-54 -40t-19 -36q0 -18 11.5 -29t26.5 -16.5t56 -16.5l162 -49q50 -14 80.5 -24t66 -24.5t56 -29.5t41.5 -36.5t31.5 -48t17 -61.5t6.5 -79q0 -72 -24.5 -148t-81.5 -154t-139 -139t-209.5 -99.5t-281.5 -38.5q-172 0 -309.5 49t-226 137t-135.5 207.5t-47 261.5
q0 241 131 506l284 -117q-100 -218 -100 -362q0 -149 108 -232.5t342 -83.5q102 0 190 15.5t142 38.5t84.5 48t30.5 46q0 27 -36.5 43.5t-111.5 37.5q-13 3 -20 5l-180 49q-55 15 -94.5 42t-60 60.5t-29.5 66t-9 66.5q0 116 49 226t130 190.5t191.5 129t227.5 48.5
q57 0 106.5 -17.5t82 -42.5t61.5 -61.5t46 -65.5t35 -63l5 -10zM651 -670l162 -159l160 159l184 -182l-184 -186l-160 164l-162 -164l-182 186z" />
    <glyph glyph-name="yeh_alefMaksuraar.fina" unicode="&#xfc95;" horiz-adv-x="1957" arabic-form="final" 
d="M1718 639l78 -143q22 -41 33 -58t30.5 -37.5t42 -27t56.5 -6.5v-367q-78 0 -136.5 17t-104.5 54.5t-80 83.5t-74 119l-54 99q-6 12 -19 38.5t-20.5 40.5t-23.5 34.5t-33 31.5t-45 19t-63 8q-70 0 -129.5 -13.5t-94.5 -33.5t-54 -40t-19 -36q0 -18 11.5 -29t26.5 -16.5
t56 -16.5l162 -49q50 -14 80.5 -24t66 -24.5t56 -29.5t41.5 -36.5t31.5 -48t17 -61.5t6.5 -79q0 -72 -24.5 -148t-81.5 -154t-139 -139t-209.5 -99.5t-281.5 -38.5q-172 0 -309.5 49t-226 137t-135.5 207.5t-47 261.5q0 241 131 506l284 -117q-100 -218 -100 -362
q0 -149 108 -232.5t342 -83.5q102 0 190 15.5t142 38.5t84.5 48t30.5 46q0 27 -36.5 43.5t-111.5 37.5q-13 3 -20 5l-180 49q-55 15 -94.5 42t-60 60.5t-29.5 66t-9 66.5q0 116 49 226t130 190.5t191.5 129t227.5 48.5q57 0 106.5 -17.5t82 -42.5t61.5 -61.5t46 -65.5
t35 -63l5 -10zM1419 -618l162 -160l160 160l184 -183l-184 -186l-160 164l-162 -164l-182 186z" />
    <glyph glyph-name="yeh_yehar.fina" unicode="&#xfc96;" horiz-adv-x="1957" arabic-form="final" 
d="M1718 639l78 -143q22 -41 33 -58t30.5 -37.5t42 -27t56.5 -6.5v-367q-78 0 -136.5 17t-104.5 54.5t-80 83.5t-74 119l-54 99q-6 12 -19 38.5t-20.5 40.5t-23.5 34.5t-33 31.5t-45 19t-63 8q-70 0 -129.5 -13.5t-94.5 -33.5t-54 -40t-19 -36q0 -18 11.5 -29t26.5 -16.5
t56 -16.5l162 -49q50 -14 80.5 -24t66 -24.5t56 -29.5t41.5 -36.5t31.5 -48t17 -61.5t6.5 -79q0 -72 -24.5 -148t-81.5 -154t-139 -139t-209.5 -99.5t-281.5 -38.5q-172 0 -309.5 49t-226 137t-135.5 207.5t-47 261.5q0 241 131 506l284 -117q-100 -218 -100 -362
q0 -149 108 -232.5t342 -83.5q102 0 190 15.5t142 38.5t84.5 48t30.5 46q0 27 -36.5 43.5t-111.5 37.5q-13 3 -20 5l-180 49q-55 15 -94.5 42t-60 60.5t-29.5 66t-9 66.5q0 116 49 226t130 190.5t191.5 129t227.5 48.5q57 0 106.5 -17.5t82 -42.5t61.5 -61.5t46 -65.5
t35 -63l5 -10zM1419 -618l162 -160l160 160l184 -183l-184 -186l-160 164l-162 -164l-182 186zM651 -670l162 -159l160 159l184 -182l-184 -186l-160 164l-162 -164l-182 186z" />
    <glyph glyph-name="allahlongar" unicode="&#xfdfa;" horiz-adv-x="3237" arabic-form="isolated" 
d="M838 2284l-52 -9q0 138 -45 238l74 20q32 -124 23 -249zM768 2019q-46 0 -63.5 44.5t2.5 105.5l55 18q-35 -90 12 -90q23 0 23 39v57l55 19v-68q0 -15 8 -25t21 -10q24 0 24 45q0 24 -16 64l51 16q18 -46 18 -92q0 -50 -21.5 -80t-57.5 -30q-31 0 -50 28q-23 -41 -61 -41
zM1298 2017l7 -592h-97l-14 584zM2982 1059q0 -55 88 -55q43 0 160 32l-15 -135q-95 -31 -166 -41v-12h-524q-34 0 -67 10v-10h-1393v-35h2l6 -401q0 -28 20.5 -42t53.5 -14h1091q43 0 58.5 17t25.5 63l7 37l86 6v-43q0 -43 12.5 -60.5t40.5 -19.5q21 1 31 8.5t13.5 21
t7.5 40.5q1 7 1 10l8 51l86 9v-60q0 -77 56 -80q43 0 43 56q0 44 -21 106l88 25q29 -63 29 -144t-34.5 -129.5t-104.5 -48.5q-86 0 -113 74q-27 -74 -96 -74q-30 0 -54 15v-15h-167h-3h-1103q-15 0 -31 4l-17 2v2q-7 1 -26 11v-19h-455q-87 0 -125 47q-39 -42 -100 -39
q-16 1 -43.5 6.5t-46 8t-37.5 1.5t-29 -13t-10 -35q0 -63 12 -181l-104 -16q-8 110 -8 199q-3 176 104 184q48 172 162 172q50 0 83 -35t46 -92q10 -38 30 -55t68 -17h303q68 0 68 56l-14 393v43h-103q-23 0 -41 6h-4q-31 9 -49 27v-33h-137h-2h-193q-108 3 -141 92
q-46 -41 -98 -41q-59 0 -92 31t-33 90q0 77 57.5 134t146.5 89v31l101 8l6 -238q1 -36 17.5 -48.5t48.5 -12.5h180q39 0 54.5 17t21.5 63l6 59l86 8v-67q0 -44 17.5 -62t57.5 -18h86l-2 49l105 35l2 -84h1229q68 0 65 55l-14 379h-47q-60 0 -103 29v-29h-319h-21l-10 2v-6
q0 -72 -61.5 -122t-202.5 -50q-242 0 -242 217q0 95 52 217l102 -37q-43 -90 -43 -157q0 -105 139 -105q152 0 152 21q0 6 -11 12t-28.5 11.5t-34 9.5t-32 7.5t-17.5 4.5l37 123q93 -13 221 -13h188q69 0 66 56l-14 393l102 8l6 -401q0 -28 20.5 -42t53.5 -14h53l-2 74
l100 31v-105h142q39 0 54 17t21 63l7 60l86 8v-68q0 -42 16 -60t53 -20q66 124 134.5 174t127.5 50q64 0 110 -54t46 -131q0 -174 -225 -174h-199q-30 0 -57 10v-10h-172h-2h-142v-110l4 -269q0 -28 20.5 -41.5t53.5 -13.5h391q-22 42 -22 84q0 77 55 127.5t131 50.5
q54 0 105 -26l-39 -119q-38 14 -78 14q-41 0 -63.5 -15.5t-22.5 -39.5zM485 1477q-125 0 -125 120q0 82 69 144.5t146 79.5v59l105 8l-6 -266q-3 -61 61 -61q30 0 46 15t14 40l-7 311l105 6v-317q0 -25 18 -39t45 -14q61 0 58 55l-15 328l107 8l6 -334q2 -89 -37 -142
t-119 -53q-64 0 -108 41q-23 -23 -47 -32t-64 -9q-46 0 -86.5 23.5t-60.5 64.5q-50 -36 -105 -36zM2417 1866l243 53v-66l-243 -53v66zM1569 1804l243 54v-68l-243 -51v65zM575 1612v102q-39 -14 -84 -41t-45 -51q0 -18 12.5 -25.5t41.5 -7.5q37 0 75 23zM3082 1645
q-48 0 -86 -23t-78 -70h93q73 0 110 9.5t37 37.5q0 18 -24 32t-52 14zM1397 1096l506 127l-2 -66l-504 -127v66zM209 1012q41 0 74 20l-4 105q-125 -55 -125 -97q0 -17 13.5 -22.5t41.5 -5.5zM782 684l-55 61l-57 -61l-64 70l64 67l57 -59l55 59l64 -67zM1864 625l-623 -131
l-6 65l625 131zM3037 573q61 0 107 -67t47 -170q-2 -126 -78.5 -221t-208.5 -133l-31 145q51 12 102.5 40t84.5 69q-73 -2 -122.5 35.5t-49.5 105.5q0 73 44 134.5t105 61.5zM2963 399q0 -23 38.5 -35.5t99.5 -5.5q-6 40 -29.5 66.5t-50.5 26.5q-19 0 -38.5 -16t-19.5 -36z
M387 360q23 0 38 9t15 24q0 19 -13.5 33t-39.5 14q-27 0 -48 -21.5t-26 -47.5q69 -11 74 -11zM2537 -6q0 -19 -2 -27h111v-90h-1018l-127 6v78l127 6h602q24 0 32 10.5t13 40.5l4 23l45 6v-29q0 -29 7 -40t22 -11q17 0 21.5 9t7.5 42l4 33l45 6v-39q0 -51 31 -51q24 0 24 35
q0 28 -12 70l47 16q16 -40 16 -94z" />
    <glyph glyph-name="rial" unicode="&#xfdfc;" horiz-adv-x="3223" arabic-form="isolated" 
d="M2077 0q-216 0 -341 107t-132 331l-41 1180l288 20l19 -1110q1 -50 17 -83.5t47 -49.5t64 -22t79 -6q124 0 176.5 41t52.5 122q0 37 -14 94.5t-28 99t-44 124.5l262 65q38 -63 65 -194.5t27 -233.5q0 -106 -26.5 -191t-82.5 -152t-153 -104t-229 -38h-6zM1384 1583
l21 -1286q2 -156 -35.5 -288.5t-112.5 -234.5t-196.5 -160t-278.5 -58q-159 0 -287 47t-212 131t-129 199.5t-45 252.5q0 205 98 426l299 -82q-80 -174 -80 -305q0 -305 356 -305q153 0 251 86.5t102 251.5l-41 1305zM2662 965l297 71q88 -226 127.5 -436.5t24 -404.5
t-87.5 -350.5t-217.5 -274t-356.5 -174.5l-108 373q115 18 203 65.5t142.5 116t85 157.5t35 189.5t-11 212t-49.5 225.5t-84 230zM1573 -238l199 -198l198 198l228 -227l-228 -229l-198 200l-199 -200l-225 229z" />
    <glyph glyph-name="alefMaddaar.fina" unicode="&#x622;" horiz-adv-x="604" arabic-form="final" 
d="M37 1208l-152 52q0 104 52 170.5t147 66.5q53 0 137.5 -25.5t128.5 -25.5q70 0 158 78l27 -148q-30 -55 -84.5 -85.5t-118.5 -30.5q-50 0 -119 20t-104 20q-12 0 -21 -2.5t-21 -10.5t-19.5 -28t-10.5 -51zM604 367v-367q-214 0 -337.5 106.5t-135.5 331.5l-37 645l289 21
l37 -576q6 -97 49.5 -129t134.5 -32z" />
    <glyph glyph-name="alefHamzaabovear.fina" unicode="&#x623;" horiz-adv-x="604" arabic-form="final" 
d="M471 1405v-135q-35 -9 -236.5 -20t-254.5 -25v137l86 14q-27 49 -27 105q0 94 71.5 149.5t168.5 55.5q64 0 127 -29v-137q-58 28 -115 28q-51 0 -86 -18.5t-35 -46.5q0 -66 90 -86q110 0 211 8zM385 1104l35 -576q6 -97 49.5 -129t134.5 -32v-367q-214 0 -337.5 106.5
t-135.5 331.5l-35 645z" />
    <glyph glyph-name="wawHamzaabovear.fina" unicode="&#x624;" horiz-adv-x="1071" arabic-form="final" 
d="M694 1442v-135q-34 -9 -235 -20t-254 -27v139l84 14q-27 49 -27 105q0 94 71.5 149t168.5 55q68 0 127 -30v-136q-60 29 -115 29q-51 0 -86 -18.5t-35 -46.5q0 -65 90 -86q110 0 211 8zM922 367h149v-367h-211q-79 -217 -264.5 -364.5t-441.5 -219.5l-82 308
q72 26 123.5 48t130 61t143.5 89.5t111 108.5h-177q-142 0 -236.5 100.5t-94.5 257.5q0 77 29 163t79 161t126.5 123.5t162.5 48.5q166 0 290 -145.5t163 -372.5zM268 426q0 -43 48.5 -62.5t117.5 -19.5h217q-94 211 -223 211q-55 0 -107.5 -39t-52.5 -90z" />
    <glyph glyph-name="alefHamzabelowar.fina" unicode="&#x625;" horiz-adv-x="604" arabic-form="final" 
d="M379 1583l20 -1055q0 -50 16 -83.5t47 -49.5t64 -22t80 -6v-367q-106 0 -190 25t-147 77t-98.5 137t-39.5 199l-41 1125zM240 -492q0 -66 90 -86q97 0 211 9v-136q-37 -11 -238 -21.5t-254 -25.5v140l84 14q-27 49 -27 104q0 93 72 149t168 56q68 0 129 -30v-136
q-60 29 -115 29q-51 0 -85.5 -19t-34.5 -47z" />
    <glyph glyph-name="yehHamzaabovear.fina" unicode="&#x626;" horiz-adv-x="1572" arabic-form="final" 
d="M952 1118v-135q-34 -9 -235 -20t-254 -27v139l84 15q-27 49 -27 104q0 94 71.5 149.5t168.5 55.5q67 0 127 -31v-135q-60 29 -115 29q-51 0 -86 -19t-35 -47q0 -65 90 -86q110 0 211 8zM1573 367v-367q-41 0 -92 10q2 -6 2 -20q0 -70 -21.5 -132.5t-76.5 -123.5
t-138.5 -105t-217.5 -71t-304 -27q-344 0 -518 147t-174 431q0 267 145 585l299 -98q-129 -255 -129 -424q0 -146 103 -212t301 -66q88 0 140.5 1t132 5.5t119.5 17t40 31.5q0 14 -31.5 30t-82.5 30.5t-96 25.5t-92 20.5t-51 10.5l107 331q217 -30 635 -30z" />
    <glyph glyph-name="yehHamzaabovear.init" unicode="&#x626;" horiz-adv-x="602" arabic-form="initial" 
d="M309 1225q110 0 211 8v-135q-34 -9 -235 -20t-254 -27v139l84 14q-27 49 -27 105q0 94 71.5 149t168.5 55q68 0 127 -30v-135q-58 28 -115 28q-51 0 -86 -18.5t-35 -46.5q0 -65 90 -86zM143 848l263 65q38 -63 65 -194.5t27 -233.5q0 -106 -26.5 -191t-83 -152
t-153.5 -104t-229 -38h-6v2l-98 18v324l98 21v2q124 0 176.5 41t52.5 122q0 37 -14 94.5t-28 99t-44 124.5z" />
    <glyph glyph-name="yehHamzaabovear.medi" unicode="&#x626;" horiz-adv-x="692" arabic-form="medial" 
d="M596 1104v-135q-34 -9 -235.5 -20t-254.5 -27v139l84 14q-26 47 -26 105q0 94 71 149t168 55q69 0 127 -30v-135q-58 28 -114 28q-51 0 -86 -18.5t-35 -46.5q0 -65 90 -86q110 0 211 8zM481 756v-181q0 -116 49.5 -162t165.5 -46v-367q-287 0 -379 205
q-83 -202 -311 -205h-6v2l-98 18v324l98 21v2q113 0 156.5 44t58.5 164l21 160z" />
    <glyph glyph-name="alefar.fina" unicode="&#x627;" horiz-adv-x="604" arabic-form="final" 
d="M606 367v-367q-106 0 -190 25t-147 77t-98.5 137t-39.5 199l-41 1125l289 20l20 -1055q0 -50 16 -83.5t47 -49.5t64 -22t80 -6z" />
    <glyph glyph-name="behar.fina" unicode="&#x628;" horiz-adv-x="1945" arabic-form="final" 
d="M1284 0h-659q-146 0 -258.5 38t-182 107.5t-104.5 161t-35 203.5q0 165 80 377l297 -86q-51 -128 -51 -232t67.5 -153t210.5 -49h617q104 0 144 43t54 165l21 183l246 20v-203q0 -115 49.5 -161.5t161.5 -46.5l4 -367q-251 0 -359 156q-54 -74 -132 -115t-171 -41z
M1120 -262l-182 -184l-184 184l184 184z" />
    <glyph glyph-name="behar.init" unicode="&#x628;" horiz-adv-x="602" arabic-form="initial" 
d="M6 0h-6v2l-98 18v324l98 21v2q124 0 176.5 41t52.5 122q0 37 -14 94.5t-28 99t-44 124.5l263 65q38 -63 65 -194.5t27 -233.5q0 -106 -26.5 -191t-83 -152t-153.5 -104t-229 -38zM139 -262l185 184l182 -184l-182 -184z" />
    <glyph glyph-name="behar.medi" unicode="&#x628;" horiz-adv-x="692" arabic-form="medial" 
d="M481 756v-181q0 -116 49.5 -162t165.5 -46v-367q-287 0 -379 205q-83 -202 -311 -205h-6v2l-98 18v324l98 21v2q113 0 156.5 44t58.5 164l21 160zM315 -446l-184 184l184 184l183 -184z" />
    <glyph glyph-name="tehMarbutaar.fina" unicode="&#x629;" horiz-adv-x="1126" arabic-form="final" 
d="M678 1399l-160 164l-162 -164l-182 186l182 182l162 -159l160 159l184 -182zM918 1165l20 -637q3 -97 47 -129t137 -32v-367q-342 0 -438 248q-133 -111 -285 -111q-169 0 -262.5 84t-93.5 244q0 104 48 199t131.5 168.5t186 130.5t222.5 98l-2 84zM281 518
q0 -80 155 -80q107 0 211 58l-8 280q-56 -24 -107 -48.5t-113.5 -60.5t-100 -75.5t-37.5 -73.5z" />
    <glyph glyph-name="tehar.fina" unicode="&#x62a;" horiz-adv-x="1945" arabic-form="final" 
d="M1085 969l-159 164l-162 -164l-182 186l182 182l162 -159l159 159l185 -182zM1942 367l4 -367q-251 0 -359 156q-54 -74 -132 -115t-171 -41h-659q-146 0 -258.5 38t-182 107.5t-104.5 161t-35 203.5q0 165 80 377l297 -86q-51 -128 -51 -232t67.5 -153t210.5 -49h617
q104 0 144 43t54 165l21 183l246 20v-203q0 -115 49.5 -161.5t161.5 -46.5z" />
    <glyph glyph-name="tehar.init" unicode="&#x62a;" horiz-adv-x="602" arabic-form="initial" 
d="M426 991l-160 164l-162 -164l-182 187l182 182l162 -160l160 160l184 -182zM143 848l263 65q38 -63 65 -194.5t27 -233.5q0 -106 -26.5 -191t-83 -152t-153.5 -104t-229 -38h-6v2l-98 18v324l98 21v2q124 0 176.5 41t52.5 122q0 37 -14 94.5t-28 99t-44 124.5z" />
    <glyph glyph-name="tehar.medi" unicode="&#x62a;" horiz-adv-x="692" arabic-form="medial" 
d="M500 864l-160 164l-162 -164l-182 187l182 182l162 -160l160 160l184 -182zM481 756v-181q0 -116 49.5 -162t165.5 -46v-367q-287 0 -379 205q-83 -202 -311 -205h-6v2l-98 18v324l98 21v2q113 0 156.5 44t58.5 164l21 160z" />
    <glyph glyph-name="thehar.fina" unicode="&#x62b;" horiz-adv-x="1945" arabic-form="final" 
d="M930 1630l184 -182l-184 -186l-182 186zM1094 967l-160 161l-162 -161l-182 184l182 184l162 -161l160 161l184 -184zM1942 367l4 -367q-251 0 -359 156q-54 -74 -132 -115t-171 -41h-659q-146 0 -258.5 38t-182 107.5t-104.5 161t-35 203.5q0 165 80 377l297 -86
q-51 -128 -51 -232t67.5 -153t210.5 -49h617q104 0 144 43t54 165l21 183l246 20v-203q0 -115 49.5 -161.5t161.5 -46.5z" />
    <glyph glyph-name="thehar.init" unicode="&#x62b;" horiz-adv-x="602" arabic-form="initial" 
d="M270 1653l185 -183l-185 -186l-182 186zM434 989l-160 162l-161 -162l-183 185l183 184l161 -162l160 162l184 -184zM143 848l263 65q38 -63 65 -194.5t27 -233.5q0 -106 -26.5 -191t-83 -152t-153.5 -104t-229 -38h-6v2l-98 18v324l98 21v2q124 0 176.5 41t52.5 122
q0 37 -14 94.5t-28 99t-44 124.5z" />
    <glyph glyph-name="thehar.medi" unicode="&#x62b;" horiz-adv-x="692" arabic-form="medial" 
d="M344 1526l184 -183l-184 -186l-182 186zM508 862l-160 162l-162 -162l-182 185l182 184l162 -162l160 162l184 -184zM481 756v-181q0 -116 49.5 -162t165.5 -46v-367q-287 0 -379 205q-83 -202 -311 -205h-6v2l-98 18v324l98 21v2q113 0 156.5 44t58.5 164l21 160z" />
    <glyph glyph-name="jeemar.fina" unicode="&#x62c;" horiz-adv-x="1624" arabic-form="final" 
d="M1626 367v-367q-122 0 -209 28.5t-138 84t-76.5 125.5t-31.5 163q-122 -20 -230.5 -47t-216 -71t-184 -98.5t-124 -130.5t-47.5 -165q0 -155 127.5 -227t349.5 -72q217 0 514 68v-6l-43 -348q-238 -78 -465 -78q-120 0 -225.5 23t-196 72t-155.5 120.5t-102 174.5
t-38 228q0 131 38.5 241t103 190t162.5 146t204.5 110.5t239.5 82.5q-65 29 -97 41q-74 30 -137 49.5t-141.5 34t-159.5 10.5t-160 -28l43 293q82 25 165 29t150.5 -6t147.5 -38t137.5 -53.5t139.5 -65.5l24 -12q83 -41 133 -64t124.5 -51.5t144.5 -41.5t141 -13l-47 -260
q-56 -4 -88 -8q60 -63 223 -63zM1120 -59l-184 -185l-182 185l182 184z" />
    <glyph glyph-name="jeemar.init" unicode="&#x62c;" horiz-adv-x="1464" arabic-form="initial" 
d="M698 864q86 -32 136.5 -49.5t137.5 -41.5t174.5 -35t182.5 -11l-33 -278q-109 -1 -221.5 -47t-279.5 -138q-86 -47 -140 -75.5t-143.5 -68.5t-161.5 -62.5t-164.5 -39.5t-181.5 -18h-6v2l-98 18v324l98 21v2q258 0 786 161q-70 18 -135 39q-17 5 -67.5 20.5t-69 20.5
t-62.5 17t-66 14.5t-61.5 8t-66.5 2.5t-63.5 -7t-70.5 -14.5t-69 -26.5l43 311q43 18 83.5 29.5t83 14t73 4t75.5 -7.5t68.5 -13.5t73.5 -22t69 -24.5t76 -29zM735 -334l-184 184l184 185l183 -185z" />
    <glyph glyph-name="jeemar.medi" unicode="&#x62c;" horiz-adv-x="1417" arabic-form="medial" 
d="M1102 410q75 -43 317 -43v-367q-119 0 -213.5 16t-156 42t-106 64.5t-68 77.5t-37.5 87l-41 -23q-86 -47 -140 -75.5t-143.5 -68.5t-161.5 -62.5t-164.5 -39.5t-181.5 -18h-6v2l-98 18v324l98 21v2q258 0 786 161q-70 18 -135 39q-17 5 -67.5 20.5t-69 20.5t-62.5 17
t-66 14.5t-61.5 8t-66.5 2.5t-63.5 -7t-70.5 -14.5t-69 -26.5l43 311q43 18 83.5 29.5t83 14t73 4t75.5 -7.5t68.5 -13.5t73.5 -22t69 -24.5t76 -29q86 -32 136.5 -49.5t137.5 -41.5t174.5 -35t182.5 -11l-33 -278q-93 0 -196 -39zM735 -334l-184 184l184 185l183 -185z" />
    <glyph glyph-name="hahar.fina" unicode="&#x62d;" horiz-adv-x="1624" arabic-form="final" 
d="M1171 401q-122 -20 -230.5 -47t-216 -71t-184 -98.5t-124 -130.5t-47.5 -165q0 -155 127.5 -227t349.5 -72q217 0 514 68v-6l-43 -348q-238 -78 -465 -78q-120 0 -225.5 23t-196 72t-155.5 120.5t-102 174.5t-38 228q0 131 38.5 241t103 190t162.5 146t204.5 110.5
t239.5 82.5q-65 29 -97 41q-74 30 -137 49.5t-141.5 34t-159.5 10.5t-160 -28l43 293q82 25 165 29t150.5 -6t147.5 -38t137.5 -53.5t139.5 -65.5l24 -12q83 -41 133 -64t124.5 -51.5t144.5 -41.5t141 -13l-47 -260q-56 -4 -88 -8q60 -63 223 -63v-367q-122 0 -209 28.5
t-138 84t-76.5 125.5t-31.5 163z" />
    <glyph glyph-name="hahar.init" unicode="&#x62d;" horiz-adv-x="1464" arabic-form="initial" 
d="M700 864q86 -32 136.5 -49.5t137.5 -41.5t174.5 -35t182.5 -11l-33 -278q-109 -1 -221.5 -47t-279.5 -138q-86 -47 -140 -75.5t-143.5 -68.5t-161.5 -62.5t-164.5 -39.5t-181.5 -18h-6v2l-98 18v324l98 21v2q258 0 786 161q-70 18 -135 39q-17 5 -67.5 20.5t-69 20.5
t-62.5 17t-66 14.5t-61.5 8t-66.5 2.5t-63.5 -7t-70.5 -14.5t-69 -26.5l43 311q43 18 83.5 29.5t83 14t73 4t75.5 -7.5t68.5 -13.5t73.5 -22t69 -24.5t76 -29z" />
    <glyph glyph-name="hahar.medi" unicode="&#x62d;" horiz-adv-x="1417" arabic-form="medial" 
d="M1102 410q75 -43 317 -43v-367q-119 0 -213.5 16t-156 42t-106 64.5t-68 77.5t-37.5 87l-41 -23q-86 -47 -140 -75.5t-143.5 -68.5t-161.5 -62.5t-164.5 -39.5t-181.5 -18h-6v2l-98 18v324l98 21v2q258 0 786 161q-70 18 -135 39q-17 5 -67.5 20.5t-69 20.5t-62.5 17
t-66 14.5t-61.5 8t-66.5 2.5t-63.5 -7t-70.5 -14.5t-69 -26.5l43 311q43 18 83.5 29.5t83 14t73 4t75.5 -7.5t68.5 -13.5t73.5 -22t69 -24.5t76 -29q86 -32 136.5 -49.5t137.5 -41.5t174.5 -35t182.5 -11l-33 -278q-93 0 -196 -39z" />
    <glyph glyph-name="khahar.fina" unicode="&#x62e;" horiz-adv-x="1624" arabic-form="final" 
d="M772 1507l184 -182l-184 -186l-182 186zM1171 401q-122 -20 -230.5 -47t-216 -71t-184 -98.5t-124 -130.5t-47.5 -165q0 -155 127.5 -227t349.5 -72q217 0 514 68v-6l-43 -348q-238 -78 -465 -78q-120 0 -225.5 23t-196 72t-155.5 120.5t-102 174.5t-38 228
q0 131 38.5 241t103 190t162.5 146t204.5 110.5t239.5 82.5q-65 29 -97 41q-74 30 -137 49.5t-141.5 34t-159.5 10.5t-160 -28l43 293q82 25 165 29t150.5 -6t147.5 -38t137.5 -53.5t139.5 -65.5l24 -12q83 -41 133 -64t124.5 -51.5t144.5 -41.5t141 -13l-47 -260
q-56 -4 -88 -8q60 -63 223 -63v-367q-122 0 -209 28.5t-138 84t-76.5 125.5t-31.5 163z" />
    <glyph glyph-name="khahar.init" unicode="&#x62e;" horiz-adv-x="1464" arabic-form="initial" 
d="M604 1493l184 -182l-184 -187l-182 187zM698 864q86 -32 136.5 -49.5t137.5 -41.5t174.5 -35t182.5 -11l-33 -278q-109 -1 -221.5 -47t-279.5 -138q-86 -47 -140 -75.5t-143.5 -68.5t-161.5 -62.5t-164.5 -39.5t-181.5 -18h-6v2l-98 18v324l98 21v2q258 0 786 161
q-70 18 -135 39q-17 5 -67.5 20.5t-69 20.5t-62.5 17t-66 14.5t-61.5 8t-66.5 2.5t-63.5 -7t-70.5 -14.5t-69 -26.5l43 311q43 18 83.5 29.5t83 14t73 4t75.5 -7.5t68.5 -13.5t73.5 -22t69 -24.5t76 -29z" />
    <glyph glyph-name="khahar.medi" unicode="&#x62e;" horiz-adv-x="1417" arabic-form="medial" 
d="M602 1493l184 -182l-184 -187l-182 187zM1102 410q75 -43 317 -43v-367q-119 0 -213.5 16t-156 42t-106 64.5t-68 77.5t-37.5 87l-41 -23q-86 -47 -140 -75.5t-143.5 -68.5t-161.5 -62.5t-164.5 -39.5t-181.5 -18h-6v2l-98 18v324l98 21v2q258 0 786 161q-70 18 -135 39
q-17 5 -67.5 20.5t-69 20.5t-62.5 17t-66 14.5t-61.5 8t-66.5 2.5t-63.5 -7t-70.5 -14.5t-69 -26.5l43 311q43 18 83.5 29.5t83 14t73 4t75.5 -7.5t68.5 -13.5t73.5 -22t69 -24.5t76 -29q86 -32 136.5 -49.5t137.5 -41.5t174.5 -35t182.5 -11l-33 -278q-93 0 -196 -39z" />
    <glyph glyph-name="dalar.fina" unicode="&#x62f;" horiz-adv-x="1335" arabic-form="final" 
d="M41 258l135 256q71 -82 175.5 -121t207.5 -39q212 0 252 84l-225 629l278 129l209 -616q40 -119 96.5 -166t165.5 -47v-367q-160 0 -249 62t-146 192q-88 -272 -420 -272q-168 0 -297.5 79t-181.5 197z" />
    <glyph glyph-name="thalar.fina" unicode="&#x630;" horiz-adv-x="1335" arabic-form="final" 
d="M825 1477l-184 -187l-182 187l182 182zM41 258l135 256q71 -82 175.5 -121t207.5 -39q212 0 252 84l-225 629l278 129l209 -616q40 -119 96.5 -166t165.5 -47v-367q-160 0 -249 62t-146 192q-88 -272 -420 -272q-168 0 -297.5 79t-181.5 197z" />
    <glyph glyph-name="rehar.fina" unicode="&#x631;" horiz-adv-x="1017" arabic-form="final" 
d="M1018 367v-367q-171 0 -268 78q-29 -135 -93.5 -244.5t-160 -188.5t-208.5 -134.5t-253 -94.5l-111 351q69 19 133.5 43.5t144.5 70.5t137.5 101.5t97.5 139.5t40 181q0 179 -92 447l283 84q42 -125 67 -254q12 -39 23.5 -66t33.5 -57t50.5 -48t73 -30t102.5 -12z" />
    <glyph glyph-name="zainar.fina" unicode="&#x632;" horiz-adv-x="1017" arabic-form="final" 
d="M518 1366l184 -182l-184 -187l-182 187zM1018 367v-367q-171 0 -268 78q-29 -135 -93.5 -244.5t-160 -188.5t-208.5 -134.5t-253 -94.5l-111 351q69 19 133.5 43.5t144.5 70.5t137.5 101.5t97.5 139.5t40 181q0 179 -92 447l283 84q42 -125 67 -254q12 -39 23.5 -66
t33.5 -57t50.5 -48t73 -30t102.5 -12z" />
    <glyph glyph-name="seenar.fina" unicode="&#x633;" horiz-adv-x="2766" arabic-form="final" 
d="M2771 367v-367q-228 0 -354 113q-102 -113 -285 -113q-241 0 -328 203q-41 -104 -116.5 -151t-200.5 -52q-66 3 -129 23q-57 -215 -224.5 -340t-416.5 -125q-159 0 -287 47t-211.5 130.5t-128.5 199t-45 253.5q0 212 100 435l299 -80q-82 -181 -82 -312q0 -147 99 -228
t289 -81q38 0 84 7t99.5 25.5t96.5 45.5t71.5 72t28.5 100q0 108 -31 254t-83 283l258 45q58 -150 86 -297v2q7 -46 55.5 -69t102.5 -23q46 0 76 8t48.5 20.5t30 40t17.5 55t14 75.5q0 3 0.5 5t1 4.5t0.5 4.5l20 137l246 20v-157q0 -113 40 -162t118 -51q127 0 127 147
q0 120 -80 350l272 41q38 -71 60 -194.5t22 -231.5v-2q4 -23 11.5 -38t30 -34t72.5 -28.5t126 -9.5z" />
    <glyph glyph-name="seenar.init" unicode="&#x633;" horiz-adv-x="1708" arabic-form="initial" 
d="M1303 797l251 63q39 -73 60.5 -176t21.5 -205q0 -104 -23.5 -190t-70.5 -151.5t-124.5 -101.5t-180.5 -36q-241 0 -326 199q-74 -199 -272 -199q-101 0 -178 54t-121 155q-79 -203 -334 -209h-6v2l-98 18v324l98 21v2q65 0 105 10t66.5 38t40.5 63.5t28 99.5l20 96
l246 20v-114q0 -118 34 -164.5t115 -48.5q37 1 61 8t39 18t24.5 36.5t15 51t12.5 72.5q3 18 4 27l20 135l246 20v-155q0 -113 40 -162t118 -51q127 0 127 147q0 68 -11 125t-48 158z" />
    <glyph glyph-name="seenar.medi" unicode="&#x633;" horiz-adv-x="1875" arabic-form="medial" 
d="M1882 367v-367q-238 0 -358 117q-100 -117 -287 -117q-241 0 -326 199q-74 -199 -272 -199q-101 0 -178 54t-121 155q-82 -203 -334 -209h-6v2l-98 18v324l98 21v2q65 0 105 10t66.5 38t40.5 63.5t28 99.5l20 96l246 20v-114q0 -118 34 -164.5t115 -48.5q37 1 61 8t39 18
t24.5 36.5t15 51t12.5 72.5q3 18 4 27l20 135l246 20v-155q0 -113 40 -162t118 -51q127 0 127 147q0 68 -11 125t-48 158l251 63q75 -144 82 -356q2 -5 5.5 -25.5t7.5 -31.5t19.5 -28.5t39 -27t68.5 -17t106 -7.5z" />
    <glyph glyph-name="sheenar.fina" unicode="&#x634;" horiz-adv-x="2766" arabic-form="final" 
d="M1845 1528l185 -182l-185 -187l-182 187zM2009 864l-160 162l-161 -162l-183 185l183 184l161 -162l160 162l184 -184zM2771 367v-367q-228 0 -354 113q-102 -113 -285 -113q-241 0 -328 203q-41 -104 -116.5 -151t-200.5 -52q-66 3 -129 23q-57 -215 -224.5 -340
t-416.5 -125q-159 0 -287 47t-211.5 130.5t-128.5 199t-45 253.5q0 212 100 435l299 -80q-82 -181 -82 -312q0 -147 99 -228t289 -81q38 0 84 7t99.5 25.5t96.5 45.5t71.5 72t28.5 100q0 108 -31 254t-83 283l258 45q58 -150 86 -297v2q7 -46 55.5 -69t102.5 -23q46 0 76 8
t48.5 20.5t30 40t17.5 55t14 75.5q0 3 0.5 5t1 4.5t0.5 4.5l20 137l246 20v-157q0 -113 40 -162t118 -51q127 0 127 147q0 120 -80 350l272 41q38 -71 60 -194.5t22 -231.5v-2q4 -23 11.5 -38t30 -34t72.5 -28.5t126 -9.5z" />
    <glyph glyph-name="sheenar.init" unicode="&#x634;" horiz-adv-x="1708" arabic-form="initial" 
d="M944 1663l184 -182l-184 -187l-182 187zM1108 999l-160 162l-162 -162l-182 185l182 184l162 -162l160 162l184 -184zM1303 797l251 63q39 -73 60.5 -176t21.5 -205q0 -104 -23.5 -190t-70.5 -151.5t-124.5 -101.5t-180.5 -36q-241 0 -326 199q-74 -199 -272 -199
q-101 0 -178 54t-121 155q-82 -203 -334 -209h-6v2l-98 18v324l98 21v2q65 0 105 10t66.5 38t40.5 63.5t28 99.5l20 96l246 20v-114q0 -118 34 -164.5t115 -48.5q37 1 61 8t39 18t24.5 36.5t15 51t12.5 72.5q3 18 4 27l20 135l246 20v-155q0 -113 40 -162t118 -51
q127 0 127 147q0 68 -11 125t-48 158z" />
    <glyph glyph-name="sheenar.medi" unicode="&#x634;" horiz-adv-x="1875" arabic-form="medial" 
d="M944 1663l184 -182l-184 -187l-182 187zM1108 999l-160 162l-162 -162l-182 185l182 184l162 -162l160 162l184 -184zM1882 367v-367q-238 0 -358 117q-100 -117 -287 -117q-241 0 -326 199q-74 -199 -272 -199q-101 0 -178 54t-121 155q-82 -203 -334 -209h-6v2l-98 18
v324l98 21v2q65 0 105 10t66.5 38t40.5 63.5t28 99.5l20 96l246 20v-114q0 -118 34 -164.5t115 -48.5q37 1 61 8t39 18t24.5 36.5t15 51t12.5 72.5q3 18 4 27l20 135l246 20v-155q0 -113 40 -162t118 -51q127 0 127 147q0 68 -11 125t-48 158l251 63q75 -144 82 -356
q2 -5 5.5 -25.5t7.5 -31.5t19.5 -28.5t39 -27t68.5 -17t106 -7.5z" />
    <glyph glyph-name="sadar.fina" unicode="&#x635;" horiz-adv-x="2908" arabic-form="final" 
d="M2656 506l4 2q3 -7 6.5 -25.5t7 -31.5t18.5 -30t38.5 -28t69 -18.5t108.5 -7.5v-367q-263 0 -383 145q-166 -145 -512 -145h-403q-156 6 -242 76q-45 -245 -214.5 -382.5t-438.5 -137.5q-159 0 -286.5 47t-211 131t-128 199.5t-44.5 252.5q0 205 98 426l299 -80
q-80 -174 -80 -305q0 -146 99 -226.5t287 -80.5q158 0 258 76t100 211q0 53 -9 113.5t-16.5 95.5t-32 129t-34.5 133l284 41q40 -87 60 -195q16 -54 42 -86.5t73 -50.5q81 136 168 240.5t163 166.5t154 101t138.5 52.5t119.5 13.5q171 0 299.5 -132t140.5 -323zM1993 367
q79 0 137 2.5t114.5 10t92 20.5t57 35t21.5 52q0 51 -69 88t-151 37q-136 0 -243.5 -61.5t-220.5 -183.5h262z" />
    <glyph glyph-name="sadar.init" unicode="&#x635;" horiz-adv-x="1931" arabic-form="initial" 
d="M1434 961q88 0 169.5 -38.5t141 -104t95.5 -157t36 -192.5q0 -105 -35 -187t-94 -134t-143 -86t-175.5 -48t-197.5 -14h-567q-260 11 -347 205q-41 -101 -116 -152.5t-195 -52.5h-6v2l-98 18v324l98 21v2q113 0 156.5 44t58.5 164l21 160l245 21v-181q0 -112 46 -158.5
t151 -49.5q82 141 170.5 249t165.5 172t156.5 104.5t141.5 54.5t122 14zM946 367h264q79 0 137 2.5t114.5 10t92 20.5t57 35t21.5 52q0 51 -68.5 88t-150.5 37q-136 0 -245 -62t-222 -183z" />
    <glyph glyph-name="sadar.medi" unicode="&#x635;" horiz-adv-x="2109" arabic-form="medial" 
d="M1876 453q8 -25 27 -42t71 -30.5t135 -13.5v-367q-257 0 -376 137q-166 -137 -502 -137h-567q-260 11 -347 205q-83 -202 -311 -205h-6v2l-98 18v324l98 21v2q113 0 156.5 44t58.5 164l21 160l245 21v-181q0 -112 45.5 -158.5t151.5 -49.5q82 141 170.5 249t166 172
t157 104.5t141 54.5t121.5 14q88 0 169.5 -38.5t141 -104t95.5 -157t36 -192.5v-16zM1210 367q79 0 137 2.5t114.5 10t92 20.5t57 35t21.5 52q0 51 -68.5 88t-150.5 37q-136 0 -244 -62t-221 -183h262z" />
    <glyph glyph-name="dadar.fina" unicode="&#x636;" horiz-adv-x="2908" arabic-form="final" 
d="M2150 1540l185 -182l-185 -187l-182 187zM2656 506l4 2q3 -7 6.5 -25.5t7 -31.5t18.5 -30t38.5 -28t69 -18.5t108.5 -7.5v-367q-263 0 -383 145q-166 -145 -512 -145h-403q-156 6 -242 76q-45 -245 -214.5 -382.5t-438.5 -137.5q-159 0 -286.5 47t-211 131t-128 199.5
t-44.5 252.5q0 205 98 426l299 -80q-80 -174 -80 -305q0 -146 99 -226.5t287 -80.5q158 0 258 76t100 211q0 53 -9 113.5t-16.5 95.5t-32 129t-34.5 133l284 41q40 -87 60 -195q16 -54 42 -86.5t73 -50.5q81 136 168 240.5t163 166.5t154 101t138.5 52.5t119.5 13.5
q171 0 299.5 -132t140.5 -323zM1993 367q79 0 137 2.5t114.5 10t92 20.5t57 35t21.5 52q0 51 -69 88t-151 37q-136 0 -243.5 -61.5t-220.5 -183.5h262z" />
    <glyph glyph-name="dadar.init" unicode="&#x636;" horiz-adv-x="1931" arabic-form="initial" 
d="M1346 1532l184 -182l-184 -187l-183 187zM1434 961q88 0 169.5 -38.5t141 -104t95.5 -157t36 -192.5q0 -105 -35 -187t-94 -134t-143 -86t-175.5 -48t-197.5 -14h-567q-260 11 -347 205q-83 -202 -311 -205h-6v2l-98 18v324l98 21v2q113 0 156.5 44t58.5 164l21 160
l245 21v-181q0 -112 45.5 -158.5t151.5 -49.5q82 141 170.5 249t166 172t157 104.5t141 54.5t121.5 14zM1210 367q79 0 137 2.5t114.5 10t92 20.5t57 35t21.5 52q0 51 -68.5 88t-150.5 37q-136 0 -244 -62t-221 -183h262z" />
    <glyph glyph-name="dadar.medi" unicode="&#x636;" horiz-adv-x="2109" arabic-form="medial" 
d="M1346 1532l184 -182l-184 -187l-183 187zM1876 453q8 -25 27 -42t71 -30.5t135 -13.5v-367q-257 0 -376 137q-166 -137 -502 -137h-567q-260 11 -347 205q-83 -202 -311 -205h-6v2l-98 18v324l98 21v2q113 0 156.5 44t58.5 164l21 160l245 21v-181q0 -112 45.5 -158.5
t151.5 -49.5q82 141 170.5 249t166 172t157 104.5t141 54.5t121.5 14q88 0 169.5 -38.5t141 -104t95.5 -157t36 -192.5v-16zM1210 367q79 0 137 2.5t114.5 10t92 20.5t57 35t21.5 52q0 51 -68.5 88t-150.5 37q-136 0 -244 -62t-221 -183h262z" />
    <glyph glyph-name="tahar.fina" unicode="&#x637;" horiz-adv-x="1783" arabic-form="final" 
d="M1540 498q0 -1 3 -19t5 -23t9.5 -20.5t17 -22t28 -17.5t42 -16t59.5 -9t80 -4v-367q-262 0 -381 141q-164 -141 -508 -141h-82q-487 -10 -696 45l-70 371q107 -31 299 -43q56 94 115 176l-35 1012l291 20l16 -752q180 132 365 132q113 0 212 -61t161 -167.5t69 -234.5z
M874 367q79 0 137 2.5t114.5 10t92 20.5t57 35t21.5 52q0 51 -68.5 88t-150.5 37q-136 0 -244 -62t-221 -183h262z" />
    <glyph glyph-name="tahar.init" unicode="&#x637;" horiz-adv-x="1343" arabic-form="initial" 
d="M813 961q88 0 169.5 -38.5t141 -104t95.5 -157t36 -192.5q0 -105 -35 -187t-94 -134t-143 -86t-175 -48t-198 -14h-610v2l-98 18v324l98 21v2h57q55 97 123 188l-37 1006l291 20l15 -750q183 130 364 130zM590 367q79 0 137 2.5t114.5 10t92 20.5t57 35t21.5 52
q0 51 -68.5 88t-150.5 37q-136 0 -244 -62t-221 -183h262z" />
    <glyph glyph-name="tahar.medi" unicode="&#x637;" horiz-adv-x="1501" arabic-form="medial" 
d="M1253 506q3 -7 7 -25.5t7.5 -31t18.5 -29.5t39 -27.5t69 -18t107 -7.5v-367q-262 0 -381 141q-164 -141 -510 -141h-610v2l-98 18v324l98 21v2h57q55 97 123 188l-37 1006l291 20l15 -750q183 130 364 130q171 0 299.5 -132t140.5 -323zM590 367q79 0 137 2.5t114.5 10
t92 20.5t57 35t21.5 52q0 51 -68.5 88t-150.5 37q-136 0 -244 -62t-221 -183h262z" />
    <glyph glyph-name="zahar.fina" unicode="&#x638;" horiz-adv-x="1783" arabic-form="final" 
d="M1540 498q0 -1 3 -19t5 -23t9.5 -20.5t17 -22t28 -17.5t42 -16t59.5 -9t80 -4v-367q-262 0 -381 141q-164 -141 -508 -141h-82q-487 -10 -696 45l-70 371q107 -31 299 -43q56 94 115 176l-35 1012l291 20l16 -752q180 132 365 132q113 0 212 -61t161 -167.5t69 -234.5z
M1145 1556l184 -182l-184 -186l-182 186zM874 367q79 0 137 2.5t114.5 10t92 20.5t57 35t21.5 52q0 51 -68.5 88t-150.5 37q-136 0 -244 -62t-221 -183h262z" />
    <glyph glyph-name="zahar.init" unicode="&#x638;" horiz-adv-x="1343" arabic-form="initial" 
d="M813 961q88 0 169.5 -38.5t141 -104t95.5 -157t36 -192.5q0 -105 -35 -187t-94 -134t-143 -86t-175 -48t-198 -14h-610v2l-98 18v324l98 21v2h57q55 97 123 188l-37 1006l291 20l15 -750q183 130 364 130zM887 1556l184 -182l-184 -186l-182 186zM590 367q79 0 137 2.5
t114.5 10t92 20.5t57 35t21.5 52q0 51 -68.5 88t-150.5 37q-136 0 -244 -62t-221 -183h262z" />
    <glyph glyph-name="zahar.medi" unicode="&#x638;" horiz-adv-x="1501" arabic-form="medial" 
d="M1253 506q3 -7 7 -25.5t7.5 -31t18.5 -29.5t39 -27.5t69 -18t107 -7.5v-367q-262 0 -381 141q-164 -141 -510 -141h-610v2l-98 18v324l98 21v2h57q55 97 123 188l-37 1006l291 20l15 -750q183 130 364 130q171 0 299.5 -132t140.5 -323zM887 1556l184 -182l-184 -186
l-182 186zM590 367q79 0 137 2.5t114.5 10t92 20.5t57 35t21.5 52q0 51 -68.5 88t-150.5 37q-136 0 -244 -62t-221 -183h262z" />
    <glyph glyph-name="ainar.fina" unicode="&#x639;" horiz-adv-x="1449" arabic-form="final" 
d="M723 254q-167 -95 -266.5 -190.5t-98.5 -178.5q2 -102 73.5 -169.5t183 -94t248.5 -28.5t270.5 19t248.5 58l-53 -372q-206 -64 -485 -64q-109 0 -211 22t-193.5 69.5t-160 115t-109 164.5t-41.5 213q-7 87 0 143q35 266 305 466q19 14 39 28q-86 69 -140 107.5t-127 72
t-138 37.5l38 268q184 108 411.5 141t437.5 -2t391 -123l-43 -305q-30 -2 -79.5 -26.5t-97 -55t-127.5 -84.5q-25 -17 -38 -26q235 -92 489 -92v-367q-111 0 -216 21t-197 59.5t-165 79.5t-149 94zM451 786q47 -18 96.5 -47.5t80 -51.5t87.5 -66q185 128 272 163
q-115 29 -264.5 29t-271.5 -27z" />
    <glyph glyph-name="ainar.init" unicode="&#x639;" horiz-adv-x="1116" arabic-form="initial" 
d="M1059 508l-41 -363q-436 -145 -1012 -145h-6v2l-98 18v324l98 21v2h164q-64 104 -64 223q-1 138 73.5 248t196.5 168.5t265 58.5q151 0 295 -72l-109 -317q-125 41 -227 41q-116 0 -179 -42t-63 -106q0 -151 252 -151q152 0 455 90z" />
    <glyph glyph-name="ainar.medi" unicode="&#x639;" horiz-adv-x="1443" arabic-form="medial" 
d="M1444 367v-367q-222 0 -401 74t-347 202q-186 -127 -360 -201.5t-346 -74.5v123l-4 -123l-103 20l11 324l96 21v2h18q227 0 455 106q-125 105 -213 158.5t-180 58.5l39 266q141 82 304 121.5t322 35.5t310 -39.5t282 -100.5l-43 -305q-35 -4 -91 -35t-101 -63.5
t-136 -100.5q209 -102 488 -102zM459 803q24 -10 49 -24.5t41.5 -24.5t46.5 -32t39 -29t45 -35.5t41 -32.5q37 25 90.5 63.5t93 65.5t70.5 45q-114 29 -256.5 30t-259.5 -26z" />
    <glyph glyph-name="ghainar.fina" unicode="&#x63a;" horiz-adv-x="1449" arabic-form="final" 
d="M719 1595l184 -182l-184 -186l-182 186zM723 254q-167 -95 -266.5 -190.5t-98.5 -178.5q2 -102 73.5 -169.5t183 -94t248.5 -28.5t270.5 19t248.5 58l-53 -372q-206 -64 -485 -64q-109 0 -211 22t-193.5 69.5t-160 115t-109 164.5t-41.5 213q-7 87 0 143q35 266 305 466
q19 14 39 28q-86 69 -140 107.5t-127 72t-138 37.5l38 268q184 108 411.5 141t437.5 -2t391 -123l-43 -305q-30 -2 -79.5 -26.5t-97 -55t-127.5 -84.5q-25 -17 -38 -26q235 -92 489 -92v-367q-111 0 -216 21t-197 59.5t-165 79.5t-149 94zM451 786q47 -18 96.5 -47.5
t80 -51.5t87.5 -66q185 128 272 163q-115 29 -264.5 29t-271.5 -27z" />
    <glyph glyph-name="ghainar.init" unicode="&#x63a;" horiz-adv-x="1116" arabic-form="initial" 
d="M526 1663l185 -182l-185 -187l-182 187zM1059 508l-41 -363q-424 -145 -1012 -145h-6v2l-98 18v324l98 21v2h164q-64 104 -64 223q-1 138 73.5 248t196.5 168.5t265 58.5q151 0 295 -72l-109 -317q-125 41 -227 41q-116 0 -179 -42t-63 -106q0 -151 252 -151
q152 0 455 90z" />
    <glyph glyph-name="ghainar.medi" unicode="&#x63a;" horiz-adv-x="1443" arabic-form="medial" 
d="M733 1595l185 -182l-185 -186l-182 186zM1442 367v-367q-222 0 -401 74t-347 202q-186 -127 -360 -201.5t-346 -74.5v123l-4 -123l-103 20l10 324l97 21v2h18q227 0 455 106q-125 105 -213 158.5t-180 58.5l38 266q141 82 304.5 121.5t322.5 35.5t310 -39.5t282 -100.5
l-43 -305q-35 -4 -91 -35t-101 -63.5t-136 -100.5q209 -102 488 -102zM457 803q24 -10 49 -24.5t41.5 -24.5t46.5 -32t39 -29t45 -35.5t41 -32.5q37 25 90.5 63.5t93 65.5t70.5 45q-114 29 -256.5 30t-259.5 -26z" />
    <glyph glyph-name="fehar.fina" unicode="&#x641;" horiz-adv-x="2000" arabic-form="final" 
d="M1518 1481l184 -183l-184 -186l-183 186zM2060 367v-367q-400 0 -573 115q-91 -62 -209 -87.5t-285 -27.5h-377q-142 3 -249.5 42.5t-173.5 109t-99 160.5t-33 202q0 170 80 375l295 -88q-49 -127 -49 -230q0 -105 68 -154.5t209 -49.5h329h187q-80 109 -80 227
q0 96 42 182.5t105.5 143.5t137.5 90.5t139 33.5q153 0 263.5 -126.5t110.5 -323.5q0 -110 -79 -229q63 2 241 2zM1339 582q0 -48 47.5 -99t110.5 -75q54 15 101 71.5t47 110.5q0 50 -36.5 99.5t-92.5 49.5q-69 0 -123 -52t-54 -105z" />
    <glyph glyph-name="fehar.init" unicode="&#x641;" horiz-adv-x="954" arabic-form="initial" 
d="M416 1806l184 -182l-184 -186l-183 186zM831 666q7 -128 -23.5 -236.5t-87 -184t-135 -130t-165.5 -82t-180 -33.5h-240l-104 20v324l104 23h227q293 3 361 157q-78 -23 -158.5 -28t-156 12t-135 54t-95 104.5t-35.5 156.5q0 84 29.5 168.5t82 153.5t132.5 112t172 43
q126 0 220 -87t140.5 -229.5t46.5 -317.5zM217 883q0 -40 35.5 -65.5t92.5 -35t122 -9t131 10.5q-13 93 -77.5 155t-143.5 62q-53 0 -106.5 -34.5t-53.5 -83.5z" />
    <glyph glyph-name="fehar.medi" unicode="&#x641;" horiz-adv-x="1105" arabic-form="medial" 
d="M567 1495l185 -182l-185 -187l-182 187zM1106 367v-367q-402 0 -574 115q-97 -65 -222.5 -90t-309.5 -25v4l-98 19v321l98 21v2h6h219q-80 109 -80 227q0 96 42 182.5t105.5 143.5t137.5 90.5t139 33.5q74 0 142 -33t119.5 -90.5t82.5 -142.5t31 -184q0 -108 -80 -229
q63 2 242 2zM543 408q54 15 100.5 71.5t46.5 110.5q0 50 -36.5 99.5t-92.5 49.5q-69 0 -122.5 -52t-53.5 -105q0 -48 47.5 -99t110.5 -75z" />
    <glyph glyph-name="qafar.fina" unicode="&#x642;" horiz-adv-x="1624" arabic-form="final" 
d="M1190 1171l-160 164l-162 -164l-182 187l182 182l162 -160l160 160l184 -182zM1483 367h141v-367h-172q-34 -164 -132 -279t-240 -171t-318 -56q-321 0 -494.5 165.5t-173.5 444.5q0 201 92 435l222 -74q-48 -151 -48 -258q0 -170 113.5 -268.5t333.5 -98.5
q36 0 80.5 7.5t99 24t106.5 50t85 78.5h-78q-212 0 -345.5 111t-133.5 297q0 123 52.5 242t149 198.5t209.5 79.5q190 0 307 -150.5t144 -410.5zM1010 369l221 -2q-67 241 -232 241q-56 0 -109.5 -43.5t-53.5 -111.5q0 -84 174 -84z" />
    <glyph glyph-name="qafar.init" unicode="&#x642;" horiz-adv-x="954" arabic-form="initial" 
d="M569 1462l-159 164l-162 -164l-182 187l182 182l162 -160l159 160l185 -182zM831 666q7 -128 -23.5 -236.5t-87 -184t-135 -130t-165.5 -82t-180 -33.5h-240l-104 20v324l104 23h227q293 3 361 157q-78 -23 -158.5 -28t-156 12t-135 54t-95 104.5t-35.5 156.5
q0 84 29.5 168.5t82 153.5t132.5 112t172 43q126 0 220 -87t140.5 -229.5t46.5 -317.5zM217 883q0 -40 35.5 -65.5t92.5 -35t122 -9t131 10.5q-13 93 -77.5 155t-143.5 62q-53 0 -106.5 -34.5t-53.5 -83.5z" />
    <glyph glyph-name="qafar.medi" unicode="&#x642;" horiz-adv-x="1105" arabic-form="medial" 
d="M721 1151l-160 164l-162 -164l-182 186l182 183l162 -160l160 160l184 -183zM1106 367v-367q-402 0 -574 115q-97 -65 -222.5 -90t-309.5 -25v4l-98 19v321l98 21v2h6h219q-80 109 -80 227q0 96 42 182.5t105.5 143.5t137.5 90.5t139 33.5q74 0 142 -33t119.5 -90.5
t82.5 -142.5t31 -184q0 -108 -80 -229q63 2 242 2zM543 408q54 15 100.5 71.5t46.5 110.5q0 50 -36.5 99.5t-92.5 49.5q-69 0 -122.5 -52t-53.5 -105q0 -48 47.5 -99t110.5 -75z" />
    <glyph glyph-name="kafar.fina" unicode="&#x643;" horiz-adv-x="1814" arabic-form="final" 
d="M1839 367v-367q-237 0 -358 121q-122 -119 -318 -119h-512q-279 0 -446.5 165t-167.5 431q0 210 108 446l297 -79q-84 -172 -84 -303q0 -139 87.5 -216t236.5 -77h473q89 0 148.5 44.5t56.5 114.5l-41 1037l291 20v-2h2l20 -1055q1 -50 17 -83.5t46.5 -49.5t64 -22
t79.5 -6zM1118 850q0 -46 -14.5 -86t-45 -75.5t-86 -56t-130.5 -20.5h-203v201l152 -2q56 -1 88.5 2.5t53.5 17.5t21 41q0 13 -15.5 24.5t-48 20.5t-61 15.5t-77 15.5t-74.5 15l14 221q143 101 371 174l-4 -195q-110 -21 -238 -67q46 -5 91.5 -19t95 -40.5t80 -75
t30.5 -111.5z" />
    <glyph glyph-name="kafar.init" unicode="&#x643;" horiz-adv-x="1075" arabic-form="initial" 
d="M1096 1518l-109 -361q-205 -36 -565 -127q232 -147 320.5 -283t88.5 -325q0 -62 -18.5 -121t-60 -114t-101.5 -96.5t-149 -66t-197 -24.5h-297v367h295q148 0 206 21t58 75q0 32 -23.5 76t-73.5 101t-145 125.5t-221 133.5q14 185 29 311q115 47 252 92t375.5 115.5
t335.5 100.5zM-98 20v324l104 23v-367z" />
    <glyph glyph-name="kafar.medi" unicode="&#x643;" horiz-adv-x="1136" arabic-form="medial" 
d="M750 571q61 -85 85 -109q73 -74 202 -90q45 -5 100 -5v-367q-340 0 -449 190q-108 -190 -489 -190h-199v2l-98 18v324l98 21v2h221q142 0 204 18.5t62 73.5q-1 45 -72.5 113.5t-272.5 232.5q-83 67 -130 106q11 148 29 299q75 31 152 59t179.5 62t165.5 54.5t207.5 65.5
t208.5 65l-65 -361q-142 -24 -576 -137q89 -62 160 -124.5t125 -124.5t83 -100.5t69 -97.5z" />
    <glyph glyph-name="lamar.fina" unicode="&#x644;" horiz-adv-x="1585" arabic-form="final" 
d="M1579 367v-367q-165 0 -268 41q-54 -223 -204 -354t-392 -131q-159 0 -287 47t-212.5 131t-129.5 199.5t-45 252.5q0 205 98 426l299 -82q-80 -174 -80 -305q0 -305 357 -305q153 0 250.5 86.5t101.5 251.5l-41 1305l291 20l16 -1079q1 -5 3 -22t3.5 -24t8 -22t16 -22.5
t27.5 -18t42.5 -15.5t61.5 -9t84 -4z" />
    <glyph glyph-name="lamar.init" unicode="&#x644;" horiz-adv-x="593" arabic-form="initial" 
d="M438 1583l19 -1059q5 -246 -109 -383.5t-342 -140.5h-10v2l-94 18v324l94 21v2q95 0 144 37t46 110l-39 1049z" />
    <glyph glyph-name="lamar.medi" unicode="&#x644;" horiz-adv-x="673" arabic-form="medial" 
d="M193 512l-41 1051l290 20l21 -1071q1 -74 59 -109.5t152 -35.5v-367q-203 0 -334 109q-68 -62 -142.5 -85.5t-189.5 -23.5h-6v2l-98 18v324l98 21v2q96 0 145 36.5t46 108.5z" />
    <glyph glyph-name="meemar.fina" unicode="&#x645;" horiz-adv-x="1525" arabic-form="final" 
d="M1247 555v2q13 -49 30.5 -81t48 -58.5t79.5 -38.5t121 -12v-367q-248 0 -361 129q-114 -114 -291 -102q-33 2 -77 9t-80.5 14t-78.5 13t-74.5 7.5t-63.5 -4.5t-51.5 -20t-33 -41.5t-12.5 -67.5q4 -173 35 -482l-301 -43q-21 382 -24 533q-7 468 301 489q22 75 51 140.5
t70.5 126t91 103t114.5 68t138 25.5q142 0 237 -95t131 -247zM893 377q70 0 110.5 22.5t40.5 61.5q0 52 -37.5 90.5t-111.5 38.5q-77 0 -137 -57.5t-76 -129.5q137 -26 211 -26z" />
    <glyph glyph-name="meemar.init" unicode="&#x645;" horiz-adv-x="1146" arabic-form="initial" 
d="M690 954q72 0 135 -31.5t107.5 -84.5t77 -121t48 -142t15.5 -147q0 -78 -19.5 -148.5t-57 -128t-100.5 -91t-144 -33.5q-267 0 -426 211q-29 -66 -70.5 -114.5t-86 -74t-84.5 -37t-79 -12.5h-6v2l-98 18v324l98 21v2q91 0 145 42.5t115 157.5q32 59 62.5 107t74 102.5
t86 91.5t97 61.5t110.5 24.5zM745 375q18 0 28.5 0.5t25 4t22 10t13.5 19.5t6 31q0 66 -53.5 126.5t-120.5 60.5q-58 0 -114.5 -30.5t-90.5 -94.5q54 -68 132.5 -97.5t151.5 -29.5z" />
    <glyph glyph-name="meemar.medi" unicode="&#x645;" horiz-adv-x="1337" arabic-form="medial" 
d="M1061 557q16 -99 74 -144.5t202 -45.5v-367q-247 0 -362 125q-85 -98 -223 -98q-267 0 -426 211q-29 -66 -70.5 -114.5t-86 -74t-84.5 -37t-79 -12.5h-6v2l-98 18v324l98 21v2q91 0 145 42.5t115 157.5q32 59 62.5 107t74 102.5t86 91.5t97 61.5t110.5 24.5
q98 0 177.5 -58t126.5 -145.5t67 -193.5zM745 375q18 0 28.5 0.5t25 4t22 10t13.5 19.5t6 31q0 66 -53.5 126.5t-120.5 60.5q-58 0 -114.5 -30.5t-90.5 -94.5q54 -68 132.5 -97.5t151.5 -29.5z" />
    <glyph glyph-name="noonar.fina" unicode="&#x646;" horiz-adv-x="1624" arabic-form="final" 
d="M698 1237l185 -182l-185 -187l-182 187zM1624 367v-367q-170 0 -262 76q-45 -245 -214.5 -382.5t-438.5 -137.5q-159 0 -286.5 47t-211 131t-128 199.5t-44.5 252.5q0 205 98 426l299 -80q-80 -174 -80 -305q0 -147 98.5 -227t286.5 -80q158 0 258.5 76t100.5 211
q0 53 -9 113.5t-16.5 95.5t-32 129t-34.5 133l284 41q40 -87 60 -195q19 -58 45.5 -90t80.5 -49.5t146 -17.5z" />
    <glyph glyph-name="noonar.init" unicode="&#x646;" horiz-adv-x="602" arabic-form="initial" 
d="M272 1337l185 -182l-185 -186l-182 186zM498 485q0 -106 -26.5 -191t-83 -152t-153.5 -104t-229 -38h-6v2l-98 18v324l98 21v2q124 0 176.5 41t52.5 122q0 37 -14 94.5t-28 99t-44 124.5l263 65q38 -63 65 -194.5t27 -233.5z" />
    <glyph glyph-name="noonar.medi" unicode="&#x646;" horiz-adv-x="692" arabic-form="medial" 
d="M346 1210l184 -182l-184 -186l-182 186zM481 756v-181q0 -116 49.5 -162t165.5 -46v-367q-287 0 -379 205q-83 -202 -311 -205h-6v2l-98 18v324l98 21v2q113 0 156.5 44t58.5 164l21 160z" />
    <glyph glyph-name="hehar.fina" unicode="&#x647;" horiz-adv-x="1126" arabic-form="final" 
d="M1122 367v-367q-342 0 -438 248q-133 -111 -285 -111q-169 0 -262.5 84t-93.5 244q0 84 31.5 162t86 142t130 120t160.5 98t180 74l-2 84l289 20l20 -637q3 -97 47 -129t137 -32zM281 518q0 -80 155 -80q110 0 211 58l-8 280q-56 -23 -108 -48.5t-113.5 -61t-99 -75
t-37.5 -73.5z" />
    <glyph glyph-name="hehar.init" unicode="&#x647;" horiz-adv-x="1368" arabic-form="initial" 
d="M315 883l105 280q259 -105 376 -165q536 -274 537 -615q0 -98 -39.5 -175.5t-105 -124.5t-153 -71t-181.5 -20t-193.5 34.5t-185.5 86.5q-90 -72 -186 -92.5t-283 -20.5h-6v2l-98 18v324l98 21v2h6h176q-32 75 -32 151q0 110 68.5 201t166.5 133zM768 330q236 -42 236 78
q0 46 -34.5 91t-75 73.5t-89.5 52.5q16 -53 16 -109q0 -103 -53 -186zM487 381q34 22 46 30.5t30.5 24.5t24 29.5t4.5 30.5q0 43 -31 74.5t-74 31.5q-48 0 -84 -28t-36 -70q0 -31 36.5 -66t83.5 -57z" />
    <glyph glyph-name="hehar.medi" unicode="&#x647;" horiz-adv-x="1099" arabic-form="medial" 
d="M895 367h205v-367h-150q33 -61 33 -131q0 -62 -19 -118.5t-58.5 -106.5t-109.5 -79.5t-163 -29.5q-130 0 -238.5 51.5t-184.5 158.5t-99 255h-115v2l-98 18v324l98 21v2h121q21 104 74 216.5t128 215t176 182.5t207 111q113 -57 198 -203t85 -287q0 -142 -90 -235z
M647 719q-28 -2 -70.5 -27t-89 -67t-88.5 -110.5t-61 -147.5h47q157 0 255.5 59.5t98.5 142.5q0 81 -92 150zM606 -193q97 0 128 48q27 41 -15 82q-65 63 -223 63h-152q9 -72 95.5 -132.5t166.5 -60.5z" />
    <glyph glyph-name="wawar.fina" unicode="&#x648;" horiz-adv-x="1071" arabic-form="final" 
d="M922 367h149v-367h-211q-79 -217 -264.5 -364.5t-441.5 -219.5l-82 308q72 26 123.5 48t130 61t143.5 89.5t111 108.5h-177q-142 0 -236.5 100.5t-94.5 257.5q0 77 29 163t79 161t126.5 123.5t162.5 48.5q166 0 290 -145.5t163 -372.5zM268 426q0 -43 48.5 -62.5
t117.5 -19.5h217q-94 211 -223 211q-55 0 -107.5 -39t-52.5 -90z" />
    <glyph glyph-name="alefMaksuraar.fina" unicode="&#x649;" horiz-adv-x="1572" arabic-form="final" 
d="M1573 367v-367q-41 0 -92 10q2 -6 2 -20q0 -70 -21.5 -132.5t-76.5 -123.5t-138.5 -105t-217.5 -71t-304 -27q-344 0 -518 147t-174 431q0 267 145 585l299 -98q-129 -255 -129 -424q0 -146 103 -212t301 -66q88 0 140.5 1t132 5.5t119.5 17t40 31.5q0 14 -31.5 30
t-82.5 30.5t-96 25.5t-92 20.5t-51 10.5l107 331q217 -30 635 -30z" />
    <glyph glyph-name="yehar.fina" unicode="&#x64a;" horiz-adv-x="1572" arabic-form="final" 
d="M1573 367v-367q-41 0 -92 10q2 -6 2 -20q0 -70 -21.5 -132.5t-76.5 -123.5t-138.5 -105t-217.5 -71t-304 -27q-344 0 -518 147t-174 431q0 267 145 585l299 -98q-129 -255 -129 -424q0 -146 103 -212t301 -66q88 0 140.5 1t132 5.5t119.5 17t40 31.5q0 14 -31.5 30
t-82.5 30.5t-96 25.5t-92 20.5t-51 10.5l107 331q217 -30 635 -30zM526 -520l162 -133l160 133l184 -152l-184 -153l-160 135l-162 -135l-182 153z" />
    <glyph glyph-name="yehar.init" unicode="&#x64a;" horiz-adv-x="602" arabic-form="initial" 
d="M0 0v2l-98 18v324l98 21v2q124 0 176.5 41t52.5 122q0 37 -14 94.5t-28 99t-44 124.5l263 65q38 -63 65 -194.5t27 -233.5q0 -106 -26.5 -191t-83 -152t-153.5 -104t-229 -38h-6zM444 -68l185 -182l-185 -186l-159 164l-162 -164l-182 186l182 182l162 -159z" />
    <glyph glyph-name="yehar.medi" unicode="&#x64a;" horiz-adv-x="692" arabic-form="medial" 
d="M236 735l245 21v-181q0 -116 49.5 -162t165.5 -46v-367q-287 0 -379 205q-41 -101 -116 -152.5t-195 -52.5h-6v2l-98 18v324l98 21v2q113 0 156.5 44t58.5 164zM-66 -250l183 182l162 -159l159 159l185 -182l-185 -186l-159 164l-162 -164z" />
    <glyph glyph-name=".notdef" horiz-adv-x="1136" 
 />
    <glyph glyph-name=".null" 
 />
    <glyph glyph-name="nonmarkingreturn" horiz-adv-x="682" 
 />
    <glyph glyph-name="CR" unicode="&#xd;" horiz-adv-x="1298" 
 />
    <glyph glyph-name="space" unicode=" " horiz-adv-x="315" 
 />
    <glyph glyph-name="exclam" unicode="!" horiz-adv-x="604" 
d="M176 477l-70 963h392l-70 -963h-252zM485 180l-178 -180l-180 180l180 178z" />
    <glyph glyph-name="quotedbl" unicode="&#x22;" horiz-adv-x="909" 
d="M373 930h-236l-45 594h342zM766 930h-236l-45 594h342z" />
    <glyph glyph-name="numbersign" unicode="#" horiz-adv-x="1296" 
d="M1229 1040v-186h-178l-50 -262h177l-4 -199h-211l-74 -393h-240l74 393h-281l-73 -393h-236l74 393h-133l2 199h170l49 262h-166v186h201l76 400h235l-76 -400h281l76 400h239l-76 -400h144zM481 592h281l49 262h-281z" />
    <glyph glyph-name="dollar" unicode="$" horiz-adv-x="1193" 
d="M1161 475q0 -116 -63 -210t-165 -150.5t-231 -77.5v-219h-186v207q-122 7 -246.5 66.5t-195.5 133.5l186 232q84 -63 158 -94t180 -31q115 0 165 26.5t50 87.5q0 41 -31.5 71t-83 47t-117 35.5t-134 34t-134 44.5t-117 66.5t-83 100.5t-31.5 144q0 178 114.5 295
t317.5 146v178h186v-172q111 -7 237 -59t191 -101l-165 -217q-179 98 -310 98q-116 0 -174.5 -43t-58.5 -98q0 -46 41 -78t106 -51t144 -36.5t158.5 -44t144.5 -64.5t106 -106t41 -161z" />
    <glyph glyph-name="percent" unicode="%" horiz-adv-x="1935" 
d="M51 1090q0 181 118.5 283t291.5 102q84 0 156 -25t127 -71.5t86.5 -120t31.5 -164.5q0 -179 -116 -281t-289 -102q-110 0 -201 43t-148 130.5t-57 205.5zM571 0h-274l1055 1440h274zM332 1092q0 -68 36 -105t91 -37q52 0 89.5 37.5t37.5 102.5q0 68 -38.5 103.5
t-88.5 35.5t-88.5 -34.5t-38.5 -102.5zM1073 346q0 181 116.5 283t289.5 102q175 0 290 -100.5t115 -282.5q0 -178 -116.5 -280.5t-290.5 -102.5q-170 0 -287 101.5t-117 279.5zM1352 350q0 -69 37 -105t92 -36q53 0 90 36.5t37 102.5t-39.5 102.5t-91.5 36.5q-49 0 -87 -35
t-38 -102z" />
    <glyph glyph-name="ampersand" unicode="&#x26;" horiz-adv-x="1527" 
d="M1233 287l309 -287h-403l-115 106q-229 -141 -455 -141q-222 0 -360.5 115.5t-138.5 292.5q0 68 20 125.5t57 102t80.5 78t100.5 64.5q-164 167 -164 340q0 162 135.5 277t335.5 115q196 0 328.5 -107t132.5 -270q0 -76 -26 -138t-75.5 -109t-98.5 -78.5t-118 -65.5
l258 -238q46 69 69 134.5t23 152.5l302 26q0 -268 -197 -495zM463 1073q0 -31 21 -66.5t44 -60.5t76 -76q104 47 158.5 93t54.5 110q0 61 -53 103.5t-121 42.5q-83 0 -131.5 -44t-48.5 -102zM598 240q113 0 227 51l-315 287q-123 -71 -123 -170q0 -69 59.5 -118.5
t151.5 -49.5z" />
    <glyph glyph-name="quotesingle" unicode="'" horiz-adv-x="516" 
d="M373 930h-236l-45 594h342z" />
    <glyph glyph-name="parenleft" unicode="(" horiz-adv-x="739" 
d="M686 -186h-252q-336 411 -336 833q0 436 334 832h254q-114 -190 -173.5 -405.5t-59.5 -428.5q0 -429 233 -831z" />
    <glyph glyph-name="parenright" unicode=")" horiz-adv-x="739" 
d="M305 -186h-252q234 404 234 831q0 213 -60 428.5t-174 405.5h254q334 -396 334 -832q0 -422 -336 -833z" />
    <glyph glyph-name="asterisk" unicode="*" horiz-adv-x="958" 
d="M639 1059l252 -119l-115 -199l-215 174l43 -272h-252l45 277l-215 -179l-114 195l243 121l-260 88l125 221l221 -166l-45 275h248l-41 -273l225 154l123 -211z" />
    <glyph glyph-name="plus" unicode="+" horiz-adv-x="1286" 
d="M788 852h443v-285h-443v-469h-301v469h-432v285h432v467h301v-467z" />
    <glyph glyph-name="comma" unicode="," horiz-adv-x="536" 
d="M264 -256h-201l58 600h342z" />
    <glyph glyph-name="hyphen" unicode="-" horiz-adv-x="878" 
d="M735 770v-213h-592v213h592z" />
    <glyph glyph-name="period" unicode="." horiz-adv-x="600" 
d="M301 -6q-74 0 -126 51.5t-52 124.5t52 124.5t126 51.5q73 0 124.5 -51t51.5 -125t-51.5 -125t-124.5 -51z" />
    <glyph glyph-name="slash" unicode="/" horiz-adv-x="835" 
d="M793 1440l-471 -1678h-275l471 1678h275z" />
    <glyph glyph-name="zero" unicode="0" horiz-adv-x="1423" 
d="M709 -29q-302 0 -462.5 191.5t-160.5 552.5q0 357 164 558.5t463 201.5q302 0 463 -200t161 -560q0 -356 -163.5 -550t-464.5 -194zM711 279q126 0 196 108.5t70 329.5q0 222 -69 332t-197 110q-129 0 -198 -109.5t-69 -330.5q0 -440 267 -440z" />
    <glyph glyph-name="one" unicode="1" horiz-adv-x="911" 
d="M770 0h-338v1051l-266 -187l-105 283l437 291h272v-1438z" />
    <glyph glyph-name="two" unicode="2" horiz-adv-x="1163" 
d="M1102 14h-1034v209q74 77 152.5 157.5t127 130.5t100.5 103t81.5 84.5t60 64.5t45 53t29 41t19.5 37t8 32t3 35q0 79 -52 128.5t-136 49.5q-164 0 -293 -135l-193 247q91 100 229.5 158.5t285.5 58.5q219 0 361 -134t142 -337q0 -57 -5.5 -98.5t-27 -90.5t-45.5 -86.5
t-82.5 -103.5t-114 -123.5t-161.5 -164.5h500v-316z" />
    <glyph glyph-name="three" unicode="3" horiz-adv-x="1148" 
d="M981 1196l-238 -295q168 -29 266.5 -155t98.5 -293q0 -202 -155.5 -336.5t-393.5 -134.5q-165 0 -310.5 62t-236.5 171l207 229q139 -151 330 -151q103 0 160 53.5t57 126.5q0 77 -61.5 134t-172.5 57h-170v198l228 291h-502v293h893v-250z" />
    <glyph glyph-name="four" unicode="4" horiz-adv-x="1347" 
d="M1071 0h-344v248h-700v295l616 887h428v-863h195v-319h-195v-248zM737 1094l-340 -539h342z" />
    <glyph glyph-name="five" unicode="5" horiz-adv-x="1153" 
d="M524 897h64q244 0 379 -114t135 -312q0 -95 -39 -185.5t-106 -160.5t-165.5 -113t-209.5 -43q-167 0 -317.5 64.5t-244.5 181.5l226 250q147 -160 332 -160q95 0 147.5 46.5t52.5 109.5q0 72 -66.5 127t-183.5 55h-368v787h917l-86 -306h-467v-227z" />
    <glyph glyph-name="six" unicode="6" horiz-adv-x="1247" 
d="M639 -31q-254 0 -411.5 139.5t-157.5 372.5q0 94 35.5 198.5t142.5 258.5l340 492h411l-305 -472q244 -7 383.5 -136t139.5 -333q0 -231 -162 -375.5t-416 -144.5zM641 266q101 0 163 58t62 143q0 90 -62.5 151.5t-162.5 61.5q-99 0 -160 -61t-61 -150q0 -86 60.5 -144.5
t160.5 -58.5z" />
    <glyph glyph-name="seven" unicode="7" horiz-adv-x="1107" 
d="M520 -2h-370q140 624 528 1118h-637v322h1024v-174q-395 -565 -545 -1266z" />
    <glyph glyph-name="eight" unicode="8" horiz-adv-x="1280" 
d="M655 -18q-251 0 -408 119.5t-157 308.5q0 213 201 317l4 21q-176 101 -176 296q0 185 151.5 307t382.5 122t383 -122.5t152 -306.5q0 -196 -172 -296l2 -21q201 -106 201 -317q0 -188 -157.5 -308t-406.5 -120zM639 879q78 0 127 42t49 111q0 70 -48.5 112t-127.5 42
q-77 0 -125.5 -42.5t-48.5 -111.5t48 -111t126 -42zM635 279q86 0 141 45.5t55 119.5q0 77 -53 121.5t-143 44.5t-141.5 -44t-51.5 -122q0 -73 54 -119t139 -46z" />
    <glyph glyph-name="nine" unicode="9" horiz-adv-x="1247" 
d="M604 1466q254 0 413 -139.5t159 -370.5q0 -94 -36 -199t-143 -259l-340 -492h-411l303 471q-242 7 -381 136t-139 333q0 231 161 375.5t414 144.5zM604 1171q-100 0 -162.5 -58.5t-62.5 -143.5q0 -90 61.5 -151.5t163.5 -61.5q99 0 160 61t61 150q0 86 -61 145t-160 59z
" />
    <glyph glyph-name="colon" unicode=":" horiz-adv-x="532" 
d="M262 590q-74 0 -125 51.5t-51 126.5q0 72 51.5 124t124.5 52t124.5 -52t51.5 -124q0 -75 -51 -126.5t-125 -51.5zM262 -6q-74 0 -125 51t-51 125t51 125t125 51t125 -51t51 -125t-51 -125t-125 -51z" />
    <glyph glyph-name="semicolon" unicode=";" horiz-adv-x="612" 
d="M317 702q-86 0 -145 58.5t-59 144.5q0 84 59 142.5t145 58.5q83 0 141 -59t58 -142q0 -86 -57.5 -144.5t-141.5 -58.5zM301 -199h-201l58 600h342z" />
    <glyph glyph-name="less" unicode="&#x3c;" horiz-adv-x="1030" 
d="M51 803l856 473v-309l-565 -260l565 -263v-313l-856 477v195z" />
    <glyph glyph-name="equal" unicode="=" horiz-adv-x="1177" 
d="M1085 1102v-281h-970v281h970zM1085 592v-283h-970v283h970z" />
    <glyph glyph-name="greater" unicode="&#x3e;" horiz-adv-x="1030" 
d="M684 707l-561 260v309l856 -473v-195l-856 -477v313z" />
    <glyph glyph-name="question" unicode="?" horiz-adv-x="917" 
d="M514 481h-285q-10 78 -10 133q0 89 25 170q33 65 157 121q120 63 136 75q29 27 30 60q0 52 -51.5 79.5t-130.5 27.5q-81 0 -146.5 -12.5t-162.5 -53.5v328q78 34 138.5 47.5t141.5 13.5q128 0 242 -54t185 -152.5t71 -216.5q0 -142 -55 -225.5t-181 -143.5
q-32 -15 -43 -20.5t-29 -17t-23 -21.5t-10 -26t-5 -38q0 -21 6 -74zM537 180l-179 -180l-180 180l180 178z" />
    <glyph glyph-name="at" unicode="@" horiz-adv-x="1759" 
d="M1223 94q-196 0 -222 152l9 4l-11 -2l-2 28q-110 -106 -254 -106q-126 0 -188.5 66.5t-42.5 181.5q20 114 118.5 176.5t260.5 62.5h156q10 57 -30 87t-108 30q-113 0 -219 -65l-63 184q151 96 348 96q173 0 260 -86t55 -262l-47 -274q0 -2 -1 -18.5t-1 -22.5t0.5 -20.5
t4 -21.5t8.5 -16t14 -12.5t22 -3.5q75 0 141 126t66 284q0 105 -34 195t-99.5 159.5t-171 109t-240.5 39.5q-161 0 -292.5 -56t-218 -153.5t-133 -230t-46.5 -285.5q0 -279 149.5 -425t419.5 -146q159 0 357 53l43 -153q-219 -72 -418 -72q-159 0 -293 45.5t-234.5 133
t-157 226t-56.5 314.5q0 152 40.5 290t118.5 250t185.5 194.5t249.5 127.5t303 45q173 0 311 -52t224 -140.5t131.5 -202t45.5 -240.5q0 -57 -9.5 -119t-29.5 -130.5t-56 -128.5t-84.5 -109.5t-120.5 -78t-158 -28.5zM750 432q-7 -29 15.5 -47t84.5 -18q44 0 91.5 20.5
t66.5 46.5l12 66h-119q-140 0 -151 -68z" />
    <glyph glyph-name="A" unicode="A" horiz-adv-x="1413" 
d="M1415 0h-368l-86 283h-533l-88 -283h-346l524 1440h381zM692 1096l-168 -531h338z" />
    <glyph glyph-name="B" unicode="B" horiz-adv-x="1337" 
d="M1071 760q68 -33 112.5 -72.5t66.5 -87.5t30 -94t8 -109q0 -186 -132.5 -291.5t-385.5 -105.5h-637v1440h559q243 0 381.5 -99t138.5 -301q0 -86 -37 -159.5t-104 -120.5zM649 1171h-162v-340h162q112 0 167.5 50.5t55.5 128.5q0 73 -56.5 117t-166.5 44zM487 270h183
q250 0 250 164q0 168 -258 168h-175v-332z" />
    <glyph glyph-name="C" unicode="C" horiz-adv-x="1519" 
d="M817 -31q-159 0 -298 59.5t-237 161t-154 240.5t-56 293q0 155 56 294t154 241t237 161.5t298 59.5q242 0 427 -130.5t265 -342.5l-301 -125q-54 125 -156.5 198.5t-234.5 73.5q-176 0 -289.5 -122t-113.5 -308t113.5 -308t289.5 -122q132 0 235.5 73.5t153.5 198.5
l303 -127q-80 -210 -265 -339.5t-427 -129.5z" />
    <glyph glyph-name="D" unicode="D" horiz-adv-x="1486" 
d="M133 1440h545q207 0 375 -90t266 -256t98 -377t-98 -375.5t-266 -253t-375 -88.5h-545v1440zM487 293h146q186 0 304 117.5t118 306.5q0 187 -119 308.5t-301 121.5h-148v-854z" />
    <glyph glyph-name="E" unicode="E" horiz-adv-x="1193" 
d="M1112 1440v-293h-625v-307h568v-289h-568v-258h625v-293h-979v1440h979z" />
    <glyph glyph-name="F" unicode="F" horiz-adv-x="1159" 
d="M1106 1440v-293h-619v-301h568v-316h-568v-530h-354v1440h973z" />
    <glyph glyph-name="G" unicode="G" horiz-adv-x="1570" 
d="M799 840h714q5 -39 5 -119q0 -156 -47 -292.5t-134 -239.5t-221.5 -162.5t-300.5 -59.5q-210 0 -381.5 102t-266.5 275t-95 379q0 154 56 293t153.5 240.5t236.5 161t297 59.5q205 0 370.5 -96t262.5 -259l-293 -180q-53 95 -141 148t-197 53q-173 0 -284 -119t-111 -301
q0 -185 111 -304.5t284 -119.5q149 0 234.5 55t103.5 199h-360z" />
    <glyph glyph-name="H" unicode="H" horiz-adv-x="1646" 
d="M1159 848v592h354v-1440h-354v530h-672v-530h-354v1440h354v-592h672z" />
    <glyph glyph-name="I" unicode="I" horiz-adv-x="620" 
d="M487 0h-354q3 720 0 1440h354q3 -720 0 -1440z" />
    <glyph glyph-name="J" unicode="J" horiz-adv-x="1079" 
d="M449 -33q-112 0 -204 25t-202 106l143 285q113 -84 226 -84q81 0 133.5 48t52.5 134v951h363v-953q0 -242 -137.5 -377t-374.5 -135z" />
    <glyph glyph-name="K" unicode="K" horiz-adv-x="1359" 
d="M1376 0h-432l-387 586h-68v-586h-362v1432h362v-506h82l349 506h438l-488 -684z" />
    <glyph glyph-name="L" unicode="L" horiz-adv-x="1075" 
d="M479 1440v-1102h559v-338h-905v1440h346z" />
    <glyph glyph-name="M" unicode="M" horiz-adv-x="1857" 
d="M938 721l463 711h338v-1432h-359v791l-313 -482h-256l-330 482v-791h-354v1432h350z" />
    <glyph glyph-name="N" unicode="N" horiz-adv-x="1658" 
d="M1149 590v842h375v-1432h-348l-697 840v-840h-352v1432h348z" />
    <glyph glyph-name="O" unicode="O" horiz-adv-x="1640" 
d="M821 -33q-210 0 -381.5 101.5t-266.5 273t-95 375.5q0 153 56 290.5t153 238t236 159.5t298 59q211 0 383 -100.5t267.5 -271.5t95.5 -375q0 -206 -95 -377t-267 -272t-384 -101zM821 295q174 0 286 120t112 302q0 180 -113 301t-285 121q-173 0 -284 -121t-111 -301
q0 -181 111.5 -301.5t283.5 -120.5z" />
    <glyph glyph-name="P" unicode="P" horiz-adv-x="1298" 
d="M127 1432h580q252 0 409.5 -149.5t157.5 -383.5q0 -226 -157 -363t-410 -137h-205v-399h-375v1432zM502 700h188q83 0 137 57.5t54 168.5q0 117 -53 173t-138 56h-188v-455z" />
    <glyph glyph-name="Q" unicode="Q" horiz-adv-x="1644" 
d="M1567 717q0 -157 -56.5 -295t-160.5 -242l106 -155l-272 -181l-115 162q-122 -39 -248 -39q-210 0 -381.5 101.5t-266.5 273t-95 375.5q0 153 56 290.5t153 238t236 159.5t298 59q211 0 383 -100.5t267.5 -271.5t95.5 -375zM821 295q27 0 41 2l-147 207l280 198l156 -229
q68 108 68 244q0 180 -113 301t-285 121q-173 0 -284 -121t-111 -301q0 -181 111.5 -301.5t283.5 -120.5z" />
    <glyph glyph-name="R" unicode="R" horiz-adv-x="1449" 
d="M1022 518l385 -518h-426l-315 438h-164v-438h-375v1432h580q256 0 411.5 -135t155.5 -365q0 -128 -67 -238t-185 -176zM690 1155h-188v-416h188q80 0 148.5 65.5t68.5 151.5q0 199 -217 199z" />
    <glyph glyph-name="S" unicode="S" horiz-adv-x="1220" 
d="M606 -45q-162 2 -303 60.5t-235 164.5l186 250q72 -73 171.5 -115.5t190.5 -42.5q84 0 135.5 39t51.5 117q0 63 -43.5 93.5t-167.5 60.5l-123 28q-395 94 -395 404q0 146 77.5 253t200.5 158.5t273 51.5q269 0 497 -164l-172 -254q-139 115 -323 115q-92 0 -142.5 -34.5
t-50.5 -97.5q0 -33 15 -57.5t47.5 -41.5t66 -27.5t86.5 -22.5l121 -27q404 -92 404 -405q0 -219 -155 -362.5t-413 -143.5z" />
    <glyph glyph-name="T" unicode="T" horiz-adv-x="1296" 
d="M29 1440h1239v-297h-443v-1143h-356v1143h-440v297z" />
    <glyph glyph-name="U" unicode="U" horiz-adv-x="1540" 
d="M115 621v819h354v-817q0 -164 77 -254t230 -90q292 0 295 339v822h354v-817q0 -134 -38.5 -245.5t-103 -186t-150.5 -126.5t-178 -75t-189 -23q-102 0 -196 24t-178 76t-145 127t-97 184.5t-35 242.5z" />
    <glyph glyph-name="V" unicode="V" horiz-adv-x="1390" 
d="M889 0h-381l-514 1440h373l340 -1049l327 1049h361z" />
    <glyph glyph-name="W" unicode="W" horiz-adv-x="2107" 
d="M1507 416l269 1024h335l-421 -1440h-351l-282 928l-295 -928h-356l-398 1440h352l248 -1028l324 1028h270z" />
    <glyph glyph-name="X" unicode="X" horiz-adv-x="1329" 
d="M956 1440h385l-497 -715l487 -725h-409l-269 438l-276 -438h-385l497 696l-495 744h407l277 -455z" />
    <glyph glyph-name="Y" unicode="Y" horiz-adv-x="1302" 
d="M948 1440h355l-469 -893v-547h-357v539l-489 901h377l286 -623z" />
    <glyph glyph-name="Z" unicode="Z" horiz-adv-x="1200" 
d="M1151 1440v-172l-623 -971h619v-297h-1081v158l647 985h-643v297h1081z" />
    <glyph glyph-name="bracketleft" unicode="[" horiz-adv-x="743" 
d="M690 -393h-557v1833h557v-238h-276v-1358h276v-237z" />
    <glyph glyph-name="backslash" unicode="\" horiz-adv-x="835" 
d="M791 -238h-275l-471 1678h274z" />
    <glyph glyph-name="bracketright" unicode="]" horiz-adv-x="743" 
d="M598 1440v-1833h-557v237h274v1358h-274v238h557z" />
    <glyph glyph-name="underscore" unicode="_" horiz-adv-x="997" 
d="M911 -250v-215h-825v215h825z" />
    <glyph glyph-name="a" unicode="a" horiz-adv-x="1249" 
d="M610 1116q117 0 211.5 -28t166 -86t110.5 -152.5t39 -220.5v-627h-346v88q-125 -119 -302 -119t-281 93.5t-104 254.5q0 160 122.5 247t346.5 87h218q0 94 -62.5 139.5t-157.5 45.5q-166 0 -301 -93l-123 236q78 58 196.5 96.5t266.5 38.5zM571 242q64 0 131 30.5
t89 69.5v98h-177q-213 0 -213 -100q0 -98 170 -98z" />
    <glyph glyph-name="b" unicode="b" horiz-adv-x="1419" 
d="M797 1128q87 0 169.5 -23t155 -71.5t127 -116t86 -162.5t31.5 -206q0 -138 -46 -250t-123 -181.5t-172.5 -107t-199.5 -37.5q-113 0 -202.5 34.5t-165.5 115.5v-123h-344v1522l346 20l-2 -524q80 60 159.5 85t180.5 25zM715 258q122 0 204 77t82 218q0 126 -81 192
t-203 66q-134 0 -258 -78v-387q124 -88 256 -88z" />
    <glyph glyph-name="c" unicode="c" horiz-adv-x="1169" 
d="M629 -20q-116 0 -219.5 43.5t-178 118.5t-118 181t-43.5 226q0 119 43.5 224.5t118 180t178 117.5t219.5 43q180 0 319 -95t191 -255l-265 -117q-32 82 -91.5 128t-143.5 46q-105 0 -167 -77t-62 -195q0 -122 61.5 -198.5t167.5 -76.5q83 0 143 47t92 128l263 -119
q-51 -157 -190 -253.5t-318 -96.5z" />
    <glyph glyph-name="d" unicode="d" horiz-adv-x="1374" 
d="M965 1018l-2 504l348 20v-1542h-346v121q-76 -80 -166 -114t-203 -34q-104 0 -199.5 37.5t-172.5 107t-123 181.5t-46 250t48.5 250.5t129.5 183t182 108t210 37.5q101 0 180.5 -25t159.5 -85zM707 258q139 0 256 88v387q-124 78 -258 78q-122 0 -203.5 -66.5
t-81.5 -191.5q0 -141 82 -218t205 -77z" />
    <glyph glyph-name="e" unicode="e" horiz-adv-x="1273" 
d="M670 -37q-174 0 -313 71.5t-218.5 205t-79.5 307.5q0 155 71 287t205.5 213t305.5 81q121 0 224.5 -35t184.5 -103.5t127 -181t46 -257.5q0 -41 -9 -102h-804q56 -185 270 -185q98 0 158 34.5t116 107.5l236 -142q-90 -147 -224 -224t-296 -77zM406 678h454
q-11 89 -74 133.5t-151 44.5q-80 0 -147.5 -45t-81.5 -133z" />
    <glyph glyph-name="f" unicode="f" horiz-adv-x="866" 
d="M696 1245q-68 0 -108.5 -46.5t-34.5 -127.5h291l-21 -256h-276v-815h-322v815h-178l21 256h159q0 228 106 349.5t290 121.5q104 0 237 -45l-61 -274q-58 22 -103 22z" />
    <glyph glyph-name="g" unicode="g" horiz-adv-x="1429" 
d="M1022 1094h295v-1102h-10l10 -2q0 -193 -176.5 -323t-458.5 -130q-155 0 -301 36.5t-246 92.5l43 299q98 -55 238 -89t256 -34q89 0 153.5 20.5t106 72.5t41.5 133v102q-76 -81 -166 -115.5t-203 -34.5q-107 0 -201 30t-172.5 91t-124 166t-45.5 242q0 138 48.5 250.5
t129.5 183t182 108t210 37.5q110 0 197 -31t176 -106zM715 305q132 0 256 88v340q-124 78 -260 78q-122 0 -203.5 -66.5t-81.5 -191.5q0 -248 289 -248z" />
    <glyph glyph-name="h" unicode="h" horiz-adv-x="1366" 
d="M846 1126q205 0 312.5 -117t107.5 -382v-627h-344v610q0 117 -36.5 158t-133.5 41q-82 0 -163.5 -31.5t-131.5 -70.5v-707h-344v1522l344 20v-561q216 145 389 145z" />
    <glyph glyph-name="i" unicode="i" horiz-adv-x="567" 
d="M500 1440l-205 -207l-203 207l203 205zM457 0h-346q3 547 0 1094l346 20q-6 -557 0 -1114z" />
    <glyph glyph-name="j" unicode="j" horiz-adv-x="585" 
d="M504 1464l-203 -204l-203 204l203 203zM-209 -377l152 287q55 -25 82 -25q47 0 75.5 40t28.5 114v1057l344 20v-1114q0 -204 -113.5 -329.5t-287.5 -125.5q-132 0 -281 76z" />
    <glyph glyph-name="k" unicode="k" horiz-adv-x="1243" 
d="M739 553l490 -553h-455l-317 360l2 -360h-355v1524l353 20v-837l331 383h431z" />
    <glyph glyph-name="l" unicode="l" horiz-adv-x="569" 
d="M457 0h-344v1524l344 20v-1544z" />
    <glyph glyph-name="m" unicode="m" horiz-adv-x="2097" 
d="M1575 1126q206 0 313 -117t107 -382v-627h-344v610q0 117 -36.5 158t-131.5 41q-111 0 -223 -57q6 -59 6 -125v-627h-344v610q0 117 -36.5 158t-133.5 41q-82 0 -163.5 -31.5t-131.5 -70.5v-707h-344v1092l344 20v-131q216 145 389 145q242 0 342 -157v12
q216 145 387 145z" />
    <glyph glyph-name="n" unicode="n" horiz-adv-x="1366" 
d="M846 1126q205 0 312.5 -117t107.5 -382v-627h-344v610q0 117 -36.5 158t-133.5 41q-82 0 -163.5 -31.5t-131.5 -70.5v-707h-344v1092l344 20v-131q216 145 389 145z" />
    <glyph glyph-name="o" unicode="o" horiz-adv-x="1368" 
d="M57 545q0 135 48 247t132.5 186t199 114.5t247.5 40.5q174 0 315 -68t226.5 -203t85.5 -315t-84.5 -313t-226 -200t-320.5 -67q-177 0 -317 67t-223 199.5t-83 311.5zM422 551q0 -143 70 -221t190 -78q121 0 192.5 78.5t71.5 222.5q0 143 -70.5 220t-189.5 77
q-118 0 -191 -77t-73 -222z" />
    <glyph glyph-name="p" unicode="p" horiz-adv-x="1409" 
d="M799 1128q110 0 211 -38t182.5 -108.5t130.5 -183t49 -251.5q0 -138 -45 -249.5t-121.5 -181t-171.5 -106.5t-200 -37q-113 0 -203.5 35.5t-169.5 118.5l2 -559h-346v1526h297l18 -97q87 72 172 101.5t195 29.5zM723 258q122 0 203.5 77t81.5 218q0 126 -82.5 192
t-204.5 66q-135 0 -256 -74v-387q125 -92 258 -92z" />
    <glyph glyph-name="q" unicode="q" horiz-adv-x="1409" 
d="M977 997l18 97h297v-1526h-344v559q-79 -83 -169.5 -118.5t-203.5 -35.5q-105 0 -200 37t-171.5 106.5t-121.5 181t-45 249.5q0 139 49 251.5t130.5 183t182.5 108.5t211 38q109 0 193.5 -29.5t173.5 -101.5zM686 258q134 0 260 94v383q-119 76 -258 76
q-122 0 -204.5 -66t-82.5 -192q0 -141 81.5 -218t203.5 -77z" />
    <glyph glyph-name="r" unicode="r" horiz-adv-x="915" 
d="M860 1120q33 0 45 -2l-39 -303q-35 6 -71 6q-103 0 -198 -36.5t-140 -73.5v-711h-344v1094l344 20v-133q86 66 194 102.5t209 36.5z" />
    <glyph glyph-name="s" unicode="s" horiz-adv-x="1081" 
d="M541 -33q-130 0 -270 42t-234 110l147 229q177 -117 365 -117q64 0 102.5 24.5t38.5 66.5q0 48 -41 65.5t-206 50.5q-7 1 -10.5 2t-9.5 2t-11 2q-338 66 -338 324q0 162 126.5 267.5t325.5 105.5q125 0 241.5 -29t201.5 -82l-117 -227q-158 76 -334 76q-53 0 -84 -19
t-31 -53q0 -53 44 -71.5t223 -51.5q186 -31 266 -111.5t80 -220.5q0 -174 -129 -279.5t-346 -105.5z" />
    <glyph glyph-name="t" unicode="t" horiz-adv-x="874" 
d="M719 346l145 -262q-44 -42 -128 -68t-175 -26q-177 0 -264.5 99.5t-87.5 281.5v442h-143l20 260h117v297l334 21v-318h282l-20 -260h-262v-410q0 -88 106 -88q49 0 76 31z" />
    <glyph glyph-name="u" unicode="u" horiz-adv-x="1366" 
d="M510 -35q-205 0 -312.5 117.5t-107.5 382.5v627l344 20v-631q0 -116 36 -157t132 -41q82 0 165 31.5t130 70.5v707l346 20v-1112h-346v111q-218 -146 -387 -146z" />
    <glyph glyph-name="v" unicode="v" horiz-adv-x="1292" 
d="M651 297l244 790h381l-447 -1087h-360l-449 1087h386z" />
    <glyph glyph-name="w" unicode="w" horiz-adv-x="1847" 
d="M711 0h-308l-399 1087h385l182 -643l244 646h232l245 -644l181 641h385l-398 -1087h-305l-225 567z" />
    <glyph glyph-name="x" unicode="x" horiz-adv-x="1193" 
d="M393 0h-405l401 559l-379 531h420l176 -287l178 287h408l-383 -519l405 -571h-419l-201 336z" />
    <glyph glyph-name="y" unicode="y" horiz-adv-x="1255" 
d="M629 537l223 559h412l-719 -1528h-412l297 600l-434 928h420z" />
    <glyph glyph-name="z" unicode="z" horiz-adv-x="1036" 
d="M948 811l-459 -510h480v-301h-903v281l473 512h-461v299h870v-281z" />
    <glyph glyph-name="braceleft" unicode="{" horiz-adv-x="782" 
d="M522 1083v-254q0 -286 -192 -286q68 0 113.5 -47t62 -109t16.5 -133v-217q0 -78 33.5 -117t120.5 -39q33 0 47 2v-245q-72 -11 -111 -11q-179 0 -274.5 104.5t-95.5 276.5v215q0 31 -3 55.5t-14.5 56t-31.5 52.5t-58.5 36t-91.5 15v209q59 0 100.5 20t61.5 53.5
t28.5 67.5t8.5 72v258q0 172 97 273.5t277 101.5q42 0 107 -10v-246q-14 2 -49 2q-85 0 -118.5 -40.5t-33.5 -115.5z" />
    <glyph glyph-name="bar" unicode="|" horiz-adv-x="548" 
d="M414 1430v-1786h-281v1786h281z" />
    <glyph glyph-name="braceright" unicode="}" horiz-adv-x="782" 
d="M260 829v254q0 75 -33 115.5t-118 40.5q-36 0 -50 -2v246q65 10 107 10q180 0 277.5 -101.5t97.5 -273.5v-258q0 -38 8 -72t28 -67.5t61.5 -53.5t100.5 -20v-209q-53 0 -91 -15t-58 -36t-32 -52.5t-14.5 -56t-2.5 -55.5v-215q0 -172 -96 -276.5t-275 -104.5
q-40 0 -111 11v245q14 -2 47 -2q87 0 120.5 39t33.5 117v217q0 52 10 100.5t31.5 92t60.5 70t91 26.5q-193 0 -193 286z" />
    <glyph glyph-name="cent" unicode="&#xa2;" horiz-adv-x="1550" 
d="M817 283q132 0 235.5 72t153.5 194l303 -123q-73 -188 -236.5 -310.5t-379.5 -142.5v-143h-180v145q-282 37 -461.5 241.5t-179.5 485.5q0 279 179.5 483.5t461.5 241.5v170h180v-167q216 -20 379.5 -142.5t236.5 -310.5l-301 -121q-54 120 -156.5 191t-234.5 71
q-176 0 -289.5 -118.5t-113.5 -297.5q0 -181 113.5 -300t289.5 -119z" />
    <glyph glyph-name="sterling" unicode="&#xa3;" horiz-adv-x="1210" 
d="M1042 596h-407q-14 -132 -60 -236h515v-360h-1045v182q22 15 41.5 33t34 33t27.5 38.5t21 37t16.5 42.5t12.5 41t10.5 46t8 44.5t7.5 50t7 48.5h-159v254h174q5 169 45.5 292.5t112.5 196.5t167 107.5t217 34.5q230 0 355 -78l-58 -340q-31 10 -65 15t-52.5 6t-60.5 0
t-53 -1q-100 0 -154 -51.5t-63 -181.5h407z" />
    <glyph glyph-name="currency" unicode="&#xa4;" horiz-adv-x="1228" 
d="M1040 549q0 -99 -41 -176l183 -183l-176 -174l-187 185q-82 -39 -190 -39q-111 0 -203 45l-193 -191l-176 174l199 199q-29 73 -29 156q0 105 41 180l-211 209l176 176l213 -211q79 39 189 39q92 0 168 -31l203 203l176 -176l-189 -189q47 -92 47 -196zM629 414
q63 0 107 36t44 99q0 62 -42 98.5t-103 36.5q-64 0 -106 -37.5t-42 -101.5q0 -62 40 -96.5t102 -34.5z" />
    <glyph glyph-name="yen" unicode="&#xa5;" horiz-adv-x="1292" 
d="M948 1440h355l-369 -701h194v-258h-294v-37h294v-258h-294v-186h-357v186h-301v258h301v37h-301v258h193l-381 701h377l286 -623z" />
    <glyph glyph-name="brokenbar" unicode="&#xa6;" horiz-adv-x="512" 
d="M403 1440v-752h-294v752h294zM109 -242v752h294v-752h-294z" />
    <glyph glyph-name="section" unicode="&#xa7;" horiz-adv-x="1228" 
d="M559 -373q-112 0 -223 29.5t-189 77.5l43 299q10 -4 41.5 -16.5t43 -17t39.5 -14.5t43.5 -14t41.5 -11t46 -9.5t46 -5t52 -2.5q78 0 106.5 12.5t28.5 40.5q0 26 -21.5 48t-58 38.5t-83.5 32t-99 33t-104.5 38.5t-99.5 50.5t-83.5 65.5t-58 88.5t-21.5 115.5
q0 107 82 195.5t197 127.5q-148 93 -148 250q0 170 149 287t376 117q117 0 243 -30t201 -71l-62 -309q-59 39 -164.5 67.5t-183.5 28.5q-71 0 -111 -23t-40 -54q0 -28 35.5 -51.5t92.5 -42.5t125.5 -40t137.5 -50.5t126 -66.5t92.5 -95.5t35.5 -131.5q0 -123 -70 -211
t-196 -127q125 -100 125 -260q0 -95 -42.5 -170t-116.5 -122.5t-169.5 -72t-204.5 -24.5zM569 455q291 -3 291 86q0 82 -166 141q-46 1 -87 -3.5t-78.5 -15.5t-60 -31.5t-22.5 -49.5q0 -72 123 -127z" />
    <glyph glyph-name="copyright" unicode="&#xa9;" horiz-adv-x="1650" 
d="M825 -27q210 0 382 98.5t270 270.5t98 381q0 157 -57.5 296.5t-157 239.5t-239 158t-296.5 58q-158 0 -302.5 -58t-250.5 -157.5t-168.5 -239.5t-62.5 -297q0 -156 62.5 -295.5t168.5 -239t250.5 -157.5t302.5 -58zM825 127q-166 0 -306.5 77t-223 214.5t-82.5 304.5
t82.5 304.5t223 214.5t306.5 77q165 0 297.5 -77t207.5 -213.5t75 -305.5t-75 -305.5t-207.5 -213.5t-297.5 -77zM1061 578l39 -185q-94 -65 -240 -65q-127 0 -230.5 47.5t-165 138.5t-61.5 209q0 124 65 220t173 146t238 50q82 0 134.5 -15.5t104.5 -50.5l-61 -184
q-46 30 -84.5 40.5t-87.5 8.5q-93 0 -162.5 -57.5t-69.5 -149.5q0 -91 67.5 -146t162.5 -57q86 0 178 50z" />
    <glyph glyph-name="guillemetleft" unicode="&#xab;" horiz-adv-x="1089" 
d="M51 553l234 403h290l-253 -399l256 -399h-289zM489 553l234 403h291l-254 -399l256 -399h-289z" />
    <glyph glyph-name="registered" unicode="&#xae;" horiz-adv-x="1325" 
d="M662 1473q168 0 301 -75t207.5 -208.5t74.5 -300.5t-74.5 -300t-207.5 -207.5t-301 -74.5q-166 0 -299 75.5t-208 208.5t-75 298q0 254 164.5 419t417.5 165zM662 438q201 0 317.5 123.5t116.5 327.5t-117 329t-317 125q-199 0 -316 -125.5t-117 -328.5t117.5 -327
t315.5 -124zM969 981q0 -122 -125 -186l119 -193h-222l-79 162l-70 2v-164h-195v584h312q106 0 183 -54.5t77 -150.5zM592 909h49q63 0 92 16t29 56q0 59 -119 59h-51v-131z" />
    <glyph glyph-name="plusminus" unicode="&#xb1;" horiz-adv-x="1300" 
d="M793 1343v-348h409v-282h-409v-363h-297v363h-398v282h398v348h297zM1202 -2h-1104v285h1104v-285z" />
    <glyph glyph-name="paragraph" unicode="&#xb6;" horiz-adv-x="1267" 
d="M541 1440h241v-1440h-186v551h-64q-118 0 -211 34t-151.5 93.5t-88.5 137.5t-30 169q0 58 18 119.5t58 122t96 107.5t138.5 76.5t179.5 29.5zM934 1440h188v-1440h-188v1440z" />
    <glyph glyph-name="periodcentered" unicode="&#xb7;" horiz-adv-x="540" 
d="M90 707q0 87 58 140.5t145 53.5q85 0 143 -53t58 -141q0 -86 -57.5 -139.5t-143.5 -53.5q-81 0 -142 53t-61 140z" />
    <glyph glyph-name="guillemetright" unicode="&#xbb;" horiz-adv-x="1087" 
d="M76 956h291l233 -403l-238 -395h-288l256 399zM514 956h291l233 -403l-237 -395h-289l256 399z" />
    <glyph glyph-name="multiply" unicode="&#xd7;" horiz-adv-x="1255" 
d="M985 1280l199 -199l-377 -360l377 -363l-187 -190l-362 379l-367 -381l-198 196l381 367l-371 354l190 189l353 -369z" />
    <glyph glyph-name="divide" unicode="&#xf7;" horiz-adv-x="1179" 
d="M393 1169q0 80 59 130.5t146 50.5q84 0 141.5 -50t57.5 -131q0 -82 -56.5 -132t-142.5 -50q-84 0 -144.5 49.5t-60.5 132.5zM1116 852v-285h-1055v285h1055zM393 266q0 81 59 130.5t146 49.5q85 0 142 -49t57 -131q0 -81 -56.5 -132.5t-142.5 -51.5q-84 0 -144.5 50
t-60.5 134z" />
    <glyph glyph-name="commaar" unicode="&#x60c;" horiz-adv-x="909" 
d="M174 248q0 88 36.5 173.5t96 151.5t132 114.5t147.5 70.5l139 -129q-123 -35 -206.5 -105t-108.5 -137q101 15 166 -39.5t65 -161.5q0 -98 -64 -158.5t-167 -60.5q-104 0 -170 77.5t-66 203.5z" />
    <glyph glyph-name="tahabovear" unicode="&#x615;" 
d="M461 1864q68 0 116 -61t48 -144q0 -59 -20 -99.5t-59 -61t-83 -28.5t-103 -8h-57v142h47h27q42 0 62.5 0.5t47 4.5t37.5 14.5t11 27.5q0 28 -27 53t-64 25q-49 0 -95.5 -24.5t-104.5 -100.5h57v-142q-165 -3 -260 19v135q56 -9 115 -12l32 53l-14 422h111l12 -285
q78 70 164 70z" />
    <glyph glyph-name="semicolonar" unicode="&#x61b;" horiz-adv-x="856" 
d="M434 629q-95 0 -157 72.5t-62 187.5q0 154 112 288t271 187l137 -119q-120 -33 -195.5 -91.5t-97.5 -121.5q90 -2 149.5 -51t59.5 -145q0 -92 -60 -149.5t-157 -57.5zM211 203q0 100 59.5 163.5t157.5 63.5q100 0 158.5 -62.5t58.5 -164.5q0 -104 -59 -165t-162 -61
q-98 0 -155.5 61.5t-57.5 164.5z" />
    <glyph glyph-name="questionar" unicode="&#x61f;" horiz-adv-x="917" 
d="M670 481h-285q6 53 6 74q0 51 -21 71.5t-91 51.5q-124 60 -179 143.5t-55 225.5q0 118 71 216.5t184.5 152.5t240.5 54q82 0 142 -13.5t140 -47.5v-328q-97 41 -162.5 53.5t-146.5 12.5q-79 0 -130.5 -27.5t-51.5 -79.5q0 -36 21.5 -54t106.5 -62l38 -19
q125 -58 157 -121q25 -81 25 -170q0 -55 -10 -133zM719 180l-178 -180l-179 180l179 178z" />
    <glyph glyph-name="hamzaar" unicode="&#x621;" horiz-adv-x="993" 
d="M401 483q0 -59 61 -84t177 -30q52 0 150.5 -1t142.5 -1l-41 -322q-24 0 -137.5 1.5t-185 0.5t-180 -5.5t-203.5 -17.5t-175 -34l41 321q61 22 156 35q-35 78 -35 150q0 185 116 305.5t285 120.5q184 0 359 -148l-119 -291q-62 40 -133 63t-131 23q-68 0 -108 -23t-40 -63
z" />
    <glyph glyph-name="alefMaddaar" unicode="&#x622;" horiz-adv-x="534" 
d="M-16 1161l-150 51q0 105 52 171.5t147 66.5q52 0 136.5 -25.5t129.5 -25.5q72 0 156 78l28 -148q-31 -55 -84.5 -86t-117.5 -31q-51 0 -121 20.5t-103 20.5q-12 0 -21 -2.5t-20.5 -10.5t-19.5 -28t-12 -51zM397 0h-266l-47 1108l289 16z" />
    <glyph glyph-name="alefHamzaabovear" unicode="&#x623;" horiz-adv-x="534" 
d="M252 1335q110 0 211 8v-135q-36 -9 -237.5 -20t-254.5 -25v137l84 15q-26 47 -26 104q0 93 72 149t167 56q63 0 129 -29v-137q-60 29 -114 29q-52 0 -86.5 -19t-34.5 -47q0 -66 90 -86zM131 0l-47 1096l289 18l24 -1114h-266z" />
    <glyph glyph-name="wawHamzaabovear" unicode="&#x624;" horiz-adv-x="1069" 
d="M782 1450v-135q-34 -9 -235 -20t-254 -27v139l84 14q-27 49 -27 105q0 94 71.5 149.5t168.5 55.5q67 0 127 -31v-135q-58 28 -115 28q-51 0 -86 -18.5t-35 -46.5q0 -65 90 -86q110 0 211 8zM537 975q85 0 164 -46.5t140 -128t98.5 -200.5t39.5 -256q-5 -340 -223.5 -594
t-597.5 -358l-86 389q146 31 290.5 105.5t239.5 185.5q-99 -1 -186 23.5t-154.5 71t-107 121t-39.5 167.5q0 123 55 242.5t154 198.5t213 79zM328 514q0 -62 111 -97t284 -16q-17 107 -84 176.5t-145 69.5q-55 0 -110.5 -40.5t-55.5 -92.5z" />
    <glyph glyph-name="alefHamzabelowar" unicode="&#x625;" horiz-adv-x="534" 
d="M379 1583l18 -1583h-266l-41 1563zM319 -500q110 0 211 8v-135q-37 -11 -237.5 -21.5t-253.5 -25.5v139l84 15q-27 49 -27 104q0 93 72 149t168 56q65 0 129 -31v-135q-60 29 -115 29q-51 0 -86 -19t-35 -47q0 -66 90 -86z" />
    <glyph glyph-name="yehHamzaabovear" unicode="&#x626;" horiz-adv-x="1601" 
d="M569 999v-135q-34 -9 -235 -20t-254 -27v139l84 15q-27 49 -27 104q0 94 71.5 149.5t168.5 55.5q67 0 127 -31v-135q-60 29 -115 29q-51 0 -86 -19t-35 -47q0 -65 90 -86q110 0 211 8zM918 557q48 -22 120 -40t130.5 -28.5t121.5 -33.5t106 -53.5t71 -89.5t28 -142
q0 -123 -42 -226t-114 -173.5t-169.5 -120t-206.5 -72t-226 -22.5q-209 1 -368 82t-243.5 221.5t-84.5 320.5q0 211 96 428l299 -80q-80 -177 -80 -303q0 -302 430 -305q125 -1 229 15t172 51.5t68 85.5q0 52 -220 101q-19 5 -29 7q-49 12 -77 19.5t-68.5 20.5t-63 26.5
t-51 34t-44 45.5t-30.5 58t-21 76t-6 95q0 98 50 213t136 195q98 90 221.5 133.5t240.5 27.5t190 -92l-64 -336q-68 53 -149 74.5t-150 12t-127.5 -33.5t-92.5 -57t-34 -63q0 -29 12 -44t40 -28z" />
    <glyph glyph-name="alefar" unicode="&#x627;" horiz-adv-x="534" 
d="M379 1583l18 -1583h-266l-41 1563z" />
    <glyph glyph-name="behar" unicode="&#x628;" horiz-adv-x="1849" 
d="M1780 510q0 -112 -26 -201.5t-82.5 -160.5t-155 -109.5t-234.5 -38.5h-641q-146 0 -258.5 38.5t-182 108t-104.5 161.5t-35 204q0 176 78 375l297 -86q-49 -121 -49 -230q0 -106 67 -155t212 -49h637q111 0 156.5 36.5t45.5 110.5q0 38 -14.5 99.5t-27.5 101t-46 137.5
l269 63q32 -65 63 -192t31 -213zM1108 -270l-182 -185l-185 185l185 184z" />
    <glyph glyph-name="tehMarbutaar" unicode="&#x629;" horiz-adv-x="1110" 
d="M700 1313l-159 164l-162 -164l-182 186l182 182l162 -159l159 159l185 -182zM473 1075l57 111q240 -162 353 -325.5t114 -383.5q0 -205 -127 -340t-329 -135q-145 0 -248.5 61.5t-154 166.5t-50.5 243q0 164 105.5 327t279.5 275zM551 367q99 0 150 47t51 108
q0 114 -213 279q-28 -20 -56.5 -45t-64 -63t-58 -83.5t-22.5 -87.5q0 -64 52.5 -109.5t160.5 -45.5z" />
    <glyph glyph-name="tehar" unicode="&#x62a;" horiz-adv-x="1849" 
d="M1040 836l-159 163l-162 -163l-182 186l182 182l162 -160l159 160l185 -182zM1417 852l269 63q32 -65 63 -192t31 -213q0 -112 -26 -201.5t-82.5 -160.5t-155 -109.5t-234.5 -38.5h-641q-146 0 -258.5 38.5t-182 108t-104.5 161.5t-35 204q0 176 78 375l297 -86
q-49 -121 -49 -230q0 -106 67 -155t212 -49h637q111 0 156.5 36.5t45.5 110.5q0 38 -14.5 99.5t-27.5 101t-46 137.5z" />
    <glyph glyph-name="thehar" unicode="&#x62b;" horiz-adv-x="1849" 
d="M885 1495l184 -182l-184 -187l-183 187zM1049 831l-160 162l-162 -162l-182 185l182 184l162 -162l160 162l184 -184zM1417 852l269 63q32 -65 63 -192t31 -213q0 -112 -26 -201.5t-82.5 -160.5t-155 -109.5t-234.5 -38.5h-641q-146 0 -258.5 38.5t-182 108t-104.5 161.5
t-35 204q0 176 78 375l297 -86q-49 -121 -49 -230q0 -106 67 -155t212 -49h637q111 0 156.5 36.5t45.5 110.5q0 38 -14.5 99.5t-27.5 101t-46 137.5z" />
    <glyph glyph-name="jeemar" unicode="&#x62c;" horiz-adv-x="1603" 
d="M373 47q0 -85 56 -150t146.5 -101.5t189 -54t198.5 -17.5q146 0 281 36t284 105v-8l-35 -381q-156 -76 -274.5 -108t-253.5 -32q-124 0 -242.5 25.5t-225 79.5t-187 131t-127.5 187t-48 241q0 128 41.5 243t110.5 203t164 163t196.5 126.5t214.5 89.5l-76 33
q-76 32 -137.5 52t-140.5 36t-160 11.5t-160 -29.5l43 309q101 33 195.5 36t198.5 -30t164 -59.5t178 -86.5q19 -9 28 -14q83 -43 133 -67.5t124.5 -54.5t144.5 -44.5t141 -15.5l-47 -274q-97 -7 -192.5 -19.5t-209 -35.5t-212 -53.5t-193.5 -76t-162 -101t-108 -131.5
t-41 -163zM1120 104l-184 -186l-182 186l182 183z" />
    <glyph glyph-name="hahar" unicode="&#x62d;" horiz-adv-x="1603" 
d="M373 47q0 -85 56 -150t146.5 -101.5t189 -54t198.5 -17.5q146 0 281 36t284 105v-8l-35 -381q-156 -76 -274.5 -108t-253.5 -32q-124 0 -242.5 25.5t-225 79.5t-187 131t-127.5 187t-48 241q0 128 41.5 243t110.5 203t164 163t196.5 126.5t214.5 89.5l-76 33
q-76 32 -137.5 52t-140.5 36t-160 11.5t-160 -29.5l43 309q101 33 195.5 36t198.5 -30t164 -59.5t178 -86.5q19 -9 28 -14q83 -43 133 -67.5t124.5 -54.5t144.5 -44.5t141 -15.5l-47 -274q-97 -7 -192.5 -19.5t-209 -35.5t-212 -53.5t-193.5 -76t-162 -101t-108 -131.5
t-41 -163z" />
    <glyph glyph-name="khahar" unicode="&#x62e;" horiz-adv-x="1603" 
d="M774 1739l184 -183l-184 -186l-182 186zM373 47q0 -85 56 -150t146.5 -101.5t189 -54t198.5 -17.5q146 0 281 36t284 105v-8l-35 -381q-156 -76 -274.5 -108t-253.5 -32q-124 0 -242.5 25.5t-225 79.5t-187 131t-127.5 187t-48 241q0 128 41.5 243t110.5 203t164 163
t196.5 126.5t214.5 89.5l-76 33q-76 32 -137.5 52t-140.5 36t-160 11.5t-160 -29.5l43 309q101 33 195.5 36t198.5 -30t164 -59.5t178 -86.5q19 -9 28 -14q83 -43 133 -67.5t124.5 -54.5t144.5 -44.5t141 -15.5l-47 -274q-97 -7 -192.5 -19.5t-209 -35.5t-212 -53.5
t-193.5 -76t-162 -101t-108 -131.5t-41 -163z" />
    <glyph glyph-name="dalar" unicode="&#x62f;" horiz-adv-x="1222" 
d="M39 293l133 231q91 -84 188 -116.5t209 -32.5q134 0 194 19t60 71q0 23 -7.5 47t-26.5 53.5t-38 55t-56 67t-66 72.5t-82.5 88t-91.5 98l188 277q77 -75 134 -138t115.5 -140.5t95.5 -149t60 -154.5t23 -166q0 -236 -127.5 -354.5t-398.5 -118.5q-203 0 -331 76.5
t-175 214.5z" />
    <glyph glyph-name="thalar" unicode="&#x630;" horiz-adv-x="1222" 
d="M731 1571l-184 -187l-182 187l182 182zM39 293l133 231q91 -84 188 -116.5t209 -32.5q134 0 194 19t60 71q0 23 -7.5 47t-26.5 53.5t-38 55t-56 67t-66 72.5t-82.5 88t-91.5 98l188 277q77 -75 134 -138t115.5 -140.5t95.5 -149t60 -154.5t23 -166q0 -236 -127.5 -354.5
t-398.5 -118.5q-203 0 -331 76.5t-175 214.5z" />
    <glyph glyph-name="rehar" unicode="&#x631;" horiz-adv-x="854" 
d="M750 301q0 -152 -36 -282.5t-99.5 -229t-154 -177t-196 -131.5t-229.5 -87l-111 375q42 6 104 29t137 69.5t138.5 105.5t106.5 146.5t43 183.5q0 109 -16 191.5t-66 218.5l297 71q34 -69 58 -206.5t24 -276.5z" />
    <glyph glyph-name="zainar" unicode="&#x632;" horiz-adv-x="854" 
d="M678 1155l-184 -186l-183 186l183 182zM750 301q0 -152 -36 -282.5t-99.5 -229t-154 -177t-196 -131.5t-229.5 -87l-111 375q42 6 104 29t137 69.5t138.5 105.5t106.5 146.5t43 183.5q0 109 -16 191.5t-66 218.5l297 71q34 -69 58 -206.5t24 -276.5z" />
    <glyph glyph-name="seenar" unicode="&#x633;" horiz-adv-x="2603" 
d="M2177 864l272 41q38 -71 60 -194.5t22 -231.5q0 -104 -23.5 -190t-70.5 -151.5t-124.5 -101.5t-180.5 -36q-241 0 -328 203q-41 -104 -116.5 -151t-200.5 -52q-66 3 -129 23q-57 -215 -224.5 -340t-416.5 -125q-159 0 -287 47t-211.5 130.5t-128.5 199t-45 253.5
q0 212 100 435l299 -80q-82 -181 -82 -312q0 -147 99 -228t289 -81q38 0 84 7t99.5 25.5t96.5 45.5t71.5 72t28.5 100q0 108 -31 254t-83 283l258 45q58 -150 86 -297v2q7 -46 55.5 -69t102.5 -23q46 0 76 8t48.5 20.5t30 40t17.5 55t14 75.5q0 3 0.5 5t1 4.5t0.5 4.5
l20 137l246 20v-157q0 -113 40 -162t118 -51q127 0 127 147q0 120 -80 350z" />
    <glyph glyph-name="sheenar" unicode="&#x634;" horiz-adv-x="2603" 
d="M1843 1528l185 -182l-185 -187l-182 187zM2007 864l-160 162l-161 -162l-183 185l183 184l161 -162l160 162l184 -184zM2177 864l272 41q38 -71 60 -194.5t22 -231.5q0 -104 -23.5 -190t-70.5 -151.5t-124.5 -101.5t-180.5 -36q-241 0 -328 203q-41 -104 -116.5 -151
t-200.5 -52q-66 3 -129 23q-57 -215 -224.5 -340t-416.5 -125q-159 0 -287 47t-211.5 130.5t-128.5 199t-45 253.5q0 212 100 435l299 -80q-82 -181 -82 -312q0 -147 99 -228t289 -81q38 0 84 7t99.5 25.5t96.5 45.5t71.5 72t28.5 100q0 108 -31 254t-83 283l258 45
q58 -150 86 -297v2q7 -46 55.5 -69t102.5 -23q46 0 76 8t48.5 20.5t30 40t17.5 55t14 75.5q0 3 0.5 5t1 4.5t0.5 4.5l20 137l246 20v-157q0 -113 40 -162t118 -51q127 0 127 147q0 120 -80 350z" />
    <glyph glyph-name="sadar" unicode="&#x635;" horiz-adv-x="2779" 
d="M2216 961q88 0 169.5 -38.5t141 -104t95.5 -157t36 -192.5q0 -105 -35 -187t-94 -134t-143 -86t-175.5 -48t-197.5 -14h-403q-156 6 -242 76q-45 -245 -214.5 -382.5t-438.5 -137.5q-159 0 -286.5 47t-211 131t-128 199.5t-44.5 252.5q0 205 98 426l299 -80
q-80 -174 -80 -305q0 -146 99 -226.5t287 -80.5q158 0 258 76t100 211q0 53 -9 113.5t-16.5 95.5t-32 129t-34.5 133l284 41q40 -87 60 -195q16 -54 42 -86.5t73 -50.5q81 136 168 240.5t163 166.5t154 101t138.5 52.5t119.5 13.5zM1993 367q79 0 137 2.5t114.5 10t92 20.5
t57 35t21.5 52q0 51 -69 88t-151 37q-136 0 -243.5 -61.5t-220.5 -183.5h262z" />
    <glyph glyph-name="dadar" unicode="&#x636;" horiz-adv-x="2779" 
d="M2150 1540l185 -182l-185 -187l-182 187zM2216 961q88 0 169.5 -38.5t141 -104t95.5 -157t36 -192.5q0 -105 -35 -187t-94 -134t-143 -86t-175.5 -48t-197.5 -14h-403q-156 6 -242 76q-45 -245 -214.5 -382.5t-438.5 -137.5q-159 0 -286.5 47t-211 131t-128 199.5
t-44.5 252.5q0 205 98 426l299 -80q-80 -174 -80 -305q0 -146 99 -226.5t287 -80.5q158 0 258 76t100 211q0 53 -9 113.5t-16.5 95.5t-32 129t-34.5 133l284 41q40 -87 60 -195q16 -54 42 -86.5t73 -50.5q81 136 168 240.5t163 166.5t154 101t138.5 52.5t119.5 13.5z
M1993 367q79 0 137 2.5t114.5 10t92 20.5t57 35t21.5 52q0 51 -69 88t-151 37q-136 0 -243.5 -61.5t-220.5 -183.5h262z" />
    <glyph glyph-name="tahar" unicode="&#x637;" horiz-adv-x="1628" 
d="M1098 961q88 0 169.5 -38.5t141 -104t95.5 -157t36 -192.5q0 -105 -35 -187t-94 -134t-143 -86t-175 -48t-198 -14h-82q-487 -10 -696 45l-70 371q107 -31 299 -43q56 94 115 176l-35 1012l291 20l16 -752q180 132 365 132zM874 367q79 0 137 2.5t114.5 10t92 20.5t57 35
t21.5 52q0 51 -68.5 88t-150.5 37q-136 0 -244 -62t-221 -183h262z" />
    <glyph glyph-name="zahar" unicode="&#x638;" horiz-adv-x="1628" 
d="M1098 961q88 0 169.5 -38.5t141 -104t95.5 -157t36 -192.5q0 -105 -35 -187t-94 -134t-143 -86t-175 -48t-198 -14h-82q-487 -10 -696 45l-70 371q107 -31 299 -43q56 94 115 176l-35 1012l291 20l16 -752q180 132 365 132zM1145 1556l184 -182l-184 -186l-182 186z
M874 367q79 0 137 2.5t114.5 10t92 20.5t57 35t21.5 52q0 51 -68.5 88t-150.5 37q-136 0 -244 -62t-221 -183h262z" />
    <glyph glyph-name="ainar" unicode="&#x639;" horiz-adv-x="1490" 
d="M369 70q0 -55 36 -111.5t100 -106.5t162 -83.5t213 -44.5t262.5 13.5t301.5 86.5l-29 -395q-233 -91 -465 -91q-171 0 -320 49t-259 137.5t-173 218.5t-63 284q0 137 83.5 300.5t227.5 270.5q-76 39 -129 109.5t-73.5 136t-20.5 121.5q0 84 31.5 160t85 133t123 99.5
t147.5 64.5t156 22q60 0 137.5 -10.5t116.5 -30.5l-66 -336q-68 14 -151 14q-119 0 -198 -38.5t-79 -110.5q0 -39 37 -66.5t87.5 -39t107.5 -11.5q171 -3 434 94l-49 -301q-423 -121 -598.5 -239.5t-175.5 -298.5z" />
    <glyph glyph-name="ghainar" unicode="&#x63a;" horiz-adv-x="1490" 
d="M670 2046l184 -182l-184 -187l-183 187zM369 70q0 -55 36 -111.5t100 -106.5t162 -83.5t213 -44.5t262.5 13.5t301.5 86.5l-29 -395q-233 -91 -465 -91q-171 0 -320 49t-259 137.5t-173 218.5t-63 284q0 137 83.5 300.5t227.5 270.5q-76 39 -129 109.5t-73.5 136
t-20.5 121.5q0 84 31.5 160t85 133t123 99.5t147.5 64.5t156 22q60 0 137.5 -10.5t116.5 -30.5l-66 -336q-68 14 -151 14q-119 0 -198 -38.5t-79 -110.5q0 -39 37 -66.5t87.5 -39t107.5 -11.5q171 -3 434 94l-49 -301q-423 -121 -598.5 -239.5t-175.5 -298.5z" />
    <glyph glyph-name="kashidaar" unicode="&#x640;" horiz-adv-x="837" 
d="M-106 20v324l106 23h838v-367h-838z" />
    <glyph glyph-name="fehar" unicode="&#x641;" horiz-adv-x="1908" 
d="M1606 1708l-185 -186l-182 186l182 182zM1223 0h-586q-288 0 -432 140.5t-144 373.5q0 170 80 375l295 -88q-49 -127 -49 -230q0 -105 68 -154.5t209 -49.5l548 -2q245 -3 340 118q-151 -19 -280.5 19t-208 130.5t-78.5 219.5q0 67 19 137.5t56 135.5t87.5 116.5t119 82
t144.5 30.5q134 0 232 -89.5t147 -242t49 -346.5q0 -132 -35 -242.5t-94 -187t-138.5 -131.5t-167 -82.5t-181.5 -32.5zM1593 805q-15 104 -82 173t-147 69q-56 0 -111 -37t-55 -88q0 -56 63 -87.5t150.5 -34.5t181.5 5z" />
    <glyph glyph-name="qafar" unicode="&#x642;" horiz-adv-x="1564" 
d="M1260 1223l-160 163l-162 -163l-182 186l182 182l162 -159l160 159l184 -182zM1096 991q134 0 233 -96t147.5 -253.5t47.5 -352.5q-2 -343 -192 -542t-531 -196q-156 1 -285 48t-215.5 130.5t-134 199t-47.5 251.5q3 211 100 424l299 -80q-79 -168 -82 -301
q0 -145 105.5 -227.5t292.5 -83.5q295 -3 413 184q-153 -20 -284.5 18.5t-211.5 132t-79 222.5q0 85 30.5 176t84 169t135.5 128t174 49zM883 539q-1 -54 62.5 -86.5t152 -37t182.5 2.5q-17 105 -84 175.5t-145 70.5q-55 2 -111.5 -36t-56.5 -89z" />
    <glyph glyph-name="kafar" unicode="&#x643;" horiz-adv-x="1765" 
d="M1163 0h-512q-279 0 -446.5 165t-167.5 431q0 210 108 446l297 -79q-84 -172 -84 -304q0 -139 87.5 -215.5t236.5 -76.5h473q89 0 148.5 44.5t56.5 114.5l-41 1037l291 20l20 -1046q3 -244 -122.5 -390.5t-344.5 -146.5zM842 610h-203v201l152 -2q56 -1 88.5 2.5
t53.5 17.5t21 41q0 13 -15.5 24.5t-48 20.5t-61 15.5t-77 15.5t-74.5 15l14 221q143 101 371 174l-4 -195q-110 -21 -238 -67q46 -5 91.5 -19t95 -40.5t80 -75t30.5 -111.5q0 -46 -14.5 -86t-45 -75.5t-86 -56t-130.5 -20.5z" />
    <glyph glyph-name="lamar" unicode="&#x644;" horiz-adv-x="1472" 
d="M139 612l299 -82q-80 -174 -80 -305q0 -305 357 -305q153 0 250.5 86.5t101.5 251.5l-41 1305l291 20l20 -1286q2 -156 -35.5 -288.5t-112 -234.5t-196 -160t-278.5 -58q-159 0 -287 47t-212.5 131t-129.5 199.5t-45 252.5q0 205 98 426z" />
    <glyph glyph-name="meemar" unicode="&#x645;" horiz-adv-x="1388" 
d="M879 897q119 0 209 -71.5t134 -184t44 -246.5q0 -172 -112.5 -276t-279.5 -92q-33 2 -77 9t-80.5 14t-78.5 13t-74.5 7.5t-63.5 -4.5t-51.5 -20t-33 -41.5t-12.5 -67.5q4 -173 35 -482l-301 -43q-21 395 -24 533q-10 470 301 489q28 95 68 174.5t96 146t133.5 104.5
t167.5 38zM893 377q70 0 110.5 22.5t40.5 61.5q0 52 -37.5 90.5t-111.5 38.5q-77 0 -136.5 -58t-74.5 -129q134 -26 209 -26z" />
    <glyph glyph-name="noonar" unicode="&#x646;" horiz-adv-x="1466" 
d="M891 940l-184 -186l-183 186l183 182zM705 -444q-158 0 -284.5 47t-209 131t-126.5 199.5t-44 252.5q0 205 98 426l297 -82q-78 -173 -78 -301q0 -146 95.5 -227t269.5 -80q188 2 292.5 75.5t104.5 211.5q0 71 -14.5 161t-30 154t-49.5 197l274 72q47 -166 71 -291
t24 -250q0 -326 -177.5 -511t-512.5 -185z" />
    <glyph glyph-name="hehar" unicode="&#x647;" horiz-adv-x="1110" 
d="M541 2q-145 0 -248.5 61.5t-154 166.5t-50.5 243q0 164 105.5 327t279.5 275l57 111q240 -162 353 -325.5t114 -383.5q0 -205 -127 -340t-329 -135zM551 367q99 0 150 47t51 108q0 114 -213 279q-28 -20 -56.5 -45t-64 -63t-58 -83.5t-22.5 -87.5q0 -64 52.5 -109.5
t160.5 -45.5z" />
    <glyph glyph-name="wawar" unicode="&#x648;" horiz-adv-x="1069" 
d="M537 975q85 0 164 -46.5t140 -128t98.5 -200.5t39.5 -256q-5 -340 -223.5 -594t-597.5 -358l-86 389q148 33 292 107t238 186q-133 -2 -241.5 38.5t-177 129.5t-68.5 213q0 123 55 242.5t154 198.5t213 79zM328 514q0 -62 110 -97t283 -16q-15 106 -81.5 176t-145.5 70
q-55 0 -110.5 -40.5t-55.5 -92.5z" />
    <glyph glyph-name="alefMaksuraar" unicode="&#x649;" horiz-adv-x="1601" 
d="M737 -444q-209 1 -368 82t-243.5 221.5t-84.5 320.5q0 211 96 428l299 -80q-80 -177 -80 -303q0 -302 430 -305q125 -1 229 15t172 51.5t68 85.5q0 52 -220 101q-19 5 -29 7q-49 12 -77 19.5t-68.5 20.5t-63 26.5t-51 34t-44 45.5t-30.5 58t-21 76t-6 95q0 98 50 213
t136 195q98 90 221.5 133.5t240.5 27.5t190 -92l-64 -336q-68 53 -149 74.5t-150 12t-127.5 -33.5t-92.5 -57t-34 -63q0 -29 12 -44t40 -28q48 -22 120 -40t130.5 -28.5t121.5 -33.5t106 -53.5t71 -89.5t28 -142q0 -123 -42 -226t-114 -173.5t-169.5 -120t-206.5 -72
t-226 -22.5z" />
    <glyph glyph-name="yehar" unicode="&#x64a;" horiz-adv-x="1601" 
d="M918 557q48 -22 120 -40t130.5 -28.5t121.5 -33.5t106 -53.5t71 -89.5t28 -142q0 -123 -42 -226t-114 -173.5t-169.5 -120t-206.5 -72t-226 -22.5q-209 1 -368 82t-243.5 221.5t-84.5 320.5q0 211 96 428l299 -80q-80 -177 -80 -303q0 -302 430 -305q125 -1 229 15
t172 51.5t68 85.5q0 52 -220 101q-19 5 -29 7q-49 12 -77 19.5t-68.5 20.5t-63 26.5t-51 34t-44 45.5t-30.5 58t-21 76t-6 95q0 98 50 213t136 195q98 90 221.5 133.5t240.5 27.5t190 -92l-64 -336q-68 53 -149 74.5t-150 12t-127.5 -33.5t-92.5 -57t-34 -63q0 -29 12 -44
t40 -28zM569 -604l162 -160l160 160l184 -182l-184 -187l-160 164l-162 -164l-182 187z" />
    <glyph glyph-name="fathatanar" unicode="&#x64b;" 
d="M-31 1829l525 143v-178l-525 -141v176zM-31 1544l525 142v-179l-525 -141v178z" />
    <glyph glyph-name="dammatanar" unicode="&#x64c;" 
d="M426 1831q84 0 144.5 -69.5t60.5 -190.5q0 -107 -73 -198.5t-183 -141.5t-225 -51l-109 104q10 68 10 123q0 102 -147 16l14 142q64 54 124 62t98 -34t38 -125q0 -57 -6 -122q67 6 130.5 31.5t109.5 64.5q-74 5 -127.5 52t-53.5 126q0 86 57 148.5t138 62.5zM344 1640
q0 -35 50 -64.5t112 -19.5q7 55 -23 96.5t-69 41.5q-24 0 -47 -16t-23 -38z" />
    <glyph glyph-name="kasratanar" unicode="&#x64d;" 
d="M-45 -66l526 144v-178l-526 -142v176zM-45 -350l524 141v-176l-524 -143v178z" />
    <glyph glyph-name="fathaar" unicode="&#x64e;" 
d="M-76 1468l527 144v-178l-527 -142v176z" />
    <glyph glyph-name="dammaar" unicode="&#x64f;" 
d="M193 1831q84 0 145 -69.5t61 -190.5q0 -110 -68.5 -192.5t-175.5 -107.5t-239 15l14 121q184 -33 265 35q-80 0 -138.5 47t-58.5 131q0 85 58 148t137 63zM113 1640q0 -35 48.5 -64.5t110.5 -19.5q7 54 -22.5 96t-69.5 42q-23 0 -45 -16t-22 -38z" />
    <glyph glyph-name="kasraar" unicode="&#x650;" 
d="M-20 -156l526 142v-176l-526 -144v178z" />
    <glyph glyph-name="shaddaar" unicode="&#x651;" 
d="M-10 1233l129 43q-81 -197 26 -197q25 0 38.5 22t13.5 60v127l122 41v-147q0 -35 18 -55.5t50 -20.5q55 0 55 96q0 12 -1 23t-3.5 22.5t-4 18.5t-6 19.5t-6.5 17.5t-7.5 19.5t-7.5 18.5l114 35q45 -99 45 -200q0 -108 -49.5 -175t-134.5 -67q-69 0 -111 61
q-24 -41 -60.5 -65.5t-78.5 -24.5q-105 0 -145 96.5t4 231.5z" />
    <glyph glyph-name="sukunar" unicode="&#x652;" 
d="M203 979q-100 0 -163.5 57.5t-64.5 159.5q-2 111 65 195t163 84q92 0 155.5 -85.5t63.5 -195.5q0 -101 -60.5 -158t-158.5 -57zM203 1114q92 0 92 92q0 62 -26.5 97.5t-65.5 35.5q-42 0 -72.5 -36.5t-30.5 -98.5q0 -40 28 -65t75 -25z" />
    <glyph glyph-name="maddaar" unicode="&#x653;" 
d="M139 1325l-149 53q0 105 51 171.5t147 66.5q52 0 137 -25.5t130 -25.5q74 0 155 75l29 -145q-30 -55 -85.5 -86t-117.5 -31q-51 0 -120.5 20.5t-102.5 20.5q-12 0 -21 -2.5t-21 -10.5t-20 -28.5t-12 -52.5z" />
    <glyph glyph-name="hamzaabovear" unicode="&#x654;" 
d="M281 1665q110 0 211 8v-135q-34 -9 -235.5 -20t-254.5 -27v139l84 15q-27 43 -27 104q0 94 71.5 149.5t168.5 55.5q67 0 127 -31v-135q-60 29 -115 29q-51 0 -86 -19t-35 -47q0 -65 91 -86z" />
    <glyph glyph-name="hamzabelowar" unicode="&#x655;" 
d="M219 -473q110 0 211 8v-135q-37 -11 -237.5 -21.5t-253.5 -25.5v139l86 14q-29 47 -29 105q0 93 72 149t168 56q65 0 129 -31v-135q-58 28 -115 28q-51 0 -86 -18.5t-35 -46.5q0 -66 90 -86z" />
    <glyph glyph-name="alefbelowar" unicode="&#x656;" 
d="M-195 -119l527 144v-179l-527 -141v176zM-469 -479l526 143v-178l-526 -141v176z" />
    <glyph glyph-name="dammainvertedar" unicode="&#x657;" 
d="M-430 1733l526 141v-178l-526 -142v179zM-59 1503l526 144v-179l-526 -141v176z" />
    <glyph glyph-name="noonghunnaabovear" unicode="&#x658;" 
d="M1331 1595q0 -130 -70 -202t-198 -72q-123 0 -193.5 64.5t-70.5 177.5q0 94 37 180l104 -2q-33 -71 -33 -148q0 -64 41 -97.5t119 -33.5q73 0 114.5 30.5t41.5 86.5q0 88 -37 209l108 27q37 -121 37 -220z" />
    <glyph glyph-name="fathatwodotsar" unicode="&#x65e;" 
d="M166 1831q85 0 146 -69.5t61 -190.5q0 -81 -44.5 -155t-113.5 -125.5t-142 -86t-139 -47.5l15 141q150 48 229 142q-82 -3 -145.5 45.5t-63.5 134.5q0 85 58 148t139 63zM621 1831q85 0 145.5 -69.5t60.5 -190.5q0 -81 -44.5 -155t-113 -125.5t-141.5 -86t-139 -47.5
l14 141q151 48 230 142q-82 -3 -144.5 45.5t-62.5 134.5t57 148.5t138 62.5zM84 1640q0 -38 51.5 -67.5t112.5 -18.5q7 56 -23.5 99t-70.5 43q-24 0 -47 -16.5t-23 -39.5zM539 1640q0 -38 51 -67.5t112 -18.5q7 56 -23.5 99t-70.5 43q-24 0 -46.5 -16.5t-22.5 -39.5z" />
    <glyph glyph-name="zeroar" unicode="&#x660;" horiz-adv-x="927" 
d="M766 567l-301 -305l-303 305l303 303z" />
    <glyph glyph-name="onear" unicode="&#x661;" horiz-adv-x="778" 
d="M213 1376l307 43q38 -302 59 -487t40.5 -451.5t19.5 -480.5h-307q0 201 -18 445t-35 391.5t-55 450.5q-7 59 -11 89z" />
    <glyph glyph-name="twoar" unicode="&#x662;" horiz-adv-x="1114" 
d="M786 1372h283q18 -102 18 -196q0 -103 -23 -188t-69.5 -150t-124 -101.5t-180.5 -36.5q-102 0 -172 39q41 -410 41 -739h-307q0 214 -20.5 476.5t-39 415t-61.5 484.5l309 43l6 -47v-6l19 -147q37 -148 180 -152q67 0 117.5 36.5t50.5 104.5q0 78 -27 164z" />
    <glyph glyph-name="threear" unicode="&#x663;" horiz-adv-x="1411" 
d="M1090 1370h272q21 -116 23 -224t-18.5 -203t-61 -165.5t-108.5 -111.5t-157 -41q-126 0 -206 98q-98 -105 -224 -105q-44 0 -82 15q31 -370 31 -633h-307q0 201 -18 445t-35 391.5t-55 450.5q-7 59 -11 89l307 43l25 -200l2 -11q16 -123 34.5 -162t71.5 -40
q50 0 81.5 38.5t31.5 104.5v227h250l2 -186q1 -110 18.5 -143t69.5 -33q40 0 61.5 28t24.5 82t-2.5 110.5t-19.5 135.5z" />
    <glyph glyph-name="fourar" unicode="&#x664;" horiz-adv-x="1058" 
d="M991 354l27 -323q-74 -26 -183.5 -44t-222.5 -18q-151 0 -259.5 28.5t-171.5 83t-91.5 126t-28.5 164.5q0 116 78 214t211 138q-22 7 -45.5 17t-60 33.5t-64 53.5t-47.5 77.5t-20 103.5q0 77 25 141.5t66.5 110t100 80.5t122 56t137.5 34t139.5 17.5t134.5 4.5h30v-319
q-126 -3 -256 -17q-120 -20 -167.5 -47.5t-47.5 -91.5q0 -103 256 -103h170v-303h-198q-114 0 -189.5 -35.5t-75.5 -99.5q0 -31 8 -50t35.5 -38t89.5 -28t160 -9q145 0 338 43z" />
    <glyph glyph-name="fivear" unicode="&#x665;" horiz-adv-x="1124" 
d="M559 -47q-147 0 -255.5 46.5t-170 129t-90.5 183.5t-29 223q0 304 155.5 496t393.5 192q156 0 280.5 -86t195.5 -243.5t71 -358.5q0 -97 -17.5 -180.5t-58.5 -158.5t-103.5 -128t-157 -84t-214.5 -31zM563 328q260 0 260 225q0 71 -26.5 130t-66.5 94t-84.5 54t-84.5 19
q-39 0 -83 -18t-84.5 -51.5t-66.5 -90t-26 -125.5q0 -237 262 -237z" />
    <glyph glyph-name="sixar" unicode="&#x666;" horiz-adv-x="1038" 
d="M950 0h-309q-67 480 -61 1024q-164 -25 -275 -25q-142 0 -289 25v350q158 -14 394 -14q235 0 473 14q0 -752 67 -1374z" />
    <glyph glyph-name="sevenar" unicode="&#x667;" horiz-adv-x="1224" 
d="M782 2h-336q-193 679 -458 1374h327q181 -495 308 -1007q140 543 297 1007h317q-209 -580 -455 -1374z" />
    <glyph glyph-name="eightar" unicode="&#x668;" horiz-adv-x="1253" 
d="M440 1378h336q201 -694 459 -1376h-328q-170 470 -305 1008q-146 -551 -297 -1008h-317q229 636 452 1376z" />
    <glyph glyph-name="ninear" unicode="&#x669;" horiz-adv-x="1128" 
d="M942 817l53 -817h-274l-37 496q-85 -15 -164.5 -15t-151 15t-130.5 48.5t-102 82t-67 117.5t-24 153q0 102 36 198.5t94.5 166.5t137.5 112.5t162 42.5q205 0 325.5 -148t141.5 -452zM262 913q0 -49 63.5 -78.5t150.5 -33.5t177 4q-11 104 -75 181t-150 77
q-61 0 -113.5 -48.5t-52.5 -101.5zM786 834l-26 -9q13 3 26 9z" />
    <glyph glyph-name="percentar" unicode="&#x66a;" horiz-adv-x="1302" 
d="M74 0l794 1374h318l-795 -1374h-317zM313 1036q-65 0 -109 45t-44 111q0 63 44.5 108.5t108.5 45.5q63 0 108.5 -45.5t45.5 -108.5q0 -66 -45.5 -111t-108.5 -45zM942 33q-65 0 -110.5 46.5t-45.5 113.5q0 64 45.5 109.5t110.5 45.5q66 0 113 -45.5t47 -109.5
q0 -67 -47 -113.5t-113 -46.5z" />
    <glyph glyph-name="decimalseparatorar" unicode="&#x66b;" horiz-adv-x="585" 
d="M408 76q0 -88 -36.5 -173.5t-95.5 -151.5t-131.5 -114.5t-146.5 -70.5l-141 129q123 35 206.5 105t108.5 137q-102 -15 -166.5 39t-64.5 161q0 98 64 158.5t167 60.5q104 0 170 -77t66 -203z" />
    <glyph glyph-name="thousandseparatorar" unicode="&#x66c;" horiz-adv-x="899" 
d="M174 248q0 88 36.5 173.5t96 151.5t132 114.5t147.5 70.5l139 -129q-123 -35 -206.5 -105t-108.5 -137q101 15 166 -39.5t65 -161.5q0 -98 -64 -158.5t-167 -60.5q-104 0 -170 77.5t-66 203.5z" />
    <glyph glyph-name="asteriskar" unicode="&#x66d;" horiz-adv-x="798" 
d="M399 715l-153 -185l-135 66l135 225l-217 84l30 148l246 -54l19 242h151l21 -242l245 54l29 -148l-217 -84l135 -225l-133 -66z" />
    <glyph glyph-name="behDotlessar" unicode="&#x66e;" horiz-adv-x="1849" 
d="M1780 510q0 -112 -26 -201.5t-82.5 -160.5t-155 -109.5t-234.5 -38.5h-641q-146 0 -258.5 38.5t-182 108t-104.5 161.5t-35 204q0 176 78 375l297 -86q-49 -121 -49 -230q0 -106 67 -155t212 -49h637q111 0 156.5 36.5t45.5 110.5q0 38 -14.5 99.5t-27.5 101t-46 137.5
l269 63q32 -65 63 -192t31 -213z" />
    <glyph glyph-name="qafDotlessar" unicode="&#x66f;" horiz-adv-x="1564" 
d="M1096 991q134 0 233 -96t147.5 -253.5t47.5 -352.5q-2 -343 -192 -542t-531 -196q-156 1 -285 48t-215.5 130.5t-134 199t-47.5 251.5q3 211 100 424l299 -80q-79 -168 -82 -301q0 -145 105.5 -227.5t292.5 -83.5q295 -3 413 184q-153 -20 -284.5 18.5t-211.5 132
t-79 222.5q0 85 30.5 176t84 169t135.5 128t174 49zM883 539q-1 -54 62.5 -86.5t152 -37t182.5 2.5q-17 105 -84 175.5t-145 70.5q-55 2 -111.5 -36t-56.5 -89z" />
    <glyph glyph-name="alefabovear" unicode="&#x670;" 
d="M-76 1778l164 55q41 -194 52.5 -342t0.5 -324l-116 -20q0 185 -21.5 331t-79.5 300z" />
    <glyph glyph-name="alefWaslaar" unicode="&#x671;" horiz-adv-x="665" 
d="M524 2044q94 0 154.5 -71.5t60.5 -180.5q0 -72 -46 -139.5t-127 -109.5t-173 -38q-43 3 -107 22t-98 19q-12 0 -21 -2.5t-20.5 -10.5t-19 -28.5t-10.5 -52.5l-152 53q0 104 52 171t145 67q78 143 173 222t189 79zM504 1870q-101 0 -209 -152q93 -26 131 -26q45 3 98 28
l37 25q25 25 25 47q0 30 -25 54t-57 24zM262 0l-47 1307l289 20l24 -1327h-266z" />
    <glyph glyph-name="ttehar" unicode="&#x679;" horiz-adv-x="1849" 
d="M858 1047v-142q-166 -3 -258 19v135q56 -9 115 -12q22 41 30 51l-14 424h113l12 -285q75 70 162 70q68 0 117 -61t49 -144q0 -59 -20.5 -99.5t-59 -61t-83 -28.5t-103.5 -8h-58v142h47h27q22 -1 42 -0.5t38 1.5t32.5 4t25 8t16.5 13.5t6 20.5q0 28 -27.5 52.5t-65.5 24.5
q-50 0 -96 -24t-104 -100h57zM1417 852l269 63q32 -65 63 -192t31 -213q0 -112 -26 -201.5t-82.5 -160.5t-155 -109.5t-234.5 -38.5h-641q-146 0 -258.5 38.5t-182 108t-104.5 161.5t-35 204q0 176 78 375l297 -86q-49 -121 -49 -230q0 -106 67 -155t212 -49h637
q111 0 156.5 36.5t45.5 110.5q0 38 -14.5 99.5t-27.5 101t-46 137.5z" />
    <glyph glyph-name="pehar" unicode="&#x67e;" horiz-adv-x="1849" 
d="M1417 852l269 63q32 -65 63 -192t31 -213q0 -112 -26 -201.5t-82.5 -160.5t-155 -109.5t-234.5 -38.5h-641q-146 0 -258.5 38.5t-182 108t-104.5 161.5t-35 204q0 176 78 375l297 -86q-49 -121 -49 -230q0 -106 67 -155t212 -49h637q111 0 156.5 36.5t45.5 110.5
q0 38 -14.5 99.5t-27.5 101t-46 137.5zM723 -94l160 -162l161 162l183 -185l-183 -184l-161 162l-160 -162l-184 184zM879 -758l-183 183l183 186l184 -186z" />
    <glyph glyph-name="tchehar" unicode="&#x686;" horiz-adv-x="1603" 
d="M1014 -174l-101 -100q16 -2 50 -2q146 0 281 36t284 105v-8l-35 -381q-156 -76 -274.5 -108t-253.5 -32q-124 0 -242.5 25.5t-225 79.5t-187 131t-127.5 187t-48 241q0 128 41.5 243t110.5 203t164 163t196.5 126.5t214.5 89.5l-76 33q-76 32 -137.5 52t-140.5 36
t-160 11.5t-160 -29.5l43 309q101 33 195.5 36t198.5 -30t164 -59.5t178 -86.5q19 -9 28 -14q83 -43 133 -67.5t124.5 -54.5t144.5 -44.5t141 -15.5l-47 -274q-97 -7 -192.5 -19.5t-209 -35.5t-212 -53.5t-193.5 -76t-162 -101t-108 -131.5t-41 -163q0 -60 29.5 -111
t77.5 -86.5t113.5 -61.5t133.5 -40t141 -20l-98 98l123 123zM666 23l122 122l107 -108l106 108l123 -122l-123 -121l-106 106l-107 -106z" />
    <glyph glyph-name="ddalar" unicode="&#x688;" horiz-adv-x="1222" 
d="M528 1548v-141q-169 -3 -260 18v136q66 -10 115 -13l33 54l-15 421h111l12 -284q77 69 164 69q68 0 116 -60.5t48 -143.5q0 -59 -20 -99.5t-58.5 -61t-82.5 -28.5t-103 -8h-58v141h48h27q22 -1 42 -0.5t37.5 1.5t31.5 4t24.5 8t16 13.5t5.5 20.5q0 28 -26.5 53t-63.5 25
q-49 0 -96 -24.5t-105 -100.5h57zM455 946l188 277q77 -75 134 -138t115.5 -140.5t95.5 -149t60 -154.5t23 -166q0 -236 -127.5 -354.5t-398.5 -118.5q-203 0 -331 76.5t-175 214.5l133 231q91 -84 188 -116.5t209 -32.5q134 0 194 19t60 71q0 23 -7.5 47t-26.5 53.5t-38 55
t-56 67t-66 72.5t-82.5 88t-91.5 98z" />
    <glyph glyph-name="rrehar" unicode="&#x691;" horiz-adv-x="854" 
d="M633 1513q68 0 117 -61t49 -143q0 -59 -20.5 -99.5t-59.5 -61t-83.5 -28.5t-103.5 -8h-57v141h47h27q42 0 62.5 0.5t47 4.5t37.5 14.5t11 27.5q0 28 -27 53t-64 25q-49 0 -95.5 -24.5t-104.5 -100.5h57v-141q-169 -3 -260 18v136q66 -10 115 -13l32 54l-14 422h111
l12 -285q77 69 164 69zM371 713l297 71q34 -69 58 -206.5t24 -276.5q0 -152 -36 -282.5t-99.5 -229t-154 -177t-196 -131.5t-229.5 -87l-111 375q42 6 104 29t137 69.5t138.5 105.5t106.5 146.5t43 183.5q0 109 -16 191.5t-66 218.5z" />
    <glyph glyph-name="jehar" unicode="&#x698;" horiz-adv-x="854" 
d="M492 1653l184 -183l-184 -186l-183 186zM655 989l-159 162l-162 -162l-182 185l182 184l162 -162l159 162l185 -184zM371 713l297 71q34 -69 58 -206.5t24 -276.5q0 -152 -36 -282.5t-99.5 -229t-154 -177t-196 -131.5t-229.5 -87l-111 375q42 6 104 29t137 69.5
t138.5 105.5t106.5 146.5t43 183.5q0 109 -16 191.5t-66 218.5z" />
    <glyph glyph-name="ainThreedotsar" unicode="&#x6a0;" horiz-adv-x="1490" 
d="M668 2359l184 -182l-184 -186l-183 186zM831 1696l-159 162l-162 -162l-182 184l182 184l162 -161l159 161l185 -184zM369 70q0 -55 36 -111.5t100 -106.5t162 -83.5t213 -44.5t262.5 13.5t301.5 86.5l-29 -395q-233 -91 -465 -91q-171 0 -320 49t-259 137.5t-173 218.5
t-63 284q0 137 83.5 300.5t227.5 270.5q-76 39 -129 109.5t-73.5 136t-20.5 121.5q0 84 31.5 160t85 133t123 99.5t147.5 64.5t156 22q60 0 137.5 -10.5t116.5 -30.5l-66 -336q-68 14 -151 14q-119 0 -198 -38.5t-79 -110.5q0 -39 37 -66.5t87.5 -39t107.5 -11.5
q171 -3 434 94l-49 -301q-423 -121 -598.5 -239.5t-175.5 -298.5z" />
    <glyph glyph-name="fehDotlessar" unicode="&#x6a1;" horiz-adv-x="1908" 
d="M1223 0h-586q-288 0 -432 140.5t-144 373.5q0 170 80 375l295 -88q-49 -127 -49 -230q0 -105 68 -154.5t209 -49.5l548 -2q245 -3 340 118q-151 -19 -280.5 19t-208 130.5t-78.5 219.5q0 67 19 137.5t56 135.5t87.5 116.5t119 82t144.5 30.5q134 0 232 -89.5t147 -242
t49 -346.5q0 -132 -35 -242.5t-94 -187t-138.5 -131.5t-167 -82.5t-181.5 -32.5zM1593 805q-15 104 -82 173t-147 69q-56 0 -111 -37t-55 -88q0 -56 63 -87.5t150.5 -34.5t181.5 5z" />
    <glyph glyph-name="vehar" unicode="&#x6a4;" horiz-adv-x="1908" 
d="M1419 2206l185 -183l-185 -186l-182 186zM1583 1542l-160 162l-161 -162l-183 184l183 185l161 -162l160 162l184 -185zM1411 1354q134 0 232 -89.5t147 -242t49 -346.5q0 -132 -35 -242.5t-94 -187t-138.5 -131.5t-167 -82.5t-181.5 -32.5h-586q-288 0 -432 140.5
t-144 373.5q0 170 80 375l295 -88q-49 -127 -49 -230q0 -105 68 -154.5t209 -49.5l548 -2q245 -3 340 118q-151 -19 -280.5 19t-208 130.5t-78.5 219.5q0 67 19 137.5t56 135.5t87.5 116.5t119 82t144.5 30.5zM1198 922q0 -56 63 -87.5t150.5 -34.5t181.5 5q-15 104 -82 173
t-147 69q-56 0 -111 -37t-55 -88z" />
    <glyph glyph-name="kehehar" unicode="&#x6a9;" horiz-adv-x="1638" 
d="M1720 1518l-108 -361q-217 -38 -565 -127q232 -147 320.5 -283t88.5 -325q0 -62 -18.5 -121t-60 -114t-101.5 -96.5t-149 -66t-197 -24.5h-312q-573 0 -573 535q0 117 25 239h274q-12 -61 -12 -145q0 -128 70 -195t243 -67h283q148 0 206 21t58 75q0 32 -23.5 76
t-73.5 101t-145 125.5t-221 133.5q14 185 29 311q115 47 251 91.5t376.5 116t334.5 100.5z" />
    <glyph glyph-name="kafDotabovear" unicode="&#x6ac;" horiz-adv-x="1765" 
d="M969 1604l-183 -187l-184 187l184 182zM1163 0h-512q-279 0 -446.5 165t-167.5 431q0 210 108 446l297 -79q-84 -172 -84 -304q0 -139 87.5 -215.5t236.5 -76.5h473q89 0 148.5 44.5t56.5 114.5l-41 1037l291 20l20 -1046q3 -244 -122.5 -390.5t-344.5 -146.5zM842 610
h-203v201l152 -2q56 -1 88.5 2.5t53.5 17.5t21 41q0 13 -15.5 24.5t-48 20.5t-61 15.5t-77 15.5t-74.5 15l14 221q143 101 371 174l-4 -195q-110 -21 -238 -67q46 -5 91.5 -19t95 -40.5t80 -75t30.5 -111.5q0 -46 -14.5 -86t-45 -75.5t-86 -56t-130.5 -20.5z" />
    <glyph glyph-name="gafar" unicode="&#x6af;" horiz-adv-x="1638" 
d="M778 1462l619 244v-129l-639 -244zM1720 1518l-108 -361q-217 -38 -565 -127q232 -147 320.5 -283t88.5 -325q0 -62 -18.5 -121t-60 -114t-101.5 -96.5t-149 -66t-197 -24.5h-312q-573 0 -573 535q0 117 25 239h274q-12 -61 -12 -145q0 -128 70 -195t243 -67h283
q148 0 206 21t58 75q0 32 -23.5 76t-73.5 101t-145 125.5t-221 133.5q14 185 29 311q115 47 251 91.5t376.5 116t334.5 100.5z" />
    <glyph glyph-name="noonghunnaar" unicode="&#x6ba;" horiz-adv-x="1466" 
d="M705 -444q-158 0 -284.5 47t-209 131t-126.5 199.5t-44 252.5q0 205 98 426l297 -82q-78 -173 -78 -301q0 -146 95.5 -227t269.5 -80q188 2 292.5 75.5t104.5 211.5q0 71 -14.5 161t-30 154t-49.5 197l274 72q47 -166 71 -291t24 -250q0 -326 -177.5 -511t-512.5 -185z
" />
    <glyph glyph-name="noonThreedotsabovear" unicode="&#x6bd;" horiz-adv-x="1466" 
d="M705 1438l184 -183l-184 -186l-183 186zM868 774l-159 162l-162 -162l-182 184l182 185l162 -162l159 162l185 -185zM1026 721l274 72q47 -166 71 -291t24 -250q0 -326 -177.5 -511t-512.5 -185q-158 0 -284.5 47t-209 131t-126.5 199.5t-44 252.5q0 205 98 426l297 -82
q-78 -173 -78 -301q0 -146 95.5 -227t269.5 -80q188 2 292.5 75.5t104.5 211.5q0 71 -14.5 161t-30 154t-49.5 197z" />
    <glyph glyph-name="hehDoachashmeear" unicode="&#x6be;" horiz-adv-x="1368" 
d="M315 883l105 280q259 -105 376 -165q536 -274 537 -615q0 -98 -39.5 -175.5t-105 -124.5t-153 -71t-181.5 -20t-193.5 34.5t-185.5 86.5q-90 -72 -186 -92.5t-283 -20.5h-6v2l-98 18v324l98 21v2h6h176q-32 75 -32 151q0 110 68.5 201t166.5 133zM768 330q236 -42 236 78
q0 46 -34.5 91t-75 73.5t-89.5 52.5q16 -53 16 -109q0 -103 -53 -186zM487 381q34 22 46 30.5t30.5 24.5t24 29.5t4.5 30.5q0 43 -31 74.5t-74 31.5q-48 0 -84 -28t-36 -70q0 -31 36.5 -66t83.5 -57z" />
    <glyph glyph-name="hehgoalar" unicode="&#x6c1;" horiz-adv-x="1110" 
d="M541 2q-145 0 -248.5 61.5t-154 166.5t-50.5 243q0 164 105.5 327t279.5 275l57 111q240 -162 353 -325.5t114 -383.5q0 -205 -127 -340t-329 -135zM551 367q99 0 150 47t51 108q0 114 -213 279q-28 -20 -56.5 -45t-64 -63t-58 -83.5t-22.5 -87.5q0 -64 52.5 -109.5
t160.5 -45.5z" />
    <glyph glyph-name="hehgoalHamzaabovear" unicode="&#x6c2;" horiz-adv-x="1110" 
d="M795 1552v-135q-34 -9 -235.5 -20t-254.5 -27v139l84 15q-27 49 -27 104q0 94 71.5 149.5t168.5 55.5q67 0 127 -31v-135q-60 29 -115 29q-51 0 -85.5 -19t-34.5 -47q0 -65 90 -86q110 0 211 8zM473 1075l57 111q240 -162 353 -325.5t114 -383.5q0 -205 -127 -340
t-329 -135q-145 0 -248.5 61.5t-154 166.5t-50.5 243q0 164 105.5 327t279.5 275zM551 367q99 0 150 47t51 108q0 114 -213 279q-28 -20 -56.5 -45t-64 -63t-58 -83.5t-22.5 -87.5q0 -64 52.5 -109.5t160.5 -45.5z" />
    <glyph glyph-name="tehMarbutagoalar" unicode="&#x6c3;" horiz-adv-x="1110" 
d="M700 1313l-159 164l-162 -164l-182 186l182 182l162 -159l159 159l185 -182zM473 1075l57 111q240 -162 353 -325.5t114 -383.5q0 -205 -127 -340t-329 -135q-145 0 -248.5 61.5t-154 166.5t-50.5 243q0 164 105.5 327t279.5 275zM551 367q99 0 150 47t51 108
q0 114 -213 279q-28 -20 -56.5 -45t-64 -63t-58 -83.5t-22.5 -87.5q0 -64 52.5 -109.5t160.5 -45.5z" />
    <glyph glyph-name="yehfarsi" unicode="&#x6cc;" horiz-adv-x="1601" 
d="M737 -444q-209 1 -368 82t-243.5 221.5t-84.5 320.5q0 211 96 428l299 -80q-80 -177 -80 -303q0 -302 430 -305q125 -1 229 15t172 51.5t68 85.5q0 52 -220 101q-19 5 -29 7q-49 12 -77 19.5t-68.5 20.5t-63 26.5t-51 34t-44 45.5t-30.5 58t-21 76t-6 95q0 98 50 213
t136 195q98 90 221.5 133.5t240.5 27.5t190 -92l-64 -336q-68 53 -149 74.5t-150 12t-127.5 -33.5t-92.5 -57t-34 -63q0 -29 12 -44t40 -28q48 -22 120 -40t130.5 -28.5t121.5 -33.5t106 -53.5t71 -89.5t28 -142q0 -123 -42 -226t-114 -173.5t-169.5 -120t-206.5 -72
t-226 -22.5z" />
    <glyph glyph-name="wawDotabovear" unicode="&#x6cf;" horiz-adv-x="1069" 
d="M535 1554l184 -182l-184 -186l-183 186zM537 975q85 0 164 -46.5t140 -128t98.5 -200.5t39.5 -256q-5 -340 -223.5 -594t-597.5 -358l-86 389q146 31 290.5 105.5t239.5 185.5q-99 -1 -186 23.5t-154.5 71t-107 121t-39.5 167.5q0 123 55 242.5t154 198.5t213 79z
M328 514q0 -62 111 -97t284 -16q-17 107 -84 176.5t-145 69.5q-55 0 -110.5 -40.5t-55.5 -92.5z" />
    <glyph glyph-name="yehbarreear" unicode="&#x6d2;" horiz-adv-x="2097" 
d="M496 0q-148 0 -242 47q-95 45 -145 125q-48 82 -48 176q0 123 50 232q46 109 125 208q71 85 172 166q81 63 186 109q96 41 170 41q76 0 127 -25q47 -16 88 -61l-8 -363q-55 33 -115 54q-67 18 -113 18q-47 0 -112 -20q-38 -12 -107 -50q-63 -44 -88 -69q-47 -47 -63 -80
q-21 -33 -21 -68q0 -42 35 -59q38 -14 96 -14h1542l-67 -367h-1462z" />
    <glyph glyph-name="yehbarreeHamzaabovear" unicode="&#x6d3;" horiz-adv-x="2097" 
d="M850 1425v-135q-34 -9 -235.5 -20t-254.5 -27v139l84 15q-26 47 -26 104q0 94 71 149.5t168 55.5q67 0 127 -31v-135q-60 29 -114 29q-51 0 -86 -19t-35 -47q0 -65 90 -86q110 0 211 8zM483 367h1542l-67 -367h-1462q-148 0 -242 47q-95 45 -145 125q-48 82 -48 176
q0 123 50 232q46 109 125 208q71 85 172 166q81 63 186 109q96 41 170 41q76 0 127 -25q47 -16 88 -61l-8 -363q-55 33 -115 54q-67 18 -113 18q-47 0 -112 -20q-38 -12 -107 -50q-63 -44 -88 -69q-47 -47 -63 -80q-21 -33 -21 -68q0 -42 35 -59q38 -14 96 -14z" />
    <glyph glyph-name="fullstopar" unicode="&#x6d4;" horiz-adv-x="921" 
d="M215 20v324l104 23h838v-367h-838z" />
    <glyph glyph-name="sadLamAlefMaksuraabovear" unicode="&#x6d6;" 
d="M92 1366q0 -53 84 -53h1112l-28 -142h-1078q-91 0 -142.5 40.5t-51.5 111.5q0 98 84.5 196.5t185.5 125.5l-18 503l104 6l10 -509q1 -46 25 -71.5t65 -27.5q51 -2 76.5 25t34.5 96l8 68l86 6v-72q0 -61 26 -89.5t83 -33.5h10q165 301 369 301q83 0 142.5 -66.5
t59.5 -160.5q0 -213 -301 -213h-297v2q-115 11 -155 107q-53 -113 -158 -107q-129 6 -158 117q-64 -14 -121 -64.5t-57 -95.5zM1126 1716q-81 0 -144.5 -43t-133.5 -127h182q120 0 172.5 20.5t52.5 63.5q0 33 -38.5 59.5t-90.5 26.5z" />
    <glyph glyph-name="qafLamAlefMaksuraabovear" unicode="&#x6d7;" 
d="M696 2017l-61 64l-64 -64l-73 72l73 74l64 -64l61 64l72 -74zM186 1313h713l-29 -142h-677q-91 0 -143 40.5t-52 111.5q0 98 84.5 196.5t185.5 125.5l-18 503l104 6l11 -509q3 -105 104 -99h90q101 3 137 45q-94 -15 -155.5 19t-61.5 121q0 71 46 127.5t116 56.5
q74 0 118 -72t44 -178q4 -81 -31 -140t-89.5 -86t-119.5 -28h-117q-70 2 -110 29.5t-55 85.5q-65 -14 -122 -64.5t-57 -95.5q0 -53 84 -53zM559 1751q0 -32 51.5 -42t102.5 1q-4 38 -30.5 64t-57.5 26q-24 0 -45 -13.5t-21 -35.5z" />
    <glyph glyph-name="meemabovear" unicode="&#x6d8;" 
d="M281 1894q61 0 107 -63.5t46 -138.5q0 -68 -33.5 -115t-95.5 -47q-87 0 -147 55q-12 -60 -31 -88q-69 -109 -277 -180l-34 106q102 60 172.5 123t91.5 119q1 4 4 11.5t4 11.5q50 122 96.5 164t96.5 42zM311 1665q37 0 37 31q0 25 -21 47t-48 22q-55 0 -84 -53
q67 -47 116 -47z" />
    <glyph glyph-name="jeemabovear" unicode="&#x6da;" 
d="M82 1389q0 -62 58 -92.5t147 -30.5q129 0 233 49l-16 -137q-108 -54 -221 -54q-122 0 -203.5 63.5t-81.5 182.5q0 65 22 116.5t63 86.5t89 59t111 43l-41 19q-129 55 -224 26l17 113q31 10 64 11t55.5 -2t58.5 -17.5t50 -21.5l54 -27q4 -2 21.5 -11t22.5 -11.5t21 -10
t23 -10t21 -8t23.5 -8t22 -5.5t24.5 -4.5t24 -1.5l-16 -98q-53 -4 -103 -12t-110.5 -24.5t-104.5 -39.5t-74 -60t-30 -83zM362 1409l-65 -66l-66 66l66 68z" />
    <glyph glyph-name="threedotsabovear" unicode="&#x6db;" 
d="M532 1855l-184 -186l-182 186l182 185zM297 1456l-184 -186l-183 186l183 184zM768 1456l-184 -186l-183 186l183 184z" />
    <glyph glyph-name="seenabovear" unicode="&#x6dc;" 
d="M2566 1733l115 20q35 -68 35 -182q0 -93 -41.5 -149t-128.5 -56q-101 0 -142 84q-36 -81 -135 -84q-32 0 -59 10q-25 -94 -98.5 -148t-182.5 -54q-136 0 -211.5 74.5t-75.5 195.5q0 90 44 184l122 -31q-34 -67 -34 -135q0 -66 43.5 -102.5t126.5 -36.5q57 0 112 29.5
t55 85.5q0 97 -47 227l109 18q26 -67 37 -120v2q5 -45 74 -45q44 0 58 18t21 70l9 63l102 8v-71q0 -88 72 -88q57 0 57 65q0 39 -37 148z" />
    <glyph glyph-name="sukunovalar" unicode="&#x6e0;" 
d="M659 1729q0 127 71.5 223t184.5 96q74 0 134 -47t91 -119.5t31 -152.5q-5 -82 -33.5 -153t-86.5 -120t-136 -49q-77 -1 -135 47.5t-87 120t-34 154.5zM782 1729q1 -35 2.5 -58.5t5.5 -55.5t13 -53t23 -41.5t36.5 -31t52.5 -10.5q144 2 140 250q4 251 -140 251
q-43 0 -71.5 -21.5t-41 -61.5t-16.5 -78t-4 -90z" />
    <glyph glyph-name="hahabovear" unicode="&#x6e1;" 
d="M57 1780l17 143q41 20 86 26.5t82 4t88.5 -17.5t85 -28t94 -37.5t94.5 -37.5l-12 -74q-119 -130 -202.5 -188.5t-162 -67.5t-168.5 19v88q188 0 359 129q-49 21 -86.5 34t-88.5 25t-98.5 7.5t-87.5 -25.5z" />
    <glyph glyph-name="meemStopabovear" unicode="&#x6e2;" 
d="M1008 1864q80 0 127 -67.5t47 -160.5q0 -80 -51 -126t-127 -40q-21 1 -58 7.5t-60.5 9t-49 0t-38 -19t-12.5 -48.5q0 -20 11.5 -138.5t15.5 -199.5l-133 -20q-3 77 -12.5 201t-10.5 163q-3 215 140 226q27 93 78.5 153t132.5 60zM1016 1624q69 0 69 41q0 25 -18 44.5
t-53 19.5q-34 0 -61.5 -29.5t-34.5 -63.5q66 -12 98 -12z" />
    <glyph glyph-name="maddalongar" unicode="&#x6e4;" 
d="M1159 1726h-667v164h667v-164z" />
    <glyph glyph-name="wawSmallar" unicode="&#x6e5;" horiz-adv-x="755" 
d="M387 797q77 0 134.5 -78t58.5 -199q-1 -101 -45 -205.5t-127.5 -192t-188.5 -126.5l-39 170q114 57 164 110t84 125q-96 -2 -161.5 42.5t-65.5 127.5t55.5 154.5t130.5 71.5zM293 598q0 -29 50 -45.5t126 -9.5q-4 49 -32.5 79.5t-65.5 30.5q-27 0 -52.5 -16t-25.5 -39z
" />
    <glyph glyph-name="yehSmallar" unicode="&#x6e6;" horiz-adv-x="1187" 
d="M350 -61q-100 0 -151.5 39.5t-51.5 111.5q0 27 9 50t29 45t38 37t49.5 39.5t49.5 39.5q17 15 49.5 62t63 80.5t57.5 33.5q36 0 56 -31.5t21.5 -74t-8.5 -85.5t-29 -65q-3 26 -8 45t-12 30.5t-13.5 19.5t-17 7.5t-18 -0.5t-21 -9t-21.5 -14.5t-23.5 -20.5t-23 -23
t-24.5 -25q-22 -23 -53.5 -44.5t-48.5 -36t-17 -31.5q0 -39 119 -39h680l-26 -141h-654z" />
    <glyph glyph-name="yehabovear" unicode="&#x6e7;" 
d="M219 1171q-100 0 -151.5 40t-51.5 112q0 27 9 50t29 45t37.5 37t49 39.5t49.5 39.5q17 15 49.5 62t63 80.5t57.5 33.5q47 0 66.5 -52t10 -113t-35.5 -91q-3 26 -8 45t-12 30.5t-13.5 19.5t-17 7.5t-18 -0.5t-21 -9t-21.5 -14.5t-23.5 -20.5t-23 -23t-24.5 -25
q-22 -23 -53.5 -44.5t-48.5 -36t-17 -31.5q0 -39 119 -39h680l-27 -142h-653z" />
    <glyph glyph-name="noonabovear" unicode="&#x6e8;" 
d="M760 2064l-107 -106l-104 106l104 105zM911 1595q0 -130 -71 -202t-199 -72q-123 0 -193.5 64.5t-70.5 177.5q0 94 37 180l106 -2q-35 -68 -35 -148q0 -64 41.5 -97.5t118.5 -33.5q74 0 115 30t41 87q0 88 -37 209l108 27q39 -118 39 -220z" />
    <glyph glyph-name="rhombusStopbelowar" unicode="&#x6ea;" 
d="M190 -379q-78 0 -134 55.5t-56 133.5t56 134t134 56t133.5 -56t55.5 -134t-55.5 -133.5t-133.5 -55.5z" />
    <glyph glyph-name="meembelowar" unicode="&#x6ed;" 
d="M809 188q80 0 127 -67t47 -160q0 -80 -51 -126t-127 -40q-21 1 -57.5 7.5t-60.5 9t-49 0t-37.5 -19t-12.5 -48.5q0 -20 11 -139t15 -199l-133 -20q-3 76 -12 200.5t-10 163.5q-3 214 139 225q27 93 78.5 153t132.5 60zM817 -51q32 0 51 10.5t19 30.5q0 25 -18.5 44
t-53.5 19q-34 0 -61.5 -29.5t-34.5 -62.5q66 -12 98 -12z" />
    <glyph glyph-name="kehehDotabovear" unicode="&#x762;" horiz-adv-x="1638" 
d="M977 1747l139 -137l-139 -140l-137 140zM1720 1518l-108 -361q-217 -38 -565 -127q232 -147 320.5 -283t88.5 -325q0 -62 -18.5 -121t-60 -114t-101.5 -96.5t-149 -66t-197 -24.5h-312q-573 0 -573 535q0 117 25 239h274q-12 -61 -12 -145q0 -128 70 -195t243 -67h283
q148 0 206 21t58 75q0 32 -23.5 76t-73.5 101t-145 125.5t-221 133.5q14 185 29 311q115 47 251 91.5t376.5 116t334.5 100.5z" />
    <glyph glyph-name="fehDotbelowThreedotsabovear" unicode="&#x8a4;" horiz-adv-x="1908" 
d="M1575 1544l-160 164l-162 -164l-182 187l182 182l162 -160l160 160l184 -182zM1411 1354q134 0 232 -89.5t147 -242t49 -346.5q0 -132 -35 -242.5t-94 -187t-138.5 -131.5t-167 -82.5t-181.5 -32.5h-586q-288 0 -432 140.5t-144 373.5q0 170 80 375l295 -88
q-49 -127 -49 -230q0 -105 68 -154.5t209 -49.5l548 -2q245 -3 340 118q-151 -19 -280.5 19t-208 130.5t-78.5 219.5q0 67 19 137.5t56 135.5t87.5 116.5t119 82t144.5 30.5zM1198 922q0 -56 63 -87.5t150.5 -34.5t181.5 5q-15 104 -82 173t-147 69q-56 0 -111 -37t-55 -88z
M860 -578l-184 185l184 184l182 -184z" />
    <glyph glyph-name="zerowidthnonjoiner" unicode="&#x200c;" horiz-adv-x="77" 
d="M78 1718v-2115h-78v2115h78z" />
    <glyph glyph-name="zerowidthjoiner" unicode="&#x200d;" horiz-adv-x="71" 
d="M88 1501l168 -168l-47 -49l-137 133v-1814h-72v1814l-135 -133l-47 49l168 168q-7 7 -47.5 47t-74.5 74t-46 47l47 55l174 -174l170 174l47 -55z" />
    <glyph glyph-name="lefttorightmark" unicode="&#x200e;" horiz-adv-x="77" 
d="M268 1718l217 -225l-217 -219l-53 53l127 137h-264v-1861h-78v1937h340l-125 127z" />
    <glyph glyph-name="righttoleftmark" unicode="&#x200f;" horiz-adv-x="77" 
d="M78 1540v-1937h-78v1861h-268l131 -137l-56 -53l-215 219l215 225l56 -51l-127 -127h342z" />
    <glyph glyph-name="endash" unicode="&#x2013;" horiz-adv-x="1110" 
d="M967 778v-217h-824v217h824z" />
    <glyph glyph-name="emdash" unicode="&#x2014;" horiz-adv-x="1654" 
d="M1511 778v-217h-1368v217h1368z" />
    <glyph glyph-name="quoteleft" unicode="&#x2018;" horiz-adv-x="530" 
d="M389 1272q0 -88 -36.5 -173.5t-96 -151.5t-132 -114.5t-147.5 -70.5l-139 129q123 35 207 105.5t109 136.5q-102 -15 -167 39t-65 161q0 98 64.5 158.5t167.5 60.5q104 0 169.5 -77t65.5 -203z" />
    <glyph glyph-name="quoteright" unicode="&#x2019;" horiz-adv-x="530" 
d="M131 1171q0 88 36.5 173.5t95.5 151.5t131.5 114.5t146.5 70.5l141 -129q-124 -35 -207 -105t-108 -136q101 15 166 -39.5t65 -161.5q0 -98 -64 -158.5t-167 -60.5q-104 0 -170 77t-66 203z" />
    <glyph glyph-name="quotesinglbase" unicode="&#x201a;" horiz-adv-x="536" 
d="M264 -256h-201l58 600h342z" />
    <glyph glyph-name="quotedblleft" unicode="&#x201c;" horiz-adv-x="1013" 
d="M260 1518h201l-58 -600h-342zM739 1518h201l-59 -600h-340z" />
    <glyph glyph-name="quotedblright" unicode="&#x201d;" horiz-adv-x="1017" 
d="M262 915h-201l58 601h342zM670 915h-201l59 601h342z" />
    <glyph glyph-name="quotedblbase" unicode="&#x201e;" horiz-adv-x="946" 
d="M264 -256h-201l58 600h342zM672 -256h-201l59 600h342z" />
    <glyph glyph-name="bullet" unicode="&#x2022;" horiz-adv-x="1193" 
d="M598 238q-147 0 -252.5 105.5t-105.5 252.5q0 145 105.5 251.5t252.5 106.5q148 0 253 -106t105 -252q0 -147 -104.5 -252.5t-253.5 -105.5z" />
    <glyph glyph-name="ellipsis" unicode="&#x2026;" horiz-adv-x="532" 
d="M301 346q73 0 124.5 -51t51.5 -125t-51.5 -125t-124.5 -51q-74 0 -126 51.5t-52 124.5t52 124.5t126 51.5z" />
    <glyph glyph-name="guilsinglleft" unicode="&#x2039;" horiz-adv-x="653" 
d="M51 553l234 403h290l-253 -399l256 -399h-289z" />
    <glyph glyph-name="guilsinglright" unicode="&#x203a;" horiz-adv-x="649" 
d="M76 956h291l233 -403l-238 -395h-288l256 399z" />
    <glyph glyph-name="parenleftar" unicode="&#xfd3e;" horiz-adv-x="1060" 
d="M944 -104l-182 -160q-125 101 -238 253t-176 302h-194l141 125q-7 11 -39 33l-150 -138v625l152 -139q21 15 45 30l-156 136h199q110 271 410 565l190 -160q-192 -213 -266 -405h158l-152 -136q26 -17 43 -32l154 139v-617l-152 134q-30 -24 -39 -33l146 -127h-150
q69 -186 256 -395zM496 459q70 0 120 47q50 53 50 121q0 71 -50 121q-49 49 -120 49q-70 0 -119 -49q-49 -52 -49 -121t49 -121q50 -47 119 -47z" />
    <glyph glyph-name="parenrightar" unicode="&#xfd3f;" horiz-adv-x="1060" 
d="M293 -264l-182 160q184 205 254 395h-150l145 127q-21 21 -36 33l-154 -134v617l156 -139q24 21 41 32l-150 136h158q-72 187 -266 405l190 160q301 -295 408 -565h198l-153 -136q24 -15 45 -30l149 139v-625l-147 138q-35 -25 -41 -33l141 -125h-194
q-63 -151 -175.5 -302.5t-236.5 -252.5zM557 459q68 0 121 47q49 52 49 121t-49 121q-52 49 -121 49q-70 0 -119 -49t-49 -121q0 -69 49 -121q50 -47 119 -47z" />
    <glyph glyph-name="NULL" horiz-adv-x="1351" 
 />
    <glyph glyph-name="Q.ss01" horiz-adv-x="1699" 
d="M1425 268h267v-301h-836h-35q-210 0 -381.5 101.5t-266.5 273t-95 375.5q0 153 56 290.5t153 238t236 159.5t298 59q211 0 383 -100.5t267.5 -271.5t95.5 -375q0 -252 -142 -449zM426 717q0 -181 111.5 -301.5t283.5 -120.5q174 0 286 120t112 302q0 180 -113 301
t-285 121q-173 0 -284 -121t-111 -301z" />
    <glyph glyph-name="T.y" horiz-adv-x="1296" 
d="M29 1440h1124l117 -297h-445v-1143h-356v1143h-440v297z" />
    <glyph glyph-name="alefar.fina.fathatan1" horiz-adv-x="602" 
d="M602 367v-367q-215 0 -338.5 106t-136.5 332l-37 645l291 21l35 -576q3 -51 16 -83.5t39 -49t55.5 -22.5t75.5 -6z" />
    <glyph glyph-name="alefar.fina.fathatan2" horiz-adv-x="1052" 
d="M602 367h451v-367h-463q-438 6 -463 438l-49 903l289 21l49 -834q7 -98 50.5 -129.5t135.5 -31.5z" />
    <glyph glyph-name="alefar.short" horiz-adv-x="534" 
d="M397 0h-266l-47 1307l289 20z" />
    <glyph glyph-name="alefar.fina.short" horiz-adv-x="604" 
d="M604 367v-367q-215 0 -339.5 106.5t-133.5 331.5l-35 869l289 20l35 -799q4 -97 48.5 -129t135.5 -32z" />
    <glyph glyph-name="behDotlessar.001" horiz-adv-x="1826" 
d="M1757 510q0 -89 -15.5 -163.5t-52 -139.5t-93 -110t-142 -71t-194.5 -26h-642q-573 0 -573 535q0 28 6 70.5t11 69t16.5 81.5t13.5 63l252 -43q-12 -61 -12 -147q0 -128 69.5 -195t241.5 -67h637q111 0 157 36.5t46 110.5q0 38 -14.5 99.5t-27.5 101t-46 137.5l268 63
q32 -65 63 -192t31 -213z" />
    <glyph glyph-name="behDotlessar.swsh" horiz-adv-x="3405" 
d="M2978 1010l268 65q42 -132 66 -272.5t24 -233.5q0 -128 -88 -234t-241 -179t-362 -123t-447 -71.5t-500.5 -19.5t-518.5 28t-504.5 76.5t-455.5 121.5l-158 430q170 -67 378 -120t423.5 -86t443 -53t441.5 -20.5t413 11t364 40.5t288 69t191.5 97t68.5 123q0 124 -94 351
z" />
    <glyph glyph-name="behDotlessar.fina.swsh" horiz-adv-x="3569" 
d="M3566 367l4 -367q-131 0 -235.5 54.5t-153.5 158.5q-138 -113 -381 -186.5t-523 -100t-589.5 -24.5t-588.5 32.5t-512 79.5t-368 109l-158 426q194 -83 497 -144.5t630.5 -91t663 -29t602.5 31t441.5 99.5t186.5 167l2 -2l25 178l246 20v-203q0 -115 49.5 -161.5
t161.5 -46.5z" />
    <glyph glyph-name="behDotlessar.medi.alt" horiz-adv-x="1239" 
d="M1028 756v-181q0 -116 49.5 -162t165.5 -46v-367q-289 0 -381 205q-76 -199 -305 -205h-557l-104 20v324l104 23h547q113 0 156.5 44t58.5 164l20 160z" />
    <glyph glyph-name="behDotlessar.init.alt" horiz-adv-x="1165" 
d="M1061 485q0 -107 -27 -192t-83.5 -152.5t-154.5 -104t-231 -36.5h-559l-104 20v324l104 23h557q124 0 176 41t52 122q0 85 -84 318l262 65q38 -63 65 -194.5t27 -233.5z" />
    <glyph glyph-name="behar.swsh" horiz-adv-x="3405" 
d="M2978 1010l268 65q42 -132 66 -272.5t24 -233.5q0 -128 -88 -234t-241 -179t-362 -123t-447 -71.5t-500.5 -19.5t-518.5 28t-504.5 76.5t-455.5 121.5l-158 430q170 -67 378 -120t423.5 -86t443 -53t441.5 -20.5t413 11t364 40.5t288 69t191.5 97t68.5 123q0 124 -94 351
zM1937 -598l-182 -184l-184 184l184 184z" />
    <glyph glyph-name="behar.fina.swsh" horiz-adv-x="3569" 
d="M3566 367l4 -367q-131 0 -235.5 54.5t-153.5 158.5q-138 -113 -381 -186.5t-523 -100t-589.5 -24.5t-588.5 32.5t-512 79.5t-368 109l-158 426q194 -83 497 -144.5t630.5 -91t663 -29t602.5 31t441.5 99.5t186.5 167l2 -2l25 178l246 20v-203q0 -115 49.5 -161.5
t161.5 -46.5zM1927 -772l-184 184l184 185l182 -185z" />
    <glyph glyph-name="behar.medi.alt" horiz-adv-x="1239" 
d="M1028 756v-181q0 -116 49.5 -162t165.5 -46v-367q-289 0 -381 205q-76 -199 -305 -205h-557l-104 20v324l104 23h547q113 0 156.5 44t58.5 164l20 160zM535 -647l-185 184l185 184l182 -184z" />
    <glyph glyph-name="behar.init.Alt" horiz-adv-x="1165" 
d="M707 848l262 65q38 -63 65 -194.5t27 -233.5q0 -107 -27 -192t-83.5 -152.5t-154.5 -104t-231 -36.5h-559l-104 20v324l104 23h557q124 0 176 41t52 122q0 85 -84 318zM522 -455l-184 185l184 184l183 -184z" />
    <glyph glyph-name="behar.init.alt" horiz-adv-x="602" 
d="M143 848l263 65q38 -63 65 -194.5t27 -233.5q0 -106 -26.5 -191t-83 -152t-153.5 -104t-229 -38h-6v2l-98 18v324l98 21v2q124 0 176.5 41t52.5 122q0 37 -14 94.5t-28 99t-44 124.5zM76 -438l-182 186l182 182l184 -182z" />
    <glyph glyph-name="behar.init.waw" horiz-adv-x="602" 
d="M143 848l263 65q38 -63 65 -194.5t27 -233.5q0 -106 -26.5 -191t-83 -152t-153.5 -104t-229 -38h-6v2l-98 18v324l98 21v2q124 0 176.5 41t52.5 122q0 37 -14 94.5t-28 99t-44 124.5zM6 -451l-184 187l184 184l182 -184z" />
    <glyph glyph-name="alefMaksuraar.medi.alt" horiz-adv-x="1239" 
d="M1028 756v-181q0 -116 49.5 -162t165.5 -46v-367q-289 0 -381 205q-76 -199 -305 -205h-557l-104 20v324l104 23h547q113 0 156.5 44t58.5 164l20 160z" />
    <glyph glyph-name="alefMaksuraar.init.alt" horiz-adv-x="1165" 
d="M1061 485q0 -107 -27 -192t-83.5 -152.5t-154.5 -104t-231 -36.5h-559l-104 20v324l104 23h557q124 0 176 41t52 122q0 85 -84 318l262 65q38 -63 65 -194.5t27 -233.5z" />
    <glyph glyph-name="tehar.swsh" horiz-adv-x="3405" 
d="M1724 1165l-159 164l-162 -164l-182 187l182 182l162 -160l159 160l185 -182zM2978 1010l268 65q42 -132 66 -272.5t24 -233.5q0 -128 -88 -234t-241 -179t-362 -123t-447 -71.5t-500.5 -19.5t-518.5 28t-504.5 76.5t-455.5 121.5l-158 430q170 -67 378 -120t423.5 -86
t443 -53t441.5 -20.5t413 11t364 40.5t288 69t191.5 97t68.5 123q0 124 -94 351z" />
    <glyph glyph-name="tehar.fina.swsh" horiz-adv-x="3569" 
d="M2044 1063l-160 164l-162 -164l-182 186l182 183l162 -160l160 160l184 -183zM3566 367l4 -367q-131 0 -235.5 54.5t-153.5 158.5q-138 -113 -381 -186.5t-523 -100t-589.5 -24.5t-588.5 32.5t-512 79.5t-368 109l-158 426q194 -83 497 -144.5t630.5 -91t663 -29
t602.5 31t441.5 99.5t186.5 167l2 -2l25 178l246 20v-203q0 -115 49.5 -161.5t161.5 -46.5z" />
    <glyph glyph-name="tehar.medi.alt" horiz-adv-x="1239" 
d="M1065 1044l-160 164l-162 -164l-182 187l182 182l162 -160l160 160l184 -182zM1028 756v-181q0 -116 49.5 -162t165.5 -46v-367q-289 0 -381 205q-76 -199 -305 -205h-557l-104 20v324l104 23h547q113 0 156.5 44t58.5 164l20 160z" />
    <glyph glyph-name="tehar.init.alef" horiz-adv-x="737" 
d="M479 1174l-162 161l-159 -161l-185 184l185 184l159 -162l162 162l183 -184zM143 848l263 65q38 -63 65 -194.5t27 -233.5q0 -106 -26.5 -191t-83 -152t-153.5 -104t-229 -38h-6v2l-98 18v324l98 21v2q124 0 176.5 41t52.5 122q0 37 -14 94.5t-28 99t-44 124.5z" />
    <glyph glyph-name="tehar.init.alt" horiz-adv-x="1165" 
d="M983 991l-160 164l-161 -164l-183 187l183 182l161 -160l160 160l184 -182zM707 848l262 65q38 -63 65 -194.5t27 -233.5q0 -107 -27 -192t-83.5 -152.5t-154.5 -104t-231 -36.5h-559l-104 20v324l104 23h557q124 0 176 41t52 122q0 85 -84 318z" />
    <glyph glyph-name="tehar.init.kaf" horiz-adv-x="782" 
d="M492 1167l-160 162l-162 -162l-184 185l184 184l162 -162l160 162l182 -184zM143 848l263 65q38 -63 65 -194.5t27 -233.5q0 -106 -26.5 -191t-83 -152t-153.5 -104t-229 -38h-6v2l-98 18v324l98 21v2q124 0 176.5 41t52.5 122q0 37 -14 94.5t-28 99t-44 124.5z" />
    <glyph glyph-name="thehar.swsh" horiz-adv-x="3405" 
d="M1571 1827l184 -182l-184 -187l-182 187zM1735 1163l-160 162l-162 -162l-182 185l182 184l162 -162l160 162l184 -184zM2978 1010l268 65q42 -132 66 -272.5t24 -233.5q0 -128 -88 -234t-241 -179t-362 -123t-447 -71.5t-500.5 -19.5t-518.5 28t-504.5 76.5
t-455.5 121.5l-158 430q170 -67 378 -120t423.5 -86t443 -53t441.5 -20.5t413 11t364 40.5t288 69t191.5 97t68.5 123q0 124 -94 351z" />
    <glyph glyph-name="thehar.fina.swsh" horiz-adv-x="3569" 
d="M1890 1724l185 -182l-185 -186l-182 186zM2054 1061l-160 162l-161 -162l-183 184l183 185l161 -162l160 162l184 -185zM3566 367l4 -367q-131 0 -235.5 54.5t-153.5 158.5q-138 -113 -381 -186.5t-523 -100t-589.5 -24.5t-588.5 32.5t-512 79.5t-368 109l-158 426
q194 -83 497 -144.5t630.5 -91t663 -29t602.5 31t441.5 99.5t186.5 167l2 -2l25 178l246 20v-203q0 -115 49.5 -161.5t161.5 -46.5z" />
    <glyph glyph-name="thehar.medi.alt" horiz-adv-x="1239" 
d="M909 1706l185 -182l-185 -187l-182 187zM1073 1042l-160 162l-161 -162l-183 185l183 184l161 -162l160 162l184 -184zM1028 756v-181q0 -116 49.5 -162t165.5 -46v-367q-289 0 -381 205q-76 -199 -305 -205h-557l-104 20v324l104 23h547q113 0 156.5 44t58.5 164l20 160
z" />
    <glyph glyph-name="thehar.init.alef" horiz-adv-x="690" 
d="M266 1841l185 -184l-185 -184l-182 184zM430 1176l-160 163l-161 -163l-183 186l183 182l161 -160l160 160l184 -182zM143 848l263 65q38 -63 65 -194.5t27 -233.5q0 -106 -26.5 -191t-83 -152t-153.5 -104t-229 -38h-6v2l-98 18v324l98 21v2q124 0 176.5 41t52.5 122
q0 37 -14 94.5t-28 99t-44 124.5z" />
    <glyph glyph-name="thehar.init.alt" horiz-adv-x="1165" 
d="M827 1651l185 -183l-185 -186l-182 186zM991 987l-160 162l-161 -162l-183 184l183 185l161 -162l160 162l185 -185zM707 848l262 65q38 -63 65 -194.5t27 -233.5q0 -107 -27 -192t-83.5 -152.5t-154.5 -104t-231 -36.5h-559l-104 20v324l104 23h557q124 0 176 41t52 122
q0 85 -84 318z" />
    <glyph glyph-name="thehar.init.kaf" horiz-adv-x="774" 
d="M317 1835l185 -184l-185 -185l-182 185zM481 1169l-159 164l-162 -164l-183 187l183 182l162 -160l159 160l185 -182zM143 848l263 65q38 -63 65 -194.5t27 -233.5q0 -106 -26.5 -191t-83 -152t-153.5 -104t-229 -38h-6v2l-98 18v324l98 21v2q124 0 176.5 41t52.5 122
q0 37 -14 94.5t-28 99t-44 124.5z" />
    <glyph glyph-name="jeemar.medi.alt" horiz-adv-x="2023" 
d="M1692 420q69 -53 333 -53v-367q-124 0 -221.5 17.5t-159.5 45.5t-106 69.5t-66 83t-34 91.5l-80 -43q-91 -50 -142 -76.5t-143 -68t-162.5 -63.5t-163.5 -39t-182 -17h-559l-104 20v324l104 23h557q259 0 787 161q-75 19 -136 39q-17 5 -67.5 20.5t-69 20.5t-62.5 17
t-66 14.5t-61.5 8t-67 2.5t-64 -7t-70.5 -14.5t-70 -26.5l46 311q49 20 98 31t87.5 15.5t88 -1.5t78.5 -11t83.5 -23t78.5 -27t86 -33q85 -32 136.5 -49.5t138 -41.5t174.5 -35t183 -11l-34 -278q-76 0 -168 -29zM1296 -334l-184 184l184 185l183 -185z" />
    <glyph glyph-name="jeemar.init.alt" horiz-adv-x="2025" 
d="M1262 864q85 -32 136.5 -49.5t138 -41.5t174.5 -35t183 -11l-34 -278q-57 -1 -117.5 -14.5t-129.5 -43.5t-120 -55.5t-135 -71.5q-91 -50 -142 -76.5t-143 -68t-162.5 -63.5t-163.5 -39t-182 -17h-559l-104 20v324l104 23h557q259 0 787 161q-75 19 -136 39
q-17 5 -67.5 20.5t-69 20.5t-62.5 17t-66 14.5t-61.5 8t-67 2.5t-64 -7t-70.5 -14.5t-70 -26.5l46 311q49 20 98 31t87.5 15.5t88 -1.5t78.5 -11t83.5 -23t78.5 -27t86 -33zM1296 -334l-184 184l184 185l183 -185z" />
    <glyph glyph-name="hahar.medi.alt" horiz-adv-x="2023" 
d="M1692 420q69 -53 333 -53v-367q-124 0 -221.5 17.5t-159.5 45.5t-106 69.5t-66 83t-34 91.5l-80 -43q-91 -50 -142 -76.5t-143 -68t-162.5 -63.5t-163.5 -39t-182 -17h-559l-104 20v324l104 23h557q259 0 787 161q-75 19 -136 39q-17 5 -67.5 20.5t-69 20.5t-62.5 17
t-66 14.5t-61.5 8t-67 2.5t-64 -7t-70.5 -14.5t-70 -26.5l46 311q49 20 98 31t87.5 15.5t88 -1.5t78.5 -11t83.5 -23t78.5 -27t86 -33q85 -32 136.5 -49.5t138 -41.5t174.5 -35t183 -11l-34 -278q-76 0 -168 -29z" />
    <glyph glyph-name="hahar.init.alt" horiz-adv-x="2025" 
d="M1262 864q85 -32 136.5 -49.5t138 -41.5t174.5 -35t183 -11l-34 -278q-57 -1 -117.5 -14.5t-129.5 -43.5t-120 -55.5t-135 -71.5q-91 -50 -142 -76.5t-143 -68t-162.5 -63.5t-163.5 -39t-182 -17h-559l-104 20v324l104 23h557q259 0 787 161q-75 19 -136 39
q-17 5 -67.5 20.5t-69 20.5t-62.5 17t-66 14.5t-61.5 8t-67 2.5t-64 -7t-70.5 -14.5t-70 -26.5l46 311q49 20 98 31t87.5 15.5t88 -1.5t78.5 -11t83.5 -23t78.5 -27t86 -33z" />
    <glyph glyph-name="khahar.medi.alt" horiz-adv-x="2023" 
d="M1165 1493l185 -182l-185 -187l-182 187zM1692 420q69 -53 333 -53v-367q-124 0 -221.5 17.5t-159.5 45.5t-106 69.5t-66 83t-34 91.5l-80 -43q-91 -50 -142 -76.5t-143 -68t-162.5 -63.5t-163.5 -39t-182 -17h-559l-104 20v324l104 23h557q259 0 787 161q-75 19 -136 39
q-17 5 -67.5 20.5t-69 20.5t-62.5 17t-66 14.5t-61.5 8t-67 2.5t-64 -7t-70.5 -14.5t-70 -26.5l46 311q49 20 98 31t87.5 15.5t88 -1.5t78.5 -11t83.5 -23t78.5 -27t86 -33q85 -32 136.5 -49.5t138 -41.5t174.5 -35t183 -11l-34 -278q-76 0 -168 -29z" />
    <glyph glyph-name="khahar.init.alt" horiz-adv-x="2025" 
d="M1165 1493l185 -182l-185 -187l-182 187zM1262 864q85 -32 136.5 -49.5t138 -41.5t174.5 -35t183 -11l-34 -278q-57 -1 -117.5 -14.5t-129.5 -43.5t-120 -55.5t-135 -71.5q-91 -50 -142 -76.5t-143 -68t-162.5 -63.5t-163.5 -39t-182 -17h-559l-104 20v324l104 23h557
q259 0 787 161q-75 19 -136 39q-17 5 -67.5 20.5t-69 20.5t-62.5 17t-66 14.5t-61.5 8t-67 2.5t-64 -7t-70.5 -14.5t-70 -26.5l46 311q49 20 98 31t87.5 15.5t88 -1.5t78.5 -11t83.5 -23t78.5 -27t86 -33z" />
    <glyph glyph-name="dalar.alt" horiz-adv-x="1329" 
d="M145 293l134 231q91 -84 188 -116.5t209 -32.5q134 0 194 19t60 71q0 23 -7.5 47t-26.5 53.5t-38.5 55.5t-56 67t-66 72.5t-83 87.5t-91.5 98l189 277q77 -75 134 -138t115.5 -140.5t95.5 -149t60 -154.5t23 -166q0 -236 -128 -354.5t-399 -118.5q-203 0 -331 76.5
t-175 214.5z" />
    <glyph glyph-name="dalar.fina.alt" horiz-adv-x="1447" 
d="M154 258l135 256q71 -82 175.5 -121t207.5 -39q212 0 252 84l-226 629l279 129l209 -616q40 -119 96.5 -166t165.5 -47v-367q-160 0 -249 62t-146 192q-88 -272 -420 -272q-168 0 -297.5 79t-181.5 197z" />
    <glyph glyph-name="thalar.alt" horiz-adv-x="1329" 
d="M838 1571l-185 -187l-182 187l182 182zM145 293l134 231q91 -84 188 -116.5t209 -32.5q134 0 194 19t60 71q0 23 -7.5 47t-26.5 53.5t-38.5 55.5t-56 67t-66 72.5t-83 87.5t-91.5 98l189 277q77 -75 134 -138t115.5 -140.5t95.5 -149t60 -154.5t23 -166
q0 -236 -128 -354.5t-399 -118.5q-203 0 -331 76.5t-175 214.5z" />
    <glyph glyph-name="thalar.fina.alt" horiz-adv-x="1447" 
d="M938 1477l-184 -187l-183 187l183 182zM154 258l135 256q71 -82 175.5 -121t207.5 -39q212 0 252 84l-226 629l279 129l209 -616q40 -119 96.5 -166t165.5 -47v-367q-160 0 -249 62t-146 192q-88 -272 -420 -272q-168 0 -297.5 79t-181.5 197z" />
    <glyph glyph-name="rehar.ain" horiz-adv-x="854" 
d="M772 432q0 -154 -44 -285t-120 -221t-180 -140t-223 -50q-136 0 -281 67v324q166 -21 221 -21q353 0 353 359q0 209 -107 502l271 77q53 -121 81.5 -291t28.5 -321z" />
    <glyph glyph-name="rehar.alt" horiz-adv-x="1028" 
d="M924 301q0 -152 -36 -282.5t-99.5 -229t-154 -177t-196 -131.5t-229.5 -87l-109 375q42 6 103 29t136 69.5t138.5 105.5t106.5 146.5t43 183.5q0 109 -16 191.5t-66 218.5l297 71q34 -69 58 -206.5t24 -276.5z" />
    <glyph glyph-name="rehar.narrow" horiz-adv-x="831" 
d="M752 301q0 -149 -47 -285t-130.5 -243.5t-186 -192t-224.5 -147.5l-115 374q58 24 113.5 55t114.5 77.5t102.5 98.5t71.5 121.5t28 143.5q0 92 -37.5 214t-68.5 188l282 79q5 -15 24 -77.5t22.5 -75.5t16.5 -60t15.5 -66.5t9 -58.5t8 -72t1.5 -73z" />
    <glyph glyph-name="rehar.fina.alt" horiz-adv-x="1230" 
d="M1231 367v-367q-174 0 -268 78q-104 -491 -717 -662l-109 351q69 19 133.5 43.5t144.5 70.5t137.5 101.5t97.5 139.5t40 181q0 179 -92 447l283 84q41 -121 69 -256q14 -49 30.5 -81t47 -65t81 -49t122.5 -16z" />
    <glyph glyph-name="rehar.fina.narrow" horiz-adv-x="972" 
d="M973 367v-367q-173 0 -266 80q-50 -215 -192.5 -388t-340.5 -286l-129 375q80 39 148.5 86.5t131.5 112t99.5 148t36.5 175.5q0 25 -3 51t-5.5 45.5t-11.5 51t-12.5 45.5t-18 53.5t-18.5 50.5t-23 59.5t-23 59.5l289 86q53 -113 82 -313q28 -67 82.5 -96t173.5 -29z" />
    <glyph glyph-name="zainar.fina.alt" horiz-adv-x="1230" 
d="M731 1366l184 -182l-184 -187l-182 187zM1231 367v-367q-174 0 -268 78q-104 -491 -717 -662l-109 351q69 19 133.5 43.5t144.5 70.5t137.5 101.5t97.5 139.5t40 181q0 179 -92 447l283 84q41 -121 69 -256q14 -49 30.5 -81t47 -65t81 -49t122.5 -16z" />
    <glyph glyph-name="zainar.fina.narrow" horiz-adv-x="972" 
d="M432 1374l184 -182l-184 -186l-182 186zM973 367v-367q-173 0 -266 80q-50 -215 -192.5 -388t-340.5 -286l-129 375q80 39 148.5 86.5t131.5 112t99.5 148t36.5 175.5q0 25 -3 51t-5.5 45.5t-11.5 51t-12.5 45.5t-18 53.5t-18.5 50.5t-23 59.5t-23 59.5l289 86
q53 -113 82 -313q28 -67 82.5 -96t173.5 -29z" />
    <glyph glyph-name="zainar.alt" horiz-adv-x="1028" 
d="M852 1155l-184 -186l-183 186l183 182zM924 301q0 -152 -36 -282.5t-99.5 -229t-154 -177t-196 -131.5t-229.5 -87l-109 375q42 6 103 29t136 69.5t138.5 105.5t106.5 146.5t43 183.5q0 109 -16 191.5t-66 218.5l297 71q34 -69 58 -206.5t24 -276.5z" />
    <glyph glyph-name="zainar.narrow" horiz-adv-x="831" 
d="M647 1219l-184 -187l-182 187l182 182zM752 301q0 -149 -47 -285t-130.5 -243.5t-186 -192t-224.5 -147.5l-115 374q58 24 113.5 55t114.5 77.5t102.5 98.5t71.5 121.5t28 143.5q0 92 -37.5 214t-68.5 188l282 79q5 -15 24 -77.5t22.5 -75.5t16.5 -60t15.5 -66.5t9 -58.5
t8 -72t1.5 -73z" />
    <glyph glyph-name="seenar.swsh" horiz-adv-x="4812" 
d="M4387 864l272 41q38 -71 60 -194.5t22 -231.5q0 -104 -23.5 -190t-70.5 -151.5t-124.5 -101.5t-180.5 -36q-241 0 -328 203q-41 -104 -116.5 -151t-200.5 -52q-63 3 -129 23q-26 -127 -136 -233.5t-278.5 -181t-391 -126t-470.5 -74t-520.5 -19.5t-537.5 32t-525 86
t-480 137l-168 440q264 -122 691.5 -201t872.5 -92t839 23t635 152t217 288q-31 298 -82 455l250 45q25 -67 45 -141.5t29 -112t28 -72.5t51.5 -48t89.5 -13t90.5 9t53 40.5t26 57.5t17.5 95q1 7 2 11l20 137l246 20v-157q0 -113 40 -162t118 -51q127 0 127 147
q0 120 -80 350z" />
    <glyph glyph-name="seenar.fina.swsh" horiz-adv-x="4988" 
d="M4725 498l20 10q3 -7 6.5 -25.5t7 -31.5t18.5 -30t38.5 -28t69 -18.5t108.5 -7.5v-367q-250 0 -369 129q-104 -129 -299 -129q-238 0 -325 203q-40 -104 -117 -151t-203 -52q-63 3 -129 23q-26 -127 -135.5 -233.5t-277.5 -181t-390.5 -126t-470.5 -74t-520.5 -19.5
t-538 32t-525.5 86t-480 137l-168 440q265 -122 692.5 -201t872 -92t838.5 23.5t634.5 152t216.5 287.5q-25 279 -82 455l250 45q26 -67 46 -141.5t29.5 -112t28.5 -72.5t51 -48t89 -13q106 0 141 45q26 32 41 130q2 10 6 38l21 137l246 20v-157q0 -113 39.5 -162t119.5 -51
q127 0 127 147q0 123 -82 350l275 41q36 -68 57 -184t23 -223z" />
    <glyph glyph-name="seenar.medi.alt" horiz-adv-x="2433" 
d="M2437 367v-367q-232 0 -354 115q-105 -115 -287 -115q-241 0 -326 199q-74 -199 -272 -199q-101 0 -178 54t-121 155q-82 -203 -334 -209h-559l-104 20v324l104 23h553q65 0 105 10t66 38t39.5 63.5t27.5 99.5l20 96l248 20v-114q0 -118 34 -164.5t115 -48.5q46 1 72.5 8
t42.5 37.5t20.5 52t14.5 90.5q3 16 4 25l21 135l247 20v-155q0 -113 40 -162t118 -51q127 0 127 147q0 68 -11 125t-48 158l252 63q37 -72 58 -170t23 -198q7 -45 18 -62q44 -63 224 -63z" />
    <glyph glyph-name="seenar.init.alt" horiz-adv-x="2267" 
d="M1862 797l252 63q39 -73 60 -175.5t21 -205.5q0 -104 -23.5 -190t-70.5 -151.5t-124.5 -101.5t-180.5 -36q-241 0 -326 199q-74 -199 -272 -199q-101 0 -178 54t-121 155q-82 -203 -334 -209h-559l-104 20v324l104 23h553q65 0 105 10t66 38t39.5 63.5t27.5 99.5l20 96
l248 20v-114q0 -118 34 -164.5t115 -48.5q46 1 72.5 8t42.5 37.5t20.5 52t14.5 90.5q3 16 4 25l21 135l247 20v-155q0 -113 40 -162t118 -51q127 0 127 147q0 68 -11 125t-48 158z" />
    <glyph glyph-name="sheenar.swsh" horiz-adv-x="4812" 
d="M4049 1896l184 -182l-184 -186l-182 186zM4213 1233l-160 162l-162 -162l-182 184l182 185l162 -162l160 162l184 -185zM4387 864l272 41q38 -71 60 -194.5t22 -231.5q0 -104 -23.5 -190t-70.5 -151.5t-124.5 -101.5t-180.5 -36q-241 0 -328 203q-41 -104 -116.5 -151
t-200.5 -52q-63 3 -129 23q-26 -127 -136 -233.5t-278.5 -181t-391 -126t-470.5 -74t-520.5 -19.5t-537.5 32t-525 86t-480 137l-168 440q264 -122 691.5 -201t872.5 -92t839 23t635 152t217 288q-31 298 -82 455l250 45q25 -67 45 -141.5t29 -112t28 -72.5t51.5 -48
t89.5 -13t90.5 9t53 40.5t26 57.5t17.5 95q1 7 2 11l20 137l246 20v-157q0 -113 40 -162t118 -51q127 0 127 147q0 120 -80 350z" />
    <glyph glyph-name="sheenar.fina.swsh" horiz-adv-x="4988" 
d="M4035 1896l184 -182l-184 -186l-183 186zM4198 1233l-159 162l-162 -162l-182 184l182 185l162 -162l159 162l185 -185zM4725 498l20 10q3 -7 6.5 -25.5t7 -31.5t18.5 -30t38.5 -28t69 -18.5t108.5 -7.5v-367q-250 0 -369 129q-104 -129 -299 -129q-238 0 -325 203
q-40 -104 -117 -151t-203 -52q-63 3 -129 23q-26 -127 -135.5 -233.5t-277.5 -181t-390.5 -126t-470.5 -74t-520.5 -19.5t-538 32t-525.5 86t-480 137l-168 440q265 -122 692.5 -201t872 -92t838.5 23.5t634.5 152t216.5 287.5q-25 279 -82 455l250 45q26 -67 46 -141.5
t29.5 -112t28.5 -72.5t51 -48t89 -13q106 0 141 45q26 32 41 130q2 10 6 38l21 137l246 20v-157q0 -113 39.5 -162t119.5 -51q127 0 127 147q0 123 -82 350l275 41q36 -68 57 -184t23 -223z" />
    <glyph glyph-name="sheenar.medi.alt" horiz-adv-x="2433" 
d="M1505 1634l185 -182l-185 -186l-182 186zM1669 971l-160 162l-161 -162l-183 184l183 184l161 -161l160 161l184 -184zM2437 367v-367q-232 0 -354 115q-105 -115 -287 -115q-241 0 -326 199q-74 -199 -272 -199q-101 0 -178 54t-121 155q-82 -203 -334 -209h-559
l-104 20v324l104 23h553q65 0 105 10t66 38t39.5 63.5t27.5 99.5l20 96l248 20v-114q0 -118 34 -164.5t115 -48.5q46 1 72.5 8t42.5 37.5t20.5 52t14.5 90.5q3 16 4 25l21 135l247 20v-155q0 -113 40 -162t118 -51q127 0 127 147q0 68 -11 125t-48 158l252 63
q37 -72 58 -170t23 -198q7 -45 18 -62q44 -63 224 -63z" />
    <glyph glyph-name="sheenar.init.alt" horiz-adv-x="2267" 
d="M1503 1634l185 -182l-185 -186l-182 186zM1667 971l-160 162l-161 -162l-183 184l183 184l161 -161l160 161l184 -184zM1862 797l252 63q39 -73 60 -175.5t21 -205.5q0 -104 -23.5 -190t-70.5 -151.5t-124.5 -101.5t-180.5 -36q-241 0 -326 199q-74 -199 -272 -199
q-101 0 -178 54t-121 155q-82 -203 -334 -209h-559l-104 20v324l104 23h553q65 0 105 10t66 38t39.5 63.5t27.5 99.5l20 96l248 20v-114q0 -118 34 -164.5t115 -48.5q46 1 72.5 8t42.5 37.5t20.5 52t14.5 90.5q3 16 4 25l21 135l247 20v-155q0 -113 40 -162t118 -51
q127 0 127 147q0 68 -11 125t-48 158z" />
    <glyph glyph-name="sadar.swsh" horiz-adv-x="5009" 
d="M4446 961q118 0 219.5 -65t162.5 -179t61 -248q0 -105 -35 -187t-94 -134t-143 -86t-175.5 -48t-198.5 -14h-423q-140 3 -236 53q-28 -156 -153 -279t-315 -200t-434.5 -125.5t-511 -61.5t-545.5 -2.5t-536.5 45.5t-484 89.5t-389.5 122.5l-170 436q157 -74 385.5 -133.5
t485.5 -98t538 -57t546 -16t505 32t419 81t284.5 135.5t105.5 191q0 159 -90 508l274 72q28 -92 57 -263q20 -65 51.5 -101t92.5 -50q82 138 169.5 244t163.5 168.5t154 102t139 53.5t121 14zM4223 367q100 0 169 4.5t131 16.5t93 36.5t31 62.5q0 51 -69 88t-152 37
q-136 0 -244 -62t-221 -183h262z" />
    <glyph glyph-name="sadar.fina.swsh" horiz-adv-x="5134" 
d="M4889 489q12 -122 245 -122v-367q-263 0 -381 143q-164 -141 -510 -141h-423q-140 3 -236 53q-28 -157 -153 -280t-315 -200t-434.5 -125.5t-511 -61.5t-545.5 -2.5t-536.5 45.5t-484 89t-389.5 122l-170 436q157 -74 385.5 -133.5t485.5 -98t538 -57t546 -15.5t504.5 32
t419 81t285 136t105.5 192q0 159 -90 508l274 70q28 -92 57 -263q20 -66 51.5 -101.5t92.5 -49.5q82 138 169.5 244t163.5 168.5t154 102t139 53.5t121 14q176 0 306.5 -137.5t136.5 -334.5zM4223 367q100 0 169 4.5t131 16.5t93 37.5t31 63.5q0 51 -69 88t-152 37
q-136 0 -245.5 -62.5t-221.5 -184.5h264z" />
    <glyph glyph-name="sadar.medi.alt" horiz-adv-x="2656" 
d="M2408 506q3 -7 7 -25.5t7.5 -31t18.5 -29.5t39 -27.5t69 -18t107 -7.5v-367q-260 0 -383 141q-164 -141 -510 -141h-565v2q-245 17 -328 203q-80 -199 -305 -205h-559l-104 20v324l104 23h547q113 0 156.5 44t58.5 164l20 160l246 21v-181q0 -106 41.5 -153t136.5 -53
q82 140 170.5 248t166 171.5t157 104t141 54.5t121.5 14q171 0 299.5 -132t140.5 -323zM1745 367q79 0 137 2.5t114.5 10t92 20.5t57 35t21.5 52q0 51 -68.5 88t-152.5 37q-134 0 -243 -62.5t-220 -182.5h262z" />
    <glyph glyph-name="sadar.init.alt" horiz-adv-x="2465" 
d="M1968 961q88 0 169.5 -38.5t141 -104t95.5 -157t36 -192.5q0 -105 -35 -187t-94.5 -134t-143.5 -86t-175.5 -48t-198.5 -14h-565v2q-245 17 -328 203q-80 -199 -305 -205h-559l-104 20v324l104 23h547q113 0 156.5 44t58.5 164l20 160l246 21v-181q0 -106 41.5 -153
t136.5 -53q82 140 170.5 248t166 171.5t157 104t141 54.5t121.5 14zM1745 367q79 0 137 2.5t114.5 10t92 20.5t57 35t21.5 52q0 51 -68.5 88t-152.5 37q-134 0 -243 -62.5t-220 -182.5h262z" />
    <glyph glyph-name="dadar.swsh" horiz-adv-x="5009" 
d="M4383 1518l184 -183l-184 -186l-183 186zM4446 961q118 0 219.5 -65t162.5 -179t61 -248q0 -105 -35 -187t-94 -134t-143 -86t-175.5 -48t-198.5 -14h-423q-140 3 -236 53q-28 -156 -153 -279t-315 -200t-434.5 -125.5t-511 -61.5t-545.5 -2.5t-536.5 45.5t-484 89.5
t-389.5 122.5l-170 436q157 -74 385.5 -133.5t485.5 -98t538 -57t546 -16t505 32t419 81t284.5 135.5t105.5 191q0 159 -90 508l274 72q28 -92 57 -263q20 -65 51.5 -101t92.5 -50q82 138 169.5 244t163.5 168.5t154 102t139 53.5t121 14zM4223 367q100 0 169 4.5t131 16.5
t93 36.5t31 62.5q0 51 -69 88t-152 37q-136 0 -244 -62t-221 -183h262z" />
    <glyph glyph-name="dadar.fina.swsh" horiz-adv-x="5134" 
d="M4383 1518l184 -183l-184 -186l-183 186zM4889 489q12 -122 245 -122v-367q-263 0 -381 143q-164 -141 -510 -141h-423q-140 3 -236 53q-28 -157 -153 -280t-315 -200t-434.5 -125.5t-511 -61.5t-545.5 -2.5t-536.5 45.5t-484 89t-389.5 122l-170 436
q157 -74 385.5 -133.5t485.5 -98t538 -57t546 -15.5t504.5 32t419 81t285 136t105.5 192q0 159 -90 508l274 70q28 -92 57 -263q20 -66 51.5 -101.5t92.5 -49.5q82 138 169.5 244t163.5 168.5t154 102t139 53.5t121 14q176 0 306.5 -137.5t136.5 -334.5zM4223 367
q100 0 169 4.5t131 16.5t93 37.5t31 63.5q0 51 -69 88t-152 37q-136 0 -245.5 -62.5t-221.5 -184.5h264z" />
    <glyph glyph-name="dadar.medi.alt" horiz-adv-x="2656" 
d="M1880 1532l184 -182l-184 -187l-182 187zM2408 506q3 -7 7 -25.5t7.5 -31t18.5 -29.5t39 -27.5t69 -18t107 -7.5v-367q-260 0 -383 141q-164 -141 -510 -141h-565v2q-245 17 -328 203q-80 -199 -305 -205h-559l-104 20v324l104 23h547q113 0 156.5 44t58.5 164l20 160
l246 21v-181q0 -106 41.5 -153t136.5 -53q82 140 170.5 248t166 171.5t157 104t141 54.5t121.5 14q171 0 299.5 -132t140.5 -323zM1745 367q79 0 137 2.5t114.5 10t92 20.5t57 35t21.5 52q0 51 -68.5 88t-152.5 37q-134 0 -243 -62.5t-220 -182.5h262z" />
    <glyph glyph-name="dadar.init.alt" horiz-adv-x="2465" 
d="M1880 1532l184 -182l-184 -187l-182 187zM1968 961q88 0 169.5 -38.5t141 -104t95.5 -157t36 -192.5q0 -105 -35 -187t-94.5 -134t-143.5 -86t-175.5 -48t-198.5 -14h-565v2q-245 17 -328 203q-80 -199 -305 -205h-559l-104 20v324l104 23h547q113 0 156.5 44t58.5 164
l20 160l246 21v-181q0 -106 41.5 -153t136.5 -53q82 140 170.5 248t166 171.5t157 104t141 54.5t121.5 14zM1745 367q79 0 137 2.5t114.5 10t92 20.5t57 35t21.5 52q0 51 -68.5 88t-152.5 37q-134 0 -243 -62.5t-220 -182.5h262z" />
    <glyph glyph-name="tahar.medi.alt" horiz-adv-x="1970" 
d="M1733 463q4 -20 14.5 -34.5t34.5 -30t71.5 -23.5t116.5 -8v-367q-258 0 -379 139q-165 -139 -506 -139h-1085v2l-98 18v324l98 21v2h535q56 98 122 190l-36 1004l288 20l15 -752q182 132 364 132q118 0 220 -65t163.5 -179t61.5 -248v-6zM1065 367q100 0 169 4.5
t131 16.5t93 36.5t31 62.5q0 51 -69 88t-152 37q-136 0 -244 -62t-221 -183h262z" />
    <glyph glyph-name="tahar.init.alt" horiz-adv-x="1822" 
d="M1290 961q118 0 220 -65t163.5 -179t61.5 -248q0 -105 -35 -187t-94.5 -134t-144 -86t-176 -48t-198.5 -14h-1085v2l-98 18v324l98 21v2h535q56 98 122 190l-36 1004l288 20l15 -752q182 132 364 132zM1069 367q79 0 137 2.5t114.5 10t92 20.5t57 35t21.5 52q0 51 -69 88
t-152 37q-134 0 -243.5 -62t-221.5 -183h264z" />
    <glyph glyph-name="zahar.medi.alt" horiz-adv-x="1970" 
d="M1733 463q4 -20 14.5 -34.5t34.5 -30t71.5 -23.5t116.5 -8v-367q-258 0 -379 139q-165 -139 -506 -139h-1085v2l-98 18v324l98 21v2h535q56 98 122 190l-36 1004l288 20l15 -752q182 132 364 132q118 0 220 -65t163.5 -179t61.5 -248v-6zM1362 1556l184 -182l-184 -186
l-182 186zM1065 367q100 0 169 4.5t131 16.5t93 36.5t31 62.5q0 51 -69 88t-152 37q-136 0 -244 -62t-221 -183h262z" />
    <glyph glyph-name="zahar.init.alt" horiz-adv-x="1822" 
d="M1290 961q118 0 220 -65t163.5 -179t61.5 -248q0 -105 -35 -187t-94.5 -134t-144 -86t-176 -48t-198.5 -14h-1085v2l-98 18v324l98 21v2h535q56 98 122 190l-36 1004l288 20l15 -752q182 132 364 132zM1366 1556l184 -182l-184 -186l-182 186zM1069 367q79 0 137 2.5
t114.5 10t92 20.5t57 35t21.5 52q0 51 -69 88t-152 37q-134 0 -243.5 -62t-221.5 -183h264z" />
    <glyph glyph-name="ainar.medi.alt" horiz-adv-x="2015" 
d="M2015 367v-367q-222 0 -400.5 74t-346.5 202q-119 -80 -222 -136t-232.5 -97.5t-246.5 -42.5h-559l-104 20v324l104 23h572q226 0 454 106q-125 105 -213 158.5t-180 58.5l39 266q142 82 305 121.5t322 35.5t309.5 -39.5t281.5 -100.5l-43 -305q-35 -4 -91.5 -35.5
t-99.5 -62.5t-136 -101q209 -102 487 -102zM1030 803q24 -10 49 -24.5t41.5 -24.5t46.5 -32t39 -29t45 -35.5t41 -32.5q37 25 90.5 63.5t93 65.5t70.5 45q-114 29 -256.5 30t-259.5 -26z" />
    <glyph glyph-name="ainar.init.alt" horiz-adv-x="1658" 
d="M1602 508l-41 -363q-416 -142 -994 -145h-559l-104 20v324l104 23h535h24h140q-64 104 -64 223q0 138 74.5 248t196 168.5t264.5 58.5q153 0 297 -72l-109 -317q-125 41 -229 41q-114 0 -177 -42t-63 -106q0 -151 250 -151q152 0 455 90z" />
    </font>
</defs>
</svg>
