<?xml version="1.0" standalone="no"?>
<!DOCTYPE svg PUBLIC "-//W3C//DTD SVG 1.1//EN" "http://www.w3.org/Graphics/SVG/1.1/DTD/svg11.dtd" >
<svg xmlns="http://www.w3.org/2000/svg" xmlns:xlink="http://www.w3.org/1999/xlink" version="1.1">
<metadata>
Created by FontForge 20170731 at Wed Dec  6 12:09:00 2023
 By Aleksey,,,
Copyright (c) 2022 HadiType Foundry. All rights reserved.
</metadata>
<defs>
<font id="HTRakikDisplay-Regular" horiz-adv-x="0" >
  <font-face 
    font-family="HT Rakik Display"
    font-weight="400"
    font-stretch="normal"
    units-per-em="2048"
    panose-1="0 0 5 0 0 0 0 0 0 0"
    ascent="1638"
    descent="-410"
    x-height="1073"
    cap-height="1440"
    bbox="-408 -1194 4905 2437"
    underline-thickness="0"
    underline-position="-966"
    unicode-range="U+000D-FEFC"
  />
<missing-glyph horiz-adv-x="1171" 
 />
    <glyph glyph-name="allahar" unicode="&#x627;&#xfedf;&#xfee0;&#xfeea;" horiz-adv-x="2727" arabic-form="isolated" 
d="M1217 2406l118 31q32 -109 43.5 -192t3.5 -197l-88 -14q0 192 -77 372zM1110 1831l88 29q-20 -55 -21.5 -94t15.5 -58.5t51 -19.5q26 0 41.5 23t15.5 63v110l91 27v-117q0 -38 18.5 -60t52.5 -22q62 0 62 100q0 63 -27 119l86 27q33 -90 33 -172q0 -92 -42.5 -145.5
t-117.5 -53.5q-64 0 -102 68q-19 -42 -52.5 -68t-72.5 -26q-89 0 -123 76.5t4 193.5zM2523 1538l31 -1538h-137l-50 1518zM1880 1384l145 21l37 -1002q6 -196 -83.5 -299.5t-274.5 -103.5q-111 0 -197 43.5t-118 130.5q-35 -83 -117 -128.5t-187 -45.5q-142 0 -237 75
t-117 230q-66 -40 -159.5 -71t-170.5 -31q-159 0 -241 64t-82 182q0 381 641 565v73l145 21l-20 -682q-4 -127 63.5 -185.5t179.5 -58.5q54 0 95 10t74.5 33.5t50 67.5t14.5 108l-27 871l146 20l8 -891q1 -64 19.5 -108t54.5 -67.5t79.5 -33t102.5 -10.5q57 1 98 10t74 31
t48.5 63t12.5 101zM211 489q0 -118 215 -118q78 0 161 27t134 61l-2 399q-250 -77 -379 -172t-129 -197z" />
    <glyph glyph-name="lam_alefMaddaar" unicode="&#xfedf;&#xfe82;" horiz-adv-x="1376" arabic-form="isolated" 
d="M188 1350l-92 30q12 80 55.5 124t112.5 44q47 0 132.5 -25.5t133.5 -25.5q68 0 129 47l19 -86q-54 -67 -166 -67q-42 0 -112 20.5t-111 20.5q-79 0 -101 -82zM150 23l-21 163q118 -16 280 -21.5t240 1.5q-70 415 -297 969l142 45q225 -572 297 -1000q69 9 118 26.5t88 49
t57 84t15 125.5l-41 1053l146 20l28 -1110q2 -84 -23.5 -151.5t-64 -113.5t-106 -78.5t-125.5 -51.5t-149.5 -27t-151 -10t-157 3.5t-139.5 9.5t-126 13q-7 1 -10 1z" />
    <glyph glyph-name="lam_alefMaddaar.fina" unicode="&#xfee0;&#xfe82;" horiz-adv-x="1456" arabic-form="final" 
d="M160 1364l-92 31q12 80 55.5 124t112.5 44q47 0 132.5 -26t133.5 -26q66 0 129 48l18 -86q-55 -68 -166 -68q-42 0 -112 20.5t-111 20.5q-78 0 -100 -82zM1456 182v-182q-295 0 -346 205q-23 -55 -73 -95t-110.5 -63t-144.5 -35.5t-158.5 -15.5t-171 1t-163 10t-152.5 16
l-16 167q125 -15 277 -22.5t235 -1.5q-72 433 -293 969l143 45q207 -517 295 -1000q139 19 212 82.5t69 190.5l-41 1065l145 20l35 -1120q2 -72 20 -119.5t53.5 -72.5t78.5 -34.5t106 -9.5z" />
    <glyph glyph-name="lam_alefHamzaabovear" unicode="&#xfedf;&#xfe84;" horiz-adv-x="1376" arabic-form="isolated" 
d="M645 1483v-99q-39 -6 -213.5 -15.5t-234.5 -20.5v94q71 11 102 14q-45 48 -45 123q0 78 60 132t143 54q73 0 123 -36v-97q-54 31 -115 31q-52 0 -86.5 -22t-34.5 -60q0 -82 109 -106q88 0 192 8zM1174 1538l28 -1110q2 -84 -23.5 -151.5t-64 -113.5t-106 -78.5
t-125.5 -51.5t-149.5 -27t-151 -10t-157 3.5t-139.5 9.5t-126 13q-7 1 -10 1l-21 163q118 -16 280 -21.5t240 1.5q-70 415 -297 969l142 45q225 -572 297 -1000q69 9 118 26.5t88 49t57 84t15 125.5l-41 1053z" />
    <glyph glyph-name="lam_alefHamzaabovear.fina" unicode="&#xfee0;&#xfe84;" horiz-adv-x="1456" arabic-form="final" 
d="M616 1499v-98q-39 -6 -213.5 -16t-234.5 -21v94q84 14 102 15q-45 48 -45 122q0 79 60 133t143 54q71 0 123 -37v-96q-52 30 -115 30q-52 0 -86.5 -22t-34.5 -60q0 -82 109 -106q88 0 192 8zM1163 1538l35 -1120q2 -72 20 -119.5t53.5 -72.5t78.5 -34.5t106 -9.5v-182
q-295 0 -346 205q-23 -55 -73 -95t-110.5 -63t-144.5 -35.5t-158.5 -15.5t-171 1t-163 10t-152.5 16l-16 167q125 -15 277 -22.5t235 -1.5q-72 433 -293 969l143 45q207 -517 295 -1000q139 19 212 82.5t69 190.5l-41 1065z" />
    <glyph glyph-name="lam_alefHamzabelowar" unicode="&#xfedf;&#xfe88;" horiz-adv-x="1376" arabic-form="isolated" 
d="M1174 1538l28 -1110q2 -84 -23.5 -151.5t-64 -113.5t-106 -78.5t-125.5 -51.5t-149.5 -27t-151 -10t-157 3.5t-139.5 9.5t-126 13q-7 1 -10 1l-21 163q118 -16 280 -21.5t240 1.5q-70 415 -297 969l142 45q225 -572 297 -1000q69 9 118 26.5t88 49t57 84t15 125.5
l-41 1053zM444 -385q0 -83 111 -107q76 0 190 9v-97q-42 -8 -215.5 -17t-232.5 -19v94q84 12 102 14q-45 48 -45 121q0 81 60 134.5t145 53.5q70 0 121 -39v-96q-50 33 -115 33q-50 0 -85.5 -22.5t-35.5 -61.5z" />
    <glyph glyph-name="lam_alefHamzabelowar.fina" unicode="&#xfee0;&#xfe88;" horiz-adv-x="1456" arabic-form="final" 
d="M1163 1538l35 -1120q2 -72 20 -119.5t53.5 -72.5t78.5 -34.5t106 -9.5v-182q-295 0 -346 205q-23 -55 -73 -95t-110.5 -63t-144.5 -35.5t-158.5 -15.5t-171 1t-163 10t-152.5 16l-16 167q125 -15 277 -22.5t235 -1.5q-72 433 -293 969l143 45q207 -517 295 -1000
q139 19 212 82.5t69 190.5l-41 1065zM553 -393q0 -83 111 -107q89 0 190 8v-96q-42 -8 -215.5 -17.5t-232.5 -19.5v95q84 12 102 14q-45 48 -45 121q0 81 60 134.5t145 53.5q69 0 120 -39v-96q-50 33 -114 33q-50 0 -85.5 -22.5t-35.5 -61.5z" />
    <glyph glyph-name="lam_alefar" unicode="&#xfedf;&#xfe8e;" horiz-adv-x="1376" arabic-form="isolated" 
d="M150 23l-21 163q118 -16 280 -21.5t240 1.5q-70 415 -297 969l142 45q225 -572 297 -1000q69 9 118 26.5t88 49t57 84t15 125.5l-41 1053l146 20l28 -1110q2 -84 -23.5 -151.5t-64 -113.5t-106 -78.5t-125.5 -51.5t-149.5 -27t-151 -10t-157 3.5t-139.5 9.5t-126 13
q-7 1 -10 1z" />
    <glyph glyph-name="lam_alefar.fina" unicode="&#xfee0;&#xfe8e;" horiz-adv-x="1456" arabic-form="final" 
d="M1456 182v-182q-295 0 -346 205q-23 -55 -73 -95t-110.5 -63t-144.5 -35.5t-158.5 -15.5t-171 1t-163 10t-152.5 16l-16 167q125 -15 277 -22.5t235 -1.5q-72 433 -293 969l143 45q207 -517 295 -1000q139 19 212 82.5t69 190.5l-41 1065l145 20l35 -1120
q2 -72 20 -119.5t53.5 -72.5t78.5 -34.5t106 -9.5z" />
    <glyph glyph-name="behDotlessar.init" unicode="&#x66e;" horiz-adv-x="583" 
d="M410 395q0 -189 -106.5 -292t-301.5 -103h-2l-43 16v148l43 16v2q137 0 203.5 52.5t66.5 158.5q0 129 -77 398l137 30q34 -93 57 -209.5t23 -216.5z" />
    <glyph glyph-name="behDotlessar.medi" unicode="&#x66e;" horiz-adv-x="671" 
d="M408 612v-196q0 -73 17.5 -120.5t54.5 -71.5t81.5 -33t112.5 -9v-182q-291 0 -352 195q-29 -96 -113 -145.5t-207 -49.5h-2l-43 16v148l43 18q63 0 104 8.5t76.5 33t56 71.5t29.5 121l21 176z" />
    <glyph glyph-name="behDotlessar.fina" unicode="&#x66e;" horiz-adv-x="1888" 
d="M1090 0h-435q-598 0 -598 469q0 168 66 338l137 -35q-47 -158 -47 -266q0 -169 108 -246.5t341 -77.5h423q200 0 295 56.5t109 181.5l20 176l121 20v-202q0 -72 16.5 -119t52 -71t79 -33t110.5 -9v-182q-295 0 -342 205q-91 -205 -456 -205z" />
    <glyph glyph-name="qafDotlessar.fina" unicode="&#x66f;" horiz-adv-x="1579" 
d="M1436 182h143v-182h-164q-53 -244 -228.5 -373t-459.5 -129q-297 0 -463 164.5t-166 429.5q0 218 101 445l118 -41q-79 -195 -79 -365q0 -209 132.5 -332t379.5 -123q216 0 351 82.5t179 241.5h-213q-183 0 -285 97.5t-102 254.5q0 110 46 210t133.5 165.5t195.5 65.5
q76 0 147 -47.5t123.5 -128t83 -195t27.5 -240.5zM1049 182h256q-4 108 -32 194t-69 136.5t-86.5 77t-89.5 26.5q-104 0 -168.5 -77t-64.5 -172q0 -84 69 -134.5t185 -50.5z" />
    <glyph glyph-name="ainThreedotsar.init" unicode="&#x6a0;" horiz-adv-x="1085" 
d="M485 1647l138 -140l-138 -139l-139 139zM344 1362l139 -137l-139 -142l-139 142zM764 1225l-139 -142l-140 142l140 137zM1047 297l-48 -182q-197 -51 -472 -83t-527 -32h-2l-43 16v148l43 18h266q-69 54 -105 129t-36 162q1 119 64.5 212t163.5 141t216 48
q66 0 146.5 -20t140.5 -53l-57 -142q-91 48 -238 48q-127 0 -214 -64.5t-87 -171.5q0 -62 27 -110t73.5 -76.5t105.5 -43t128 -14.5q41 0 85.5 4t97.5 13t87.5 15.5t98 19.5t86.5 18z" />
    <glyph glyph-name="ainThreedotsar.medi" unicode="&#x6a0;" horiz-adv-x="1312" 
d="M694 1528l137 -139l-137 -140l-139 140zM553 1243l139 -137l-139 -141l-139 141zM973 1106l-139 -141l-140 141l140 137zM1313 182v-182q-171 0 -321.5 64t-315.5 178q-181 -111 -351 -176.5t-339 -65.5l-52 16l7 148l45 16v2h43q229 0 522 152q-82 61 -125.5 91.5
t-111.5 72.5t-125.5 64t-114.5 30l24 164q257 113 595 111t569 -113l-29 -176q-29 -7 -62.5 -22t-82.5 -44.5t-77.5 -48t-98 -65.5t-95.5 -64q249 -152 496 -152zM287 670q48 -18 104.5 -50t93 -57t107.5 -76t100 -71q61 38 144.5 94.5t142.5 94.5t98 57q-173 54 -388.5 54
t-401.5 -46z" />
    <glyph glyph-name="ainThreedotsar.fina" unicode="&#x6a0;" horiz-adv-x="1261" 
d="M618 1583l138 -139l-138 -139l-139 139zM477 1298l139 -137l-139 -141l-139 141zM897 1161l-139 -141l-140 141l140 137zM565 348q-292 -220 -313 -418q-10 -94 30 -168t116 -118.5t180 -68.5t219.5 -22.5t237.5 25t231 68.5l-27 -178q-236 -93 -483 -93
q-136 0 -253.5 34.5t-205.5 100t-132.5 170t-31.5 234.5q17 136 95.5 275.5t232.5 259.5q-105 114 -192 174.5t-177 60.5l21 145q183 82 372.5 105t347.5 -5.5t289 -99.5l-22 -153q-188 -75 -420 -240q145 -151 268.5 -202.5t317.5 -51.5v-182q-221 0 -371.5 77t-329.5 271z
M332 745q40 -23 86.5 -61t79 -69.5t82.5 -82.5q180 133 344 211q-286 91 -592 2z" />
    <glyph glyph-name="fehDotlessar.init" unicode="&#x6a1;" horiz-adv-x="909" 
d="M819 532q3 -237 -148.5 -381.5t-418.5 -150.5h-254l-45 16v148l45 18h235q320 0 416 166q-68 -6 -139.5 0t-145.5 30t-131.5 63t-94 105t-36.5 150q0 169 106.5 285.5t254.5 116.5q157 0 256.5 -160.5t99.5 -405.5zM229 723q0 -57 30 -101.5t78.5 -69t109.5 -40.5
t121.5 -16.5t115.5 2.5q17 196 -56 319t-188 123q-87 0 -149 -62t-62 -155z" />
    <glyph glyph-name="fehDotlessar.medi" unicode="&#x6a1;" horiz-adv-x="1056" 
d="M1057 182v-182q-318 0 -539 100q-192 -100 -516 -100h-2l-43 16v148l43 18q210 0 342 27q-83 63 -129.5 151t-46.5 181q0 108 54 208t142 161t181 61q94 0 176.5 -62t129 -159t46.5 -201q0 -95 -51 -185.5t-142 -156.5q156 -25 355 -25zM285 545q0 -85 66.5 -161.5
t174.5 -119.5q107 41 176.5 116.5t69.5 158.5q0 99 -70.5 186.5t-169.5 87.5q-92 0 -169.5 -87.5t-77.5 -180.5z" />
    <glyph glyph-name="fehDotlessar.fina" unicode="&#x6a1;" horiz-adv-x="1996" 
d="M2011 182v-182q-317 0 -538 100q-189 -100 -510 -100h-287q-299 3 -457 117.5t-158 326.5q0 155 66 336l147 -20q-63 -155 -63 -281q0 -155 117 -226t370 -71h256q210 0 342 27q-83 63 -129.5 151t-46.5 181q0 108 54 208t142 161t181 61q94 0 176.5 -62t129 -159
t46.5 -201q0 -95 -50.5 -185.5t-141.5 -156.5q156 -25 354 -25zM1239 545q0 -85 67 -161t175 -120q107 41 176 116.5t69 158.5q0 99 -70 186.5t-169 87.5q-92 0 -170 -87.5t-78 -180.5z" />
    <glyph glyph-name="noonThreedotsabovear.init" unicode="&#x6bd;" horiz-adv-x="583" 
d="M213 1470l139 -139l-139 -139l-137 139zM74 1186l139 -137l-139 -142l-140 142zM492 1049l-138 -142l-139 142l139 137zM193 791l137 30q34 -93 57 -209.5t23 -216.5q0 -189 -107 -292t-301 -103h-2l-43 16v148l43 18q137 0 203.5 52.5t66.5 158.5q0 129 -77 398z" />
    <glyph glyph-name="noonThreedotsabovear.medi" unicode="&#x6bd;" horiz-adv-x="671" 
d="M313 1436l138 -140l-138 -139l-139 139zM172 1151l139 -137l-139 -142l-139 142zM592 1014l-139 -142l-140 142l140 137zM408 612v-196q0 -73 17.5 -120.5t54.5 -71.5t81.5 -33t112.5 -9v-182q-291 0 -352 195q-29 -96 -113 -145.5t-207 -49.5h-2l-43 16v148l43 18
q63 0 104 8.5t76.5 33t56 71.5t29.5 121l21 176z" />
    <glyph glyph-name="noonThreedotsabovear.fina" unicode="&#x6bd;" horiz-adv-x="1517" 
d="M678 1341l137 -139l-137 -139l-139 139zM537 1057l139 -137l-139 -142l-138 142zM956 920l-139 -142l-139 142l139 137zM1518 182v-182q-130 0 -209 70q-25 -236 -193 -370t-438 -134q-288 0 -448 145.5t-160 394.5q0 119 29 231.5t71 188.5l123 -49q-78 -179 -78 -323
q0 -188 122.5 -298t352.5 -110q221 0 351 98t130 277q0 111 -26 222t-84 267l139 41q56 -125 84 -264q32 -102 84.5 -153.5t149.5 -51.5z" />
    <glyph glyph-name="hehgoalHamzaabovear.fina" unicode="&#x6c2;" horiz-adv-x="1046" 
d="M723 1292v-98q-39 -6 -214 -16t-235 -21v94q83 13 103 15q-45 48 -45 123q0 78 60 132t143 54q70 0 122 -37v-96q-54 31 -114 31q-52 0 -86.5 -22t-34.5 -60q0 -83 108 -107q89 0 193 8zM457 940l37 70q204 -161 306 -310.5t101 -304.5q-2 -192 -106.5 -298.5
t-298.5 -106.5q-190 0 -299 102t-109 279q0 283 369 569zM496 166q135 0 204.5 58.5t69.5 166.5q0 55 -20.5 108t-63 106t-84.5 94.5t-108 99.5q-133 -108 -205 -207.5t-72 -202.5q0 -104 74.5 -163.5t204.5 -59.5z" />
    <glyph glyph-name="tehMarbutagoalar.fina" unicode="&#x6c3;" horiz-adv-x="1046" 
d="M506 1270l-139 -142l-140 142l140 137zM786 1270l-139 -142l-139 142l139 137zM496 -10q-190 0 -299 102t-109 279q0 283 369 569l37 70q204 -161 306 -310.5t101 -304.5q-2 -192 -106.5 -298.5t-298.5 -106.5zM496 166q135 0 204.5 58.5t69.5 166.5q0 55 -20.5 108
t-63 106t-84.5 94.5t-108 99.5q-133 -108 -205 -207.5t-72 -202.5q0 -104 74.5 -163.5t204.5 -59.5z" />
    <glyph glyph-name="wawDotabovear.fina" unicode="&#x6cf;" horiz-adv-x="1015" 
d="M485 1364l138 -137l-138 -142l-139 142zM874 182h142v-182h-178q-42 -141 -148.5 -256.5t-248 -189t-308.5 -109.5l-49 156q86 20 174 54.5t175 84t158 119.5t107 149h-194q-96 0 -171 30t-121 81.5t-69.5 116.5t-23.5 139q0 172 112 300t261 128q115 0 201 -87.5
t130.5 -226t50.5 -307.5zM231 379q0 -84 72.5 -140.5t204.5 -56.5h235q-8 194 -83.5 324.5t-198.5 130.5q-89 0 -159.5 -77t-70.5 -181z" />
    <glyph glyph-name="alefWaslaar.fina" unicode="&#x671;" horiz-adv-x="614" arabic-form="final" 
d="M342 1540q-42 1 -111 21t-108 20q-79 0 -103 -82l-92 31q12 80 56 124t114 44q17 0 49 -4q63 115 139 181.5t152 66.5q70 0 119 -55t49 -144q0 -68 -52.5 -122t-135.5 -73q-24 -8 -60 -8h-16zM422 1825q-50 0 -103 -40t-100 -110q94 -28 146 -28q18 0 26 2q50 9 84.5 38
t34.5 56q0 32 -27 57t-61 25zM322 1335l40 -934q4 -129 64 -174t184 -45v-182q-379 0 -393 352l-39 963z" />
    <glyph glyph-name="pehar.fina" unicode="&#x67e;" horiz-adv-x="1888" arabic-form="final" 
d="M1090 0h-435q-598 0 -598 469q0 168 66 338l137 -35q-47 -158 -47 -266q0 -169 108 -246.5t341 -77.5h423q200 0 295 56.5t109 181.5l20 176l121 20v-202q0 -72 16.5 -119t52 -71t79 -33t110.5 -9v-182q-295 0 -342 205q-91 -205 -456 -205zM596 -248l139 139l139 -139
l-139 -139zM877 -248l139 139l139 -139l-139 -139zM737 -532l140 141l137 -141l-137 -138z" />
    <glyph glyph-name="pehar.init" unicode="&#x67e;" horiz-adv-x="583" arabic-form="initial" 
d="M0 0l-43 16v148l43 18q137 0 203.5 52.5t66.5 158.5q0 129 -77 398l137 30q34 -93 57 -209.5t23 -216.5q0 -189 -107 -292t-301 -103h-2zM-16 -248l139 139l139 -139l-139 -139zM264 -248l139 139l140 -139l-140 -139zM264 -670l-139 138l139 141l137 -141z" />
    <glyph glyph-name="pehar.medi" unicode="&#x67e;" horiz-adv-x="671" arabic-form="medial" 
d="M408 612v-196q0 -73 17.5 -120.5t54.5 -71.5t81.5 -33t112.5 -9v-182q-291 0 -352 195q-29 -96 -113 -145.5t-207 -49.5h-2l-43 16v148l43 18q63 0 104 8.5t76.5 33t56 71.5t29.5 121l21 176zM31 -252l139 139l139 -139l-139 -139zM451 -391l-140 139l140 139l139 -139z
M311 -674l-139 137l139 142l138 -142z" />
    <glyph glyph-name="ttehar.fina" unicode="&#x679;" horiz-adv-x="1888" arabic-form="final" 
d="M831 766h-28q-124 -3 -209 14v105q22 -4 70 -8q3 6 8.5 15.5t10.5 17t9 12.5l-12 354h84l8 -248q68 68 143 68q54 0 95 -50.5t41 -119.5q0 -85 -54.5 -122.5t-165.5 -37.5zM983 920q0 27 -25 49t-57 22q-43 0 -85 -23t-95 -94h102h13h38.5t33.5 1.5t31.5 4.5t22 7.5
t16.5 13t5 19.5zM1630 616v-202q0 -72 16.5 -119t52 -71t79 -33t110.5 -9v-182q-295 0 -342 205q-91 -205 -456 -205h-435q-598 0 -598 469q0 168 66 338l137 -35q-47 -158 -47 -266q0 -169 108 -246.5t341 -77.5h423q200 0 295 56.5t109 181.5l20 176z" />
    <glyph glyph-name="ttehar.init" unicode="&#x679;" horiz-adv-x="583" arabic-form="initial" 
d="M348 1350q54 0 93.5 -49.5t39.5 -118.5q0 -86 -53.5 -123t-163.5 -37h-28q-127 -3 -209 14v105q23 -4 69 -8q22 35 29 45l-12 352h84l8 -246q69 66 143 66zM254 1130q101 0 126 7q36 10 36 39q0 27 -25 49t-57 22q-42 0 -84.5 -23.5t-93.5 -93.5h98zM193 791l137 30
q34 -93 57 -209.5t23 -216.5q0 -189 -107 -292t-301 -103h-2l-43 16v148l43 18q137 0 203.5 52.5t66.5 158.5q0 129 -77 398z" />
    <glyph glyph-name="ttehar.medi" unicode="&#x679;" horiz-adv-x="671" arabic-form="medial" 
d="M236 991h-29q-110 -2 -209 13v106q43 -8 68 -10q12 23 30 47l-12 352h84l8 -246q69 66 143 66q54 0 95 -50.5t41 -117.5q0 -87 -54 -123.5t-165 -36.5zM387 1145q0 27 -25 49.5t-57 22.5q-43 0 -85 -23.5t-95 -95.5h102q101 0 127 8q32 12 33 39zM408 612v-196
q0 -73 17.5 -120.5t54.5 -71.5t81.5 -33t112.5 -9v-182q-291 0 -352 195q-29 -96 -113 -145.5t-207 -49.5h-2l-43 16v148l43 18q63 0 104 8.5t76.5 33t56 71.5t29.5 121l21 176z" />
    <glyph glyph-name="vehar.fina" unicode="&#x6a4;" horiz-adv-x="1996" arabic-form="final" 
d="M1511 1589l138 -139l-138 -139l-139 139zM1370 1305l139 -138l-139 -141l-139 141zM1790 1167l-139 -141l-140 141l140 138zM2011 182v-182q-317 0 -538 100q-189 -100 -510 -100h-287q-299 3 -457 117.5t-158 326.5q0 155 66 336l147 -20q-63 -155 -63 -281
q0 -155 117 -226t370 -71h256q210 0 342 27q-83 63 -129.5 151t-46.5 181q0 108 54 208t142 161t181 61q94 0 176.5 -62t129 -159t46.5 -201q0 -95 -50.5 -185.5t-141.5 -156.5q156 -25 354 -25zM1239 545q0 -85 67 -161t175 -120q107 41 176 116.5t69 158.5q0 99 -70 186.5
t-169 87.5q-92 0 -170 -87.5t-78 -180.5z" />
    <glyph glyph-name="vehar.init" unicode="&#x6a4;" horiz-adv-x="909" arabic-form="initial" 
d="M473 1749l137 -139l-137 -140l-139 140zM332 1464l139 -137l-139 -141l-139 141zM752 1327l-140 -141l-139 141l139 137zM817 532q3 -237 -148.5 -381.5t-418.5 -150.5h-254l-45 16v148l45 18h235q320 0 416 166q-68 -6 -139.5 0t-145.5 30t-131.5 63t-94 105t-36.5 150
q0 169 106.5 285.5t254.5 116.5q157 0 256.5 -160.5t99.5 -405.5zM227 723q0 -57 30 -101.5t78.5 -69t109.5 -40.5t121.5 -16.5t115.5 2.5q17 196 -56 319t-188 123q-87 0 -149 -62t-62 -155z" />
    <glyph glyph-name="vehar.medi" unicode="&#x6a4;" horiz-adv-x="1056" arabic-form="medial" 
d="M559 1591l137 -139l-137 -139l-139 139zM418 1307l139 -138l-139 -141l-139 141zM838 1169l-140 -141l-139 141l139 138zM1057 182v-182q-318 0 -539 100q-192 -100 -516 -100h-2l-43 16v148l43 18q210 0 342 27q-83 63 -129.5 151t-46.5 181q0 108 54 208t142 161
t181 61q94 0 176.5 -62t129 -159t46.5 -201q0 -95 -51 -185.5t-142 -156.5q156 -25 355 -25zM285 545q0 -85 66.5 -161.5t174.5 -119.5q107 41 176.5 116.5t69.5 158.5q0 99 -70.5 186.5t-169.5 87.5q-92 0 -169.5 -87.5t-77.5 -180.5z" />
    <glyph glyph-name="tchehar.fina" unicode="&#x686;" horiz-adv-x="1536" arabic-form="final" 
d="M1534 182v-182q-473 0 -428 625q-188 -29 -345 -83t-281.5 -133t-194.5 -190t-70 -244q0 -86 39 -161t112 -132.5t186 -90.5t253 -33q301 0 567 112v-12l-24 -164q-260 -112 -547 -112q-324 0 -516 154.5t-191 428.5q1 138 49.5 255t129 201.5t194 150.5t237 108
t265.5 68q-62 23 -168 69q-216 92 -363.5 106.5t-290.5 -44.5l29 159q52 25 105 38.5t97 18t98 -3.5t91 -17t94.5 -31t90 -36.5t94.5 -43.5q71 -33 106.5 -49t104.5 -42t118.5 -37.5t116.5 -19.5t131 -4l-24 -156q-128 -8 -185 -14q-14 -230 64 -344.5t256 -114.5zM729 -45
l-129 127l129 131l127 -131zM987 213l129 -131l-129 -127l-127 127zM858 -49l129 -131l-129 -127l-127 127z" />
    <glyph glyph-name="tchehar.init" unicode="&#x686;" horiz-adv-x="1507" arabic-form="initial" 
d="M809 737q162 -77 308.5 -121.5t316.5 -44.5l-27 -151q-49 1 -99 -7t-86 -17.5t-86.5 -31.5t-76 -35t-79.5 -42t-73 -39q-184 -96 -246 -123q-250 -109 -563 -123q-47 -2 -96 -2h-6v2l-39 14v148l39 16v2q113 0 215 9.5t198 32t163.5 41t159 57.5t134 58.5t135.5 64.5
q13 6 20 9.5l18 9t20 9.5q-135 35 -275 102q-86 39 -162.5 63.5t-164 39t-176.5 3t-172 -49.5l24 166q90 38 179.5 50t175.5 -2.5t160.5 -40t160.5 -67.5zM451 -326l139 140l139 -140l-139 -139zM870 -465l-139 139l139 140l140 -140zM731 -748l-139 138l139 141l137 -141z
" />
    <glyph glyph-name="tchehar.medi" unicode="&#x686;" horiz-adv-x="1626" arabic-form="medial" 
d="M1233 397q23 -107 127.5 -161t265.5 -54v-182q-232 0 -360.5 95t-151.5 259q-10 -4 -207 -106q-184 -96 -246 -123q-250 -109 -563 -123q-47 -2 -96 -2h-6v2l-39 14v148l39 16v2q113 0 215 9.5t198 32t163.5 41t159 57.5t134 58.5t135.5 64.5q13 6 20 9.5l18 9t20 9.5
q-135 35 -275 102q-86 39 -162.5 63.5t-164 39t-176.5 3t-172 -49.5l24 166q90 38 179.5 50t175.5 -2.5t160.5 -40t160.5 -67.5q162 -77 308.5 -121.5t316.5 -44.5l-27 -151q-74 2 -174 -23zM432 -84l139 141l138 -141l-138 -139zM850 -223l-137 139l137 141l139 -141z
M711 -506l-138 139l138 140l139 -140z" />
    <glyph glyph-name="ddalar.fina" unicode="&#x688;" horiz-adv-x="1290" arabic-form="final" 
d="M627 1217h-27q-126 -3 -211 14v104q24 -4 72 -8q13 26 28 47l-14 352h84l10 -245q65 65 142 65q54 0 94.5 -50.5t40.5 -119.5q0 -85 -54 -122t-165 -37zM778 1370q0 27 -25 49.5t-57 22.5q-42 0 -84.5 -23.5t-95.5 -93.5h102h17q37 0 55.5 0.5t43 4.5t34.5 14t10 26z
M797 1038l204 -620q44 -131 105.5 -183.5t181.5 -52.5v-182q-100 0 -169 30t-110.5 80t-80.5 134q-39 -127 -147.5 -194.5t-280.5 -67.5q-88 0 -162 19t-126 52.5t-87.5 70.5t-61.5 81l60 139q70 -97 164 -138.5t229 -41.5q148 0 238 55t96 154l-195 602z" />
    <glyph glyph-name="jehar.fina" unicode="&#x698;" horiz-adv-x="839" arabic-form="final" 
d="M438 1346l140 -140l-140 -139l-137 139zM299 1061l139 -137l-139 -142l-139 142zM717 924l-137 -142l-140 142l140 137zM604 408q32 -132 86 -179t150 -47v-182q-139 0 -215 82q-15 -131 -73.5 -239t-151.5 -185t-208 -129t-253 -82l-58 176q87 13 172.5 43t164.5 79
t139 111t96 144t36 172q0 92 -22.5 197.5t-69.5 263.5l138 47q29 -91 57 -213q0 -4 2 -6q2 -8 5 -26t5 -27z" />
    <glyph glyph-name="rrehar.fina" unicode="&#x691;" horiz-adv-x="839" arabic-form="final" 
d="M401 924h-28q-124 -3 -209 14v104q23 -4 69 -8q22 35 29 45l-12 353h84l8 -246q68 65 143 65q54 0 95 -50t41 -118q0 -85 -54.5 -122t-165.5 -37zM553 1077q0 27 -25 49.5t-57 22.5q-42 0 -84.5 -23.5t-93.5 -93.5h100q100 0 122 6q38 9 38 39zM604 408q32 -132 86 -179
t150 -47v-182q-139 0 -215 82q-15 -131 -73.5 -239t-151.5 -185t-208 -129t-253 -82l-58 176q87 13 172.5 43t164.5 79t139 111t96 144t36 172q0 92 -22.5 197.5t-69.5 263.5l138 47q29 -91 57 -213q0 -4 2 -6q2 -8 5 -26t5 -27z" />
    <glyph glyph-name="kehehar.fina" unicode="&#x6a9;" horiz-adv-x="1767" arabic-form="final" 
d="M1292 475q45 -77 89.5 -131.5t82 -85.5t80 -48.5t76.5 -22.5t78 -5v-182q-68 0 -123 11t-114 39t-112 84t-98 140q-29 -127 -134.5 -199t-293.5 -75h-176q-308 0 -449 113.5t-141 351.5q0 151 66 317h133q-20 -69 -29.5 -102.5t-18.5 -84.5t-9 -93q0 -163 112 -241.5
t342 -78.5h172q84 0 147 18.5t95 47.5t46.5 59t14.5 60q1 59 -25 121t-89.5 139.5t-135.5 150.5t-194 187q3 38 25 180q392 207 895 377l-33 -176q-163 -51 -373.5 -136t-374.5 -174q300 -278 469 -561z" />
    <glyph glyph-name="kehehar.init" unicode="&#x6a9;" horiz-adv-x="933" arabic-form="initial" 
d="M954 1503l-49 -178q-153 -44 -359 -122t-349 -161q230 -142 377 -329.5t147 -356.5q0 -167 -124 -261.5t-361 -94.5h-238v2l-41 14v148l41 16v2h252q338 0 338 166q0 119 -142.5 288.5t-392.5 315.5q2 50 27 189q53 31 115 62.5t138 64t130.5 55.5t143.5 55.5t124 45.5
t125.5 45t97.5 34z" />
    <glyph glyph-name="kehehar.medi" unicode="&#x6a9;" horiz-adv-x="1026" arabic-form="medial" 
d="M623 475q56 -95 108.5 -156.5t104 -89.5t94 -37.5t98.5 -9.5v-182q-68 0 -123 11t-113.5 39t-111.5 84t-98 140q-30 -130 -140.5 -202t-306.5 -72h-137v2l-41 14v148l41 16v2h158q84 0 147 18.5t95 47.5t46.5 59t14.5 60q1 59 -25 121t-90 140t-135.5 150t-194.5 187
q3 38 25 180q392 207 895 377l-33 -176q-163 -51 -373 -136t-374 -174q300 -278 469 -561z" />
    <glyph glyph-name="gafar.fina" unicode="&#x6af;" horiz-adv-x="1767" arabic-form="final" 
d="M737 1376l701 334v-111l-721 -335zM1292 475q45 -77 89.5 -131.5t82 -85.5t80 -48.5t76.5 -22.5t78 -5v-182q-68 0 -123 11t-114 39t-112 84t-98 140q-29 -127 -134.5 -199t-293.5 -75h-176q-308 0 -449 113.5t-141 351.5q0 151 66 317h133q-20 -69 -29.5 -102.5
t-18.5 -84.5t-9 -93q0 -163 112 -241.5t342 -78.5h172q84 0 147 18.5t95 47.5t46.5 59t14.5 60q1 59 -25 121t-89.5 139.5t-135.5 150.5t-194 187q3 38 25 180q392 207 895 377l-33 -176q-163 -51 -373.5 -136t-374.5 -174q300 -278 469 -561z" />
    <glyph glyph-name="gafar.init" unicode="&#x6af;" horiz-adv-x="872" arabic-form="initial" 
d="M98 1376l549 260v-110l-569 -262zM954 1503l-49 -178q-153 -44 -359 -122t-349 -161q230 -142 377 -329.5t147 -356.5q0 -167 -124 -261.5t-361 -94.5h-238v2l-41 14v148l41 16v2h252q338 0 338 166q0 119 -142.5 288.5t-392.5 315.5q2 50 27 189q53 31 115 62.5t138 64
t130.5 55.5t143.5 55.5t124 45.5t125.5 45t97.5 34z" />
    <glyph glyph-name="gafar.medi" unicode="&#x6af;" horiz-adv-x="1097" arabic-form="medial" 
d="M78 1376l549 260v-110l-570 -262zM623 475q56 -95 108.5 -156.5t104 -89.5t94 -37.5t98.5 -9.5v-182q-68 0 -123 11t-113.5 39t-111.5 84t-98 140q-30 -130 -140.5 -202t-306.5 -72h-137v2l-41 14v148l41 16v2h158q84 0 147 18.5t95 47.5t46.5 59t14.5 60q1 59 -25 121
t-90 140t-135.5 150t-194.5 187q3 38 25 180q392 207 895 377l-33 -176q-163 -51 -373 -136t-374 -174q300 -278 469 -561z" />
    <glyph glyph-name="noonghunnaar.fina" unicode="&#x6ba;" horiz-adv-x="1517" arabic-form="final" 
d="M1518 182v-182q-130 0 -209 70q-25 -236 -193 -370t-438 -134q-288 0 -448 145.5t-160 394.5q0 119 29 231.5t71 188.5l123 -49q-78 -179 -78 -323q0 -188 122.5 -298t352.5 -110q221 0 351 98t130 277q0 111 -26 222t-84 267l139 41q56 -125 84 -264
q32 -102 84.5 -153.5t149.5 -51.5z" />
    <glyph glyph-name="hehgoalar.fina" unicode="&#x6c1;" horiz-adv-x="1150" arabic-form="final" 
d="M164 4l-103 109q374 440 588 440q54 0 98 -20.5t73.5 -53t55.5 -72t52 -79.5t55.5 -72.5t73.5 -53t98 -20.5v-182q-69 0 -123 20t-87.5 52.5t-60.5 72t-50.5 78.5t-50 71.5t-66 52.5t-90.5 20q-88 0 -214 -107t-249 -256z" />
    <glyph glyph-name="hehgoalar.init" unicode="&#x6c1;" horiz-adv-x="583" arabic-form="initial" 
d="M410 395q0 -189 -106.5 -292t-301.5 -103h-2l-43 16v148l43 16v2q137 0 203.5 52.5t66.5 158.5q0 129 -77 398l137 30q34 -93 57 -209.5t23 -216.5zM174 -412q0 82 31 162.5t81 141.5t107 106.5t113 69.5l82 -76q-119 -58 -197.5 -150.5t-87.5 -181.5q84 20 138.5 -17.5
t54.5 -111.5q0 -71 -43 -114.5t-111 -43.5q-73 0 -120.5 55.5t-47.5 159.5z" />
    <glyph glyph-name="hehgoalar.medi" unicode="&#x6c1;" horiz-adv-x="917" arabic-form="medial" 
d="M641 -252q-25 87 -11.5 165.5t52 138t107 95t153.5 35.5l-20 -182q-114 0 -158 -78q-27 -54 -23 -127t35 -147l-88 -121q-55 28 -101.5 58.5t-99.5 80.5t-93 108.5t-73 142.5t-47 181q-40 -57 -112 -77.5t-182 -20.5l14 182q146 0 200 37.5t54 153.5v145h135v-145
q0 -182 41 -307q61 -212 217 -318z" />
    <glyph glyph-name="hehDoachashmeear.fina" unicode="&#x6be;" horiz-adv-x="1370" arabic-form="final" 
d="M965 -535q-88 0 -176 36.5t-162 101.5t-126.5 165t-66.5 218l-303 -41l2 170l297 37q6 129 77.5 286.5t189 301t249.5 229.5q108 -115 173 -250.5t65 -257.5q0 -193 -168 -279h354v-182h-283q86 -48 126 -118t40 -146q0 -113 -74.5 -192t-213.5 -79zM553 168
q242 0 368 74.5t126 216.5q0 64 -36.5 143t-101.5 156q-122 -96 -231.5 -274.5t-124.5 -315.5zM932 -362q150 0 181 78q25 63 -37 142q-70 89 -194 126q-63 20 -130 20h-189q13 -87 64 -170.5t133.5 -139.5t171.5 -56z" />
    <glyph glyph-name="hehDoachashmeear.init" unicode="&#x6be;" horiz-adv-x="1310" arabic-form="initial" 
d="M258 924l33 151q43 -17 125 -50q130 -51 193.5 -77t168 -73.5t155.5 -79.5t118.5 -82.5t98.5 -97t54 -108t23 -130.5q0 -110 -46.5 -191.5t-125.5 -124t-178.5 -56t-210 8.5t-215.5 74q-183 -88 -451 -88h-2l-43 16v148l43 18q171 0 276 17q-72 55 -116.5 133.5
t-44.5 163.5q0 116 67.5 222t188.5 161q-10 4 -50 20.5t-61 24.5zM463 739q-103 0 -161 -69.5t-58 -163.5q0 -85 62 -162t157 -106q94 43 150.5 114.5t58.5 141.5q0 109 -54.5 177t-154.5 68zM645 195q117 -23 212 -16t155.5 57t60.5 135q0 200 -317 346q52 -99 49 -217
q-6 -192 -160 -305z" />
    <glyph glyph-name="hehDoachashmeear.medi" unicode="&#x6be;" horiz-adv-x="1511" arabic-form="medial" 
d="M1229 365q5 -49 25 -84t45.5 -54t65 -29.5t71 -13t75.5 -2.5l-4 -182q-82 0 -148.5 15t-118.5 53t-73 96q-63 -93 -180.5 -134t-258 -25.5t-275.5 83.5q-183 -88 -451 -88h-2l-43 16v148l43 18q171 0 276 17q-72 55 -116.5 133.5t-44.5 163.5q0 116 67.5 222t188.5 161
q-10 4 -50 20.5t-61 24.5l33 151q43 -17 125 -50q130 -51 193.5 -77t168 -73.5t155.5 -79.5t118.5 -82.5t98.5 -97t54 -108t23 -130.5v-12zM465 739q-103 0 -161 -69.5t-58 -163.5q0 -85 62 -162t157 -106q94 43 150.5 114.5t58.5 141.5q0 109 -54.5 177t-154.5 68zM647 195
q117 -23 212 -16t155.5 57t60.5 135q0 200 -317 346q52 -99 49 -217q-6 -192 -160 -305z" />
    <glyph glyph-name="yehbarreear.fina" unicode="&#x6d2;" horiz-adv-x="1372" arabic-form="final" 
d="M483 -475q-206 0 -303 78q-98 82 -98 223q0 67 31 127q31 66 92 119q66 51 166 80q103 28 243 28l787 2l-25 -182h-790q-102 0 -170 -12q-62 -11 -113 -39q-38 -20 -59 -51q-21 -34 -21 -68q0 -60 62 -100q65 -35 188 -35h760l-16 -170h-734z" />
    <glyph glyph-name="yehbarreeHamzaabovear.fina" unicode="&#x6d3;" horiz-adv-x="1372" arabic-form="final" 
d="M590 418v-99q-39 -6 -214 -15.5t-235 -20.5v94q70 11 103 14q-45 48 -45 123q0 79 59.5 132.5t142.5 53.5q73 0 123 -36v-97q-54 31 -114 31q-52 0 -86.5 -22t-34.5 -60q0 -82 108 -106q89 0 193 8zM303 -51q-38 -20 -59 -51q-21 -34 -21 -68q0 -60 62 -100
q65 -35 188 -35h760l-16 -170h-734q-206 0 -303 78q-98 82 -98 223q0 67 31 127q31 66 92 119q66 51 166 80q103 28 243 28l787 2l-25 -182h-790q-102 0 -170 -12q-62 -11 -113 -39z" />
    <glyph glyph-name="alefMaksuraar.init" unicode="&#x649;" horiz-adv-x="583" arabic-form="initial" 
d="M410 395q0 -189 -107 -292t-301 -103h-2l-43 16v148l43 18q137 0 203.5 52.5t66.5 158.5q0 129 -77 398l137 30q34 -93 57 -209.5t23 -216.5z" />
    <glyph glyph-name="alefMaksuraar.medi" unicode="&#x649;" horiz-adv-x="671" arabic-form="medial" 
d="M408 612v-196q0 -73 17.5 -120.5t54.5 -71.5t81.5 -33t112.5 -9v-182q-291 0 -352 195q-29 -96 -113 -145.5t-207 -49.5h-2l-43 16v148l43 18q63 0 104 8.5t76.5 33t56 71.5t29.5 121l21 176z" />
    <glyph glyph-name="yehfarsi.fina" unicode="&#x6cc;" horiz-adv-x="1482" arabic-form="final" 
d="M1483 182v-182q-49 0 -80 2q4 -24 4 -41q0 -64 -27 -127t-84.5 -121t-138 -102.5t-197.5 -71t-253 -26.5q-313 0 -482.5 153t-169.5 420q0 242 119 508l137 -49q-104 -222 -104 -428q0 -209 134.5 -315.5t381.5 -106.5q113 0 218.5 24t176 59.5t113 75t43.5 72.5
q1 26 -28.5 47.5t-86.5 38t-114.5 28t-135.5 23.5l35 158q268 -39 539 -39z" />
    <glyph glyph-name="yehfarsi.init" unicode="&#x6cc;" horiz-adv-x="583" arabic-form="initial" 
d="M410 395q0 -189 -106.5 -292t-301.5 -103h-2l-43 16v148l43 16v2q137 0 203.5 52.5t66.5 158.5q0 129 -77 398l137 30q34 -93 57 -209.5t23 -216.5zM262 -274l-137 -140l-139 140l139 139zM543 -274l-140 -140l-137 140l137 139z" />
    <glyph glyph-name="yehfarsi.medi" unicode="&#x6cc;" horiz-adv-x="671" arabic-form="medial" 
d="M408 612v-196q0 -73 17.5 -120.5t54.5 -71.5t81.5 -33t112.5 -9v-182q-291 0 -352 195q-29 -96 -113 -145.5t-207 -49.5h-2l-43 16v148l43 18q63 0 104 8.5t76.5 33t56 71.5t29.5 121l21 176zM172 -418l-139 139l139 140l137 -140zM451 -418l-138 139l138 140l139 -140z
" />
    <glyph glyph-name="yehHamzaabove_alefMaksuraar" unicode="&#xfc03;" horiz-adv-x="1568" arabic-form="isolated" 
d="M1327 1184v-99q-39 -6 -213.5 -15.5t-234.5 -20.5v94q71 11 102 14q-45 48 -45 123q0 78 60 132t143 54q73 0 123 -36v-97q-54 31 -115 31q-52 0 -86.5 -22t-34.5 -60q0 -82 109 -106q88 0 192 8zM1231 281q192 -56 192 -277q0 -65 -25.5 -131.5t-80.5 -131.5
t-133 -115.5t-193.5 -81.5t-251.5 -31q-308 0 -479.5 158.5t-171.5 426.5q0 237 117 494l123 -45q-95 -217 -95 -408q0 -216 139.5 -330t391.5 -114q113 0 215 30t168.5 75t105.5 97t39 97q0 34 -15.5 58.5t-45 38t-64 21t-82.5 10.5t-90 3.5t-96 1.5t-92 4l2 16h-21l-8 142
q209 0 292 44.5t83 166.5q0 99 -19.5 184.5t-74.5 241.5l137 45q57 -160 77.5 -256.5t20.5 -208.5q0 -145 -65 -225z" />
    <glyph glyph-name="yehHamzaabove_yehar" unicode="&#xfc04;" horiz-adv-x="1568" arabic-form="isolated" 
d="M1327 1184v-99q-39 -6 -213.5 -15.5t-234.5 -20.5v94q71 11 102 14q-45 48 -45 123q0 78 60 132t143 54q73 0 123 -36v-97q-54 31 -115 31q-52 0 -86.5 -22t-34.5 -60q0 -82 109 -106q88 0 192 8zM1231 281q192 -56 192 -277q0 -65 -25.5 -131.5t-80.5 -131.5
t-133 -115.5t-193.5 -81.5t-251.5 -31q-308 0 -479.5 158.5t-171.5 426.5q0 237 117 494l123 -45q-95 -217 -95 -408q0 -216 139.5 -330t391.5 -114q113 0 215 30t168.5 75t105.5 97t39 97q0 34 -15.5 58.5t-45 38t-64 21t-82.5 10.5t-90 3.5t-96 1.5t-92 4l2 16h-21l-8 142
q209 0 292 44.5t83 166.5q0 99 -19.5 184.5t-74.5 241.5l137 45q57 -160 77.5 -256.5t20.5 -208.5q0 -145 -65 -225zM567 -948l-139 139l139 139l138 -139zM846 -948l-137 139l137 139l139 -139z" />
    <glyph glyph-name="beh_alefMaksuraar" unicode="&#xfc09;" horiz-adv-x="1568" arabic-form="isolated" 
d="M1231 281q192 -56 192 -277q0 -65 -25.5 -131.5t-80.5 -131.5t-133 -115.5t-193.5 -81.5t-251.5 -31q-308 0 -479.5 158.5t-171.5 426.5q0 237 117 494l123 -45q-95 -217 -95 -408q0 -216 139.5 -330t391.5 -114q113 0 215 30t168.5 75t105.5 97t39 97q0 34 -15.5 58.5
t-45 38t-64 21t-82.5 10.5t-90 3.5t-96 1.5t-92 4l2 16h-21l-8 142q209 0 292 44.5t83 166.5q0 99 -19.5 184.5t-74.5 241.5l137 45q57 -160 77.5 -256.5t20.5 -208.5q0 -145 -65 -225zM1278 -836l-139 142l139 137l137 -137z" />
    <glyph glyph-name="beh_yehar" unicode="&#xfc0a;" horiz-adv-x="1593" arabic-form="isolated" 
d="M1231 281q192 -56 192 -277q0 -65 -25.5 -131.5t-80.5 -131.5t-133 -115.5t-193.5 -81.5t-251.5 -31q-308 0 -479.5 158.5t-171.5 426.5q0 237 117 494l123 -45q-95 -217 -95 -408q0 -216 139.5 -330t391.5 -114q113 0 215 30t168.5 75t105.5 97t39 97q0 34 -15.5 58.5
t-45 38t-64 21t-82.5 10.5t-90 3.5t-96 1.5t-92 4l2 16h-21l-8 142q209 0 292 44.5t83 166.5q0 99 -19.5 184.5t-74.5 241.5l137 45q57 -160 77.5 -256.5t20.5 -208.5q0 -145 -65 -225zM1278 -836l-139 142l139 137l137 -137zM567 -948l-139 139l139 139l140 -139zM848 -948
l-139 139l139 139l139 -139z" />
    <glyph glyph-name="teh_alefMaksuraar" unicode="&#xfc0f;" horiz-adv-x="1568" arabic-form="isolated" 
d="M969 1298l139 -137l-139 -141l-140 141zM1249 1298l140 -137l-140 -141l-139 141zM1231 281q192 -56 192 -277q0 -65 -25.5 -131.5t-80.5 -131.5t-133 -115.5t-193.5 -81.5t-251.5 -31q-308 0 -479.5 158.5t-171.5 426.5q0 237 117 494l123 -45q-95 -217 -95 -408
q0 -216 139.5 -330t391.5 -114q113 0 215 30t168.5 75t105.5 97t39 97q0 34 -15.5 58.5t-45 38t-64 21t-82.5 10.5t-90 3.5t-96 1.5t-92 4l2 16h-21l-8 142q209 0 292 44.5t83 166.5q0 99 -19.5 184.5t-74.5 241.5l137 45q57 -160 77.5 -256.5t20.5 -208.5q0 -145 -65 -225z
" />
    <glyph glyph-name="teh_yehar" unicode="&#xfc10;" horiz-adv-x="1568" arabic-form="isolated" 
d="M969 1298l139 -137l-139 -141l-140 141zM1249 1298l140 -137l-140 -141l-139 141zM1231 281q192 -56 192 -277q0 -65 -25.5 -131.5t-80.5 -131.5t-133 -115.5t-193.5 -81.5t-251.5 -31q-308 0 -479.5 158.5t-171.5 426.5q0 237 117 494l123 -45q-95 -217 -95 -408
q0 -216 139.5 -330t391.5 -114q113 0 215 30t168.5 75t105.5 97t39 97q0 34 -15.5 58.5t-45 38t-64 21t-82.5 10.5t-90 3.5t-96 1.5t-92 4l2 16h-21l-8 142q209 0 292 44.5t83 166.5q0 99 -19.5 184.5t-74.5 241.5l137 45q57 -160 77.5 -256.5t20.5 -208.5q0 -145 -65 -225z
M567 -948l-139 139l139 139l138 -139zM846 -948l-137 139l137 139l139 -139z" />
    <glyph glyph-name="theh_alefMaksuraar" unicode="&#xfc13;" horiz-adv-x="1568" arabic-form="isolated" 
d="M1116 1575l137 -139l-137 -140l-139 140zM975 1290l139 -137l-139 -141l-139 141zM1395 1153l-140 -141l-139 141l139 137zM1231 281q192 -56 192 -277q0 -65 -25.5 -131.5t-80.5 -131.5t-133 -115.5t-193.5 -81.5t-251.5 -31q-308 0 -479.5 158.5t-171.5 426.5
q0 237 117 494l123 -45q-95 -217 -95 -408q0 -216 139.5 -330t391.5 -114q113 0 215 30t168.5 75t105.5 97t39 97q0 34 -15.5 58.5t-45 38t-64 21t-82.5 10.5t-90 3.5t-96 1.5t-92 4l2 16h-21l-8 142q209 0 292 44.5t83 166.5q0 99 -19.5 184.5t-74.5 241.5l137 45
q57 -160 77.5 -256.5t20.5 -208.5q0 -145 -65 -225z" />
    <glyph glyph-name="theh_yehar" unicode="&#xfc14;" horiz-adv-x="1568" arabic-form="isolated" 
d="M1116 1575l137 -139l-137 -140l-139 140zM975 1290l139 -137l-139 -141l-139 141zM1395 1153l-140 -141l-139 141l139 137zM1231 281q192 -56 192 -277q0 -65 -25.5 -131.5t-80.5 -131.5t-133 -115.5t-193.5 -81.5t-251.5 -31q-308 0 -479.5 158.5t-171.5 426.5
q0 237 117 494l123 -45q-95 -217 -95 -408q0 -216 139.5 -330t391.5 -114q113 0 215 30t168.5 75t105.5 97t39 97q0 34 -15.5 58.5t-45 38t-64 21t-82.5 10.5t-90 3.5t-96 1.5t-92 4l2 16h-21l-8 142q209 0 292 44.5t83 166.5q0 99 -19.5 184.5t-74.5 241.5l137 45
q57 -160 77.5 -256.5t20.5 -208.5q0 -145 -65 -225zM567 -948l-139 139l139 139l138 -139zM846 -948l-137 139l137 139l139 -139z" />
    <glyph glyph-name="lam_alefMaksuraar" unicode="&#xfc43;" horiz-adv-x="1568" arabic-form="isolated" 
d="M1214 276q58 -16 100 -46t62.5 -59.5t32 -67t13 -57t1.5 -42.5q0 -65 -25.5 -131.5t-80.5 -131.5t-133 -115.5t-193.5 -81.5t-251.5 -31q-308 0 -479.5 158.5t-171.5 426.5q0 237 117 494l123 -45q-95 -217 -95 -408q0 -216 139.5 -330t391.5 -114q113 0 215 30t168.5 75
t105.5 97t39 97q0 39 -26 65.5t-65 38.5t-98.5 18t-112 6t-121.5 1t-111 4l59 162q190 0 263 42t73 169l-47 1018l149 20l29 -1032q0 -154 -70 -230z" />
    <glyph glyph-name="lam_yehar" unicode="&#xfc44;" horiz-adv-x="1568" arabic-form="isolated" 
d="M1214 276q58 -16 100 -46t62.5 -59.5t32 -67t13 -57t1.5 -42.5q0 -65 -25.5 -131.5t-80.5 -131.5t-133 -115.5t-193.5 -81.5t-251.5 -31q-308 0 -479.5 158.5t-171.5 426.5q0 237 117 494l123 -45q-95 -217 -95 -408q0 -216 139.5 -330t391.5 -114q113 0 215 30t168.5 75
t105.5 97t39 97q0 39 -26 65.5t-65 38.5t-98.5 18t-112 6t-121.5 1t-111 4l59 162q190 0 263 42t73 169l-47 1018l149 20l29 -1032q0 -154 -70 -230zM721 -842l-137 -139l-140 139l140 140zM1001 -842l-139 -139l-137 139l137 140z" />
    <glyph glyph-name="noon_alefMaksuraar" unicode="&#xfc4f;" horiz-adv-x="1568" arabic-form="isolated" 
d="M1102 1329l137 -137l-137 -141l-139 141zM1231 281q192 -56 192 -277q0 -65 -25.5 -131.5t-80.5 -131.5t-133 -115.5t-193.5 -81.5t-251.5 -31q-308 0 -479.5 158.5t-171.5 426.5q0 237 117 494l123 -45q-95 -217 -95 -408q0 -216 139.5 -330t391.5 -114q113 0 215 30
t168.5 75t105.5 97t39 97q0 34 -15.5 58.5t-45 38t-64 21t-82.5 10.5t-90 3.5t-96 1.5t-92 4l2 16h-21l-8 142q209 0 292 44.5t83 166.5q0 99 -19.5 184.5t-74.5 241.5l137 45q57 -160 77.5 -256.5t20.5 -208.5q0 -145 -65 -225z" />
    <glyph glyph-name="noon_yehar" unicode="&#xfc50;" horiz-adv-x="1568" arabic-form="isolated" 
d="M1102 1329l137 -137l-137 -141l-139 141zM1231 281q192 -56 192 -277q0 -65 -25.5 -131.5t-80.5 -131.5t-133 -115.5t-193.5 -81.5t-251.5 -31q-308 0 -479.5 158.5t-171.5 426.5q0 237 117 494l123 -45q-95 -217 -95 -408q0 -216 139.5 -330t391.5 -114q113 0 215 30
t168.5 75t105.5 97t39 97q0 34 -15.5 58.5t-45 38t-64 21t-82.5 10.5t-90 3.5t-96 1.5t-92 4l2 16h-21l-8 142q209 0 292 44.5t83 166.5q0 99 -19.5 184.5t-74.5 241.5l137 45q57 -160 77.5 -256.5t20.5 -208.5q0 -145 -65 -225zM567 -948l-139 139l139 139l138 -139z
M846 -948l-137 139l137 139l139 -139z" />
    <glyph glyph-name="yeh_alefMaksuraar" unicode="&#xfc59;" horiz-adv-x="1568" arabic-form="isolated" 
d="M1423 4q0 -65 -25.5 -131.5t-80.5 -131.5t-133 -115.5t-193.5 -81.5t-251.5 -31q-308 0 -479.5 158.5t-171.5 426.5q0 237 117 494l123 -45q-95 -217 -95 -408q0 -216 139.5 -330t391.5 -114q113 0 215 30t168.5 75t105.5 97t39 97q0 34 -15.5 58.5t-45 38t-64 21
t-82.5 10.5t-90 3.5t-96 1.5t-92 4l2 16h-21l-8 142q209 0 292 44.5t83 166.5q0 99 -19.5 184.5t-74.5 241.5l137 45q57 -160 77.5 -256.5t20.5 -208.5q0 -145 -65 -225q192 -56 192 -277zM1120 -848l-139 139l139 140l137 -140zM1262 -709l137 140l139 -140l-139 -139z" />
    <glyph glyph-name="yeh_yehar" unicode="&#xfc5a;" horiz-adv-x="1701" arabic-form="isolated" 
d="M1423 4q0 -65 -25.5 -131.5t-80.5 -131.5t-133 -115.5t-193.5 -81.5t-251.5 -31q-308 0 -479.5 158.5t-171.5 426.5q0 237 117 494l123 -45q-95 -217 -95 -408q0 -216 139.5 -330t391.5 -114q113 0 215 30t168.5 75t105.5 97t39 97q0 34 -15.5 58.5t-45 38t-64 21
t-82.5 10.5t-90 3.5t-96 1.5t-92 4l2 16h-21l-8 142q209 0 292 44.5t83 166.5q0 99 -19.5 184.5t-74.5 241.5l137 45q57 -160 77.5 -256.5t20.5 -208.5q0 -145 -65 -225q192 -56 192 -277zM1120 -848l-137 139l137 140l140 -140zM1262 -709l139 140l139 -140l-139 -139z
M567 -948l-139 139l139 139l140 -139zM848 -948l-139 139l139 139l139 -139z" />
    <glyph glyph-name="shadda_dammatanar" unicode="&#xfc5e;" arabic-form="isolated" 
d="M373 1835q79 0 131.5 -66.5t52.5 -173.5q0 -157 -123 -242.5t-305 -64.5l-57 51q6 53 6 127q0 45 -42 45.5t-95 -32.5l12 106q85 55 148 29.5t63 -125.5q0 -28 -4 -98q174 -6 258 84q-90 -9 -156.5 38t-66.5 132q0 77 53 133.5t125 56.5zM270 1661q0 -52 67.5 -82
t139.5 -10q4 78 -29 123t-88 45q-34 0 -62 -23t-28 -53zM113 1110l86 29q-30 -79 -18.5 -122.5t59.5 -43.5q25 0 40 22.5t15 59.5v106l86 27v-113q0 -35 19 -56.5t51 -21.5q57 0 57 95q0 62 -25 114l82 25q31 -85 31 -162q0 -89 -40 -139.5t-112 -50.5q-62 0 -98 65
q-18 -41 -49.5 -65.5t-69.5 -24.5q-86 0 -118 73t4 183z" />
    <glyph glyph-name="shadda_dammaar" unicode="&#xfc61;" arabic-form="isolated" 
d="M494 1573q0 -78 -37 -143t-99 -101.5t-142 -48.5t-167 16l12 88q212 -28 295 68q-91 -11 -159 36.5t-68 133.5q0 77 53.5 133.5t126.5 56.5q79 0 132 -66.5t53 -172.5zM207 1638q0 -53 66.5 -82.5t138.5 -9.5q4 78 -28 122t-89 44q-34 0 -61 -22t-27 -52zM442 1192l80 25
q31 -78 31 -162q0 -89 -40 -140t-110 -51q-61 0 -98 66q-18 -41 -49.5 -65.5t-69.5 -24.5q-86 0 -118 73t4 183l84 28q-29 -80 -17 -121.5t60 -41.5q25 0 40 21.5t15 59.5v105l86 27v-113q0 -35 19 -56.5t51 -21.5q57 0 57 94q0 55 -25 115z" />
    <glyph glyph-name="yehHamzaabove_zainar.fina" unicode="&#xfc65;" horiz-adv-x="1464" arabic-form="final" 
d="M1309 1128v-98q-39 -6 -214 -16t-235 -21v94q83 13 103 15q-45 48 -45 123q0 79 59.5 132.5t142.5 53.5q71 0 123 -37v-96q-54 31 -115 31q-52 0 -86 -22t-34 -60q0 -83 108 -107q89 0 193 8zM387 1063l137 -137l-137 -142l-139 142zM1200 776v-360q0 -74 17.5 -121.5
t54.5 -72t81.5 -33.5t112.5 -9v-182q-71 0 -130 14.5t-109.5 45.5t-84.5 86t-46 130q-44 -65 -120.5 -101t-166.5 -36q-98 0 -195 53q13 -93 13 -161q0 -154 -53 -280.5t-148 -215.5t-217 -148.5t-270 -91.5l-58 175q77 15 156.5 44.5t160 79t143 109.5t101.5 142.5
t39 172.5q0 103 -26 219.5t-86 313.5l145 43q38 -121 41 -133q36 -71 103.5 -105.5t144.5 -34.5q32 0 64 4.5t70 17.5t67 34.5t48.5 58.5t20.5 86l6 236z" />
    <glyph glyph-name="yehHamzaabove_alefMaksuraar.fina" unicode="&#xfc68;" horiz-adv-x="1875" arabic-form="final" 
d="M1413 1247v-98q-39 -6 -213.5 -16t-234.5 -21v94q84 14 102 15q-45 48 -45 122q0 79 60 133t143 54q71 0 123 -37v-96q-52 30 -115 30q-52 0 -86.5 -21.5t-34.5 -59.5q0 -83 109 -107q88 0 192 8zM1591 483l51 -102q39 -81 65 -119t66 -59t103 -21l-4 -182
q-93 0 -155 30.5t-107.5 93t-100.5 183.5l-36 80q-15 34 -23 50t-24.5 44t-32 42t-39 30t-54 22.5t-67.5 6.5q-70 0 -138 -23t-116 -57.5t-77.5 -75.5t-29.5 -76q0 -40 44 -69t139 -54l159 -43q75 -21 118.5 -39.5t78 -48.5t48.5 -72.5t14 -105.5q0 -62 -27 -125
t-85.5 -123.5t-141.5 -107t-205 -75t-266 -28.5q-131 0 -237.5 29.5t-181.5 82.5t-125.5 128t-74 164t-23.5 192q0 236 115 490l135 -53q-102 -235 -102 -418q0 -96 29 -173.5t89 -137t160.5 -91.5t235.5 -32q111 0 208 18t162 46.5t111.5 63.5t68 69t21.5 63q0 44 -36.5 74
t-137.5 59l-184 51q-128 37 -184 98.5t-56 134.5q0 109 74 212.5t196 168t253 64.5q57 0 103 -16t76.5 -39t58 -60t43.5 -68.5t37 -75.5q6 -13 9 -20z" />
    <glyph glyph-name="yehHamzaabove_yehar.fina" unicode="&#xfc69;" horiz-adv-x="1875" arabic-form="final" 
d="M1413 1247v-98q-39 -6 -213.5 -16t-234.5 -21v94q84 14 102 15q-45 48 -45 122q0 79 60 133t143 54q71 0 123 -37v-96q-52 30 -115 30q-52 0 -86.5 -21.5t-34.5 -59.5q0 -83 109 -107q88 0 192 8zM1591 483l51 -102q39 -81 65 -119t66 -59t103 -21l-4 -182
q-93 0 -155 30.5t-107.5 93t-100.5 183.5l-36 80q-15 34 -23 50t-24.5 44t-32 42t-39 30t-54 22.5t-67.5 6.5q-70 0 -138 -23t-116 -57.5t-77.5 -75.5t-29.5 -76q0 -40 44 -69t139 -54l159 -43q75 -21 118.5 -39.5t78 -48.5t48.5 -72.5t14 -105.5q0 -62 -27 -125
t-85.5 -123.5t-141.5 -107t-205 -75t-266 -28.5q-131 0 -237.5 29.5t-181.5 82.5t-125.5 128t-74 164t-23.5 192q0 236 115 490l135 -53q-102 -235 -102 -418q0 -96 29 -173.5t89 -137t160.5 -91.5t235.5 -32q111 0 208 18t162 46.5t111.5 63.5t68 69t21.5 63q0 44 -36.5 74
t-137.5 59l-184 51q-128 37 -184 98.5t-56 134.5q0 109 74 212.5t196 168t253 64.5q57 0 103 -16t76.5 -39t58 -60t43.5 -68.5t37 -75.5q6 -13 9 -20zM604 -952l-139 139l139 139l137 -139zM883 -952l-138 139l138 139l139 -139z" />
    <glyph glyph-name="beh_zainar.fina" unicode="&#xfc6b;" horiz-adv-x="1480" arabic-form="final" 
d="M358 1063l138 -137l-138 -142l-139 142zM1214 776v-360q0 -74 17.5 -121.5t54.5 -72t82 -33.5t113 -9v-182q-148 0 -247 65t-124 211q-44 -65 -119.5 -101t-165.5 -36q-99 0 -196 53q12 -86 12 -161q0 -154 -53 -280.5t-148 -215.5t-217 -148.5t-270 -91.5l-55 175
q77 15 156.5 44.5t159.5 79t142 109.5t101 142.5t39 172.5q0 102 -25.5 216t-85.5 317l143 43q2 -7 18 -56.5t23 -74.5q36 -72 103 -107t145 -35q42 0 83 8t85.5 28t72.5 62.5t29 102.5l7 236zM1108 -498l-139 142l139 137l137 -137z" />
    <glyph glyph-name="beh_alefMaksuraar.fina" unicode="&#xfc6e;" horiz-adv-x="1875" arabic-form="final" 
d="M748 -541q-131 0 -237.5 29.5t-181.5 82.5t-125.5 128t-74 164t-23.5 192q0 236 115 490l135 -53q-102 -235 -102 -418q0 -96 29 -173.5t89 -137t160.5 -91.5t235.5 -32q111 0 208 18t162 46.5t111.5 63.5t68 69t21.5 63q0 44 -36.5 74t-137.5 59l-184 51
q-128 37 -184 98.5t-56 134.5q0 109 74 212.5t196 168t253 64.5q57 0 103 -16t76.5 -39t58 -60t43.5 -68.5t37 -75.5q6 -13 9 -20l51 -102q39 -81 65 -119t66 -59t103 -21l-4 -182q-93 0 -155 30.5t-107.5 93t-100.5 183.5l-36 80q-15 34 -23 50t-24.5 44t-32 42t-39 30
t-54 22.5t-67.5 6.5q-70 0 -138 -23t-116 -57.5t-77.5 -75.5t-29.5 -76q0 -40 44 -69t139 -54l159 -43q75 -21 118.5 -39.5t78 -48.5t48.5 -72.5t14 -105.5q0 -62 -27 -125t-85.5 -123.5t-141.5 -107t-205 -75t-266 -28.5zM1614 -784l-137 -142l-140 142l140 137z" />
    <glyph glyph-name="beh_yehar.fina" unicode="&#xfc6f;" horiz-adv-x="1875" arabic-form="final" 
d="M748 -541q-131 0 -237.5 29.5t-181.5 82.5t-125.5 128t-74 164t-23.5 192q0 236 115 490l135 -53q-102 -235 -102 -418q0 -96 29 -173.5t89 -137t160.5 -91.5t235.5 -32q111 0 208 18t162 46.5t111.5 63.5t68 69t21.5 63q0 44 -36.5 74t-137.5 59l-184 51
q-128 37 -184 98.5t-56 134.5q0 109 74 212.5t196 168t253 64.5q57 0 103 -16t76.5 -39t58 -60t43.5 -68.5t37 -75.5q6 -13 9 -20l51 -102q39 -81 65 -119t66 -59t103 -21l-4 -182q-93 0 -155 30.5t-107.5 93t-100.5 183.5l-36 80q-15 34 -23 50t-24.5 44t-32 42t-39 30
t-54 22.5t-67.5 6.5q-70 0 -138 -23t-116 -57.5t-77.5 -75.5t-29.5 -76q0 -40 44 -69t139 -54l159 -43q75 -21 118.5 -39.5t78 -48.5t48.5 -72.5t14 -105.5q0 -62 -27 -125t-85.5 -123.5t-141.5 -107t-205 -75t-266 -28.5zM1614 -784l-137 -142l-140 142l140 137zM741 -813
l-139 -141l-139 141l139 139zM1022 -813l-139 -141l-140 141l140 139z" />
    <glyph glyph-name="teh_zainar.fina" unicode="&#xfc71;" horiz-adv-x="1464" arabic-form="final" 
d="M1006 1245l139 -137l-139 -141l-140 141zM1286 1245l139 -137l-139 -141l-139 141zM344 1063l137 -137l-137 -142l-139 142zM1200 776v-360q0 -74 17.5 -121.5t54.5 -72t81.5 -33.5t112.5 -9v-182q-71 0 -130 14.5t-109.5 45.5t-84.5 86t-46 130q-44 -65 -120.5 -101
t-166.5 -36q-98 0 -195 53q13 -93 13 -161q0 -154 -53 -280.5t-148 -215.5t-217 -148.5t-270 -91.5l-58 175q77 15 156.5 44.5t160 79t143 109.5t101.5 142.5t39 172.5q0 103 -26 219.5t-86 313.5l145 43q38 -121 41 -133q36 -71 103.5 -105.5t144.5 -34.5q32 0 64 4.5
t70 17.5t67 34.5t48.5 58.5t20.5 86l6 236z" />
    <glyph glyph-name="teh_alefMaksuraar.fina" unicode="&#xfc74;" horiz-adv-x="1875" arabic-form="final" 
d="M1194 1225l-139 -142l-140 142l140 137zM1475 1225l-140 -142l-139 142l139 137zM748 -541q-131 0 -237.5 29.5t-181.5 82.5t-125.5 128t-74 164t-23.5 192q0 236 115 490l135 -53q-102 -235 -102 -418q0 -96 29 -173.5t89 -137t160.5 -91.5t235.5 -32q111 0 208 18
t162 46.5t111.5 63.5t68 69t21.5 63q0 44 -36.5 74t-137.5 59l-184 51q-128 37 -184 98.5t-56 134.5q0 109 74 212.5t196 168t253 64.5q57 0 103 -16t76.5 -39t58 -60t43.5 -68.5t37 -75.5q6 -13 9 -20l51 -102q39 -81 65 -119t66 -59t103 -21l-4 -182q-93 0 -155 30.5
t-107.5 93t-100.5 183.5l-36 80q-15 34 -23 50t-24.5 44t-32 42t-39 30t-54 22.5t-67.5 6.5q-70 0 -138 -23t-116 -57.5t-77.5 -75.5t-29.5 -76q0 -40 44 -69t139 -54l159 -43q75 -21 118.5 -39.5t78 -48.5t48.5 -72.5t14 -105.5q0 -62 -27 -125t-85.5 -123.5t-141.5 -107
t-205 -75t-266 -28.5z" />
    <glyph glyph-name="teh_yehar.fina" unicode="&#xfc75;" horiz-adv-x="1875" arabic-form="final" 
d="M1194 1225l-139 -142l-140 142l140 137zM1475 1225l-140 -142l-139 142l139 137zM748 -541q-131 0 -237.5 29.5t-181.5 82.5t-125.5 128t-74 164t-23.5 192q0 236 115 490l135 -53q-102 -235 -102 -418q0 -96 29 -173.5t89 -137t160.5 -91.5t235.5 -32q111 0 208 18
t162 46.5t111.5 63.5t68 69t21.5 63q0 44 -36.5 74t-137.5 59l-184 51q-128 37 -184 98.5t-56 134.5q0 109 74 212.5t196 168t253 64.5q57 0 103 -16t76.5 -39t58 -60t43.5 -68.5t37 -75.5q6 -13 9 -20l51 -102q39 -81 65 -119t66 -59t103 -21l-4 -182q-93 0 -155 30.5
t-107.5 93t-100.5 183.5l-36 80q-15 34 -23 50t-24.5 44t-32 42t-39 30t-54 22.5t-67.5 6.5q-70 0 -138 -23t-116 -57.5t-77.5 -75.5t-29.5 -76q0 -40 44 -69t139 -54l159 -43q75 -21 118.5 -39.5t78 -48.5t48.5 -72.5t14 -105.5q0 -62 -27 -125t-85.5 -123.5t-141.5 -107
t-205 -75t-266 -28.5zM741 -813l-137 -139l-139 139l139 139zM1022 -813l-139 -139l-138 139l138 139z" />
    <glyph glyph-name="theh_zainar.fina" unicode="&#xfc77;" horiz-adv-x="1464" arabic-form="final" 
d="M1098 1520l137 -140l-137 -139l-140 139zM956 1235l140 -137l-140 -142l-139 142zM1376 1098l-139 -142l-139 142l139 137zM387 1063l137 -137l-137 -142l-139 142zM1200 776v-360q0 -74 17.5 -121.5t54.5 -72t81.5 -33.5t112.5 -9v-182q-71 0 -130 14.5t-109.5 45.5
t-84.5 86t-46 130q-44 -65 -120.5 -101t-166.5 -36q-98 0 -195 53q13 -93 13 -161q0 -154 -53 -280.5t-148 -215.5t-217 -148.5t-270 -91.5l-58 175q77 15 156.5 44.5t160 79t143 109.5t101.5 142.5t39 172.5q0 103 -26 219.5t-86 313.5l145 43q38 -121 41 -133
q36 -71 103.5 -105.5t144.5 -34.5q32 0 64 4.5t70 17.5t67 34.5t48.5 58.5t20.5 86l6 236z" />
    <glyph glyph-name="theh_alefMaksuraar.fina" unicode="&#xfc7a;" horiz-adv-x="1875" arabic-form="final" 
d="M1339 1499l-137 -139l-139 139l139 139zM1200 1217l-139 -142l-139 142l139 137zM1481 1217l-140 -142l-139 142l139 137zM748 -541q-131 0 -237.5 29.5t-181.5 82.5t-125.5 128t-74 164t-23.5 192q0 236 115 490l135 -53q-102 -235 -102 -418q0 -96 29 -173.5t89 -137
t160.5 -91.5t235.5 -32q111 0 208 18t162 46.5t111.5 63.5t68 69t21.5 63q0 44 -36.5 74t-137.5 59l-184 51q-128 37 -184 98.5t-56 134.5q0 109 74 212.5t196 168t253 64.5q57 0 103 -16t76.5 -39t58 -60t43.5 -68.5t37 -75.5q6 -13 9 -20l51 -102q39 -81 65 -119t66 -59
t103 -21l-4 -182q-93 0 -155 30.5t-107.5 93t-100.5 183.5l-36 80q-15 34 -23 50t-24.5 44t-32 42t-39 30t-54 22.5t-67.5 6.5q-70 0 -138 -23t-116 -57.5t-77.5 -75.5t-29.5 -76q0 -40 44 -69t139 -54l159 -43q75 -21 118.5 -39.5t78 -48.5t48.5 -72.5t14 -105.5
q0 -62 -27 -125t-85.5 -123.5t-141.5 -107t-205 -75t-266 -28.5z" />
    <glyph glyph-name="theh_yehar.fina" unicode="&#xfc7b;" horiz-adv-x="1875" arabic-form="final" 
d="M1339 1499l-137 -139l-139 139l139 139zM1200 1217l-139 -142l-139 142l139 137zM1481 1217l-140 -142l-139 142l139 137zM748 -541q-131 0 -237.5 29.5t-181.5 82.5t-125.5 128t-74 164t-23.5 192q0 236 115 490l135 -53q-102 -235 -102 -418q0 -96 29 -173.5t89 -137
t160.5 -91.5t235.5 -32q111 0 208 18t162 46.5t111.5 63.5t68 69t21.5 63q0 44 -36.5 74t-137.5 59l-184 51q-128 37 -184 98.5t-56 134.5q0 109 74 212.5t196 168t253 64.5q57 0 103 -16t76.5 -39t58 -60t43.5 -68.5t37 -75.5q6 -13 9 -20l51 -102q39 -81 65 -119t66 -59
t103 -21l-4 -182q-93 0 -155 30.5t-107.5 93t-100.5 183.5l-36 80q-15 34 -23 50t-24.5 44t-32 42t-39 30t-54 22.5t-67.5 6.5q-70 0 -138 -23t-116 -57.5t-77.5 -75.5t-29.5 -76q0 -40 44 -69t139 -54l159 -43q75 -21 118.5 -39.5t78 -48.5t48.5 -72.5t14 -105.5
q0 -62 -27 -125t-85.5 -123.5t-141.5 -107t-205 -75t-266 -28.5zM741 -813l-137 -139l-139 139l139 139zM1022 -813l-139 -139l-138 139l138 139z" />
    <glyph glyph-name="noon_zainar.fina" unicode="&#xfc8b;" horiz-adv-x="1464" arabic-form="final" 
d="M1083 1274l138 -137l-138 -142l-139 142zM387 1063l137 -137l-137 -142l-139 142zM1200 776v-360q0 -74 17.5 -121.5t54.5 -72t81.5 -33.5t112.5 -9v-182q-71 0 -130 14.5t-109.5 45.5t-84.5 86t-46 130q-44 -65 -120.5 -101t-166.5 -36q-98 0 -195 53q13 -93 13 -161
q0 -154 -53 -280.5t-148 -215.5t-217 -148.5t-270 -91.5l-58 175q77 15 156.5 44.5t160 79t143 109.5t101.5 142.5t39 172.5q0 103 -26 219.5t-86 313.5l145 43q38 -121 41 -133q36 -71 103.5 -105.5t144.5 -34.5q32 0 64 4.5t70 17.5t67 34.5t48.5 58.5t20.5 86l6 236z" />
    <glyph glyph-name="noon_alefMaksuraar.fina" unicode="&#xfc8e;" horiz-adv-x="1875" arabic-form="final" 
d="M1325 1255l-137 -141l-139 141l139 138zM748 -541q-131 0 -237.5 29.5t-181.5 82.5t-125.5 128t-74 164t-23.5 192q0 236 115 490l135 -53q-102 -235 -102 -418q0 -96 29 -173.5t89 -137t160.5 -91.5t235.5 -32q111 0 208 18t162 46.5t111.5 63.5t68 69t21.5 63
q0 44 -36.5 74t-137.5 59l-184 51q-128 37 -184 98.5t-56 134.5q0 109 74 212.5t196 168t253 64.5q57 0 103 -16t76.5 -39t58 -60t43.5 -68.5t37 -75.5q6 -13 9 -20l51 -102q39 -81 65 -119t66 -59t103 -21l-4 -182q-93 0 -155 30.5t-107.5 93t-100.5 183.5l-36 80
q-15 34 -23 50t-24.5 44t-32 42t-39 30t-54 22.5t-67.5 6.5q-70 0 -138 -23t-116 -57.5t-77.5 -75.5t-29.5 -76q0 -40 44 -69t139 -54l159 -43q75 -21 118.5 -39.5t78 -48.5t48.5 -72.5t14 -105.5q0 -62 -27 -125t-85.5 -123.5t-141.5 -107t-205 -75t-266 -28.5z" />
    <glyph glyph-name="noon_yehar.fina" unicode="&#xfc8f;" horiz-adv-x="1875" arabic-form="final" 
d="M1325 1255l-137 -141l-139 141l139 138zM748 -541q-131 0 -237.5 29.5t-181.5 82.5t-125.5 128t-74 164t-23.5 192q0 236 115 490l135 -53q-102 -235 -102 -418q0 -96 29 -173.5t89 -137t160.5 -91.5t235.5 -32q111 0 208 18t162 46.5t111.5 63.5t68 69t21.5 63
q0 44 -36.5 74t-137.5 59l-184 51q-128 37 -184 98.5t-56 134.5q0 109 74 212.5t196 168t253 64.5q57 0 103 -16t76.5 -39t58 -60t43.5 -68.5t37 -75.5q6 -13 9 -20l51 -102q39 -81 65 -119t66 -59t103 -21l-4 -182q-93 0 -155 30.5t-107.5 93t-100.5 183.5l-36 80
q-15 34 -23 50t-24.5 44t-32 42t-39 30t-54 22.5t-67.5 6.5q-70 0 -138 -23t-116 -57.5t-77.5 -75.5t-29.5 -76q0 -40 44 -69t139 -54l159 -43q75 -21 118.5 -39.5t78 -48.5t48.5 -72.5t14 -105.5q0 -62 -27 -125t-85.5 -123.5t-141.5 -107t-205 -75t-266 -28.5zM741 -813
l-137 -139l-139 139l139 139zM1022 -813l-139 -139l-138 139l138 139z" />
    <glyph glyph-name="yeh_alefMaksuraar.fina" unicode="&#xfc95;" horiz-adv-x="1875" arabic-form="final" 
d="M748 -541q-131 0 -237.5 29.5t-181.5 82.5t-125.5 128t-74 164t-23.5 192q0 236 115 490l135 -53q-102 -235 -102 -418q0 -96 29 -173.5t89 -137t160.5 -91.5t235.5 -32q111 0 208 18t162 46.5t111.5 63.5t68 69t21.5 63q0 44 -36.5 74t-137.5 59l-184 51
q-128 37 -184 98.5t-56 134.5q0 109 74 212.5t196 168t253 64.5q57 0 103 -16t76.5 -39t58 -60t43.5 -68.5t37 -75.5q6 -13 9 -20l51 -102q39 -81 65 -119t66 -59t103 -21l-4 -182q-93 0 -155 30.5t-107.5 93t-100.5 183.5l-36 80q-15 34 -23 50t-24.5 44t-32 42t-39 30
t-54 22.5t-67.5 6.5q-70 0 -138 -23t-116 -57.5t-77.5 -75.5t-29.5 -76q0 -40 44 -69t139 -54l159 -43q75 -21 118.5 -39.5t78 -48.5t48.5 -72.5t14 -105.5q0 -62 -27 -125t-85.5 -123.5t-141.5 -107t-205 -75t-266 -28.5zM1458 -799l-139 -139l-137 139l137 140zM1739 -799
l-140 -139l-139 139l139 140z" />
    <glyph glyph-name="yeh_yehar.fina" unicode="&#xfc96;" horiz-adv-x="1875" arabic-form="final" 
d="M748 -541q-131 0 -237.5 29.5t-181.5 82.5t-125.5 128t-74 164t-23.5 192q0 236 115 490l135 -53q-102 -235 -102 -418q0 -96 29 -173.5t89 -137t160.5 -91.5t235.5 -32q111 0 208 18t162 46.5t111.5 63.5t68 69t21.5 63q0 44 -36.5 74t-137.5 59l-184 51
q-128 37 -184 98.5t-56 134.5q0 109 74 212.5t196 168t253 64.5q57 0 103 -16t76.5 -39t58 -60t43.5 -68.5t37 -75.5q6 -13 9 -20l51 -102q39 -81 65 -119t66 -59t103 -21l-4 -182q-93 0 -155 30.5t-107.5 93t-100.5 183.5l-36 80q-15 34 -23 50t-24.5 44t-32 42t-39 30
t-54 22.5t-67.5 6.5q-70 0 -138 -23t-116 -57.5t-77.5 -75.5t-29.5 -76q0 -40 44 -69t139 -54l159 -43q75 -21 118.5 -39.5t78 -48.5t48.5 -72.5t14 -105.5q0 -62 -27 -125t-85.5 -123.5t-141.5 -107t-205 -75t-266 -28.5zM1458 -799l-139 -139l-137 139l137 140zM1739 -799
l-140 -139l-139 139l139 140zM741 -813l-137 -139l-139 139l139 139zM1022 -813l-139 -139l-138 139l138 139z" />
    <glyph glyph-name="allahlongar" unicode="&#xfdfa;" horiz-adv-x="3260" arabic-form="isolated" 
d="M649 2167l-31 -6q0 73 -28 143l43 12q23 -82 16 -149zM594 1980q-32 0 -44.5 29.5t1.5 73.5l33 12q-25 -67 16 -67q9 0 15 9t6 23v43l32 11v-46q0 -13 7.5 -21.5t19.5 -8.5q22 0 22 39q0 20 -10 45l31 10q12 -40 12 -66q0 -35 -15.5 -55t-41.5 -20q-27 0 -39 24
q-14 -35 -45 -35zM1065 1970l12 -590h-51l-16 582zM2929 967q0 -47 33 -71t83 -24q18 0 40.5 3t39 6.5t43 9.5t37.5 8l-14 -70q-63 -15 -150 -28v-15h-475q-40 0 -74 17v-17h-1419l6 -184l6 -305q1 -50 26 -68t71 -18h1020q49 0 70 17t28 67l8 53l41 8v-63q0 -82 76 -82
q36 0 54 18t22 66l8 70l41 8v-78q0 -84 71 -84q33 0 51.5 20t18.5 54q0 44 -20 116l45 13q24 -50 24 -129q0 -67 -31.5 -105.5t-89.5 -38.5q-80 0 -98 74q-21 -74 -100 -74q-35 0 -64 19v-19h-1181q-48 0 -78 21v-21h-486q-78 3 -108 54q-38 -56 -125 -50q-19 1 -49.5 6.5
t-50 8.5t-42.5 0.5t-36.5 -13.5t-23 -38t-9.5 -70q0 -92 10 -180l-51 -11q-13 110 -10 195q3 196 131 190q9 55 27 101.5t52 81.5t76 35q54 0 87.5 -53.5t33.5 -123.5q8 -34 31 -48.5t72 -14.5h319q44 0 68.5 18t23.5 68l-10 305l-6 184h-129q-51 0 -84 23v-23h-320
q-121 3 -133 117q-51 -39 -116 -39q-52 0 -82.5 24.5t-30.5 72.5q0 74 53 124t168 91v47l51 6l7 -289q1 -51 22.5 -67.5t65.5 -16.5h168q44 0 65 17.5t27 72.5l8 68l41 8v-76q0 -54 23 -72t71 -18h121l-6 191l53 22l6 -213h1266q46 0 69.5 17t22.5 67l-14 430h2v2h-625h-12
h-17q2 -6 2 -16q0 -67 -65 -119.5t-182 -52.5q-109 0 -169.5 59t-60.5 160q0 95 43 196l47 -18q-37 -88 -37 -166t48.5 -120t134.5 -42q79 0 135.5 30t58.5 60q1 10 -9.5 18t-31.5 15t-40 11.5t-48 9.5l13 59q100 -14 190 -14h315q45 0 69.5 17.5t21.5 66.5l-15 428l53 8
l11 -436q1 -50 24.5 -67t69.5 -17h74l-9 198l54 17l4 -215h123q45 0 66.5 17.5t27.5 72.5l6 67l43 7v-74q0 -81 61 -90q126 266 273 266q65 0 106 -53t41 -125q0 -158 -194 -158h-203q-39 0 -70 17v-17h-278l2 -67l10 -365q1 -50 24.5 -67t69.5 -17h359q-49 40 -49 111
q0 69 46 112t109 43q56 0 101 -28l-19 -56q-35 21 -84 21q-45 0 -75.5 -25t-30.5 -67zM293 1456q-58 0 -88.5 25t-30.5 71q0 145 234 217v29l53 8l-8 -264q-1 -49 24 -70.5t66 -21.5t63.5 18.5t22.5 65.5l-11 334l54 8l2 -342q0 -48 24 -66t70 -18q43 0 65 17t19 61l-21 383
l54 8l12 -385q3 -74 -29.5 -114t-99.5 -40q-41 0 -73.5 17t-43.5 49q-12 -32 -41.5 -49t-68.5 -17q-51 0 -85.5 28.5t-43.5 88.5q-62 -41 -119 -41zM2413 1817l225 45v-45l-225 -45v45zM1497 1745l225 45v-45l-225 -45v45zM410 1556l-2 154q-185 -63 -185 -143q0 -45 78 -45
q60 0 109 34zM3058 1640q-119 0 -226 -198h189q145 0 145 88q0 43 -30 76.5t-78 33.5zM2701 1446q0 -2 -2 -4h4q-2 2 -2 4zM1272 1010l663 116v-43l-663 -118v45zM248 928q51 0 106 35l-4 153q-90 -36 -133 -71t-43 -74q0 -20 20.5 -31.5t53.5 -11.5zM774 860q0 -2 -2 -4h4
q-2 2 -2 4zM672 680l49 53l49 -53l-49 -55zM819 733l49 -53l-49 -55l-49 55zM2089 504l-948 -176l-6 43l948 176zM3019 430q56 0 93.5 -64.5t37.5 -166.5q0 -109 -77.5 -183.5t-193.5 -101.5l-18 70q65 11 128.5 48t92.5 87q-76 -5 -136 34t-60 113q0 68 40 116t93 48z
M406 213q34 0 54.5 18.5t20.5 49.5q0 41 -22 74.5t-60 33.5q-39 0 -69 -51t-35 -111q77 -14 111 -14zM3105 182q7 64 -19.5 124.5t-74.5 60.5q-32 0 -57 -27t-25 -66q0 -51 55 -75.5t121 -16.5zM2316 211h4q-2 2 -2 4q0 -2 -2 -4zM2499 -59q0 -22 -7 -43h54v-39h-729l-45 2
v35l45 2h399q27 0 37.5 10t13.5 39l4 30l23 7v-37q0 -46 39 -49q20 2 29 12t12 37l4 41l22 4v-45q0 -45 37 -49q37 0 37 43q0 17 -12 67l24 8q13 -35 13 -75zM2277 -100v-2v2zM2384 -100v-2v2z" />
    <glyph glyph-name="rial" unicode="&#xfdfc;" horiz-adv-x="2947" arabic-form="isolated" 
d="M2398 395q0 -189 -106.5 -292t-300.5 -103h-2q-382 0 -396 352l-47 1256l152 20l31 -1227q2 -66 21 -110.5t55 -67.5t79 -32t105 -9q137 0 203.5 52.5t66.5 158.5q0 126 -78 398l137 30q34 -93 57 -209.5t23 -216.5zM1311 1538l30 -1345q8 -293 -151.5 -460t-446.5 -167
q-277 0 -431 146.5t-154 393.5q0 123 28.5 237t69.5 187l123 -34q-80 -177 -80 -328q0 -192 116 -307t337 -115q208 0 332 107.5t120 312.5l-47 1352zM2509 860l145 41q54 -167 86.5 -311t44 -282t-4.5 -251.5t-62.5 -214.5t-125.5 -178t-198 -135.5t-276 -91.5l-58 174
q144 27 250 75.5t174 112t104.5 151t46.5 181t-5 215.5t-44 242t-77 272zM1438 -612l-146 149l146 146l145 -146zM1733 -612l-146 149l146 146l145 -146z" />
    <glyph glyph-name="alefMaddaar.fina" unicode="&#x622;" horiz-adv-x="567" arabic-form="final" 
d="M-12 1217l-92 30q12 79 56 122.5t114 43.5q46 0 132 -25.5t134 -25.5q61 0 129 47l16 -84q-53 -68 -164 -68q-43 0 -113 20.5t-110 20.5q-77 0 -102 -81zM563 182v-182q-382 0 -393 352l-25 733l146 21l22 -705q6 -129 66 -174t184 -45z" />
    <glyph glyph-name="alefHamzaabovear.fina" unicode="&#x623;" horiz-adv-x="567" arabic-form="final" 
d="M420 1350v-97q-42 -8 -216 -18.5t-233 -20.5v97q83 12 103 14q-45 48 -45 121q0 81 59.5 134.5t144.5 53.5q70 0 121 -39v-96q-50 33 -114 33q-50 0 -85.5 -22.5t-35.5 -61.5q0 -83 110 -107q77 0 191 9zM274 1108l39 -707q7 -129 66.5 -174t183.5 -45v-182
q-377 0 -393 352l-41 735z" />
    <glyph glyph-name="wawHamzaabovear.fina" unicode="&#x624;" horiz-adv-x="1015" arabic-form="final" 
d="M711 1219v-99q-39 -6 -214 -16t-235 -21v95q70 11 103 14q-46 49 -46 123q0 78 60 132t143 54q71 0 123 -37v-96q-54 31 -115 31q-52 0 -86 -22t-34 -60q0 -83 108 -107q76 0 193 9zM874 182h142v-182h-178q-42 -141 -148.5 -256.5t-248 -189t-308.5 -109.5l-49 156
q86 20 174 54.5t175 84t158 119.5t107 149h-194q-96 0 -171 30t-121 81.5t-69.5 116.5t-23.5 139q0 172 112 300t261 128q115 0 201 -87.5t130.5 -226t50.5 -307.5zM231 379q0 -84 72.5 -140.5t204.5 -56.5h235q-8 194 -83.5 324.5t-198.5 130.5q-89 0 -159.5 -77
t-70.5 -181z" />
    <glyph glyph-name="alefHamzabelowar.fina" unicode="&#x625;" horiz-adv-x="565" arabic-form="final" 
d="M272 1538l31 -1137q1 -66 19.5 -110.5t54.5 -67.5t79 -32t105 -9v-182q-379 0 -393 352l-47 1166zM217 -467q0 -82 111 -106q89 0 190 8v-97q-42 -8 -215.5 -17t-232.5 -19v94q84 12 102 14q-45 48 -45 121q0 81 60 134.5t145 53.5q71 0 121 -38v-97q-50 33 -115 33
q-50 0 -85.5 -22.5t-35.5 -61.5z" />
    <glyph glyph-name="yehHamzaabovear.fina" unicode="&#x626;" horiz-adv-x="1482" arabic-form="final" 
d="M874 991v-98q-39 -6 -213.5 -16t-234.5 -21v94q84 14 102 15q-45 48 -45 122q0 79 60 133t143 54q71 0 123 -37v-96q-53 30 -115 30q-52 0 -86.5 -21.5t-34.5 -59.5q0 -83 109 -107q88 0 192 8zM1483 182v-182q-49 0 -80 2q4 -24 4 -41q0 -64 -27 -127t-84.5 -121
t-138 -102.5t-197.5 -71t-253 -26.5q-313 0 -482.5 153t-169.5 420q0 242 119 508l137 -49q-104 -222 -104 -428q0 -209 134.5 -315.5t381.5 -106.5q113 0 218.5 24t176 59.5t113 75t43.5 72.5q1 26 -28.5 47.5t-86.5 38t-114.5 28t-135.5 23.5l35 158q268 -39 539 -39z" />
    <glyph glyph-name="yehHamzaabovear.init" unicode="&#x626;" horiz-adv-x="583" arabic-form="initial" 
d="M231 1071q89 0 193 8v-98q-39 -6 -214 -16t-235 -21v94q83 13 103 15q-45 48 -45 123q0 78 60 132t143 54q70 0 122 -37v-96q-54 31 -114 31q-52 0 -86.5 -22t-34.5 -60q0 -83 108 -107zM193 791l137 30q34 -93 57 -209.5t23 -216.5q0 -189 -106.5 -292t-301.5 -103h-2
l-43 16v148l43 16v2q137 0 203.5 52.5t66.5 158.5q0 129 -77 398z" />
    <glyph glyph-name="yehHamzaabovear.medi" unicode="&#x626;" horiz-adv-x="671" arabic-form="medial" 
d="M524 1044v-98q-39 -6 -213.5 -16t-234.5 -21v95q71 11 102 14q-45 48 -45 123q0 78 60 132t143 54q71 0 123 -37v-96q-54 31 -115 31q-52 0 -86.5 -22t-34.5 -60q0 -83 109 -107q88 0 192 8zM408 612v-196q0 -73 17.5 -120.5t54.5 -71.5t81.5 -33t112.5 -9v-182
q-291 0 -352 195q-29 -96 -113 -145.5t-207 -49.5h-2l-43 16v148l43 18q63 0 104 8.5t76.5 33t56 71.5t29.5 121l21 176z" />
    <glyph glyph-name="alefar.fina" unicode="&#x627;" horiz-adv-x="565" arabic-form="final" 
d="M561 182v-182q-379 0 -393 352l-47 1166l151 20l31 -1137q1 -66 19.5 -110.5t54.5 -67.5t79 -32t105 -9z" />
    <glyph glyph-name="behar.fina" unicode="&#x628;" horiz-adv-x="1888" arabic-form="final" 
d="M1090 0h-435q-598 0 -598 469q0 168 66 338l137 -35q-47 -158 -47 -266q0 -169 108 -246.5t341 -77.5h423q200 0 295 56.5t109 181.5l20 176l121 20v-202q0 -72 16.5 -119t52 -71t79 -33t110.5 -9v-182q-295 0 -342 205q-91 -205 -456 -205zM1030 -260l-137 -141
l-139 141l139 137z" />
    <glyph glyph-name="behar.init" unicode="&#x628;" horiz-adv-x="583" arabic-form="initial" 
d="M2 0h-2l-43 16v148l43 18q137 0 203.5 52.5t66.5 158.5q0 129 -77 398l137 30q34 -93 57 -209.5t23 -216.5q0 -189 -107 -292t-301 -103zM141 -260l140 137l137 -137l-137 -141z" />
    <glyph glyph-name="behar.medi" unicode="&#x628;" horiz-adv-x="671" arabic-form="medial" 
d="M408 612v-196q0 -73 17.5 -120.5t54.5 -71.5t81.5 -33t112.5 -9v-182q-291 0 -352 195q-29 -96 -113 -145.5t-207 -49.5h-2l-43 16v148l43 18q63 0 104 8.5t76.5 33t56 71.5t29.5 121l21 176zM330 -406l-140 142l140 137l137 -137z" />
    <glyph glyph-name="tehMarbutaar.fina" unicode="&#x629;" horiz-adv-x="1114" arabic-form="final" 
d="M442 1626l140 -137l-140 -141l-139 141zM723 1626l139 -137l-139 -141l-139 141zM850 1155l20 -754q2 -69 20 -114t53 -67t75.5 -30t101.5 -8l-4 -182q-353 0 -387 301q-69 -44 -159.5 -71t-172.5 -27q-146 0 -232.5 64t-86.5 188q0 191 152 321.5t479 235.5l-4 123z
M211 481q0 -53 57 -81.5t154 -28.5q76 0 159.5 26t141.5 62l-10 397q-255 -90 -378.5 -181.5t-123.5 -193.5z" />
    <glyph glyph-name="tehar.fina" unicode="&#x62a;" horiz-adv-x="1888" arabic-form="final" 
d="M842 1110l-140 -141l-139 141l139 137zM1122 1110l-139 -141l-139 141l139 137zM1090 0h-435q-598 0 -598 469q0 168 66 338l137 -35q-47 -158 -47 -266q0 -169 108 -246.5t341 -77.5h423q200 0 295 56.5t109 181.5l20 176l121 20v-202q0 -72 16.5 -119t52 -71t79 -33
t110.5 -9v-182q-295 0 -342 205q-91 -205 -456 -205z" />
    <glyph glyph-name="tehar.init" unicode="&#x62a;" horiz-adv-x="583" arabic-form="initial" 
d="M68 1194l139 -137l-139 -142l-140 142zM348 1194l139 -137l-139 -142l-139 142zM193 791l137 30q34 -93 57 -209.5t23 -216.5q0 -189 -107 -292t-301 -103h-2l-43 16v148l43 18q137 0 203.5 52.5t66.5 158.5q0 129 -77 398z" />
    <glyph glyph-name="tehar.medi" unicode="&#x62a;" horiz-adv-x="671" arabic-form="medial" 
d="M166 1159l139 -137l-139 -141l-139 141zM446 1159l140 -137l-140 -141l-139 141zM408 612v-196q0 -73 17.5 -120.5t54.5 -71.5t81.5 -33t112.5 -9v-182q-291 0 -352 195q-29 -96 -113 -145.5t-207 -49.5h-2l-43 16v148l43 18q63 0 104 8.5t76.5 33t56 71.5t29.5 121
l21 176z" />
    <glyph glyph-name="thehar.fina" unicode="&#x62b;" horiz-adv-x="1888" arabic-form="final" 
d="M987 1384l-137 -139l-139 139l139 140zM848 1102l-139 -141l-138 141l138 137zM1128 1102l-139 -141l-139 141l139 137zM1090 0h-435q-598 0 -598 469q0 168 66 338l137 -35q-47 -158 -47 -266q0 -169 108 -246.5t341 -77.5h423q200 0 295 56.5t109 181.5l20 176l121 20
v-202q0 -72 16.5 -119t52 -71t79 -33t110.5 -9v-182q-295 0 -342 205q-91 -205 -456 -205z" />
    <glyph glyph-name="thehar.init" unicode="&#x62b;" horiz-adv-x="583" arabic-form="initial" 
d="M213 1470l139 -139l-139 -139l-137 139zM74 1186l139 -137l-139 -142l-140 142zM492 1049l-138 -142l-139 142l139 137zM193 791l137 30q34 -93 57 -209.5t23 -216.5q0 -189 -107 -292t-301 -103h-2l-43 16v148l43 18q137 0 203.5 52.5t66.5 158.5q0 129 -77 398z" />
    <glyph glyph-name="thehar.medi" unicode="&#x62b;" horiz-adv-x="671" arabic-form="medial" 
d="M313 1436l138 -140l-138 -139l-139 139zM172 1151l139 -137l-139 -142l-139 142zM592 1014l-139 -142l-140 142l140 137zM408 612v-196q0 -73 17.5 -120.5t54.5 -71.5t81.5 -33t112.5 -9v-182q-291 0 -352 195q-29 -96 -113 -145.5t-207 -49.5h-2l-43 16v148l43 18
q63 0 104 8.5t76.5 33t56 71.5t29.5 121l21 176z" />
    <glyph glyph-name="jeemar.fina" unicode="&#x62c;" horiz-adv-x="1536" arabic-form="final" 
d="M1534 182v-182q-473 0 -428 625q-188 -29 -345 -83t-281.5 -133t-194.5 -190t-70 -244q0 -86 39 -161t112 -132.5t186 -90.5t253 -33q301 0 567 112v-12l-24 -164q-260 -112 -547 -112q-324 0 -516 154.5t-191 428.5q1 138 49.5 255t129 201.5t194 150.5t237 108
t265.5 68q-62 23 -168 69q-216 92 -363.5 106.5t-290.5 -44.5l29 159q52 25 105 38.5t97 18t98 -3.5t91 -17t94.5 -31t90 -36.5t94.5 -43.5q71 -33 106.5 -49t104.5 -42t118.5 -37.5t116.5 -19.5t131 -4l-24 -156q-128 -8 -185 -14q-14 -230 64 -344.5t256 -114.5zM989 84
l-137 -141l-139 141l139 137z" />
    <glyph glyph-name="jeemar.init" unicode="&#x62c;" horiz-adv-x="1507" arabic-form="initial" 
d="M809 737q162 -77 308.5 -121.5t316.5 -44.5l-27 -151q-49 1 -99 -7t-86 -17.5t-86.5 -31.5t-76 -35t-79.5 -42t-73 -39q-184 -96 -246 -123q-250 -109 -563 -123q-47 -2 -96 -2h-6v2l-39 14v148l39 16v2q113 0 215 9.5t198 32t163.5 41t159 57.5t134 58.5t135.5 64.5
q13 6 20 9.5l18 9t20 9.5q-135 35 -275 102q-86 39 -162.5 63.5t-164 39t-176.5 3t-172 -49.5l24 166q90 38 179.5 50t175.5 -2.5t160.5 -40t160.5 -67.5zM750 -479l-140 141l140 137l137 -137z" />
    <glyph glyph-name="jeemar.medi" unicode="&#x62c;" horiz-adv-x="1626" arabic-form="medial" 
d="M1233 397q23 -107 127.5 -161t265.5 -54v-182q-232 0 -360.5 95t-151.5 259q-10 -4 -207 -106q-184 -96 -246 -123q-250 -109 -563 -123q-47 -2 -96 -2h-6v2l-39 14v148l39 16v2q113 0 215 9.5t198 32t163.5 41t159 57.5t134 58.5t135.5 64.5q13 6 20 9.5l18 9t20 9.5
q-135 35 -275 102q-86 39 -162.5 63.5t-164 39t-176.5 3t-172 -49.5l24 166q90 38 179.5 50t175.5 -2.5t160.5 -40t160.5 -67.5q162 -77 308.5 -121.5t316.5 -44.5l-27 -151q-74 2 -174 -23zM748 -479l-140 141l140 137l137 -137z" />
    <glyph glyph-name="hahar.fina" unicode="&#x62d;" horiz-adv-x="1536" arabic-form="final" 
d="M1534 182v-182q-473 0 -428 625q-188 -29 -345 -83t-281.5 -133t-194.5 -190t-70 -244q0 -86 39 -161t112 -132.5t186 -90.5t253 -33q301 0 567 112v-12l-24 -164q-260 -112 -547 -112q-324 0 -516 154.5t-191 428.5q1 138 49.5 255t129 201.5t194 150.5t237 108
t265.5 68q-62 23 -168 69q-216 92 -363.5 106.5t-290.5 -44.5l29 159q52 25 105 38.5t97 18t98 -3.5t91 -17t94.5 -31t90 -36.5t94.5 -43.5q71 -33 106.5 -49t104.5 -42t118.5 -37.5t116.5 -19.5t131 -4l-24 -156q-128 -8 -185 -14q-14 -230 64 -344.5t256 -114.5z" />
    <glyph glyph-name="hahar.init" unicode="&#x62d;" horiz-adv-x="1507" arabic-form="initial" 
d="M809 737q162 -77 308.5 -121.5t316.5 -44.5l-27 -151q-49 1 -99 -7t-86 -17.5t-86.5 -31.5t-76 -35t-79.5 -42t-73 -39q-184 -96 -246 -123q-250 -109 -563 -123q-47 -2 -96 -2h-6v2l-39 14v148l39 16v2q113 0 215 9.5t198 32t163.5 41t159 57.5t134 58.5t135.5 64.5
q13 6 20 9.5l18 9t20 9.5q-135 35 -275 102q-86 39 -162.5 63.5t-164 39t-176.5 3t-172 -49.5l24 166q90 38 179.5 50t175.5 -2.5t160.5 -40t160.5 -67.5z" />
    <glyph glyph-name="hahar.medi" unicode="&#x62d;" horiz-adv-x="1626" arabic-form="medial" 
d="M1233 397q23 -107 127.5 -161t265.5 -54v-182q-232 0 -360.5 95t-151.5 259q-10 -4 -207 -106q-184 -96 -246 -123q-250 -109 -563 -123q-47 -2 -96 -2h-6v2l-39 14v148l39 16v2q113 0 215 9.5t198 32t163.5 41t159 57.5t134 58.5t135.5 64.5q13 6 20 9.5l18 9t20 9.5
q-135 35 -275 102q-86 39 -162.5 63.5t-164 39t-176.5 3t-172 -49.5l24 166q90 38 179.5 50t175.5 -2.5t160.5 -40t160.5 -67.5q162 -77 308.5 -121.5t316.5 -44.5l-27 -151q-74 2 -174 -23z" />
    <glyph glyph-name="khahar.fina" unicode="&#x62e;" horiz-adv-x="1536" arabic-form="final" 
d="M784 1503l138 -137l-138 -141l-139 141zM1534 182v-182q-473 0 -428 625q-188 -29 -345 -83t-281.5 -133t-194.5 -190t-70 -244q0 -86 39 -161t112 -132.5t186 -90.5t253 -33q301 0 567 112v-12l-24 -164q-260 -112 -547 -112q-324 0 -516 154.5t-191 428.5
q1 138 49.5 255t129 201.5t194 150.5t237 108t265.5 68q-62 23 -168 69q-216 92 -363.5 106.5t-290.5 -44.5l29 159q52 25 105 38.5t97 18t98 -3.5t91 -17t94.5 -31t90 -36.5t94.5 -43.5q71 -33 106.5 -49t104.5 -42t118.5 -37.5t116.5 -19.5t131 -4l-24 -156
q-128 -8 -185 -14q-14 -230 64 -344.5t256 -114.5z" />
    <glyph glyph-name="khahar.init" unicode="&#x62e;" horiz-adv-x="1507" arabic-form="initial" 
d="M768 1399l137 -137l-137 -142l-139 142zM809 737q162 -77 308.5 -121.5t316.5 -44.5l-27 -151q-49 1 -99 -7t-86 -17.5t-86.5 -31.5t-76 -35t-79.5 -42t-73 -39q-184 -96 -246 -123q-250 -109 -563 -123q-47 -2 -96 -2h-6v2l-39 14v148l39 16v2q113 0 215 9.5t198 32
t163.5 41t159 57.5t134 58.5t135.5 64.5q13 6 20 9.5l18 9t20 9.5q-135 35 -275 102q-86 39 -162.5 63.5t-164 39t-176.5 3t-172 -49.5l24 166q90 38 179.5 50t175.5 -2.5t160.5 -40t160.5 -67.5z" />
    <glyph glyph-name="khahar.medi" unicode="&#x62e;" horiz-adv-x="1626" arabic-form="medial" 
d="M768 1399l137 -137l-137 -142l-139 142zM1233 397q23 -107 127.5 -161t265.5 -54v-182q-232 0 -360.5 95t-151.5 259q-10 -4 -207 -106q-184 -96 -246 -123q-250 -109 -563 -123q-47 -2 -96 -2h-6v2l-39 14v148l39 16v2q113 0 215 9.5t198 32t163.5 41t159 57.5t134 58.5
t135.5 64.5q13 6 20 9.5l18 9t20 9.5q-135 35 -275 102q-86 39 -162.5 63.5t-164 39t-176.5 3t-172 -49.5l24 166q90 38 179.5 50t175.5 -2.5t160.5 -40t160.5 -67.5q162 -77 308.5 -121.5t316.5 -44.5l-27 -151q-74 2 -174 -23z" />
    <glyph glyph-name="dalar.fina" unicode="&#x62f;" horiz-adv-x="1290" arabic-form="final" 
d="M66 205l59 139q70 -97 164 -138.5t229 -41.5q148 0 238 55t96 154l-195 602l142 63l205 -620q44 -131 105 -183.5t181 -52.5v-182q-100 0 -169 30t-110.5 80t-80.5 134q-39 -127 -147.5 -194.5t-280.5 -67.5q-71 0 -133.5 13t-108 34t-84.5 50.5t-64.5 60t-45.5 65.5z
" />
    <glyph glyph-name="thalar.fina" unicode="&#x630;" horiz-adv-x="1290" arabic-form="final" 
d="M823 1315l-137 -141l-139 141l139 137zM63 205l60 139q70 -97 164 -138.5t229 -41.5q148 0 238 55t96 154l-195 602l142 63l204 -620q44 -131 105.5 -183.5t181.5 -52.5v-182q-100 0 -169 30t-110.5 80t-80.5 134q-39 -127 -147.5 -194.5t-280.5 -67.5q-88 0 -162 19
t-126 52.5t-87.5 70.5t-61.5 81z" />
    <glyph glyph-name="rehar.fina" unicode="&#x631;" horiz-adv-x="839" arabic-form="final" 
d="M604 408q32 -132 86 -179t150 -47v-182q-139 0 -215 82q-15 -131 -73.5 -239t-151.5 -185t-208 -129t-253 -82l-58 176q87 13 172.5 43t164.5 79t139 111t96 144t36 172q0 92 -22.5 197.5t-69.5 263.5l138 47q29 -91 57 -213q0 -4 2 -6q2 -8 5 -26t5 -27z" />
    <glyph glyph-name="zainar.fina" unicode="&#x632;" horiz-adv-x="839" arabic-form="final" 
d="M424 1100l137 -137l-137 -142l-139 142zM604 408q32 -132 86 -179t150 -47v-182q-139 0 -215 82q-15 -131 -73.5 -239t-151.5 -185t-208 -129t-253 -82l-58 176q87 13 172.5 43t164.5 79t139 111t96 144t36 172q0 92 -22.5 197.5t-69.5 263.5l138 47q29 -91 57 -213
q0 -4 2 -6q2 -8 5 -26t5 -27z" />
    <glyph glyph-name="seenar.fina" unicode="&#x633;" horiz-adv-x="2660" arabic-form="final" 
d="M2378 354q9 -93 72.5 -132.5t211.5 -39.5v-182q-249 0 -344 139q-90 -139 -286 -139q-105 0 -178.5 48.5t-102.5 141.5q-61 -187 -295 -190q-107 0 -174 47q-28 -230 -196 -361.5t-435 -131.5q-142 0 -256 40.5t-187.5 112t-112 167.5t-38.5 208q0 93 23 192t63 179
l123 -50q-61 -149 -61 -276q0 -182 121 -287.5t338 -105.5q137 0 245 39.5t174 124t66 202.5q0 155 -90 414l145 31q35 -103 56 -195q28 -95 77.5 -131.5t132.5 -36.5q107 0 159 46.5t67 166.5l20 168l121 21v-189q0 -213 201 -213q95 0 146.5 50t51.5 141q0 103 -71 305
l141 41q30 -58 51 -158.5t21 -187.5v-19z" />
    <glyph glyph-name="seenar.init" unicode="&#x633;" horiz-adv-x="1650" arabic-form="initial" 
d="M1335 674l127 35q30 -59 52 -155t22 -181q0 -174 -91 -273.5t-257 -99.5q-105 0 -177.5 48t-101.5 140q-30 -94 -104 -141t-182 -47q-100 0 -176 48t-109 142q-29 -96 -111.5 -142t-224.5 -48h-6l2 2l-41 14v148l43 16v2q141 0 202 44.5t81 170.5l20 142l121 20v-164
q0 -117 55.5 -165t155.5 -48q103 0 153.5 46t65.5 167l20 185l119 20v-205q0 -213 201 -213q96 0 148.5 50t52.5 141q0 111 -60 301z" />
    <glyph glyph-name="seenar.medi" unicode="&#x633;" horiz-adv-x="1818" arabic-form="medial" 
d="M1536 354q9 -93 73 -132.5t212 -39.5v-182q-249 0 -344 139q-93 -139 -289 -139q-105 0 -177.5 48t-101.5 140q-30 -94 -104 -141t-182 -47q-100 0 -176 48t-109 142q-29 -96 -111.5 -142t-224.5 -48h-6v2l-39 14v148l43 18q141 0 202 44.5t81 170.5l20 142l121 20v-164
q0 -117 55.5 -165t155.5 -48q103 0 153.5 46t65.5 167l20 185l119 20v-205q0 -213 201 -213q96 0 148.5 50t52.5 141q0 111 -60 301l127 35q30 -59 52 -155t22 -181v-19z" />
    <glyph glyph-name="sheenar.fina" unicode="&#x634;" horiz-adv-x="2660" arabic-form="final" 
d="M1794 1241l137 -139l-137 -139l-139 139zM1653 956l139 -137l-139 -141l-140 141zM2073 819l-140 -141l-139 141l139 137zM2378 354q9 -93 72.5 -132.5t211.5 -39.5v-182q-249 0 -344 139q-90 -139 -286 -139q-105 0 -178.5 48.5t-102.5 141.5q-61 -187 -295 -190
q-107 0 -174 47q-28 -230 -196 -361.5t-435 -131.5q-142 0 -256 40.5t-187.5 112t-112 167.5t-38.5 208q0 93 23 192t63 179l123 -50q-61 -149 -61 -276q0 -182 121 -287.5t338 -105.5q137 0 245 39.5t174 124t66 202.5q0 155 -90 414l145 31q35 -103 56 -195
q28 -95 77.5 -131.5t132.5 -36.5q107 0 159 46.5t67 166.5l20 168l121 21v-189q0 -213 201 -213q95 0 146.5 50t51.5 141q0 103 -71 305l141 41q30 -58 51 -158.5t21 -187.5v-19z" />
    <glyph glyph-name="sheenar.init" unicode="&#x634;" horiz-adv-x="1650" arabic-form="initial" 
d="M940 1272l137 -139l-137 -140l-139 140zM799 987l139 -137l-139 -141l-137 141zM1219 850l-140 -141l-139 141l139 137zM1335 674l127 35q30 -59 52 -155t22 -181q0 -174 -91 -273.5t-257 -99.5q-105 0 -177.5 48t-101.5 140q-30 -94 -104 -141t-182 -47q-100 0 -176 48
t-109 142q-29 -96 -111.5 -142t-224.5 -48h-6v2l-39 14v148l43 18q141 0 202 44.5t81 170.5l20 142l121 20v-164q0 -117 55.5 -165t155.5 -48q103 0 153.5 46t65.5 167l20 185l119 20v-205q0 -213 201 -213q96 0 148.5 50t52.5 141q0 111 -60 301z" />
    <glyph glyph-name="sheenar.medi" unicode="&#x634;" horiz-adv-x="1818" arabic-form="medial" 
d="M940 1272l137 -139l-137 -140l-139 140zM799 987l139 -137l-139 -141l-137 141zM1219 850l-140 -141l-139 141l139 137zM1536 354q9 -93 73 -132.5t212 -39.5v-182q-249 0 -344 139q-93 -139 -289 -139q-105 0 -177.5 48t-101.5 140q-30 -94 -104 -141t-182 -47
q-100 0 -176 48t-109 142q-29 -96 -111.5 -142t-224.5 -48h-6v2l-39 14v148l43 18q141 0 202 44.5t81 170.5l20 142l121 20v-164q0 -117 55.5 -165t155.5 -48q103 0 153.5 46t65.5 167l20 185l119 20v-205q0 -213 201 -213q96 0 148.5 50t52.5 141q0 111 -60 301l127 35
q30 -59 52 -155t22 -181v-19z" />
    <glyph glyph-name="sadar.fina" unicode="&#x635;" horiz-adv-x="2822" arabic-form="final" 
d="M2535 371q6 -102 69.5 -145.5t217.5 -43.5v-182q-267 0 -360 164q-130 -164 -475 -164h-504q-111 6 -185 70q-25 -236 -193.5 -370t-438.5 -134q-287 0 -448 145.5t-161 394.5q0 120 29.5 232t73.5 188l121 -49q-78 -179 -78 -323q0 -187 123.5 -297.5t353.5 -110.5
q220 0 349.5 98t129.5 277q0 113 -26 224.5t-84 264.5l139 41q60 -131 88 -270q32 -109 90 -156q344 652 750 652q124 0 222 -66.5t148.5 -171t50.5 -223.5q0 -31 -2 -45zM1995 182q418 0 418 230q0 113 -88.5 200.5t-225.5 87.5q-95 0 -184 -38t-167.5 -110.5t-147 -161.5
t-136.5 -206q12 -2 43 -2h488z" />
    <glyph glyph-name="sadar.init" unicode="&#x635;" horiz-adv-x="1890" arabic-form="initial" 
d="M1352 877q123 0 221 -66.5t148.5 -171t50.5 -223.5q0 -416 -551 -416h-574q-267 10 -325 195q-29 -96 -113.5 -145.5t-206.5 -49.5h-2l-43 16v148l43 16v2q63 0 104 8.5t76.5 33t56 71.5t29.5 121l21 176l121 20v-196q0 -115 43 -167t131 -63q355 691 770 691zM696 182
h533q418 0 418 230q0 113 -88.5 200.5t-225.5 87.5q-95 0 -184 -38.5t-168 -111t-147.5 -162t-137.5 -206.5z" />
    <glyph glyph-name="sadar.medi" unicode="&#x635;" horiz-adv-x="2052" arabic-form="medial" 
d="M1769 358q8 -95 71.5 -135.5t211.5 -40.5v-182q-260 0 -358 162q-128 -162 -473 -162h-574q-267 10 -325 195q-29 -96 -113 -145.5t-207 -49.5h-2l-43 16v148l43 18q63 0 104 8.5t76.5 33t56 71.5t29.5 121l21 176l121 20v-196q0 -114 43.5 -165.5t132.5 -64.5
q349 691 768 691q123 0 221 -66.5t148.5 -171t50.5 -223.5q0 -31 -3 -58zM1229 182q418 0 418 230q0 113 -88.5 200.5t-225.5 87.5q-95 0 -184 -38.5t-168 -111t-147.5 -162t-137.5 -206.5h533z" />
    <glyph glyph-name="dadar.fina" unicode="&#x636;" horiz-adv-x="2822" arabic-form="final" 
d="M2073 1350l137 -138l-137 -141l-140 141zM2533 371q6 -102 69.5 -145.5t217.5 -43.5v-182q-267 0 -360 164q-130 -164 -475 -164h-504q-111 6 -185 70q-25 -236 -193.5 -370t-438.5 -134q-287 0 -448 145.5t-161 394.5q0 120 29.5 232t73.5 188l121 -49
q-78 -179 -78 -323q0 -187 123.5 -297.5t353.5 -110.5q220 0 349.5 98t129.5 277q0 113 -26 224.5t-84 264.5l139 41q60 -131 88 -270q32 -109 90 -156q344 652 750 652q124 0 222 -66.5t148.5 -171t50.5 -223.5q0 -31 -2 -45zM1993 182q417 0 417 230q0 113 -88 200.5
t-225 87.5q-95 0 -184 -38t-167.5 -110.5t-147 -161.5t-136.5 -206q12 -2 43 -2h488z" />
    <glyph glyph-name="dadar.init" unicode="&#x636;" horiz-adv-x="1890" arabic-form="initial" 
d="M1221 1346l137 -138l-137 -141l-140 141zM1352 877q123 0 221 -66.5t148.5 -171t50.5 -223.5q0 -416 -551 -416h-574q-267 10 -325 195q-29 -96 -113 -145.5t-207 -49.5h-2l-43 16v148l43 18q63 0 104 8.5t76.5 33t56 71.5t29.5 121l21 176l121 20v-196
q0 -114 43.5 -165.5t132.5 -64.5q349 691 768 691zM1229 182q418 0 418 230q0 113 -88.5 200.5t-225.5 87.5q-95 0 -184 -38.5t-168 -111t-147.5 -162t-137.5 -206.5h533z" />
    <glyph glyph-name="dadar.medi" unicode="&#x636;" horiz-adv-x="2052" arabic-form="medial" 
d="M1221 1346l137 -138l-137 -141l-140 141zM1769 358q8 -95 71.5 -135.5t211.5 -40.5v-182q-260 0 -358 162q-128 -162 -473 -162h-574q-267 10 -325 195q-29 -96 -113 -145.5t-207 -49.5h-2l-43 16v148l43 18q63 0 104 8.5t76.5 33t56 71.5t29.5 121l21 176l121 20v-196
q0 -114 43.5 -165.5t132.5 -64.5q349 691 768 691q123 0 221 -66.5t148.5 -171t50.5 -223.5q0 -31 -3 -58zM1229 182q418 0 418 230q0 113 -88.5 200.5t-225.5 87.5q-95 0 -184 -38.5t-168 -111t-147.5 -162t-137.5 -206.5h533z" />
    <glyph glyph-name="tahar.fina" unicode="&#x637;" horiz-adv-x="1890" arabic-form="final" 
d="M1606 358q8 -95 71.5 -135.5t212.5 -40.5v-182q-262 0 -360 162q-128 -162 -473 -162h-342q-443 -10 -649 45l-17 170q160 -33 365 -33l63 117l-39 1225l146 20l18 -1050q272 383 584 383q124 0 222.5 -66.5t149 -171t50.5 -223.5q0 -40 -2 -58zM1065 182q418 0 418 230
q0 113 -88.5 200.5t-225.5 87.5q-95 0 -184.5 -38.5t-168.5 -111t-147.5 -162t-136.5 -206.5h533z" />
    <glyph glyph-name="tahar.init" unicode="&#x637;" horiz-adv-x="1411" arabic-form="initial" 
d="M885 877q123 0 221 -66.5t148.5 -171t50.5 -223.5q0 -416 -551 -416h-754l-43 16v148l43 18h113l63 117l-39 1225l148 20l18 -1046q274 379 582 379zM762 182q418 0 418 230q0 113 -88.5 200.5t-225.5 87.5q-95 0 -184 -38.5t-168 -111t-147.5 -162t-137.5 -206.5h533z
" />
    <glyph glyph-name="tahar.medi" unicode="&#x637;" horiz-adv-x="1587" arabic-form="medial" 
d="M1303 358q8 -95 71.5 -135.5t212.5 -40.5v-182q-262 0 -360 162q-128 -162 -473 -162h-754l-43 16v148l43 18h113l63 117l-39 1225l148 20l18 -1046q274 379 582 379q123 0 221 -66.5t148.5 -171t50.5 -223.5q0 -40 -2 -58zM762 182q418 0 418 230q0 113 -88.5 200.5
t-225.5 87.5q-95 0 -184 -38.5t-168 -111t-147.5 -162t-137.5 -206.5h533z" />
    <glyph glyph-name="zahar.fina" unicode="&#x638;" horiz-adv-x="1890" arabic-form="final" 
d="M1606 358q8 -95 71.5 -135.5t212.5 -40.5v-182q-262 0 -360 162q-128 -162 -473 -162h-342q-443 -10 -649 45l-17 170q160 -33 365 -33l63 117l-39 1225l146 20l18 -1050q272 383 584 383q124 0 222.5 -66.5t149 -171t50.5 -223.5q0 -40 -2 -58zM1171 1323l138 -137
l-138 -142l-139 142zM1065 182q418 0 418 230q0 113 -88.5 200.5t-225.5 87.5q-95 0 -184.5 -38.5t-168.5 -111t-147.5 -162t-136.5 -206.5h533z" />
    <glyph glyph-name="zahar.init" unicode="&#x638;" horiz-adv-x="1411" arabic-form="initial" 
d="M885 877q123 0 221 -66.5t148.5 -171t50.5 -223.5q0 -416 -551 -416h-754l-43 16v148l43 18h113l63 117l-39 1225l148 20l18 -1046q274 379 582 379zM852 1323l137 -137l-137 -142l-139 142zM762 182q418 0 418 230q0 113 -88.5 200.5t-225.5 87.5q-95 0 -184 -38.5
t-168 -111t-147.5 -162t-137.5 -206.5h533z" />
    <glyph glyph-name="zahar.medi" unicode="&#x638;" horiz-adv-x="1587" arabic-form="medial" 
d="M1303 358q8 -95 71.5 -135.5t212.5 -40.5v-182q-262 0 -360 162q-128 -162 -473 -162h-754l-43 16v148l43 18h113l63 117l-39 1225l148 20l18 -1046q274 379 582 379q123 0 221 -66.5t148.5 -171t50.5 -223.5q0 -40 -2 -58zM854 1323l137 -137l-137 -142l-139 142z
M762 182q418 0 418 230q0 113 -88.5 200.5t-225.5 87.5q-95 0 -184 -38.5t-168 -111t-147.5 -162t-137.5 -206.5h533z" />
    <glyph glyph-name="ainar.fina" unicode="&#x639;" horiz-adv-x="1261" arabic-form="final" 
d="M565 348q-292 -220 -313 -418q-10 -94 30 -168t116 -118.5t180 -68.5t219.5 -22.5t237.5 25t231 68.5l-27 -178q-236 -93 -483 -93q-136 0 -253.5 34.5t-205.5 100t-132.5 170t-31.5 234.5q17 136 95.5 275.5t232.5 259.5q-105 114 -192 174.5t-177 60.5l21 145
q183 82 372.5 105t347.5 -5.5t289 -99.5l-22 -153q-188 -75 -420 -240q145 -151 268.5 -202.5t317.5 -51.5v-182q-221 0 -371.5 77t-329.5 271zM332 745q40 -23 86.5 -61t79 -69.5t82.5 -82.5q180 133 344 211q-286 91 -592 2z" />
    <glyph glyph-name="ainar.init" unicode="&#x639;" horiz-adv-x="1085" arabic-form="initial" 
d="M1049 297l-48 -182q-197 -51 -472 -83t-527 -32h-2l-43 16v148l43 16v2h268q-143 112 -143 291q1 119 64.5 212t163.5 141t216 48q66 0 146.5 -20t140.5 -53l-57 -142q-91 48 -238 48q-127 0 -214 -64.5t-87 -171.5q0 -62 27 -110t73.5 -76.5t105.5 -43t128 -14.5
q41 0 85.5 4t97.5 13t87.5 15.5t98 19.5t86.5 18z" />
    <glyph glyph-name="ainar.medi" unicode="&#x639;" horiz-adv-x="1312" arabic-form="medial" 
d="M1313 182v-182q-171 0 -321.5 64t-315.5 178q-181 -111 -351 -176.5t-339 -65.5l-52 16l7 148l45 16v2h43q229 0 522 152q-82 61 -125.5 91.5t-111.5 72.5t-125.5 64t-114.5 30l24 164q257 113 595 111t569 -113l-29 -176q-29 -7 -62.5 -22t-82.5 -44.5t-77.5 -48
t-98 -65.5t-95.5 -64q249 -152 496 -152zM287 670q48 -18 104.5 -50t93 -57t107.5 -76t100 -71q61 38 144.5 94.5t142.5 94.5t98 57q-173 54 -388.5 54t-401.5 -46z" />
    <glyph glyph-name="ghainar.fina" unicode="&#x63a;" horiz-adv-x="1261" arabic-form="final" 
d="M604 1337l137 -137l-137 -141l-139 141zM565 348q-292 -220 -313 -418q-10 -94 30 -168t116 -118.5t180 -68.5t219.5 -22.5t237.5 25t231 68.5l-27 -178q-236 -93 -483 -93q-136 0 -253.5 34.5t-205.5 100t-132.5 170t-31.5 234.5q17 136 95.5 275.5t232.5 259.5
q-105 114 -192 174.5t-177 60.5l21 145q183 82 372.5 105t347.5 -5.5t289 -99.5l-22 -153q-188 -75 -420 -240q145 -151 268.5 -202.5t317.5 -51.5v-182q-221 0 -371.5 77t-329.5 271zM332 745q40 -23 86.5 -61t79 -69.5t82.5 -82.5q180 133 344 211q-286 91 -592 2z" />
    <glyph glyph-name="ghainar.init" unicode="&#x63a;" horiz-adv-x="1085" arabic-form="initial" 
d="M469 1401l137 -137l-137 -142l-139 142zM1047 297l-48 -182q-197 -51 -472 -83t-527 -32h-2l-43 16v148l43 18h266q-69 54 -105 129t-36 162q1 119 64.5 212t163.5 141t216 48q66 0 146.5 -20t140.5 -53l-57 -142q-91 48 -238 48q-127 0 -214 -64.5t-87 -171.5
q0 -62 27 -110t73.5 -76.5t105.5 -43t128 -14.5q41 0 85.5 4t97.5 13t87.5 15.5t98 19.5t86.5 18z" />
    <glyph glyph-name="ghainar.medi" unicode="&#x63a;" horiz-adv-x="1312" arabic-form="medial" 
d="M680 1282l137 -137l-137 -141l-139 141zM1313 182v-182q-171 0 -321.5 64t-315.5 178q-181 -111 -351 -176.5t-339 -65.5l-52 16l7 148l45 16v2h43q229 0 522 152q-82 61 -125.5 91.5t-111.5 72.5t-125.5 64t-114.5 30l24 164q257 113 595 111t569 -113l-29 -176
q-29 -7 -62.5 -22t-82.5 -44.5t-77.5 -48t-98 -65.5t-95.5 -64q249 -152 496 -152zM287 670q48 -18 104.5 -50t93 -57t107.5 -76t100 -71q61 38 144.5 94.5t142.5 94.5t98 57q-173 54 -388.5 54t-401.5 -46z" />
    <glyph glyph-name="fehar.fina" unicode="&#x641;" horiz-adv-x="1996" arabic-form="final" 
d="M1495 1343l137 -137l-137 -141l-139 141zM2011 182v-182q-317 0 -538 100q-189 -100 -510 -100h-287q-299 3 -457 117.5t-158 326.5q0 155 66 336l147 -20q-63 -155 -63 -281q0 -155 117 -226t370 -71h256q210 0 342 27q-83 63 -129.5 151t-46.5 181q0 108 54 208
t142 161t181 61q94 0 176.5 -62t129 -159t46.5 -201q0 -95 -50.5 -185.5t-141.5 -156.5q156 -25 354 -25zM1239 545q0 -85 67 -161t175 -120q107 41 176 116.5t69 158.5q0 99 -70 186.5t-169 87.5q-92 0 -170 -87.5t-78 -180.5z" />
    <glyph glyph-name="fehar.init" unicode="&#x641;" horiz-adv-x="909" arabic-form="initial" 
d="M459 1503l137 -137l-137 -141l-140 141zM817 532q3 -237 -148.5 -381.5t-418.5 -150.5h-254l-45 16v148l45 18h235q320 0 416 166q-68 -6 -139.5 0t-145.5 30t-131.5 63t-94 105t-36.5 150q0 169 106.5 285.5t254.5 116.5q157 0 256.5 -160.5t99.5 -405.5zM227 723
q0 -57 30 -101.5t78.5 -69t109.5 -40.5t121.5 -16.5t115.5 2.5q17 196 -56 319t-188 123q-87 0 -149 -62t-62 -155z" />
    <glyph glyph-name="fehar.medi" unicode="&#x641;" horiz-adv-x="1056" arabic-form="medial" 
d="M543 1346l137 -138l-137 -141l-140 141zM1057 182v-182q-318 0 -539 100q-192 -100 -516 -100h-2l-43 16v148l43 18q210 0 342 27q-83 63 -129.5 151t-46.5 181q0 108 54 208t142 161t181 61q94 0 176.5 -62t129 -159t46.5 -201q0 -95 -51 -185.5t-142 -156.5
q156 -25 355 -25zM285 545q0 -85 66.5 -161.5t174.5 -119.5q107 41 176.5 116.5t69.5 158.5q0 99 -70.5 186.5t-169.5 87.5q-92 0 -169.5 -87.5t-77.5 -180.5z" />
    <glyph glyph-name="qafar.fina" unicode="&#x642;" horiz-adv-x="1579" arabic-form="final" 
d="M1034 1145l-139 -141l-139 141l139 137zM1315 1145l-139 -141l-140 141l140 137zM1436 182h143v-182h-164q-53 -244 -228.5 -373t-459.5 -129q-297 0 -463 164.5t-166 429.5q0 218 101 445l118 -41q-79 -195 -79 -365q0 -209 132.5 -332t379.5 -123q216 0 351 82.5
t179 241.5h-213q-183 0 -285 97.5t-102 254.5q0 110 46 210t133.5 165.5t195.5 65.5q76 0 147 -47.5t123.5 -128t83 -195t27.5 -240.5zM1049 182h256q-4 108 -32 194t-69 136.5t-86.5 77t-89.5 26.5q-104 0 -168.5 -77t-64.5 -172q0 -84 69 -134.5t185 -50.5z" />
    <glyph glyph-name="qafar.init" unicode="&#x642;" horiz-adv-x="909" arabic-form="initial" 
d="M326 1473l139 -138l-139 -141l-140 141zM606 1473l139 -138l-139 -141l-139 141zM817 532q3 -237 -148.5 -381.5t-418.5 -150.5h-254l-45 16v148l45 18h235q320 0 416 166q-68 -6 -139.5 0t-145.5 30t-131.5 63t-94 105t-36.5 150q0 169 106.5 285.5t254.5 116.5
q157 0 256.5 -160.5t99.5 -405.5zM227 723q0 -57 30 -101.5t78.5 -69t109.5 -40.5t121.5 -16.5t115.5 2.5q17 196 -56 319t-188 123q-87 0 -149 -62t-62 -155z" />
    <glyph glyph-name="qafar.medi" unicode="&#x642;" horiz-adv-x="1056" arabic-form="medial" 
d="M410 1317l139 -137l-139 -142l-140 142zM690 1317l139 -137l-139 -142l-139 142zM1057 182v-182q-318 0 -539 100q-192 -100 -516 -100h-2l-43 16v148l43 18q210 0 342 27q-83 63 -129.5 151t-46.5 181q0 108 54 208t142 161t181 61q94 0 176.5 -62t129 -159t46.5 -201
q0 -95 -51 -185.5t-142 -156.5q156 -25 355 -25zM285 545q0 -85 66.5 -161.5t174.5 -119.5q107 41 176.5 116.5t69.5 158.5q0 99 -70.5 186.5t-169.5 87.5q-92 0 -169.5 -87.5t-77.5 -180.5z" />
    <glyph glyph-name="kafar.fina" unicode="&#x643;" horiz-adv-x="1769" arabic-form="final" 
d="M1516 410v-9q1 -66 19.5 -110.5t54.5 -67.5t79 -32t105 -9v-182q-253 0 -342 154q-125 -152 -439 -152h-354q-269 0 -407 116t-138 343q0 141 60 309l133 -45q-43 -111 -43 -236q0 -153 106 -229t295 -76h342q86 0 152.5 11t120.5 36.5t84 71.5t34 111l-45 1104h4v2
l146 20v-2h2l16 -606l15 -473v-49zM1053 735q0 -90 -68.5 -142t-200.5 -52h-168v131l156 -2q176 0 176 67q0 44 -72 75t-227 58l4 158q152 114 324 180l-2 -135q-138 -49 -230 -108q72 -15 124.5 -33t96 -45t65.5 -65t22 -87z" />
    <glyph glyph-name="kafar.init" unicode="&#x643;" horiz-adv-x="933" arabic-form="initial" 
d="M954 1503l-49 -178q-153 -44 -359 -122t-349 -161q230 -142 377 -329.5t147 -356.5q0 -167 -124 -261.5t-361 -94.5h-238v2l-41 14v148l41 16v2h252q338 0 338 166q0 119 -142.5 288.5t-392.5 315.5q2 50 27 189q53 31 115 62.5t138 64t130.5 55.5t143.5 55.5t124 45.5
t125.5 45t97.5 34z" />
    <glyph glyph-name="kafar.medi" unicode="&#x643;" horiz-adv-x="1026" arabic-form="medial" 
d="M623 475q56 -95 108.5 -156.5t104 -89.5t94 -37.5t98.5 -9.5v-182q-68 0 -123 11t-113.5 39t-111.5 84t-98 140q-30 -130 -140.5 -202t-306.5 -72h-137v2l-41 14v148l41 16v2h158q84 0 147 18.5t95 47.5t46.5 59t14.5 60q1 59 -25 121t-90 140t-135.5 150t-194.5 187
q3 38 25 180q392 207 895 377l-33 -176q-163 -51 -373 -136t-374 -174q300 -278 469 -561z" />
    <glyph glyph-name="lamar.fina" unicode="&#x644;" horiz-adv-x="1531" arabic-form="final" 
d="M1530 182v-182q-197 0 -295 72q-28 -239 -183 -372.5t-409 -133.5q-277 0 -431.5 146.5t-154.5 393.5q0 123 28.5 236.5t70.5 187.5l120 -34q-77 -177 -77 -328q0 -193 115 -307.5t335 -114.5q209 0 334 107.5t121 312.5l-47 1352l153 20l27 -1169q8 -68 35 -107
t89 -59.5t169 -20.5z" />
    <glyph glyph-name="lamar.init" unicode="&#x644;" horiz-adv-x="565" arabic-form="initial" 
d="M358 1538l33 -1135q4 -204 -99.5 -302.5t-289.5 -100.5h-6v2l-39 14v148l39 16v2q64 0 108.5 8t81.5 29.5t54 63t14 104.5l-47 1131z" />
    <glyph glyph-name="lamar.medi" unicode="&#x644;" horiz-adv-x="667" arabic-form="medial" 
d="M260 401l-41 1117l148 20l30 -1137q2 -68 21.5 -112.5t58 -67t82.5 -31t109 -8.5v-182q-275 0 -340 174q-73 -174 -326 -174h-2l-43 16v148l43 16v2q61 0 105 8.5t82.5 31t57 67.5t15.5 112z" />
    <glyph glyph-name="meemar.fina" unicode="&#x645;" horiz-adv-x="1544" arabic-form="final" 
d="M1253 346q20 -89 85.5 -126.5t205.5 -37.5v-182q-139 0 -222.5 34.5t-125.5 104.5q-52 -72 -143.5 -105.5t-210.5 -25.5q-42 2 -95.5 10t-95.5 15t-90.5 13.5t-85.5 5.5t-74.5 -8.5t-64.5 -30t-48.5 -58t-33 -92.5t-12.5 -133q-3 -209 26 -467l-145 -27q-37 283 -31 504
q6 256 96 382.5t277 117.5q15 81 39.5 158t64 152t87.5 130.5t114 90t141 34.5q102 0 181 -68t119 -171.5t42 -219.5zM915 186q98 0 158 46.5t60 127.5q0 67 -25 130t-80 108t-129 45q-75 0 -142 -65.5t-107 -160.5t-52 -196q230 -35 317 -35z" />
    <glyph glyph-name="meemar.init" unicode="&#x645;" horiz-adv-x="1202" arabic-form="initial" 
d="M754 821q97 0 179.5 -70.5t127.5 -179t45 -225.5q0 -169 -76.5 -262.5t-210.5 -93.5q-110 0 -237 62.5t-217 168.5q-32 -61 -75 -105t-91 -68.5t-96.5 -36t-100.5 -11.5h-2l-43 16v148l43 18q51 0 91.5 8.5t84 30.5t81.5 66.5t71 111.5q101 203 202.5 312.5t223.5 109.5z
M829 168q75 0 112.5 52t37.5 128q0 107 -70 207t-161 100q-173 0 -304 -303q67 -80 179.5 -132t205.5 -52z" />
    <glyph glyph-name="meemar.medi" unicode="&#x645;" horiz-adv-x="1370" arabic-form="medial" 
d="M1106 375q32 -193 264 -193v-182q-217 0 -305 139q-73 -149 -246 -149q-110 0 -237 62.5t-217 168.5q-32 -61 -75 -105t-91 -68.5t-96.5 -36t-100.5 -11.5h-2l-43 16v148l43 18q51 0 91.5 8.5t84 30.5t81.5 66.5t71 111.5q101 203 202.5 312.5t223.5 109.5q93 0 173 -65
t126.5 -166.5t52.5 -214.5zM829 168q75 0 112.5 52t37.5 128q0 107 -70 207t-161 100q-173 0 -304 -303q67 -80 179.5 -132t205.5 -52z" />
    <glyph glyph-name="noonar.fina" unicode="&#x646;" horiz-adv-x="1517" arabic-form="final" 
d="M662 1096l137 -138l-137 -141l-140 141zM1518 182v-182q-130 0 -209 70q-25 -236 -193 -370t-438 -134q-288 0 -448 145.5t-160 394.5q0 119 29 231.5t71 188.5l123 -49q-78 -179 -78 -323q0 -188 122.5 -298t352.5 -110q221 0 351 98t130 277q0 111 -26 222t-84 267
l139 41q56 -125 84 -264q32 -102 84.5 -153.5t149.5 -51.5z" />
    <glyph glyph-name="noonar.init" unicode="&#x646;" horiz-adv-x="583" arabic-form="initial" 
d="M199 1225l137 -138l-137 -141l-140 141zM410 395q0 -189 -107 -292t-301 -103h-2l-43 16v148l43 18q137 0 203.5 52.5t66.5 158.5q0 129 -77 398l137 30q34 -93 57 -209.5t23 -216.5z" />
    <glyph glyph-name="noonar.medi" unicode="&#x646;" horiz-adv-x="671" arabic-form="medial" 
d="M299 1190l137 -137l-137 -142l-139 142zM408 612v-196q0 -73 17.5 -120.5t54.5 -71.5t81.5 -33t112.5 -9v-182q-291 0 -352 195q-29 -96 -113 -145.5t-207 -49.5h-2l-43 16v148l43 18q63 0 104 8.5t76.5 33t56 71.5t29.5 121l21 176z" />
    <glyph glyph-name="hehar.fina" unicode="&#x647;" horiz-adv-x="1114" arabic-form="final" 
d="M705 1135l145 20l20 -754q2 -69 20 -114t53 -67t75.5 -30t101.5 -8l-4 -182q-353 0 -387 303q-70 -45 -160.5 -72.5t-171.5 -27.5q-146 0 -232.5 64t-86.5 188q0 191 152 321t479 234zM211 481q0 -53 57 -81.5t154 -28.5q76 0 158 25.5t143 60.5l-10 399
q-255 -90 -378.5 -181.5t-123.5 -193.5z" />
    <glyph glyph-name="hehar.init" unicode="&#x647;" horiz-adv-x="1310" arabic-form="initial" 
d="M260 924l33 151q43 -17 125 -50q130 -51 193.5 -77t168 -73.5t155.5 -79.5t118.5 -82.5t98.5 -97t54 -108t23 -130.5q0 -110 -46.5 -191.5t-125.5 -124t-178.5 -56t-210 8.5t-215.5 74q-183 -88 -451 -88h-2l-43 16v148l43 18q171 0 276 17q-72 55 -116.5 133.5
t-44.5 163.5q0 116 67.5 222t188.5 161q-10 4 -50 20.5t-61 24.5zM465 739q-103 0 -161 -69.5t-58 -163.5q0 -85 62 -162t157 -106q94 43 150.5 114.5t58.5 141.5q0 109 -54.5 177t-154.5 68zM647 195q117 -23 212 -16t155.5 57t60.5 135q0 200 -317 346q52 -99 49 -217
q-6 -192 -160 -305z" />
    <glyph glyph-name="hehar.medi" unicode="&#x647;" horiz-adv-x="1062" arabic-form="medial" 
d="M709 182h354v-182h-283q86 -48 126 -118t40 -146q0 -113 -74.5 -192t-214.5 -79q-88 0 -176 38t-161.5 105.5t-126 170t-66.5 221.5h-131v2l-41 14v148l43 18h125q11 181 164.5 421.5t351.5 371.5q108 -115 173 -253.5t65 -260.5q0 -193 -168 -279zM602 758
q-124 -97 -232.5 -270.5t-123.5 -309.5h67q201 0 313.5 78t112.5 203q0 64 -36 143t-101 156zM625 -362q150 0 181 78q25 63 -38 143q-71 88 -195 126q-63 19 -129 19h-188q13 -87 64 -170.5t133.5 -139.5t171.5 -56z" />
    <glyph glyph-name="wawar.fina" unicode="&#x648;" horiz-adv-x="1015" arabic-form="final" 
d="M874 182h142v-182h-178q-42 -141 -148.5 -256.5t-248 -189t-308.5 -109.5l-49 156q86 20 174 54.5t175 84t158 119.5t107 149h-194q-96 0 -171 30t-121 81.5t-69.5 116.5t-23.5 139q0 172 112 300t261 128q115 0 201 -87.5t130.5 -226t50.5 -307.5zM231 379
q0 -84 72.5 -140.5t204.5 -56.5h235q-8 194 -83.5 324.5t-198.5 130.5q-89 0 -159.5 -77t-70.5 -181z" />
    <glyph glyph-name="alefMaksuraar.fina" unicode="&#x649;" horiz-adv-x="1482" arabic-form="final" 
d="M1483 182v-182q-49 0 -80 2q4 -24 4 -41q0 -64 -27 -127t-84.5 -121t-138 -102.5t-197.5 -71t-253 -26.5q-313 0 -482.5 153t-169.5 420q0 242 119 508l137 -49q-104 -222 -104 -428q0 -209 134.5 -315.5t381.5 -106.5q113 0 218.5 24t176 59.5t113 75t43.5 72.5
q1 26 -28.5 47.5t-86.5 38t-114.5 28t-135.5 23.5l35 158q268 -39 539 -39z" />
    <glyph glyph-name="yehar.fina" unicode="&#x64a;" horiz-adv-x="1482" arabic-form="final" 
d="M1483 182v-182q-49 0 -80 2q4 -24 4 -41q0 -64 -27 -127t-84.5 -121t-138 -102.5t-197.5 -71t-253 -26.5q-313 0 -482.5 153t-169.5 420q0 242 119 508l137 -49q-104 -222 -104 -428q0 -209 134.5 -315.5t381.5 -106.5q113 0 218.5 24t176 59.5t113 75t43.5 72.5
q1 26 -28.5 47.5t-86.5 38t-114.5 28t-135.5 23.5l35 158q268 -39 539 -39zM557 -776l-139 112l139 111l137 -111zM836 -776l-138 112l138 111l139 -111z" />
    <glyph glyph-name="yehar.init" unicode="&#x64a;" horiz-adv-x="583" arabic-form="initial" 
d="M410 395q0 -189 -106.5 -292t-301.5 -103h-2l-43 16v148l43 16v2q137 0 203.5 52.5t66.5 158.5q0 129 -77 398l137 30q34 -93 57 -209.5t23 -216.5zM262 -274l-137 -140l-139 140l139 139zM543 -274l-140 -140l-137 140l137 139z" />
    <glyph glyph-name="yehar.medi" unicode="&#x64a;" horiz-adv-x="671" arabic-form="medial" 
d="M287 592l121 20v-196q0 -73 17.5 -120.5t54.5 -71.5t81.5 -33t112.5 -9v-182q-291 0 -352 195q-29 -96 -113.5 -145.5t-206.5 -49.5h-2l-43 16v148l43 16v2q63 0 104 8.5t76.5 33t56 71.5t29.5 121zM309 -279l-137 -139l-139 139l139 140zM590 -279l-139 -139l-138 139
l138 140z" />
    <glyph glyph-name=".notdef" horiz-adv-x="1171" 
 />
    <glyph glyph-name=".null" 
 />
    <glyph glyph-name="nonmarkingreturn" horiz-adv-x="682" 
 />
    <glyph glyph-name="CR" unicode="&#xd;" horiz-adv-x="706" 
 />
    <glyph glyph-name="space" unicode=" " horiz-adv-x="389" 
 />
    <glyph glyph-name="exclam" unicode="!" horiz-adv-x="550" 
d="M209 455l-31 985h195l-31 -985h-133zM414 72l-138 -140l-137 140l137 139z" />
    <glyph glyph-name="quotedbl" unicode="&#x22;" horiz-adv-x="784" 
d="M274 913h-118l-27 545h170zM633 913h-119l-27 545h170z" />
    <glyph glyph-name="numbersign" unicode="#" horiz-adv-x="1302" 
d="M1219 1040v-120h-185l-73 -385h206v-125h-229l-78 -410h-137l78 410h-424l-78 -410h-137l78 410h-154l2 125h174l74 385h-195v120h217l76 400h137l-75 -400h424l75 400h138l-76 -400h162zM399 535h424l74 385h-424z" />
    <glyph glyph-name="dollar" unicode="$" horiz-adv-x="1067" 
d="M999 426q0 -153 -111.5 -255t-287.5 -128v-225h-135v219q-207 9 -387 162l96 131q168 -135 344 -135q150 0 228.5 59t78.5 160q0 67 -40 114t-103.5 73.5t-140 47.5t-153.5 46.5t-140.5 60.5t-103.5 99t-40 153q0 155 100.5 256t270.5 125v219h133v-213q198 -9 371 -123
l-84 -119q-172 92 -322 92q-141 0 -219 -61.5t-78 -161.5q0 -49 24.5 -86.5t66.5 -61.5t96.5 -42.5t114.5 -35.5t119.5 -35.5t114 -46.5t96.5 -64.5t66.5 -93.5t24.5 -130z" />
    <glyph glyph-name="percent" unicode="%" horiz-adv-x="1832" 
d="M63 1085q0 170 115 273.5t273 103.5q156 0 267 -99.5t111 -264.5q0 -92 -32.5 -166.5t-87 -121t-123.5 -71t-146 -24.5q-72 0 -138.5 23t-120.5 67.5t-86 117t-32 162.5zM471 0h-172l1055 1440h172zM217 1092q0 -109 62 -175.5t167 -66.5q95 0 162.5 62t67.5 175
q0 97 -63.5 168.5t-163.5 71.5q-97 0 -164.5 -68.5t-67.5 -166.5zM1004 348q0 91 31.5 164.5t85.5 119t122.5 69.5t145.5 24q76 0 143.5 -23t121 -67t84.5 -115t31 -160q0 -116 -56.5 -205.5t-144.5 -134.5t-190 -45q-96 0 -180 43.5t-139 130.5t-55 199zM1157 354
q0 -102 62 -171.5t165 -69.5q92 0 161 66t69 171q0 106 -63 173t-167 67q-98 0 -162.5 -65t-64.5 -171z" />
    <glyph glyph-name="ampersand" unicode="&#x26;" horiz-adv-x="1421" 
d="M1118 264l275 -264h-226l-159 154q-211 -179 -469 -179q-205 0 -326 105t-121 266q0 70 23.5 130t69 108t94 83.5t116.5 73.5q-44 44 -74 78.5t-62 81t-48 96.5t-16 103q0 146 115 255t286 109q168 0 283.5 -100t115.5 -242q0 -57 -21.5 -109.5t-51.5 -90t-82.5 -78
t-92.5 -65t-104 -60.5l367 -352q133 180 133 393l166 22q-1 -145 -51.5 -278.5t-139.5 -239.5zM358 1098q0 -62 43.5 -123.5t141.5 -159.5q70 37 112.5 63t90 64t70 80.5t22.5 91.5q0 89 -70.5 148t-169.5 59q-107 0 -173.5 -64.5t-66.5 -158.5zM553 131q189 0 346 129
l-399 383q-115 -68 -176.5 -132t-61.5 -151q0 -97 78.5 -163t212.5 -66z" />
    <glyph glyph-name="quotesingle" unicode="'" horiz-adv-x="425" 
d="M274 913h-118l-27 545h170z" />
    <glyph glyph-name="parenleft" unicode="(" horiz-adv-x="602" 
d="M563 -346h-162q-135 206 -215 434t-80 459q0 232 83.5 465t222.5 436h159q-128 -199 -208 -442t-80 -453q0 -211 78 -453t202 -446z" />
    <glyph glyph-name="parenright" unicode=")" horiz-adv-x="602" 
d="M201 -346h-162q124 204 202 446t78 453q0 210 -80 453t-208 442h159q139 -203 222.5 -436t83.5 -465q0 -231 -80 -459t-215 -434z" />
    <glyph glyph-name="asterisk" unicode="*" horiz-adv-x="976" 
d="M584 1059l288 -141l-71 -125l-262 176l16 -314h-143l24 318l-264 -180l-66 122l273 142l-277 135l70 129l264 -176l-24 319h143l-18 -315l266 170l71 -127z" />
    <glyph glyph-name="plus" unicode="+" horiz-adv-x="1263" 
d="M709 786h489v-155h-489v-484h-158v484h-483v155h483v484h158v-484z" />
    <glyph glyph-name="comma" unicode="," horiz-adv-x="452" 
d="M201 -229h-113l70 499h170z" />
    <glyph glyph-name="hyphen" unicode="-" horiz-adv-x="878" 
d="M735 668v-127h-592v127h592z" />
    <glyph glyph-name="period" unicode="." horiz-adv-x="563" 
d="M283 -18q-68 0 -115 48t-47 117q0 67 47.5 114.5t114.5 47.5q68 0 115.5 -47.5t47.5 -114.5q0 -69 -47.5 -117t-115.5 -48z" />
    <glyph glyph-name="slash" unicode="/" horiz-adv-x="759" 
d="M688 1440l-471 -1678h-145l471 1678h145z" />
    <glyph glyph-name="zero" unicode="0" horiz-adv-x="1239" 
d="M623 -23q-117 0 -206 38t-145 103t-91 162t-48.5 203t-13.5 238q0 124 14.5 229.5t50.5 202t92 164t144.5 107.5t202.5 40t201.5 -39t142 -105t89.5 -163t48.5 -202.5t13.5 -233.5q0 -123 -15 -228.5t-50.5 -202.5t-91 -165t-142 -108t-196.5 -40zM623 137q74 0 130 30
t91.5 80.5t57 126.5t30 159.5t8.5 187.5q0 106 -8 188.5t-29 159t-56 126.5t-92 80t-134 30q-78 0 -136.5 -30.5t-94 -81t-57.5 -127.5t-30 -158.5t-8 -184.5q0 -91 5.5 -162t18.5 -140.5t37 -119t59.5 -88t87.5 -57.5t120 -19z" />
    <glyph glyph-name="one" unicode="1" horiz-adv-x="780" 
d="M590 0h-170v1257l-318 -206l-59 137l403 268h144v-1456z" />
    <glyph glyph-name="two" unicode="2" horiz-adv-x="1040" 
d="M961 4h-859v131q319 337 409 441q184 213 230 345q21 59 21 115q0 125 -79 196t-218 71q-152 0 -313 -148l-80 131q193 184 405 184q205 0 333 -110.5t128 -310.5q0 -53 -15.5 -110.5t-39 -110t-68 -119.5t-84.5 -121t-108 -132.5t-120.5 -136t-137.5 -149.5h596v-166z
" />
    <glyph glyph-name="three" unicode="3" horiz-adv-x="1132" 
d="M944 1339l-354 -428q138 -13 238 -81.5t147 -167.5t47 -216q0 -69 -20.5 -136t-62 -126.5t-99 -104.5t-137 -71t-171.5 -26q-131 0 -248.5 49t-203.5 135l110 129q152 -152 338 -152q145 0 233.5 91t88.5 217q0 135 -95.5 225t-271.5 90h-102v121l344 418h-594v153h813
v-119z" />
    <glyph glyph-name="four" unicode="4" horiz-adv-x="1210" 
d="M915 0h-170v352h-700v158l688 944h185v-932h208v-170h-208zM754 1247l-512 -727h506z" />
    <glyph glyph-name="five" unicode="5" horiz-adv-x="1142" 
d="M385 895h158q124 0 221 -37t156 -100.5t89.5 -144t30.5 -171.5q0 -135 -70.5 -243.5t-185 -166t-247.5 -57.5q-126 0 -241 52t-194 141l105 121q61 -69 148.5 -106.5t185.5 -37.5q148 0 238.5 81t90.5 206q0 61 -21 117t-62 102t-111 73.5t-160 27.5h-299v702h795
l-51 -154h-576v-405z" />
    <glyph glyph-name="six" unicode="6" horiz-adv-x="1132" 
d="M582 -25q-139 0 -251.5 58t-176.5 160t-64 227q0 217 180 467l408 567h203l-412 -588q90 21 175.5 17t162.5 -40t134.5 -89.5t91.5 -131.5t34 -165q0 -205 -138 -343.5t-347 -138.5zM578 135q139 0 226 89.5t85 226.5q-2 125 -89 206.5t-225 81.5q-137 0 -221 -85
t-84 -222q0 -136 84.5 -216.5t223.5 -80.5z" />
    <glyph glyph-name="seven" unicode="7" horiz-adv-x="1069" 
d="M418 8h-182q187 723 567 1290h-686v158h891v-108q-404 -620 -590 -1340z" />
    <glyph glyph-name="eight" unicode="8" horiz-adv-x="1159" 
d="M569 -18q-204 0 -331 116t-129 301q0 256 245 367v14q-89 50 -138.5 119t-49.5 176q0 164 121 275.5t299 111.5q181 0 302.5 -107t121.5 -270q0 -109 -54 -185t-141 -120v-12q242 -103 242 -369q0 -185 -134.5 -301t-353.5 -116zM582 844q117 0 183 64t66 177
q0 97 -72.5 163.5t-176.5 66.5q-100 0 -172 -67.5t-72 -162.5q0 -113 65 -177t179 -64zM582 139q135 0 212.5 75.5t77.5 195.5q0 116 -83 199t-207 83q-123 0 -209 -83.5t-86 -198.5q0 -126 79.5 -198.5t215.5 -72.5z" />
    <glyph glyph-name="nine" unicode="9" horiz-adv-x="1132" 
d="M551 1479q211 0 351 -127t140 -318q0 -217 -180 -467l-407 -569h-203l412 588q-74 -22 -146.5 -18.5t-139 22.5t-123 58.5t-98.5 90.5t-65.5 117.5t-23.5 140.5q0 205 137 343.5t346 138.5zM555 1319q-138 0 -224.5 -89.5t-86.5 -228.5q2 -123 88.5 -204.5t224.5 -81.5
t222.5 85t84.5 222q0 136 -85 216.5t-224 80.5z" />
    <glyph glyph-name="colon" unicode=":" horiz-adv-x="468" 
d="M274 815q-67 0 -115 48t-48 116t48 116t115 48t114.5 -48t47.5 -116t-47.5 -116t-114.5 -48zM274 -18q-68 0 -115.5 48t-47.5 117q0 67 47.5 114.5t115.5 47.5t115 -47.5t47 -114.5q0 -69 -47 -117t-115 -48z" />
    <glyph glyph-name="semicolon" unicode=";" horiz-adv-x="505" 
d="M322 838q-69 0 -118.5 50t-49.5 120q0 69 49.5 118.5t118.5 49.5t118 -49.5t49 -118.5q0 -70 -49 -120t-118 -50zM219 -92h-113l70 500h170z" />
    <glyph glyph-name="less" unicode="&#x3c;" horiz-adv-x="1013" 
d="M63 768l809 471v-178l-657 -350l657 -365v-182l-809 483v121z" />
    <glyph glyph-name="equal" unicode="=" horiz-adv-x="1212" 
d="M1098 1051v-152h-955v152h955zM1098 518v-153h-955v153h955z" />
    <glyph glyph-name="greater" unicode="&#x3e;" horiz-adv-x="1013" 
d="M801 711l-660 350v178l809 -471v-121l-809 -483v182z" />
    <glyph glyph-name="question" unicode="?" horiz-adv-x="880" 
d="M434 459h-145q-10 78 -10 139q0 86 24.5 136.5t110.5 99.5q123 78 170 118q75 54 75 142q0 97 -77.5 147.5t-198.5 50.5q-92 0 -162 -14t-149 -57v157q122 76 297 76q117 0 216 -43.5t161.5 -130.5t62.5 -201q0 -124 -58.5 -200t-189.5 -144q-87 -44 -111 -72.5
t-24 -95.5q0 -51 8 -108zM504 72l-139 -140l-138 140l138 139z" />
    <glyph glyph-name="at" unicode="@" horiz-adv-x="1728" 
d="M846 643h233q36 217 -186 217q-132 0 -254 -88l-49 102q152 111 336 111q166 0 243.5 -87.5t49.5 -250.5l-50 -297q-17 -137 76 -137q101 0 176.5 132t75.5 321q0 106 -35 201.5t-103 172.5t-180.5 122.5t-256.5 45.5q-161 0 -293 -59t-219 -163t-134 -244t-47 -302
q0 -296 155 -449t431 -153q173 0 371 60l28 -111q-213 -70 -411 -70q-322 0 -514.5 185.5t-192.5 525.5q0 183 58 345.5t163.5 284.5t264.5 193.5t350 71.5q134 0 248.5 -36t196 -97.5t139 -143.5t85 -175.5t27.5 -192.5q0 -71 -12.5 -146t-43.5 -154t-77 -140.5
t-119.5 -100.5t-163.5 -39q-99 0 -142 47.5t-48 130.5q-147 -118 -309 -118q-129 0 -196.5 68t-47.5 180q20 109 120.5 173t256.5 64zM604 406q-9 -52 35 -86.5t123 -34.5q70 0 145 31.5t131 84.5l23 136h-215q-100 0 -166.5 -36.5t-75.5 -94.5z" />
    <glyph glyph-name="A" unicode="A" horiz-adv-x="1314" 
d="M1300 0h-186l-164 412h-594l-159 -412h-185l557 1440h179zM651 1247l-241 -684h485z" />
    <glyph glyph-name="B" unicode="B" horiz-adv-x="1222" 
d="M844 770q141 -47 218 -145.5t77 -231.5q0 -182 -141.5 -287.5t-366.5 -105.5h-445v1440h367q105 0 191 -21t155 -64.5t107 -119t38 -176.5q0 -205 -200 -289zM543 1292h-183v-475h183q156 0 241.5 58.5t85.5 177.5t-87 179t-240 60zM360 150h252q161 0 252.5 73t91.5 183
q0 119 -99 200.5t-263 81.5h-234v-538z" />
    <glyph glyph-name="C" unicode="C" horiz-adv-x="1538" 
d="M803 -27q-203 0 -367 101t-255 272t-91 375t91 374t255 270.5t367 100.5q210 0 376.5 -107t256.5 -286l-150 -76q-70 138 -197.5 217.5t-285.5 79.5q-227 0 -381 -163.5t-154 -409.5q0 -124 41.5 -232t113 -183.5t170 -119t210.5 -43.5q160 0 288.5 81t196.5 222l150 -75
q-87 -179 -256 -288.5t-379 -109.5z" />
    <glyph glyph-name="D" unicode="D" horiz-adv-x="1404" 
d="M186 1440h357q353 0 558.5 -193t205.5 -526q0 -336 -204.5 -528.5t-557.5 -192.5h-359v1440zM360 154h177q281 0 435 147t154 414q0 266 -155.5 418.5t-433.5 152.5h-177v-1132z" />
    <glyph glyph-name="E" unicode="E" horiz-adv-x="1126" 
d="M1032 1440v-154h-672v-493h588v-154h-588v-485h672v-154h-846v1440h846z" />
    <glyph glyph-name="F" unicode="F" horiz-adv-x="1095" 
d="M1032 1440v-154h-672v-487h574v-160h-574v-639h-174v1440h846z" />
    <glyph glyph-name="G" unicode="G" horiz-adv-x="1738" 
d="M881 784h723q4 -54 4 -69q0 -209 -88 -376t-254 -264.5t-381 -97.5q-212 0 -384.5 101.5t-269 273.5t-96.5 377q0 206 96.5 378.5t269 274t384.5 101.5q211 0 383 -101t268 -270l-147 -88q-72 136 -205.5 213.5t-298.5 77.5q-243 0 -406.5 -166.5t-163.5 -419.5
q0 -126 44 -235.5t120 -186t181.5 -120.5t224.5 -44q228 0 377 127.5t170 354.5h-551v159z" />
    <glyph glyph-name="H" unicode="H" horiz-adv-x="1611" 
d="M1251 795v645h174v-1440h-174v635h-891v-635h-174v1440h174v-645h891z" />
    <glyph glyph-name="I" unicode="I" horiz-adv-x="546" 
d="M360 0h-174q3 720 0 1440h174q3 -720 0 -1440z" />
    <glyph glyph-name="J" unicode="J" horiz-adv-x="974" 
d="M375 -23q-196 0 -346 105l59 149q126 -90 279 -90q59 0 103.5 15t82 52t57 107t19.5 172v951h176v-946q0 -265 -116 -390t-314 -125z" />
    <glyph glyph-name="K" unicode="K" horiz-adv-x="1181" 
d="M1180 0h-211l-607 659h-6v-659h-170v1430h170v-596h6l574 596h211l-647 -680z" />
    <glyph glyph-name="L" unicode="L" horiz-adv-x="1017" 
d="M358 1440v-1276h629v-164h-801v1440h172z" />
    <glyph glyph-name="M" unicode="M" horiz-adv-x="1718" 
d="M862 580l516 858h156v-1438h-176v1067l-428 -707h-135l-435 709v-1069h-174v1438h156z" />
    <glyph glyph-name="N" unicode="N" horiz-adv-x="1570" 
d="M1208 281l-2 1157h178v-1438h-172l-854 1153v-1153h-172v1438h166z" />
    <glyph glyph-name="O" unicode="O" horiz-adv-x="1634" 
d="M819 -23q-207 0 -372.5 97.5t-257 267.5t-91.5 379q0 150 55 286.5t149.5 236.5t229.5 159t287 59q154 0 288.5 -58t228 -157t147 -235.5t53.5 -290.5q0 -119 -35 -231t-100.5 -204.5t-152.5 -162t-198 -108t-231 -38.5zM819 139q108 0 207.5 44t173 120.5t117.5 185.5
t43 232q-1 166 -73.5 298.5t-196 205.5t-273.5 73q-149 0 -273 -74.5t-196 -207t-72 -295.5q0 -257 154.5 -419.5t388.5 -162.5z" />
    <glyph glyph-name="P" unicode="P" horiz-adv-x="1163" 
d="M186 1438h369q258 0 403.5 -117.5t145.5 -339.5q0 -219 -148.5 -339t-400.5 -120h-190v-522h-179v1438zM365 678h190q182 0 272.5 82t90.5 221q0 307 -365 307h-188v-610z" />
    <glyph glyph-name="Q" unicode="Q" horiz-adv-x="1609" 
d="M1536 721q0 -169 -68.5 -319.5t-189.5 -254.5l115 -170l-138 -88l-112 168q-151 -80 -324 -80q-207 0 -372.5 97.5t-257 267.5t-91.5 379q0 150 55 286.5t149.5 236.5t229.5 159t287 59q154 0 288.5 -58t228 -157t147 -235.5t53.5 -290.5zM819 139q117 0 232 56l-248 368
l129 94l250 -370q85 80 132 191.5t46 242.5q-1 166 -73.5 298.5t-196 205.5t-273.5 73q-149 0 -273 -74.5t-196 -207t-72 -295.5q0 -257 154.5 -419.5t388.5 -162.5z" />
    <glyph glyph-name="R" unicode="R" horiz-adv-x="1218" 
d="M795 567l358 -567h-203l-327 535q-35 -3 -68 -3h-190v-532h-179v1438h369q259 0 404 -114.5t145 -336.5q0 -155 -81.5 -263.5t-227.5 -156.5zM365 1288v-600h190q181 0 275 84t94 217q0 152 -92 225.5t-279 73.5h-188z" />
    <glyph glyph-name="S" unicode="S" horiz-adv-x="1148" 
d="M584 -18q-137 -6 -275.5 47t-226.5 141l102 139q81 -75 191.5 -115t212.5 -40q126 0 214.5 61.5t88.5 171.5q0 84 -58.5 134.5t-187.5 94.5l-178 64q-179 62 -262.5 149t-83.5 226q0 178 125 285.5t321 107.5q124 0 249.5 -42t219.5 -112l-86 -133q-174 131 -393 131
q-111 0 -187.5 -57t-76.5 -156q0 -90 59 -141.5t191 -95.5l176 -62q179 -58 264.5 -149t85.5 -232q0 -184 -133.5 -300.5t-351.5 -116.5z" />
    <glyph glyph-name="T" unicode="T" horiz-adv-x="1206" 
d="M27 1440h1151v-154h-488v-1286h-174v1286h-489v154z" />
    <glyph glyph-name="U" unicode="U" horiz-adv-x="1501" 
d="M168 569v871h174v-867q0 -219 115 -327.5t305 -108.5q189 0 291 106.5t106 340.5v856h174v-856q0 -125 -30 -227t-83 -172t-126.5 -117.5t-158.5 -69t-181 -21.5q-94 0 -179 21t-160.5 67t-130 114t-86 168t-30.5 222z" />
    <glyph glyph-name="V" unicode="V" horiz-adv-x="1337" 
d="M748 0h-187l-543 1440h183l461 -1233l479 1233h182z" />
    <glyph glyph-name="W" unicode="W" horiz-adv-x="1945" 
d="M1380 254l373 1186h172l-465 -1440h-160l-327 1124l-330 -1124h-168l-448 1440h178l366 -1198l344 1198h125z" />
    <glyph glyph-name="X" unicode="X" horiz-adv-x="1179" 
d="M963 1440h194l-479 -731l475 -709h-211l-358 563l-363 -563h-194l475 694l-475 746h200l367 -600z" />
    <glyph glyph-name="Y" unicode="Y" horiz-adv-x="1161" 
d="M967 1440h182l-481 -908v-532h-174v532l-476 908h191l375 -758z" />
    <glyph glyph-name="Z" unicode="Z" horiz-adv-x="1222" 
d="M1012 1440v-121l-719 -1163h743v-156h-952v119l729 1167h-756v154h955z" />
    <glyph glyph-name="bracketleft" unicode="[" horiz-adv-x="669" 
d="M610 -393h-426v1833h426v-131h-272v-1565h272v-137z" />
    <glyph glyph-name="backslash" unicode="\" horiz-adv-x="759" 
d="M688 -238h-147l-471 1678h147z" />
    <glyph glyph-name="bracketright" unicode="]" horiz-adv-x="669" 
d="M588 1440v-1833h-424v137h270v1565h-270v131h424z" />
    <glyph glyph-name="underscore" unicode="_" horiz-adv-x="997" 
d="M911 -176v-127h-825v127h825z" />
    <glyph glyph-name="a" unicode="a" horiz-adv-x="1214" 
d="M569 1096q221 0 349.5 -115t128.5 -340v-651h-168v155q-176 -176 -406 -176q-177 0 -281 91t-104 239q0 147 119 239.5t336 92.5h336q0 165 -81.5 240t-248.5 75q-179 0 -330 -119l-76 125q183 144 426 144zM510 121q105 0 205.5 47.5t163.5 122.5v209h-318
q-154 0 -237.5 -57.5t-83.5 -139.5q0 -78 75 -130t195 -52z" />
    <glyph glyph-name="b" unicode="b" horiz-adv-x="1298" 
d="M655 1100q86 0 167.5 -24t152 -72t123 -114.5t82.5 -157.5t30 -195q0 -132 -41.5 -239.5t-113 -177t-165.5 -106.5t-200 -37q-128 0 -236.5 49t-183.5 134v-160h-168v1477l168 20v-541q156 144 385 144zM664 125q161 0 264.5 111t103.5 303q0 99 -31.5 178t-85.5 128
t-123 75t-147 26q-110 0 -193 -30.5t-182 -114.5v-492q68 -81 168.5 -132.5t225.5 -51.5z" />
    <glyph glyph-name="c" unicode="c" horiz-adv-x="1202" 
d="M651 -20q-160 0 -289.5 74.5t-201.5 202.5t-72 282t72 281.5t201 201.5t288 74q160 0 291.5 -78t198.5 -207l-127 -72q-57 96 -152 152.5t-207 56.5q-170 0 -283.5 -117t-113.5 -292q0 -177 113.5 -293.5t285.5 -116.5q114 0 209.5 57.5t151.5 157.5l129 -72
q-67 -131 -200 -211.5t-294 -80.5z" />
    <glyph glyph-name="d" unicode="d" horiz-adv-x="1294" 
d="M1028 956v521l168 20v-1497h-168v160q-75 -85 -183.5 -134t-236.5 -49q-106 0 -200 37t-165.5 106.5t-113 177t-41.5 239.5q0 104 30 195t82.5 157.5t123 114.5t152 72t167.5 24q229 0 385 -144zM635 125q125 0 225 51.5t168 132.5v492q-99 84 -182 114.5t-193 30.5
q-78 0 -147 -26t-123 -75t-85.5 -128t-31.5 -178q0 -192 104 -303t265 -111z" />
    <glyph glyph-name="e" unicode="e" horiz-adv-x="1208" 
d="M647 -25q-255 0 -406 140t-151 391q0 140 41 253.5t113 187.5t169 113.5t210 39.5q110 0 201.5 -35t160.5 -105t107 -184t38 -262q0 -15 -6 -57h-860q10 -111 61.5 -186t130 -108.5t179.5 -33.5q105 0 205.5 50t167.5 143l116 -78q-77 -124 -211 -196.5t-266 -72.5z
M264 586h688q-22 370 -334 370q-149 0 -243 -91t-111 -279z" />
    <glyph glyph-name="f" unicode="f" horiz-adv-x="716" 
d="M569 1313q-83 0 -134 -58t-50 -184h320l-21 -139h-293v-932h-166v932h-164l21 139h143q0 196 92 299t234 103q97 0 199 -48l-43 -143q-73 31 -138 31z" />
    <glyph glyph-name="g" unicode="g" horiz-adv-x="1361" 
d="M1028 958l12 117h158v-1077q-6 -206 -161 -328.5t-388 -122.5q-137 0 -269 37t-222 101l26 151q97 -64 223 -99.5t242 -35.5q106 0 191 36t137.5 111t52.5 179v143q-74 -85 -183 -133.5t-239 -48.5q-106 0 -199 35.5t-164.5 102.5t-113 173t-41.5 238q0 129 46 237
t123.5 178.5t177 109t208.5 38.5q229 0 383 -142zM635 135q124 0 224 52.5t171 134.5v479q-98 84 -182 114.5t-193 30.5q-78 0 -147 -26t-123 -75t-85.5 -128t-31.5 -178q0 -191 103 -297.5t264 -106.5z" />
    <glyph glyph-name="h" unicode="h" horiz-adv-x="1296" 
d="M766 1100q79 0 144 -22t120 -71t86 -138t31 -212v-657h-168v643q0 158 -68.5 229.5t-181.5 71.5q-179 0 -399 -188v-756h-166v1477l166 20v-588q235 191 436 191z" />
    <glyph glyph-name="i" unicode="i" horiz-adv-x="522" 
d="M401 1440l-147 -150l-148 150l148 147zM342 0h-166v1075l166 21v-1096z" />
    <glyph glyph-name="j" unicode="j" horiz-adv-x="509" 
d="M403 1413l-147 -149l-147 149l147 148zM-276 -383l61 141q92 -47 192 -47q101 0 152 71t51 243v1050l166 21v-1080q0 -238 -94 -352.5t-268 -114.5q-137 0 -260 68z" />
    <glyph glyph-name="k" unicode="k" horiz-adv-x="1089" 
d="M1087 0h-225l-497 518h-13l-8 -518h-168v1458l176 21v-799h21l381 395h223l-463 -475z" />
    <glyph glyph-name="l" unicode="l" horiz-adv-x="493" 
d="M330 0h-166v1458l166 21v-1479z" />
    <glyph glyph-name="m" unicode="m" horiz-adv-x="1998" 
d="M1468 1100q79 0 144 -22t120 -71t86 -138t31 -212v-657h-168v643q0 158 -68 229.5t-181 71.5q-142 0 -306 -115q21 -73 21 -172v-657h-168v643q0 158 -68.5 229.5t-181.5 71.5q-179 0 -399 -188v-756h-166v1075l166 21v-187q235 191 436 191q215 0 313 -154
q210 154 389 154z" />
    <glyph glyph-name="n" unicode="n" horiz-adv-x="1296" 
d="M766 1100q79 0 144 -22t120 -71t86 -138t31 -212v-657h-168v643q0 158 -68.5 229.5t-181.5 71.5q-179 0 -399 -188v-756h-166v1075l166 21v-187q235 191 436 191z" />
    <glyph glyph-name="o" unicode="o" horiz-adv-x="1310" 
d="M88 535q0 125 47 233t125 180t179.5 113t211.5 41q109 0 212 -39.5t183.5 -110.5t129.5 -178t49 -233q0 -125 -47 -232t-126.5 -179t-184 -112.5t-218.5 -40.5q-111 0 -212.5 39.5t-179 110t-123.5 177t-46 231.5zM266 541q0 -188 111 -302t276 -114q167 0 280.5 114.5
t113.5 295.5q0 184 -115 301.5t-277 117.5q-159 0 -274 -114t-115 -299z" />
    <glyph glyph-name="p" unicode="p" horiz-adv-x="1357" 
d="M748 1100q106 0 200.5 -37t167 -106t114.5 -176.5t42 -239.5q0 -129 -45.5 -237.5t-121.5 -179t-174 -109t-206 -38.5q-128 0 -227.5 44t-163.5 112l-2 -565h-168v1509h149l11 -159q74 84 184 133t240 49zM707 125q79 0 148.5 26.5t123.5 77.5t85.5 131.5t31.5 180.5
q0 188 -104.5 296.5t-264.5 108.5q-125 0 -225 -50t-168 -128v-494q101 -87 183.5 -118t189.5 -31z" />
    <glyph glyph-name="q" unicode="q" horiz-adv-x="1357" 
d="M1194 1077l2 -1509h-170v567q-65 -68 -164.5 -113t-228.5 -45q-108 0 -206 38.5t-174 109t-121.5 179t-45.5 237.5q0 132 42 239.5t115 176.5t167.5 106t201.5 37q130 0 240 -49t184 -133l11 159h147zM651 125q106 0 189 31t184 118v494q-68 78 -168 128t-225 50
q-160 0 -263.5 -108.5t-103.5 -296.5q0 -100 31 -180.5t85 -131.5t123 -77.5t148 -26.5z" />
    <glyph glyph-name="r" unicode="r" horiz-adv-x="829" 
d="M762 1100q19 0 51 -4l-31 -154q-36 4 -53 4q-109 0 -215 -57.5t-184 -140.5v-748h-166v1075l166 21v-185q93 83 210.5 136t221.5 53z" />
    <glyph glyph-name="s" unicode="s" horiz-adv-x="1009" 
d="M494 -18q-112 0 -224.5 34t-195.5 97l59 135q81 -62 181 -94.5t198 -32.5q109 0 179.5 44t70.5 124q0 22 -4.5 40.5t-16.5 33.5t-23 26.5t-34.5 22t-39.5 17t-49.5 15t-53 12.5t-60.5 13q-65 13 -110.5 26.5t-96.5 38t-81.5 56t-51 80.5t-20.5 112q0 145 109.5 228.5
t273.5 83.5q218 0 389 -121l-53 -133q-74 55 -163.5 83.5t-174.5 28.5q-94 0 -155.5 -41t-61.5 -116q0 -28 8.5 -51t20 -39.5t35.5 -31t43 -23.5t56.5 -19.5t60.5 -15.5l69 -15q65 -13 110.5 -26t94.5 -36.5t78.5 -53t49 -76.5t19.5 -107q0 -147 -125 -233t-311 -86z" />
    <glyph glyph-name="t" unicode="t" horiz-adv-x="821" 
d="M762 184l55 -133q-118 -69 -266 -69q-155 0 -242.5 93t-87.5 279v580h-184l20 137h164v318l164 20v-338h401l-20 -137h-381v-559q0 -238 201 -238q96 0 176 47z" />
    <glyph glyph-name="u" unicode="u" horiz-adv-x="1294" 
d="M526 -25q-63 0 -116.5 13t-103.5 45t-84.5 81t-55.5 126.5t-21 177.5v657l168 21v-664q0 -157 69 -229t183 -72q178 0 398 188v756l165 21v-1096h-165v164q-234 -189 -437 -189z" />
    <glyph glyph-name="v" unicode="v" horiz-adv-x="1124" 
d="M565 170l346 903h189l-455 -1073h-168l-448 1073h190z" />
    <glyph glyph-name="w" unicode="w" horiz-adv-x="1691" 
d="M555 0l-154 2l-372 1071h190l266 -864l299 850h144l276 -852l287 866h186l-397 -1073l-156 2l-270 807z" />
    <glyph glyph-name="x" unicode="x" horiz-adv-x="1032" 
d="M223 0h-196l391 524l-385 549h207l280 -424l281 424h205l-394 -547l394 -526h-209l-283 403z" />
    <glyph glyph-name="y" unicode="y" horiz-adv-x="1085" 
d="M571 305l299 770h193l-623 -1505h-188l227 536l-456 969h196z" />
    <glyph glyph-name="z" unicode="z" horiz-adv-x="985" 
d="M903 940l-616 -790h624v-150h-833v131l624 795h-624v149h825v-135z" />
    <glyph glyph-name="braceleft" unicode="{" horiz-adv-x="731" 
d="M416 1147v-330q0 -49 -10.5 -97.5t-31.5 -93t-59.5 -72.5t-87.5 -28q50 0 88.5 -26.5t59.5 -70.5t31 -92t10 -99v-320q0 -88 39 -136t141 -48q62 0 76 2v-137q-72 -11 -111 -11q-145 0 -222 88.5t-77 231.5v309q0 45 -9 84.5t-29.5 77.5t-61.5 60t-99 22v129
q70 0 116.5 38t64.5 92.5t18 123.5v321q0 139 80.5 223.5t226.5 84.5q45 0 103 -9v-137q-16 4 -78 4q-102 0 -140 -47t-38 -137z" />
    <glyph glyph-name="bar" unicode="|" horiz-adv-x="522" 
d="M338 1454v-1718h-154v1718h154z" />
    <glyph glyph-name="braceright" unicode="}" horiz-adv-x="731" 
d="M315 817v330q0 90 -38 137t-138 47q-62 0 -78 -4v137q59 9 103 9q144 0 224.5 -85t80.5 -223v-321q0 -108 49 -181t150 -73v-129q-57 0 -98 -22t-62 -59.5t-30 -77.5t-9 -85v-309q0 -144 -76.5 -232t-222.5 -88q-41 0 -109 11v137q14 -2 74 -2q102 0 141 48t39 136v320
q0 51 10 99t31.5 92t60 70.5t89.5 26.5q-50 0 -89 28t-60 73t-31.5 93t-10.5 97z" />
    <glyph glyph-name="cent" unicode="&#xa2;" horiz-adv-x="1302" 
d="M1288 432l150 -74q-80 -159 -232.5 -262.5t-343.5 -118.5v-200h-149v205q-181 21 -323.5 121t-221 255.5t-78.5 339.5t78.5 340t221 256t323.5 121v182h149v-178q189 -15 339.5 -116.5t234.5 -262.5l-150 -73q-70 134 -197.5 211t-285.5 77q-149 0 -271.5 -71.5
t-193 -199.5t-70.5 -286q0 -241 154 -400t381 -159q160 0 288.5 78.5t196.5 214.5z" />
    <glyph glyph-name="sterling" unicode="&#xa3;" horiz-adv-x="1120" 
d="M870 705h-389q-33 -343 -168 -539h705v-166h-952v98q185 192 229 607h-189v143h197q4 139 32.5 249.5t84.5 194t146.5 128t211.5 44.5q169 0 266 -63l-51 -156q-93 45 -211 45q-77 0 -134.5 -34.5t-91 -97t-50.5 -139.5t-19 -171h385z" />
    <glyph glyph-name="currency" unicode="&#xa4;" horiz-adv-x="1228" 
d="M1026 549q0 -120 -57 -211l190 -193l-106 -104l-187 192q-100 -71 -241 -71t-238 69l-188 -190l-105 104l191 193q-54 91 -54 207q0 131 62 223l-199 201l105 104l200 -201q97 66 232 66q130 0 225 -64l197 199l106 -104l-196 -199q63 -91 63 -221zM627 293q114 0 185 72
t71 188q0 113 -70 183.5t-184 70.5t-185 -71t-71 -185q0 -113 70.5 -185.5t183.5 -72.5z" />
    <glyph glyph-name="yen" unicode="&#xa5;" horiz-adv-x="1243" 
d="M967 1440h182l-438 -826h352v-143h-395v-152h395v-143h-395v-176h-174v176h-383v143h383v152h-383v143h340l-433 826h191l375 -758z" />
    <glyph glyph-name="brokenbar" unicode="&#xa6;" horiz-adv-x="514" 
d="M336 1440v-733h-158v733h158zM178 -238v734h158v-734h-158z" />
    <glyph glyph-name="section" unicode="&#xa7;" horiz-adv-x="1228" 
d="M473 -303q-95 0 -197 25t-167 61l34 147q167 -82 326 -82q115 0 185.5 53t70.5 134q0 54 -35 92.5t-90.5 60t-123.5 39.5t-135.5 40.5t-123 54t-90.5 87.5t-35 134q0 109 70.5 188t181.5 117q-160 92 -160 256q0 154 116 251t312 97q89 0 184 -21.5t162 -58.5l-40 -155
q-131 81 -300 81q-120 0 -184.5 -50t-64.5 -132q0 -43 22 -77.5t59 -57.5t85 -42.5t101 -36.5t105.5 -34.5t100.5 -41.5t85 -53t59 -73t22 -98q0 -110 -67 -197.5t-183 -123.5q75 -43 112 -91.5t37 -134.5q0 -158 -125.5 -258t-308.5 -100zM547 365q132 12 207 71t75 144
q0 31 -13 55t-31 39.5t-51.5 30t-60.5 23t-73 22t-74 22.5q-108 -16 -180 -70.5t-72 -130.5q0 -57 42 -98t88 -60t132 -45q7 -2 11 -3z" />
    <glyph glyph-name="copyright" unicode="&#xa9;" horiz-adv-x="1685" 
d="M844 -23q211 0 381 96t266 266.5t96 381.5q0 210 -96 380t-266 266.5t-381 96.5q-212 0 -386 -95.5t-275 -266.5t-101 -381q0 -158 59 -296.5t161 -236.5t243 -154.5t299 -56.5zM844 76q-137 0 -259 48.5t-210.5 133.5t-139.5 205.5t-51 257.5q0 184 87 332.5
t237.5 231.5t335.5 83q182 0 328 -83.5t228.5 -231.5t82.5 -332t-82.5 -331.5t-228.5 -230.5t-328 -83zM1090 516l57 -94q-122 -109 -291 -109q-192 0 -318 114.5t-126 295.5t130 298.5t320 117.5q176 0 289 -101l-64 -100q-94 91 -225 88q-128 0 -221.5 -84t-93.5 -217
q0 -137 91.5 -217t223.5 -82q132 0 228 90z" />
    <glyph glyph-name="guillemetleft" unicode="&#xab;" horiz-adv-x="1036" 
d="M82 553l268 403h168l-289 -399l310 -399h-168zM475 553l268 403h170l-288 -399l307 -399h-166z" />
    <glyph glyph-name="registered" unicode="&#xae;" horiz-adv-x="1337" 
d="M670 1462q119 0 223 -42.5t178.5 -117t117 -178.5t42.5 -223t-42.5 -223t-117 -178.5t-178.5 -117t-223 -42.5t-223 42.5t-178.5 117t-117 178.5t-42.5 223t42.5 223t117 178.5t178.5 117t223 42.5zM670 432q199 0 328.5 133.5t129.5 335.5t-129.5 334.5t-328.5 132.5
q-200 0 -328.5 -132.5t-128.5 -334.5t128.5 -335.5t328.5 -133.5zM938 1040q0 -72 -41 -121.5t-111 -74.5l160 -254h-123l-137 237l-125 -2v-235h-106v645h219q113 0 188.5 -49.5t75.5 -145.5zM561 911h92q83 0 127.5 33.5t44.5 93.5q0 53 -45 82t-129 29h-90v-238z" />
    <glyph glyph-name="plusminus" unicode="&#xb1;" horiz-adv-x="1323" 
d="M739 1339v-465h469v-155h-469v-440h-157v440h-465v155h465v465h157zM1208 12h-1091v156h1091v-156z" />
    <glyph glyph-name="paragraph" unicode="&#xb6;" horiz-adv-x="1249" 
d="M555 1440h188v-1440h-133v551h-63q-233 0 -357 121.5t-124 312.5q0 78 30 156t87.5 146t154.5 110.5t217 42.5zM924 1440h133v-1440h-133v1440z" />
    <glyph glyph-name="periodcentered" unicode="&#xb7;" horiz-adv-x="509" 
d="M123 709q0 51 36 85.5t87 34.5q53 0 89 -34.5t36 -85.5t-36.5 -87t-88.5 -36q-50 0 -86.5 35.5t-36.5 87.5z" />
    <glyph glyph-name="guillemetright" unicode="&#xbb;" horiz-adv-x="1034" 
d="M123 956h168l268 -403l-289 -395h-168l310 399zM516 956h168l268 -403l-288 -395h-168l309 399z" />
    <glyph glyph-name="multiply" unicode="&#xd7;" horiz-adv-x="1202" 
d="M985 1206l111 -108l-400 -387l398 -385l-107 -107l-383 402l-387 -402l-108 107l399 387l-397 385l106 106l383 -401z" />
    <glyph glyph-name="divide" unicode="&#xf7;" horiz-adv-x="1169" 
d="M453 1090q0 50 34 83t84 33q51 0 85 -32t34 -84q0 -48 -34 -81.5t-85 -33.5q-48 0 -83 33t-35 82zM1061 786v-155h-952v155h952zM453 317q0 49 34 82t84 33t84.5 -33t34.5 -82q0 -50 -34 -83t-85 -33q-48 0 -83 33.5t-35 82.5z" />
    <glyph glyph-name="commaar" unicode="&#x60c;" horiz-adv-x="679" 
d="M174 190q0 81 31 161t81 141t107 106.5t113 69.5l82 -76q-119 -58 -197.5 -150.5t-87.5 -181.5q84 20 138.5 -17.5t54.5 -111.5q0 -71 -43 -114.5t-111 -43.5q-73 0 -120.5 56t-47.5 161z" />
    <glyph glyph-name="tahabovear" unicode="&#x615;" 
d="M362 1671q54 0 95 -50.5t41 -117.5q0 -87 -54 -124.5t-165 -37.5h-29q-119 -3 -209 15v104q16 -3 68 -8q25 40 30 47l-12 352h84l8 -245q68 65 143 65zM270 1450h17q37 0 55.5 0.5t43 4.5t34.5 14t10 26q0 27 -25 49.5t-57 22.5q-43 0 -85 -23t-95 -94h102z" />
    <glyph glyph-name="semicolonar" unicode="&#x61b;" horiz-adv-x="679" 
d="M348 606q-64 0 -109.5 54.5t-45.5 138.5q0 75 28 144t73 119t95 85.5t100 54.5l80 -72q-101 -39 -166.5 -103t-80.5 -134q82 9 128 -29.5t46 -109.5q0 -65 -42.5 -106.5t-105.5 -41.5zM188 133q0 68 44 113t108 45q67 0 108 -45t41 -113q0 -69 -42 -113.5t-111 -44.5
q-63 0 -105.5 45.5t-42.5 112.5z" />
    <glyph glyph-name="questionar" unicode="&#x61f;" horiz-adv-x="880" 
d="M578 459h-144q8 57 8 108q0 67 -24 95.5t-111 72.5q-132 68 -191 144.5t-59 199.5q0 114 63 201t163 130.5t217 43.5q175 0 297 -76v-157q-79 44 -149.5 57.5t-164.5 13.5q-119 0 -196.5 -50.5t-77.5 -147.5q0 -87 76 -142q47 -40 170 -118q85 -49 110 -100t25 -136
q0 -68 -12 -139zM641 72l-139 -140l-137 140l137 139z" />
    <glyph glyph-name="hamzaar" unicode="&#x621;" horiz-adv-x="987" 
d="M649 178q180 4 254 4l-41 -172h-61h-74.5t-76 -0.5t-87.5 -1.5t-85.5 -2.5t-93.5 -3.5t-87.5 -5.5t-91.5 -8t-82.5 -10.5t-81.5 -13l41 170q53 10 203 25q-99 102 -99 229q0 151 105.5 257t251.5 106q77 0 154 -34t134 -102l-71 -139q-65 58 -120.5 77t-117.5 19
q-44 0 -89 -17.5t-80.5 -60t-35.5 -100.5q0 -56 19.5 -96.5t48.5 -63t76 -35.5t89 -17t99 -5z" />
    <glyph glyph-name="alefMaddaar" unicode="&#x622;" horiz-adv-x="479" 
d="M-41 1167l-92 31q12 79 56 122.5t114 43.5q45 0 130.5 -25.5t135.5 -25.5q62 0 129 49l17 -86q-55 -68 -164 -68q-44 0 -114.5 20.5t-109.5 20.5q-80 0 -102 -82zM305 0h-135l-43 1053l145 16z" />
    <glyph glyph-name="alefHamzaabovear" unicode="&#x623;" horiz-adv-x="479" 
d="M225 1280q89 0 193 8v-96q-43 -7 -217.5 -17.5t-233.5 -21.5v96q99 15 103 15q-43 49 -43 120q0 81 59 135t143 54q68 0 123 -39v-96q-51 32 -114 32q-52 0 -86.5 -22t-34.5 -62q0 -83 108 -106zM170 0l-43 1042l145 17l33 -1059h-135z" />
    <glyph glyph-name="wawHamzaabovear" unicode="&#x624;" horiz-adv-x="997" 
d="M737 1159v-98q-39 -6 -213.5 -16t-234.5 -21v94q84 14 102 15q-45 48 -45 122q0 79 60 133t143 54q71 0 123 -37v-96q-52 30 -115 30q-52 0 -86.5 -22t-34.5 -60q0 -82 109 -106q88 0 192 8zM530 780q160 0 266 -166.5t109 -431.5q-2 -147 -64.5 -273t-170 -217.5
t-243.5 -155t-294 -97.5l-51 180q188 33 367 128t264 224q-101 -5 -198.5 16.5t-179 66.5t-131.5 123t-50 177q0 178 112.5 302t263.5 124zM276 375q0 -88 78 -149t190 -82t228 -7q10 76 -4 160.5t-47 155.5t-89 117t-124 46q-91 0 -161.5 -69.5t-70.5 -171.5z" />
    <glyph glyph-name="alefHamzabelowar" unicode="&#x625;" horiz-adv-x="479" 
d="M274 1538l31 -1538h-135l-49 1518zM274 -487q90 0 191 8v-96q-42 -8 -216 -17.5t-233 -19.5v94q83 12 103 14q-45 48 -45 121q0 81 60 134.5t145 53.5q70 0 120 -38v-97q-50 33 -114 33q-50 0 -85.5 -22.5t-35.5 -61.5q0 -82 110 -106z" />
    <glyph glyph-name="yehHamzaabovear" unicode="&#x626;" horiz-adv-x="1572" 
d="M709 963v-99q-39 -6 -214 -16t-235 -21v95q71 11 102 14q-45 48 -45 123q0 78 60 132t143 54q71 0 123 -37v-96q-54 31 -115 31q-52 0 -86 -22t-34 -60q0 -83 108 -107q76 0 193 9zM866 412q47 -33 114 -57.5t126 -37.5t120 -34t104.5 -46t71.5 -74t28 -118
q0 -93 -50.5 -178t-139 -150.5t-218 -106t-279.5 -44.5q-161 -4 -291 37t-215 119t-130.5 187t-45.5 241q0 93 30.5 207t76.5 200l123 -49q-44 -100 -62 -173t-18 -161q0 -213 142.5 -325t410.5 -103q111 4 212 29.5t170 63.5t109.5 85t40.5 94q0 50 -47.5 74t-220.5 75
q-6 2 -9.5 3t-9 3t-10.5 3q-80 23 -129.5 43.5t-96 54.5t-68 85.5t-21.5 123.5q0 127 64.5 228t171.5 161q127 73 272.5 73.5t234.5 -75.5l-30 -159q-71 52 -172.5 64.5t-192 -12.5t-155 -91t-64.5 -158q0 -63 53 -102z" />
    <glyph glyph-name="alefar" unicode="&#x627;" horiz-adv-x="479" 
d="M274 1538l31 -1538h-135l-49 1518z" />
    <glyph glyph-name="behar" unicode="&#x628;" horiz-adv-x="1792" 
d="M1675 473q0 -114 -32 -199.5t-101.5 -148t-184 -94t-274.5 -31.5h-432q-306 0 -449 114.5t-143 346.5q0 160 80 346l135 -35q-24 -73 -34 -107t-19.5 -84t-9.5 -94q0 -158 111 -231.5t335 -73.5h430q231 0 339 69.5t108 211.5q0 57 -15 123.5t-32.5 117.5t-56.5 156
l139 33q52 -130 79 -227t27 -193zM1006 -266l-138 -142l-139 142l139 137z" />
    <glyph glyph-name="tehMarbutaar" unicode="&#x629;" horiz-adv-x="1046" 
d="M506 1270l-139 -142l-140 142l140 137zM786 1270l-139 -142l-139 142l139 137zM496 -10q-190 0 -299 102t-109 279q0 283 369 569l37 70q204 -161 306 -310.5t101 -304.5q-2 -192 -106.5 -298.5t-298.5 -106.5zM496 166q135 0 204.5 58.5t69.5 166.5q0 55 -20.5 108
t-63 106t-84.5 94.5t-108 99.5q-133 -108 -205 -207.5t-72 -202.5q0 -104 74.5 -163.5t204.5 -59.5z" />
    <glyph glyph-name="tehar" unicode="&#x62a;" horiz-adv-x="1792" 
d="M831 1069l-139 -141l-139 141l139 137zM1112 1069l-139 -141l-139 141l139 137zM1675 473q0 -114 -32 -199.5t-101.5 -148t-184 -94t-274.5 -31.5h-432q-306 0 -449 114.5t-143 346.5q0 160 80 346l135 -35q-24 -73 -34 -107t-19.5 -84t-9.5 -94q0 -158 111 -231.5
t335 -73.5h430q231 0 339 69.5t108 211.5q0 57 -15 123.5t-32.5 117.5t-56.5 156l139 33q52 -130 79 -227t27 -193z" />
    <glyph glyph-name="thehar" unicode="&#x62b;" horiz-adv-x="1792" 
d="M979 1343l-137 -139l-140 139l140 140zM840 1061l-140 -141l-139 141l139 137zM1120 1061l-139 -141l-139 141l139 137zM1675 473q0 -114 -32 -199.5t-101.5 -148t-184 -94t-274.5 -31.5h-432q-306 0 -449 114.5t-143 346.5q0 160 80 346l135 -35q-24 -73 -34 -107
t-19.5 -84t-9.5 -94q0 -158 111 -231.5t335 -73.5h430q231 0 339 69.5t108 211.5q0 57 -15 123.5t-32.5 117.5t-56.5 156l139 33q52 -130 79 -227t27 -193z" />
    <glyph glyph-name="jeemar" unicode="&#x62c;" horiz-adv-x="1523" 
d="M217 49q0 -194 169 -324.5t445 -130.5q172 0 310 35t270 103v-15l-25 -176q-249 -135 -561 -135q-327 0 -529.5 168.5t-201.5 460.5q1 146 50.5 273t131.5 219t195 165t235 118.5t257 72.5q-60 23 -162 69q-215 100 -363.5 116.5t-290.5 -46.5l29 170q41 21 82 34.5
t76.5 21t77.5 5.5t72.5 -5t74.5 -16.5t70.5 -23t73 -30.5t70.5 -33t73 -37q96 -47 137.5 -65.5t126 -50t159.5 -41t154 -3.5l-24 -170q-185 -10 -354.5 -42.5t-321.5 -93.5t-263.5 -143.5t-177 -198t-65.5 -251.5zM989 162l-137 -142l-139 142l139 137z" />
    <glyph glyph-name="hahar" unicode="&#x62d;" horiz-adv-x="1523" 
d="M217 49q0 -194 169 -324.5t445 -130.5q172 0 310 35t270 103v-15l-25 -176q-249 -135 -561 -135q-327 0 -529.5 168.5t-201.5 460.5q1 146 50.5 273t131.5 219t195 165t235 118.5t257 72.5q-60 23 -162 69q-215 100 -363.5 116.5t-290.5 -46.5l29 170q41 21 82 34.5
t76.5 21t77.5 5.5t72.5 -5t74.5 -16.5t70.5 -23t73 -30.5t70.5 -33t73 -37q96 -47 137.5 -65.5t126 -50t159.5 -41t154 -3.5l-24 -170q-185 -10 -354.5 -42.5t-321.5 -93.5t-263.5 -143.5t-177 -198t-65.5 -251.5z" />
    <glyph glyph-name="khahar" unicode="&#x62e;" horiz-adv-x="1523" 
d="M784 1671l138 -137l-138 -141l-139 141zM217 49q0 -194 169 -324.5t445 -130.5q172 0 310 35t270 103v-15l-25 -176q-249 -135 -561 -135q-327 0 -529.5 168.5t-201.5 460.5q1 146 50.5 273t131.5 219t195 165t235 118.5t257 72.5q-60 23 -162 69q-215 100 -363.5 116.5
t-290.5 -46.5l29 170q41 21 82 34.5t76.5 21t77.5 5.5t72.5 -5t74.5 -16.5t70.5 -23t73 -30.5t70.5 -33t73 -37q96 -47 137.5 -65.5t126 -50t159.5 -41t154 -3.5l-24 -170q-185 -10 -354.5 -42.5t-321.5 -93.5t-263.5 -143.5t-177 -198t-65.5 -251.5z" />
    <glyph glyph-name="dalar" unicode="&#x62f;" horiz-adv-x="1146" 
d="M68 207l57 133q76 -93 173 -131.5t226 -38.5q164 0 248 49.5t84 145.5q0 109 -98 271.5t-260 342.5l108 129q385 -437 385 -731q0 -190 -120 -290.5t-361 -100.5q-168 0 -278 61t-164 160z" />
    <glyph glyph-name="thalar" unicode="&#x630;" horiz-adv-x="1146" 
d="M715 1440l-137 -142l-140 142l140 137zM68 207l57 133q76 -93 173 -131.5t226 -38.5q164 0 248 49.5t84 145.5q0 109 -98 271.5t-260 342.5l108 129q385 -437 385 -731q0 -190 -120 -290.5t-361 -100.5q-168 0 -278 61t-164 160z" />
    <glyph glyph-name="rehar" unicode="&#x631;" horiz-adv-x="739" 
d="M627 174q0 -123 -35 -229.5t-96.5 -187t-149 -144t-188.5 -105.5t-219 -67l-58 174q77 15 156.5 45t160 79t143 109.5t101.5 142.5t39 171q0 105 -25.5 220.5t-86.5 313.5l145 43q113 -344 113 -565z" />
    <glyph glyph-name="zainar" unicode="&#x632;" horiz-adv-x="739" 
d="M512 1034l-137 -141l-139 141l139 137zM625 174q0 -123 -35 -229.5t-96.5 -187t-149 -144t-188.5 -105.5t-219 -67l-58 174q77 15 156.5 45t160 79t143 109.5t101.5 142.5t39 171q0 105 -25.5 220.5t-86.5 313.5l145 43q113 -344 113 -565z" />
    <glyph glyph-name="seenar" unicode="&#x633;" horiz-adv-x="2492" 
d="M2165 678l141 41q30 -58 51 -158.5t21 -187.5q0 -173 -91 -273t-255 -100q-105 0 -178.5 48.5t-102.5 141.5q-61 -187 -295 -190q-107 0 -174 47q-28 -230 -196 -361.5t-435 -131.5q-142 0 -256 40.5t-187.5 112t-112 167.5t-38.5 208q0 93 23 192t63 179l123 -50
q-61 -149 -61 -276q0 -182 121 -287.5t338 -105.5q137 0 245 39.5t174 124t66 202.5q0 155 -90 414l145 31q35 -103 56 -195q28 -95 77.5 -131.5t132.5 -36.5q107 0 159 46.5t67 166.5l20 168l121 21v-189q0 -213 201 -213q95 0 146.5 50t51.5 141q0 103 -71 305z" />
    <glyph glyph-name="sheenar" unicode="&#x634;" horiz-adv-x="2492" 
d="M1794 1241l137 -139l-137 -139l-139 139zM1653 956l139 -137l-139 -141l-140 141zM2073 819l-140 -141l-139 141l139 137zM2165 678l141 41q30 -58 51 -158.5t21 -187.5q0 -173 -91 -273t-255 -100q-105 0 -178.5 48.5t-102.5 141.5q-61 -187 -295 -190q-107 0 -174 47
q-28 -230 -196 -361.5t-435 -131.5q-142 0 -256 40.5t-187.5 112t-112 167.5t-38.5 208q0 93 23 192t63 179l123 -50q-61 -149 -61 -276q0 -182 121 -287.5t338 -105.5q137 0 245 39.5t174 124t66 202.5q0 155 -90 414l145 31q35 -103 56 -195q28 -95 77.5 -131.5
t132.5 -36.5q107 0 159 46.5t67 166.5l20 168l121 21v-189q0 -213 201 -213q95 0 146.5 50t51.5 141q0 103 -71 305z" />
    <glyph glyph-name="sadar" unicode="&#x635;" horiz-adv-x="2588" 
d="M2116 877q124 0 222 -66.5t148.5 -171t50.5 -223.5q0 -416 -550 -416h-504q-111 6 -185 70q-25 -236 -193.5 -370t-438.5 -134q-287 0 -448 145.5t-161 394.5q0 120 29.5 232t73.5 188l121 -49q-78 -179 -78 -323q0 -187 123.5 -297.5t353.5 -110.5q220 0 349.5 98
t129.5 277q0 113 -26 224.5t-84 264.5l139 41q60 -131 88 -270q32 -109 90 -156q344 652 750 652zM1995 182q418 0 418 230q0 113 -88.5 200.5t-225.5 87.5q-95 0 -184 -38t-167.5 -110.5t-147 -161.5t-136.5 -206q12 -2 43 -2h488z" />
    <glyph glyph-name="dadar" unicode="&#x636;" horiz-adv-x="2588" 
d="M2073 1350l137 -138l-137 -141l-140 141zM2114 877q124 0 222 -66.5t148.5 -171t50.5 -223.5q0 -416 -550 -416h-504q-111 6 -185 70q-25 -236 -193.5 -370t-438.5 -134q-287 0 -448 145.5t-161 394.5q0 120 29.5 232t73.5 188l121 -49q-78 -179 -78 -323
q0 -187 123.5 -297.5t353.5 -110.5q220 0 349.5 98t129.5 277q0 113 -26 224.5t-84 264.5l139 41q60 -131 88 -270q32 -109 90 -156q344 652 750 652zM1993 182q417 0 417 230q0 113 -88 200.5t-225 87.5q-95 0 -184 -38t-167.5 -110.5t-147 -161.5t-136.5 -206q12 -2 43 -2
h488z" />
    <glyph glyph-name="tahar" unicode="&#x637;" horiz-adv-x="1714" 
d="M1186 877q124 0 222.5 -66.5t149 -171t50.5 -223.5q0 -416 -551 -416h-342q-443 -10 -649 45l-17 170q160 -33 365 -33l63 117l-39 1225l146 20l18 -1050q272 383 584 383zM1065 182q418 0 418 230q0 113 -88.5 200.5t-225.5 87.5q-95 0 -184.5 -38.5t-168.5 -111
t-147.5 -162t-136.5 -206.5h533z" />
    <glyph glyph-name="zahar" unicode="&#x638;" horiz-adv-x="1714" 
d="M1186 877q124 0 222.5 -66.5t149 -171t50.5 -223.5q0 -416 -551 -416h-342q-443 -10 -649 45l-17 170q160 -33 365 -33l63 117l-39 1225l146 20l18 -1050q272 383 584 383zM1171 1323l138 -137l-138 -142l-139 142zM1065 182q418 0 418 230q0 113 -88.5 200.5
t-225.5 87.5q-95 0 -184.5 -38.5t-168.5 -111t-147.5 -162t-136.5 -206.5h533z" />
    <glyph glyph-name="ainar" unicode="&#x639;" horiz-adv-x="1388" 
d="M217 -12q0 -140 96 -236t248.5 -131.5t349 -15t389.5 99.5l-16 -182q-116 -46 -253.5 -72t-231.5 -26q-69 0 -134 6.5t-137 23.5t-133 43t-118 69.5t-96.5 99.5t-63 134.5t-23.5 173.5q0 185 92.5 342.5t235.5 260.5q-122 44 -192.5 144t-69.5 224q1 120 64 217
t162.5 149t211.5 52q65 0 138.5 -13.5t123.5 -39.5l-33 -162q-79 37 -221 37q-128 0 -217.5 -64t-89.5 -172q0 -78 43.5 -134t105 -80.5t130.5 -24.5q40 0 78 5.5t94.5 23.5t85 28t114 44t117.5 46l-16 -166q-111 -37 -185 -64.5t-169.5 -68.5t-158 -79t-129 -91.5
t-105 -110.5t-63 -131.5t-24.5 -158.5z" />
    <glyph glyph-name="ghainar" unicode="&#x63a;" horiz-adv-x="1388" 
d="M535 1894l137 -137l-137 -141l-140 141zM217 -12q0 -140 96 -236t248.5 -131.5t349 -15t389.5 99.5l-16 -182q-116 -46 -253.5 -72t-231.5 -26q-69 0 -134 6.5t-137 23.5t-133 43t-118 69.5t-96.5 99.5t-63 134.5t-23.5 173.5q0 185 92.5 342.5t235.5 260.5
q-122 44 -192.5 144t-69.5 224q1 120 64 217t162.5 149t211.5 52q65 0 138.5 -13.5t123.5 -39.5l-33 -162q-79 37 -221 37q-128 0 -217.5 -64t-89.5 -172q0 -78 43.5 -134t105 -80.5t130.5 -24.5q40 0 78 5.5t94.5 23.5t85 28t114 44t117.5 46l-16 -166q-111 -37 -185 -64.5
t-169.5 -68.5t-158 -79t-129 -91.5t-105 -110.5t-63 -131.5t-24.5 -158.5z" />
    <glyph glyph-name="kashidaar" unicode="&#x640;" horiz-adv-x="706" 
d="M-45 16v148l45 18h707v-182h-707z" />
    <glyph glyph-name="fehar" unicode="&#x641;" horiz-adv-x="1906" 
d="M1556 1616l-137 -141l-139 141l139 137zM1225 0h-537q-306 0 -467.5 114.5t-161.5 329.5q0 155 66 336l147 -20q-63 -155 -63 -281q0 -155 117.5 -227.5t369.5 -71.5h500q329 3 428 170q-75 -4 -152.5 6t-156 37.5t-139 70.5t-98.5 112t-38 155t30 167.5t79.5 140.5
t115 94.5t134.5 35.5q108 0 197.5 -80t141.5 -220.5t52 -311.5q0 -248 -151.5 -397.5t-413.5 -159.5zM1659 516q10 112 -24.5 227.5t-103 192t-147.5 76.5q-90 0 -161.5 -74.5t-71.5 -177.5q0 -67 54 -118.5t134.5 -79t165 -39.5t154.5 -7z" />
    <glyph glyph-name="qafar" unicode="&#x642;" horiz-adv-x="1509" 
d="M872 1327l140 -137l-140 -141l-139 141zM1153 1327l139 -137l-139 -141l-139 141zM1401 256q5 -138 -35.5 -258.5t-121 -211.5t-205 -147.5t-279.5 -64.5q-317 -13 -494 130.5t-186 395.5q-6 202 88 435l125 -43q-76 -193 -70 -349q8 -189 141.5 -292t378.5 -93
q196 6 316.5 73t183.5 212q-61 -7 -128 -0.5t-132.5 18.5t-125.5 41.5t-106 68t-74.5 98t-31.5 132.5q-5 114 42.5 216.5t132 165.5t184.5 67q163 4 274.5 -164.5t122.5 -429.5zM764 430q3 -62 39.5 -108t91.5 -68.5t122 -36.5t131 -12t118 6q10 108 -22.5 216t-104 180.5
t-162.5 68.5q-89 -5 -153 -75t-60 -171z" />
    <glyph glyph-name="kafar" unicode="&#x643;" horiz-adv-x="1689" 
d="M993 0h-354q-269 0 -407 116t-138 343q0 141 60 309l133 -45q-43 -111 -43 -236q0 -153 106 -229t295 -76h342q91 0 160 12.5t123.5 41t82 80t25.5 124.5l-41 1078l146 20l33 -1081q6 -233 -123 -345t-400 -112zM784 539h-168v131l156 -2q176 0 176 67q0 44 -72 75
t-227 58l4 158q152 114 324 180l-2 -135q-138 -49 -230 -108q72 -15 124.5 -33t96 -45t65.5 -65t22 -87q0 -90 -68.5 -142t-200.5 -52z" />
    <glyph glyph-name="lamar" unicode="&#x644;" horiz-adv-x="1415" 
d="M156 530l120 -34q-77 -177 -77 -328q0 -193 115 -307.5t335 -114.5q209 0 334 107.5t121 312.5l-47 1352l153 20l31 -1345q6 -293 -153 -460t-445 -167q-277 0 -431.5 146.5t-154.5 393.5q0 123 28.5 236.5t70.5 187.5z" />
    <glyph glyph-name="meemar" unicode="&#x645;" horiz-adv-x="1343" 
d="M911 805q103 0 183 -70t119.5 -175.5t39.5 -221.5q0 -172 -112 -257.5t-299 -74.5q-42 3 -95.5 11t-95.5 15.5t-90.5 14t-85.5 5.5t-74.5 -9t-64.5 -30t-48.5 -57.5t-33 -92.5t-12.5 -133q-3 -211 26 -469l-145 -27q-37 284 -31 504q6 257 95.5 383t277.5 117
q15 81 39.5 158t64 152.5t87.5 131.5t114 90.5t141 34.5zM915 186q98 0 158 46.5t60 127.5q0 66 -25 128.5t-80 107.5t-129 45q-75 0 -142 -65.5t-107 -160t-52 -194.5q201 -35 317 -35z" />
    <glyph glyph-name="noonar" unicode="&#x646;" horiz-adv-x="1421" 
d="M799 823l-137 -141l-140 141l140 138zM662 -434q-287 0 -447 145.5t-160 394.5q0 119 29.5 231.5t71.5 188.5l135 -32q-88 -199 -88 -353q0 -184 120 -289.5t349 -105.5q227 0 358 98t131 277q0 106 -24.5 228.5t-71.5 301.5l143 41q95 -328 95 -545q0 -270 -172 -425.5
t-469 -155.5z" />
    <glyph glyph-name="hehar" unicode="&#x647;" horiz-adv-x="1046" 
d="M496 -10q-190 0 -299 102t-109 279q0 283 369 569l37 70q204 -161 306 -310.5t101 -304.5q-2 -192 -106.5 -298.5t-298.5 -106.5zM496 166q135 0 204.5 58.5t69.5 166.5q0 55 -20.5 108t-63 106t-84.5 94.5t-108 99.5q-133 -108 -205 -207.5t-72 -202.5
q0 -104 74.5 -163.5t204.5 -59.5z" />
    <glyph glyph-name="wawar" unicode="&#x648;" horiz-adv-x="997" 
d="M532 780q160 0 266 -166.5t109 -431.5q-2 -147 -64.5 -273t-170 -217.5t-243.5 -155t-294 -97.5l-51 180q186 33 366 128.5t265 223.5q-101 -6 -198.5 15t-179 66.5t-131.5 124t-50 177.5q0 178 112.5 302t263.5 124zM279 375q0 -87 77.5 -148t189.5 -82.5t228 -7.5
q10 76 -4 160.5t-47 155.5t-89 117t-124 46q-91 0 -161 -69t-70 -172z" />
    <glyph glyph-name="alefMaksuraar" unicode="&#x649;" horiz-adv-x="1572" 
d="M743 -434q-161 -4 -291 37t-215 119t-130.5 187t-45.5 241q0 93 30.5 207t76.5 200l123 -49q-44 -100 -62 -173t-18 -161q0 -213 142.5 -325t410.5 -103q111 4 212 29.5t170 63.5t109.5 85t40.5 94q0 50 -47.5 74t-220.5 75q-6 2 -9.5 3t-9 3t-10.5 3q-80 23 -129.5 43.5
t-96 54.5t-68 85.5t-21.5 123.5q0 127 64.5 228t171.5 161q127 73 272.5 73.5t234.5 -75.5l-30 -159q-71 52 -172.5 64.5t-192 -12.5t-155 -91t-64.5 -158q0 -63 53 -102q47 -33 114 -57.5t126 -37.5t120 -34t104.5 -46t71.5 -74t28 -118q0 -93 -50.5 -178t-139 -150.5
t-218 -106t-279.5 -44.5z" />
    <glyph glyph-name="yehar" unicode="&#x64a;" horiz-adv-x="1572" 
d="M743 -434q-161 -4 -291 37t-215 119t-130.5 187t-45.5 241q0 93 30.5 207t76.5 200l123 -49q-44 -100 -62 -173t-18 -161q0 -213 142.5 -325t410.5 -103q111 4 212 29.5t170 63.5t109.5 85t40.5 94q0 50 -47.5 74t-220.5 75q-6 2 -9.5 3t-9 3t-10.5 3q-80 23 -129.5 43.5
t-96 54.5t-68 85.5t-21.5 123.5q0 127 64.5 228t171.5 161q127 73 272.5 73.5t234.5 -75.5l-30 -159q-71 52 -172.5 64.5t-192 -12.5t-155 -91t-64.5 -158q0 -63 53 -102q47 -33 114 -57.5t126 -37.5t120 -34t104.5 -46t71.5 -74t28 -118q0 -93 -50.5 -178t-139 -150.5
t-218 -106t-279.5 -44.5zM743 -788l-137 -140l-139 140l139 139zM1024 -788l-139 -140l-137 140l137 139z" />
    <glyph glyph-name="fathatanar" unicode="&#x64b;" 
d="M25 1464l481 115v-115l-481 -116v116zM27 1221l479 116v-114l-479 -117v115z" />
    <glyph glyph-name="dammatanar" unicode="&#x64c;" 
d="M410 1786q79 0 131.5 -66t52.5 -172q0 -157 -123 -242.5t-305 -66.5l-57 53q6 50 6 127q0 30 -20.5 39.5t-50.5 1t-67 -29.5l13 106q57 36 105 38.5t77 -31.5t29 -101q0 -27 -4 -101q82 -3 150 20t108 66q-89 -11 -156.5 37t-67.5 133q0 76 53.5 132.5t125.5 56.5z
M307 1614q0 -52 67.5 -82t139.5 -10q4 78 -28.5 122t-88.5 44q-35 0 -62.5 -22t-27.5 -52z" />
    <glyph glyph-name="kasratanar" unicode="&#x64d;" 
d="M43 -125l481 117v-115l-481 -117v115zM45 -367l481 117v-115l-481 -118v116z" />
    <glyph glyph-name="fathaar" unicode="&#x64e;" 
d="M217 1481l481 114v-114l-481 -117v117z" />
    <glyph glyph-name="dammaar" unicode="&#x64f;" 
d="M240 1786q79 0 131.5 -66t52.5 -172q0 -78 -36.5 -142.5t-98 -101.5t-141 -48.5t-166.5 16.5l10 88q215 -28 297 67q-90 -11 -159 36.5t-69 133.5q0 76 53.5 132.5t125.5 56.5zM137 1614q0 -54 68 -84t139 -8q4 78 -28.5 122t-88.5 44q-35 0 -62.5 -22t-27.5 -52z" />
    <glyph glyph-name="kasraar" unicode="&#x650;" 
d="M-23 -152l482 117v-115l-482 -118v116z" />
    <glyph glyph-name="shaddaar" unicode="&#x651;" 
d="M37 1110l86 29q-30 -79 -18.5 -122.5t59.5 -43.5q25 0 40 22.5t15 59.5v106l86 27v-113q0 -35 19 -56.5t51 -21.5q57 0 57 95q0 64 -24 114l81 25q31 -85 31 -162q0 -90 -39.5 -140t-111.5 -50q-63 0 -99 65q-18 -41 -49.5 -65.5t-68.5 -24.5q-86 0 -118.5 73t3.5 183z
" />
    <glyph glyph-name="sukunar" unicode="&#x652;" 
d="M172 891q-93 0 -146 51t-55 137q0 100 57.5 182t143.5 82t142.5 -79.5t56.5 -176.5q0 -89 -53.5 -142.5t-145.5 -53.5zM172 995q53 0 82 24.5t29 65.5q0 56 -31 105t-80 49q-48 0 -79.5 -48.5t-31.5 -100.5q0 -42 30 -68.5t81 -26.5z" />
    <glyph glyph-name="maddaar" unicode="&#x653;" 
d="M102 1372l-92 31q12 80 55.5 124t112.5 44q47 0 132.5 -25.5t133.5 -25.5q68 0 129 47l19 -86q-55 -68 -166 -68q-42 0 -112 20.5t-111 20.5q-79 0 -101 -82z" />
    <glyph glyph-name="hamzaabovear" unicode="&#x654;" 
d="M246 1438q88 0 192 8v-98q-39 -6 -213.5 -16t-234.5 -21v94q71 11 102 14q-45 45 -45 123q0 79 60 133t143 54q71 0 123 -37v-97q-54 31 -115 31q-52 0 -86.5 -22t-34.5 -60q0 -82 109 -106z" />
    <glyph glyph-name="hamzabelowar" unicode="&#x655;" 
d="M244 -387q89 0 190 8v-96q-42 -8 -215.5 -17.5t-232.5 -19.5v94q100 15 102 15q-45 48 -45 120q0 81 60 135t145 54q70 0 121 -39v-96q-49 32 -115 32q-50 0 -85.5 -22.5t-35.5 -61.5q0 -82 111 -106z" />
    <glyph glyph-name="alefbelowar" unicode="&#x656;" 
d="M98 -109l482 117v-114l-482 -117v114zM-176 -469l481 117v-115l-481 -117v115z" />
    <glyph glyph-name="dammainvertedar" unicode="&#x657;" 
d="M-137 1706l481 117v-115l-481 -119v117zM233 1516l482 114v-114l-482 -117v117z" />
    <glyph glyph-name="noonghunnaabovear" unicode="&#x658;" 
d="M1118 1511q0 -105 -57.5 -164t-163.5 -59q-102 0 -158.5 52.5t-56.5 142.5q0 75 31 149l82 -2q-27 -60 -27 -121q0 -108 133 -108q62 0 96.5 25.5t34.5 72.5q0 63 -31 168l86 23q31 -108 31 -179z" />
    <glyph glyph-name="fathatwodotsar" unicode="&#x65e;" 
d="M440 1774q73 0 123.5 -62t50.5 -160q0 -68 -36.5 -130.5t-93.5 -107t-119 -75t-119 -43.5l12 107q152 49 219 137q-81 -3 -142 38.5t-61 118.5q0 72 49 124.5t117 52.5zM860 1774q73 0 123.5 -62t50.5 -160q0 -68 -36.5 -130.5t-93.5 -107t-119 -75t-119 -43.5l12 107
q152 49 219 137q-81 -3 -142 38.5t-61 118.5q0 72 49 124.5t117 52.5zM350 1612q0 -36 49.5 -64t126.5 -20q10 62 -22 110t-74 48q-35 0 -57.5 -23.5t-22.5 -50.5zM770 1612q0 -36 49.5 -64t126.5 -20q10 62 -22 110t-74 48q-35 0 -57.5 -23.5t-22.5 -50.5z" />
    <glyph glyph-name="zeroar" unicode="&#x660;" horiz-adv-x="733" 
d="M559 514l-190 -195l-193 195l193 191z" />
    <glyph glyph-name="onear" unicode="&#x661;" horiz-adv-x="620" 
d="M217 1331l148 27q40 -262 60.5 -628.5t20.5 -729.5h-149q0 354 -20.5 713t-59.5 618z" />
    <glyph glyph-name="twoar" unicode="&#x662;" horiz-adv-x="1081" 
d="M801 1321h135q18 -102 18 -178q0 -197 -98 -303.5t-266 -106.5q-170 0 -262 92q26 -393 26 -825h-147q0 356 -20.5 714.5t-61.5 616.5l149 27q9 -52 15 -111l6 -30q24 -130 47 -178q49 -105 174 -119q20 -2 43 -2q61 0 108.5 17.5t74.5 43.5t44.5 60.5t23 62.5t5.5 55
q0 59 -14 164z" />
    <glyph glyph-name="threear" unicode="&#x663;" horiz-adv-x="1255" 
d="M1024 1333h125q16 -90 19 -169.5t-9.5 -152.5t-41 -125t-80.5 -83t-124 -31q-76 0 -133 39.5t-86 116.5q-24 -63 -68.5 -104t-84 -54.5t-76.5 -13.5q-85 0 -146 43q25 -412 25 -799h-149q0 354 -20.5 713t-59.5 618l149 27l12 -84l7 -47q2 -13 6 -44t5.5 -44t6 -39.5
t8.5 -38.5l11 -33t15 -30.5t19.5 -23t25 -19.5t32 -10.5t39.5 -4.5q45 0 80 15.5t55 38.5t32.5 54.5t16.5 60t4 58.5v156h127l2 -166q1 -52 9 -89.5t19.5 -58.5t30 -33.5t35.5 -16t39 -3.5q41 0 69.5 14.5t44 43t23 61.5t6 79t-6 86.5t-13.5 92.5z" />
    <glyph glyph-name="fourar" unicode="&#x664;" horiz-adv-x="1093" 
d="M961 180l20 -160q-139 -40 -344 -40q-249 0 -375.5 98.5t-126.5 281.5q0 129 77.5 223.5t213.5 129.5q-107 28 -171.5 100t-64.5 184q0 118 77.5 201t206 123.5t300.5 46.5q58 4 82 4v-155q-15 0 -30 -1t-31.5 -3t-24.5 -3q-223 -11 -328.5 -63t-105.5 -172
q0 -84 94 -129t232 -45h151v-170h-131q-180 0 -294 -69.5t-114 -182.5q0 -109 95 -168t274 -59q147 0 318 28z" />
    <glyph glyph-name="fivear" unicode="&#x665;" horiz-adv-x="1224" 
d="M612 109q-240 0 -364.5 131.5t-124.5 363.5q0 169 67 316t180 234t242 87q130 0 242.5 -86.5t179 -233.5t66.5 -317q0 -232 -124 -363.5t-364 -131.5zM612 295q171 0 260 80t89 227q0 190 -104 321.5t-245 131.5q-139 0 -243.5 -131t-104.5 -320q0 -148 88.5 -228.5
t259.5 -80.5z" />
    <glyph glyph-name="sixar" unicode="&#x666;" horiz-adv-x="948" 
d="M766 1339q-34 -667 43 -1339h-150q-35 237 -43 517t-2 650q-51 -5 -327 -12q-116 0 -242 14v170q143 -14 289 -14q216 0 432 14zM287 1155h8h-8z" />
    <glyph glyph-name="sevenar" unicode="&#x667;" horiz-adv-x="1167" 
d="M653 -8h-161q-206 761 -426 1362h161q194 -518 351 -1133q174 646 362 1133h162q-236 -611 -449 -1362z" />
    <glyph glyph-name="eightar" unicode="&#x668;" horiz-adv-x="1173" 
d="M514 1339h162q215 -779 426 -1362h-162q-190 510 -350 1133q-159 -601 -363 -1133h-161q235 612 448 1362z" />
    <glyph glyph-name="ninear" unicode="&#x669;" horiz-adv-x="1026" 
d="M862 786l37 -786h-139l-15 545q-86 -12 -170 -8.5t-159.5 17t-139 46t-110 78t-72.5 112.5t-26 150q0 85 32.5 164.5t85.5 136.5t124 91t145 34q79 0 148 -34.5t125 -103.5t91.5 -182t42.5 -260zM180 946q0 -52 27 -94t71.5 -68.5t101.5 -46t118 -26.5t121 -9.5t110 5.5
q-9 260 -87.5 377.5t-207.5 117.5q-95 0 -174.5 -79.5t-79.5 -176.5z" />
    <glyph glyph-name="percentar" unicode="&#x66a;" horiz-adv-x="1300" 
d="M233 0l660 1352h160l-660 -1352h-160zM317 1026q-56 0 -94.5 39t-38.5 96q0 55 39 94t94 39q57 0 96.5 -38.5t39.5 -94.5q0 -57 -39.5 -96t-96.5 -39zM971 47q-57 0 -97 39t-40 96t40 97t97 40t96 -40t39 -97t-39 -96t-96 -39z" />
    <glyph glyph-name="decimalseparatorar" unicode="&#x66b;" horiz-adv-x="559" 
d="M408 135q0 -66 -20.5 -131.5t-54.5 -119t-77.5 -99.5t-89 -78t-90.5 -51l-82 76q119 58 197.5 150t89.5 181q-84 -20 -139.5 18t-55.5 112q0 71 43.5 114t110.5 43q73 0 120.5 -55.5t47.5 -159.5z" />
    <glyph glyph-name="thousandseparatorar" unicode="&#x66c;" horiz-adv-x="761" 
d="M174 190q0 81 31 161t81 141t107 106.5t113 69.5l82 -76q-119 -58 -197.5 -150.5t-87.5 -181.5q84 20 138.5 -17.5t54.5 -111.5q0 -71 -43 -114.5t-111 -43.5q-73 0 -120.5 56t-47.5 161z" />
    <glyph glyph-name="asteriskar" unicode="&#x66d;" horiz-adv-x="792" 
d="M397 758l-178 -205l-76 47l136 236l-238 104l22 82l263 -51l26 266h88l27 -266l264 51l23 -82l-240 -104l135 -236l-76 -47z" />
    <glyph glyph-name="behDotlessar" unicode="&#x66e;" horiz-adv-x="1792" 
d="M1677 473q0 -114 -32 -199.5t-101.5 -148t-184 -94t-274.5 -31.5h-432q-306 0 -449 114.5t-143 346.5q0 160 80 346l135 -35q-24 -73 -34 -107t-19.5 -84t-9.5 -94q0 -158 111 -231.5t335 -73.5h431q231 0 338.5 69t107.5 212q0 57 -15 123.5t-32.5 117.5t-56.5 156
l139 33q52 -130 79 -227t27 -193z" />
    <glyph glyph-name="qafDotlessar" unicode="&#x66f;" horiz-adv-x="1509" 
d="M1401 256q5 -138 -35.5 -258.5t-121 -211.5t-205 -147.5t-279.5 -64.5q-317 -13 -494 130.5t-186 395.5q-6 202 88 435l125 -43q-76 -193 -70 -349q8 -189 141.5 -292t378.5 -93q196 6 316.5 73t183.5 212q-61 -7 -128 -0.5t-132.5 18.5t-125.5 41.5t-106 68t-74.5 98
t-31.5 132.5q-5 114 42.5 216.5t132 165.5t184.5 67q163 4 274.5 -164.5t122.5 -429.5zM764 430q3 -62 39.5 -108t91.5 -68.5t122 -36.5t131 -12t118 6q10 108 -22.5 216t-104 180.5t-162.5 68.5q-89 -5 -153 -75t-60 -171z" />
    <glyph glyph-name="alefabovear" unicode="&#x670;" 
d="M-53 1712l112 41q31 -143 42 -250.5t3 -251.5l-84 -16q0 241 -73 477z" />
    <glyph glyph-name="alefWaslaar" unicode="&#x671;" horiz-adv-x="540" 
d="M606 1726q0 -69 -54 -124t-140 -72q-24 -6 -52 -6h-18q-42 1 -111 21t-108 20q-78 0 -103 -82l-92 30q12 79 56 122.5t114 43.5q19 0 47 -4q63 116 139.5 182t153.5 66q70 0 119 -54t49 -143zM324 1630v2q71 -13 128.5 21.5t57.5 72.5q0 31 -27 56.5t-61 25.5
q-52 0 -105 -40.5t-98 -110.5q71 -21 105 -27zM231 0l-43 1315l146 20l33 -1335h-136z" />
    <glyph glyph-name="ttehar" unicode="&#x679;" horiz-adv-x="1792" 
d="M862 784h-26q-121 -3 -211 15v104q27 -4 69 -8l29 49l-12 350h84l10 -245q65 65 141 65q54 0 94.5 -50.5t40.5 -117.5q0 -87 -54 -124.5t-165 -37.5zM1014 938q0 27 -25 49.5t-57 22.5q-42 0 -84.5 -23.5t-95.5 -93.5h102h17q37 0 55.5 0.5t43 4.5t34.5 14t10 26z
M1430 860l139 33q52 -130 79 -227t27 -193q0 -114 -32 -199.5t-101.5 -148t-184 -94t-274.5 -31.5h-432q-306 0 -449 114.5t-143 346.5q0 160 80 346l135 -35q-24 -73 -34 -107t-19.5 -84t-9.5 -94q0 -158 111 -231.5t335 -73.5h430q231 0 339 69.5t108 211.5
q0 57 -15 123.5t-32.5 117.5t-56.5 156z" />
    <glyph glyph-name="pehar" unicode="&#x67e;" horiz-adv-x="1792" 
d="M1675 473q0 -114 -32 -199.5t-101.5 -148t-184 -94t-274.5 -31.5h-432q-306 0 -449 114.5t-143 346.5q0 160 80 346l135 -35q-24 -73 -34 -107t-19.5 -84t-9.5 -94q0 -158 111 -231.5t335 -73.5h430q231 0 339 69.5t108 211.5q0 57 -15 123.5t-32.5 117.5t-56.5 156
l139 33q52 -130 79 -227t27 -193zM569 -254l140 139l139 -139l-139 -139zM850 -254l139 139l139 -139l-139 -139zM711 -539l139 142l137 -142l-137 -137z" />
    <glyph glyph-name="tchehar" unicode="&#x686;" horiz-adv-x="1523" 
d="M217 49q0 -194 169 -324.5t445 -130.5q172 0 310 35t270 103v-15l-25 -176q-249 -135 -561 -135q-327 0 -529.5 168.5t-201.5 460.5q1 146 50.5 273t131.5 219t195 165t235 118.5t257 72.5q-60 23 -162 69q-215 100 -363.5 116.5t-290.5 -46.5l29 170q41 21 82 34.5
t76.5 21t77.5 5.5t72.5 -5t74.5 -16.5t70.5 -23t73 -30.5t70.5 -33t73 -37q96 -47 137.5 -65.5t126 -50t159.5 -41t154 -3.5l-24 -170q-185 -10 -354.5 -42.5t-321.5 -93.5t-263.5 -143.5t-177 -198t-65.5 -251.5zM600 55l129 131l127 -131l-127 -127zM987 186l129 -131
l-129 -127l-129 127zM858 -76l127 -131l-127 -127l-129 127z" />
    <glyph glyph-name="ddalar" unicode="&#x688;" horiz-adv-x="1146" 
d="M557 1270h-27q-126 -3 -208 14v105q34 -6 69 -9q11 21 29 47l-14 351h83l11 -246q68 65 143 65q54 0 93.5 -49t39.5 -118q0 -86 -53.5 -123t-165.5 -37zM711 1423q0 27 -25.5 49.5t-58.5 22.5q-42 0 -84.5 -23.5t-93.5 -93.5h100q100 0 123 6q38 11 39 39zM498 979
l108 129q385 -437 385 -731q0 -190 -120 -290.5t-361 -100.5q-168 0 -278 61t-164 160l57 133q76 -93 173 -131.5t226 -38.5q164 0 248 49.5t84 145.5q0 109 -98 271.5t-260 342.5z" />
    <glyph glyph-name="rrehar" unicode="&#x691;" horiz-adv-x="739" 
d="M414 940h-27q-126 -3 -211 14v105q24 -4 72 -8q13 26 28 47l-14 350h84l10 -246q66 66 142 66q54 0 94.5 -49.5t40.5 -118.5q0 -85 -54 -122.5t-165 -37.5zM565 1094q0 27 -25 49t-57 22q-42 0 -84.5 -23t-93.5 -93h101q99 0 121 6q38 9 38 39zM367 696l145 43
q113 -344 113 -565q0 -123 -35 -229.5t-96.5 -187t-149 -144t-188.5 -105.5t-219 -67l-58 174q77 15 156.5 45t160 79t143 109.5t101.5 142.5t39 171q0 105 -25.5 220.5t-86.5 313.5z" />
    <glyph glyph-name="jehar" unicode="&#x698;" horiz-adv-x="739" 
d="M528 1280l-137 -139l-139 139l139 139zM389 997l-139 -141l-139 141l139 138zM670 997l-140 -141l-139 141l139 138zM625 174q0 -123 -35 -229.5t-96.5 -187t-149 -144t-188.5 -105.5t-219 -67l-58 174q77 15 156.5 45t160 79t143 109.5t101.5 142.5t39 171
q0 105 -25.5 220.5t-86.5 313.5l145 43q113 -344 113 -565z" />
    <glyph glyph-name="ainThreedotsar" unicode="&#x6a0;" horiz-adv-x="1388" 
d="M551 2140l137 -139l-137 -139l-139 139zM410 1855l139 -137l-139 -141l-140 141zM829 1718l-139 -141l-139 141l139 137zM217 -12q0 -140 96 -236t248.5 -131.5t349 -15t389.5 99.5l-16 -182q-116 -46 -253.5 -72t-231.5 -26q-69 0 -134 6.5t-137 23.5t-133 43t-118 69.5
t-96.5 99.5t-63 134.5t-23.5 173.5q0 185 92.5 342.5t235.5 260.5q-122 44 -192.5 144t-69.5 224q1 120 64 217t162.5 149t211.5 52q65 0 138.5 -13.5t123.5 -39.5l-33 -162q-79 37 -221 37q-128 0 -217.5 -64t-89.5 -172q0 -78 43.5 -134t105 -80.5t130.5 -24.5
q40 0 78 5.5t94.5 23.5t85 28t114 44t117.5 46l-16 -166q-111 -37 -185 -64.5t-169.5 -68.5t-158 -79t-129 -91.5t-105 -110.5t-63 -131.5t-24.5 -158.5z" />
    <glyph glyph-name="fehDotlessar" unicode="&#x6a1;" horiz-adv-x="1906" 
d="M1227 0h-537q-306 0 -467.5 114.5t-161.5 329.5q0 155 66 336l147 -20q-63 -155 -63 -281q0 -155 117.5 -227.5t369.5 -71.5h500q329 3 428 170q-75 -4 -152.5 6t-156 37.5t-139 70.5t-98.5 112t-38 155t30 167.5t79.5 140.5t115 94.5t134.5 35.5q108 0 197.5 -80
t141.5 -220.5t52 -311.5q0 -248 -151.5 -397.5t-413.5 -159.5zM1661 516q10 112 -24.5 227.5t-103 192t-147.5 76.5q-90 0 -161.5 -74.5t-71.5 -177.5q0 -67 54 -118.5t134.5 -79t165 -39.5t154.5 -7z" />
    <glyph glyph-name="vehar" unicode="&#x6a4;" horiz-adv-x="1906" 
d="M1571 1860l-137 -140l-140 140l140 139zM1432 1577l-140 -141l-139 141l139 137zM1712 1577l-139 -141l-139 141l139 137zM1225 0h-537q-306 0 -467.5 114.5t-161.5 329.5q0 155 66 336l147 -20q-63 -155 -63 -281q0 -155 117.5 -227.5t369.5 -71.5h500q329 3 428 170
q-75 -4 -152.5 6t-156 37.5t-139 70.5t-98.5 112t-38 155t30 167.5t79.5 140.5t115 94.5t134.5 35.5q108 0 197.5 -80t141.5 -220.5t52 -311.5q0 -248 -151.5 -397.5t-413.5 -159.5zM1659 516q10 112 -24.5 227.5t-103 192t-147.5 76.5q-90 0 -161.5 -74.5t-71.5 -177.5
q0 -67 54 -118.5t134.5 -79t165 -39.5t154.5 -7z" />
    <glyph glyph-name="kehehar" unicode="&#x6a9;" horiz-adv-x="1552" 
d="M1634 1503l-49 -178q-153 -44 -359 -122t-349 -161q230 -142 377 -329.5t147 -356.5q0 -167 -124.5 -261.5t-361.5 -94.5h-268q-308 0 -449 113.5t-141 351.5q0 151 66 317h133q-20 -69 -29.5 -102.5t-18.5 -84.5t-9 -93q0 -163 112 -241.5t342 -78.5h277q338 0 338 166
q0 119 -142.5 288.5t-392.5 315.5q2 50 27 189q53 31 115 62.5t138 64t130.5 55.5t143.5 55.5t124 45.5t125.5 45t97.5 34z" />
    <glyph glyph-name="kafDotabovear" unicode="&#x6ac;" horiz-adv-x="1689" 
d="M895 1491l-137 -141l-140 141l140 137zM993 0h-354q-269 0 -407 116t-138 343q0 141 60 309l133 -45q-43 -111 -43 -236q0 -153 106 -229t295 -76h342q91 0 160 12.5t123.5 41t82 80t25.5 124.5l-41 1078l146 20l33 -1081q6 -233 -123 -345t-400 -112zM784 539h-168v131
l156 -2q176 0 176 67q0 44 -72 75t-227 58l4 158q152 114 324 180l-2 -135q-138 -49 -230 -108q72 -15 124.5 -33t96 -45t65.5 -65t22 -87q0 -90 -68.5 -142t-200.5 -52z" />
    <glyph glyph-name="gafar" unicode="&#x6af;" horiz-adv-x="1552" 
d="M778 1376l549 260v-110l-569 -262zM1634 1503l-49 -178q-153 -44 -359 -122t-349 -161q230 -142 377 -329.5t147 -356.5q0 -167 -124.5 -261.5t-361.5 -94.5h-268q-308 0 -449 113.5t-141 351.5q0 151 66 317h133q-20 -69 -29.5 -102.5t-18.5 -84.5t-9 -93
q0 -163 112 -241.5t342 -78.5h277q338 0 338 166q0 119 -142.5 288.5t-392.5 315.5q2 50 27 189q53 31 115 62.5t138 64t130.5 55.5t143.5 55.5t124 45.5t125.5 45t97.5 34z" />
    <glyph glyph-name="noonghunnaar" unicode="&#x6ba;" horiz-adv-x="1421" 
d="M664 -434q-287 0 -447 145.5t-160 394.5q0 119 29.5 231.5t71.5 188.5l135 -32q-88 -199 -88 -353q0 -184 120 -289.5t349 -105.5q227 0 358 98t131 277q0 106 -24.5 228.5t-71.5 301.5l143 41q95 -328 95 -545q0 -270 -172 -425.5t-469 -155.5z" />
    <glyph glyph-name="noonThreedotsabovear" unicode="&#x6bd;" horiz-adv-x="1421" 
d="M815 1067l-139 -139l-137 139l137 139zM674 784l-137 -141l-140 141l140 138zM954 784l-139 -141l-137 141l137 138zM662 -434q-287 0 -447 145.5t-160 394.5q0 119 29.5 231.5t71.5 188.5l135 -32q-88 -199 -88 -353q0 -184 120 -289.5t349 -105.5q227 0 358 98t131 277
q0 106 -24.5 228.5t-71.5 301.5l143 41q95 -328 95 -545q0 -270 -172 -425.5t-469 -155.5z" />
    <glyph glyph-name="hehDoachashmeear" unicode="&#x6be;" horiz-adv-x="1310" 
d="M258 924l33 151q43 -17 125 -50q130 -51 193.5 -77t168 -73.5t155.5 -79.5t118.5 -82.5t98.5 -97t54 -108t23 -130.5q0 -110 -46.5 -191.5t-125.5 -124t-178.5 -56t-210 8.5t-215.5 74q-183 -88 -451 -88h-2l-43 16v148l43 18q171 0 276 17q-72 55 -116.5 133.5
t-44.5 163.5q0 116 67.5 222t188.5 161q-10 4 -50 20.5t-61 24.5zM463 739q-103 0 -161 -69.5t-58 -163.5q0 -85 62 -162t157 -106q94 43 150.5 114.5t58.5 141.5q0 109 -54.5 177t-154.5 68zM645 195q117 -23 212 -16t155.5 57t60.5 135q0 200 -317 346q52 -99 49 -217
q-6 -192 -160 -305z" />
    <glyph glyph-name="hehgoalar" unicode="&#x6c1;" horiz-adv-x="1046" 
d="M496 -10q-190 0 -299 102t-109 279q0 283 369 569l37 70q204 -161 306 -310.5t101 -304.5q-2 -192 -106.5 -298.5t-298.5 -106.5zM496 166q135 0 204.5 58.5t69.5 166.5q0 55 -20.5 108t-63 106t-84.5 94.5t-108 99.5q-133 -108 -205 -207.5t-72 -202.5
q0 -104 74.5 -163.5t204.5 -59.5z" />
    <glyph glyph-name="hehgoalHamzaabovear" unicode="&#x6c2;" horiz-adv-x="1046" 
d="M723 1292v-98q-39 -6 -214 -16t-235 -21v94q83 13 103 15q-45 48 -45 123q0 78 60 132t143 54q70 0 122 -37v-96q-54 31 -114 31q-52 0 -86.5 -22t-34.5 -60q0 -83 108 -107q89 0 193 8zM457 940l37 70q204 -161 306 -310.5t101 -304.5q-2 -192 -106.5 -298.5
t-298.5 -106.5q-190 0 -299 102t-109 279q0 283 369 569zM496 166q135 0 204.5 58.5t69.5 166.5q0 55 -20.5 108t-63 106t-84.5 94.5t-108 99.5q-133 -108 -205 -207.5t-72 -202.5q0 -104 74.5 -163.5t204.5 -59.5z" />
    <glyph glyph-name="tehMarbutagoalar" unicode="&#x6c3;" horiz-adv-x="1046" 
d="M506 1270l-139 -142l-140 142l140 137zM786 1270l-139 -142l-139 142l139 137zM496 -10q-190 0 -299 102t-109 279q0 283 369 569l37 70q204 -161 306 -310.5t101 -304.5q-2 -192 -106.5 -298.5t-298.5 -106.5zM496 166q135 0 204.5 58.5t69.5 166.5q0 55 -20.5 108
t-63 106t-84.5 94.5t-108 99.5q-133 -108 -205 -207.5t-72 -202.5q0 -104 74.5 -163.5t204.5 -59.5z" />
    <glyph glyph-name="yehfarsi" unicode="&#x6cc;" horiz-adv-x="1572" 
d="M743 -434q-161 -4 -291 37t-215 119t-130.5 187t-45.5 241q0 93 30.5 207t76.5 200l123 -49q-44 -100 -62 -173t-18 -161q0 -213 142.5 -325t410.5 -103q111 4 212 29.5t170 63.5t109.5 85t40.5 94q0 50 -47.5 74t-220.5 75q-6 2 -9.5 3t-9 3t-10.5 3q-80 23 -129.5 43.5
t-96 54.5t-68 85.5t-21.5 123.5q0 127 64.5 228t171.5 161q127 73 272.5 73.5t234.5 -75.5l-30 -159q-71 52 -172.5 64.5t-192 -12.5t-155 -91t-64.5 -158q0 -63 53 -102q47 -33 114 -57.5t126 -37.5t120 -34t104.5 -46t71.5 -74t28 -118q0 -93 -50.5 -178t-139 -150.5
t-218 -106t-279.5 -44.5z" />
    <glyph glyph-name="wawDotabovear" unicode="&#x6cf;" horiz-adv-x="997" 
d="M512 1305l137 -138l-137 -141l-139 141zM530 780q160 0 266 -166.5t109 -431.5q-2 -147 -64.5 -273t-170 -217.5t-243.5 -155t-294 -97.5l-51 180q188 33 367 128t264 224q-101 -5 -198.5 16.5t-179 66.5t-131.5 123t-50 177q0 178 112.5 302t263.5 124zM276 375
q0 -88 78 -149t190 -82t228 -7q10 76 -4 160.5t-47 155.5t-89 117t-124 46q-91 0 -161.5 -69.5t-70.5 -171.5z" />
    <glyph glyph-name="yehbarreear" unicode="&#x6d2;" horiz-adv-x="1859" 
d="M387 0q-105 0 -178 31q-72 28 -111 86q-37 55 -37 129q0 80 39 172q45 88 109 170q58 75 145 145q66 59 154 105q65 36 135 36q72 0 115 -40q52 -40 88 -101l-25 -160q-47 59 -90 91q-50 32 -102 32q-51 0 -103 -28q-56 -26 -112 -76q-56 -45 -105 -103q-50 -50 -78 -108
q-28 -52 -28 -96q0 -54 47 -82q50 -27 137 -27h1358l-14 -176h-1344z" />
    <glyph glyph-name="yehbarreeHamzaabovear" unicode="&#x6d3;" horiz-adv-x="1859" 
d="M469 965v-99q-39 -6 -214 -16t-235 -21v95q70 11 103 14q-45 48 -45 123q0 78 60 132t143 54q70 0 122 -37v-96q-54 31 -114 31q-52 0 -86.5 -22t-34.5 -60q0 -83 108 -107q76 0 193 9zM387 176h1358l-14 -176h-1344q-105 0 -178 31q-72 28 -111 86q-37 55 -37 129
q0 80 39 172q45 88 109 170q58 75 145 145q66 59 154 105q65 36 135 36q72 0 115 -40q52 -40 88 -101l-25 -160q-47 59 -90 91q-50 32 -102 32q-51 0 -103 -28q-56 -26 -112 -76q-56 -45 -105 -103q-50 -50 -78 -108q-28 -52 -28 -96q0 -54 47 -82q50 -27 137 -27z" />
    <glyph glyph-name="fullstopar" unicode="&#x6d4;" horiz-adv-x="700" 
d="M170 16v148l45 18h707v-182h-707z" />
    <glyph glyph-name="sadLamAlefMaksuraabovear" unicode="&#x6d6;" 
d="M88 1391q0 -54 84 -54h950l-18 -102h-928q-73 0 -115.5 32.5t-42.5 88.5q0 83 74 167t160 105l-14 434l69 4l10 -432q2 -43 23.5 -68t60.5 -26q40 2 62 27.5t29 83.5l6 51l55 6v-53q0 -54 22.5 -81.5t73.5 -33.5h25q139 260 313 260q68 0 117 -55t49 -131
q0 -174 -252 -174h-256q-66 2 -98.5 34.5t-32.5 116.5q-4 -80 -33 -113t-86 -36h-6h-6q-54 3 -83.5 27t-39.5 75q-60 -9 -116 -58.5t-56 -94.5zM977 1706q-76 0 -135 -42t-125 -124h178q109 0 157 18.5t48 61.5q0 35 -36.5 60.5t-86.5 25.5z" />
    <glyph glyph-name="qafLamAlefMaksuraabovear" unicode="&#x6d7;" 
d="M174 1337h625l-19 -102h-602q-73 0 -115.5 32.5t-42.5 88.5q0 83 74 167t160 105l-14 434l69 4l10 -432q3 -94 107 -94h76q89 3 114 68q-82 -19 -140 7t-58 103q0 59 38 107.5t97 48.5q61 0 98 -60t37 -149q4 -102 -49 -161.5t-133 -61.5h-94q-122 0 -148 102
q-62 -9 -118 -58t-56 -95q0 -54 84 -54zM485 2060l56 -55l-56 -55l-53 55zM596 2060l53 -55l-53 -55l-55 55zM471 1737q0 -36 47 -49.5t103 -6.5q-1 53 -26.5 83t-57.5 30q-21 0 -43.5 -18t-22.5 -39z" />
    <glyph glyph-name="meemabovear" unicode="&#x6d8;" 
d="M735 1894q61 0 107.5 -64t46.5 -138q0 -68 -33.5 -115t-95.5 -47q-108 0 -176 86q-12 -50 -27 -72q-32 -50 -91.5 -94.5t-176.5 -85.5l-21 59q227 134 267 242q1 4 4 11.5t4 11.5q50 122 96 164t96 42zM762 1626q72 0 72 53q0 48 -30.5 88.5t-68.5 40.5q-33 0 -69.5 -31
t-55.5 -81q30 -35 72 -52.5t80 -17.5z" />
    <glyph glyph-name="jeemabovear" unicode="&#x6da;" 
d="M496 1376q0 -72 59.5 -115.5t153.5 -43.5q122 0 235 59v-27l-12 -71q-17 -10 -42.5 -21t-78 -23t-106.5 -12q-126 0 -202.5 66.5t-76.5 181.5q0 121 80 203.5t221 118.5l-29 12q-86 39 -142 42t-116 -30l17 94q36 20 70 26.5t72 -3.5t60.5 -19t65.5 -30q45 -23 71 -34.5
t69 -20.5t83 -3l-10 -88q-193 -9 -317.5 -79t-124.5 -183zM791 1417l-70 -71l-70 71l70 70z" />
    <glyph glyph-name="threedotsabovear" unicode="&#x6db;" 
d="M606 1665l-139 -141l-137 141l137 137zM371 1266l-140 -142l-137 142l137 137zM842 1266l-140 -142l-137 142l137 137z" />
    <glyph glyph-name="seenabovear" unicode="&#x6dc;" 
d="M1210 1696l72 12q25 -55 25 -135q0 -75 -32.5 -115.5t-96.5 -40.5q-89 0 -113 90q-10 -46 -37 -67t-74 -23q-24 0 -39 6q-17 -76 -74.5 -118.5t-144.5 -42.5q-103 0 -162 55.5t-59 150.5q0 67 31 140l80 -21q-27 -62 -27 -102q0 -58 39.5 -90.5t110.5 -32.5
q29 0 60.5 8.5t59 32.5t27.5 59q0 80 -39 178l70 13q26 -77 31 -117q19 -16 49 -16q41 0 55.5 19t19.5 63l5 40l65 7v-45q0 -84 66 -84q57 0 57 63q0 33 -25 113z" />
    <glyph glyph-name="sukunovalar" unicode="&#x6e0;" 
d="M743 1550q0 83 48.5 149t123.5 66t123.5 -66t48.5 -149q-5 -87 -49.5 -152t-122.5 -65q-76 0 -121.5 65.5t-50.5 151.5zM825 1550q0 -34 3 -59.5t11 -53t27.5 -42.5t48.5 -15t49 15.5t29.5 41.5t13.5 54t3 59q2 70 -19.5 120.5t-75.5 49.5q-28 1 -47.5 -14.5t-28 -43
t-11.5 -53.5t-3 -59z" />
    <glyph glyph-name="hahabovear" unicode="&#x6e1;" 
d="M57 1585l13 103q41 17 91.5 19t89.5 -3.5t99 -26t88.5 -32.5t89.5 -39l-16 -66q-28 -26 -40.5 -37t-51 -42.5t-65 -47t-69.5 -36t-78 -26.5t-78 -2t-81 23v47q53 1 102.5 12.5t100 36t74.5 39t73 45.5q-69 26 -118 39t-109.5 13.5t-114.5 -19.5z" />
    <glyph glyph-name="meemStopabovear" unicode="&#x6e2;" 
d="M1008 1843q67 0 110 -56t43 -136q0 -71 -47.5 -109.5t-126.5 -32.5q-21 1 -57 9.5t-60.5 12.5t-50.5 2t-39.5 -22t-13.5 -59q0 -135 16 -348l-90 -12q-3 80 -8 196t-6 154q-2 102 31 149.5t106 44.5q23 92 73.5 149.5t119.5 57.5zM1001 1608q82 0 82 59q0 30 -22 55
t-53 25q-41 0 -76.5 -32t-48.5 -89q88 -18 118 -18z" />
    <glyph glyph-name="maddalongar" unicode="&#x6e4;" 
d="M1075 1640h-667v115h667v-115z" />
    <glyph glyph-name="wawSmallar" unicode="&#x6e5;" horiz-adv-x="759" 
d="M387 750q67 0 117.5 -80.5t52.5 -188.5q-2 -141 -90 -274t-229 -178l-27 90q202 96 256 264q-108 -12 -180 32t-72 130q0 84 53 144.5t119 60.5zM270 553q0 -27 35 -51t85.5 -32.5t105.5 3.5q-7 65 -42 123.5t-83 58.5q-38 0 -69.5 -30t-31.5 -72z" />
    <glyph glyph-name="yehSmallar" unicode="&#x6e6;" horiz-adv-x="1083" 
d="M330 2q-170 0 -170 121q0 29 14.5 54t31.5 39t51 39.5t52 41.5q15 14 41 49.5t47.5 57.5t40.5 22q35 0 54 -36t17 -83.5t-22 -81.5q-4 35 -13 56t-23 25t-28 1.5t-32.5 -16.5t-31.5 -25.5t-31 -29.5t-46.5 -37.5t-42.5 -33t-14 -28.5q0 -33 103 -33h594l-25 -102h-567z
" />
    <glyph glyph-name="yehabovear" unicode="&#x6e7;" 
d="M199 1235q-170 0 -170 121q0 29 14.5 54t31.5 39t51 39.5t52 41.5q15 14 41 49.5t47.5 57.5t40.5 22q35 0 54 -36t17 -83.5t-22 -81.5q-4 35 -13 56t-23 24.5t-27.5 1t-32.5 -16.5t-32 -25.5t-31 -29.5q-19 -19 -47 -38t-42 -32t-14 -28q0 -33 103 -33h594l-25 -102h-567
z" />
    <glyph glyph-name="noonabovear" unicode="&#x6e8;" 
d="M879 1794l-78 -80l-80 80l80 80zM1022 1511q0 -105 -57.5 -164t-163.5 -59q-102 0 -158.5 52.5t-56.5 142.5q0 77 30 149l82 -2q-26 -67 -26 -121q0 -108 133 -108q62 0 96.5 25.5t34.5 72.5q0 63 -31 168l86 23q31 -108 31 -179z" />
    <glyph glyph-name="rhombusStopbelowar" unicode="&#x6ea;" 
d="M127 -252q-53 0 -90 36.5t-37 88.5q0 53 37 90t90 37t90 -37t37 -90q0 -52 -37 -88.5t-90 -36.5z" />
    <glyph glyph-name="meembelowar" unicode="&#x6ed;" 
d="M809 168q67 0 110.5 -56.5t43.5 -136.5q0 -70 -47.5 -108.5t-127.5 -32.5q-21 1 -57 9t-60.5 12t-50.5 2t-39.5 -22t-13.5 -58q0 -124 17 -348l-90 -13q-3 82 -8.5 197.5t-6.5 153.5q-2 102 31 148.5t106 45.5q23 92 73.5 149.5t119.5 57.5zM803 -70q82 0 82 62
q0 30 -22.5 55t-53.5 25q-41 0 -76.5 -32t-48.5 -89q10 -2 29.5 -6.5t32 -7t29 -5t28.5 -2.5z" />
    <glyph glyph-name="kehehDotabovear" unicode="&#x762;" horiz-adv-x="1552" 
d="M915 1688l103 -105l-103 -104l-104 104zM1634 1503l-49 -178q-153 -44 -359 -122t-349 -161q230 -142 377 -329.5t147 -356.5q0 -167 -124.5 -261.5t-361.5 -94.5h-268q-308 0 -449 113.5t-141 351.5q0 151 66 317h133q-20 -69 -29.5 -102.5t-18.5 -84.5t-9 -93
q0 -163 112 -241.5t342 -78.5h277q338 0 338 166q0 119 -142.5 288.5t-392.5 315.5q2 50 27 189q53 31 115 62.5t138 64t130.5 55.5t143.5 55.5t124 45.5t125.5 45t97.5 34z" />
    <glyph glyph-name="fehDotbelowThreedotsabovear" unicode="&#x8a4;" horiz-adv-x="1906" 
d="M1425 1587l-139 -141l-139 141l139 137zM1706 1587l-139 -141l-140 141l140 137zM1225 0h-537q-306 0 -467.5 114.5t-161.5 329.5q0 155 66 336l147 -20q-63 -155 -63 -281q0 -155 117.5 -227.5t369.5 -71.5h500q329 3 428 170q-75 -4 -152.5 6t-156 37.5t-139 70.5
t-98.5 112t-38 155t30 167.5t79.5 140.5t115 94.5t134.5 35.5q108 0 197.5 -80t141.5 -220.5t52 -311.5q0 -248 -151.5 -397.5t-413.5 -159.5zM1659 516q10 112 -24.5 227.5t-103 192t-147.5 76.5q-90 0 -161.5 -74.5t-71.5 -177.5q0 -67 54 -118.5t134.5 -79t165 -39.5
t154.5 -7zM1360 -346l-137 -141l-140 141l140 137z" />
    <glyph glyph-name="zerowidthnonjoiner" unicode="&#x200c;" horiz-adv-x="77" 
d="M78 1718v-2115h-78v2115h78z" />
    <glyph glyph-name="zerowidthjoiner" unicode="&#x200d;" horiz-adv-x="71" 
d="M88 1501l168 -168l-47 -49l-137 133v-1814h-72v1814l-135 -133l-47 49l168 168q-7 7 -47.5 47t-74.5 74t-46 47l47 55l174 -174l170 174l47 -55z" />
    <glyph glyph-name="lefttorightmark" unicode="&#x200e;" horiz-adv-x="77" 
d="M268 1718l217 -225l-217 -219l-53 53l127 137h-264v-1861h-78v1937h340l-125 127z" />
    <glyph glyph-name="righttoleftmark" unicode="&#x200f;" horiz-adv-x="77" 
d="M78 1540v-1937h-78v1861h-268l131 -137l-56 -53l-215 219l215 225l56 -51l-127 -127h342z" />
    <glyph glyph-name="endash" unicode="&#x2013;" horiz-adv-x="1110" 
d="M967 670v-127h-824v127h824z" />
    <glyph glyph-name="emdash" unicode="&#x2014;" horiz-adv-x="1654" 
d="M1511 670v-127h-1368v127h1368z" />
    <glyph glyph-name="quoteleft" unicode="&#x2018;" horiz-adv-x="559" 
d="M391 1331q0 -82 -31 -162t-81 -141t-106.5 -106t-113.5 -70l-82 76q119 58 197.5 150.5t87.5 181.5q-84 -20 -138 17.5t-54 111.5q0 71 42.5 114t110.5 43q73 0 120.5 -55.5t47.5 -159.5z" />
    <glyph glyph-name="quoteright" unicode="&#x2019;" horiz-adv-x="559" 
d="M133 1114q0 66 20.5 131t54.5 118t77.5 99t89 78t90.5 51l82 -75q-118 -58 -197 -150.5t-90 -181.5q84 20 139.5 -17.5t55.5 -111.5q0 -71 -43.5 -114.5t-110.5 -43.5q-73 0 -120.5 56t-47.5 161z" />
    <glyph glyph-name="quotesinglbase" unicode="&#x201a;" horiz-adv-x="452" 
d="M201 -229h-113l70 499h170z" />
    <glyph glyph-name="quotedblleft" unicode="&#x201c;" horiz-adv-x="823" 
d="M229 1507h111l-68 -499h-172zM588 1507h112l-69 -499h-170z" />
    <glyph glyph-name="quotedblright" unicode="&#x201d;" horiz-adv-x="796" 
d="M217 1008h-113l68 497h172zM559 1008h-113l70 497h170z" />
    <glyph glyph-name="quotedblbase" unicode="&#x201e;" horiz-adv-x="796" 
d="M201 -229h-113l70 499h170zM545 -229h-113l68 499h172z" />
    <glyph glyph-name="bullet" unicode="&#x2022;" horiz-adv-x="1159" 
d="M582 238q-117 0 -200 82t-83 196q0 117 83 200t200 83q115 0 196.5 -83t81.5 -200q0 -114 -81.5 -196t-196.5 -82z" />
    <glyph glyph-name="ellipsis" unicode="&#x2026;" horiz-adv-x="1071" 
d="M283 309q68 0 115.5 -47.5t47.5 -114.5q0 -69 -47.5 -117t-115.5 -48t-115 48t-47 117q0 67 47.5 114.5t114.5 47.5z" />
    <glyph glyph-name="guilsinglleft" unicode="&#x2039;" horiz-adv-x="647" 
d="M86 553l268 403h170l-288 -399l307 -399h-166z" />
    <glyph glyph-name="guilsinglright" unicode="&#x203a;" horiz-adv-x="647" 
d="M129 956h168l268 -403l-289 -395h-167l309 399z" />
    <glyph glyph-name="parenleftar" unicode="&#xfd3e;" horiz-adv-x="905" 
d="M788 -285l-94 -82q-249 270 -350 588h-94l94 94q-89 38 -125 138l-100 -107v385l102 -108q31 96 133 133l-106 104h94q94 315 346 588l103 -74q-180 -245 -250 -514h88l-105 -106q97 -34 125 -131l107 106v-381l-105 105q-23 -96 -121 -136l97 -96h-80q72 -274 241 -506z
M438 410q51 0 90 39q35 38 35 86t-35 92q-41 35 -90 35t-90 -35q-37 -43 -37 -92t37 -86q36 -39 90 -39z" />
    <glyph glyph-name="parenrightar" unicode="&#xfd3f;" horiz-adv-x="905" 
d="M211 -367l-96 82q172 236 243 506h-79l96 96q-101 41 -121 136l-107 -105v381l107 -106q31 98 127 131l-105 106h89q-75 276 -250 514l102 74q254 -278 346 -588h94l-106 -104q101 -37 131 -133l102 108v-385l-100 107q-33 -100 -123 -138l92 -94h-92
q-100 -313 -350 -588zM467 410q54 0 90 39q35 35 35 86t-35 92q-41 35 -90 35t-90 -35q-35 -41 -35 -92t35 -86q39 -39 90 -39z" />
    <glyph glyph-name="NULL" horiz-adv-x="307" 
 />
    <glyph glyph-name="Q.ss01" horiz-adv-x="1642" 
d="M1260 133h374v-156h-805h-10q-207 0 -372.5 97.5t-257 267.5t-91.5 379q0 150 55 286.5t149.5 236.5t229.5 159t287 59q154 0 288.5 -58t228 -157t147 -235.5t53.5 -290.5q0 -175 -73.5 -329.5t-202.5 -258.5zM276 721q0 -257 154.5 -419.5t388.5 -162.5q108 0 207.5 44
t173 120.5t117.5 185.5t43 232q-1 166 -73.5 298.5t-196 205.5t-273.5 73q-149 0 -273 -74.5t-196 -207t-72 -295.5z" />
    <glyph glyph-name="T.y" horiz-adv-x="1206" 
d="M27 1440h1046l74 -154h-457v-1286h-174v1286h-489v154z" />
    <glyph glyph-name="alefar.fina.fathatan1" horiz-adv-x="540" 
d="M539 182v-182q-383 0 -394 352l-24 733l145 21l23 -705q6 -129 66 -174t184 -45z" />
    <glyph glyph-name="alefar.fina.fathatan2" horiz-adv-x="997" 
d="M539 182h458v-182h-462q-382 3 -390 352l-26 887l145 21l25 -859q4 -128 64.5 -173.5t185.5 -45.5z" />
    <glyph glyph-name="alefar.short" horiz-adv-x="479" 
d="M305 0h-135l-43 1315l145 20z" />
    <glyph glyph-name="alefar.fina.short" horiz-adv-x="567" 
d="M563 182v-182q-379 0 -393 352l-41 963l145 20l39 -934q6 -129 66 -174t184 -45z" />
    <glyph glyph-name="behDotlessar.001" horiz-adv-x="1785" 
d="M1671 473q0 -232 -139 -352.5t-451 -120.5h-432q-309 0 -450.5 114t-141.5 351q0 73 22 164.5t52 163.5l125 -27q-44 -144 -51 -200q-4 -32 -4 -64q0 -163 112 -241.5t342 -78.5h428q232 0 339.5 69t107.5 212q0 56 -15.5 125.5t-31 113.5t-56.5 158l138 33
q52 -130 79 -227t27 -193z" />
    <glyph glyph-name="behDotlessar.swsh" horiz-adv-x="3459" 
d="M3125 883l137 35q82 -239 82 -394q0 -117 -72 -215t-200.5 -167t-302.5 -120t-382.5 -77t-436 -35.5t-466.5 2.5t-471 39t-453 71t-408 101l-91 201q174 -64 406 -113.5t484 -80t519.5 -41t515.5 -1.5t470.5 43.5t387 88.5t261 138.5t96.5 190.5q0 127 -76 334z" />
    <glyph glyph-name="behDotlessar.fina.swsh" horiz-adv-x="3598" 
d="M3338 616v-202q0 -72 16.5 -119t52.5 -71t80 -33t111 -9v-182q-55 0 -101.5 7t-92 26t-79 48.5t-58 78t-33.5 112.5q-106 -124 -317 -210t-474.5 -126t-571 -49t-611.5 15.5t-591.5 75t-514.5 122.5l-93 217q215 -81 523 -139t638.5 -85t667 -18.5t610.5 51.5
t467.5 135.5t239.5 223.5l12 111z" />
    <glyph glyph-name="behDotlessar.medi.alt" horiz-adv-x="1222" 
d="M958 612v-196q0 -73 17.5 -120.5t54.5 -71.5t82 -33t113 -9v-182q-293 0 -351 195q-29 -93 -108.5 -142.5t-196.5 -52.5h-571l-45 16v148l45 18h553q63 0 104 8.5t77 33t56.5 71.5t28.5 121l21 176z" />
    <glyph glyph-name="behDotlessar.init.alt" horiz-adv-x="1148" 
d="M975 395q0 -188 -105.5 -291t-298.5 -104h-569l-45 16v148l45 18h565q271 0 271 211q0 126 -78 398l137 30q34 -92 56 -208.5t22 -217.5z" />
    <glyph glyph-name="behar.swsh" horiz-adv-x="3459" 
d="M3123 883l137 35q82 -239 82 -394q0 -117 -72 -215t-200.5 -167t-302.5 -120t-382.5 -77t-436 -35.5t-466.5 2.5t-471 39t-453 71t-408 101l-91 201q174 -64 406 -113.5t484 -80t519.5 -41t515.5 -1.5t470.5 43.5t387 88.5t261 138.5t96.5 190.5q0 127 -76 334z
M1976 -530l-137 -142l-139 142l139 137z" />
    <glyph glyph-name="behar.fina.swsh" horiz-adv-x="3598" 
d="M3338 616v-202q0 -72 16.5 -119t52.5 -71t80 -33t111 -9v-182q-55 0 -101.5 7t-92 26t-79 48.5t-58 78t-33.5 112.5q-106 -124 -317 -210t-474.5 -126t-571 -49t-611.5 15.5t-591.5 75t-514.5 122.5l-93 217q215 -81 523 -139t638.5 -85t667 -18.5t610.5 51.5
t467.5 135.5t239.5 223.5l12 111zM1968 -668l-139 142l139 137l137 -137z" />
    <glyph glyph-name="behar.medi.alt" horiz-adv-x="1222" 
d="M958 612v-196q0 -73 17.5 -120.5t54.5 -71.5t82 -33t113 -9v-182q-293 0 -351 195q-29 -93 -108.5 -142.5t-196.5 -52.5h-571l-45 16v148l45 18h553q63 0 104 8.5t77 33t56.5 71.5t28.5 121l21 176zM594 -594l-139 141l139 138l137 -138z" />
    <glyph glyph-name="behar.init.Alt" horiz-adv-x="1148" 
d="M760 791l137 30q34 -92 56 -208.5t22 -217.5q0 -188 -105.5 -291t-298.5 -104h-569l-45 16v148l45 18h565q271 0 271 211q0 126 -78 398zM475 -410l-139 142l139 137l137 -137z" />
    <glyph glyph-name="behar.init.alt" horiz-adv-x="583" 
d="M193 791l137 30q34 -93 57 -209.5t23 -216.5q0 -189 -107 -292t-301 -103h-2l-43 16v148l43 18q137 0 203.5 52.5t66.5 158.5q0 129 -77 398zM35 -422l-139 141l139 138l139 -138z" />
    <glyph glyph-name="behar.init.waw" horiz-adv-x="583" 
d="M193 791l137 30q34 -93 57 -209.5t23 -216.5q0 -189 -107 -292t-301 -103h-2l-43 16v148l43 18q137 0 203.5 52.5t66.5 158.5q0 129 -77 398zM84 -422l-139 139l139 140l137 -140z" />
    <glyph glyph-name="alefMaksuraar.medi.alt" horiz-adv-x="1222" 
d="M958 612v-196q0 -73 17.5 -120.5t54.5 -71.5t82 -33t113 -9v-182q-293 0 -351 195q-29 -93 -108.5 -142.5t-196.5 -52.5h-571l-45 16v148l45 18h553q63 0 104 8.5t77 33t56.5 71.5t28.5 121l21 176z" />
    <glyph glyph-name="alefMaksuraar.init.alt" horiz-adv-x="1148" 
d="M975 395q0 -188 -105.5 -291t-298.5 -104h-569l-45 16v148l45 18h565q271 0 271 211q0 126 -78 398l137 30q34 -92 56 -208.5t22 -217.5z" />
    <glyph glyph-name="tehar.swsh" horiz-adv-x="3459" 
d="M1776 1081l-140 -141l-139 141l139 138zM2056 1081l-139 -141l-139 141l139 138zM3123 883l137 35q82 -239 82 -394q0 -117 -72 -215t-200.5 -167t-302.5 -120t-382.5 -77t-436 -35.5t-466.5 2.5t-471 39t-453 71t-408 101l-91 201q174 -64 406 -113.5t484 -80t519.5 -41
t515.5 -1.5t470.5 43.5t387 88.5t261 138.5t96.5 190.5q0 127 -76 334z" />
    <glyph glyph-name="tehar.fina.swsh" horiz-adv-x="3598" 
d="M1706 1118l139 -137l-139 -141l-139 141zM1987 1118l139 -137l-139 -141l-140 141zM3338 616v-202q0 -72 16.5 -119t52.5 -71t80 -33t111 -9v-182q-55 0 -101.5 7t-92 26t-79 48.5t-58 78t-33.5 112.5q-106 -124 -317 -210t-474.5 -126t-571 -49t-611.5 15.5t-591.5 75
t-514.5 122.5l-93 217q215 -81 523 -139t638.5 -85t667 -18.5t610.5 51.5t467.5 135.5t239.5 223.5l12 111z" />
    <glyph glyph-name="tehar.medi.alt" horiz-adv-x="1222" 
d="M721 1200l139 -137l-139 -141l-137 141zM1001 1200l140 -137l-140 -141l-139 141zM958 612v-196q0 -73 17.5 -120.5t54.5 -71.5t82 -33t113 -9v-182q-293 0 -351 195q-29 -93 -108.5 -142.5t-196.5 -52.5h-571l-45 16v148l45 18h553q63 0 104 8.5t77 33t56.5 71.5
t28.5 121l21 176z" />
    <glyph glyph-name="tehar.init.alef" horiz-adv-x="614" 
d="M78 1237l139 -139l-139 -142l-137 142zM358 1237l140 -139l-140 -142l-139 142zM193 791l137 30q34 -93 57 -209.5t23 -216.5q0 -189 -107 -292t-301 -103h-2l-43 16v148l43 18q137 0 203.5 52.5t66.5 158.5q0 129 -77 398z" />
    <glyph glyph-name="tehar.init.alt" horiz-adv-x="1148" 
d="M672 1206l139 -137l-139 -141l-140 141zM952 1206l140 -137l-140 -141l-139 141zM760 791l137 30q34 -92 56 -208.5t22 -217.5q0 -188 -105.5 -291t-298.5 -104h-569l-45 16v148l45 18h565q271 0 271 211q0 126 -78 398z" />
    <glyph glyph-name="tehar.init.kaf" horiz-adv-x="624" 
d="M139 1282l137 -139l-137 -139l-139 139zM281 1143l137 139l139 -139l-139 -139zM193 791l137 30q34 -93 57 -209.5t23 -216.5q0 -189 -107 -292t-301 -103h-2l-43 16v148l43 18q137 0 203.5 52.5t66.5 158.5q0 129 -77 398z" />
    <glyph glyph-name="thehar.swsh" horiz-adv-x="3459" 
d="M1921 1356l-137 -139l-139 139l139 139zM1782 1073l-140 -141l-139 141l139 137zM2062 1073l-139 -141l-139 141l139 137zM3123 883l137 35q82 -239 82 -394q0 -117 -72 -215t-200.5 -167t-302.5 -120t-382.5 -77t-436 -35.5t-466.5 2.5t-471 39t-453 71t-408 101
l-91 201q174 -64 406 -113.5t484 -80t519.5 -41t515.5 -1.5t470.5 43.5t387 88.5t261 138.5t96.5 190.5q0 127 -76 334z" />
    <glyph glyph-name="thehar.fina.swsh" horiz-adv-x="3598" 
d="M1853 1393l138 -140l-138 -139l-139 139zM1712 1108l139 -137l-139 -142l-139 142zM2132 971l-139 -142l-140 142l140 137zM3338 616v-202q0 -72 16.5 -119t52.5 -71t80 -33t111 -9v-182q-55 0 -101.5 7t-92 26t-79 48.5t-58 78t-33.5 112.5q-106 -124 -317 -210
t-474.5 -126t-571 -49t-611.5 15.5t-591.5 75t-514.5 122.5l-93 217q215 -81 523 -139t638.5 -85t667 -18.5t610.5 51.5t467.5 135.5t239.5 223.5l12 111z" />
    <glyph glyph-name="thehar.medi.alt" horiz-adv-x="1222" 
d="M868 1477l138 -140l-138 -139l-139 139zM727 1192l139 -137l-139 -142l-139 142zM1147 1055l-139 -142l-140 142l140 137zM958 612v-196q0 -73 17.5 -120.5t54.5 -71.5t82 -33t113 -9v-182q-293 0 -351 195q-29 -93 -108.5 -142.5t-196.5 -52.5h-571l-45 16v148l45 18
h553q63 0 104 8.5t77 33t56.5 71.5t28.5 121l21 176z" />
    <glyph glyph-name="thehar.init.alef" horiz-adv-x="604" 
d="M213 1511l137 -137l-137 -141l-139 141zM72 1229l139 -139l-139 -140l-138 140zM492 1090l-140 -140l-139 140l139 139zM193 791l137 30q34 -93 57 -209.5t23 -216.5q0 -189 -107 -292t-301 -103h-2l-43 16v148l43 18q137 0 203.5 52.5t66.5 158.5q0 129 -77 398z" />
    <glyph glyph-name="thehar.init.alt" horiz-adv-x="1148" 
d="M819 1483l137 -140l-137 -139l-139 139zM678 1198l139 -137l-139 -141l-139 141zM1098 1061l-140 -141l-139 141l139 137zM760 791l137 30q34 -92 56 -208.5t22 -217.5q0 -188 -105.5 -291t-298.5 -104h-569l-45 16v148l45 18h565q271 0 271 211q0 126 -78 398z" />
    <glyph glyph-name="thehar.init.kaf" horiz-adv-x="622" 
d="M281 1559l139 -140l-139 -139l-138 139zM141 1276l140 -139l-140 -142l-139 142zM283 1137l139 139l137 -139l-137 -142zM193 791l137 30q34 -93 57 -209.5t23 -216.5q0 -189 -107 -292t-301 -103h-2l-43 16v148l43 18q137 0 203.5 52.5t66.5 158.5q0 129 -77 398z" />
    <glyph glyph-name="jeemar.medi.alt" horiz-adv-x="2162" 
d="M1772 389q25 -104 129.5 -155.5t261.5 -51.5v-182q-226 0 -355 91t-155 249q-50 -25 -174 -92q-183 -96 -240 -121q-247 -109 -551 -124q-57 -3 -117 -3h-569l-45 16v148l45 18h565q73 0 144.5 5t130 11.5t124.5 21.5t110 25.5t107 33t95 34t95 39.5t86 39t88 42t83 40
q-132 34 -274 102q-87 39 -163.5 63.5t-164.5 39t-176.5 3t-171.5 -49.5l25 166q90 38 179.5 50t175.5 -2.5t160 -40t160 -67.5q163 -78 308 -122t315 -44l-27 -151q-98 3 -204 -31zM1319 -479l-139 141l139 137l137 -137z" />
    <glyph glyph-name="jeemar.init.alt" horiz-adv-x="2078" 
d="M1378 737q163 -78 308 -122t315 -44l-27 -151q-48 1 -97.5 -7t-86 -18t-86 -31.5t-75.5 -34.5t-79 -41.5t-73 -39.5q-183 -96 -240 -121q-247 -109 -551 -124q-57 -3 -117 -3h-569l-45 16v148l45 18h565q73 0 144.5 5t130 11.5t124.5 21.5t110 25.5t107 33t95 34t95 39.5
t86 39t88 42t83 40q-132 34 -274 102q-87 39 -163.5 63.5t-164.5 39t-176.5 3t-171.5 -49.5l24 166q90 38 179.5 50t175.5 -2.5t160.5 -40t160.5 -67.5zM1321 -479l-139 141l139 137l137 -137z" />
    <glyph glyph-name="hahar.medi.alt" horiz-adv-x="2162" 
d="M1772 389q25 -104 129.5 -155.5t261.5 -51.5v-182q-226 0 -355 91t-155 249q-50 -25 -174 -92q-183 -96 -240 -121q-247 -109 -551 -124q-57 -3 -117 -3h-569l-45 16v148l45 18h565q73 0 144.5 5t130 11.5t124.5 21.5t110 25.5t107 33t95 34t95 39.5t86 39t88 42t83 40
q-132 34 -274 102q-87 39 -163.5 63.5t-164.5 39t-176.5 3t-171.5 -49.5l25 166q90 38 179.5 50t175.5 -2.5t160 -40t160 -67.5q163 -78 308 -122t315 -44l-27 -151q-98 3 -204 -31z" />
    <glyph glyph-name="hahar.init.alt" horiz-adv-x="2078" 
d="M1380 737q163 -78 308 -122t315 -44l-27 -151q-48 1 -97.5 -7t-86 -18t-86 -31.5t-75.5 -34.5t-79 -41.5t-73 -39.5q-183 -96 -240 -121q-247 -109 -551 -124q-57 -3 -117 -3h-569l-45 16v148l45 18h565q73 0 144.5 5t130 11.5t124.5 21.5t110 25.5t107 33t95 34t95 39.5
t86 39t88 42t83 40q-132 34 -274 102q-87 39 -163.5 63.5t-164.5 39t-176.5 3t-171.5 -49.5l25 166q90 38 179.5 50t175.5 -2.5t160 -40t160 -67.5z" />
    <glyph glyph-name="khahar.medi.alt" horiz-adv-x="2162" 
d="M1339 1399l138 -137l-138 -142l-139 142zM1772 389q25 -104 129.5 -155.5t261.5 -51.5v-182q-226 0 -355 91t-155 249q-50 -25 -174 -92q-183 -96 -240 -121q-247 -109 -551 -124q-57 -3 -117 -3h-569l-45 16v148l45 18h565q73 0 144.5 5t130 11.5t124.5 21.5t110 25.5
t107 33t95 34t95 39.5t86 39t88 42t83 40q-132 34 -274 102q-87 39 -163.5 63.5t-164.5 39t-176.5 3t-171.5 -49.5l25 166q90 38 179.5 50t175.5 -2.5t160 -40t160 -67.5q163 -78 308 -122t315 -44l-27 -151q-98 3 -204 -31z" />
    <glyph glyph-name="khahar.init.alt" horiz-adv-x="2078" 
d="M1339 1399l138 -137l-138 -142l-139 142zM1378 737q163 -78 308 -122t315 -44l-27 -151q-48 1 -97.5 -7t-86 -18t-86 -31.5t-75.5 -34.5t-79 -41.5t-73 -39.5q-183 -96 -240 -121q-247 -109 -551 -124q-57 -3 -117 -3h-569l-45 16v148l45 18h565q73 0 144.5 5t130 11.5
t124.5 21.5t110 25.5t107 33t95 34t95 39.5t86 39t88 42t83 40q-132 34 -274 102q-87 39 -163.5 63.5t-164.5 39t-176.5 3t-171.5 -49.5l24 166q90 38 179.5 50t175.5 -2.5t160.5 -40t160.5 -67.5z" />
    <glyph glyph-name="dalar.alt" horiz-adv-x="1218" 
d="M139 207l58 133q76 -93 173 -131.5t226 -38.5q164 0 248 49.5t84 145.5q0 109 -98 271.5t-261 342.5l109 129q385 -437 385 -731q0 -190 -120 -290.5t-361 -100.5q-168 0 -278.5 61t-164.5 160z" />
    <glyph glyph-name="dalar.fina.alt" horiz-adv-x="1314" 
d="M90 205l62 139q69 -97 163.5 -138.5t229.5 -41.5q147 0 237 55t97 154l-197 602l143 63l205 -620q42 -131 103.5 -183.5t181.5 -52.5v-182q-99 0 -168.5 30t-111 79.5t-81.5 134.5q-39 -127 -147 -194.5t-281 -67.5q-167 0 -274 63.5t-162 159.5z" />
    <glyph glyph-name="thalar.alt" horiz-adv-x="1218" 
d="M786 1440l-137 -142l-139 142l139 137zM139 207l58 133q76 -93 173 -131.5t226 -38.5q164 0 248 49.5t84 145.5q0 109 -98 271.5t-261 342.5l109 129q385 -437 385 -731q0 -190 -120 -290.5t-361 -100.5q-168 0 -278.5 61t-164.5 160z" />
    <glyph glyph-name="thalar.fina.alt" horiz-adv-x="1314" 
d="M848 1315l-137 -141l-140 141l140 137zM90 205l62 139q69 -97 163.5 -138.5t229.5 -41.5q147 0 237 55t97 154l-197 602l143 63l205 -620q42 -131 103.5 -183.5t181.5 -52.5v-182q-99 0 -168.5 30t-111 79.5t-81.5 134.5q-39 -127 -147 -194.5t-281 -67.5
q-167 0 -274 63.5t-162 159.5z" />
    <glyph glyph-name="rehar.ain" horiz-adv-x="739" 
d="M631 205q0 -118 -38.5 -226.5t-106.5 -191t-169.5 -131.5t-220.5 -49q-54 0 -117.5 13t-97.5 30l10 151q91 -12 162 -12q104 0 189 35.5t138.5 94t82.5 131t29 149.5q0 103 -27.5 225t-89.5 330l137 45q119 -362 119 -594z" />
    <glyph glyph-name="rehar.alt" horiz-adv-x="825" 
d="M713 174q0 -123 -35 -229.5t-96.5 -187t-149 -144t-188.5 -105.5t-219 -67l-56 174q77 15 156.5 45t160 79t143 109.5t101.5 142.5t39 171q0 103 -25.5 215t-86.5 319l145 43q111 -348 111 -565z" />
    <glyph glyph-name="rehar.narrow" horiz-adv-x="704" 
d="M598 174q0 -125 -42.5 -235.5t-118.5 -195.5t-172.5 -149.5t-213.5 -109.5l-57 170q70 26 133.5 60t125 81.5t106.5 101.5t72.5 122.5t27.5 142.5q0 36 -5.5 80.5t-10.5 75.5t-21 93t-22.5 84t-29.5 102t-28 97l141 45q59 -190 87 -320t28 -245z" />
    <glyph glyph-name="rehar.fina.alt" horiz-adv-x="950" 
d="M705 465v2q21 -116 55 -179.5t77.5 -84.5t112.5 -21v-182q-136 0 -213 80q-12 -105 -53 -195.5t-103.5 -159.5t-146.5 -124.5t-179.5 -92.5t-205.5 -61l-55 176q87 13 172.5 43t164.5 79t139 111t96 144t36 172q0 91 -22.5 195t-71.5 266l139 47q50 -180 58 -215z" />
    <glyph glyph-name="rehar.fina.narrow" horiz-adv-x="872" 
d="M872 182v-182q-153 0 -258 94q-14 -115 -64 -217.5t-128 -183t-174.5 -142t-208.5 -104.5l-45 176q93 35 176 85.5t154 117.5t113 154.5t42 181.5q0 33 -2.5 65t-11 75t-13.5 67.5t-21.5 83.5t-22.5 79.5t-29.5 98.5t-30.5 100l144 47q74 -229 104 -389
q31 -106 97.5 -156.5t178.5 -50.5z" />
    <glyph glyph-name="zainar.fina.alt" horiz-adv-x="950" 
d="M535 1100l137 -137l-137 -142l-140 142zM705 465v2q21 -116 55 -179.5t77.5 -84.5t112.5 -21v-182q-136 0 -213 80q-12 -105 -53 -195.5t-103.5 -159.5t-146.5 -124.5t-179.5 -92.5t-205.5 -61l-55 176q87 13 172.5 43t164.5 79t139 111t96 144t36 172q0 91 -22.5 195
t-71.5 266l139 47q50 -180 58 -215z" />
    <glyph glyph-name="zainar.fina.narrow" horiz-adv-x="872" 
d="M401 1212l138 -137l-138 -141l-139 141zM870 182v-182q-153 0 -258 94q-14 -115 -64 -217.5t-128 -183t-174.5 -142t-208.5 -104.5l-45 176q93 35 176 85.5t154 117.5t113 154.5t42 181.5q0 33 -2.5 65t-11 75t-13.5 67.5t-21.5 83.5t-22.5 79.5t-29.5 98.5t-30.5 100
l143 47q77 -237 105 -389q31 -106 97.5 -156.5t178.5 -50.5z" />
    <glyph glyph-name="zainar.alt" horiz-adv-x="825" 
d="M598 1034l-137 -141l-139 141l139 137zM713 174q0 -123 -35 -229.5t-96.5 -187t-149 -144t-188.5 -105.5t-219 -67l-56 174q77 15 156.5 45t160 79t143 109.5t101.5 142.5t39 171q0 103 -25.5 215t-86.5 319l145 43q111 -348 111 -565z" />
    <glyph glyph-name="zainar.narrow" horiz-adv-x="704" 
d="M508 1149l-137 -141l-140 141l140 137zM598 174q0 -125 -42.5 -235.5t-118.5 -195.5t-172.5 -149.5t-213.5 -109.5l-57 170q70 26 133.5 60t125 81.5t106.5 101.5t72.5 122.5t27.5 142.5q0 36 -5.5 80.5t-10.5 75.5t-21 93t-22.5 84t-29.5 102t-28 97l141 45
q59 -190 87 -320t28 -245z" />
    <glyph glyph-name="seenar.swsh" horiz-adv-x="4581" 
d="M4252 678l141 41q30 -58 52 -159t22 -187q0 -174 -91 -273.5t-257 -99.5q-105 0 -178 48t-103 142q-58 -187 -295 -190q-102 0 -176 47q-6 -140 -109.5 -254t-275 -189.5t-400.5 -125.5t-483 -67t-527 -7.5t-527.5 45.5t-488 99t-406.5 147l-87 205q178 -87 415 -153
t491 -104.5t524 -53t519.5 -3.5t473 49.5t388.5 100t261.5 155t96.5 207.5q-3 180 -82 416l143 31q15 -44 32 -102.5t26.5 -91t27 -70t38.5 -56t56 -31t84 -12.5q108 0 160.5 46.5t67.5 166.5l20 168l119 21v-189q0 -213 201 -213q96 0 148 50t52 141q0 107 -73 305z" />
    <glyph glyph-name="seenar.fina.swsh" horiz-adv-x="4749" 
d="M4461 377l4 4q3 -108 66 -153.5t220 -45.5v-182q-249 0 -348 143q-89 -143 -289 -143q-105 0 -178 48t-102 142q-61 -187 -295 -190q-101 0 -178 47q-6 -140 -109 -254t-274.5 -189.5t-400.5 -125.5t-483.5 -67t-527 -7.5t-527.5 45.5t-488 99t-406 147l-88 205
q178 -87 415 -153t491 -104.5t524 -53t519.5 -3.5t473.5 49.5t389 100t262 155t97 207.5q-6 180 -82 416l141 31q16 -44 33.5 -102.5t27 -91t27 -70t38.5 -56t56 -31t84 -12.5q107 0 159 46.5t67 166.5l20 168l121 21v-189q0 -213 201 -213q95 0 146.5 50t51.5 141
q0 103 -71 305l141 41q30 -58 51 -157.5t21 -184.5z" />
    <glyph glyph-name="seenar.medi.alt" horiz-adv-x="2379" 
d="M2095 381q3 -108 66 -153.5t219 -45.5v-182q-245 0 -344 139q-90 -139 -287 -139q-104 0 -177.5 48t-103.5 140q-61 -188 -284 -188q-102 0 -178 48t-109 142q-29 -95 -108.5 -142t-217.5 -48h-569l-45 16v148l45 18h559q140 0 201.5 44.5t81.5 170.5l20 142l121 20v-164
q0 -117 55.5 -165t155.5 -48q103 0 153.5 46t65.5 167l21 185l118 20v-205q0 -213 201 -213q96 0 147.5 50t51.5 141q0 121 -60 301l129 35q29 -56 50 -149t22 -179z" />
    <glyph glyph-name="seenar.init.alt" horiz-adv-x="2211" 
d="M1894 674l129 35q30 -58 51 -154t21 -182q0 -173 -91 -273t-255 -100q-104 0 -177.5 48t-103.5 140q-61 -188 -284 -188q-102 0 -178 48t-109 142q-29 -95 -108.5 -142t-217.5 -48h-569l-45 16v148l45 18h559q140 0 201.5 44.5t81.5 170.5l20 142l121 20v-164
q0 -117 55.5 -165t155.5 -48q103 0 153.5 46t65.5 167l21 185l118 20v-205q0 -213 201 -213q96 0 147.5 50t51.5 141q0 121 -60 301z" />
    <glyph glyph-name="sheenar.swsh" horiz-adv-x="4581" 
d="M4004 1266l-137 -140l-140 140l140 139zM3865 983l-140 -141l-139 141l139 137zM4145 983l-139 -141l-139 141l139 137zM4250 678l141 41q30 -58 52 -159t22 -187q0 -173 -91.5 -273t-257.5 -100q-104 0 -177 48t-103 142q-58 -187 -295 -190q-102 0 -176 47
q-6 -140 -109.5 -254t-275 -189.5t-400.5 -125.5t-483.5 -67t-527 -7.5t-527.5 45.5t-488.5 99t-406.5 147l-86 205q178 -87 415 -153t491 -104.5t524 -53t519.5 -3.5t473 49.5t388.5 100t261.5 155t96.5 207.5q-3 180 -82 416l143 31q15 -44 32 -102.5t26.5 -91t27 -70
t38.5 -56t56 -31t84 -12.5q108 0 160.5 46.5t67.5 166.5l20 168l119 21v-189q0 -213 201 -213q96 0 148 50t52 141q0 107 -73 305z" />
    <glyph glyph-name="sheenar.fina.swsh" horiz-adv-x="4749" 
d="M3858 1405l138 -139l-138 -140l-139 140zM3717 1120l139 -137l-139 -141l-139 141zM4137 983l-139 -141l-140 141l140 137zM4461 377l4 4q3 -108 66 -153.5t220 -45.5v-182q-249 0 -348 143q-89 -143 -289 -143q-105 0 -178 48t-102 142q-61 -187 -295 -190
q-101 0 -178 47q-6 -140 -109 -254t-274.5 -189.5t-400.5 -125.5t-483.5 -67t-527 -7.5t-527.5 45.5t-488 99t-406 147l-88 205q178 -87 415 -153t491 -104.5t524 -53t519.5 -3.5t473.5 49.5t389 100t262 155t97 207.5q-6 180 -82 416l141 31q16 -44 33.5 -102.5t27 -91
t27 -70t38.5 -56t56 -31t84 -12.5q107 0 159 46.5t67 166.5l20 168l121 21v-189q0 -213 201 -213q95 0 146.5 50t51.5 141q0 103 -71 305l141 41q30 -58 51 -157.5t21 -184.5z" />
    <glyph glyph-name="sheenar.medi.alt" horiz-adv-x="2379" 
d="M1489 1487l139 -139l-139 -140l-137 140zM1350 1202l139 -137l-139 -141l-140 141zM1767 1065l-137 -141l-139 141l139 137zM2095 381q3 -108 66 -153.5t219 -45.5v-182q-245 0 -344 139q-90 -139 -287 -139q-104 0 -177.5 48t-103.5 140q-61 -188 -284 -188
q-102 0 -178 48t-109 142q-29 -95 -108.5 -142t-217.5 -48h-569l-45 16v148l45 18h559q140 0 201.5 44.5t81.5 170.5l20 142l121 20v-164q0 -117 55.5 -165t155.5 -48q103 0 153.5 46t65.5 167l21 185l118 20v-205q0 -213 201 -213q96 0 147.5 50t51.5 141q0 121 -60 301
l129 35q29 -56 50 -149t22 -179z" />
    <glyph glyph-name="sheenar.init.alt" horiz-adv-x="2211" 
d="M1491 1487l137 -139l-137 -140l-139 140zM1350 1202l139 -137l-139 -141l-140 141zM1769 1065l-139 -141l-139 141l139 137zM1894 674l129 35q30 -58 51 -154t21 -182q0 -173 -91 -273t-255 -100q-104 0 -177.5 48t-103.5 140q-61 -188 -284 -188q-102 0 -178 48
t-109 142q-29 -95 -108.5 -142t-217.5 -48h-569l-45 16v148l45 18h559q140 0 201.5 44.5t81.5 170.5l20 142l121 20v-164q0 -117 55.5 -165t155.5 -48q103 0 153.5 46t65.5 167l21 185l118 20v-205q0 -213 201 -213q96 0 147.5 50t51.5 141q0 121 -60 301z" />
    <glyph glyph-name="sadar.swsh" horiz-adv-x="4673" 
d="M4200 877q124 0 222.5 -66.5t149 -171t50.5 -223.5q0 -416 -551 -416h-507q-121 3 -203 72q-19 -135 -137 -243t-302 -176.5t-423.5 -111.5t-499 -55t-530 1t-514 49t-454.5 95.5t-349 135.5l-95 210q161 -86 389 -152.5t478.5 -106t522 -55.5t525.5 -7t483.5 44.5
t399.5 94t270.5 147t100.5 197.5q0 71 -16.5 166.5t-32 155.5t-50.5 190l144 41q37 -135 63 -268q38 -155 113 -207q348 660 753 660zM4080 182q417 0 417 230q0 113 -88 200.5t-225 87.5q-95 0 -184.5 -38.5t-168.5 -111t-147 -161t-137 -205.5q10 -2 29 -2h504z" />
    <glyph glyph-name="sadar.fina.swsh" horiz-adv-x="4904" 
d="M4620 365q5 -95 71 -139t214 -44v-182q-259 0 -356 158q-128 -166 -478 -166h-507q-122 3 -203 71q-19 -135 -137 -243t-302 -176.5t-423.5 -111.5t-499 -55t-530 1t-514 49t-454.5 95.5t-349 135.5l-95 211q161 -86 389 -152.5t478.5 -105.5t522 -55t525.5 -7.5
t483.5 44.5t399.5 94t270.5 146.5t100.5 197.5q0 72 -17 168t-31.5 153.5t-50.5 190.5l144 41q37 -135 63 -268q38 -155 113 -207q348 659 753 659q94 0 174.5 -38.5t134 -102.5t83.5 -147t30 -172q0 -29 -2 -43zM4080 174q417 0 417 229q0 113 -88 201t-225 88
q-95 0 -184.5 -38.5t-168.5 -111t-147 -161t-137 -205.5q10 -2 29 -2h504z" />
    <glyph glyph-name="sadar.medi.alt" horiz-adv-x="2609" 
d="M2322 371q6 -102 69.5 -145.5t217.5 -43.5v-182q-267 0 -360 164q-126 -164 -473 -164h-576q-265 10 -323 195q-29 -93 -109 -142.5t-197 -52.5h-569l-45 16v148l45 18h553q63 0 104 8.5t76.5 33t56 71.5t29.5 121l21 176l121 20v-196q0 -115 43 -166t131 -62
q350 689 768 689q123 0 220.5 -66.5t148 -171t50.5 -223.5q0 -31 -2 -45zM1784 182q416 0 416 230q0 113 -87.5 200.5t-224.5 87.5q-95 0 -184.5 -38.5t-168.5 -111t-147.5 -162t-136.5 -206.5h533z" />
    <glyph glyph-name="sadar.init.alt" horiz-adv-x="2443" 
d="M1905 877q123 0 220.5 -66.5t148 -171t50.5 -223.5q0 -416 -548 -416h-576q-265 10 -323 195q-29 -93 -109 -142.5t-197 -52.5h-569l-45 16v148l45 18h553q63 0 104 8.5t76.5 33t56 71.5t29.5 121l21 176l121 20v-196q0 -115 43 -166t131 -62q350 689 768 689zM1784 182
q416 0 416 230q0 113 -87.5 200.5t-224.5 87.5q-95 0 -184.5 -38.5t-168.5 -111t-147.5 -162t-136.5 -206.5h533z" />
    <glyph glyph-name="dadar.swsh" horiz-adv-x="4673" 
d="M4157 1520l138 -138l-138 -141l-139 141zM4198 877q124 0 222.5 -66.5t149 -171t50.5 -223.5q0 -416 -551 -416h-508q-120 3 -202 72q-19 -135 -137 -243t-302 -176.5t-423.5 -111.5t-499 -55t-530 1t-514 49t-454.5 95.5t-349 135.5l-95 210q161 -86 389 -152.5
t478.5 -106t522 -55.5t525.5 -7t483.5 44.5t399.5 94t270.5 147t100.5 197.5q0 71 -16.5 166.5t-32 155.5t-50.5 190l144 41q37 -135 63 -268q38 -155 113 -207q348 660 753 660zM4078 182q417 0 417 230q0 113 -88 200.5t-225 87.5q-95 0 -184.5 -38.5t-168.5 -111
t-147 -161t-137 -205.5q10 -2 29 -2h504z" />
    <glyph glyph-name="dadar.fina.swsh" horiz-adv-x="4904" 
d="M4155 1513l138 -137l-138 -141l-139 141zM4620 365q5 -95 71 -139t214 -44v-182q-259 0 -356 158q-128 -166 -478 -166h-507q-122 3 -203 71q-19 -135 -137 -243t-302 -176.5t-423.5 -111.5t-499 -55t-530 1t-514 49t-454.5 95.5t-349 135.5l-95 211q161 -86 389 -152.5
t478.5 -105.5t522 -55t525.5 -7.5t483.5 44.5t399.5 94t270.5 146.5t100.5 197.5q0 72 -17 168t-31.5 153.5t-50.5 190.5l144 41q37 -135 63 -268q38 -155 113 -207q348 659 753 659q94 0 174.5 -38.5t134 -102.5t83.5 -147t30 -172q0 -29 -2 -43zM4080 174q417 0 417 229
q0 113 -88 201t-225 88q-95 0 -184.5 -38.5t-168.5 -111t-147 -161t-137 -205.5q10 -2 29 -2h504z" />
    <glyph glyph-name="dadar.medi.alt" horiz-adv-x="2609" 
d="M1776 1346l137 -138l-137 -141l-140 141zM2322 371q6 -102 69.5 -145.5t217.5 -43.5v-182q-267 0 -360 164q-126 -164 -473 -164h-576q-265 10 -323 195q-29 -93 -109 -142.5t-197 -52.5h-569l-45 16v148l45 18h553q63 0 104 8.5t76.5 33t56 71.5t29.5 121l21 176l121 20
v-196q0 -115 43 -166t131 -62q350 689 768 689q123 0 220.5 -66.5t148 -171t50.5 -223.5q0 -31 -2 -45zM1784 182q416 0 416 230q0 113 -87.5 200.5t-224.5 87.5q-95 0 -184.5 -38.5t-168.5 -111t-147.5 -162t-136.5 -206.5h533z" />
    <glyph glyph-name="dadar.init.alt" horiz-adv-x="2443" 
d="M1774 1346l137 -138l-137 -141l-140 141zM1905 877q123 0 220.5 -66.5t148 -171t50.5 -223.5q0 -416 -548 -416h-576q-265 10 -323 195q-29 -93 -109 -142.5t-197 -52.5h-569l-45 16v148l45 18h553q63 0 104 8.5t76.5 33t56 71.5t29.5 121l21 176l121 20v-196
q0 -115 43 -166t131 -62q350 689 768 689zM1784 182q416 0 416 230q0 113 -87.5 200.5t-224.5 87.5q-95 0 -184.5 -38.5t-168.5 -111t-147.5 -162t-136.5 -206.5h533z" />
    <glyph glyph-name="tahar.medi.alt" horiz-adv-x="2093" 
d="M1808 358q8 -95 72 -135.5t213 -40.5v-182q-262 0 -360 162q-128 -162 -473 -162h-1260l-43 16v148l43 18h618l64 119l-39 1223l145 20l19 -1048q273 381 584 381q123 0 220.5 -66.5t148 -171t50.5 -223.5q0 -40 -2 -58zM1268 182q418 0 418 230q0 113 -88.5 200.5
t-225.5 87.5q-95 0 -184 -38.5t-168 -111t-147.5 -162t-137.5 -206.5h533z" />
    <glyph glyph-name="tahar.init.alt" horiz-adv-x="1916" 
d="M1391 877q123 0 220.5 -66.5t148 -171t50.5 -223.5q0 -416 -550 -416h-1260l-43 16v148l43 18h618l64 117l-39 1225l148 20l18 -1046q274 379 582 379zM1268 182q418 0 418 230q0 113 -88.5 200.5t-225.5 87.5q-95 0 -184 -38.5t-168 -111t-147.5 -162t-137.5 -206.5h533
z" />
    <glyph glyph-name="zahar.medi.alt" horiz-adv-x="2093" 
d="M1806 358q8 -95 72 -135.5t213 -40.5v-182q-262 0 -360 162q-128 -162 -474 -162h-1259l-43 16v148l43 18h618l64 119l-39 1223l145 20l19 -1048q273 381 584 381q123 0 220.5 -66.5t148 -171t50.5 -223.5q0 -40 -2 -58zM1360 1323l137 -137l-137 -142l-139 142z
M1266 182q417 0 417 230q0 113 -88 200.5t-225 87.5q-95 0 -184 -38.5t-168 -111t-147.5 -162t-137.5 -206.5h533z" />
    <glyph glyph-name="zahar.init.alt" horiz-adv-x="1916" 
d="M1391 877q123 0 220.5 -66.5t148 -171t50.5 -223.5q0 -416 -550 -416h-1260l-43 16v148l43 18h618l64 117l-39 1225l148 20l18 -1046q274 379 582 379zM1358 1323l137 -137l-137 -142l-139 142zM1268 182q418 0 418 230q0 113 -88.5 200.5t-225.5 87.5q-95 0 -184 -38.5
t-168 -111t-147.5 -162t-137.5 -206.5h533z" />
    <glyph glyph-name="ainar.medi.alt" horiz-adv-x="1898" 
d="M1898 182v-182q-171 0 -321 64t-315 178q-182 -111 -351 -176.5t-338 -65.5h-569l-45 16v148l45 18h610q230 0 523 152q-81 60 -126 91.5t-112 73t-125 63.5t-115 30l25 164q257 113 594.5 111t568.5 -113l-28 -176q-29 -7 -62.5 -22t-82.5 -44.5t-77.5 -48t-98 -65.5
t-95.5 -64q249 -152 495 -152zM872 670q48 -18 105 -50t93 -56.5t108 -76.5t100 -71q61 38 144.5 94.5t142.5 94.5t98 57q-173 54 -389 54t-402 -46z" />
    <glyph glyph-name="ainar.init.alt" horiz-adv-x="1640" 
d="M1604 297l-45 -182q-196 -49 -467.5 -81.5t-518.5 -33.5h-569l-45 16v148l45 18h551h18h250q-69 54 -105 129t-36 162q0 119 63.5 212t164 141t216.5 48q66 0 146 -20t139 -53l-55 -142q-94 48 -240 48q-127 0 -213 -64.5t-86 -171.5q0 -122 94 -183t238 -61q41 0 85 4
t99 13t86.5 15t99.5 20.5t85 17.5z" />
    <glyph glyph-name="ghainar.medi.alt" horiz-adv-x="1898" 
d="M1229 1475l137 -138l-137 -141l-139 141zM1898 182v-182q-171 0 -321 64t-315 178q-182 -111 -351 -176.5t-338 -65.5h-569l-45 16v148l45 18h610q230 0 523 152q-81 60 -126 91.5t-112 73t-125 63.5t-115 30l25 164q257 113 594.5 111t568.5 -113l-28 -176
q-29 -7 -62.5 -22t-82.5 -44.5t-77.5 -48t-98 -65.5t-95.5 -64q249 -152 495 -152zM872 670q48 -18 105 -50t93 -56.5t108 -76.5t100 -71q61 38 144.5 94.5t142.5 94.5t98 57q-173 54 -389 54t-402 -46z" />
    <glyph glyph-name="ghainar.init.alt" horiz-adv-x="1640" 
d="M1024 1401l137 -137l-137 -142l-139 142zM1604 297l-45 -182q-196 -49 -467.5 -81.5t-518.5 -33.5h-569l-45 16v148l45 18h551h18h250q-69 54 -105 129t-36 162q0 119 63.5 212t164 141t216.5 48q66 0 146 -20t139 -53l-55 -142q-94 48 -240 48q-127 0 -213 -64.5
t-86 -171.5q0 -122 94 -183t238 -61q41 0 85 4t99 13t86.5 15t99.5 20.5t85 17.5z" />
    <glyph glyph-name="fehar.swsh" horiz-adv-x="3506" 
d="M3006 1806l138 -137l-138 -141l-139 141zM3002 1217q108 0 198 -80.5t142 -221.5t52 -311v-100q-3 -137 -98.5 -247t-258 -183t-381.5 -121.5t-468.5 -66.5t-521 -13.5t-536 32t-516.5 76t-460 113.5l-93 205q211 -80 512.5 -138t625 -86t657 -24t609.5 40t480.5 114.5
t273.5 191.5q-75 -3 -151 6.5t-153 37.5t-136.5 70.5t-97 111.5t-37.5 155q0 114 50.5 216t133.5 162.5t174 60.5zM2755 807q0 -67 54 -119t134 -79.5t164.5 -39.5t154.5 -6q9 113 -25.5 228t-102.5 191.5t-146 76.5q-90 0 -161.5 -74.5t-71.5 -177.5z" />
    </font>
</defs>
</svg>
