<svg width="100" height="62" viewBox="0 0 100 62" fill="none" xmlns="http://www.w3.org/2000/svg">
<g clip-path="url(#clip0_252_333)">
<path d="M0.0102539 25.9881L54.3563 0.65184L71.0522 6.45365L0.0102539 25.9881Z" fill="black"/>
<path d="M15.0359 24.4493L100 -0.000259399L86.6217 16.5752L15.0359 24.4493Z" fill="black"/>
<path d="M29.9067 24.8617H77.03L82.8325 19.4156L29.9067 24.8617Z" fill="black"/>
<mask id="mask0_252_333" style="mask-type:luminance" maskUnits="userSpaceOnUse" x="0" y="0" width="72" height="27">
<path d="M0 26.0009L54.346 0.667297L71.0419 6.46653L0 26.0009Z" fill="black"/>
</mask>
<g mask="url(#mask0_252_333)">
<path d="M61.9326 -23.0793L-8.47192 3.91537L9.10715 49.7533L79.5117 22.7586L61.9326 -23.0793Z" fill="black"/>
</g>
<mask id="mask1_252_333" style="mask-type:luminance" maskUnits="userSpaceOnUse" x="15" y="0" width="85" height="25">
<path d="M15.0255 24.4622L99.9897 0.015213L86.6113 16.5907L15.0255 24.4622Z" fill="black"/>
</mask>
<g mask="url(#mask1_252_333)">
<path d="M96.6247 -16.5505L10.2551 0.98587L18.3908 41.0465L104.76 23.5101L96.6247 -16.5505Z" fill="black"/>
</g>
<mask id="mask2_252_333" style="mask-type:luminance" maskUnits="userSpaceOnUse" x="29" y="19" width="54" height="6">
<path d="M29.8964 24.8772H77.0196L82.8221 19.431L29.8964 24.8772Z" fill="black"/>
</mask>
<g mask="url(#mask2_252_333)">
<path d="M82.8221 19.431H29.8964V24.8772H82.8221V19.431Z" fill="black"/>
</g>
<path d="M32.5386 37.5762V44.2543C32.5386 47.5483 31.0925 48.9221 27.9451 48.9221V47.1643C29.6464 47.1643 30.4893 46.324 30.4893 44.5662V37.5762H32.5386Z" fill="black"/>
<path d="M62.6231 37.6303V42.628C62.6231 44.842 61.5972 45.94 59.5659 45.94H37.0109C36.0339 45.94 35.2916 45.6255 34.7683 44.9837C34.2811 44.3935 34.0439 43.6022 34.0439 42.5919V34.0735H36.052V41.7645C36.052 42.6666 36.253 43.2543 36.632 43.5275C36.9026 43.7311 37.4259 43.8419 38.1863 43.8419L39.3798 43.8523H53.8563C53.8865 42.8009 53.5493 41.7719 52.9025 40.9423C52.1524 40.0093 51.0904 39.5531 49.7551 39.5531C49.2249 39.5652 48.7025 39.6836 48.2188 39.901C47.5885 40.1535 47.0249 40.5477 46.5717 41.0532C46.3706 40.6691 46.0406 40.1382 45.5818 39.4423C46.1562 38.901 46.8187 38.4617 47.5409 38.1432C48.302 37.8076 49.1243 37.6329 49.9562 37.6303C51.1276 37.6055 52.2824 37.9101 53.2892 38.5092C54.9544 39.535 55.8695 41.3083 56.0319 43.8523H59.1458C59.8211 43.8523 60.2413 43.6512 60.4449 43.2491C60.5652 42.821 60.614 42.376 60.5893 41.9321V37.6303H62.6231Z" fill="black"/>
<path d="M66.5747 34.1173H64.5435V45.94H66.5747V34.1173Z" fill="black"/>
<path d="M62.6025 47.8963H60.6073V49.9479H62.6025V47.8963Z" fill="black"/>
<path d="M64.9018 49.9479H64.6492V47.8963H66.6443V48.2055C66.644 48.6676 66.4604 49.1106 66.1336 49.4373C65.8069 49.764 65.3639 49.9476 64.9018 49.9479Z" fill="black"/>
<path d="M27.9219 61.9949V52.9223H33.5129V54.2832H29.5742V56.7214H32.9175V58.0823H29.5742V60.6365H33.5516V61.9949H27.9219Z" fill="black"/>
<path d="M35.3431 61.9949V52.9223H38.8385C39.7949 52.9223 40.4831 53.1078 40.8981 53.4816C41.3802 53.9146 41.6225 54.5357 41.6225 55.3502C41.6225 56.2059 41.3338 56.8426 40.7589 57.2549C40.7667 57.2549 40.7847 57.2678 40.8156 57.2936C40.8362 57.3141 40.8596 57.3315 40.8852 57.3452C41.1198 57.5173 41.3186 57.7335 41.4704 57.9818C41.6969 58.4484 41.8058 58.9634 41.7874 59.4818C41.7874 60.4149 41.5125 61.0927 40.9626 61.5154C40.5476 61.8376 39.898 62 39.019 62H35.3457L35.3431 61.9949ZM36.9955 56.6956H38.7251C39.0664 56.7255 39.4058 56.621 39.6711 56.4044C39.8656 56.1341 39.9702 55.8095 39.9702 55.4765C39.9702 55.1435 39.8656 54.819 39.6711 54.5486C39.4061 54.3314 39.0664 54.2268 38.7251 54.2574H36.9955V56.6982V56.6956ZM36.9955 60.6597H38.903C39.0728 60.6755 39.2441 60.656 39.4061 60.6023C39.568 60.5486 39.717 60.462 39.8438 60.3479C40.0353 60.0492 40.1365 59.7015 40.1351 59.3467C40.1337 58.9919 40.0299 58.645 39.8361 58.3478C39.7109 58.2333 39.5634 58.146 39.4028 58.0915C39.2422 58.0369 39.072 58.0162 38.903 58.0308H36.9955V60.6623V60.6597Z" fill="black"/>
<path d="M43.4784 61.9949V52.9223H45.141V56.7214H48.2188V52.9223H49.8814V61.9949H48.2188V58.0823H45.141V61.9949H43.4784Z" fill="black"/>
<path d="M57.1146 60.2035H53.6836L53.0985 61.9949H51.2941L54.5858 52.9223H56.1995L59.4912 61.9949H57.6868L57.1146 60.2035ZM56.7073 58.8684L55.3978 54.9043L54.0754 58.8684H56.7073Z" fill="black"/>
<path d="M62.1333 58.2859V61.9974H60.4681V52.9249H63.8114C64.8863 52.9249 65.6485 53.1448 66.0979 53.5847C66.5309 54.0254 66.7449 54.6827 66.7449 55.5538C66.782 56.1652 66.6404 56.7741 66.3376 57.3065C66.0237 57.7423 65.5554 58.0419 65.0281 58.1442L67.0104 61.9949H65.1673L63.4145 58.2833H62.1308L62.1333 58.2859ZM62.1076 56.9895H63.6954C64.08 57.0249 64.463 56.9083 64.7626 56.6647C64.8836 56.5225 64.975 56.3577 65.0317 56.1798C65.0883 56.0019 65.109 55.8145 65.0926 55.6286C65.1094 55.4392 65.0882 55.2484 65.0302 55.0674C64.9722 54.8864 64.8786 54.7188 64.7549 54.5744C64.5306 54.3631 64.1594 54.2574 63.6439 54.2574H62.105V56.9895H62.1076Z" fill="black"/>
</g>
<defs>
<clipPath id="clip0_252_333">
<rect width="100" height="62" fill="black"/>
</clipPath>
</defs>
</svg>
