<svg width="54" height="54" viewBox="0 0 54 54" fill="none" xmlns="http://www.w3.org/2000/svg">
<g id="Vector">
<path id="Vector_2" d="M24.4213 38.4873C24.2828 38.4873 24.1471 38.4203 24.0643 38.2963L21.8422 34.9693L17.3737 32.7399C17.3323 32.7199 17.2952 32.6928 17.2623 32.6601L8.42534 23.8393L0.730821 31.5197C0.563735 31.6865 0.2924 31.6865 0.125314 31.5197C-0.0417715 31.3529 -0.0417715 31.082 0.125314 30.9153L8.12259 22.9327C8.28967 22.7659 8.56101 22.7659 8.72809 22.9327L17.8193 32.0072L22.3263 34.2566C22.3934 34.2893 22.4491 34.3392 22.4905 34.402L24.7755 37.8231C24.9069 38.0198 24.854 38.2849 24.657 38.416C24.5841 38.4645 24.5013 38.4873 24.4199 38.4873H24.4213Z" fill="#99D5DF"/>
<path id="Vector_3" d="M15.2816 37.3474C15.2173 37.3474 15.1516 37.3331 15.0902 37.3018C14.8788 37.1963 14.7932 36.9397 14.8988 36.7273L17.1838 32.1659C17.2895 31.9549 17.5465 31.8694 17.7579 31.9749C17.9692 32.0804 18.0549 32.3369 17.9492 32.5493L15.6643 37.1108C15.5886 37.2605 15.4387 37.3474 15.2801 37.3474H15.2816Z" fill="#99D5DF"/>
<path id="Vector_4" d="M42.7008 41.9087C42.5908 41.9087 42.4809 41.8674 42.398 41.7833L41.2556 40.643L36.4329 36.09C36.3972 36.0558 36.3672 36.0159 36.3458 35.9732L34.6407 32.6176L28.6956 26.9671C28.6399 26.9143 28.5999 26.8488 28.5785 26.7747L26.3407 18.9546L21.0053 15.7602L14.4561 20.1178L11.0787 25.7369C10.9573 25.9394 10.6946 26.0049 10.4903 25.8838C10.2876 25.7626 10.2219 25.4989 10.3432 25.2965L13.7707 19.5946C13.8035 19.5405 13.8478 19.4934 13.9006 19.4592L20.7554 14.8978C20.8925 14.8065 21.071 14.8023 21.2138 14.8864L26.9262 18.3074C27.019 18.363 27.0875 18.4528 27.1175 18.5569L29.371 26.4268L35.2847 32.0489C35.3204 32.0831 35.349 32.1215 35.3719 32.1657L37.077 35.5213L41.8539 40.0314L43.005 41.1803C43.1721 41.3471 43.1721 41.6179 43.005 41.7847C42.9207 41.8688 42.8122 41.9102 42.7022 41.9102L42.7008 41.9087Z" fill="#99D5DF"/>
<path id="Vector_5" d="M41.5584 16.82C38.8022 16.82 36.5601 14.582 36.5601 11.8309C36.5601 9.07977 38.8022 6.8418 41.5584 6.8418C44.3146 6.8418 46.5567 9.07977 46.5567 11.8309C46.5567 14.582 44.3146 16.82 41.5584 16.82ZM41.5584 7.69707C39.2748 7.69707 37.4169 9.55159 37.4169 11.8309C37.4169 14.1102 39.2748 15.9647 41.5584 15.9647C43.8419 15.9647 45.6998 14.1102 45.6998 11.8309C45.6998 9.55159 43.8419 7.69707 41.5584 7.69707Z" fill="#99D5DF"/>
<path id="Vector_6" d="M41.5583 4.27637C41.3212 4.27637 41.1299 4.08536 41.1299 3.84874V0.427637C41.1299 0.191011 41.3212 0 41.5583 0C41.7954 0 41.9867 0.191011 41.9867 0.427637V3.84874C41.9867 4.08536 41.7954 4.27637 41.5583 4.27637Z" fill="#99D5DF"/>
<path id="Vector_7" d="M35.9031 6.61376C35.7931 6.61376 35.6832 6.57242 35.6004 6.48832L33.1769 4.06932C33.0098 3.90254 33.0098 3.63171 33.1769 3.46493C33.344 3.29815 33.6153 3.29815 33.7824 3.46493L36.2059 5.88393C36.3729 6.0507 36.3729 6.32154 36.2059 6.48832C36.1216 6.57242 36.0131 6.61376 35.9031 6.61376Z" fill="#99D5DF"/>
<path id="Vector_8" d="M33.561 12.2586H30.1336C29.8966 12.2586 29.7052 12.0676 29.7052 11.831C29.7052 11.5943 29.8966 11.4033 30.1336 11.4033H33.561C33.7981 11.4033 33.9895 11.5943 33.9895 11.831C33.9895 12.0676 33.7981 12.2586 33.561 12.2586Z" fill="#99D5DF"/>
<path id="Vector_9" d="M33.4796 20.3228C33.3697 20.3228 33.2597 20.2814 33.1769 20.1973C33.0098 20.0305 33.0098 19.7597 33.1769 19.5929L35.6004 17.1739C35.7674 17.0071 36.0388 17.0071 36.2059 17.1739C36.3729 17.3407 36.3729 17.6115 36.2059 17.7783L33.7824 20.1973C33.6981 20.2814 33.5896 20.3228 33.4796 20.3228Z" fill="#99D5DF"/>
<path id="Vector_10" d="M41.5583 23.6621C41.3212 23.6621 41.1299 23.4711 41.1299 23.2345V19.8134C41.1299 19.5768 41.3212 19.3857 41.5583 19.3857C41.7954 19.3857 41.9867 19.5768 41.9867 19.8134V23.2345C41.9867 23.4711 41.7954 23.6621 41.5583 23.6621Z" fill="#99D5DF"/>
<path id="Vector_11" d="M49.637 20.3228C49.527 20.3228 49.4171 20.2814 49.3342 20.1973L46.9108 17.7783C46.7437 17.6115 46.7437 17.3407 46.9108 17.1739C47.0779 17.0071 47.3492 17.0071 47.5163 17.1739L49.9397 19.5929C50.1068 19.7597 50.1068 20.0305 49.9397 20.1973C49.8555 20.2814 49.747 20.3228 49.637 20.3228Z" fill="#99D5DF"/>
<path id="Vector_12" d="M52.983 12.2586H49.5556C49.3186 12.2586 49.1272 12.0676 49.1272 11.831C49.1272 11.5943 49.3186 11.4033 49.5556 11.4033H52.983C53.2201 11.4033 53.4115 11.5943 53.4115 11.831C53.4115 12.0676 53.2201 12.2586 52.983 12.2586Z" fill="#99D5DF"/>
<path id="Vector_13" d="M47.2135 6.61376C47.1036 6.61376 46.9936 6.57242 46.9108 6.48832C46.7437 6.32154 46.7437 6.0507 46.9108 5.88393L49.3342 3.46493C49.5013 3.29815 49.7727 3.29815 49.9397 3.46493C50.1068 3.63171 50.1068 3.90254 49.9397 4.06932L47.5163 6.48832C47.432 6.57242 47.3235 6.61376 47.2135 6.61376Z" fill="#99D5DF"/>
<path id="Vector_14" d="M52.983 46.47C50.641 46.47 48.616 45.7373 47.7277 44.6454C46.8394 45.7373 44.8144 46.47 42.4723 46.47C40.1303 46.47 38.1052 45.7373 37.217 44.6454C36.3287 45.7373 34.3037 46.47 31.9616 46.47C29.6196 46.47 27.5945 45.7373 26.7063 44.6454C25.818 45.7373 23.793 46.47 21.4509 46.47C19.1089 46.47 17.0838 45.7373 16.1956 44.6454C15.3073 45.7373 13.2823 46.47 10.9402 46.47C8.59816 46.47 6.57314 45.7373 5.68487 44.6454C4.7966 45.7373 2.77158 46.47 0.429524 46.47C0.192462 46.47 0.00109863 46.279 0.00109863 46.0424C0.00109863 45.8057 0.192462 45.6147 0.429524 45.6147C3.11004 45.6147 4.99653 44.6126 5.27215 43.6447C5.32499 43.4608 5.49208 43.334 5.68487 43.334C5.87766 43.334 6.04475 43.4608 6.09759 43.6447C6.37321 44.6126 8.26114 45.6147 10.9417 45.6147C13.6222 45.6147 15.5087 44.6126 15.7843 43.6447C15.8371 43.4608 16.0042 43.334 16.197 43.334C16.3898 43.334 16.5569 43.4608 16.6097 43.6447C16.8853 44.6126 18.7733 45.6147 21.4538 45.6147C24.1343 45.6147 26.0208 44.6126 26.2964 43.6447C26.3493 43.4608 26.5163 43.334 26.7091 43.334C26.9019 43.334 27.069 43.4608 27.1218 43.6447C27.3975 44.6126 29.2854 45.6147 31.9645 45.6147C34.6436 45.6147 36.5315 44.6126 36.8085 43.6447C36.8614 43.4608 37.0285 43.334 37.2213 43.334C37.4141 43.334 37.5811 43.4608 37.634 43.6447C37.9096 44.6126 39.7975 45.6147 42.4766 45.6147C45.1557 45.6147 47.0436 44.6126 47.3207 43.6447C47.3735 43.4608 47.5406 43.334 47.7334 43.334C47.9262 43.334 48.0933 43.4608 48.1461 43.6447C48.4217 44.6126 50.3097 45.6147 52.9887 45.6147C53.2258 45.6147 53.4172 45.8057 53.4172 46.0424C53.4172 46.279 53.2258 46.47 52.9887 46.47H52.983Z" fill="#99D5DF"/>
<path id="Vector_15" d="M42.4723 53.3118C40.1303 53.3118 38.1052 52.5791 37.217 51.4872C36.3287 52.5791 34.3037 53.3118 31.9616 53.3118C29.6196 53.3118 27.5945 52.5791 26.7063 51.4872C25.818 52.5791 23.793 53.3118 21.4509 53.3118C19.1089 53.3118 17.0838 52.5791 16.1956 51.4872C15.3073 52.5791 13.2823 53.3118 10.9402 53.3118C10.7031 53.3118 10.5118 53.1208 10.5118 52.8842C10.5118 52.6475 10.7031 52.4565 10.9402 52.4565C13.6207 52.4565 15.5072 51.4544 15.7828 50.4865C15.8357 50.3026 16.0028 50.1758 16.1956 50.1758C16.3884 50.1758 16.5554 50.3026 16.6083 50.4865C16.8839 51.4544 18.7718 52.4565 21.4523 52.4565C24.1329 52.4565 26.0194 51.4544 26.295 50.4865C26.3478 50.3026 26.5149 50.1758 26.7077 50.1758C26.9005 50.1758 27.0676 50.3026 27.1204 50.4865C27.396 51.4544 29.284 52.4565 31.963 52.4565C34.6421 52.4565 36.5301 51.4544 36.8071 50.4865C36.8599 50.3026 37.027 50.1758 37.2198 50.1758C37.4126 50.1758 37.5797 50.3026 37.6325 50.4865C37.9082 51.4544 39.7961 52.4565 42.4752 52.4565C42.7122 52.4565 42.9036 52.6475 42.9036 52.8842C42.9036 53.1208 42.7122 53.3118 42.4752 53.3118H42.4723Z" fill="#99D5DF"/>
</g>
</svg>
