<svg width="49" height="49" viewBox="0 0 49 49" fill="none" xmlns="http://www.w3.org/2000/svg">
<g id="Vector">
<path id="Vector_2" d="M24.4217 48.7535C24.2117 48.7535 24.0332 48.6024 23.999 48.3957L20.6215 28.1699L0.358451 24.7987C0.151378 24.7645 0 24.5863 0 24.3768C0 24.1672 0.151378 23.989 0.358451 23.9548L20.6215 20.5836L23.999 0.357791C24.0332 0.1511 24.2117 0 24.4217 0C24.6316 0 24.8101 0.1511 24.8444 0.357791L28.2218 20.5836L48.4849 23.9548C48.692 23.989 48.8433 24.1672 48.8433 24.3768C48.8433 24.5863 48.692 24.7645 48.4849 24.7987L28.2218 28.1699L24.8444 48.3957C24.8101 48.6024 24.6316 48.7535 24.4217 48.7535ZM3.03611 24.3782L21.0657 27.3773C21.2456 27.4073 21.3884 27.5484 21.4184 27.7294L24.4231 45.7244L27.4278 27.7294C27.4578 27.5498 27.5992 27.4087 27.7805 27.3773L45.8101 24.3782L27.7805 21.379C27.6006 21.3491 27.4578 21.208 27.4278 21.0269L24.4231 3.03052L21.4184 21.0269C21.3884 21.2065 21.247 21.3477 21.0657 21.379L3.03611 24.3782Z" fill="#99D5DF"/>
<path id="Vector_3" d="M20.9943 21.3849C20.8843 21.3849 20.7744 21.3435 20.6915 21.2594L14.9792 15.5576C14.8121 15.3908 14.8121 15.12 14.9792 14.9532C15.1463 14.7864 15.4176 14.7864 15.5847 14.9532L21.297 20.655C21.4641 20.8218 21.4641 21.0927 21.297 21.2594C21.2128 21.3435 21.1042 21.3849 20.9943 21.3849Z" fill="#99D5DF"/>
<path id="Vector_4" d="M27.8491 21.3849C27.7391 21.3849 27.6292 21.3435 27.5463 21.2594C27.3792 21.0927 27.3792 20.8218 27.5463 20.655L33.2587 14.9532C33.4258 14.7864 33.6971 14.7864 33.8642 14.9532C34.0313 15.12 34.0313 15.3908 33.8642 15.5576L28.1518 21.2594C28.0676 21.3435 27.9591 21.3849 27.8491 21.3849Z" fill="#99D5DF"/>
<path id="Vector_5" d="M15.2819 33.9288C15.172 33.9288 15.062 33.8875 14.9792 33.8034C14.8121 33.6366 14.8121 33.3658 14.9792 33.199L20.6915 27.4972C20.8586 27.3304 21.13 27.3304 21.297 27.4972C21.4641 27.6639 21.4641 27.9348 21.297 28.1015L15.5847 33.8034C15.5004 33.8875 15.3919 33.9288 15.2819 33.9288Z" fill="#99D5DF"/>
<path id="Vector_6" d="M33.5614 33.9288C33.4515 33.9288 33.3415 33.8875 33.2587 33.8034L27.5463 28.1015C27.3792 27.9348 27.3792 27.6639 27.5463 27.4972C27.7134 27.3304 27.9848 27.3304 28.1518 27.4972L33.8642 33.199C34.0313 33.3658 34.0313 33.6366 33.8642 33.8034C33.7799 33.8875 33.6714 33.9288 33.5614 33.9288Z" fill="#99D5DF"/>
<path id="Vector_7" d="M30.134 42.1306C29.9541 42.1306 29.787 42.0165 29.727 41.8369C29.6527 41.6131 29.7756 41.3708 29.9998 41.2967C35.3579 39.5376 39.6079 35.2941 41.3702 29.9472C41.4444 29.7234 41.6872 29.6008 41.9114 29.6749C42.1356 29.749 42.2584 29.9899 42.1842 30.2151C40.3362 35.82 35.882 40.2661 30.2668 42.1106C30.2225 42.1249 30.1768 42.132 30.1326 42.132L30.134 42.1306ZM18.7093 42.1306C18.6651 42.1306 18.6194 42.1234 18.5751 42.1092C12.9599 40.2646 8.50566 35.8186 6.65772 30.2137C6.58346 29.9899 6.70628 29.7476 6.93049 29.6735C7.1547 29.5994 7.39747 29.722 7.47173 29.9458C9.23399 35.2926 13.4854 39.5362 18.8421 41.2952C19.0663 41.3694 19.1892 41.6103 19.1149 41.8355C19.0549 42.0151 18.8878 42.1291 18.7079 42.1291L18.7093 42.1306ZM41.7786 19.1037C41.5987 19.1037 41.4316 18.9897 41.3716 18.8101C39.6093 13.4632 35.3579 9.21958 30.0012 7.46057C29.777 7.38644 29.6542 7.14555 29.7284 6.92033C29.8027 6.69653 30.044 6.57394 30.2697 6.64806C35.8849 8.4926 40.3391 12.9386 42.187 18.5435C42.2613 18.7673 42.1385 19.0096 41.9143 19.0838C41.87 19.098 41.8243 19.1051 41.78 19.1051L41.7786 19.1037ZM7.06615 19.1037C7.02188 19.1037 6.97619 19.0966 6.93192 19.0823C6.70771 19.0082 6.58489 18.7673 6.65915 18.5421C8.50709 12.9372 12.9613 8.49118 18.5765 6.64663C18.8007 6.57251 19.0435 6.6951 19.1178 6.9189C19.192 7.1427 19.0692 7.38503 18.845 7.45916C13.4868 9.21817 9.23685 13.4618 7.47459 18.8087C7.41461 18.9883 7.24752 19.1023 7.06758 19.1023L7.06615 19.1037Z" fill="#99D5DF"/>
</g>
</svg>
