<svg width="68" height="68" viewBox="0 0 68 68" fill="none" xmlns="http://www.w3.org/2000/svg">
<path d="M22.4267 23.8203C22.1897 23.8203 21.9983 23.6293 21.9983 23.3927V19.9716C21.9983 19.735 22.1897 19.5439 22.4267 19.5439C22.6638 19.5439 22.8551 19.735 22.8551 19.9716V23.3927C22.8551 23.6293 22.6638 23.8203 22.4267 23.8203Z" fill="#99D5DF"/>
<path d="M45.276 23.8203C45.039 23.8203 44.8476 23.6293 44.8476 23.3927V19.9716C44.8476 19.735 45.039 19.5439 45.276 19.5439C45.5131 19.5439 45.7044 19.735 45.7044 19.9716V23.3927C45.7044 23.6293 45.5131 23.8203 45.276 23.8203Z" fill="#99D5DF"/>
<path d="M33.8514 29.5219C29.0373 29.5219 23.3749 28.6439 21.924 26.1807C21.3985 25.2883 21.4413 24.2791 22.0525 23.1844C22.1282 23.0489 22.271 22.9648 22.4267 22.9648H45.2761C45.4317 22.9648 45.5745 23.0489 45.6502 23.1844C46.2614 24.2791 46.3043 25.2869 45.7787 26.1807C44.3278 28.6439 38.6669 29.5219 33.8514 29.5219ZM22.6866 23.8201C22.3367 24.55 22.3296 25.1814 22.6623 25.7473C23.7063 27.5206 28.099 28.6667 33.8514 28.6667C39.6037 28.6667 43.9951 27.5206 45.0404 25.7473C45.3732 25.1814 45.366 24.55 45.0161 23.8201H22.6866Z" fill="#99D5DF"/>
<path d="M45.276 22.68C45.1189 22.68 44.9676 22.5931 44.8919 22.442C44.7862 22.231 44.8733 21.9744 45.0847 21.8689C47.7209 20.5604 50.5599 18.3196 50.5599 16.4893C50.5599 14.659 48.4064 12.4281 44.8005 10.6406C41.3331 8.92152 37.1374 7.85527 33.8514 7.85527C30.5653 7.85527 26.3696 8.92294 22.9022 10.6406C19.2949 12.4281 17.1428 14.6148 17.1428 16.4893C17.1428 18.3637 19.9804 20.5604 22.6181 21.8689C22.8294 21.9744 22.9165 22.231 22.8108 22.442C22.7052 22.653 22.4481 22.7399 22.2368 22.6344C21.6284 22.3322 16.2874 19.5925 16.2874 16.4893C16.2874 14.2499 18.5609 11.8394 22.5238 9.87515C26.0997 8.10188 30.4411 7 33.8514 7C37.2616 7 41.603 8.10188 45.1804 9.87515C49.1433 11.8394 51.4168 14.2499 51.4168 16.4893C51.4168 19.5925 46.0758 22.3322 45.4674 22.6344C45.406 22.6644 45.3417 22.6786 45.2775 22.6786L45.276 22.68Z" fill="#99D5DF"/>
<path d="M33.8514 20.3994C33.7414 20.3994 33.6315 20.3581 33.5486 20.274C33.2145 19.9418 32.5732 19.7266 31.8949 19.5C30.5397 19.0481 28.8531 18.485 28.8531 16.5507C28.8531 16.3141 29.0445 16.123 29.2815 16.123C29.5186 16.123 29.7099 16.3141 29.7099 16.5507C29.7099 17.778 30.6825 18.1942 32.1662 18.6889C32.7932 18.8984 33.393 19.098 33.8514 19.4173C34.3098 19.098 34.9096 18.8984 35.5365 18.6889C37.0203 18.1942 37.9928 17.7766 37.9928 16.5507C37.9928 16.3141 38.1842 16.123 38.4213 16.123C38.6583 16.123 38.8497 16.3141 38.8497 16.5507C38.8497 18.485 37.1631 19.0481 35.8079 19.5C35.1281 19.7266 34.4869 19.9404 34.1541 20.274C34.0699 20.3581 33.9613 20.3994 33.8514 20.3994Z" fill="#99D5DF"/>
<path d="M33.8513 20.3991C33.6143 20.3991 33.4229 20.2081 33.4229 19.9715V10.8485C33.4229 10.6119 33.6143 10.4209 33.8513 10.4209C34.0884 10.4209 34.2798 10.6119 34.2798 10.8485V19.9715C34.2798 20.2081 34.0884 20.3991 33.8513 20.3991Z" fill="#99D5DF"/>
<path d="M36.1363 13.5574H31.5664C31.3294 13.5574 31.138 13.3664 31.138 13.1298C31.138 12.8932 31.3294 12.7021 31.5664 12.7021H36.1363C36.3734 12.7021 36.5647 12.8932 36.5647 13.1298C36.5647 13.3664 36.3734 13.5574 36.1363 13.5574Z" fill="#99D5DF"/>
<path d="M14.4294 54.0405C14.2723 54.0405 14.1209 53.9535 14.0453 53.8038C13.9396 53.5929 14.0253 53.3363 14.2366 53.2308L22.2339 49.2395C22.4453 49.134 22.7023 49.2196 22.808 49.4305C22.9137 49.6415 22.828 49.8981 22.6166 50.0036L14.6194 53.9948C14.5579 54.0262 14.4923 54.0405 14.428 54.0405H14.4294Z" fill="#99D5DF"/>
<path d="M28.139 60.312C28.1219 60.312 28.1062 60.312 28.089 60.3092C27.9519 60.2935 27.8306 60.2123 27.7634 60.0925L22.0511 49.8292C21.9868 49.7138 21.9797 49.5741 22.0325 49.4529L23.7462 45.4616C23.7991 45.3376 23.9076 45.2464 24.039 45.215C24.1704 45.1837 24.3089 45.215 24.4132 45.3006L34.1241 53.2831C34.2141 53.3572 34.2712 53.4656 34.2784 53.5825C34.2855 53.6993 34.2469 53.8148 34.1684 53.9003L28.4561 60.1723C28.3747 60.2622 28.259 60.312 28.139 60.312ZM22.9037 49.5969L28.2247 59.156L33.233 53.6566L24.3103 46.3226L22.9051 49.5969H22.9037Z" fill="#99D5DF"/>
<path d="M53.2733 54.0405C53.2091 54.0405 53.1434 54.0262 53.082 53.9948L45.0847 50.0036C44.8734 49.8981 44.7877 49.6415 44.8933 49.4305C44.999 49.2196 45.2561 49.134 45.4674 49.2395L53.4647 53.2308C53.6761 53.3363 53.7617 53.5929 53.6561 53.8038C53.5804 53.9535 53.4304 54.0405 53.2719 54.0405H53.2733Z" fill="#99D5DF"/>
<path d="M39.5637 60.312C39.4437 60.312 39.3281 60.2622 39.2467 60.1723L33.5343 53.9003C33.4558 53.8134 33.4158 53.6979 33.4244 53.5825C33.4329 53.467 33.4886 53.3572 33.5786 53.2831L43.2896 45.3006C43.3938 45.215 43.5323 45.1837 43.6637 45.215C43.7951 45.2464 43.9036 45.339 43.9565 45.4616L45.6702 49.4529C45.723 49.5741 45.7159 49.7138 45.6516 49.8292L39.9393 60.0925C39.8722 60.2123 39.7508 60.2935 39.6137 60.3092C39.5965 60.3106 39.5808 60.312 39.5637 60.312ZM34.4711 53.6566L39.4794 59.156L44.8005 49.5969L43.3952 46.3226L34.4726 53.6566H34.4711Z" fill="#99D5DF"/>
<path d="M25.8541 47.4659C25.617 47.4659 25.4257 47.2749 25.4257 47.0383V41.0058C25.4257 40.7691 25.617 40.5781 25.8541 40.5781C26.0911 40.5781 26.2825 40.7691 26.2825 41.0058V47.0383C26.2825 47.2749 26.0911 47.4659 25.8541 47.4659Z" fill="#99D5DF"/>
<path d="M41.8487 47.4659C41.6116 47.4659 41.4202 47.2749 41.4202 47.0383V41.0058C41.4202 40.7691 41.6116 40.5781 41.8487 40.5781C42.0857 40.5781 42.2771 40.7691 42.2771 41.0058V47.0383C42.2771 47.2749 42.0857 47.4659 41.8487 47.4659Z" fill="#99D5DF"/>
<path d="M33.8514 45.4878C28.8859 45.4878 23.1407 40.1024 23.1407 36.5887V30.8056C23.1407 30.5689 23.3321 30.3779 23.5692 30.3779C23.8062 30.3779 23.9976 30.5689 23.9976 30.8056V36.5887C23.9976 38.0255 25.2686 40.0454 27.2365 41.736C29.3486 43.5506 31.8206 44.6325 33.8514 44.6325C35.8821 44.6325 38.3541 43.5492 40.4663 41.736C42.4342 40.0454 43.7052 38.0255 43.7052 36.5887V30.8056C43.7052 30.5689 43.8965 30.3779 44.1336 30.3779C44.3707 30.3779 44.562 30.5689 44.562 30.8056V36.5887C44.562 40.1024 38.8168 45.4878 33.8514 45.4878Z" fill="#99D5DF"/>
</svg>
