<svg width="35" height="53" viewBox="0 0 35 53" fill="none" xmlns="http://www.w3.org/2000/svg">
<g id="Vector">
<path id="Vector_2" d="M17.7894 24.5755C15.5809 24.5755 13.7848 22.7826 13.7848 20.5783C13.7848 18.3739 15.5809 16.5811 17.7894 16.5811C19.9978 16.5811 21.7939 18.3739 21.7939 20.5783C21.7939 22.7826 19.9978 24.5755 17.7894 24.5755ZM17.7894 17.4693C16.0718 17.4693 14.6747 18.8639 14.6747 20.5783C14.6747 22.2926 16.0718 23.6872 17.7894 23.6872C19.5069 23.6872 20.904 22.2926 20.904 20.5783C20.904 18.8639 19.5069 17.4693 17.7894 17.4693Z" fill="#99D5DF"/>
<path id="Vector_3" d="M17.7894 44.1177C17.5432 44.1177 17.3445 43.9193 17.3445 43.6735V24.1316C17.3445 23.8859 17.5432 23.6875 17.7894 23.6875C18.0356 23.6875 18.2344 23.8859 18.2344 24.1316V43.6735C18.2344 43.9193 18.0356 44.1177 17.7894 44.1177Z" fill="#99D5DF"/>
<path id="Vector_4" d="M22.5355 29.3131H13.0432C12.797 29.3131 12.5983 29.1147 12.5983 28.8689C12.5983 28.6232 12.797 28.4248 13.0432 28.4248H22.5355C22.7818 28.4248 22.9805 28.6232 22.9805 28.8689C22.9805 29.1147 22.7818 29.3131 22.5355 29.3131Z" fill="#99D5DF"/>
<path id="Vector_5" d="M6.51585 38.1241C6.45949 38.1241 6.40315 38.1137 6.34827 38.0915C6.12134 37.9983 6.01157 37.7392 6.10501 37.5127L7.30194 34.5843C7.3939 34.3578 7.65196 34.2483 7.88037 34.3401L10.8393 35.5274C11.0677 35.6192 11.1775 35.8783 11.0855 36.1048C10.9936 36.3328 10.7355 36.4423 10.5071 36.352L7.95898 35.329L6.92966 37.8487C6.85995 38.0205 6.69235 38.1256 6.51734 38.1256L6.51585 38.1241Z" fill="#99D5DF"/>
<path id="Vector_6" d="M17.7894 44.117C17.6411 44.117 17.5017 44.043 17.4187 43.9186C16.4679 42.4944 15.1954 42.0829 13.7226 41.6076C11.4103 40.86 8.78954 40.0132 7.29895 34.8598C7.23072 34.6244 7.36718 34.3786 7.60301 34.3105C7.83883 34.2424 8.08652 34.3786 8.15326 34.614C9.51333 39.3144 11.793 40.0517 13.997 40.7638C15.3333 41.1961 16.7097 41.6402 17.7894 42.9326C18.8692 41.6417 20.2456 41.1961 21.5819 40.7638C23.7859 40.0517 26.0656 39.3144 27.4256 34.614C27.4939 34.3786 27.7401 34.2424 27.9759 34.3105C28.2117 34.3786 28.3482 34.6244 28.2799 34.8598C26.7879 40.0132 24.1671 40.8615 21.8563 41.6076C20.3835 42.0843 19.111 42.4944 18.1602 43.9186C18.0772 44.0415 17.9392 44.117 17.7894 44.117Z" fill="#99D5DF"/>
<path id="Vector_7" d="M29.063 38.1246C28.888 38.1246 28.7219 38.021 28.6507 37.8478L27.6214 35.328L25.0733 36.351C24.8449 36.4428 24.5853 36.3318 24.4948 36.1038C24.4029 35.8758 24.5141 35.6182 24.7411 35.5264L27.7 34.3391C27.9284 34.2473 28.185 34.3569 28.2784 34.5834L29.4753 37.5117C29.5688 37.7382 29.459 37.9988 29.2321 38.0906C29.1772 38.1128 29.1209 38.1231 29.0645 38.1231L29.063 38.1246Z" fill="#99D5DF"/>
<path id="Vector_8" d="M34.401 52.9996H1.17786C0.931656 52.9996 0.73291 52.8012 0.73291 52.5554V8.73417C0.73291 8.48842 0.931656 8.29004 1.17786 8.29004H34.401C34.6472 8.29004 34.8459 8.48842 34.8459 8.73417V52.5554C34.8459 52.8012 34.6472 52.9996 34.401 52.9996ZM1.62282 52.1113H33.956V9.17831H1.62282V52.1113Z" fill="#99D5DF"/>
<path id="Vector_9" d="M1.17786 9.17876C0.931656 9.17876 0.73291 8.98038 0.73291 8.73462V7.64057C0.73291 7.43923 0.869359 7.26306 1.06366 7.21125L28.3541 0.0147844C28.4876 -0.0207463 28.63 0.00886551 28.7397 0.0917706C28.8495 0.176156 28.9132 0.306436 28.9132 0.444118V5.18155C28.9132 5.4273 28.7145 5.62568 28.4683 5.62568C28.2221 5.62568 28.0233 5.4273 28.0233 5.18155V1.0215L1.62282 7.98404V8.73611C1.62282 8.98186 1.42407 9.18024 1.17786 9.18024V9.17876Z" fill="#99D5DF"/>
</g>
</svg>
