<svg width="54" height="54" viewBox="0 0 54 54" fill="none" xmlns="http://www.w3.org/2000/svg">
<g id="Vector">
<path id="Vector_2" d="M41.7757 49.2751C41.5972 49.2751 41.4315 49.1639 41.3701 48.9872C40.5804 46.6979 39.3223 45.3294 38.0056 45.3294H15.4033C14.0866 45.3294 12.8284 46.6964 12.0387 48.9872C11.9616 49.211 11.7174 49.3293 11.4946 49.2523C11.2704 49.1753 11.1519 48.9316 11.229 48.7092C12.1444 46.0578 13.7039 44.4756 15.4033 44.4756H38.0056C39.705 44.4756 41.2659 46.0578 42.1799 48.7092C42.257 48.933 42.1384 49.1753 41.9142 49.2523C41.8685 49.268 41.8214 49.2751 41.7743 49.2751H41.7757Z" fill="#99D5DF"/>
<path id="Vector_3" d="M36.9874 45.3292C36.7803 45.3292 36.599 45.1795 36.5647 44.9686L31.9948 16.4594C31.9805 16.371 31.9948 16.2812 32.0348 16.2L32.8674 14.5379H20.5444L21.377 16.2C21.417 16.2798 21.4313 16.371 21.417 16.4594L16.8471 44.9686C16.81 45.2023 16.5901 45.3606 16.3559 45.3235C16.1217 45.2864 15.9631 45.0669 16.0003 44.8331L20.5487 16.4594L19.4677 14.3013C19.4005 14.1687 19.4077 14.0119 19.4862 13.885C19.5648 13.7596 19.7019 13.6826 19.8504 13.6826H33.56C33.7085 13.6826 33.847 13.7596 33.9242 13.885C34.0027 14.0105 34.0098 14.1687 33.9427 14.3013L32.8617 16.4594L37.4101 44.8331C37.4472 45.0669 37.2887 45.285 37.0545 45.3235C37.0317 45.3278 37.0088 45.3292 36.986 45.3292H36.9874Z" fill="#99D5DF"/>
<path id="Vector_4" d="M31.2751 14.5393C31.038 14.5393 30.8467 14.3483 30.8467 14.1116V7.26943C30.8467 7.03281 31.038 6.8418 31.2751 6.8418C31.5122 6.8418 31.7035 7.03281 31.7035 7.26943V14.1116C31.7035 14.3483 31.5122 14.5393 31.2751 14.5393Z" fill="#99D5DF"/>
<path id="Vector_5" d="M22.1353 14.5393C21.8983 14.5393 21.7069 14.3483 21.7069 14.1116V7.26943C21.7069 7.03281 21.8983 6.8418 22.1353 6.8418C22.3724 6.8418 22.5638 7.03281 22.5638 7.26943V14.1116C22.5638 14.3483 22.3724 14.5393 22.1353 14.5393Z" fill="#99D5DF"/>
<path id="Vector_6" d="M26.7052 1.99564C26.4681 1.99564 26.2767 1.80463 26.2767 1.568V0.427637C26.2767 0.191011 26.4681 0 26.7052 0C26.9422 0 27.1336 0.191011 27.1336 0.427637V1.568C27.1336 1.80463 26.9422 1.99564 26.7052 1.99564Z" fill="#99D5DF"/>
<path id="Vector_7" d="M30.1326 45.3293C29.8955 45.3293 29.7042 45.1383 29.7042 44.9017V41.4806C29.7042 39.8299 28.3589 38.4871 26.7052 38.4871C25.0515 38.4871 23.7062 39.8299 23.7062 41.4806V44.9017C23.7062 45.1383 23.5149 45.3293 23.2778 45.3293C23.0407 45.3293 22.8494 45.1383 22.8494 44.9017V41.4806C22.8494 39.3581 24.5788 37.6318 26.7052 37.6318C28.8316 37.6318 30.561 39.3581 30.561 41.4806V44.9017C30.561 45.1383 30.3697 45.3293 30.1326 45.3293Z" fill="#99D5DF"/>
<path id="Vector_8" d="M11.853 9.97832H6.14071C5.90364 9.97832 5.71228 9.78731 5.71228 9.55068C5.71228 9.31406 5.90364 9.12305 6.14071 9.12305H11.853C12.0901 9.12305 12.2815 9.31406 12.2815 9.55068C12.2815 9.78731 12.0901 9.97832 11.853 9.97832Z" fill="#99D5DF"/>
<path id="Vector_9" d="M14.1809 4.41151C14.1223 4.41151 14.0638 4.40011 14.0067 4.37445L8.78845 2.05523C8.57281 1.95972 8.4757 1.70599 8.57139 1.49075C8.66707 1.2755 8.92126 1.17857 9.1369 1.27408L14.3551 3.5933C14.5708 3.6888 14.6679 3.94253 14.5722 4.15778C14.5008 4.31743 14.3451 4.41151 14.1809 4.41151Z" fill="#99D5DF"/>
<path id="Vector_10" d="M33.56 7.69707H19.8504C19.6134 7.69707 19.422 7.50606 19.422 7.26943C19.422 7.03281 19.6134 6.8418 19.8504 6.8418H33.56C33.7971 6.8418 33.9885 7.03281 33.9885 7.26943C33.9885 7.50606 33.7971 7.69707 33.56 7.69707Z" fill="#99D5DF"/>
<path id="Vector_11" d="M20.2846 21.2439C20.0803 21.2439 19.9004 21.0985 19.8633 20.8918C19.8219 20.6595 19.9761 20.4371 20.2103 20.3958L32.6961 18.1692C32.9288 18.1264 33.1516 18.2818 33.193 18.5156C33.2344 18.7479 33.0802 18.9703 32.846 19.0116L20.3603 21.2382C20.3346 21.2425 20.3088 21.2453 20.2846 21.2453V21.2439Z" fill="#99D5DF"/>
<path id="Vector_12" d="M19.1063 28.5871C18.9035 28.5871 18.7236 28.4432 18.685 28.2365C18.6422 28.0041 18.7964 27.7818 19.0277 27.7376L33.7884 25.0149C34.0212 24.9722 34.244 25.1261 34.2882 25.3571C34.3311 25.5894 34.1769 25.8118 33.9455 25.856L19.1848 28.5786C19.1591 28.5829 19.132 28.5857 19.1063 28.5857V28.5871Z" fill="#99D5DF"/>
<path id="Vector_13" d="M17.9282 35.9328C17.7269 35.9328 17.5469 35.7903 17.5084 35.585C17.4641 35.3527 17.6169 35.1289 17.8497 35.0847L34.8853 31.866C35.1181 31.8218 35.3423 31.9744 35.3866 32.2067C35.4308 32.4391 35.278 32.6628 35.0452 32.707L18.0096 35.9257C17.9825 35.9314 17.9554 35.9328 17.9297 35.9328H17.9282Z" fill="#99D5DF"/>
<path id="Vector_14" d="M8.96265 17.8639C8.79842 17.8639 8.64276 17.7698 8.57136 17.6101C8.47568 17.3949 8.57135 17.1412 8.78842 17.0457L14.0066 14.7264C14.2223 14.6309 14.4765 14.7264 14.5722 14.9431C14.6678 15.1584 14.5722 15.4121 14.3551 15.5076L9.13688 17.8268C9.07975 17.8525 9.0212 17.8639 8.96265 17.8639Z" fill="#99D5DF"/>
<path id="Vector_15" d="M47.2695 9.97832H41.5572C41.3201 9.97832 41.1288 9.78731 41.1288 9.55068C41.1288 9.31406 41.3201 9.12305 41.5572 9.12305H47.2695C47.5066 9.12305 47.698 9.31406 47.698 9.55068C47.698 9.78731 47.5066 9.97832 47.2695 9.97832Z" fill="#99D5DF"/>
<path id="Vector_16" d="M39.2295 4.41173C39.0653 4.41173 38.9096 4.31765 38.8382 4.15799C38.7425 3.94275 38.8382 3.68902 39.0553 3.59351L44.2735 1.27429C44.4891 1.17879 44.7433 1.27429 44.839 1.49096C44.9347 1.70621 44.839 1.95994 44.6219 2.05544L39.4037 4.37466C39.3466 4.40032 39.2881 4.41173 39.2295 4.41173Z" fill="#99D5DF"/>
<path id="Vector_17" d="M44.4477 17.8637C44.3892 17.8637 44.3306 17.8523 44.2735 17.8266L39.0553 15.5074C38.8397 15.4119 38.7426 15.1581 38.8382 14.9429C38.9339 14.7277 39.1881 14.6307 39.4037 14.7262L44.622 17.0454C44.8376 17.141 44.9347 17.3947 44.839 17.6099C44.7676 17.7696 44.612 17.8637 44.4477 17.8637Z" fill="#99D5DF"/>
<path id="Vector_18" d="M32.4176 7.69773C32.1805 7.69773 31.9891 7.50672 31.9891 7.27009C31.9891 4.36216 29.6185 1.9959 26.7052 1.9959C23.7919 1.9959 21.4213 4.36216 21.4213 7.27009C21.4213 7.50672 21.2299 7.69773 20.9929 7.69773C20.7558 7.69773 20.5645 7.50672 20.5645 7.27009C20.5645 3.89033 23.3192 1.14062 26.7052 1.14062C30.0912 1.14062 32.846 3.89033 32.846 7.27009C32.846 7.50672 32.6546 7.69773 32.4176 7.69773Z" fill="#99D5DF"/>
<path id="Vector_19" d="M52.9819 53.3118C50.6399 53.3118 48.6149 52.5791 47.7266 51.4872C46.8383 52.5791 44.8133 53.3118 42.4712 53.3118C40.1292 53.3118 38.1041 52.5791 37.2159 51.4872C36.3276 52.5791 34.3026 53.3118 31.9605 53.3118C29.6185 53.3118 27.5934 52.5791 26.7052 51.4872C25.8169 52.5791 23.7919 53.3118 21.4498 53.3118C19.1078 53.3118 17.0828 52.5791 16.1945 51.4872C15.3062 52.5791 13.2812 53.3118 10.9391 53.3118C8.59706 53.3118 6.57204 52.5791 5.68377 51.4872C4.79551 52.5791 2.77048 53.3118 0.428425 53.3118C0.191363 53.3118 0 53.1208 0 52.8842C0 52.6475 0.191363 52.4565 0.428425 52.4565C3.10894 52.4565 4.99544 51.4544 5.27106 50.4865C5.3239 50.3026 5.49098 50.1758 5.68377 50.1758C5.87657 50.1758 6.04365 50.3026 6.09649 50.4865C6.37211 51.4544 8.26004 52.4565 10.9406 52.4565C13.6211 52.4565 15.5076 51.4544 15.7832 50.4865C15.836 50.3026 16.0031 50.1758 16.1959 50.1758C16.3887 50.1758 16.5558 50.3026 16.6086 50.4865C16.8842 51.4544 18.7722 52.4565 21.4527 52.4565C24.1332 52.4565 26.0197 51.4544 26.2953 50.4865C26.3482 50.3026 26.5152 50.1758 26.708 50.1758C26.9008 50.1758 27.0679 50.3026 27.1207 50.4865C27.3964 51.4544 29.2843 52.4565 31.9634 52.4565C34.6425 52.4565 36.5304 51.4544 36.8074 50.4865C36.8603 50.3026 37.0274 50.1758 37.2202 50.1758C37.413 50.1758 37.58 50.3026 37.6329 50.4865C37.9085 51.4544 39.7964 52.4565 42.4755 52.4565C45.1546 52.4565 47.0425 51.4544 47.3196 50.4865C47.3724 50.3026 47.5395 50.1758 47.7323 50.1758C47.9251 50.1758 48.0922 50.3026 48.145 50.4865C48.4206 51.4544 50.3086 52.4565 52.9876 52.4565C53.2247 52.4565 53.4161 52.6475 53.4161 52.8842C53.4161 53.1208 53.2247 53.3118 52.9876 53.3118H52.9819Z" fill="#99D5DF"/>
</g>
</svg>
