<svg width="54" height="41" viewBox="0 0 54 41" fill="none" xmlns="http://www.w3.org/2000/svg">
<g id="Vector">
<path id="Vector_2" d="M49.5545 12.2589H37.5586C37.3216 12.2589 37.1302 12.0679 37.1302 11.8313C37.1302 11.5947 37.3216 11.4037 37.5586 11.4037H49.5545C49.9487 11.4037 50.2686 11.0844 50.2686 10.6909V3.84874C50.2686 2.19806 48.9233 0.855275 47.2696 0.855275H26.7052C25.0515 0.855275 23.7062 2.19806 23.7062 3.84874V10.6909C23.7062 11.0844 24.0261 11.4037 24.4203 11.4037H31.8463C32.0834 11.4037 32.2747 11.5947 32.2747 11.8313C32.2747 12.0679 32.0834 12.2589 31.8463 12.2589H24.4203C23.5534 12.2589 22.8494 11.5562 22.8494 10.6909V3.84874C22.8494 1.72623 24.5788 0 26.7052 0H47.2696C49.396 0 51.1254 1.72623 51.1254 3.84874V10.6909C51.1254 11.5562 50.4214 12.2589 49.5545 12.2589Z" fill="#99D5DF"/>
<path id="Vector_3" d="M16.2588 20.4282C16.0788 20.4282 15.9117 20.3142 15.8518 20.1346C15.7775 19.9108 15.8989 19.6684 16.1245 19.5943L24.1904 16.9358C24.4146 16.8617 24.6573 16.9829 24.7316 17.2081C24.8059 17.4319 24.6845 17.6742 24.4588 17.7483L16.393 20.4068C16.3487 20.4211 16.303 20.4282 16.2588 20.4282Z" fill="#99D5DF"/>
<path id="Vector_4" d="M27.8476 36.2065C27.6106 36.2065 27.4192 36.0155 27.4192 35.7789V30.0771C27.4192 29.8404 27.6106 29.6494 27.8476 29.6494C28.0847 29.6494 28.276 29.8404 28.276 30.0771V35.7789C28.276 36.0155 28.0847 36.2065 27.8476 36.2065Z" fill="#99D5DF"/>
<path id="Vector_5" d="M52.9819 40.7684H15.2805C15.0434 40.7684 14.8521 40.5773 14.8521 40.3407C14.8521 40.1041 15.0434 39.9131 15.2805 39.9131H52.9819C53.219 39.9131 53.4103 40.1041 53.4103 40.3407C53.4103 40.5773 53.219 40.7684 52.9819 40.7684Z" fill="#99D5DF"/>
<path id="Vector_6" d="M3.85583 29.3641H0.428425C0.191363 29.3641 0 29.1731 0 28.9364C0 28.6998 0.191363 28.5088 0.428425 28.5088H3.85583C4.09289 28.5088 4.28425 28.6998 4.28425 28.9364C4.28425 29.1731 4.09289 29.3641 3.85583 29.3641Z" fill="#99D5DF"/>
<path id="Vector_7" d="M9.56817 21.3816H0.428425C0.191363 21.3816 0 21.1906 0 20.954C0 20.7174 0.191363 20.5264 0.428425 20.5264H9.56817C9.80523 20.5264 9.99659 20.7174 9.99659 20.954C9.99659 21.1906 9.80523 21.3816 9.56817 21.3816Z" fill="#99D5DF"/>
<path id="Vector_8" d="M8.98974 30.6706C6.63911 30.6706 3.92289 30.2359 3.45877 29.0983C3.41164 28.9815 3.41735 28.8489 3.47733 28.7377C3.53731 28.6265 3.64156 28.5467 3.76581 28.5196C5.5352 28.1376 7.74731 26.142 8.80267 23.9781C9.37104 22.8135 9.50529 21.8071 9.18254 21.1415C9.11256 20.9975 9.12826 20.8264 9.22537 20.6981C9.97654 19.696 11.2333 19.0617 12.767 18.9135C14.1209 18.7823 15.509 19.0517 16.48 19.6347C16.56 19.6832 16.6214 19.7545 16.6557 19.8414C17.5168 21.9725 16.5457 24.966 15.4532 26.8818C14.2822 28.933 12.747 30.2858 11.3475 30.501C10.7063 30.6093 9.87372 30.6706 8.98974 30.6706ZM4.68122 29.134C5.81369 29.6942 8.87692 30.0534 11.2104 29.6571C12.3443 29.4832 13.6824 28.2588 14.7092 26.4599C15.9659 24.2575 16.4386 21.8086 15.9131 20.2976C14.3979 19.4808 11.4546 19.4509 10.0622 21.0288C10.3664 21.9112 10.1965 23.0772 9.57526 24.353C8.67985 26.1876 6.73766 28.3414 4.68264 29.134H4.68122Z" fill="#99D5DF"/>
<path id="Vector_9" d="M27.8476 22.5219C27.6106 22.5219 27.4192 22.3309 27.4192 22.0943V11.831C27.4192 11.5943 27.6106 11.4033 27.8476 11.4033C28.0847 11.4033 28.276 11.5943 28.276 11.831V22.0943C28.276 22.3309 28.0847 22.5219 27.8476 22.5219Z" fill="#99D5DF"/>
<path id="Vector_10" d="M46.1272 19.1008C45.8901 19.1008 45.6987 18.9098 45.6987 18.6732V11.831C45.6987 11.5943 45.8901 11.4033 46.1272 11.4033C46.3642 11.4033 46.5556 11.5943 46.5556 11.831V18.6732C46.5556 18.9098 46.3642 19.1008 46.1272 19.1008Z" fill="#99D5DF"/>
<path id="Vector_11" d="M39.2724 22.5225H16.5358C16.2988 22.5225 16.1074 22.3315 16.1074 22.0948C16.1074 21.8582 16.2988 21.6672 16.5358 21.6672H39.2724C45.2146 21.6672 45.6988 20.3116 45.6988 18.6737C45.6988 18.4371 45.8901 18.2461 46.1272 18.2461C46.3642 18.2461 46.5556 18.4371 46.5556 18.6737C46.5556 21.479 44.582 22.5225 39.2724 22.5225Z" fill="#99D5DF"/>
<path id="Vector_12" d="M38.701 30.5044H11.2818C11.0448 30.5044 10.8534 30.3134 10.8534 30.0767C10.8534 29.8401 11.0448 29.6491 11.2818 29.6491H38.701C42.7839 29.6491 46.1514 28.7311 48.4377 26.9949C50.3542 25.5395 51.411 23.5966 51.411 21.524C51.411 17.681 48.1692 16.2498 46.1271 16.2498C45.89 16.2498 45.6987 16.0588 45.6987 15.8222C45.6987 15.5855 45.89 15.3945 46.1271 15.3945C48.5006 15.3945 52.2678 17.058 52.2678 21.524C52.2678 23.8361 51.0611 26.0783 48.9575 27.6763C46.5198 29.5265 42.9739 30.5044 38.701 30.5044Z" fill="#99D5DF"/>
<path id="Vector_13" d="M19.7304 30.5044C19.4934 30.5044 19.302 30.3134 19.302 30.0768C19.302 29.8401 19.4934 29.6491 19.7304 29.6491C22.2881 29.6491 24.663 26.5031 25.1757 24.3364C25.2814 23.8874 25.4585 22.8055 24.7987 22.4776C24.5873 22.3721 24.5017 22.1156 24.6073 21.9032C24.713 21.6922 24.9701 21.6067 25.1814 21.7122C26.0311 22.1355 26.3325 23.1647 26.0083 24.5332C25.4185 27.0263 22.7451 30.5044 19.729 30.5044H19.7304Z" fill="#99D5DF"/>
<path id="Vector_14" d="M35.7249 30.5046C35.4879 30.5046 35.2965 30.3135 35.2965 30.0769C35.2965 29.8403 35.4879 29.6493 35.7249 29.6493C37.4443 29.6493 40.4347 27.5581 41.2102 24.2796C41.3159 23.832 41.4915 22.7558 40.8389 22.4308C40.6275 22.3253 40.5419 22.0687 40.6475 21.8563C40.7532 21.6453 41.0103 21.5598 41.2231 21.6653C42.0685 22.0872 42.367 23.1107 42.0442 24.4763C41.4487 26.9936 38.7568 30.5046 35.7249 30.5046Z" fill="#99D5DF"/>
<path id="Vector_15" d="M50.697 40.768C50.46 40.768 50.2686 40.577 50.2686 40.3404V38.0596C50.2686 37.0376 49.436 36.2065 48.4121 36.2065C46.9155 36.2065 45.6987 34.992 45.6987 33.4982V28.787C45.6987 28.5504 45.8901 28.3594 46.1272 28.3594C46.3642 28.3594 46.5556 28.5504 46.5556 28.787V33.4982C46.5556 34.5202 47.3882 35.3513 48.4121 35.3513C49.9087 35.3513 51.1255 36.5657 51.1255 38.0596V40.3404C51.1255 40.577 50.9341 40.768 50.697 40.768Z" fill="#99D5DF"/>
<path id="Vector_16" d="M23.2778 40.7683C23.0407 40.7683 22.8494 40.5773 22.8494 40.3407V38.0599C22.8494 36.5661 24.0661 35.3516 25.5627 35.3516H32.4175C32.6546 35.3516 32.846 35.5426 32.846 35.7792C32.846 36.0158 32.6546 36.2068 32.4175 36.2068H25.5627C24.5388 36.2068 23.7062 37.0379 23.7062 38.0599V40.3407C23.7062 40.5773 23.5149 40.7683 23.2778 40.7683Z" fill="#99D5DF"/>
</g>
</svg>
