<svg width="54" height="46" viewBox="0 0 54 46" fill="none" xmlns="http://www.w3.org/2000/svg">
<g id="Vector">
<path id="Vector_2" d="M52.9819 38.4876C50.6399 38.4876 48.6148 37.7549 47.7266 36.663C46.8383 37.7549 44.8133 38.4876 42.4712 38.4876C40.1292 38.4876 38.1042 37.7549 37.2159 36.663C36.3276 37.7549 34.3026 38.4876 31.9605 38.4876C29.6185 38.4876 27.5934 37.7549 26.7052 36.663C25.8169 37.7549 23.7919 38.4876 21.4498 38.4876C19.1078 38.4876 17.0827 37.7549 16.1945 36.663C15.3062 37.7549 13.2812 38.4876 10.9391 38.4876C8.59708 38.4876 6.57205 37.7549 5.68378 36.663C4.79552 37.7549 2.77048 38.4876 0.428425 38.4876C0.191363 38.4876 0 38.2966 0 38.0599C0 37.8233 0.191363 37.6323 0.428425 37.6323C3.10894 37.6323 4.99543 36.6302 5.27105 35.6623C5.32389 35.4784 5.49099 35.3516 5.68378 35.3516C5.87657 35.3516 6.04365 35.4784 6.09648 35.6623C6.3721 36.6302 8.26005 37.6323 10.9391 37.6323C13.6182 37.6323 15.5061 36.6302 15.7832 35.6623C15.836 35.4784 16.0031 35.3516 16.1959 35.3516C16.3873 35.3516 16.5558 35.4784 16.6086 35.6623C16.8843 36.6302 18.7722 37.6323 21.4513 37.6323C24.1303 37.6323 26.0183 36.6302 26.2939 35.6623C26.3467 35.4784 26.5138 35.3516 26.7066 35.3516C26.8994 35.3516 27.0665 35.4784 27.1193 35.6623C27.3949 36.6302 29.2829 37.6323 31.962 37.6323C34.6411 37.6323 36.529 36.6302 36.8046 35.6623C36.8574 35.4784 37.0245 35.3516 37.2173 35.3516C37.4101 35.3516 37.5772 35.4784 37.63 35.6623C37.9056 36.6302 39.7936 37.6323 42.4741 37.6323C45.1546 37.6323 47.0411 36.6302 47.3167 35.6623C47.3696 35.4784 47.5366 35.3516 47.7294 35.3516C47.9208 35.3516 48.0893 35.4784 48.1422 35.6623C48.4178 36.6302 50.3057 37.6323 52.9848 37.6323C53.2219 37.6323 53.4132 37.8233 53.4132 38.0599C53.4132 38.2966 53.2219 38.4876 52.9848 38.4876H52.9819Z" fill="#99D5DF"/>
<path id="Vector_3" d="M42.4712 45.3294C40.1292 45.3294 38.1042 44.5967 37.2159 43.5048C36.3277 44.5967 34.3026 45.3294 31.9606 45.3294C29.6185 45.3294 27.5935 44.5967 26.7052 43.5048C25.8169 44.5967 23.7919 45.3294 21.4498 45.3294C19.1078 45.3294 17.0828 44.5967 16.1945 43.5048C15.3062 44.5967 13.2812 45.3294 10.9392 45.3294C10.7021 45.3294 10.5107 45.1384 10.5107 44.9017C10.5107 44.6651 10.7021 44.4741 10.9392 44.4741C13.6197 44.4741 15.5062 43.472 15.7832 42.5041C15.8361 42.3202 16.0031 42.1934 16.1959 42.1934C16.3873 42.1934 16.5558 42.3202 16.6087 42.5041C16.8843 43.472 18.7722 44.4741 21.4513 44.4741C24.1304 44.4741 26.0183 43.472 26.2939 42.5041C26.3468 42.3202 26.5138 42.1934 26.7066 42.1934C26.8994 42.1934 27.0665 42.3202 27.1193 42.5041C27.395 43.472 29.2829 44.4741 31.962 44.4741C34.6411 44.4741 36.529 43.472 36.8046 42.5041C36.8575 42.3202 37.0246 42.1934 37.2174 42.1934C37.4101 42.1934 37.5772 42.3202 37.6301 42.5041C37.9057 43.472 39.7936 44.4741 42.4741 44.4741C42.7112 44.4741 42.9025 44.6651 42.9025 44.9017C42.9025 45.1384 42.7112 45.3294 42.4741 45.3294H42.4712Z" fill="#99D5DF"/>
<path id="Vector_4" d="M38.5583 30.0775H37.7014V6.55742H15.7089V30.0775H14.8521V6.12979C14.8521 5.89316 15.0434 5.70215 15.2805 5.70215H38.1298C38.3669 5.70215 38.5583 5.89316 38.5583 6.12979V30.0775Z" fill="#99D5DF"/>
<path id="Vector_5" d="M35.1309 6.12947H34.2741V0.855275H19.1364V6.12947H18.2795V0.427637C18.2795 0.191011 18.4709 0 18.708 0H34.7025C34.9396 0 35.1309 0.191011 35.1309 0.427637V6.12947Z" fill="#99D5DF"/>
<path id="Vector_6" d="M30.561 30.0767H29.7042V24.8025H23.7062V30.0767H22.8494V24.3749C22.8494 24.1383 23.0407 23.9473 23.2778 23.9473H30.1326C30.3697 23.9473 30.561 24.1383 30.561 24.3749V30.0767Z" fill="#99D5DF"/>
<path id="Vector_7" d="M24.4203 17.9607C24.1832 17.9607 23.9919 17.7697 23.9919 17.533V13.3992H20.2788V17.533C20.2788 17.7697 20.0875 17.9607 19.8504 17.9607C19.6134 17.9607 19.422 17.7697 19.422 17.533V12.9716C19.422 12.735 19.6134 12.5439 19.8504 12.5439H24.4203C24.6574 12.5439 24.8487 12.735 24.8487 12.9716V17.533C24.8487 17.7697 24.6574 17.9607 24.4203 17.9607Z" fill="#99D5DF"/>
<path id="Vector_8" d="M33.5599 17.9607C33.3229 17.9607 33.1315 17.7697 33.1315 17.533V13.3992H29.4185V17.533C29.4185 17.7697 29.2271 17.9607 28.9901 17.9607C28.753 17.9607 28.5616 17.7697 28.5616 17.533V12.9716C28.5616 12.735 28.753 12.5439 28.9901 12.5439H33.5599C33.797 12.5439 33.9884 12.735 33.9884 12.9716V17.533C33.9884 17.7697 33.797 17.9607 33.5599 17.9607Z" fill="#99D5DF"/>
<path id="Vector_9" d="M51.8395 30.5047H1.57088C1.33382 30.5047 1.14246 30.3137 1.14246 30.0771C1.14246 29.8404 1.33382 29.6494 1.57088 29.6494H51.8395C52.0765 29.6494 52.2679 29.8404 52.2679 30.0771C52.2679 30.3137 52.0765 30.5047 51.8395 30.5047Z" fill="#99D5DF"/>
<path id="Vector_10" d="M46.5556 30.0769H45.6987V16.8201H38.1299V15.9648H46.1272C46.3642 15.9648 46.5556 16.1559 46.5556 16.3925V30.0769Z" fill="#99D5DF"/>
<path id="Vector_11" d="M11.8531 18.2461H8.42566V19.1014H11.8531V18.2461Z" fill="#99D5DF"/>
<path id="Vector_12" d="M11.8531 23.9473H8.42566V24.8025H11.8531V23.9473Z" fill="#99D5DF"/>
<path id="Vector_13" d="M5.42667 30.0771H4.56982V12.9716C4.56982 12.735 4.76119 12.5439 4.99825 12.5439H15.2805V13.3992H5.42667V30.0771Z" fill="#99D5DF"/>
<path id="Vector_14" d="M8.85417 12.9715H7.99731V8.41006C7.99731 8.17343 8.18868 7.98242 8.42574 7.98242H15.2805V8.8377H8.85417V12.9715Z" fill="#99D5DF"/>
<path id="Vector_15" d="M44.2706 16.3924H43.4138V12.2586H38.1299V11.4033H43.8422C44.0793 11.4033 44.2706 11.5943 44.2706 11.831V16.3924Z" fill="#99D5DF"/>
</g>
</svg>
