<svg width="54" height="54" viewBox="0 0 54 54" fill="none" xmlns="http://www.w3.org/2000/svg">
<g id="Vector">
<path id="Vector_2" d="M15.9366 49.8157C15.7624 49.8157 15.5996 49.7088 15.5353 49.5363L12.5949 41.6293C12.5478 41.5038 12.5635 41.3641 12.6349 41.2515C12.7063 41.1389 12.8277 41.0662 12.9605 41.0548L26.6701 39.9144C26.9043 39.8959 27.1128 40.0698 27.1328 40.305C27.1528 40.5402 26.9771 40.7469 26.7415 40.7669L13.5946 41.8602L16.3379 49.2384C16.4207 49.4593 16.3065 49.7059 16.0851 49.7886C16.0366 49.8071 15.9852 49.8157 15.9366 49.8157Z" fill="#99D5DF"/>
<path id="Vector_3" d="M26.7058 49.3211C26.4687 49.3211 26.2773 49.1301 26.2773 48.8935V40.3407C26.2773 40.1041 26.4687 39.9131 26.7058 39.9131C26.9428 39.9131 27.1342 40.1041 27.1342 40.3407V48.8935C27.1342 49.1301 26.9428 49.3211 26.7058 49.3211Z" fill="#99D5DF"/>
<path id="Vector_4" d="M17.4632 41.4948C17.4047 41.4948 17.3447 41.4819 17.2876 41.4563C17.0719 41.3593 16.9762 41.1056 17.0733 40.8904L19.4611 35.6019C19.5297 35.448 19.6839 35.3496 19.851 35.3496H26.7058C26.9428 35.3496 27.1342 35.5406 27.1342 35.7772C27.1342 36.0139 26.9428 36.2049 26.7058 36.2049H20.128L17.8545 41.241C17.7831 41.3993 17.6274 41.4933 17.4632 41.4933V41.4948Z" fill="#99D5DF"/>
<path id="Vector_5" d="M37.4749 49.8157C37.425 49.8157 37.375 49.8071 37.3264 49.7886C37.1051 49.7059 36.9908 49.4607 37.0737 49.2384L39.817 41.8602L26.6701 40.7669C26.4344 40.7469 26.2588 40.5402 26.2788 40.305C26.2988 40.0698 26.5058 39.8959 26.7415 39.9144L40.4511 41.0548C40.5853 41.0662 40.7053 41.1389 40.7767 41.2515C40.8481 41.3641 40.8638 41.5038 40.8167 41.6293L37.8762 49.5363C37.812 49.7088 37.6492 49.8157 37.4749 49.8157Z" fill="#99D5DF"/>
<path id="Vector_6" d="M35.9483 41.4953C35.7855 41.4953 35.6284 41.4012 35.557 41.243L33.2835 36.2068H26.7058C26.4687 36.2068 26.2773 36.0158 26.2773 35.7792C26.2773 35.5426 26.4687 35.3516 26.7058 35.3516H33.5606C33.7291 35.3516 33.8819 35.4499 33.9504 35.6039L36.3382 40.8923C36.4353 41.1076 36.3382 41.3613 36.124 41.4582C36.0669 41.4839 36.0069 41.4967 35.9483 41.4967V41.4953Z" fill="#99D5DF"/>
<path id="Vector_7" d="M26.7058 36.2066C26.4687 36.2066 26.2773 36.0156 26.2773 35.779V0.427637C26.2773 0.191011 26.4687 0 26.7058 0C26.9428 0 27.1342 0.191011 27.1342 0.427637V35.779C27.1342 36.0156 26.9428 36.2066 26.7058 36.2066Z" fill="#99D5DF"/>
<path id="Vector_8" d="M26.7058 31.6453H16.4236C16.2836 31.6453 16.1537 31.5769 16.0737 31.4643C15.9937 31.3502 15.9737 31.2048 16.0209 31.0737L26.3031 2.56454C26.383 2.34217 26.6287 2.22671 26.8515 2.30653C27.0742 2.38636 27.1899 2.63154 27.1099 2.85391L17.0348 30.79H26.7072C26.9443 30.79 27.1356 30.981 27.1356 31.2177C27.1356 31.4543 26.9443 31.6453 26.7072 31.6453H26.7058Z" fill="#99D5DF"/>
<path id="Vector_9" d="M41.5578 31.6447H30.1331C29.8961 31.6447 29.7047 31.4537 29.7047 31.2171C29.7047 30.9805 29.8961 30.7895 30.1331 30.7895H40.8923L29.7433 6.30581C29.6447 6.09056 29.7404 5.83684 29.9561 5.73991C30.1717 5.64155 30.4259 5.73705 30.523 5.9523L41.9477 31.0404C42.0077 31.1729 41.9962 31.3269 41.9177 31.4495C41.8391 31.572 41.7035 31.6462 41.5578 31.6462V31.6447Z" fill="#99D5DF"/>
<path id="Vector_10" d="M47.7272 53.3122C45.3851 53.3122 43.3601 52.5796 42.4718 51.4877C41.5836 52.5796 39.5585 53.3122 37.2165 53.3122C34.8744 53.3122 32.8494 52.5796 31.9611 51.4877C31.0729 52.5796 29.0478 53.3122 26.7058 53.3122C24.3637 53.3122 22.3387 52.5796 21.4504 51.4877C20.5622 52.5796 18.5371 53.3122 16.1951 53.3122C13.853 53.3122 11.828 52.5796 10.9397 51.4877C10.0515 52.5796 8.02643 53.3122 5.68437 53.3122C2.8282 53.3122 0.44473 52.2218 0.0163047 50.7208C-0.0479591 50.4941 0.0834243 50.2575 0.31049 50.1919C0.537555 50.1278 0.77462 50.2589 0.840312 50.4856C1.11593 51.4534 3.00386 52.4555 5.68294 52.4555C8.36203 52.4555 10.25 51.4534 10.527 50.4856C10.5799 50.3017 10.7469 50.1748 10.9397 50.1748C11.1325 50.1748 11.2996 50.3017 11.3524 50.4856C11.6281 51.4534 13.516 52.4555 16.1951 52.4555C18.8742 52.4555 20.7621 51.4534 21.0391 50.4856C21.092 50.3017 21.2591 50.1748 21.4519 50.1748C21.6446 50.1748 21.8117 50.3017 21.8646 50.4856C22.1402 51.4534 24.0281 52.4555 26.7072 52.4555C29.3863 52.4555 31.2742 51.4534 31.5498 50.4856C31.6027 50.3017 31.7698 50.1748 31.9626 50.1748C32.1553 50.1748 32.3224 50.3017 32.3753 50.4856C32.6509 51.4534 34.5388 52.4555 37.2193 52.4555C39.8998 52.4555 41.7864 51.4534 42.062 50.4856C42.1148 50.3017 42.2819 50.1748 42.4747 50.1748C42.6675 50.1748 42.8346 50.3017 42.8874 50.4856C43.163 51.4534 45.0509 52.4555 47.7315 52.4555C50.412 52.4555 52.2985 51.4534 52.5741 50.4856C52.6384 50.2589 52.8754 50.1263 53.1039 50.1919C53.331 50.2561 53.4638 50.4927 53.3981 50.7208C52.9697 52.2218 50.5862 53.3122 47.73 53.3122H47.7272Z" fill="#99D5DF"/>
<path id="Vector_11" d="M16.8506 3.93444C15.9524 3.93444 14.967 3.64365 13.8802 2.82544C13.6917 2.68289 13.6531 2.4149 13.796 2.22674C13.9388 2.03858 14.2072 2.0001 14.3957 2.14265C16.5693 3.77622 18.1787 2.92949 19.7368 2.10986C20.1438 1.89604 20.5279 1.69362 20.9178 1.53825C22.9328 0.734288 25.0764 1.26028 26.7972 2.98081C26.9643 3.14759 26.9643 3.41843 26.7972 3.58521C26.6302 3.75199 26.3588 3.75199 26.1917 3.58521C24.7237 2.11841 22.9171 1.66084 21.2363 2.33223C20.8893 2.4705 20.5237 2.66293 20.1367 2.86677C19.1884 3.36568 18.1059 3.93587 16.8506 3.93587V3.93444Z" fill="#99D5DF"/>
</g>
</svg>
