<svg width="54" height="33" viewBox="0 0 54 33" fill="none" xmlns="http://www.w3.org/2000/svg">
<g id="Vector">
<path id="Vector_2" d="M43.8422 28.2242C43.8093 28.2242 43.7751 28.2199 43.7408 28.2128C43.5109 28.1572 43.3695 27.9263 43.4252 27.6968C44.0878 24.9542 45.7429 23.0797 47.4952 21.0955C49.9201 18.35 52.425 15.5148 52.5478 9.97975C33.4986 10.061 20.1288 15.492 7.19467 20.7462C5.84798 21.2936 4.45703 21.8581 3.08607 22.4055L1.98931 27.8806C1.94361 28.113 1.71654 28.2627 1.48519 28.2156C1.25384 28.1686 1.10247 27.9434 1.14959 27.7124L2.29206 22.0106C2.32062 21.8695 2.41915 21.7512 2.55339 21.697C3.99005 21.124 5.45526 20.5296 6.87192 19.9537C19.9803 14.6282 33.5343 9.12305 52.9805 9.12305C53.2175 9.12305 53.4089 9.31406 53.4089 9.55068C53.4089 15.693 50.6084 18.8632 48.1378 21.6614C46.4584 23.5644 44.8704 25.3604 44.2578 27.8978C44.2106 28.093 44.035 28.2256 43.8422 28.2256V28.2242Z" fill="#99D5DF"/>
<path id="Vector_3" d="M4.72844 21.7266C4.69273 21.7266 4.65703 21.7223 4.62133 21.7123C4.39284 21.6539 4.25431 21.4201 4.31286 21.192L5.72524 15.7154C5.75665 15.5942 5.83949 15.493 5.95089 15.4374C13.9996 11.5003 23.8905 7.90531 32.4062 5.82272C33.5129 5.55188 34.6968 5.41504 35.925 5.41504H43.7251C44.3578 5.41504 44.9247 5.78994 45.1718 6.37152L46.5513 9.62014C46.6441 9.83823 46.5413 10.0891 46.3243 10.1803C46.1058 10.273 45.8544 10.1704 45.763 9.9537L44.3835 6.70508C44.2721 6.44137 44.0136 6.27031 43.7266 6.27031H35.9264C34.7668 6.27031 33.6514 6.39861 32.6104 6.65376C24.2132 8.70642 14.4694 12.2401 6.50498 16.1188L5.14116 21.4044C5.09117 21.5968 4.91694 21.7251 4.72701 21.7251L4.72844 21.7266Z" fill="#99D5DF"/>
<path id="Vector_4" d="M8.05298 15.3351C8.0187 15.3351 7.98443 15.3309 7.95016 15.3223C7.72024 15.2653 7.58027 15.0344 7.6374 14.8049L8.96266 9.448C8.9898 9.33682 9.0612 9.24131 9.15831 9.18286C14.1766 6.1894 23.9433 3.17884 28.636 1.732L28.8287 1.67212C30.2825 1.22311 31.7934 0.996458 33.3201 0.995032L38.704 0.992188C39.368 0.992188 39.9621 1.41127 40.1849 2.03704L41.4859 5.70047C41.5644 5.92284 41.4487 6.16802 41.2245 6.24642C41.0017 6.32482 40.7561 6.20936 40.6776 5.98556L39.3766 2.32213C39.2752 2.03847 39.0053 1.84746 38.704 1.84746L33.3201 1.85031C31.8806 1.85031 30.4539 2.06556 29.0815 2.48892L28.8887 2.54878C24.2746 3.97139 14.725 6.91496 9.75097 9.82574L8.46855 15.0087C8.42 15.204 8.24577 15.3337 8.05298 15.3337V15.3351Z" fill="#99D5DF"/>
<path id="Vector_5" d="M16.4229 6.72388C16.1859 6.72388 15.9945 6.53287 15.9945 6.29624V1.35276C15.9945 0.701324 16.8442 0 18.7079 0C20.5715 0 21.4212 0.701324 21.4212 1.35276V4.64414C21.4212 4.88077 21.2299 5.07178 20.9928 5.07178C20.7557 5.07178 20.5644 4.88077 20.5644 4.64414V1.35276C20.5187 1.22304 19.8775 0.855275 18.7079 0.855275C17.5383 0.855275 16.8971 1.22304 16.8499 1.36274V6.29624C16.8499 6.53287 16.66 6.72388 16.4229 6.72388Z" fill="#99D5DF"/>
<path id="Vector_6" d="M11.8531 8.63354C11.616 8.63354 11.4247 8.44253 11.4247 8.2059V3.63303C11.4247 2.9816 12.2744 2.28027 14.138 2.28027C16.0017 2.28027 16.8514 2.9816 16.8514 3.63303C16.8514 3.86966 16.66 4.06067 16.423 4.06067C16.1859 4.06067 15.9988 3.87251 15.9946 3.64016C15.9389 3.49761 15.2976 3.13555 14.138 3.13555C12.9784 3.13555 12.3272 3.50332 12.2801 3.64301V8.2059C12.2801 8.44253 12.0902 8.63354 11.8531 8.63354Z" fill="#99D5DF"/>
<path id="Vector_7" d="M52.9819 32.7854C50.6399 32.7854 48.6149 32.0527 47.7266 30.9608C46.8383 32.0527 44.8133 32.7854 42.4712 32.7854C40.1292 32.7854 38.1042 32.0527 37.2159 30.9608C36.3276 32.0527 34.3026 32.7854 31.9605 32.7854C29.6185 32.7854 27.5935 32.0527 26.7052 30.9608C25.8169 32.0527 23.7919 32.7854 21.4498 32.7854C19.1078 32.7854 17.0828 32.0527 16.1945 30.9608C15.3062 32.0527 13.2812 32.7854 10.9391 32.7854C8.59707 32.7854 6.57205 32.0527 5.68378 30.9608C4.79552 32.0527 2.77048 32.7854 0.428425 32.7854C0.191363 32.7854 0 32.5944 0 32.3578C0 32.1212 0.191363 31.9301 0.428425 31.9301C3.10894 31.9301 4.99545 30.928 5.27107 29.9602C5.3239 29.7763 5.49099 29.6494 5.68378 29.6494C5.87658 29.6494 6.04365 29.7763 6.09649 29.9602C6.37211 30.928 8.26004 31.9301 10.9406 31.9301C13.6211 31.9301 15.5076 30.928 15.7832 29.9602C15.836 29.7763 16.0031 29.6494 16.1959 29.6494C16.3887 29.6494 16.5558 29.7763 16.6086 29.9602C16.8843 30.928 18.7722 31.9301 21.4527 31.9301C24.1332 31.9301 26.0197 30.928 26.2953 29.9602C26.3482 29.7763 26.5153 29.6494 26.708 29.6494C26.8994 29.6494 27.0679 29.7763 27.1208 29.9602C27.3964 30.928 29.2843 31.9301 31.9634 31.9301C34.6425 31.9301 36.5304 30.928 36.806 29.9602C36.8589 29.7763 37.026 29.6494 37.2187 29.6494C37.4115 29.6494 37.5786 29.7763 37.6315 29.9602C37.9071 30.928 39.795 31.9301 42.4755 31.9301C45.156 31.9301 47.0425 30.928 47.3182 29.9602C47.371 29.7763 47.5381 29.6494 47.7309 29.6494C47.9222 29.6494 48.0908 29.7763 48.1436 29.9602C48.4192 30.928 50.3071 31.9301 52.9862 31.9301C53.2233 31.9301 53.4147 32.1212 53.4147 32.3578C53.4147 32.5944 53.2233 32.7854 52.9862 32.7854H52.9819Z" fill="#99D5DF"/>
<path id="Vector_8" d="M40.4148 16.8201H39.2723C39.0352 16.8201 38.8439 16.6291 38.8439 16.3925C38.8439 16.1559 39.0352 15.9648 39.2723 15.9648H40.4148C40.6518 15.9648 40.8432 16.1559 40.8432 16.3925C40.8432 16.6291 40.6518 16.8201 40.4148 16.8201Z" fill="#99D5DF"/>
</g>
</svg>
