<svg width="147" height="85" viewBox="0 0 147 85" fill="none" xmlns="http://www.w3.org/2000/svg">
<g clip-path="url(#clip0_729_13288)">
<path d="M65.86 20.9498C66.68 27.6598 64.75 39.2998 65.76 39.2998C66.6 39.2998 68.32 29.6298 72.27 20.9998C71.23 20.2698 70.14 19.6298 68.99 19.0898C67.89 19.5998 66.84 20.2298 65.85 20.9498" fill="white"/>
<path d="M62.97 5.75C53.35 7.94 45.17 11.5 45.56 12.16C45.91 12.74 50.2 11.44 54.8 11.65C55.4 11.09 56.03 10.55 56.68 10.05C58.69 8.5 60.8 7.06 62.97 5.75Z" fill="white"/>
<path d="M85.72 7.83953C87.56 7.38953 88.94 7.25953 89.1 6.99953C89.43 6.45953 86.25 5.24953 82.3 4.51953C82.17 4.83953 82.05 5.18953 81.92 5.57953C83.16 6.26953 84.43 7.01953 85.72 7.83953Z" fill="white"/>
<path d="M59.09 18.6491C57.03 26.0291 55.74 32.8291 56.19 32.9991C56.96 33.2891 59.54 25.6091 65.86 20.9591C65.76 19.9691 65.53 18.9891 65.18 18.0591C63.13 17.8391 61.06 18.0391 59.1 18.6591" fill="white"/>
<path d="M87.8 9.20961C87.11 8.73961 86.41 8.27961 85.72 7.84961C84.04 8.23961 82.43 8.85961 80.93 9.70961C80.92 9.77961 80.9 9.84961 80.89 9.92961C80.57 11.7896 81.1 14.4696 82.07 17.4296C93.04 19.2696 100.24 28.5096 100.95 28.3396C101.86 28.1296 97.55 15.8696 87.79 9.20961" fill="white"/>
<path d="M67.33 0.199424C66.17 0.879425 64.96 2.74942 63.77 5.26942C66.57 3.61942 69.54 2.28942 72.63 1.28942C69.79 0.269424 67.82 -0.100576 67.32 0.189424" fill="white"/>
<path d="M68.0701 18.7208C67.1301 18.3908 66.1601 18.1708 65.1801 18.0508C65.5401 18.9808 65.7701 19.9608 65.8601 20.9508C66.8401 20.2308 67.8901 19.6008 69.0001 19.0908C68.6901 18.9508 68.3701 18.8208 68.0801 18.7208" fill="white"/>
<path d="M80.9301 9.70008C82.4301 8.85008 84.0501 8.23008 85.7201 7.84008C84.4301 7.02008 83.1601 6.27008 81.9201 5.58008C81.4901 6.93008 81.1601 8.30008 80.9301 9.70008Z" fill="white"/>
<path d="M63.77 5.27953C63.51 5.42953 63.24 5.58953 62.97 5.74953C63.19 5.69953 63.4 5.64953 63.62 5.59953L63.77 5.26953" fill="white"/>
<path d="M74.05 17.5097C73.41 18.6297 72.82 19.7997 72.28 20.9997C80.2 26.4397 90.49 38.3297 91.15 38.0097C91.74 37.7197 84.97 26.2797 82.07 17.4297C79.41 16.9797 76.7 17.0097 74.05 17.5197" fill="white"/>
<path d="M81.64 4.41008C81.86 4.45008 82.08 4.49008 82.29 4.52008C83.27 1.99008 84.12 1.45008 83.89 0.790076C83.69 0.200076 79.56 -0.879924 72.63 1.29008C74.85 2.10008 77.02 3.04008 79.13 4.11008C79.99 4.17008 80.83 4.27008 81.64 4.41008Z" fill="white"/>
<path d="M54.8 11.6504C48.07 17.8804 43.46 27.8204 44.12 28.4004C44.83 29.0204 51.14 21.0504 59.1 18.6504C59.61 16.8104 60.18 14.9404 60.77 13.1204C58.91 12.2004 56.88 11.7004 54.8 11.6504Z" fill="white"/>
<path d="M79.13 4.11914C80.03 4.56914 80.96 5.05914 81.92 5.58914C82.05 5.19914 82.17 4.84914 82.29 4.52914C82.08 4.48914 81.86 4.44914 81.64 4.41914C80.83 4.27914 79.99 4.18914 79.13 4.11914Z" fill="white"/>
<path d="M63.62 5.59961C63.4 5.64961 63.1901 5.68961 62.9701 5.74961C60.7901 7.05961 58.69 8.49961 56.68 10.0496C56.03 10.5496 55.41 11.0896 54.8 11.6496C56.87 11.6896 58.91 12.1896 60.76 13.1196C61.57 10.5696 62.53 8.05961 63.62 5.60961" fill="white"/>
<path d="M70.52 18.46C69.99 18.65 69.48 18.86 69 19.08C70.15 19.62 71.25 20.26 72.28 20.99C72.83 19.8 73.41 18.63 74.05 17.5C72.85 17.73 71.67 18.05 70.52 18.45" fill="white"/>
<path d="M79.13 4.12055C77.02 3.06055 74.85 2.12055 72.63 1.31055C69.54 2.31055 66.57 3.64055 63.77 5.29055C63.72 5.40055 63.67 5.51055 63.62 5.62055C68.7 4.40055 73.92 3.90055 79.13 4.13055" fill="white"/>
<path d="M80.88 9.91922C80.89 9.83922 80.91 9.76922 80.92 9.69922C79.99 10.2392 79.13 10.8892 78.36 11.6492C76.66 13.3992 75.21 15.3792 74.04 17.5192C76.69 17.0092 79.4 16.9792 82.06 17.4292C81.09 14.4692 80.55 11.7892 80.88 9.92922" fill="white"/>
<path d="M65.18 18.0491C64.33 15.9291 62.77 14.1891 60.77 13.1191C60.18 14.9391 59.62 16.8091 59.1 18.6491C61.06 18.0291 63.14 17.8291 65.18 18.0491Z" fill="white"/>
<path d="M79.13 4.12017C73.91 3.89017 68.69 4.40017 63.62 5.61017C62.53 8.06017 61.58 10.5702 60.76 13.1202C62.76 14.1902 64.33 15.9302 65.17 18.0402C66.16 18.1702 67.13 18.3902 68.07 18.7202C68.37 18.8202 68.67 18.9502 68.99 19.0902C69.48 18.8602 69.99 18.6502 70.51 18.4702C71.66 18.0702 72.84 17.7502 74.04 17.5202C75.21 15.3802 76.66 13.4002 78.36 11.6502C79.13 10.9002 79.99 10.2402 80.92 9.70017C81.16 8.31017 81.49 6.93017 81.91 5.58017C80.96 5.05017 80.03 4.56017 79.12 4.11017" fill="white"/>
<path d="M91.44 58.2691C91.76 58.2691 91.74 57.7791 91.42 57.7491C87.08 57.1091 82.88 55.7591 78.99 53.7491C65.27 46.6891 56.81 40.0191 48.25 39.4291C45.03 39.1991 41.79 39.2691 38.58 39.6391C38.43 39.6591 38.33 39.7891 38.34 39.9391C38.35 40.0791 38.47 40.1791 38.61 40.1791C42.84 40.1091 47.04 40.9091 50.95 42.5191C57.31 45.3491 72.59 56.5591 80.76 58.0091C82.37 58.2891 88.22 58.2891 91.43 58.2891" fill="white"/>
<path d="M71.9501 55.2794C69.6201 56.4994 67.1501 57.4094 64.5901 57.9794C62.9801 58.2694 57.1301 58.2694 53.9201 58.2694C53.6001 58.2694 53.6201 57.7794 53.9401 57.7494C58.2801 57.1094 62.4801 55.7594 66.3801 53.7494C66.8501 53.5094 67.3201 53.2594 67.7801 53.0194C69.1301 53.8594 70.5301 54.6094 71.9601 55.2794M106.79 39.6294C103.58 39.2594 100.34 39.1894 97.1201 39.4194C90.1201 39.9094 83.1801 44.4594 73.3601 49.9794C74.7101 50.7294 76.1201 51.4994 77.5901 52.2794C84.1201 48.5494 90.7501 44.1394 94.4201 42.5094C98.3301 40.8994 102.53 40.0994 106.76 40.1694C106.91 40.1694 107.03 40.0494 107.03 39.9094C107.03 39.7694 106.93 39.6594 106.79 39.6394" fill="white"/>
<path d="M3.50001 69.8398C3.50001 69.9398 3.50001 70.0398 3.52001 70.1298C3.53001 70.1998 3.56001 70.2698 3.61001 70.3198C3.66001 70.3698 3.72001 70.4098 3.79001 70.4198C3.89001 70.4398 3.99001 70.4498 4.09001 70.4498H4.40001C4.48001 70.4498 4.56001 70.4598 4.64001 70.4998C4.69001 70.5398 4.73001 70.6098 4.72001 70.6798V70.9799C4.72001 70.9799 4.72001 71.0698 4.69001 71.1098C4.68001 71.1398 4.65001 71.1698 4.62001 71.1898C4.59001 71.2098 4.55001 71.2198 4.52001 71.2198C4.48001 71.2198 4.44001 71.2299 4.40001 71.2299H3.90001C3.73001 71.2299 3.56001 71.2198 3.40001 71.1698C3.28001 71.1398 3.16001 71.0898 3.06001 71.0198C2.98001 70.9698 2.91001 70.8898 2.85001 70.8098C2.80001 70.7298 2.77001 70.6498 2.74001 70.5598C2.55001 70.6798 2.34001 70.7698 2.12001 70.8398C1.93001 70.8998 1.72001 70.9298 1.52001 70.9298C1.34001 70.9298 1.16001 70.8998 0.99001 70.8598C0.81001 70.8098 0.65001 70.7299 0.50001 70.6199C0.35001 70.5099 0.23001 70.3698 0.15001 70.2098C0.0500098 70.0198 0.0100098 69.8198 0.0100098 69.6098C0.0100098 69.4098 0.0500098 69.1998 0.15001 69.0198C0.24001 68.8398 0.36001 68.6899 0.51001 68.5499C0.66001 68.4099 0.83001 68.2898 1.02001 68.1898C1.21001 68.0898 1.41001 67.9998 1.61001 67.9198C1.81001 67.8398 2.01001 67.7798 2.20001 67.7198L2.73001 67.5698V67.1098H3.52001V69.8198L3.50001 69.8398ZM2.71001 68.2999C2.44001 68.3499 2.17001 68.4098 1.91001 68.4998C1.70001 68.5598 1.49001 68.6498 1.29001 68.7598C1.14001 68.8498 1.00001 68.9598 0.89001 69.0998C0.80001 69.2198 0.75001 69.3698 0.75001 69.5298C0.75001 69.6398 0.78001 69.7598 0.84001 69.8598C0.89001 69.9498 0.96001 70.0198 1.05001 70.0698C1.14001 70.1198 1.24001 70.1598 1.35001 70.1798C1.46001 70.2098 1.57001 70.2198 1.68001 70.2198C1.87001 70.2198 2.07001 70.1898 2.25001 70.1398C2.42001 70.0898 2.58001 70.0198 2.72001 69.9198V68.2999H2.71001ZM1.30001 66.0598C1.30001 65.9998 1.31001 65.9298 1.34001 65.8798C1.36001 65.8298 1.40001 65.7699 1.44001 65.7299C1.48001 65.6899 1.53001 65.6498 1.59001 65.6298C1.71001 65.5798 1.84001 65.5798 1.95001 65.6298C2.06001 65.6798 2.15001 65.7698 2.20001 65.8798C2.25001 65.9998 2.25001 66.1298 2.20001 66.2398C2.17001 66.2898 2.14001 66.3398 2.10001 66.3898C2.06001 66.4298 2.01001 66.4698 1.95001 66.4898C1.89001 66.5198 1.83001 66.5298 1.77001 66.5298C1.52001 66.5298 1.31001 66.3298 1.31001 66.0798V66.0598M2.56001 66.0598C2.56001 65.9998 2.57001 65.9298 2.60001 65.8798C2.62001 65.8198 2.66001 65.7699 2.70001 65.7299C2.74001 65.6899 2.79001 65.6498 2.85001 65.6298C2.91001 65.5998 2.97001 65.5898 3.03001 65.5898C3.09001 65.5898 3.16001 65.5998 3.21001 65.6298C3.27001 65.6598 3.32001 65.6899 3.36001 65.7299C3.40001 65.7699 3.44001 65.8198 3.46001 65.8798C3.51001 65.9998 3.51001 66.1298 3.46001 66.2398C3.44001 66.2998 3.40001 66.3498 3.36001 66.3898C3.32001 66.4298 3.27001 66.4698 3.21001 66.4898C3.15001 66.5198 3.09001 66.5298 3.03001 66.5298C2.78001 66.5298 2.57001 66.3298 2.56001 66.0798V66.0598Z" fill="white"/>
<path d="M7.50999 71.2491C7.38999 71.2491 7.26999 71.2491 7.14999 71.2291C7.02999 71.2091 6.91999 71.1891 6.79999 71.1491C6.68999 71.1091 6.57999 71.0691 6.46999 71.0091C6.36999 70.9591 6.26999 70.8891 6.18999 70.8091C6.10999 70.9391 6.00999 71.0391 5.88999 71.1191C5.74999 71.2091 5.57999 71.2491 5.40999 71.2491H4.36999C4.28999 71.2491 4.20999 71.2391 4.12999 71.1991C4.06999 71.1591 4.03999 71.0891 4.04999 71.0191V70.7191C4.04999 70.7191 4.04999 70.6291 4.06999 70.5891C4.07999 70.5591 4.10999 70.5291 4.13999 70.5091C4.16999 70.4891 4.19999 70.4791 4.23999 70.4691C4.27999 70.4691 4.31999 70.4691 4.35999 70.4691H5.22999C5.31999 70.4691 5.40999 70.4191 5.44999 70.3391C5.50999 70.2291 5.53999 70.0991 5.52999 69.9691V68.7191H6.31999V70.1591C6.46999 70.2791 6.64999 70.3591 6.83999 70.3991C7.04999 70.4491 7.26999 70.4691 7.47999 70.4691C7.53999 70.2691 7.61999 70.0791 7.70999 69.8891C7.80999 69.6691 7.91999 69.4591 8.04999 69.2491C8.18999 69.0291 8.33999 68.8191 8.49999 68.6191C8.66999 68.4191 8.85999 68.2291 9.06999 68.0691C9.27999 67.9091 9.49999 67.7791 9.74999 67.6891C9.99999 67.5891 10.26 67.5391 10.53 67.5391C10.83 67.5391 11.12 67.5891 11.39 67.7091C11.62 67.8091 11.82 67.9691 11.98 68.1691C12.14 68.3691 12.26 68.6091 12.32 68.8591C12.4 69.1391 12.43 69.4291 12.43 69.7091V71.2491H7.48999H7.50999ZM11.66 69.7991C11.66 69.5591 11.63 69.3191 11.56 69.0891C11.51 68.9191 11.42 68.7591 11.3 68.6291C11.2 68.5191 11.06 68.4291 10.92 68.3791C10.77 68.3291 10.61 68.3091 10.45 68.3091C10.27 68.3091 10.1 68.3391 9.92999 68.3991C9.75999 68.4591 9.59999 68.5491 9.45999 68.6591C9.30999 68.7691 9.16999 68.8991 9.04999 69.0391C8.91999 69.1791 8.80999 69.3291 8.70999 69.4891C8.60999 69.6491 8.51999 69.8091 8.44999 69.9791C8.37999 70.1391 8.31999 70.2991 8.27999 70.4591H11.65V69.7991H11.66Z" fill="white"/>
<path d="M13.81 64.9397H14.6V69.6497C14.6 69.7797 14.6 69.9097 14.62 70.0397C14.62 70.1297 14.65 70.2097 14.69 70.2797C14.72 70.3397 14.77 70.3797 14.83 70.4097C14.9 70.4397 14.98 70.4497 15.05 70.4497H15.34C15.42 70.4497 15.5 70.4597 15.58 70.4997C15.64 70.5397 15.67 70.6097 15.66 70.6797V70.9797C15.66 70.9797 15.66 71.0697 15.64 71.1097C15.63 71.1397 15.6 71.1697 15.57 71.1897C15.54 71.2097 15.5 71.2197 15.47 71.2297C15.43 71.2297 15.39 71.2297 15.35 71.2297H14.94C14.77 71.2297 14.6 71.1997 14.44 71.1297C14.31 71.0697 14.19 70.9797 14.09 70.8597C14 70.7397 13.93 70.5997 13.89 70.4597C13.84 70.2997 13.82 70.1297 13.83 69.9597V64.9297L13.81 64.9397Z" fill="white"/>
<path d="M16.16 67.81C16.33 67.76 16.51 67.72 16.69 67.68C16.89 67.64 17.09 67.62 17.29 67.62C17.49 67.62 17.7 67.65 17.89 67.73C18.06 67.8 18.21 67.89 18.34 68.02C18.47 68.15 18.57 68.3 18.64 68.47C18.72 68.65 18.78 68.84 18.8 69.04C18.83 69.23 18.86 69.41 18.89 69.58C18.92 69.74 18.95 69.89 19 70.04C19.04 70.15 19.09 70.26 19.17 70.35C19.23 70.43 19.33 70.47 19.43 70.47H19.84C19.92 70.47 20 70.48 20.08 70.52C20.14 70.56 20.17 70.63 20.16 70.7V71C20.16 71 20.16 71.09 20.14 71.13C20.13 71.16 20.1 71.19 20.07 71.21C20.04 71.23 20.01 71.24 19.97 71.25C19.93 71.25 19.89 71.25 19.84 71.25H15.34C15.26 71.25 15.18 71.24 15.1 71.2C15.04 71.16 15.01 71.09 15.02 71.02V70.72C15.02 70.72 15.02 70.63 15.05 70.59C15.06 70.56 15.09 70.53 15.12 70.51C15.15 70.49 15.18 70.48 15.22 70.47C15.26 70.47 15.3 70.47 15.34 70.47H18.46C18.39 70.4 18.34 70.31 18.31 70.22C18.26 70.08 18.23 69.93 18.21 69.79C18.19 69.62 18.16 69.44 18.12 69.28C18.09 69.12 18.03 68.96 17.95 68.82C17.87 68.68 17.76 68.57 17.62 68.49C17.45 68.4 17.26 68.36 17.07 68.36C17 68.36 16.92 68.36 16.85 68.37C16.76 68.38 16.68 68.39 16.6 68.41C16.52 68.43 16.44 68.44 16.36 68.47C16.29 68.49 16.23 68.51 16.17 68.53V67.81H16.16ZM16.69 66.28C16.69 66.22 16.7 66.15 16.73 66.1C16.75 66.04 16.79 65.99 16.83 65.95C16.87 65.91 16.92 65.87 16.98 65.85C17.09 65.8 17.23 65.8 17.34 65.85C17.4 65.87 17.45 65.91 17.49 65.95C17.53 65.99 17.57 66.04 17.59 66.1C17.62 66.16 17.63 66.22 17.63 66.28C17.63 66.34 17.62 66.41 17.59 66.46C17.57 66.52 17.53 66.57 17.49 66.61C17.45 66.65 17.39 66.69 17.34 66.71C17.16 66.78 16.96 66.75 16.83 66.61C16.74 66.52 16.69 66.4 16.7 66.28" fill="white"/>
<path d="M19.84 71.2492C19.76 71.2492 19.68 71.2392 19.6 71.1992C19.54 71.1592 19.51 71.0892 19.52 71.0192V70.7192C19.52 70.7192 19.52 70.6292 19.55 70.5892C19.56 70.5592 19.59 70.5292 19.62 70.5092C19.65 70.4892 19.69 70.4792 19.72 70.4692C19.76 70.4692 19.8 70.4692 19.84 70.4692H21.03V64.9492H21.82V71.2592H19.84V71.2492Z" fill="white"/>
<path d="M24.11 64.9395H23.32V71.2495H24.11V64.9395Z" fill="white"/>
<path d="M30.89 69.8398C30.89 69.9398 30.89 70.0398 30.91 70.1298C30.92 70.1998 30.95 70.2698 31 70.3198C31.05 70.3698 31.11 70.4098 31.18 70.4198C31.28 70.4398 31.38 70.4498 31.48 70.4498H31.79C31.87 70.4498 31.95 70.4598 32.03 70.4998C32.09 70.5398 32.12 70.6098 32.11 70.6798V70.9799C32.11 70.9799 32.11 71.0698 32.08 71.1098C32.07 71.1398 32.04 71.1698 32.01 71.1898C31.98 71.2098 31.94 71.2198 31.91 71.2198C31.87 71.2198 31.83 71.2299 31.79 71.2299H31.28C31.11 71.2299 30.94 71.2198 30.78 71.1698C30.66 71.1398 30.54 71.0898 30.44 71.0198C30.36 70.9698 30.29 70.8898 30.23 70.8098C30.18 70.7298 30.14 70.6498 30.12 70.5598C29.93 70.6798 29.72 70.7698 29.5 70.8398C29.31 70.8998 29.11 70.9298 28.9 70.9298C28.72 70.9298 28.54 70.8998 28.37 70.8598C28.19 70.8098 28.03 70.7299 27.88 70.6199C27.73 70.5099 27.61 70.3698 27.53 70.2098C27.43 70.0198 27.38 69.8198 27.39 69.6098C27.39 69.4098 27.43 69.1998 27.53 69.0198C27.62 68.8398 27.74 68.6899 27.89 68.5499C28.04 68.4099 28.21 68.2898 28.4 68.1898C28.59 68.0898 28.79 67.9998 28.99 67.9198C29.19 67.8398 29.39 67.7798 29.58 67.7198L30.11 67.5698V67.1098H30.9V69.8198L30.89 69.8398ZM30.1 68.2999C29.83 68.3499 29.56 68.4098 29.3 68.4998C29.09 68.5598 28.88 68.6498 28.68 68.7598C28.52 68.8498 28.39 68.9598 28.28 69.0998C28.19 69.2198 28.14 69.3698 28.14 69.5298C28.14 69.6398 28.17 69.7598 28.22 69.8598C28.27 69.9498 28.35 70.0198 28.43 70.0698C28.52 70.1198 28.62 70.1598 28.72 70.1798C28.83 70.1998 28.94 70.2198 29.05 70.2198C29.24 70.2198 29.44 70.1898 29.62 70.1398C29.79 70.0898 29.95 70.0198 30.09 69.9198V68.2999H30.1ZM28.69 66.0598C28.69 65.9998 28.7 65.9298 28.73 65.8798C28.75 65.8198 28.79 65.7699 28.83 65.7299C28.87 65.6899 28.92 65.6498 28.98 65.6298C29.04 65.5998 29.1 65.5898 29.16 65.5898C29.22 65.5898 29.28 65.5998 29.34 65.6298C29.4 65.6498 29.45 65.6899 29.49 65.7299C29.53 65.7699 29.57 65.8198 29.59 65.8798C29.64 65.9998 29.64 66.1298 29.59 66.2398C29.56 66.2898 29.53 66.3398 29.49 66.3898C29.45 66.4298 29.39 66.4698 29.34 66.4898C29.28 66.5198 29.22 66.5298 29.16 66.5298C28.91 66.5298 28.7 66.3398 28.7 66.0798V66.0598M29.95 66.0598C29.95 65.9998 29.96 65.9298 29.99 65.8798C30.01 65.8198 30.05 65.7699 30.09 65.7299C30.13 65.6899 30.18 65.6498 30.24 65.6298C30.3 65.5998 30.36 65.5898 30.42 65.5898C30.48 65.5898 30.54 65.5998 30.6 65.6298C30.66 65.6498 30.71 65.6899 30.75 65.7299C30.79 65.7699 30.83 65.8198 30.85 65.8798C30.9 65.9998 30.9 66.1298 30.85 66.2398C30.83 66.2898 30.79 66.3398 30.75 66.3898C30.71 66.4298 30.65 66.4698 30.6 66.4898C30.54 66.5198 30.48 66.5298 30.42 66.5298C30.17 66.5298 29.96 66.3398 29.96 66.0798V66.0598" fill="white"/>
<path d="M31.77 71.2494C31.69 71.2494 31.61 71.2394 31.53 71.1994C31.47 71.1594 31.44 71.0894 31.45 71.0194V70.7194C31.45 70.7194 31.45 70.6294 31.48 70.5894C31.49 70.5594 31.52 70.5294 31.54 70.5094C31.57 70.4894 31.61 70.4794 31.64 70.4694C31.68 70.4694 31.72 70.4694 31.76 70.4594H33.2V67.8594H33.99V71.2494H31.76H31.77ZM32.32 72.5694C32.32 72.5094 32.33 72.4394 32.36 72.3894C32.38 72.3294 32.42 72.2794 32.46 72.2394C32.5 72.1994 32.55 72.1594 32.61 72.1394C32.73 72.0894 32.86 72.0894 32.97 72.1394C33.08 72.1894 33.17 72.2794 33.22 72.3894C33.25 72.4494 33.26 72.5094 33.26 72.5694C33.26 72.6294 33.25 72.6994 33.22 72.7494C33.2 72.8094 33.16 72.8594 33.12 72.8994C33.08 72.9394 33.03 72.9794 32.97 72.9994C32.91 73.0294 32.85 73.0394 32.79 73.0394C32.54 73.0394 32.33 72.8394 32.32 72.5894V72.5694ZM33.57 72.5694C33.57 72.5094 33.58 72.4394 33.61 72.3894C33.63 72.3294 33.67 72.2794 33.71 72.2394C33.75 72.1994 33.8 72.1594 33.86 72.1394C33.92 72.1094 33.98 72.0994 34.04 72.0994C34.1 72.0994 34.16 72.1094 34.22 72.1394C34.28 72.1694 34.33 72.1994 34.37 72.2394C34.41 72.2794 34.45 72.3294 34.47 72.3894C34.5 72.4494 34.51 72.5094 34.51 72.5694C34.51 72.6294 34.5 72.6994 34.47 72.7494C34.45 72.8094 34.41 72.8594 34.37 72.8994C34.33 72.9394 34.28 72.9794 34.22 72.9994C34.16 73.0194 34.1 73.0394 34.04 73.0394C33.79 73.0394 33.58 72.8394 33.57 72.5894V72.5694Z" fill="white"/>
<path d="M35.53 71.2491V70.4591H37.03C37.2 70.4591 37.37 70.4591 37.54 70.4191C37.65 70.3991 37.76 70.3691 37.85 70.3091C37.92 70.2691 37.98 70.2091 38.01 70.1391C38.04 70.0591 38.06 69.9891 38.05 69.8991C38.05 69.7291 38 69.5591 37.92 69.4091C37.83 69.2291 37.72 69.0591 37.59 68.8991C37.45 68.7191 37.29 68.5591 37.13 68.3991C36.96 68.2391 36.78 68.0891 36.61 67.9491L37.19 67.3691C37.39 67.5391 37.58 67.7191 37.76 67.9191C37.94 68.1091 38.11 68.3191 38.26 68.5291C38.4 68.7291 38.52 68.9491 38.62 69.1791C38.71 69.3891 38.76 69.6091 38.76 69.8391C38.76 70.0291 38.73 70.2291 38.67 70.4091C38.61 70.5791 38.51 70.7291 38.38 70.8491C38.23 70.9791 38.06 71.0791 37.87 71.1391C37.63 71.2191 37.37 71.2491 37.11 71.2391H35.52L35.53 71.2491Z" fill="white"/>
<path d="M40.04 64.9397H40.83V69.6497C40.83 69.7797 40.83 69.9097 40.85 70.0397C40.85 70.1297 40.88 70.2097 40.92 70.2797C40.95 70.3397 41 70.3797 41.06 70.4097C41.13 70.4397 41.21 70.4497 41.28 70.4497H41.57C41.65 70.4497 41.73 70.4597 41.81 70.4997C41.87 70.5397 41.9 70.6097 41.89 70.6797V70.9797C41.89 70.9797 41.89 71.0697 41.86 71.1097C41.85 71.1397 41.82 71.1697 41.79 71.1897C41.76 71.2097 41.73 71.2197 41.69 71.2297C41.65 71.2297 41.61 71.2297 41.57 71.2297H41.16C40.99 71.2297 40.82 71.1997 40.66 71.1297C40.53 71.0697 40.41 70.9797 40.31 70.8597C40.22 70.7397 40.15 70.5997 40.11 70.4597C40.06 70.2997 40.04 70.1297 40.05 69.9597V64.9297L40.04 64.9397Z" fill="white"/>
<path d="M43.54 70.1395C43.7 70.2595 43.87 70.3395 44.06 70.3795C44.27 70.4295 44.49 70.4495 44.71 70.4495C44.77 70.2495 44.85 70.0595 44.94 69.8695C45.04 69.6495 45.15 69.4395 45.28 69.2295C45.42 69.0095 45.57 68.7995 45.73 68.5995C45.9 68.3995 46.09 68.2095 46.3 68.0495C46.51 67.8895 46.73 67.7595 46.98 67.6695C47.23 67.5695 47.49 67.5195 47.76 67.5195C48.06 67.5195 48.35 67.5695 48.62 67.6895C48.85 67.7895 49.05 67.9495 49.21 68.1495C49.37 68.3495 49.49 68.5895 49.55 68.8395C49.63 69.1195 49.66 69.4095 49.66 69.6895V70.4395H50.56C50.64 70.4395 50.72 70.4495 50.8 70.4895C50.86 70.5295 50.89 70.5995 50.88 70.6695V70.9695C50.88 70.9695 50.88 71.0595 50.86 71.0995C50.84 71.1295 50.82 71.1595 50.79 71.1795C50.76 71.1995 50.73 71.2095 50.69 71.2095C50.65 71.2095 50.61 71.2195 50.57 71.2195H44.73C44.61 71.2195 44.49 71.2195 44.37 71.1995C44.25 71.1795 44.14 71.1595 44.02 71.1195C43.91 71.0895 43.8 71.0395 43.69 70.9795C43.59 70.9295 43.49 70.8595 43.41 70.7795C43.33 70.9095 43.23 71.0095 43.11 71.0895C42.97 71.1795 42.8 71.2295 42.63 71.2195H41.59C41.51 71.2195 41.43 71.2095 41.35 71.1695C41.29 71.1295 41.26 71.0595 41.27 70.9895V70.6895C41.27 70.6895 41.27 70.5995 41.29 70.5595C41.3 70.5295 41.33 70.4995 41.36 70.4795C41.39 70.4595 41.42 70.4495 41.46 70.4395C41.5 70.4395 41.54 70.4395 41.58 70.4395H42.45C42.54 70.4395 42.63 70.3895 42.67 70.3095C42.73 70.1995 42.76 70.0695 42.75 69.9395V68.6795H43.54V70.1195V70.1395ZM48.85 69.7895C48.85 69.5495 48.82 69.3095 48.76 69.0795C48.71 68.9095 48.62 68.7495 48.5 68.6195C48.4 68.5095 48.26 68.4195 48.12 68.3695C47.97 68.3195 47.81 68.2995 47.65 68.2995C47.47 68.2995 47.3 68.3295 47.13 68.3895C46.96 68.4495 46.8 68.5395 46.66 68.6495C46.51 68.7595 46.37 68.8895 46.25 69.0295C46.12 69.1695 46.01 69.3195 45.91 69.4795C45.81 69.6395 45.72 69.7995 45.65 69.9695C45.58 70.1295 45.52 70.2895 45.48 70.4495H48.85V69.7895Z" fill="white"/>
<path d="M52.5201 70.1805C52.6601 70.2805 52.8201 70.3405 52.9901 70.3805C53.2001 70.4305 53.4201 70.4505 53.6301 70.4505H53.6701C53.7501 70.4505 53.8301 70.4605 53.9101 70.5005C53.9701 70.5405 54.0001 70.6105 53.9901 70.6805V70.9806C53.9901 70.9806 53.9901 71.0705 53.9701 71.1105C53.9601 71.1406 53.9301 71.1706 53.9001 71.1906C53.8701 71.2106 53.8401 71.2206 53.8001 71.2306C53.7601 71.2306 53.7201 71.2306 53.6801 71.2306H53.6401C53.3801 71.2306 53.1301 71.2006 52.8801 71.1105C52.6901 71.0405 52.5201 70.9405 52.3601 70.8105C52.2801 70.9305 52.1801 71.0306 52.0701 71.1105C51.9301 71.2006 51.7701 71.2406 51.6101 71.2306H50.5601C50.4801 71.2306 50.4001 71.2205 50.3201 71.1805C50.2601 71.1405 50.2301 71.0705 50.2401 71.0005V70.7005C50.2401 70.7005 50.2401 70.6105 50.2701 70.5705C50.2801 70.5405 50.3101 70.5105 50.3401 70.4905C50.3701 70.4705 50.4001 70.4605 50.4401 70.4505C50.4801 70.4505 50.5201 70.4505 50.5601 70.4505H51.4501C51.5401 70.4505 51.6301 70.4005 51.6701 70.3205C51.7301 70.2105 51.7601 70.0805 51.7601 69.9505V67.8505H52.5501V70.1805H52.5201ZM51.0101 66.2805C51.0101 66.2205 51.0201 66.1505 51.0501 66.1005C51.0701 66.0405 51.1101 65.9905 51.1501 65.9505C51.1901 65.9105 51.2401 65.8705 51.3001 65.8505C51.4201 65.8005 51.5501 65.8005 51.6601 65.8505C51.7201 65.8805 51.7701 65.9105 51.8101 65.9505C51.8501 65.9905 51.8901 66.0405 51.9101 66.1005C51.9401 66.1605 51.9501 66.2205 51.9501 66.2805C51.9501 66.4005 51.9001 66.5205 51.8101 66.6105C51.7701 66.6505 51.7201 66.6905 51.6601 66.7105C51.6001 66.7405 51.5401 66.7505 51.4801 66.7505C51.2301 66.7505 51.0201 66.5606 51.0201 66.3006V66.2805M52.2701 66.2805C52.2701 66.2205 52.2801 66.1605 52.3101 66.1005C52.3301 66.0405 52.3701 65.9905 52.4101 65.9505C52.4501 65.9105 52.5001 65.8705 52.5601 65.8505C52.6201 65.8205 52.6801 65.8105 52.7401 65.8105C52.8001 65.8105 52.8701 65.8205 52.9201 65.8505C52.9701 65.8805 53.0301 65.9105 53.0701 65.9505C53.1101 65.9905 53.1501 66.0405 53.1701 66.1005C53.2001 66.1605 53.2101 66.2205 53.2101 66.2805C53.2101 66.4005 53.1601 66.5205 53.0701 66.6105C53.0301 66.6505 52.9801 66.6905 52.9201 66.7105C52.8601 66.7405 52.8001 66.7505 52.7401 66.7505C52.4901 66.7505 52.2801 66.5606 52.2801 66.3006V66.2805" fill="white"/>
<path d="M54.8 69.48C54.8 69.24 54.84 69 54.94 68.78C55.03 68.57 55.16 68.37 55.32 68.21C55.48 68.05 55.67 67.92 55.89 67.83C56.12 67.74 56.37 67.69 56.61 67.69C56.84 67.69 57.07 67.73 57.29 67.81C57.48 67.89 57.65 68 57.8 68.16C57.94 68.32 58.05 68.51 58.12 68.71C58.2 68.95 58.23 69.2 58.23 69.45V71.25H53.68C53.6 71.25 53.52 71.24 53.44 71.2C53.38 71.16 53.35 71.09 53.36 71.02V70.72C53.36 70.72 53.36 70.63 53.39 70.59C53.4 70.56 53.43 70.53 53.46 70.51C53.49 70.49 53.5201 70.48 53.5601 70.47C53.6001 70.47 53.64 70.47 53.68 70.47H55.09V70.44C55.09 70.44 55.01 70.34 54.98 70.28C54.94 70.21 54.92 70.13 54.89 70.06C54.83 69.88 54.8 69.68 54.8 69.49M55.37 66.29C55.37 66.23 55.38 66.16 55.41 66.11C55.43 66.05 55.47 66 55.51 65.96C55.55 65.92 55.6 65.88 55.66 65.86C55.72 65.83 55.78 65.82 55.84 65.82C55.9 65.82 55.97 65.83 56.02 65.86C56.08 65.88 56.13 65.92 56.17 65.96C56.21 66 56.25 66.05 56.27 66.11C56.3 66.17 56.3101 66.23 56.3101 66.29C56.3101 66.42 56.26 66.53 56.17 66.62C56.13 66.66 56.08 66.7 56.02 66.72C55.79 66.82 55.52 66.72 55.41 66.48C55.38 66.42 55.37 66.35 55.37 66.28M57.42 70.46V69.63C57.42 69.44 57.4 69.25 57.34 69.06C57.3 68.92 57.23 68.8 57.13 68.7C57.0501 68.61 56.9401 68.55 56.8301 68.51C56.7201 68.47 56.6 68.45 56.48 68.45C56.22 68.45 55.98 68.55 55.8 68.73C55.71 68.82 55.64 68.93 55.6 69.05C55.55 69.18 55.52 69.32 55.53 69.46C55.53 69.6 55.56 69.74 55.61 69.87C55.66 69.99 55.74 70.1 55.84 70.18C55.95 70.27 56.07 70.34 56.2 70.38C56.36 70.43 56.52 70.46 56.69 70.45H57.42V70.46ZM56.62 66.28C56.62 66.22 56.63 66.15 56.66 66.1C56.68 66.04 56.72 65.99 56.76 65.95C56.8 65.91 56.85 65.87 56.91 65.85C57.03 65.8 57.16 65.8 57.27 65.85C57.32 65.88 57.38 65.91 57.42 65.95C57.46 65.99 57.5 66.04 57.52 66.1C57.55 66.16 57.5601 66.22 57.5601 66.28C57.5601 66.41 57.51 66.52 57.42 66.61C57.38 66.65 57.33 66.69 57.27 66.71C57.21 66.74 57.15 66.75 57.09 66.75C56.84 66.75 56.63 66.56 56.62 66.3V66.28Z" fill="white"/>
<path d="M64.53 64.9395V71.2495H59.53V70.4594H61.48V66.6495H62.27V70.4594H63.75V64.9395H64.54H64.53Z" fill="white"/>
<path d="M66.81 64.9395H66.02V71.2495H66.81V64.9395Z" fill="white"/>
<path d="M74.14 71.2505C73.85 71.2505 73.56 71.2105 73.3 71.0905C73.09 71.0005 72.9 70.8606 72.74 70.6906C72.6 70.5306 72.49 70.3405 72.43 70.1405C72.37 69.9405 72.33 69.7405 72.33 69.5305C72.33 69.2905 72.37 69.0405 72.46 68.8205C72.55 68.6005 72.6699 68.4105 72.8399 68.2405C73.0099 68.0705 73.21 67.9405 73.43 67.8505C73.68 67.7505 73.94 67.7105 74.21 67.7105C74.33 67.7105 74.45 67.7205 74.57 67.7405C74.84 67.7905 75.08 67.9005 75.28 68.0905C75.39 68.2005 75.49 68.3205 75.57 68.4605C75.66 68.6305 75.72 68.8105 75.76 68.9905C75.81 69.2305 75.84 69.4705 75.83 69.7105V70.4605H76.73C76.81 70.4605 76.89 70.4706 76.97 70.5106C77.03 70.5506 77.06 70.6206 77.05 70.6906V70.9905C77.05 70.9905 77.05 71.0806 77.02 71.1206C77.01 71.1506 76.98 71.1805 76.95 71.2005C76.92 71.2205 76.89 71.2305 76.85 71.2405C76.81 71.2405 76.77 71.2405 76.73 71.2405H75.83C75.8 71.6505 75.7 72.0505 75.54 72.4205C75.39 72.7405 75.18 73.0205 74.91 73.2505C74.64 73.4805 74.33 73.6405 73.99 73.7405C73.61 73.8505 73.22 73.9106 72.83 73.9006C72.43 73.9006 72.03 73.8506 71.64 73.7306C71.33 73.6306 71.03 73.4705 70.79 73.2505C70.56 73.0505 70.39 72.8005 70.27 72.5205C70.15 72.2205 70.09 71.9006 70.1 71.5806C70.1 71.4306 70.11 71.2805 70.14 71.1305C70.17 70.9805 70.2 70.8305 70.24 70.6805C70.28 70.5405 70.33 70.4006 70.39 70.2606C70.44 70.1406 70.51 70.0206 70.58 69.9106L71.25 70.2805C71.2 70.3605 71.16 70.4506 71.12 70.5406C71.08 70.6406 71.05 70.7405 71.02 70.8405C70.99 70.9505 70.97 71.0506 70.96 71.1606C70.95 71.2706 70.94 71.3706 70.94 71.4806C70.94 71.7106 70.98 71.9306 71.07 72.1506C71.15 72.3506 71.28 72.5305 71.44 72.6705C71.62 72.8205 71.83 72.9406 72.05 73.0106C72.33 73.1006 72.61 73.1405 72.9 73.1305C73.19 73.1305 73.47 73.0906 73.75 73.0106C74 72.9406 74.23 72.8206 74.43 72.6606C74.63 72.5006 74.78 72.3005 74.88 72.0705C74.99 71.8105 75.05 71.5206 75.04 71.2306H74.14V71.2505ZM73.02 66.2805C73.02 66.2205 73.03 66.1605 73.06 66.1005C73.09 66.0405 73.12 65.9905 73.16 65.9505C73.2 65.9105 73.25 65.8705 73.31 65.8505C73.37 65.8205 73.43 65.8105 73.49 65.8105C73.55 65.8105 73.62 65.8205 73.67 65.8505C73.72 65.8805 73.78 65.9105 73.82 65.9505C73.86 65.9905 73.9 66.0405 73.92 66.1005C73.95 66.1605 73.96 66.2205 73.96 66.2805C73.96 66.4105 73.91 66.5205 73.82 66.6105C73.78 66.6505 73.73 66.6905 73.67 66.7105C73.61 66.7405 73.55 66.7505 73.49 66.7505C73.24 66.7505 73.03 66.5606 73.03 66.3006V66.2805M75.06 70.4605V69.9605C75.06 69.7005 75.04 69.4406 74.97 69.1906C74.93 69.0206 74.85 68.8706 74.75 68.7306C74.67 68.6306 74.56 68.5505 74.43 68.5005C74.32 68.4605 74.19 68.4406 74.07 68.4406C73.81 68.4406 73.57 68.5406 73.39 68.7306C73.3 68.8206 73.23 68.9405 73.19 69.0605C73.14 69.1905 73.11 69.3406 73.11 69.4806C73.11 69.6106 73.13 69.7406 73.17 69.8605C73.21 69.9805 73.29 70.0805 73.38 70.1705C73.49 70.2605 73.61 70.3305 73.75 70.3805C73.93 70.4405 74.11 70.4705 74.29 70.4605H75.05H75.06ZM74.28 66.2805C74.28 66.2205 74.29 66.1605 74.32 66.1005C74.35 66.0505 74.38 65.9905 74.42 65.9505C74.46 65.9105 74.51 65.8705 74.57 65.8505C74.63 65.8205 74.69 65.8105 74.75 65.8105C74.81 65.8105 74.88 65.8205 74.93 65.8505C75.04 65.9005 75.13 65.9905 75.18 66.1005C75.21 66.1605 75.22 66.2205 75.22 66.2805C75.22 66.4105 75.17 66.5205 75.08 66.6105C75.04 66.6505 74.99 66.6905 74.93 66.7105C74.87 66.7405 74.81 66.7505 74.75 66.7505C74.5 66.7505 74.29 66.5506 74.28 66.3006" fill="white"/>
<path d="M76.73 71.2509C76.65 71.2509 76.57 71.2409 76.49 71.2009C76.43 71.1609 76.4 71.0909 76.41 71.0209V70.7209C76.41 70.7209 76.41 70.6309 76.44 70.5909C76.45 70.5609 76.48 70.5309 76.5 70.5109C76.53 70.4909 76.56 70.4809 76.6 70.4709C76.64 70.4709 76.68 70.4709 76.73 70.4709H77.79C77.84 70.3209 77.89 70.1709 77.95 70.0309C78.02 69.8709 78.1 69.7009 78.19 69.5309V64.9609H78.98V68.4409C79.1 68.3109 79.23 68.2009 79.37 68.0909C79.5 67.9809 79.65 67.8909 79.8 67.8109C79.95 67.7309 80.12 67.6709 80.29 67.6309C80.46 67.5809 80.64 67.5609 80.82 67.5609C81.12 67.5609 81.41 67.6109 81.68 67.7309C81.91 67.8309 82.11 67.9909 82.27 68.1909C82.43 68.3909 82.54 68.6309 82.61 68.8809C82.68 69.1609 82.72 69.4509 82.72 69.7309V71.2709H76.74L76.73 71.2509ZM81.93 69.8009C81.93 69.5609 81.9 69.3209 81.83 69.0909C81.78 68.9209 81.69 68.7609 81.57 68.6309C81.47 68.5209 81.33 68.4309 81.19 68.3809C81.04 68.3309 80.88 68.3109 80.72 68.3109C80.54 68.3109 80.37 68.3409 80.2 68.4009C80.03 68.4609 79.87 68.5509 79.73 68.6609C79.58 68.7709 79.45 68.9009 79.32 69.0409C79.2 69.1809 79.08 69.3309 78.98 69.4909C78.88 69.6509 78.79 69.8109 78.72 69.9809C78.65 70.1409 78.59 70.3009 78.55 70.4609H81.92V69.8009H81.93Z" fill="white"/>
<path d="M84.0699 64.9397H84.8599V69.6497C84.8599 69.7797 84.8599 69.9097 84.8799 70.0397C84.8799 70.1297 84.9099 70.2097 84.9499 70.2797C84.9799 70.3397 85.0299 70.3797 85.0899 70.4097C85.1599 70.4397 85.2399 70.4497 85.3099 70.4497H85.5999C85.6799 70.4497 85.7599 70.4597 85.8399 70.4997C85.8999 70.5397 85.9299 70.6097 85.9199 70.6797V70.9797C85.9199 70.9797 85.9199 71.0697 85.8999 71.1097C85.8899 71.1397 85.8599 71.1697 85.8299 71.1897C85.7999 71.2097 85.7699 71.2197 85.7299 71.2297C85.6899 71.2297 85.6499 71.2297 85.6099 71.2297H85.1999C85.0299 71.2297 84.8599 71.1997 84.6999 71.1297C84.5699 71.0697 84.4499 70.9797 84.3499 70.8597C84.2499 70.7397 84.1899 70.5997 84.1499 70.4597C84.0999 70.2997 84.0799 70.1297 84.0899 69.9597V64.9297L84.0699 64.9397Z" fill="white"/>
<path d="M87.58 70.1805C87.72 70.2805 87.88 70.3405 88.05 70.3805C88.26 70.4305 88.48 70.4505 88.69 70.4505H88.73C88.81 70.4505 88.89 70.4605 88.97 70.5005C89.03 70.5405 89.06 70.6105 89.05 70.6805V70.9806C89.05 70.9806 89.05 71.0705 89.02 71.1105C89.01 71.1406 88.98 71.1706 88.95 71.1906C88.92 71.2106 88.89 71.2206 88.85 71.2306C88.81 71.2306 88.77 71.2306 88.73 71.2306H88.68C88.42 71.2306 88.17 71.2006 87.92 71.1105C87.73 71.0405 87.56 70.9405 87.4 70.8105C87.32 70.9305 87.23 71.0306 87.11 71.1105C86.97 71.2006 86.81 71.2406 86.65 71.2306H85.6C85.52 71.2306 85.44 71.2205 85.36 71.1805C85.3 71.1405 85.27 71.0705 85.28 71.0005V70.7005C85.28 70.7005 85.28 70.6105 85.31 70.5705C85.32 70.5405 85.35 70.5105 85.38 70.4905C85.41 70.4705 85.44 70.4605 85.48 70.4505C85.52 70.4505 85.56 70.4505 85.6 70.4505H86.48C86.57 70.4505 86.66 70.4005 86.7 70.3205C86.76 70.2105 86.79 70.0805 86.78 69.9505V67.8505H87.57V70.1805H87.58ZM86.69 66.2805C86.69 66.2205 86.7 66.1505 86.73 66.1005C86.75 66.0405 86.79 65.9905 86.83 65.9505C86.87 65.9105 86.92 65.8705 86.98 65.8505C87.04 65.8205 87.1 65.8105 87.16 65.8105C87.22 65.8105 87.29 65.8205 87.34 65.8505C87.4 65.8805 87.45 65.9105 87.49 65.9505C87.53 65.9905 87.57 66.0405 87.59 66.1005C87.62 66.1605 87.63 66.2205 87.63 66.2805C87.63 66.3405 87.62 66.4105 87.59 66.4605C87.57 66.5205 87.53 66.5705 87.49 66.6105C87.45 66.6505 87.4 66.6905 87.34 66.7105C87.28 66.7405 87.22 66.7505 87.16 66.7505C86.91 66.7505 86.7 66.5606 86.69 66.3006V66.2805Z" fill="white"/>
<path d="M90.09 70.6393C90.04 70.7393 89.97 70.8393 89.9 70.9293C89.84 70.9993 89.76 71.0693 89.67 71.1193C89.59 71.1693 89.5 71.1993 89.4 71.2193C89.29 71.2393 89.18 71.2493 89.07 71.2493H88.72C88.64 71.2493 88.56 71.2393 88.48 71.1993C88.42 71.1593 88.39 71.0893 88.4 71.0193V70.7193C88.4 70.7193 88.4 70.6293 88.43 70.5793C88.44 70.5493 88.47 70.5193 88.5 70.4993C88.53 70.4793 88.56 70.4693 88.6 70.4593C88.64 70.4593 88.68 70.4593 88.72 70.4593H88.93C89.1 70.4593 89.27 70.4193 89.42 70.3293C89.57 70.2393 89.67 70.0993 89.71 69.9293C89.78 69.6493 89.88 69.3793 90 69.1193C90.09 68.9193 90.2 68.7193 90.33 68.5393C90.43 68.3993 90.55 68.2693 90.68 68.1493C90.79 68.0593 90.91 67.9793 91.03 67.9193C91.14 67.8693 91.25 67.8293 91.37 67.8093C91.47 67.7893 91.57 67.7793 91.67 67.7793C91.85 67.7793 92.03 67.8093 92.2 67.8693C92.35 67.9193 92.5 67.9993 92.63 68.0993C92.76 68.1893 92.87 68.2993 92.96 68.4293C93.05 68.5493 93.13 68.6793 93.19 68.8193C93.25 68.9493 93.3 69.0893 93.33 69.2293C93.36 69.3593 93.37 69.4893 93.38 69.6293C93.38 69.8093 93.35 69.9793 93.29 70.1493C93.44 70.2593 93.6 70.3293 93.78 70.3793C94 70.4393 94.23 70.4593 94.45 70.4593H94.49C94.57 70.4593 94.65 70.4693 94.73 70.5093C94.79 70.5493 94.82 70.6193 94.81 70.6893V70.9893C94.81 70.9893 94.81 71.0793 94.78 71.1193C94.77 71.1493 94.74 71.1793 94.71 71.1993C94.68 71.2193 94.65 71.2293 94.61 71.2393C94.57 71.2393 94.53 71.2393 94.48 71.2393H94.44C94.28 71.2393 94.11 71.2293 93.95 71.1993C93.82 71.1693 93.69 71.1293 93.56 71.0793C93.45 71.0293 93.35 70.9693 93.25 70.8993C93.16 70.8293 93.08 70.7593 93 70.6793C92.85 70.8593 92.67 71.0093 92.46 71.1193C92.21 71.2393 91.94 71.2993 91.67 71.2893C91.49 71.2893 91.31 71.2693 91.14 71.2293C90.99 71.1893 90.84 71.1393 90.69 71.0793C90.56 71.0193 90.44 70.9493 90.33 70.8693C90.24 70.7993 90.15 70.7193 90.07 70.6393M92.65 69.7293C92.65 69.5993 92.63 69.4793 92.59 69.3593C92.55 69.2193 92.49 69.0893 92.4 68.9693C92.31 68.8493 92.21 68.7393 92.08 68.6593C91.94 68.5693 91.78 68.5293 91.62 68.5293C91.46 68.5293 91.29 68.5793 91.15 68.6693C91 68.7593 90.87 68.8793 90.77 69.0293C90.66 69.1893 90.57 69.3593 90.5 69.5393C90.42 69.7293 90.37 69.9293 90.34 70.1293C90.39 70.1893 90.45 70.2293 90.51 70.2593C90.61 70.3093 90.7 70.3493 90.81 70.3793C90.93 70.4193 91.05 70.4393 91.17 70.4693C91.29 70.4893 91.41 70.5093 91.54 70.5093C91.69 70.5093 91.84 70.4993 91.99 70.4693C92.11 70.4493 92.23 70.4093 92.34 70.3493C92.43 70.2893 92.51 70.2093 92.56 70.1093C92.62 69.9893 92.64 69.8593 92.64 69.7293" fill="white"/>
<path d="M94.48 71.2492C94.4 71.2492 94.32 71.2392 94.24 71.1992C94.19 71.1592 94.15 71.0892 94.16 71.0192V70.7192C94.16 70.7192 94.16 70.6292 94.19 70.5892C94.2 70.5592 94.23 70.5292 94.26 70.5092C94.29 70.4892 94.32 70.4792 94.36 70.4692C94.4 70.4692 94.44 70.4692 94.48 70.4692H95.67V64.9492H96.46V71.2592H94.48V71.2492Z" fill="white"/>
<path d="M98.75 64.9395H97.96V71.2495H98.75V64.9395Z" fill="white"/>
<path d="M102.9 71.0807C102.83 71.1107 102.75 71.1407 102.67 71.1707C102.59 71.2007 102.51 71.2107 102.43 71.2307C102.35 71.2407 102.28 71.2507 102.2 71.2607C102.12 71.2707 102.06 71.2607 102 71.2607C101.71 71.2607 101.42 71.2207 101.15 71.1007C100.94 71.0107 100.74 70.8707 100.59 70.7007C100.45 70.5407 100.34 70.3507 100.27 70.1507C100.21 69.9507 100.17 69.7507 100.17 69.5407C100.17 69.3007 100.21 69.0507 100.3 68.8307C100.39 68.6107 100.51 68.4207 100.68 68.2507C100.85 68.0807 101.05 67.9507 101.27 67.8607C101.52 67.7607 101.78 67.7207 102.05 67.7207C102.17 67.7207 102.29 67.7307 102.41 67.7507C102.54 67.7707 102.66 67.8107 102.78 67.8707C102.91 67.9307 103.02 68.0107 103.13 68.1007C103.24 68.2007 103.34 68.3307 103.42 68.4707C103.51 68.6407 103.58 68.8207 103.62 69.0007C103.67 69.2407 103.7 69.4807 103.69 69.7207V70.4607C103.7 70.8707 103.63 71.2807 103.48 71.6607C103.35 71.9707 103.14 72.2407 102.88 72.4507C102.61 72.6607 102.3 72.8207 101.97 72.9207C101.59 73.0307 101.2 73.1107 100.81 73.1407L100.72 72.3807C101.01 72.3607 101.3 72.3207 101.58 72.2407C101.81 72.1807 102.02 72.0907 102.23 71.9707C102.4 71.8707 102.54 71.7407 102.66 71.5807C102.77 71.4407 102.85 71.2707 102.89 71.1007M102.13 70.4907C102.2 70.4907 102.28 70.4907 102.35 70.4807C102.42 70.4707 102.5 70.4607 102.57 70.4507C102.64 70.4407 102.7 70.4207 102.76 70.4107C102.81 70.4007 102.85 70.3807 102.89 70.3607V69.9807C102.89 69.7207 102.87 69.4707 102.8 69.2207C102.76 69.0507 102.68 68.8907 102.57 68.7607C102.49 68.6607 102.38 68.5807 102.26 68.5407C102.15 68.5007 102.02 68.4807 101.9 68.4807C101.77 68.4807 101.64 68.5107 101.52 68.5607C101.41 68.6107 101.3 68.6807 101.21 68.7707C101.12 68.8607 101.05 68.9807 101.01 69.1007C100.96 69.2307 100.93 69.3807 100.94 69.5207C100.94 69.6507 100.96 69.7807 101 69.9007C101.04 70.0207 101.11 70.1307 101.21 70.2107C101.32 70.3107 101.44 70.3807 101.57 70.4307C101.74 70.4907 101.93 70.5207 102.11 70.5107" fill="white"/>
<path d="M111.16 70.4595C111.16 70.3595 111.16 70.2595 111.14 70.1495C111.13 70.0295 111.1 69.8995 111.08 69.7695C111.05 69.6295 111.02 69.4895 110.98 69.3595C110.94 69.2295 110.9 69.1095 110.84 68.9795L111.62 68.7595C111.66 68.8695 111.7 68.9895 111.74 69.1295C111.78 69.2695 111.82 69.4095 111.85 69.5595C111.88 69.7095 111.91 69.8595 111.93 70.0095C112 70.5195 111.95 71.0295 111.79 71.5195C111.68 71.8295 111.5 72.1195 111.28 72.3595C111.04 72.5995 110.76 72.7895 110.44 72.9195C110.07 73.0595 109.69 73.1295 109.29 73.1195C108.92 73.1195 108.55 73.0595 108.21 72.9295C107.92 72.8195 107.66 72.6395 107.45 72.4195C107.25 72.2095 107.1 71.9595 107 71.6795C106.9 71.3995 106.85 71.0995 106.85 70.7995C106.85 70.6495 106.86 70.4995 106.89 70.3495C106.92 70.1995 106.95 70.0495 106.99 69.8995C107.03 69.7595 107.08 69.6195 107.14 69.4795C107.19 69.3595 107.26 69.2395 107.33 69.1295L108 69.4995C107.95 69.5795 107.91 69.6695 107.87 69.7595C107.83 69.8595 107.8 69.9595 107.77 70.0595C107.74 70.1695 107.72 70.2695 107.71 70.3795C107.7 70.4895 107.69 70.5895 107.69 70.6995C107.69 70.9195 107.73 71.1395 107.8 71.3395C107.87 71.5295 107.98 71.7095 108.12 71.8595C108.27 72.0095 108.45 72.1295 108.65 72.2095C108.88 72.2995 109.12 72.3395 109.36 72.3395C109.62 72.3395 109.89 72.2995 110.14 72.2095C110.35 72.1295 110.55 71.9995 110.71 71.8395C110.87 71.6695 110.99 71.4695 111.06 71.2495C111.15 70.9895 111.19 70.7295 111.18 70.4595M109.26 67.2395C109.26 67.1795 109.27 67.1095 109.3 67.0595C109.32 66.9995 109.36 66.9495 109.4 66.9095C109.44 66.8695 109.49 66.8295 109.55 66.8095C109.61 66.7795 109.67 66.7695 109.73 66.7695C109.92 66.7695 110.09 66.8795 110.16 67.0595C110.19 67.1195 110.2 67.1795 110.2 67.2395C110.2 67.2995 110.19 67.3695 110.16 67.4195C110.14 67.4795 110.1 67.5295 110.06 67.5695C110.02 67.6095 109.97 67.6495 109.91 67.6695C109.85 67.6995 109.79 67.7095 109.73 67.7095C109.48 67.7095 109.27 67.5095 109.27 67.2595V67.2395" fill="white"/>
<path d="M112.89 71.2491V70.4591H114.39C114.56 70.4591 114.73 70.4591 114.9 70.4191C115.01 70.3991 115.12 70.3691 115.21 70.3091C115.28 70.2691 115.34 70.2091 115.37 70.1391C115.4 70.0591 115.42 69.9891 115.41 69.8991C115.41 69.7291 115.36 69.5591 115.28 69.4091C115.19 69.2291 115.08 69.0591 114.95 68.8991C114.81 68.7191 114.65 68.5591 114.49 68.3991C114.32 68.2391 114.15 68.0891 113.98 67.9491L114.56 67.3691C114.76 67.5391 114.95 67.7191 115.13 67.9191C115.31 68.1091 115.48 68.3191 115.63 68.5291C115.77 68.7291 115.89 68.9491 115.99 69.1791C116.08 69.3891 116.12 69.6091 116.13 69.8391C116.13 69.9391 116.13 70.0391 116.1 70.1391C116.25 70.2491 116.41 70.3291 116.59 70.3691C116.81 70.4291 117.04 70.4491 117.27 70.4491H117.31C117.39 70.4491 117.47 70.4591 117.55 70.4991C117.61 70.5391 117.64 70.6091 117.63 70.6791V70.9791C117.63 70.9791 117.63 71.0691 117.6 71.1091C117.59 71.1391 117.56 71.1691 117.53 71.1891C117.5 71.2091 117.47 71.2191 117.43 71.2291C117.39 71.2291 117.35 71.2291 117.31 71.2291H117.26C117.1 71.2291 116.95 71.2191 116.79 71.1891C116.66 71.1591 116.53 71.1291 116.41 71.0791C116.3 71.0391 116.2 70.9791 116.11 70.9191C116.02 70.8591 115.94 70.7891 115.86 70.7091C115.72 70.8791 115.54 71.0191 115.33 71.0991C115.06 71.1991 114.77 71.2491 114.48 71.2391H112.88L112.89 71.2491Z" fill="white"/>
<path d="M118.65 70.6393C118.6 70.7393 118.53 70.8393 118.46 70.9293C118.4 70.9993 118.32 71.0693 118.23 71.1193C118.15 71.1693 118.06 71.1993 117.96 71.2193C117.85 71.2393 117.74 71.2493 117.63 71.2493H117.29C117.21 71.2493 117.13 71.2393 117.05 71.1993C116.99 71.1593 116.96 71.0893 116.97 71.0193V70.7193C116.97 70.7193 116.97 70.6293 117 70.5793C117.01 70.5493 117.04 70.5193 117.07 70.4993C117.1 70.4793 117.13 70.4693 117.17 70.4593C117.21 70.4593 117.25 70.4593 117.3 70.4593H117.5C117.67 70.4593 117.84 70.4193 117.99 70.3293C118.14 70.2393 118.24 70.0993 118.28 69.9293C118.35 69.6493 118.45 69.3793 118.57 69.1193C118.66 68.9193 118.77 68.7193 118.9 68.5393C119 68.3993 119.12 68.2693 119.25 68.1493C119.36 68.0593 119.48 67.9793 119.6 67.9193C119.71 67.8693 119.82 67.8293 119.94 67.8093C120.04 67.7893 120.14 67.7793 120.24 67.7793C120.42 67.7793 120.6 67.8093 120.78 67.8693C120.93 67.9193 121.08 67.9993 121.21 68.0993C121.34 68.1893 121.45 68.2993 121.54 68.4293C121.63 68.5493 121.71 68.6793 121.77 68.8193C121.88 69.0793 121.95 69.3493 121.95 69.6293C121.95 69.8093 121.92 69.9793 121.86 70.1493C122.01 70.2593 122.17 70.3293 122.35 70.3793C122.57 70.4393 122.8 70.4593 123.02 70.4593H123.06C123.14 70.4593 123.22 70.4693 123.3 70.5093C123.36 70.5493 123.39 70.6193 123.38 70.6893V70.9893C123.38 70.9893 123.38 71.0793 123.35 71.1193C123.34 71.1493 123.31 71.1793 123.28 71.1993C123.25 71.2193 123.22 71.2293 123.18 71.2393C123.14 71.2393 123.1 71.2393 123.05 71.2393H123.01C122.85 71.2393 122.68 71.2293 122.52 71.1993C122.39 71.1693 122.26 71.1293 122.13 71.0793C122.02 71.0293 121.92 70.9693 121.82 70.8993C121.73 70.8293 121.65 70.7593 121.57 70.6793C121.42 70.8593 121.24 71.0093 121.03 71.1193C120.78 71.2393 120.51 71.2993 120.24 71.2893C119.9 71.2893 119.57 71.2193 119.26 71.0793C119.13 71.0193 119.01 70.9493 118.9 70.8693C118.81 70.7993 118.72 70.7193 118.64 70.6393M121.22 69.7293C121.22 69.5993 121.2 69.4793 121.16 69.3593C121.12 69.2193 121.06 69.0893 120.97 68.9693C120.88 68.8493 120.78 68.7393 120.65 68.6593C120.51 68.5693 120.35 68.5293 120.19 68.5293C120.03 68.5293 119.86 68.5793 119.72 68.6693C119.57 68.7593 119.44 68.8793 119.34 69.0293C119.23 69.1893 119.14 69.3593 119.07 69.5393C118.99 69.7293 118.94 69.9293 118.91 70.1293C118.96 70.1893 119.02 70.2293 119.08 70.2593C119.18 70.3093 119.27 70.3493 119.38 70.3793C119.5 70.4193 119.62 70.4393 119.74 70.4693C119.86 70.4893 119.98 70.5093 120.11 70.5093C120.26 70.5093 120.41 70.4993 120.56 70.4693C120.68 70.4493 120.8 70.4093 120.91 70.3493C121 70.2893 121.08 70.2093 121.13 70.1093C121.19 69.9893 121.21 69.8593 121.21 69.7293" fill="white"/>
<path d="M123.05 71.2492C122.97 71.2492 122.89 71.2392 122.81 71.1992C122.75 71.1592 122.72 71.0892 122.73 71.0192V70.7192C122.73 70.7192 122.73 70.6292 122.76 70.5892C122.77 70.5592 122.8 70.5292 122.83 70.5092C122.86 70.4892 122.89 70.4792 122.93 70.4692C122.97 70.4692 123.01 70.4692 123.05 70.4692H124.24V64.9492H125.03V71.2592H123.05V71.2492Z" fill="white"/>
<path d="M127.32 64.9395H126.53V71.2495H127.32V64.9395Z" fill="white"/>
<path d="M134.09 69.8393C134.09 69.9393 134.09 70.0393 134.11 70.1293C134.12 70.2693 134.23 70.3893 134.37 70.4193C134.47 70.4393 134.57 70.4493 134.67 70.4493H134.98C135.06 70.4493 135.14 70.4593 135.22 70.4993C135.28 70.5393 135.31 70.6093 135.3 70.6793V70.9793C135.3 70.9793 135.3 71.0693 135.27 71.1093C135.26 71.1393 135.23 71.1693 135.2 71.1893C135.17 71.2093 135.14 71.2193 135.1 71.2193C135.06 71.2193 135.02 71.2293 134.98 71.2293H134.47C134.3 71.2293 134.13 71.2193 133.97 71.1693C133.85 71.1393 133.73 71.0893 133.63 71.0193C133.55 70.9693 133.47 70.8893 133.42 70.8093C133.37 70.7293 133.34 70.6493 133.31 70.5593C133.12 70.6793 132.91 70.7693 132.69 70.8393C132.5 70.8993 132.29 70.9293 132.09 70.9293C131.91 70.9293 131.73 70.8993 131.56 70.8593C131.38 70.8093 131.22 70.7293 131.07 70.6193C130.92 70.5093 130.8 70.3693 130.72 70.2093C130.54 69.8293 130.54 69.3893 130.72 69.0193C130.81 68.8393 130.93 68.6893 131.08 68.5493C131.23 68.4093 131.4 68.2893 131.59 68.1893C131.78 68.0893 131.98 67.9993 132.18 67.9193C132.38 67.8393 132.58 67.7793 132.77 67.7193L133.3 67.5693V67.1093H134.09V69.8193V69.8393ZM133.3 68.2993C133.03 68.3493 132.76 68.4093 132.5 68.4993C132.29 68.5593 132.08 68.6493 131.88 68.7593C131.73 68.8493 131.59 68.9593 131.48 69.0993C131.39 69.2193 131.34 69.3693 131.34 69.5293C131.34 69.7493 131.44 69.9593 131.63 70.0693C131.72 70.1193 131.82 70.1593 131.92 70.1793C132.03 70.1993 132.14 70.2193 132.25 70.2193C132.44 70.2193 132.64 70.1893 132.82 70.1393C132.99 70.0893 133.15 70.0193 133.29 69.9193V68.3093L133.3 68.2993ZM131.89 66.0593C131.89 65.9993 131.9 65.9293 131.93 65.8793C131.95 65.8193 131.99 65.7693 132.03 65.7293C132.07 65.6893 132.12 65.6493 132.18 65.6293C132.3 65.5793 132.43 65.5793 132.54 65.6293C132.6 65.6593 132.65 65.6893 132.69 65.7293C132.73 65.7693 132.77 65.8193 132.79 65.8793C132.84 65.9993 132.84 66.1293 132.79 66.2393C132.76 66.2893 132.73 66.3393 132.69 66.3893C132.65 66.4293 132.6 66.4693 132.54 66.4893C132.48 66.5193 132.42 66.5293 132.36 66.5293C132.23 66.5293 132.12 66.4793 132.03 66.3993C131.94 66.3193 131.89 66.1893 131.9 66.0693M133.15 66.0693C133.15 66.0093 133.16 65.9393 133.19 65.8893C133.21 65.8393 133.25 65.7793 133.29 65.7393C133.33 65.6993 133.38 65.6593 133.44 65.6393C133.5 65.6093 133.56 65.5993 133.62 65.5993C133.68 65.5993 133.75 65.6093 133.8 65.6393C133.86 65.6593 133.91 65.6993 133.95 65.7393C133.99 65.7793 134.03 65.8293 134.05 65.8893C134.1 66.0093 134.1 66.1393 134.05 66.2493C134.02 66.2993 133.99 66.3493 133.95 66.3993C133.91 66.4393 133.86 66.4793 133.8 66.4993C133.74 66.5293 133.68 66.5393 133.62 66.5393C133.37 66.5393 133.16 66.3393 133.16 66.0893" fill="white"/>
<path d="M136.96 70.1792C137.1 70.2792 137.26 70.3392 137.43 70.3892C137.64 70.4392 137.86 70.4592 138.07 70.4492H138.11C138.19 70.4492 138.27 70.4592 138.35 70.4992C138.41 70.5392 138.44 70.6092 138.43 70.6792V70.9792C138.43 70.9792 138.43 71.0692 138.4 71.1092C138.39 71.1392 138.36 71.1692 138.33 71.1892C138.3 71.2092 138.27 71.2192 138.23 71.2292C138.19 71.2292 138.15 71.2292 138.11 71.2292H138.06C137.8 71.2292 137.55 71.1992 137.3 71.1092C137.11 71.0392 136.94 70.9392 136.78 70.8092C136.7 70.9292 136.6 71.0292 136.49 71.1092C136.35 71.1992 136.19 71.2392 136.03 71.2292H134.98C134.9 71.2292 134.82 71.2192 134.74 71.1792C134.68 71.1392 134.65 71.0692 134.66 70.9992V70.6992C134.66 70.6992 134.66 70.6092 134.68 70.5692C134.69 70.5392 134.72 70.5092 134.75 70.4892C134.78 70.4692 134.81 70.4592 134.85 70.4492C134.89 70.4492 134.93 70.4492 134.97 70.4392H135.86C135.95 70.4392 136.04 70.3992 136.08 70.3192C136.14 70.2092 136.17 70.0792 136.16 69.9492V67.8492H136.95V70.1792H136.96ZM137.31 65.6592C137.31 65.6592 137.23 65.6492 137.17 65.6392C137.1 65.6392 137.03 65.6292 136.97 65.6292C136.82 65.6292 136.68 65.6592 136.56 65.7292C136.45 65.7992 136.38 65.9292 136.4 66.0592C136.4 66.1392 136.42 66.2092 136.45 66.2792C136.49 66.3592 136.54 66.4292 136.61 66.4792C136.69 66.5392 136.78 66.5892 136.88 66.6292C137 66.6692 137.13 66.6892 137.26 66.6892H137.43V67.1792H135.62V66.6892H136.29C136.29 66.6892 136.21 66.6292 136.17 66.5892C136.12 66.5392 136.08 66.4892 136.04 66.4292C136 66.3592 135.96 66.2892 135.94 66.2092C135.91 66.1192 135.9 66.0292 135.9 65.9392C135.9 65.8392 135.92 65.7392 135.96 65.6392C136 65.5392 136.07 65.4492 136.15 65.3792C136.25 65.2992 136.36 65.2392 136.48 65.1992C136.63 65.1492 136.79 65.1292 136.94 65.1392C137 65.1392 137.08 65.1392 137.15 65.1392C137.23 65.1392 137.32 65.1492 137.4 65.1692L137.32 65.6692L137.31 65.6592Z" fill="white"/>
<path d="M140.09 70.1798C140.23 70.2798 140.39 70.3398 140.56 70.3798C140.77 70.4298 140.99 70.4498 141.2 70.4498H141.24C141.32 70.4498 141.4 70.4598 141.48 70.4998C141.54 70.5398 141.57 70.6098 141.56 70.6798V70.9799C141.56 70.9799 141.56 71.0698 141.53 71.1098C141.52 71.1398 141.49 71.1698 141.46 71.1898C141.43 71.2098 141.4 71.2199 141.36 71.2299C141.32 71.2299 141.28 71.2299 141.24 71.2299H141.19C140.93 71.2299 140.68 71.1998 140.43 71.1098C140.24 71.0398 140.07 70.9398 139.91 70.8098C139.83 70.9298 139.73 71.0298 139.62 71.0998C139.48 71.1898 139.32 71.2298 139.16 71.2198H138.11C138.03 71.2198 137.95 71.2098 137.87 71.1698C137.81 71.1298 137.78 71.0598 137.79 70.9898V70.6898C137.79 70.6898 137.79 70.5998 137.81 70.5598C137.82 70.5298 137.85 70.4999 137.88 70.4799C137.91 70.4599 137.94 70.4498 137.98 70.4398C138.02 70.4398 138.06 70.4398 138.1 70.4298H138.99C139.08 70.4298 139.17 70.3898 139.21 70.3098C139.27 70.1998 139.3 70.0698 139.29 69.9398V67.8398H140.08V70.1698L140.09 70.1798ZM138.55 72.5598C138.55 72.4998 138.56 72.4298 138.59 72.3798C138.61 72.3198 138.65 72.2699 138.69 72.2299C138.73 72.1899 138.78 72.1498 138.84 72.1298C138.9 72.1098 138.96 72.0898 139.02 72.0898C139.08 72.0898 139.15 72.0998 139.21 72.1298C139.27 72.1598 139.32 72.1899 139.36 72.2299C139.4 72.2699 139.44 72.3198 139.46 72.3798C139.49 72.4398 139.5 72.4998 139.5 72.5598C139.5 72.6198 139.49 72.6898 139.46 72.7398C139.43 72.7898 139.4 72.8398 139.36 72.8898C139.32 72.9298 139.27 72.9698 139.21 72.9898C139.15 73.0198 139.09 73.0298 139.02 73.0298C138.77 73.0298 138.56 72.8298 138.56 72.5798V72.5598M139.81 72.5598C139.81 72.4998 139.82 72.4398 139.85 72.3798C139.88 72.3298 139.91 72.2699 139.95 72.2299C139.99 72.1899 140.04 72.1498 140.1 72.1298C140.16 72.0998 140.22 72.0898 140.28 72.0898C140.34 72.0898 140.41 72.0998 140.46 72.1298C140.57 72.1798 140.66 72.2698 140.71 72.3798C140.74 72.4398 140.75 72.4998 140.75 72.5598C140.75 72.6898 140.7 72.7998 140.61 72.8898C140.57 72.9298 140.52 72.9698 140.46 72.9898C140.4 73.0198 140.34 73.0298 140.28 73.0298C140.03 73.0298 139.82 72.8298 139.82 72.5798" fill="white"/>
<path d="M142.47 70.4604C142.38 70.2904 142.31 70.1204 142.27 69.9304C142.23 69.7604 142.21 69.5804 142.21 69.4004C142.21 69.1004 142.27 68.8104 142.41 68.5404C142.54 68.2804 142.73 68.0504 142.98 67.8904L142.83 67.8504C142.83 67.8504 142.76 67.8304 142.74 67.8304C142.76 67.7604 142.79 67.6904 142.83 67.6304C142.87 67.5604 142.9 67.4904 142.93 67.4304C142.96 67.3704 143 67.3104 143.03 67.2604C143.06 67.2104 143.09 67.1704 143.11 67.1504C143.67 67.2604 144.22 67.4004 144.75 67.5804C145.15 67.7104 145.52 67.9004 145.86 68.1504C146.13 68.3504 146.35 68.6304 146.49 68.9304C146.63 69.2704 146.7 69.6304 146.69 70.0004V70.0604C146.69 70.0604 146.69 70.1404 146.69 70.2204C146.69 70.3004 146.69 70.4204 146.68 70.5804C146.67 70.7404 146.66 70.9604 146.65 71.2404H141.25C141.17 71.2404 141.09 71.2304 141.01 71.1904C140.95 71.1504 140.92 71.0804 140.93 71.0104V70.7104C140.93 70.7104 140.93 70.6204 140.96 70.5804C140.97 70.5504 141 70.5204 141.03 70.5004C141.06 70.4804 141.09 70.4704 141.13 70.4604C141.17 70.4604 141.21 70.4604 141.25 70.4604H142.49H142.47ZM144.22 70.4604C144.26 70.3904 144.3 70.3104 144.33 70.2304C144.37 70.1304 144.4 70.0404 144.43 69.9404C144.46 69.8404 144.48 69.7304 144.5 69.6304C144.52 69.5404 144.53 69.4404 144.53 69.3504C144.53 69.1704 144.51 68.9904 144.46 68.8104C144.42 68.6804 144.36 68.5604 144.28 68.4604C144.21 68.3804 144.13 68.3104 144.03 68.2604C143.94 68.2204 143.85 68.2004 143.76 68.2004C143.63 68.2004 143.5 68.2404 143.39 68.3104C143.28 68.3804 143.19 68.4704 143.12 68.5904C143.05 68.7004 142.99 68.8304 142.96 68.9604C142.92 69.0904 142.91 69.2104 142.91 69.3504C142.91 69.5004 142.93 69.6404 142.97 69.7804C143 69.9004 143.05 70.0104 143.11 70.1104C143.16 70.2004 143.22 70.2704 143.3 70.3404C143.35 70.3904 143.42 70.4404 143.49 70.4704H144.24L144.22 70.4604ZM145.92 70.4604C145.93 70.3704 145.94 70.2904 145.95 70.2004C145.96 70.1104 145.96 70.0304 145.96 69.9304C145.96 69.7804 145.95 69.6404 145.92 69.5004C145.86 69.2004 145.69 68.9304 145.45 68.7404C145.29 68.6304 145.12 68.5404 144.93 68.4904C145.01 68.6204 145.06 68.7504 145.09 68.9004C145.12 69.0504 145.14 69.2104 145.14 69.3604C145.14 69.4604 145.14 69.5704 145.12 69.6704C145.11 69.7704 145.09 69.8704 145.07 69.9704C145.05 70.0704 145.03 70.1504 145 70.2304C144.98 70.3104 144.95 70.3804 144.91 70.4504H145.92V70.4604Z" fill="white"/>
<path d="M0 77.3108H2.98V77.9808H0.76V79.5408H2.79V80.2108H0.76V81.9608H2.98V82.6308H0V77.3008V77.3108Z" fill="white"/>
<path d="M6.38001 79.3993C6.25001 79.3393 6.12001 79.2993 5.98001 79.2693C5.86001 79.2393 5.73001 79.2293 5.60001 79.2293C5.42001 79.2293 5.24001 79.2693 5.07001 79.3493C4.92001 79.4293 4.78001 79.5393 4.68001 79.6793C4.57001 79.8193 4.49001 79.9793 4.44001 80.1493C4.38001 80.3293 4.35001 80.5093 4.35001 80.6893C4.35001 80.8693 4.38001 81.0393 4.42001 81.2093C4.47001 81.3793 4.55001 81.5393 4.65001 81.6793C4.76001 81.8193 4.89001 81.9393 5.05001 82.0193C5.23001 82.1093 5.44001 82.1593 5.64001 82.1493C5.77001 82.1493 5.90001 82.1293 6.03001 82.0893C6.16001 82.0493 6.29001 81.9993 6.41001 81.9293L6.46001 82.5693C6.31001 82.6393 6.16001 82.6793 6.00001 82.6993C5.85001 82.7193 5.71001 82.7293 5.56001 82.7293C5.28001 82.7293 5.01001 82.6793 4.76001 82.5693C4.52001 82.4693 4.31001 82.3193 4.13001 82.1293C3.95001 81.9393 3.81001 81.7193 3.72001 81.4793C3.62001 81.2293 3.57001 80.9593 3.57001 80.6893C3.57001 80.4093 3.62001 80.1293 3.71001 79.8693C3.80001 79.6293 3.94001 79.4093 4.11001 79.2293C4.29001 79.0493 4.50001 78.8993 4.73001 78.8093C4.99001 78.7093 5.26001 78.6493 5.54001 78.6593C5.70001 78.6593 5.85001 78.6793 6.01001 78.7093C6.15001 78.7293 6.28001 78.7593 6.41001 78.8093L6.35001 79.3993H6.38001Z" fill="white"/>
<path d="M6.82 80.6893C6.82 80.4093 6.87 80.1293 6.97 79.8693C7.06 79.6293 7.2 79.4093 7.37 79.2293C7.55 79.0493 7.76 78.8993 8 78.8093C8.26 78.7093 8.53 78.6493 8.81 78.6593C9.09 78.6593 9.36 78.7093 9.62 78.8093C9.86 78.9093 10.07 79.0493 10.24 79.2293C10.42 79.4193 10.55 79.6293 10.64 79.8693C10.74 80.1293 10.78 80.4093 10.78 80.6893C10.78 80.9593 10.73 81.2293 10.63 81.4793C10.54 81.7193 10.4 81.9393 10.22 82.1293C10.04 82.3193 9.83 82.4693 9.6 82.5693C9.35 82.6793 9.07 82.7293 8.8 82.7293C8.52 82.7293 8.25 82.6793 8 82.5693C7.76 82.4693 7.55 82.3193 7.37 82.1293C7.19 81.9393 7.06 81.7193 6.96 81.4793C6.86 81.2293 6.81 80.9593 6.81 80.6893M7.57 80.6893C7.57 80.8693 7.6 81.0393 7.64 81.2093C7.69 81.3793 7.76 81.5393 7.86 81.6793C7.96 81.8193 8.09 81.9393 8.24 82.0193C8.41 82.1093 8.6 82.1593 8.79 82.1493C8.98 82.1493 9.17 82.1093 9.33 82.0193C9.48 81.9393 9.61 81.8193 9.71 81.6793C9.81 81.5393 9.89 81.3793 9.93 81.2093C9.98 81.0393 10 80.8693 10 80.6893C10 80.5093 9.97 80.3293 9.92 80.1493C9.87 79.9793 9.79 79.8193 9.68 79.6793C9.58 79.5393 9.45 79.4293 9.3 79.3493C9.14 79.2693 8.97 79.2193 8.79 79.2293C8.61 79.2293 8.43 79.2693 8.28 79.3493C8.13 79.4293 8 79.5393 7.89 79.6793C7.78 79.8193 7.7 79.9793 7.65 80.1493C7.59 80.3293 7.56 80.5093 7.56 80.6893" fill="white"/>
<path d="M11.52 78.7503H12.21V79.3603H12.22C12.33 79.1303 12.51 78.9503 12.73 78.8403C12.97 78.7203 13.23 78.6503 13.49 78.6503C13.91 78.6103 14.32 78.7803 14.6 79.0903C14.85 79.4503 14.97 79.8803 14.95 80.3203V82.6303H14.24V80.6103C14.26 80.2603 14.2 79.9103 14.07 79.5903C13.94 79.3603 13.69 79.2103 13.42 79.2303C13.23 79.2303 13.05 79.2703 12.89 79.3503C12.74 79.4303 12.61 79.5403 12.52 79.6803C12.42 79.8303 12.34 80.0103 12.31 80.1903C12.26 80.4003 12.24 80.6203 12.24 80.8403V82.6403H11.53V78.7503H11.52Z" fill="white"/>
<path d="M15.7 80.6893C15.7 80.4093 15.75 80.1293 15.84 79.8693C15.93 79.6293 16.07 79.4093 16.24 79.2293C16.42 79.0493 16.63 78.8993 16.87 78.8093C17.13 78.7093 17.4 78.6493 17.68 78.6593C17.96 78.6593 18.23 78.7093 18.49 78.8093C18.73 78.9093 18.94 79.0493 19.11 79.2293C19.29 79.4193 19.42 79.6293 19.51 79.8693C19.61 80.1293 19.65 80.4093 19.65 80.6893C19.65 80.9593 19.6 81.2293 19.5 81.4793C19.41 81.7193 19.27 81.9393 19.09 82.1293C18.91 82.3193 18.7 82.4693 18.47 82.5693C18.22 82.6793 17.94 82.7293 17.67 82.7293C17.39 82.7293 17.12 82.6793 16.87 82.5693C16.63 82.4693 16.42 82.3193 16.24 82.1293C16.06 81.9393 15.93 81.7193 15.83 81.4793C15.73 81.2293 15.68 80.9593 15.68 80.6893M16.44 80.6893C16.44 80.8693 16.47 81.0393 16.51 81.2093C16.56 81.3793 16.63 81.5393 16.73 81.6793C16.83 81.8193 16.96 81.9393 17.11 82.0193C17.28 82.1093 17.47 82.1593 17.66 82.1493C17.85 82.1493 18.04 82.1093 18.2 82.0193C18.35 81.9293 18.48 81.8193 18.58 81.6793C18.68 81.5393 18.76 81.3793 18.8 81.2093C18.85 81.0393 18.87 80.8693 18.87 80.6893C18.87 80.5093 18.84 80.3293 18.79 80.1493C18.74 79.9793 18.66 79.8193 18.55 79.6793C18.45 79.5393 18.32 79.4293 18.17 79.3493C18.01 79.2693 17.84 79.2193 17.66 79.2293C17.48 79.2293 17.3 79.2693 17.15 79.3493C17 79.4293 16.87 79.5393 16.77 79.6793C16.66 79.8193 16.58 79.9793 16.53 80.1493C16.47 80.3293 16.44 80.5093 16.44 80.6893Z" fill="white"/>
<path d="M20.39 78.7504H21.06V79.3104H21.07C21.19 79.1004 21.36 78.9304 21.57 78.8104C21.8 78.7004 22.05 78.6504 22.3 78.6504C22.53 78.6504 22.75 78.7104 22.94 78.8304C23.16 78.9604 23.32 79.1704 23.4 79.4104C23.46 79.2804 23.54 79.1604 23.65 79.0604C23.75 78.9704 23.85 78.8904 23.97 78.8304C24.08 78.7704 24.19 78.7304 24.31 78.7004C24.41 78.6804 24.51 78.6604 24.6 78.6604C24.81 78.6604 25.03 78.6904 25.23 78.7704C25.39 78.8404 25.53 78.9504 25.65 79.0804C25.76 79.2204 25.84 79.3804 25.88 79.5504C25.93 79.7404 25.95 79.9404 25.95 80.1404V82.6404H25.23V80.3204C25.23 80.1904 25.22 80.0704 25.2 79.9504C25.18 79.8304 25.15 79.7104 25.1 79.6004C25.05 79.5004 24.98 79.4104 24.89 79.3404C24.79 79.2704 24.66 79.2304 24.54 79.2404C24.38 79.2404 24.21 79.2804 24.07 79.3704C23.94 79.4504 23.83 79.5604 23.75 79.6904C23.66 79.8304 23.6 79.9904 23.57 80.1504C23.53 80.3304 23.51 80.5004 23.51 80.6804V82.6404H22.79V80.3204C22.79 80.1904 22.79 80.0704 22.76 79.9504C22.74 79.8304 22.71 79.7104 22.66 79.6004C22.61 79.5004 22.54 79.4104 22.45 79.3404C22.35 79.2704 22.22 79.2304 22.1 79.2404C21.94 79.2404 21.77 79.2804 21.63 79.3704C21.5 79.4504 21.39 79.5604 21.31 79.6904C21.22 79.8304 21.16 79.9904 21.13 80.1504C21.09 80.3304 21.07 80.5004 21.07 80.6804V82.6404H20.36V78.7504H20.39Z" fill="white"/>
<path d="M27.81 77.8803H27V77.0703H27.81V77.8803ZM27.05 78.7503H27.77V82.6403H27.05V78.7503Z" fill="white"/>
<path d="M31.33 79.3993C31.2 79.3393 31.07 79.2993 30.93 79.2693C30.81 79.2393 30.68 79.2293 30.55 79.2293C30.37 79.2293 30.18 79.2693 30.02 79.3493C29.87 79.4293 29.73 79.5393 29.63 79.6793C29.52 79.8193 29.44 79.9793 29.39 80.1493C29.33 80.3293 29.3 80.5093 29.3 80.6893C29.3 80.8693 29.33 81.0393 29.37 81.2093C29.42 81.3793 29.49 81.5393 29.6 81.6793C29.71 81.8193 29.84 81.9393 30 82.0193C30.18 82.1093 30.39 82.1593 30.59 82.1493C30.72 82.1493 30.85 82.1293 30.98 82.0893C31.11 82.0493 31.24 81.9993 31.36 81.9293L31.41 82.5693C31.26 82.6393 31.11 82.6793 30.95 82.6993C30.8 82.7193 30.66 82.7293 30.51 82.7293C29.7 82.7393 28.96 82.2393 28.67 81.4793C28.57 81.2293 28.52 80.9593 28.52 80.6893C28.52 80.4093 28.57 80.1293 28.66 79.8693C28.75 79.6293 28.89 79.4093 29.06 79.2293C29.24 79.0493 29.45 78.8993 29.68 78.8093C29.94 78.7093 30.21 78.6493 30.49 78.6593C30.65 78.6593 30.8 78.6793 30.96 78.7093C31.1 78.7293 31.23 78.7693 31.36 78.8093L31.3 79.3993H31.33Z" fill="white"/>
<path d="M37.66 78.1892C37.33 77.9892 36.95 77.8892 36.56 77.8892C36.27 77.8892 35.99 77.9392 35.73 78.0492C35.49 78.1492 35.27 78.2892 35.08 78.4792C34.9 78.6692 34.76 78.8892 34.67 79.1392C34.57 79.4092 34.52 79.6892 34.52 79.9692C34.52 80.2592 34.57 80.5492 34.68 80.8192C34.78 81.0692 34.92 81.2892 35.11 81.4792C35.29 81.6592 35.51 81.8092 35.75 81.8992C36 81.9992 36.26 82.0492 36.53 82.0492C36.63 82.0492 36.73 82.0492 36.83 82.0292C36.94 82.0192 37.04 81.9992 37.15 81.9792C37.25 81.9592 37.35 81.9292 37.45 81.8892C37.53 81.8592 37.61 81.8192 37.69 81.7792L37.74 82.5192C37.64 82.5592 37.53 82.5992 37.43 82.6292C37.32 82.6592 37.21 82.6792 37.1 82.6892C36.88 82.7092 36.69 82.7192 36.53 82.7192C36.14 82.7192 35.75 82.6592 35.38 82.5192C34.71 82.2792 34.18 81.7492 33.93 81.0792C33.79 80.7092 33.72 80.3192 33.73 79.9292C33.73 79.5492 33.8 79.1592 33.94 78.8092C34.07 78.4792 34.27 78.1892 34.52 77.9492C34.78 77.7092 35.08 77.5192 35.41 77.3992C35.77 77.2692 36.15 77.1992 36.54 77.1992C36.74 77.1992 36.95 77.2192 37.15 77.2492C37.35 77.2892 37.55 77.3392 37.74 77.4292L37.68 78.1792L37.66 78.1892Z" fill="white"/>
<path d="M39.21 77.8803H38.4V77.0703H39.21V77.8803ZM38.45 78.7503H39.17V82.6403H38.45V78.7503Z" fill="white"/>
<path d="M42.32 79.3291H41.28V81.4591C41.27 81.6491 41.33 81.8391 41.46 81.9791C41.57 82.0891 41.73 82.1491 41.89 82.1491C41.99 82.1491 42.08 82.1391 42.18 82.1091C42.25 82.0791 42.32 82.0491 42.38 82.0091V82.6191C42.29 82.6491 42.21 82.6691 42.1 82.6891C41.99 82.7191 41.88 82.7291 41.77 82.7291C41.46 82.7491 41.14 82.6491 40.89 82.4591C40.66 82.2291 40.54 81.9191 40.57 81.5991V79.3291H39.69V78.7491H40.57V77.8491L41.29 77.6191V78.7491H42.33V79.3291H42.32Z" fill="white"/>
<path d="M43.86 77.8803H43.05V77.0703H43.86V77.8803ZM43.1 78.7503H43.82V82.6403H43.1V78.7503Z" fill="white"/>
<path d="M47.88 82.4802C47.81 82.5102 47.73 82.5302 47.66 82.5602C47.59 82.5902 47.5 82.6202 47.4 82.6402C47.29 82.6702 47.18 82.6901 47.07 82.7001C46.93 82.7201 46.79 82.7302 46.65 82.7302C46.34 82.7302 46.04 82.6802 45.75 82.5802C45.51 82.4902 45.3 82.3402 45.12 82.1502C44.95 81.9602 44.82 81.7302 44.75 81.4902C44.67 81.2102 44.63 80.9201 44.63 80.6301C44.63 80.3601 44.67 80.0901 44.76 79.8401C44.84 79.6101 44.97 79.4002 45.13 79.2202C45.29 79.0402 45.49 78.9102 45.71 78.8102C45.95 78.7102 46.2 78.6602 46.46 78.6602C46.74 78.6602 47.02 78.7102 47.27 78.8302C47.48 78.9402 47.67 79.0902 47.8 79.2902C47.94 79.5002 48.04 79.7402 48.08 79.9902C48.14 80.2802 48.17 80.5702 48.17 80.8602H45.4C45.4 81.0402 45.43 81.2202 45.5 81.3902C45.56 81.5402 45.66 81.6802 45.78 81.8002C45.9 81.9102 46.04 82.0002 46.19 82.0702C46.34 82.1302 46.51 82.1702 46.68 82.1702C46.8 82.1702 46.93 82.1601 47.05 82.1301C47.17 82.1001 47.28 82.0702 47.4 82.0302C47.5 81.9902 47.6 81.9502 47.69 81.9002C47.76 81.8702 47.83 81.8202 47.89 81.7802V82.5002L47.88 82.4802ZM47.42 80.3202C47.42 80.1802 47.4 80.0402 47.36 79.9002C47.32 79.7702 47.26 79.6602 47.17 79.5502C47.09 79.4502 46.98 79.3702 46.87 79.3202C46.74 79.2602 46.6 79.2302 46.46 79.2302C46.16 79.2202 45.88 79.3502 45.69 79.5802C45.61 79.6802 45.54 79.8002 45.5 79.9302C45.46 80.0502 45.43 80.1802 45.41 80.3102H47.42V80.3202Z" fill="white"/>
<path d="M48.63 81.8799C48.7 81.9299 48.78 81.9699 48.86 81.9999C48.94 82.0399 49.02 82.0599 49.11 82.0899C49.19 82.1099 49.26 82.1299 49.34 82.1399C49.4 82.1499 49.47 82.1499 49.53 82.1599C49.61 82.1599 49.7 82.1599 49.78 82.1299C49.86 82.1099 49.94 82.0799 50.02 82.0399C50.09 81.9999 50.15 81.9399 50.19 81.8699C50.24 81.7899 50.26 81.6899 50.26 81.5999C50.26 81.5199 50.23 81.4399 50.19 81.3699C50.14 81.2999 50.07 81.2399 50 81.1799C49.91 81.1199 49.82 81.0699 49.73 81.0199C49.63 80.9699 49.53 80.9199 49.42 80.8699C49.31 80.8199 49.21 80.7599 49.11 80.6999C49.01 80.6399 48.92 80.5699 48.84 80.4899C48.76 80.4099 48.7 80.3199 48.65 80.2199C48.6 80.1099 48.57 79.9799 48.58 79.8599C48.58 79.6799 48.61 79.4999 48.68 79.3299C48.75 79.1799 48.84 79.0599 48.97 78.9599C49.1 78.8599 49.25 78.7799 49.4 78.7399C49.58 78.6899 49.76 78.6699 49.94 78.6699C50.1 78.6699 50.25 78.6799 50.41 78.7199C50.55 78.7499 50.69 78.7899 50.84 78.8299L50.78 79.4599C50.73 79.4299 50.67 79.4099 50.62 79.3899C50.55 79.3599 50.48 79.3499 50.41 79.3299C50.34 79.3099 50.26 79.2999 50.19 79.2899C50.14 79.2799 50.08 79.2799 50.03 79.2699C49.86 79.2699 49.69 79.3099 49.54 79.3799C49.41 79.4499 49.33 79.5899 49.34 79.7399C49.34 79.8299 49.36 79.9199 49.41 79.9999C49.46 80.0699 49.53 80.1399 49.6 80.1899C49.69 80.2499 49.78 80.2899 49.87 80.3399C49.97 80.3899 50.07 80.4399 50.18 80.4899C50.29 80.5399 50.39 80.5899 50.49 80.6499C50.59 80.7099 50.68 80.7799 50.76 80.8599C50.84 80.9499 50.91 81.0499 50.95 81.1499C51 81.2799 51.03 81.4099 51.02 81.5499C51.02 81.7399 50.98 81.9199 50.91 82.0899C50.84 82.2399 50.73 82.3699 50.6 82.4699C50.47 82.5699 50.32 82.6499 50.17 82.6899C50.01 82.7399 49.84 82.7599 49.67 82.7599C49.49 82.7599 49.3 82.7499 49.12 82.7199C48.94 82.6899 48.76 82.6299 48.6 82.5499L48.64 81.9099L48.63 81.8799Z" fill="white"/>
<path d="M53.75 79.019C53.94 78.909 54.13 78.819 54.34 78.759C54.56 78.689 54.8 78.659 55.03 78.659C55.47 78.619 55.91 78.759 56.23 79.069C56.5 79.409 56.63 79.839 56.59 80.269V81.879C56.59 82.099 56.59 82.269 56.59 82.389C56.59 82.479 56.6 82.559 56.62 82.649H55.95V82.139H55.94C55.89 82.209 55.83 82.279 55.77 82.329C55.69 82.409 55.61 82.469 55.51 82.519C55.4 82.579 55.28 82.629 55.16 82.669C55.02 82.709 54.87 82.729 54.72 82.729C54.53 82.729 54.33 82.709 54.14 82.659C53.98 82.619 53.82 82.549 53.69 82.439C53.56 82.339 53.46 82.209 53.4 82.059C53.33 81.879 53.29 81.699 53.3 81.509C53.3 81.399 53.31 81.279 53.35 81.169C53.38 81.069 53.42 80.979 53.48 80.889C53.54 80.809 53.6 80.729 53.68 80.669C53.76 80.609 53.84 80.549 53.93 80.499C54.11 80.399 54.31 80.329 54.52 80.289C54.72 80.249 54.92 80.219 55.12 80.219H55.68C55.74 80.219 55.81 80.219 55.88 80.229C55.9 79.959 55.83 79.689 55.67 79.469C55.47 79.269 55.19 79.179 54.92 79.209C54.71 79.209 54.51 79.249 54.32 79.309C54.13 79.379 53.96 79.469 53.8 79.599L53.76 78.989L53.75 79.019ZM55.88 80.779C55.8 80.779 55.73 80.779 55.65 80.779C55.57 80.779 55.5 80.779 55.42 80.779C55.37 80.779 55.31 80.779 55.25 80.779H55.04C54.89 80.799 54.74 80.839 54.59 80.889C54.45 80.939 54.32 81.009 54.22 81.109C54.11 81.219 54.06 81.369 54.06 81.519C54.06 81.609 54.08 81.709 54.13 81.789C54.17 81.869 54.23 81.929 54.3 81.989C54.37 82.049 54.45 82.089 54.54 82.109C54.62 82.139 54.71 82.149 54.79 82.149C55.33 82.199 55.81 81.809 55.87 81.269C55.87 81.219 55.87 81.169 55.87 81.119V80.779H55.88Z" fill="white"/>
<path d="M57.59 78.7503H58.28V79.3603H58.29C58.4 79.1303 58.58 78.9503 58.8 78.8403C59.04 78.7203 59.3 78.6503 59.56 78.6503C59.98 78.6103 60.39 78.7803 60.67 79.0903C60.92 79.4503 61.04 79.8803 61.02 80.3203V82.6303H60.31V80.6103C60.33 80.2603 60.27 79.9103 60.14 79.5903C60.01 79.3603 59.76 79.2103 59.49 79.2303C59.3 79.2303 59.12 79.2703 58.96 79.3503C58.81 79.4303 58.68 79.5403 58.59 79.6803C58.49 79.8303 58.41 80.0103 58.38 80.1903C58.33 80.4003 58.31 80.6203 58.31 80.8403V82.6403H57.6V78.7503H57.59Z" fill="white"/>
<path d="M64.78 82.0904H64.77C64.72 82.1704 64.66 82.2504 64.58 82.3104C64.49 82.3904 64.39 82.4604 64.29 82.5204C64.17 82.5804 64.04 82.6404 63.91 82.6704C63.76 82.7104 63.6 82.7304 63.44 82.7304C63.18 82.7304 62.91 82.6804 62.68 82.5504C62.47 82.4304 62.3 82.2704 62.16 82.0704C62.02 81.8604 61.92 81.6404 61.86 81.3904C61.8 81.1404 61.76 80.8804 61.76 80.6104C61.76 80.3404 61.79 80.1104 61.86 79.8604C61.92 79.6304 62.03 79.4204 62.17 79.2304C62.31 79.0504 62.49 78.9004 62.69 78.8004C62.92 78.6904 63.17 78.6304 63.43 78.6404C63.71 78.6304 63.99 78.6904 64.24 78.8204C64.43 78.9304 64.59 79.0804 64.71 79.2704H64.72V76.9004H65.43V82.6204H64.74V82.0704L64.78 82.0904ZM62.53 80.6804C62.53 80.7904 62.53 80.8904 62.55 81.0004C62.57 81.1104 62.59 81.2304 62.63 81.3304C62.67 81.4404 62.72 81.5404 62.77 81.6404C62.83 81.7404 62.9 81.8204 62.98 81.9004C63.06 81.9804 63.16 82.0404 63.26 82.0804C63.37 82.1304 63.49 82.1504 63.61 82.1504C63.79 82.1504 63.97 82.1104 64.13 82.0104C64.27 81.9204 64.39 81.8004 64.48 81.6604C64.57 81.5204 64.64 81.3604 64.68 81.1904C64.72 81.0304 64.74 80.8604 64.74 80.6904C64.74 80.5104 64.71 80.3304 64.67 80.1504C64.63 79.9804 64.55 79.8204 64.45 79.6804C64.36 79.5404 64.24 79.4304 64.09 79.3504C63.94 79.2604 63.76 79.2204 63.58 79.2204C63.4 79.2204 63.23 79.2604 63.08 79.3504C62.94 79.4304 62.83 79.5404 62.74 79.6804C62.65 79.8204 62.59 79.9804 62.55 80.1404C62.51 80.3104 62.5 80.4904 62.5 80.6704" fill="white"/>
<path d="M70.85 78.1193C70.75 78.0793 70.67 78.0493 70.59 78.0193C70.51 77.9893 70.43 77.9693 70.36 77.9493C70.28 77.9293 70.2 77.9193 70.12 77.9093C70.03 77.8993 69.94 77.8893 69.85 77.8993C69.74 77.8993 69.63 77.9093 69.52 77.9293C69.41 77.9493 69.31 77.9893 69.22 78.0393C69.13 78.0993 69.06 78.1693 69 78.2593C68.94 78.3593 68.91 78.4893 68.91 78.6093C68.91 78.7693 68.96 78.9193 69.08 79.0293C69.21 79.1493 69.35 79.2593 69.51 79.3293C69.68 79.4193 69.86 79.5093 70.06 79.5993C70.21 79.6693 70.35 79.7493 70.48 79.8393C70.62 79.9293 70.74 80.0393 70.85 80.1593C70.96 80.2893 71.05 80.4293 71.11 80.5893C71.18 80.7693 71.21 80.9693 71.21 81.1593C71.21 81.4093 71.16 81.6593 71.05 81.8893C70.95 82.0893 70.81 82.2493 70.63 82.3793C70.44 82.5093 70.23 82.6093 70.01 82.6593C69.77 82.7193 69.51 82.7493 69.26 82.7493C69.07 82.7493 68.89 82.7293 68.71 82.6793C68.53 82.6293 68.35 82.5793 68.17 82.5193L68.25 81.8093C68.31 81.8393 68.39 81.8593 68.48 81.8993C68.57 81.9393 68.66 81.9593 68.75 81.9893C68.85 82.0193 68.95 82.0393 69.05 82.0493C69.15 82.0593 69.25 82.0793 69.35 82.0793C69.47 82.0793 69.58 82.0593 69.7 82.0293C69.82 81.9993 69.94 81.9493 70.05 81.8793C70.15 81.8093 70.24 81.7193 70.31 81.6093C70.38 81.4893 70.42 81.3493 70.41 81.2093C70.41 81.0793 70.38 80.9393 70.31 80.8293C70.24 80.7193 70.15 80.6293 70.05 80.5493C69.93 80.4693 69.81 80.3893 69.68 80.3293L69.26 80.1293C69.12 80.0593 68.98 79.9893 68.84 79.9093C68.7 79.8293 68.58 79.7293 68.47 79.6193C68.36 79.5093 68.27 79.3693 68.21 79.2293C68.14 79.0593 68.11 78.8793 68.11 78.6993C68.11 78.4893 68.15 78.2693 68.24 78.0793C68.33 77.8993 68.45 77.7493 68.6 77.6293C68.76 77.4993 68.95 77.4093 69.15 77.3493C69.37 77.2893 69.59 77.2493 69.82 77.2593C70.01 77.2593 70.2 77.2693 70.38 77.3093C70.58 77.3393 70.77 77.3893 70.95 77.4493L70.84 78.1493L70.85 78.1193Z" fill="white"/>
<path d="M71.96 78.7502H72.65V79.3002H72.66C72.71 79.2202 72.78 79.1502 72.85 79.0802C72.94 79.0002 73.03 78.9302 73.13 78.8702C73.25 78.8002 73.38 78.7502 73.51 78.7202C73.66 78.6802 73.82 78.6602 73.98 78.6602C74.23 78.6602 74.49 78.7102 74.72 78.8202C74.92 78.9202 75.1 79.0702 75.24 79.2502C75.38 79.4402 75.49 79.6501 75.55 79.8801C75.62 80.1201 75.66 80.3701 75.65 80.6301C75.65 80.8901 75.62 81.1602 75.56 81.4102C75.5 81.6502 75.4 81.8802 75.26 82.0802C75.13 82.2802 74.95 82.4402 74.74 82.5502C74.51 82.6702 74.25 82.7402 73.99 82.7302C73.7 82.7402 73.42 82.6802 73.16 82.5502C72.97 82.4402 72.81 82.2902 72.68 82.1002H72.67V84.2302H71.95V78.7402L71.96 78.7502ZM74.89 80.6802C74.89 80.5002 74.88 80.3302 74.84 80.1602C74.8 80.0002 74.74 79.8401 74.65 79.7001C74.56 79.5701 74.45 79.4502 74.32 79.3702C74.17 79.2802 74 79.2402 73.82 79.2402C73.64 79.2402 73.47 79.2802 73.31 79.3702C73.17 79.4502 73.04 79.5701 72.95 79.7001C72.85 79.8401 72.78 80.0002 72.74 80.1702C72.69 80.3502 72.67 80.5302 72.67 80.7102C72.67 80.8802 72.69 81.0502 72.73 81.2102C72.77 81.3802 72.84 81.5302 72.93 81.6802C73.02 81.8202 73.14 81.9402 73.29 82.0302C73.45 82.1202 73.63 82.1702 73.81 82.1702C73.93 82.1702 74.05 82.1502 74.16 82.1002C74.26 82.0602 74.36 82.0002 74.44 81.9202C74.52 81.8402 74.59 81.7602 74.65 81.6602C74.71 81.5602 74.76 81.4602 74.79 81.3502C74.83 81.2402 74.85 81.1301 74.87 81.0201C74.88 80.9101 74.89 80.8101 74.89 80.7001" fill="white"/>
<path d="M79.38 82.4802C79.31 82.5102 79.23 82.5302 79.16 82.5602C79.09 82.5902 79 82.6202 78.9 82.6402C78.79 82.6702 78.68 82.6901 78.57 82.7001C78.43 82.7201 78.29 82.7302 78.15 82.7302C77.85 82.7302 77.54 82.6802 77.26 82.5802C77.02 82.4902 76.81 82.3402 76.63 82.1502C76.46 81.9602 76.33 81.7302 76.26 81.4902C76.18 81.2102 76.14 80.9201 76.14 80.6301C76.14 80.3601 76.18 80.0901 76.27 79.8401C76.35 79.6101 76.48 79.4002 76.64 79.2202C76.8 79.0402 77 78.9102 77.22 78.8102C77.46 78.7102 77.71 78.6602 77.97 78.6602C78.25 78.6602 78.53 78.7102 78.78 78.8302C78.99 78.9402 79.18 79.0902 79.31 79.2902C79.45 79.5002 79.55 79.7402 79.59 79.9902C79.65 80.2802 79.68 80.5702 79.68 80.8602H76.9C76.9 81.0402 76.93 81.2202 77.01 81.3902C77.07 81.5402 77.17 81.6802 77.29 81.8002C77.41 81.9102 77.55 82.0002 77.7 82.0702C77.85 82.1302 78.02 82.1702 78.19 82.1702C78.31 82.1702 78.44 82.1601 78.56 82.1301C78.68 82.1001 78.79 82.0702 78.91 82.0302C79.01 81.9902 79.11 81.9502 79.2 81.9002C79.27 81.8702 79.34 81.8202 79.4 81.7802V82.5002L79.38 82.4802ZM78.91 80.3202C78.91 80.1802 78.89 80.0402 78.85 79.9002C78.81 79.7702 78.75 79.6602 78.66 79.5502C78.58 79.4502 78.47 79.3702 78.35 79.3202C78.22 79.2602 78.08 79.2302 77.94 79.2302C77.78 79.2302 77.63 79.2602 77.48 79.3302C77.36 79.3902 77.25 79.4801 77.17 79.5901C77.09 79.6901 77.02 79.8102 76.98 79.9402C76.94 80.0602 76.91 80.1902 76.89 80.3202H78.9H78.91Z" fill="white"/>
<path d="M82.89 79.3993C82.76 79.3393 82.63 79.2993 82.49 79.2693C82.37 79.2393 82.24 79.2293 82.11 79.2293C81.93 79.2293 81.74 79.2693 81.58 79.3493C81.43 79.4293 81.29 79.5393 81.19 79.6793C81.08 79.8193 81 79.9793 80.95 80.1493C80.89 80.3293 80.86 80.5093 80.86 80.6893C80.86 80.8693 80.89 81.0393 80.93 81.2093C80.98 81.3793 81.06 81.5393 81.16 81.6793C81.27 81.8193 81.4 81.9393 81.56 82.0193C81.74 82.1093 81.95 82.1593 82.15 82.1493C82.28 82.1493 82.41 82.1293 82.54 82.0893C82.67 82.0493 82.8 81.9993 82.92 81.9293L82.97 82.5693C82.82 82.6393 82.67 82.6793 82.51 82.6993C82.36 82.7193 82.22 82.7293 82.07 82.7293C81.53 82.7293 81.01 82.5193 80.64 82.1293C80.46 81.9393 80.33 81.7193 80.23 81.4793C80.13 81.2293 80.08 80.9593 80.08 80.6893C80.08 80.4093 80.13 80.1293 80.22 79.8693C80.31 79.6293 80.45 79.4093 80.62 79.2293C80.8 79.0493 81.01 78.8993 81.24 78.8093C81.5 78.7093 81.77 78.6493 82.05 78.6593C82.21 78.6593 82.36 78.6793 82.52 78.7093C82.66 78.7293 82.79 78.7593 82.92 78.8093L82.86 79.4093L82.89 79.3993Z" fill="white"/>
<path d="M84.44 77.8803H83.63V77.0703H84.44V77.8803ZM83.68 78.7503H84.4V82.6403H83.68V78.7503Z" fill="white"/>
<path d="M85.66 79.019C85.85 78.909 86.04 78.829 86.25 78.759C86.47 78.689 86.71 78.659 86.94 78.659C87.38 78.619 87.82 78.759 88.14 79.069C88.41 79.409 88.54 79.839 88.5 80.269V81.879C88.5 82.099 88.5 82.269 88.5 82.389C88.5 82.479 88.51 82.559 88.53 82.649H87.86V82.139H87.85C87.8 82.209 87.74 82.279 87.68 82.329C87.6 82.409 87.52 82.469 87.42 82.519C87.31 82.579 87.19 82.629 87.07 82.669C86.93 82.709 86.78 82.729 86.63 82.729C86.44 82.729 86.24 82.709 86.06 82.659C85.9 82.619 85.74 82.549 85.6 82.439C85.47 82.339 85.37 82.209 85.31 82.059C85.23 81.889 85.2 81.699 85.21 81.509C85.21 81.399 85.22 81.279 85.26 81.169C85.29 81.069 85.33 80.979 85.39 80.889C85.45 80.809 85.52 80.729 85.59 80.669C85.67 80.609 85.75 80.549 85.84 80.499C86.02 80.399 86.22 80.329 86.43 80.289C86.63 80.249 86.83 80.219 87.03 80.219H87.59C87.65 80.219 87.72 80.219 87.79 80.229C87.81 79.959 87.74 79.689 87.58 79.469C87.38 79.269 87.1 79.179 86.83 79.209C86.62 79.209 86.42 79.249 86.23 79.309C86.04 79.379 85.86 79.469 85.71 79.599L85.67 78.989L85.66 79.019ZM87.79 80.779C87.72 80.779 87.64 80.779 87.56 80.779C87.48 80.779 87.41 80.779 87.33 80.779C87.28 80.779 87.22 80.779 87.16 80.779H86.95C86.8 80.799 86.65 80.839 86.5 80.889C86.36 80.939 86.23 81.009 86.13 81.109C86.02 81.219 85.97 81.369 85.97 81.519C85.97 81.609 85.99 81.709 86.04 81.789C86.08 81.869 86.14 81.929 86.21 81.989C86.28 82.049 86.36 82.089 86.45 82.109C86.53 82.139 86.62 82.149 86.7 82.149C87.24 82.199 87.72 81.809 87.78 81.269C87.78 81.219 87.78 81.169 87.78 81.119V80.779H87.79Z" fill="white"/>
<path d="M90.31 76.9199H89.59V82.6399H90.31V76.9199Z" fill="white"/>
<path d="M92.9301 81.9505L95.6901 77.9806H93.0101V77.3105H96.5601V78.0005L93.8101 81.9706H96.6101V82.6405H92.9301V81.9505Z" fill="white"/>
<path d="M97.06 80.6893C97.06 80.4093 97.11 80.1393 97.2 79.8693C97.29 79.6293 97.43 79.4093 97.6 79.2293C97.78 79.0493 97.99 78.8993 98.23 78.8093C98.49 78.7093 98.77 78.6493 99.04 78.6593C99.32 78.6593 99.59 78.7093 99.85 78.8093C100.09 78.9093 100.3 79.0493 100.47 79.2293C100.65 79.4193 100.78 79.6293 100.87 79.8693C100.97 80.1293 101.01 80.4093 101.01 80.6893C101.01 80.9593 100.96 81.2293 100.86 81.4793C100.77 81.7193 100.63 81.9393 100.45 82.1293C100.27 82.3193 100.06 82.4693 99.83 82.5693C99.58 82.6793 99.3 82.7293 99.03 82.7293C98.75 82.7293 98.48 82.6793 98.23 82.5693C97.99 82.4693 97.78 82.3193 97.6 82.1293C97.42 81.9393 97.29 81.7193 97.19 81.4793C97.09 81.2293 97.04 80.9593 97.04 80.6893M97.8 80.6893C97.8 80.8693 97.83 81.0393 97.87 81.2093C97.92 81.3793 97.99 81.5393 98.09 81.6793C98.19 81.8193 98.32 81.9293 98.47 82.0193C98.64 82.1093 98.83 82.1493 99.02 82.1493C99.21 82.1493 99.4 82.1093 99.56 82.0193C99.71 81.9393 99.84 81.8193 99.94 81.6793C100.04 81.5393 100.12 81.3793 100.16 81.2093C100.21 81.0393 100.23 80.8693 100.23 80.6893C100.23 80.5093 100.2 80.3293 100.15 80.1493C100.1 79.9793 100.02 79.8193 99.91 79.6793C99.81 79.5393 99.68 79.4293 99.53 79.3493C99.37 79.2693 99.2 79.2193 99.02 79.2293C98.84 79.2293 98.67 79.2693 98.51 79.3493C98.36 79.4293 98.23 79.5393 98.13 79.6793C98.02 79.8193 97.94 79.9793 97.89 80.1493C97.83 80.3293 97.8 80.5093 97.8 80.6893Z" fill="white"/>
<path d="M101.76 78.7503H102.45V79.3603H102.46C102.57 79.1403 102.75 78.9503 102.97 78.8403C103.21 78.7203 103.47 78.6503 103.73 78.6503C104.15 78.6103 104.56 78.7803 104.84 79.0903C105.09 79.4503 105.22 79.8803 105.19 80.3203V82.6303H104.47V80.6103C104.49 80.2603 104.43 79.9103 104.3 79.5903C104.17 79.3603 103.92 79.2103 103.65 79.2303C103.46 79.2303 103.28 79.2703 103.12 79.3503C102.97 79.4303 102.84 79.5403 102.75 79.6803C102.65 79.8303 102.58 80.0103 102.54 80.1903C102.49 80.4003 102.47 80.6203 102.47 80.8403V82.6403H101.76V78.7503Z" fill="white"/>
<path d="M109.18 82.4802C109.11 82.5102 109.03 82.5302 108.96 82.5602C108.89 82.5902 108.8 82.6202 108.7 82.6402C108.59 82.6702 108.48 82.6901 108.37 82.7001C108.23 82.7201 108.09 82.7302 107.95 82.7302C107.64 82.7302 107.34 82.6802 107.05 82.5802C106.81 82.4902 106.6 82.3402 106.42 82.1502C106.25 81.9602 106.12 81.7302 106.05 81.4902C105.97 81.2102 105.93 80.9201 105.93 80.6301C105.93 80.3601 105.97 80.0901 106.06 79.8401C106.14 79.6101 106.27 79.4002 106.43 79.2202C106.59 79.0402 106.79 78.9102 107.01 78.8102C107.25 78.7102 107.5 78.6602 107.76 78.6602C108.04 78.6602 108.32 78.7102 108.57 78.8302C108.78 78.9402 108.96 79.0902 109.1 79.2902C109.24 79.5002 109.34 79.7402 109.39 79.9902C109.45 80.2802 109.48 80.5702 109.48 80.8602H106.71C106.71 81.0402 106.74 81.2202 106.82 81.3902C106.88 81.5402 106.98 81.6802 107.1 81.8002C107.22 81.9102 107.36 82.0002 107.51 82.0702C107.66 82.1302 107.83 82.1702 108 82.1702C108.13 82.1702 108.25 82.1601 108.37 82.1301C108.49 82.1001 108.6 82.0702 108.72 82.0302C108.82 81.9902 108.92 81.9502 109.01 81.9002C109.08 81.8702 109.15 81.8202 109.21 81.7802V82.5002L109.18 82.4802ZM108.71 80.3202C108.71 80.1802 108.69 80.0402 108.65 79.9002C108.61 79.7702 108.55 79.6602 108.46 79.5502C108.38 79.4502 108.27 79.3702 108.15 79.3202C108.02 79.2602 107.88 79.2302 107.74 79.2302C107.58 79.2302 107.43 79.2602 107.28 79.3302C107.16 79.3902 107.05 79.4801 106.97 79.5901C106.89 79.6901 106.82 79.8102 106.78 79.9402C106.74 80.0602 106.71 80.1902 106.69 80.3202H108.7H108.71Z" fill="white"/>
<path d="M109.93 81.8799C110 81.9299 110.08 81.9699 110.16 81.9999C110.24 82.0399 110.32 82.0599 110.41 82.0899C110.49 82.1099 110.56 82.1299 110.64 82.1399C110.7 82.1499 110.76 82.1499 110.83 82.1599C110.91 82.1599 111 82.1599 111.08 82.1299C111.16 82.0999 111.24 82.0799 111.32 82.0399C111.39 81.9999 111.45 81.9399 111.49 81.8699C111.54 81.7899 111.56 81.6899 111.56 81.5999C111.56 81.5199 111.53 81.4399 111.49 81.3699C111.44 81.2999 111.37 81.2399 111.3 81.1799C111.21 81.1199 111.12 81.0699 111.03 81.0199C110.93 80.9699 110.83 80.9199 110.72 80.8699C110.61 80.8199 110.51 80.7599 110.41 80.6999C110.31 80.6399 110.22 80.5699 110.14 80.4899C110.06 80.4099 110 80.3199 109.95 80.2199C109.9 80.1099 109.87 79.9799 109.88 79.8599C109.88 79.6799 109.91 79.4999 109.98 79.3299C110.05 79.1799 110.14 79.0599 110.27 78.9599C110.4 78.8599 110.55 78.7799 110.7 78.7399C110.88 78.6899 111.06 78.6699 111.24 78.6699C111.4 78.6699 111.55 78.6799 111.71 78.7199C111.85 78.7499 111.99 78.7899 112.14 78.8299L112.08 79.4599C112.03 79.4299 111.97 79.4099 111.92 79.3899C111.85 79.3599 111.78 79.3499 111.7 79.3299C111.62 79.3099 111.55 79.2999 111.49 79.2899C111.44 79.2799 111.38 79.2799 111.33 79.2699C111.16 79.2699 110.99 79.3099 110.84 79.3799C110.71 79.4499 110.63 79.5899 110.64 79.7399C110.64 79.8299 110.66 79.9199 110.71 79.9999C110.76 80.0699 110.83 80.1399 110.9 80.1899C110.99 80.2499 111.08 80.2999 111.17 80.3399C111.27 80.3899 111.37 80.4399 111.48 80.4899C111.59 80.5399 111.69 80.5899 111.79 80.6499C111.89 80.7099 111.98 80.7799 112.06 80.8599C112.24 81.0499 112.33 81.2999 112.33 81.5599C112.33 81.7499 112.29 81.9299 112.22 82.0999C112.15 82.2499 112.04 82.3799 111.91 82.4799C111.78 82.5799 111.63 82.6599 111.48 82.6999C111.32 82.7499 111.15 82.7699 110.98 82.7699C110.8 82.7699 110.61 82.7599 110.43 82.7299C110.25 82.6999 110.07 82.6399 109.91 82.5599L109.95 81.9199L109.93 81.8799Z" fill="white"/>
<path d="M116.62 77.3105H117.42L119.67 82.6405H118.84L118.3 81.3006H115.69L115.15 82.6405H114.35L116.62 77.3105ZM116.99 78.0305L115.93 80.6705H118.05L116.99 78.0305Z" fill="white"/>
<path d="M123.59 82.64H122.9V82.02H122.88C122.77 82.25 122.59 82.43 122.37 82.54C122.13 82.66 121.87 82.73 121.61 82.73C121.19 82.76 120.78 82.6 120.5 82.29C120.25 81.93 120.12 81.5 120.15 81.06V78.75H120.87V80.76C120.85 81.11 120.91 81.46 121.04 81.79C121.17 82.02 121.42 82.17 121.69 82.16C121.87 82.16 122.05 82.12 122.22 82.04C122.37 81.96 122.5 81.85 122.59 81.71C122.69 81.56 122.77 81.38 122.8 81.2C122.85 80.99 122.87 80.77 122.87 80.55V78.75H123.58V82.64H123.59Z" fill="white"/>
<path d="M126.66 79.3291H125.63V81.4591C125.61 81.6491 125.68 81.8391 125.81 81.9791C125.92 82.0891 126.07 82.1491 126.23 82.1491C126.33 82.1491 126.42 82.1391 126.52 82.1091C126.59 82.0891 126.66 82.0491 126.72 82.0091V82.6191C126.64 82.6491 126.55 82.6691 126.44 82.6891C126.33 82.7191 126.22 82.7291 126.11 82.7291C125.8 82.7491 125.48 82.6491 125.23 82.4591C125 82.2291 124.88 81.9191 124.91 81.5991V79.3291H124.03V78.7491H124.91V77.8491L125.63 77.6191V78.7491H126.66V79.3291Z" fill="white"/>
<path d="M127.34 76.9199H128.05V79.3099H128.07C128.2 79.1099 128.37 78.9399 128.59 78.8299C128.82 78.7199 129.07 78.6599 129.32 78.6599C129.74 78.6199 130.15 78.7899 130.43 79.0999C130.68 79.4599 130.81 79.8899 130.78 80.3299V82.6399H130.07V80.6299C130.09 80.2799 130.03 79.9299 129.9 79.6099C129.77 79.3799 129.52 79.2299 129.25 79.2499C129.06 79.2499 128.88 79.2899 128.72 79.3699C128.57 79.4499 128.44 79.5599 128.35 79.6999C128.25 79.8499 128.18 80.0299 128.14 80.1999C128.09 80.4099 128.07 80.6299 128.07 80.8499V82.6499H127.36V76.9299L127.34 76.9199Z" fill="white"/>
<path d="M131.52 80.6893C131.52 80.4093 131.57 80.1393 131.66 79.8693C131.75 79.6293 131.89 79.4093 132.06 79.2293C132.24 79.0493 132.45 78.8993 132.68 78.8093C132.94 78.7093 133.22 78.6493 133.49 78.6593C133.77 78.6593 134.04 78.7093 134.3 78.8093C134.54 78.9093 134.75 79.0493 134.92 79.2293C135.1 79.4193 135.23 79.6293 135.32 79.8693C135.42 80.1293 135.46 80.4093 135.46 80.6893C135.46 80.9593 135.41 81.2293 135.31 81.4793C135.22 81.7193 135.08 81.9393 134.9 82.1293C134.72 82.3193 134.51 82.4693 134.28 82.5693C134.03 82.6793 133.75 82.7293 133.48 82.7293C133.2 82.7293 132.93 82.6793 132.68 82.5693C132.44 82.4693 132.23 82.3193 132.05 82.1293C131.87 81.9393 131.74 81.7193 131.64 81.4793C131.54 81.2293 131.49 80.9593 131.49 80.6893M132.25 80.6893C132.25 80.8693 132.28 81.0393 132.32 81.2093C132.37 81.3793 132.44 81.5393 132.54 81.6793C132.64 81.8193 132.77 81.9293 132.92 82.0193C133.09 82.1093 133.28 82.1593 133.47 82.1493C133.66 82.1493 133.85 82.1093 134.01 82.0193C134.16 81.9393 134.29 81.8193 134.39 81.6793C134.49 81.5393 134.57 81.3793 134.61 81.2093C134.66 81.0393 134.68 80.8693 134.68 80.6893C134.68 80.5093 134.65 80.3293 134.59 80.1493C134.54 79.9793 134.46 79.8193 134.35 79.6793C134.25 79.5393 134.12 79.4293 133.97 79.3493C133.65 79.1893 133.27 79.1893 132.95 79.3493C132.8 79.4293 132.67 79.5393 132.57 79.6793C132.46 79.8193 132.38 79.9793 132.33 80.1493C132.27 80.3293 132.24 80.5093 132.24 80.6893" fill="white"/>
<path d="M136.22 78.7502H136.89V79.3502H136.9C136.99 79.1502 137.14 78.9802 137.33 78.8502C137.5 78.7202 137.71 78.6602 137.92 78.6602C138.01 78.6602 138.09 78.6602 138.18 78.6702C138.25 78.6802 138.32 78.6902 138.39 78.7102V79.3502C138.33 79.3202 138.26 79.3102 138.19 79.3002C138.13 79.3002 138.06 79.2902 137.99 79.2902C137.68 79.2902 137.38 79.4502 137.22 79.7202C137.01 80.0702 136.91 80.4701 136.93 80.8801V82.6502H136.22V78.7502Z" fill="white"/>
<path d="M139.82 77.8803H139.01V77.0703H139.82V77.8803ZM139.06 78.7503H139.78V82.6403H139.06V78.7503Z" fill="white"/>
<path d="M142.93 79.3291H141.89V81.4591C141.88 81.6491 141.94 81.8391 142.07 81.9791C142.18 82.0891 142.34 82.1491 142.5 82.1491C142.6 82.1491 142.7 82.1391 142.79 82.1091C142.86 82.0891 142.93 82.0491 142.99 82.0091V82.6191C142.91 82.6491 142.82 82.6691 142.71 82.6891C142.6 82.7191 142.49 82.7291 142.38 82.7291C142.07 82.7491 141.75 82.6491 141.5 82.4591C141.27 82.2291 141.15 81.9191 141.18 81.5991V79.3291H140.3V78.7491H141.18V77.8491L141.9 77.6191V78.7491H142.94V79.3291H142.93Z" fill="white"/>
<path d="M143.32 83.69C143.37 83.71 143.42 83.72 143.48 83.73C143.54 83.74 143.6 83.75 143.66 83.75C143.81 83.75 143.95 83.7 144.06 83.61C144.17 83.52 144.26 83.42 144.32 83.3C144.38 83.2 144.43 83.09 144.47 82.97C144.49 82.91 144.51 82.85 144.52 82.79C144.52 82.73 144.49 82.66 144.47 82.6L144.38 82.37L143.06 78.75H143.85L144.9 81.97H144.91L145.98 78.75H146.7L145.27 82.73C145.21 82.92 145.14 83.11 145.06 83.3C144.99 83.48 144.89 83.66 144.78 83.82C144.67 83.97 144.53 84.1 144.37 84.2C144.19 84.3 143.98 84.35 143.78 84.35C143.69 84.35 143.59 84.35 143.5 84.33L143.29 84.3L143.34 83.71L143.32 83.69Z" fill="white"/>
</g>
<defs>
<clipPath id="clip0_729_13288">
<rect width="146.69" height="84.34" fill="white"/>
</clipPath>
</defs>
</svg>
