<svg width="176" height="54" viewBox="0 0 176 54" fill="none" xmlns="http://www.w3.org/2000/svg">
<g id="Layer_16" clip-path="url(#clip0_729_5413)">
<g id="Group">
<path id="Vector" d="M166.33 22.8095C165.52 21.1095 166.24 19.0895 167.94 18.2795L171.48 16.5995L144 3.42945L116.44 16.5995L119.97 18.2795C121.67 19.0895 122.39 21.1195 121.58 22.8095L114.54 19.4595C113.42 18.9295 112.73 17.8295 112.73 16.5895C112.73 15.3495 113.43 14.2595 114.55 13.7295L142.64 0.309453C143.51 -0.100547 144.51 -0.100547 145.37 0.309453L173.39 13.7395C174.5 14.2695 175.2 15.3695 175.2 16.5995C175.2 17.8295 174.5 18.9295 173.38 19.4695L166.33 22.8195V22.8095ZM171.92 16.7995H116.02H171.92Z" fill="white"/>
<path id="Vector_2" d="M144.97 52.969C144.33 53.269 143.59 53.269 142.96 52.969L114.46 39.469C113.36 38.949 112.66 37.869 112.64 36.649C112.63 35.429 113.29 34.329 114.38 33.779L121.44 30.209C122.29 31.879 121.62 33.929 119.94 34.779L116.34 36.599L143.97 49.679L171.6 36.599L168 34.779C166.32 33.929 165.65 31.879 166.5 30.209L173.46 33.729C174.47 34.239 175.2 35.219 175.29 36.339C175.4 37.679 174.68 38.909 173.48 39.469L144.98 52.969H144.97Z" fill="white"/>
<path id="Vector_3" d="M145.67 34.6699V21.6899L151.83 24.7999C152.68 23.1299 152.01 21.0799 150.33 20.2299L147.75 18.9299L156.12 14.8099C155.29 13.1299 153.24 12.4399 151.55 13.2699L145.67 16.1699V15.1199C145.67 13.6999 145.05 12.3499 143.97 11.4199C142.89 12.3499 142.26 13.6999 142.26 15.1199V16.2099L135.92 13.2099C134.22 12.4099 132.19 13.1299 131.38 14.8199L140.14 18.9599L137.62 20.2299C135.94 21.0799 135.27 23.1299 136.12 24.7999L142.27 21.6899V34.6599L128.51 27.6899V27.7099C128.51 30.0399 129.82 32.1699 131.9 33.2299L140.2 37.4399L134.53 40.2699C135.38 41.9499 137.42 42.6199 139.11 41.7799L143.98 39.3399L148.75 41.7699C150.43 42.6199 152.48 41.9599 153.34 40.2899L147.75 37.4399L156.05 33.2699C158.14 32.2199 159.46 30.0799 159.46 27.7499L145.69 34.6899L145.67 34.6699Z" fill="white"/>
</g>
<path id="Vector_4" d="M1.23998 32.5102C1.50998 32.5102 1.73998 32.2902 1.73998 32.0002C1.73998 31.7102 1.51998 31.4902 1.23998 31.4902C0.94998 31.4902 0.72998 31.7102 0.72998 32.0002C0.72998 32.2902 0.94998 32.5102 1.23998 32.5102Z" fill="white"/>
<path id="Vector_5" d="M2.62 32.5102C2.9 32.5102 3.13 32.2902 3.13 32.0002C3.13 31.7102 2.91 31.4902 2.62 31.4902C2.33 31.4902 2.12 31.7102 2.12 32.0002C2.12 32.2902 2.34 32.5102 2.62 32.5102Z" fill="white"/>
<path id="Vector_6" d="M2.02 36.6892H13.24C13.24 36.6892 13.28 36.6892 13.31 36.6892H17.27L17.49 35.9492C17.01 35.7292 16.79 35.2492 16.58 34.4892C16.27 33.4092 15.94 32.9792 14.92 32.9492C14.43 32.9492 13.97 33.1192 13.52 33.4592L13.56 33.5092C13.78 33.7892 14.14 33.8892 14.47 33.7892C14.6 33.7492 14.73 33.7392 14.86 33.7392C15.49 33.7792 15.59 33.9992 15.83 34.8292C15.96 35.2792 16.07 35.5392 16.32 35.8192H11.65H4.62H3.44V33.4892C3.07 33.2892 2.49 33.1092 1.9 33.1092C0.77 33.1092 0 33.8092 0 34.8992C0 35.9892 0.8 36.6892 2.02 36.6892ZM1.86 33.8992C2.15 33.8992 2.41 33.9592 2.63 34.0792V35.8292H1.91C1.26 35.8292 0.84 35.5192 0.84 34.8792C0.84 34.2392 1.28 33.8992 1.87 33.8992H1.86Z" fill="white"/>
<path id="Vector_7" d="M32.02 36.4005C32.36 36.5805 32.74 36.6805 33.15 36.6905C33.15 36.6905 33.18 36.6905 33.2 36.6905H33.24C33.79 36.6905 34.29 36.5605 34.74 36.3105C35.17 36.5605 35.64 36.6805 36.15 36.6905C36.16 36.6905 36.19 36.6905 36.25 36.6905C37.02 36.6905 37.74 36.3805 38.17 35.9605V31.5805C37.71 31.5805 37.33 31.9505 37.33 32.4105V35.6005C37.06 35.7405 36.68 35.8105 36.3 35.8205H36.23C35.83 35.8205 35.43 35.7405 35.15 35.6005V31.5705C34.69 31.5705 34.31 31.9405 34.31 32.4005V35.5905C34.01 35.7405 33.65 35.8105 33.22 35.8105C32.88 35.8105 32.58 35.7605 32.34 35.6505C32.37 35.5205 32.39 35.3705 32.39 35.2005C32.39 34.1505 31.65 33.3805 30.61 33.3805C29.57 33.3805 28.82 34.1505 28.82 35.2005C28.82 35.3705 28.83 35.5205 28.87 35.6505C28.62 35.7605 28.34 35.8005 28 35.8005C27.6 35.8005 27.2 35.7205 26.92 35.5805V33.7105H26.08V35.5905C25.87 35.7405 25.63 35.8105 25.37 35.8105C25.11 35.8105 24.88 35.7405 24.66 35.6005V34.0305H23.82V35.6005C23.6 35.7405 23.37 35.8105 23.11 35.8105C22.85 35.8105 22.61 35.7405 22.4 35.5905V34.0305H21.56V35.5805C21.25 35.7205 20.91 35.8005 20.53 35.8105H20.46C20.06 35.8105 19.66 35.7305 19.37 35.5905V31.5605C18.91 31.5605 18.53 31.9405 18.53 32.3905V35.7205C18.53 36.0205 18.61 36.1605 18.87 36.3005C19.25 36.5105 19.79 36.6605 20.37 36.6705C20.37 36.6705 20.4 36.6705 20.41 36.6705H20.46C21.07 36.6705 21.61 36.5105 21.94 36.2905C22.22 36.5105 22.63 36.6705 23.11 36.6705C23.53 36.6705 23.91 36.5405 24.24 36.3005C24.57 36.5505 24.94 36.6705 25.36 36.6705C25.8 36.6705 26.23 36.5405 26.56 36.3205C26.98 36.5405 27.42 36.6505 27.88 36.6705C27.89 36.6705 27.91 36.6705 27.94 36.6705H27.97C28.41 36.6705 28.82 36.5705 29.18 36.3805C29.5 36.7805 30 37.0305 30.57 37.0305C31.14 37.0305 31.64 36.7805 31.96 36.3805L32.02 36.4005ZM29.67 35.2205C29.67 34.6305 30.05 34.2005 30.61 34.2005C31.17 34.2005 31.57 34.6305 31.57 35.2205C31.57 35.8105 31.17 36.2405 30.61 36.2405C30.05 36.2405 29.67 35.8105 29.67 35.2205Z" fill="white"/>
<path id="Vector_8" d="M42.29 32.5102C42.56 32.5102 42.79 32.2902 42.79 32.0002C42.79 31.7102 42.57 31.4902 42.29 31.4902C42 31.4902 41.78 31.7102 41.78 32.0002C41.78 32.2902 42 32.5102 42.29 32.5102Z" fill="white"/>
<path id="Vector_9" d="M43.67 32.5102C43.95 32.5102 44.18 32.2902 44.18 32.0002C44.18 31.7102 43.96 31.4902 43.67 31.4902C43.38 31.4902 43.17 31.7102 43.17 32.0002C43.17 32.2902 43.39 32.5102 43.67 32.5102Z" fill="white"/>
<path id="Vector_10" d="M43.07 36.6909H50.85C51.29 36.6909 51.71 36.5909 52.09 36.4009C52.42 36.8109 52.92 37.0509 53.49 37.0509C54.52 37.0509 55.27 36.2809 55.27 35.2309C55.27 34.1809 54.53 33.4109 53.49 33.4109C52.45 33.4109 51.7 34.1809 51.7 35.2309C51.7 35.4009 51.71 35.5409 51.75 35.6809C51.5 35.7809 51.2 35.8409 50.84 35.8409H44.5V33.5109C44.13 33.3109 43.55 33.1309 42.96 33.1309C41.81 33.1309 41.04 33.8209 41.04 34.9209C41.04 36.0209 41.84 36.7109 43.06 36.7109L43.07 36.6909ZM53.48 34.2009C54.06 34.2009 54.44 34.6309 54.44 35.2209C54.44 35.8109 54.04 36.2409 53.48 36.2409C52.92 36.2409 52.54 35.8109 52.54 35.2209C52.54 34.6309 52.92 34.2009 53.48 34.2009ZM42.91 33.9009C43.2 33.9009 43.46 33.9609 43.68 34.0809V35.8309H42.96C42.31 35.8309 41.89 35.5209 41.89 34.8809C41.89 34.2409 42.33 33.9009 42.92 33.9009H42.91Z" fill="white"/>
<path id="Vector_11" d="M56.73 36.3108C57.11 36.5208 57.64 36.6708 58.23 36.6808C58.24 36.6808 58.26 36.6808 58.29 36.6808H66.53C66.53 36.6808 66.57 36.6808 66.6 36.6808C66.6 36.6808 66.64 36.6808 66.66 36.6808H66.67C67.41 36.6608 68.1 36.3608 68.51 35.9508V31.5708C68.05 31.5708 67.67 31.9408 67.67 32.4008V35.5908C67.41 35.7308 67.03 35.8008 66.66 35.8108H65.11C65.62 35.4808 65.95 34.9008 65.95 34.3008C65.95 33.4108 65.25 32.9308 64.18 32.9308C63.57 32.9308 62.94 33.0808 62.32 33.4008L62.18 34.0508L63.31 35.8108H58.41H58.3C57.9 35.8108 57.5 35.7308 57.21 35.5808V31.5508C56.75 31.5508 56.37 31.9308 56.37 32.3808V35.7108C56.37 36.0108 56.45 36.1508 56.71 36.2908L56.73 36.3108ZM63.15 34.0008C63.48 33.8408 63.82 33.7608 64.17 33.7608C64.77 33.7608 65.13 34.0308 65.13 34.5108C65.13 35.0208 64.69 35.4708 64.09 35.7008L63.15 34.0008Z" fill="white"/>
<path id="Vector_12" d="M70.7799 35.8601V31.5801C70.3199 31.5801 69.9399 31.9501 69.9399 32.4101V36.6901C70.3999 36.6901 70.7799 36.3101 70.7799 35.8601Z" fill="white"/>
<path id="Vector_13" d="M76.28 32.5102C76.56 32.5102 76.79 32.2902 76.79 32.0002C76.79 31.7102 76.57 31.4902 76.28 31.4902C75.99 31.4902 75.78 31.7102 75.78 32.0002C75.78 32.2902 76 32.5102 76.28 32.5102Z" fill="white"/>
<path id="Vector_14" d="M75.68 36.6901H79.95C80.5 36.6901 81 36.5601 81.45 36.3101C81.88 36.5601 82.35 36.6801 82.86 36.6901C82.87 36.6901 82.9 36.6901 82.93 36.6901H82.95C83.5 36.6901 84 36.5601 84.45 36.3101C84.88 36.5601 85.36 36.6801 85.87 36.6901C85.88 36.6901 85.9 36.6901 85.93 36.6901H97.35C97.35 36.6901 97.39 36.6901 97.42 36.6901C98.19 36.6901 98.91 36.3801 99.34 35.9601V31.5801C98.88 31.5801 98.5 31.9501 98.5 32.4101V35.6001C98.23 35.7401 97.85 35.8101 97.47 35.8201H96.5V34.9501C96.5 33.9501 96.23 33.2101 95.69 32.7401C95.15 32.2701 94.44 32.0301 93.56 32.0301C93.28 32.0301 92.98 32.0501 92.68 32.0901C92.68 32.4901 93.01 32.8001 93.4 32.7901H93.53C94.15 32.7901 94.66 32.9601 95.06 33.2901C95.46 33.6201 95.66 34.1601 95.66 34.9101V35.8301H94.52C94.78 35.5601 94.91 35.2301 94.91 34.8301C94.91 33.9801 94.23 33.4301 93.41 33.4301C92.59 33.4301 91.93 33.9701 91.93 34.8301C91.93 35.2301 92.06 35.5701 92.31 35.8201H85.96C85.56 35.8201 85.16 35.7401 84.88 35.6001V33.1801C84.42 33.1801 84.04 33.5501 84.04 34.0101V35.5901C83.74 35.7401 83.38 35.8101 82.95 35.8101C82.55 35.8101 82.15 35.7301 81.87 35.5901V33.1701C81.41 33.1701 81.03 33.5401 81.03 34.0001V35.5801C80.73 35.7301 80.37 35.8001 79.94 35.8001H77.12V33.4701C76.75 33.2701 76.17 33.0901 75.58 33.0901C74.43 33.0901 73.66 33.7801 73.66 34.8801C73.66 35.9801 74.46 36.6701 75.68 36.6701V36.6901ZM93.42 34.1801C93.84 34.1801 94.14 34.4801 94.14 34.9401C94.14 35.4401 93.89 35.7601 93.42 35.8301C92.95 35.7701 92.7 35.4201 92.7 34.9401C92.7 34.4601 93 34.1801 93.42 34.1801ZM75.52 33.9001C75.81 33.9001 76.07 33.9601 76.29 34.0801V35.8301H75.57C74.92 35.8301 74.5 35.5201 74.5 34.8801C74.5 34.2401 74.94 33.9001 75.53 33.9001H75.52Z" fill="white"/>
<path id="Vector_15" d="M74.9 32.5102C75.17 32.5102 75.4 32.2902 75.4 32.0002C75.4 31.7102 75.18 31.4902 74.9 31.4902C74.61 31.4902 74.39 31.7102 74.39 32.0002C74.39 32.2902 74.61 32.5102 74.9 32.5102Z" fill="white"/>
<path id="Vector_16" d="M82.2 31.9802H81.8C81.5 31.9802 81.36 31.8502 81.36 31.6602C81.36 31.5102 81.47 31.3902 81.63 31.3902C81.71 31.3902 81.79 31.4102 81.85 31.4702L82.15 31.1502C82.02 31.0202 81.81 30.9102 81.57 30.9102C81.17 30.9102 80.9 31.1902 80.9 31.5502C80.9 31.7102 80.95 31.8502 81.06 31.9702H80.72V32.5202H82.2V31.9702V31.9802Z" fill="white"/>
<path id="Vector_17" d="M84.65 37.7092C84.65 37.9792 84.87 38.2092 85.15 38.2092C85.43 38.2092 85.66 37.9992 85.66 37.7092C85.66 37.4192 85.44 37.1992 85.15 37.1992C84.86 37.1992 84.65 37.4192 84.65 37.7092Z" fill="white"/>
<path id="Vector_18" d="M83.27 37.7092C83.27 37.9792 83.49 38.2092 83.78 38.2092C84.07 38.2092 84.28 37.9992 84.28 37.7092C84.28 37.4192 84.06 37.1992 83.78 37.1992C83.5 37.1992 83.27 37.4192 83.27 37.7092Z" fill="white"/>
<path id="Vector_19" d="M101.59 35.8601V31.5801C101.13 31.5801 100.75 31.9501 100.75 32.4101V36.6901C101.21 36.6901 101.59 36.3101 101.59 35.8601Z" fill="white"/>
<path id="Vector_20" d="M2.12 40.3401C2.12 40.6201 2.34 40.8501 2.62 40.8501C2.9 40.8501 3.13 40.6301 3.13 40.3401C3.13 40.0501 2.91 39.8301 2.62 39.8301C2.33 39.8301 2.12 40.0501 2.12 40.3401Z" fill="white"/>
<path id="Vector_21" d="M0.72998 40.3401C0.72998 40.6201 0.94998 40.8501 1.23998 40.8501C1.50998 40.8501 1.73998 40.6301 1.73998 40.3401C1.73998 40.0501 1.51998 39.8301 1.23998 39.8301C0.94998 39.8301 0.72998 40.0501 0.72998 40.3401Z" fill="white"/>
<path id="Vector_22" d="M2.02 45.0295H4.54C5.09 45.0295 5.59 44.8995 6.04 44.6495C6.47 44.8995 6.95 45.0195 7.46 45.0295C7.47 45.0295 7.49 45.0295 7.52 45.0295H11.36C11.73 45.0295 12.09 44.9795 12.44 44.8795C12.79 44.7795 13.07 44.6595 13.28 44.5095V41.5195C12.82 41.5195 12.44 41.8995 12.44 42.3495V43.9795C12.19 44.0895 11.78 44.1595 11.35 44.1595H7.55C7.15 44.1595 6.75 44.0795 6.47 43.9395V41.5195C6.01 41.5195 5.63 41.8995 5.63 42.3495V43.9295C5.35 44.0695 5.01 44.1395 4.61 44.1495H3.47V41.8195C3.1 41.6195 2.52 41.4395 1.93 41.4395C0.77 41.4495 0 42.1395 0 43.2295C0 44.3195 0.8 45.0195 2.02 45.0195V45.0295ZM1.86 42.2395C2.15 42.2395 2.41 42.2995 2.63 42.4195V44.1695H1.91C1.26 44.1695 0.84 43.8595 0.84 43.2195C0.84 42.5795 1.28 42.2395 1.87 42.2395H1.86Z" fill="white"/>
<path id="Vector_23" d="M6.72998 46.5393C7.00998 46.5393 7.23998 46.3293 7.23998 46.0393C7.23998 45.7493 7.01998 45.5293 6.72998 45.5293C6.43998 45.5293 6.22998 45.7493 6.22998 46.0393C6.22998 46.3293 6.44998 46.5393 6.72998 46.5393Z" fill="white"/>
<path id="Vector_24" d="M5.35998 45.5391C5.06998 45.5391 4.84998 45.7591 4.84998 46.0491C4.84998 46.3391 5.06998 46.5491 5.35998 46.5491C5.64998 46.5491 5.85998 46.3391 5.85998 46.0491C5.85998 45.7591 5.63998 45.5391 5.35998 45.5391Z" fill="white"/>
<path id="Vector_25" d="M12.8201 39.8691C12.5301 39.8691 12.3101 40.0991 12.3101 40.3791C12.3101 40.6591 12.5401 40.8891 12.8201 40.8891C13.1001 40.8891 13.3301 40.6691 13.3301 40.3791C13.3301 40.0891 13.1101 39.8691 12.8201 39.8691Z" fill="white"/>
<path id="Vector_26" d="M14.95 44.6498C15.33 44.8598 15.86 45.0098 16.44 45.0198C16.45 45.0198 16.48 45.0198 16.51 45.0198H19.75C20.37 45.0198 21.05 44.9198 21.57 44.7298C21.92 44.9098 22.29 44.9998 22.67 45.0098C22.68 45.0098 22.7 45.0098 22.73 45.0098H24.52C24.96 45.0098 25.38 44.9098 25.76 44.7198C26.09 45.1298 26.59 45.3698 27.16 45.3698C28.19 45.3698 28.94 44.5998 28.94 43.5498C28.94 42.4998 28.2 41.7298 27.16 41.7298C26.12 41.7298 25.37 42.4998 25.37 43.5498C25.37 43.7198 25.38 43.8598 25.42 43.9998C25.17 44.0998 24.87 44.1598 24.51 44.1598H22.69C22.4 44.1598 22.11 44.0898 21.93 43.9798V43.6398C21.9 42.5798 21.43 42.2698 20.18 41.9098L19.74 41.7898L21.15 40.7198C21.45 40.4898 21.51 40.0598 21.27 39.7598L18.74 41.7098L18.83 42.0098C18.89 42.2398 19.08 42.4198 19.3 42.4798L19.79 42.6098C20.86 42.9198 21.06 43.0598 21.09 43.6698V43.9398C20.79 44.0698 20.32 44.1698 19.82 44.1698H16.62H16.51C16.11 44.1698 15.71 44.0898 15.42 43.9398V39.9098C14.96 39.9098 14.58 40.2798 14.58 40.7398V44.0698C14.58 44.3698 14.66 44.5098 14.92 44.6498H14.93H14.95ZM27.17 42.5398C27.75 42.5398 28.13 42.9698 28.13 43.5598C28.13 44.1498 27.73 44.5798 27.17 44.5798C26.61 44.5798 26.23 44.1498 26.23 43.5598C26.23 42.9698 26.61 42.5398 27.17 42.5398Z" fill="white"/>
<path id="Vector_27" d="M38.79 46.0491C38.79 45.7591 38.57 45.5391 38.28 45.5391C37.99 45.5391 37.78 45.7591 37.78 46.0491C37.78 46.3391 38 46.5491 38.28 46.5491C38.56 46.5491 38.79 46.3391 38.79 46.0491Z" fill="white"/>
<path id="Vector_28" d="M37.42 46.0491C37.42 45.7691 37.2 45.5391 36.92 45.5391C36.64 45.5391 36.41 45.7591 36.41 46.0491C36.41 46.3391 36.64 46.5491 36.92 46.5491C37.2 46.5491 37.42 46.3391 37.42 46.0491Z" fill="white"/>
<path id="Vector_29" d="M38.01 41.5206C37.55 41.5206 37.17 41.9006 37.17 42.3506V43.9306C36.87 44.0806 36.51 44.1506 36.08 44.1506H33.26V41.9506C32.75 41.6906 32.23 41.5706 31.71 41.5706C30.54 41.5706 29.78 42.2906 29.78 43.3006C29.78 44.3106 30.53 45.0106 31.8 45.0106H32.41C32.36 45.7006 32 46.0306 31.2 46.0306C31.06 46.0306 30.92 46.0206 30.78 46.0006C30.37 45.9506 29.99 46.2206 29.92 46.6206C30.29 46.7506 30.76 46.8206 31.17 46.8206C32.37 46.8206 33.16 46.2506 33.25 45.0006H36.08C36.63 45.0006 37.13 44.8706 37.58 44.6206C38.02 44.8706 38.49 44.9906 39 45.0006H43.72C44.49 45.0006 45.21 44.6906 45.64 44.2706V39.8906C45.18 39.8906 44.8 40.2706 44.8 40.7206V43.9106C44.53 44.0506 44.15 44.1206 43.77 44.1306H43.37C43.14 44.1306 43.01 44.1106 42.93 44.0506C42.65 43.7706 42.5 43.3806 42.34 42.8106C42.03 41.7006 41.7 41.2806 40.68 41.2606C40.18 41.2606 39.72 41.4306 39.28 41.7706L39.31 41.8106C39.53 42.1006 39.91 42.2006 40.26 42.1006C40.38 42.0706 40.5 42.0506 40.62 42.0506C41.27 42.0806 41.33 42.3006 41.59 43.1406C41.72 43.6106 41.83 43.8606 42.08 44.1406H39.07C38.67 44.1406 38.27 44.0606 37.99 43.9206V41.5006L38.01 41.5206ZM32.42 44.1606H31.67C31.04 44.1606 30.61 43.8406 30.61 43.2606C30.61 42.6806 31.05 42.3506 31.66 42.3506C31.92 42.3506 32.17 42.4106 32.42 42.5306V44.1606Z" fill="white"/>
<path id="Vector_30" d="M40.55 46.0393C40.55 46.3293 40.7801 46.5493 41.0601 46.5493C41.3401 46.5493 41.57 46.3293 41.57 46.0393C41.57 45.7493 41.3501 45.5293 41.0601 45.5293C40.7701 45.5293 40.55 45.7493 40.55 46.0393Z" fill="white"/>
<path id="Vector_31" d="M47.9001 44.1902V39.9102C47.4401 39.9102 47.0601 40.2902 47.0601 40.7402V45.0202C47.5201 45.0202 47.9001 44.6402 47.9001 44.1902Z" fill="white"/>
<path id="Vector_32" d="M53.28 41.2502C53.28 41.5302 53.5 41.7602 53.79 41.7602C54.08 41.7602 54.29 41.5402 54.29 41.2502C54.29 40.9602 54.06 40.7402 53.79 40.7402C53.5 40.7402 53.28 40.9602 53.28 41.2502Z" fill="white"/>
<path id="Vector_33" d="M54.66 41.2502C54.66 41.5302 54.88 41.7602 55.16 41.7602C55.44 41.7602 55.67 41.5402 55.67 41.2502C55.67 40.9602 55.45 40.7402 55.16 40.7402C54.87 40.7402 54.66 40.9602 54.66 41.2502Z" fill="white"/>
<path id="Vector_34" d="M55.73 45.0295C56.73 45.0295 57.54 44.8495 58.01 44.5995V41.5195C57.55 41.5195 57.17 41.8995 57.17 42.3495V43.9495C56.92 44.0695 56.44 44.1495 55.85 44.1495H53.01C52.17 44.1495 51.74 43.7895 51.74 43.0795C51.74 42.8395 51.78 42.5595 51.87 42.2495C51.41 42.1595 50.97 42.4895 50.93 42.9595C50.92 43.0895 50.91 43.2095 50.91 43.3295C50.91 44.5495 51.66 45.0195 52.95 45.0195H55.73V45.0295Z" fill="white"/>
<path id="Vector_35" d="M68.3 44.1604H61.38H61.27C60.87 44.1604 60.47 44.0804 60.18 43.9304V39.9004C59.72 39.9004 59.34 40.2704 59.34 40.7304V44.0604C59.34 44.3604 59.42 44.5004 59.68 44.6404C60.06 44.8504 60.59 45.0004 61.18 45.0104C61.19 45.0104 61.21 45.0104 61.24 45.0104H68.3C68.74 45.0104 69.16 44.9104 69.54 44.7204C69.87 45.1304 70.37 45.3704 70.94 45.3704C71.97 45.3704 72.72 44.6004 72.72 43.5504C72.72 42.5004 71.98 41.7304 70.94 41.7304C69.9 41.7304 69.15 42.5004 69.15 43.5504C69.15 43.7204 69.16 43.8604 69.2 44.0004C68.95 44.1004 68.65 44.1604 68.29 44.1604H68.3ZM70.93 42.5304C71.51 42.5304 71.89 42.9604 71.89 43.5504C71.89 44.1404 71.49 44.5704 70.93 44.5704C70.37 44.5704 69.99 44.1404 69.99 43.5504C69.99 42.9604 70.37 42.5304 70.93 42.5304Z" fill="white"/>
<path id="Vector_36" d="M75.58 45.0306H76.19C76.14 45.7206 75.78 46.0506 74.98 46.0506C74.84 46.0506 74.7 46.0406 74.56 46.0206C74.15 45.9706 73.77 46.2406 73.7 46.6406C74.07 46.7706 74.54 46.8406 74.95 46.8406C76.15 46.8406 76.94 46.2706 77.03 45.0206H78.11C78.66 45.0206 79.16 44.8906 79.61 44.6406C80.05 44.8906 80.52 45.0106 81.03 45.0206H87.64C88.08 45.0206 88.49 44.9206 88.85 44.7306C89.17 45.1306 89.67 45.3806 90.24 45.3806C90.81 45.3806 91.31 45.1306 91.63 44.7306C91.97 44.9106 92.35 45.0106 92.76 45.0206H92.79C92.79 45.0206 92.82 45.0206 92.83 45.0206H92.84C93.61 45.0206 94.33 44.7106 94.76 44.2906V39.9106C94.3 39.9106 93.92 40.2906 93.92 40.7406V43.9306C93.64 44.0806 93.23 44.1506 92.83 44.1506C92.49 44.1506 92.19 44.1006 91.95 43.9906C91.98 43.8606 92 43.7106 92 43.5406C92 42.4906 91.26 41.7206 90.22 41.7206C89.18 41.7206 88.43 42.4906 88.43 43.5406C88.43 43.7106 88.44 43.8606 88.48 43.9906C88.23 44.1006 87.95 44.1406 87.61 44.1406H84.39C84.9 43.8106 85.23 43.2306 85.23 42.6306C85.23 41.7406 84.53 41.2606 83.46 41.2606C82.85 41.2606 82.22 41.4106 81.6 41.7306L81.46 42.3806L82.59 44.1406H81.1C80.7 44.1406 80.3 44.0606 80.02 43.9206V39.8906C79.56 39.8906 79.18 40.2706 79.18 40.7206V43.9106C78.9 44.0506 78.56 44.1206 78.16 44.1306H77.02V41.9406C76.51 41.6806 75.99 41.5606 75.47 41.5606C74.3 41.5606 73.54 42.2806 73.54 43.2906C73.54 44.3006 74.29 45.0006 75.56 45.0006L75.58 45.0306ZM90.21 42.5406C90.79 42.5406 91.17 42.9706 91.17 43.5606C91.17 44.1506 90.77 44.5806 90.21 44.5806C89.65 44.5806 89.27 44.1506 89.27 43.5606C89.27 42.9706 89.65 42.5406 90.21 42.5406ZM82.42 42.3406C82.75 42.1806 83.09 42.1006 83.44 42.1006C84.04 42.1006 84.4 42.3706 84.4 42.8506C84.4 43.3606 83.96 43.8106 83.36 44.0406L82.42 42.3406ZM75.42 42.3606C75.68 42.3606 75.93 42.4206 76.18 42.5406V44.1706H75.43C74.8 44.1706 74.37 43.8506 74.37 43.2706C74.37 42.6906 74.81 42.3606 75.42 42.3606Z" fill="white"/>
<path id="Vector_37" d="M96.1801 45.0299C96.6401 45.0299 97.0201 44.6499 97.0201 44.1999V39.9199C96.5601 39.9199 96.1801 40.2999 96.1801 40.7499V45.0299Z" fill="white"/>
<path id="Vector_38" d="M98.14 43.3201C98.14 44.3301 98.89 45.0301 100.16 45.0301H100.77C100.72 45.7201 100.36 46.0501 99.56 46.0501C99.14 46.0501 98.7 45.9601 98.43 45.8501L98.28 46.6401C98.65 46.7701 99.12 46.8401 99.53 46.8401C100.82 46.8401 101.61 46.2001 101.61 44.7701V41.9601C101.1 41.7001 100.58 41.5801 100.06 41.5801C98.89 41.5801 98.13 42.3001 98.13 43.3101L98.14 43.3201ZM100.01 42.3701C100.27 42.3701 100.52 42.4301 100.77 42.5501V44.1801H100.02C99.39 44.1801 98.96 43.8601 98.96 43.2801C98.96 42.7001 99.4 42.3701 100.01 42.3701Z" fill="white"/>
<g id="Group_2">
<path id="Vector_39" d="M3.75 9.12008C4.75 9.12008 5.57 8.33008 5.57 7.35008C5.57 6.37008 4.75 5.58008 3.75 5.58008C2.7 5.58008 1.88 6.37008 1.88 7.35008C1.88 8.33008 2.7 9.12008 3.75 9.12008Z" fill="white"/>
<path id="Vector_40" d="M8.05999 9.12008C9.08999 9.12008 9.90999 8.33008 9.90999 7.35008C9.90999 6.37008 9.08999 5.58008 8.05999 5.58008C7.02999 5.58008 6.23999 6.37008 6.23999 7.35008C6.23999 8.33008 7.03999 9.12008 8.05999 9.12008Z" fill="white"/>
<path id="Vector_41" d="M18.21 23.5996C17.18 23.5996 16.39 24.3596 16.39 25.3696C16.39 26.3796 17.18 27.1196 18.21 27.1196C19.24 27.1196 20.06 26.3296 20.06 25.3696C20.06 24.4096 19.24 23.5996 18.21 23.5996Z" fill="white"/>
<path id="Vector_42" d="M13.91 23.5996C12.86 23.5996 12.04 24.3596 12.04 25.3696C12.04 26.3796 12.86 27.1196 13.91 27.1196C14.96 27.1196 15.73 26.3296 15.73 25.3696C15.73 24.4096 14.93 23.5996 13.91 23.5996Z" fill="white"/>
<path id="Vector_43" d="M20.47 18.4705C20.47 18.4705 20.37 18.5105 20.3 18.5305C19.4 18.8105 17.7 18.7505 16.86 18.3305H16.85V10.7305H16.29C14.92 10.7305 13.8 11.8005 13.8 13.1205V18.3305C12.7 18.8505 12.43 19.1205 10.87 19.1205H10.46V19.2005L10.44 19.1205V12.1205C9.11 11.4105 8.41 10.7705 6.26 10.7705C2.06 10.7705 0 12.8705 0 16.7105C0 20.5505 2.18 22.1505 6.62 22.1505H10.89C12.89 22.1505 13.67 21.7105 15.31 20.8005C15.66 21.0505 16.05 21.2405 16.44 21.4005C17.96 22.0005 20.39 21.9605 21.88 21.2905C21.88 21.2905 21.89 21.2905 21.9 21.2905C22.6 20.9805 23.14 20.6305 23.53 20.3705V10.7605H22.97C21.6 10.7605 20.48 11.8305 20.48 13.1505V18.5005L20.47 18.4705ZM7.39 19.1105H6.18C3.82 19.1105 3.02 18.5905 3.02 16.4305C3.02 14.2705 3.87 13.5105 6.02 13.5105C7.07 13.5105 7.01 13.8705 7.38 14.1305V19.1105H7.39Z" fill="white"/>
<path id="Vector_44" d="M21.9 5.73047C20.85 5.73047 20.03 6.52047 20.03 7.52047C20.03 8.52047 20.85 9.29047 21.9 9.29047C22.95 9.29047 23.75 8.50047 23.75 7.52047C23.75 6.54047 22.93 5.73047 21.9 5.73047Z" fill="white"/>
<path id="Vector_45" d="M50.67 11.2395C46.9 11.2395 45.24 13.2795 45.24 16.9695C45.24 17.5595 45.29 18.0695 45.42 18.5395C45.35 18.5695 45.27 18.5995 45.19 18.6295C44.29 18.9595 43.29 18.9795 42.42 18.5695C42.35 18.5395 42.29 18.4995 42.22 18.4695V17.2695C42.12 13.5595 41.6 13.5095 37.04 12.2495L35.45 11.8295L39.34 8.93953C40.44 8.11953 40.63 6.59953 39.75 5.55953L31.81 10.8695L32.5 13.8695L35.63 14.6795C39.52 15.7595 39.07 15.2195 39.17 17.3595V18.2895C38.07 18.7595 36.35 19.0995 34.53 19.0995H34.04C32.58 19.0995 30.74 18.8295 29.69 18.3095V5.51953H29.13C27.76 5.51953 26.64 6.58953 26.64 7.90953V18.7995C26.64 19.8595 26.95 20.3495 27.87 20.8195C28.86 21.3495 30.5 21.7695 31.9 21.9795C32.57 22.0895 33.28 22.1395 34.02 22.1395H34.2C36.46 22.1395 38.91 21.7995 40.83 21.1295C41.11 21.2695 41.4 21.3895 41.68 21.4995H41.7C42.94 21.9795 44.32 21.9995 45.57 21.5495H45.59C45.94 21.4195 46.28 21.2695 46.62 21.0995C47.82 22.5495 48.57 22.6995 50.64 22.6995C54.41 22.6995 56.04 20.6595 56.04 16.9695C56.04 13.2795 54.41 11.2395 50.64 11.2395H50.67ZM50.62 19.8695C48.57 19.8695 48.27 19.0395 48.27 16.9695C48.27 14.8995 48.57 14.0695 50.62 14.0695C52.67 14.0695 53.05 14.8995 53.05 16.9695C53.05 19.0395 52.75 19.8695 50.62 19.8695Z" fill="white"/>
<path id="Vector_46" d="M76.82 23.5996C75.79 23.5996 75 24.3596 75 25.3696C75 26.3796 75.8 27.1096 76.82 27.1096C77.84 27.1096 78.67 26.3196 78.67 25.3696C78.67 24.3596 77.85 23.5996 76.82 23.5996Z" fill="white"/>
<path id="Vector_47" d="M72.52 23.5996C71.47 23.5996 70.65 24.3596 70.65 25.3696C70.65 26.3796 71.47 27.1096 72.52 27.1096C73.57 27.1096 74.34 26.3196 74.34 25.3696C74.34 24.4196 73.54 23.5996 72.52 23.5996Z" fill="white"/>
<path id="Vector_48" d="M85.25 23.5996C84.2 23.5996 83.38 24.3596 83.38 25.3696C83.38 26.3796 84.2 27.1596 85.25 27.1596C86.3 27.1596 87.1 26.3696 87.1 25.3696C87.1 24.3696 86.28 23.5996 85.25 23.5996Z" fill="white"/>
<path id="Vector_49" d="M92.66 18.3295C92.66 18.3295 92.64 19.1095 92.16 19.1195H90.98C89.95 18.1395 89.5399 17.7995 88.9899 16.2295C87.8399 12.3495 86.66 10.8695 82.94 10.7895C81.58 10.7895 79.8999 11.1195 78.6699 11.7895L79.4599 12.5095C79.9499 13.3895 80.95 13.8895 81.98 13.7495C82.23 13.7195 82.4799 13.6995 82.7399 13.7095C84.5699 13.7495 85.3499 13.9295 86.2799 16.8595C86.7099 18.1495 87.22 18.6595 87.66 19.1195H80.0999C78.6399 19.1195 77.18 18.8495 76.15 18.3295V10.7395H75.5899C74.2199 10.7395 73.0999 11.8095 73.0999 13.1295V18.3395C71.9999 18.8595 71.04 19.1295 69.48 19.1295H69.05V12.0995C67.18 11.1895 66.35 10.7495 64.48 10.7495C60.2 10.7495 58.2 13.2095 58.2 16.8195C58.2 20.4295 60.1999 22.1495 64.8399 22.1495H66.01C65.88 23.8895 64.73 24.6195 62.81 24.7495C61.27 24.8595 60.0299 25.9895 59.8899 27.4695C60.3599 27.5195 60.86 27.5395 61.47 27.5395C65.85 27.5395 68.7199 26.5495 69.0299 22.1495C69.0299 22.1495 69.58 22.1495 69.61 22.1495H69.6699C71.5799 22.1295 73.02 21.6895 74.62 20.7995C76.24 21.6895 77.9999 22.1295 79.9199 22.1495H79.97H92.1999C94.5299 22.1495 95.25 21.4295 95.57 20.3095C95.68 19.9095 95.73 19.5095 95.73 19.0995V5.51953C94.05 5.51953 92.68 6.82953 92.68 8.43953V18.3195L92.66 18.3295ZM66 19.1195H64.3499C62.0699 19.1195 61.22 18.6295 61.22 16.6395C61.22 14.6495 62.07 13.4695 64.3 13.4695C65.25 13.4695 65.56 13.7295 66.01 14.0895V19.1295L66 19.1195Z" fill="white"/>
<path id="Vector_50" d="M98.62 8.43953V22.1295C100.3 22.1295 101.67 20.8195 101.67 19.2095V5.51953C99.99 5.51953 98.62 6.82953 98.62 8.43953Z" fill="white"/>
</g>
</g>
<defs>
<clipPath id="clip0_729_5413">
<rect width="175.3" height="53.2" fill="white"/>
</clipPath>
</defs>
</svg>
