<svg width="145" height="85" viewBox="0 0 145 85" fill="none" xmlns="http://www.w3.org/2000/svg">
<g id="Layer_100" clip-path="url(#clip0_729_1939)">
<path id="Vector" d="M5.80141 74.9707H0V76.2451H2.24145V82.6085H3.57753V76.2451H5.80141V74.9707Z" fill="white"/>
<path id="Vector_2" d="M7.6473 77.0366C7.33965 77.1948 7.10232 77.4409 6.93531 77.7222L6.8562 76.852H5.72229V82.5913H6.95289V80.0601C6.89136 79.4712 7.07595 78.9087 7.46271 78.4868C7.80552 78.1792 8.27139 78.0034 8.73726 78.021C8.79879 78.021 8.8779 78.0386 8.93943 78.0386L9.20313 76.8432C9.04491 76.7993 8.8779 76.7993 8.71968 76.7993C8.33292 76.7817 7.97253 76.8608 7.6473 77.019V77.0366Z" fill="white"/>
<path id="Vector_3" d="M14.0552 77.9414C13.8706 77.5811 13.5893 77.291 13.2465 77.0889C12.9037 76.8691 12.4994 76.7637 12.0774 76.7637C11.594 76.7637 11.1105 76.9043 10.7062 77.168C10.2843 77.4317 9.94147 77.792 9.69535 78.2403C9.18553 79.1543 9.18553 80.2618 9.69535 81.1934C9.94147 81.6153 10.2843 82.002 10.7062 82.2657C11.1105 82.5294 11.594 82.67 12.0774 82.67C12.4818 82.67 12.9037 82.5733 13.2465 82.3712C13.5893 82.169 13.8706 81.8878 14.0552 81.545L14.1343 82.6173H15.2682V76.8516H14.1343L14.0552 77.9414ZM13.7915 80.587C13.6509 80.8506 13.4311 81.0704 13.1674 81.211C12.9037 81.3692 12.6048 81.4571 12.2972 81.4571C11.9895 81.4571 11.6907 81.378 11.427 81.211C11.1633 81.044 10.9435 80.8506 10.8029 80.587C10.6623 80.3233 10.5831 80.0245 10.5831 79.7168C10.5831 79.4092 10.6447 79.1104 10.8029 78.8467C10.9611 78.583 11.1633 78.3809 11.427 78.2227C11.6907 78.0645 11.9895 77.9766 12.2972 77.9766C12.6048 77.9766 12.9037 78.0557 13.1674 78.2227C13.4311 78.3633 13.6333 78.583 13.7915 78.8467C13.9321 79.1104 14.0112 79.4092 14.0112 79.7168C14.0288 80.0245 13.9497 80.3233 13.7915 80.587Z" fill="white"/>
<path id="Vector_4" d="M20.6829 77.0713C20.3225 76.8691 19.9182 76.7637 19.4875 76.7637C19.1271 76.7637 18.7579 76.8691 18.4591 77.0449C18.1778 77.2295 17.9317 77.4668 17.7734 77.7744L17.6943 76.8428H16.5604V82.6085L17.791 82.5909V79.6553C17.7734 79.3301 17.835 79.0049 17.9756 78.7061C18.0987 78.46 18.2569 78.2842 18.4854 78.1436C18.6876 78.0205 18.9337 77.959 19.1711 77.959C19.4084 77.959 19.6545 78.0205 19.8567 78.1436C20.0588 78.2842 20.2434 78.4864 20.3401 78.7061C20.4632 79.0137 20.5423 79.3301 20.5247 79.6553V82.5909H21.7817V79.6553C21.7993 79.1104 21.7026 78.5391 21.5004 78.0381C21.3422 77.6338 21.0521 77.291 20.6917 77.0713H20.6829Z" fill="white"/>
<path id="Vector_5" d="M26.3876 79.3403C26.0272 79.2173 25.6229 79.0942 25.2361 79.0151C24.99 78.9712 24.7878 78.9185 24.6296 78.8745C24.489 78.8306 24.3659 78.7778 24.2428 78.6899C24.1637 78.6284 24.1022 78.5054 24.1022 78.4087C24.1022 78.2241 24.1989 78.0659 24.3659 78.0044C24.5857 77.9077 24.8494 77.8462 25.0955 77.8638C25.4031 77.8638 25.6844 77.9077 25.9657 78.0044C26.2294 78.0835 26.4755 78.2505 26.6513 78.4526L27.3985 77.7056C27.1172 77.3804 26.748 77.1167 26.3437 76.9761C25.9217 76.8354 25.491 76.7563 25.0515 76.7563C24.6648 76.7388 24.2604 76.8179 23.9 76.9585C23.5924 77.0815 23.3375 77.2837 23.1353 77.5474C22.9507 77.811 22.8716 78.1099 22.8716 78.4175C22.8716 78.7778 22.9683 79.1294 23.2144 79.4107C23.4342 79.6568 23.6979 79.8325 24.0055 79.9556C24.3659 80.0962 24.7527 80.2017 25.1394 80.2808C25.3855 80.3423 25.6053 80.4038 25.7635 80.439C25.9042 80.4829 26.0448 80.5357 26.1679 80.6411C26.2645 80.7202 26.3261 80.8433 26.3261 80.9663C26.3261 81.1685 26.2206 81.3531 26.0448 81.4322C25.7987 81.5552 25.5174 81.6167 25.2537 81.5904C24.9285 81.5904 24.5857 81.5288 24.2868 81.4058C24.0055 81.3267 23.7418 81.1597 23.5221 80.94L22.6694 81.7486C22.9947 82.0914 23.399 82.355 23.8385 82.4957C24.3044 82.6539 24.7702 82.7417 25.2537 82.7417C25.658 82.7417 26.0448 82.6802 26.3876 82.522C26.7304 82.399 27.0117 82.1968 27.2402 81.9156C27.46 81.6343 27.583 81.2652 27.5655 80.9048C27.583 80.5445 27.46 80.1753 27.2227 79.8941C27.0029 79.648 26.7128 79.4722 26.3964 79.3491L26.3876 79.3403Z" fill="white"/>
<path id="Vector_6" d="M33.1383 77.1777C32.734 76.9141 32.2505 76.7734 31.7671 76.7734C31.3627 76.7734 30.9584 76.8789 30.598 77.0986C30.2552 77.3008 29.9739 77.582 29.7893 77.9248L29.7102 76.8525H28.5763V84.9034L29.8333 84.921V81.5635C30.0179 81.9063 30.2816 82.1876 30.6244 82.3721C30.9672 82.5919 31.3715 82.6973 31.7759 82.6973C32.2593 82.6973 32.7428 82.5567 33.1471 82.293C33.569 82.0118 33.9118 81.6426 34.158 81.2032C34.6414 80.2715 34.6414 79.1817 34.158 78.25C33.9118 77.8018 33.569 77.4414 33.1471 77.1777H33.1383ZM33.0328 80.5967C32.8922 80.8604 32.6724 81.0626 32.4087 81.2208C32.145 81.379 31.8462 81.4669 31.5385 81.4669C31.2309 81.4669 30.932 81.3878 30.6683 81.2208C30.4046 81.0801 30.2024 80.8604 30.0442 80.5967C29.719 80.0518 29.719 79.4014 30.0442 78.8565C30.1849 78.5928 30.4046 78.3731 30.6683 78.2324C30.932 78.0918 31.2309 78.0127 31.5385 78.0127C31.8462 77.9951 32.145 78.0742 32.4087 78.2324C32.6724 78.3731 32.8922 78.5928 33.0328 78.8565C33.3581 79.4014 33.3581 80.0518 33.0328 80.5967Z" fill="white"/>
<path id="Vector_7" d="M39.6957 77.1768C38.7815 76.6494 37.6564 76.6494 36.7422 77.1768C36.2939 77.4229 35.9335 77.8008 35.6698 78.249C35.1424 79.1631 35.1424 80.2881 35.6698 81.2022C35.916 81.668 36.2939 82.0284 36.7422 82.2921C37.1905 82.5557 37.6915 82.6964 38.2189 82.6964C38.7463 82.6964 39.2474 82.5557 39.6957 82.2921C40.144 82.0284 40.5043 81.6417 40.768 81.2022C41.2954 80.2881 41.2954 79.1631 40.768 78.249C40.5219 77.8008 40.144 77.4404 39.6957 77.1768ZM39.6781 80.5694C39.3704 81.0967 38.8255 81.4219 38.2189 81.4219C37.9113 81.4219 37.63 81.3604 37.3487 81.2022C37.1026 81.044 36.8829 80.8418 36.7422 80.5782C36.6016 80.3145 36.5225 80.0332 36.5225 79.7256V79.6641C36.5401 78.7324 37.3136 77.9854 38.2453 78.0029C39.1771 78.0205 39.9242 78.794 39.9066 79.7256C39.9066 80.0332 39.8275 80.3145 39.6869 80.5782L39.6781 80.5694Z" fill="white"/>
<path id="Vector_8" d="M44.0994 77.0376C43.7918 77.1958 43.5545 77.4419 43.3875 77.7231L43.3084 76.853H42.1744V82.6187H43.4314V80.0874C43.3699 79.4985 43.5545 78.936 43.9412 78.5142C44.3456 78.1714 44.8906 77.9868 45.418 78.0483L45.6641 76.853C45.5059 76.8091 45.3388 76.8091 45.1806 76.8091C44.7939 76.7915 44.4335 76.8706 44.1082 77.0288L44.0994 77.0376Z" fill="white"/>
<path id="Vector_9" d="M49.2944 81.5186C49.0131 81.5362 48.7318 81.422 48.5472 81.2198C48.3451 80.9561 48.266 80.6573 48.2835 80.3321V77.9854H49.6372V76.8692H48.2835V74.9883H47.2551L47.0969 76.8692H46.2882V77.9854H47.0529V80.3497C47.009 81.0001 47.2112 81.6417 47.6419 82.1515C48.0462 82.5382 48.5912 82.7403 49.1362 82.714C49.4614 82.714 49.7603 82.6524 50.0503 82.5558L49.7251 81.4395C49.5845 81.5011 49.4438 81.5186 49.3032 81.5186H49.2944Z" fill="white"/>
<path id="Vector_10" d="M57.3284 78.1611V79.374H59.939C59.8951 79.7607 59.7544 80.1035 59.5523 80.4287C59.3501 80.7363 59.0688 80.9736 58.7436 81.1406C57.9525 81.501 57.0471 81.4658 56.3 81.044C55.8956 80.8242 55.5704 80.4814 55.3506 80.0947C54.8848 79.2861 54.8848 78.2929 55.3506 77.4843C55.5704 77.0976 55.9132 76.7724 56.3 76.5527C56.7043 76.333 57.1526 76.2099 57.6185 76.2099C57.9789 76.2099 58.348 76.289 58.6908 76.456C59.0161 76.6142 59.2974 76.8427 59.5435 77.124L60.7389 76.4121C59.5435 74.8388 57.3636 74.4081 55.6407 75.4013C55.0518 75.7441 54.5508 76.2539 54.2079 76.8339C53.496 78.0468 53.496 79.5674 54.2079 80.7803C54.5508 81.3692 55.0606 81.8701 55.6407 82.2129C56.2472 82.5557 56.9329 82.7403 57.6185 82.7403C58.3305 82.7578 59.0161 82.5996 59.5962 82.2305C60.1852 81.9053 60.651 81.4219 60.9499 80.833C61.2751 80.1826 61.4597 79.4795 61.4333 78.7676C61.4333 78.5654 61.4158 78.3633 61.3718 78.1611H57.3284Z" fill="white"/>
<path id="Vector_11" d="M66.7074 77.1777C66.2415 76.8965 65.7405 76.7734 65.2131 76.7734C64.6857 76.7734 64.2023 76.9141 63.754 77.1777C63.3057 77.4414 62.9453 77.8018 62.6816 78.25C62.4179 78.6983 62.2772 79.1992 62.2772 79.7266C62.2597 80.7989 62.8398 81.7657 63.7715 82.293C64.2374 82.5743 64.7824 82.6973 65.3274 82.6973C65.8108 82.6973 66.2943 82.6007 66.725 82.3721C67.1469 82.1876 67.5337 81.8887 67.815 81.5196L66.8217 80.8956C66.6635 81.0977 66.4349 81.2559 66.1976 81.3614C65.9163 81.4844 65.635 81.5196 65.3274 81.5196C65.0637 81.5196 64.7824 81.4581 64.5363 81.3614C64.2902 81.2383 64.088 81.0977 63.9298 80.8956C63.7715 80.711 63.6661 80.4913 63.6045 80.2452H68.0962C68.1138 80.043 68.1402 79.8584 68.1402 79.7178C68.1402 78.6895 67.5952 77.7139 66.7074 77.169V77.1777ZM63.6133 79.2608C63.6309 79.0147 63.71 78.7949 63.8594 78.5928C64.0001 78.3906 64.2023 78.2324 64.422 78.1094C64.6681 77.9863 64.9494 77.9248 65.2131 77.9248C65.4944 77.9248 65.7581 77.9863 66.0218 78.1094C66.2415 78.2324 66.4437 78.3906 66.5844 78.5928C66.725 78.7949 66.8041 79.0147 66.8305 79.2608H63.6133Z" fill="white"/>
<path id="Vector_12" d="M73.2384 77.0713C72.878 76.8691 72.4736 76.7637 72.0429 76.7637C71.6825 76.7637 71.3134 76.8691 71.0145 77.0449C70.7332 77.2295 70.4871 77.4668 70.3289 77.7744L70.2498 76.8428H69.1158V82.6085L70.3464 82.5909V79.6553C70.3289 79.3301 70.3904 79.0049 70.531 78.7061C70.6541 78.46 70.8123 78.2842 71.0409 78.1436C71.243 78.0205 71.4891 77.959 71.7265 77.959C71.9638 77.959 72.2099 78.0205 72.4121 78.1436C72.6143 78.2842 72.7989 78.4864 72.8956 78.7061C73.0186 79.0137 73.0977 79.3301 73.0801 79.6553V82.5909H74.3371V79.6553C74.3547 79.1104 74.258 78.5391 74.0558 78.0381C73.8976 77.6338 73.6075 77.291 73.2472 77.0713H73.2384Z" fill="white"/>
<path id="Vector_13" d="M79.7078 77.1777C79.2419 76.8965 78.7409 76.7734 78.2135 76.7734C77.6861 76.7734 77.2027 76.9141 76.7544 77.1777C76.3061 77.4414 75.9457 77.8018 75.682 78.25C75.682 78.2676 75.6644 78.2676 75.6644 78.294C74.8733 79.709 75.3831 81.5108 76.7983 82.293C77.2642 82.5743 77.8092 82.6973 78.3541 82.6973C78.8376 82.6973 79.321 82.6007 79.7254 82.3721C80.1473 82.1876 80.5341 81.8887 80.8153 81.5196L79.8221 80.8956C79.6639 81.0977 79.4353 81.2559 79.198 81.3614C78.9167 81.4844 78.6354 81.5196 78.3278 81.5196C78.0641 81.5196 77.7828 81.4581 77.5367 81.3614C77.2906 81.2647 77.0884 81.0977 76.9302 80.8956C76.7719 80.711 76.6665 80.4913 76.6049 80.2452H81.0966C81.1142 80.043 81.1406 79.8584 81.1406 79.7178C81.1406 78.6895 80.5956 77.7139 79.7078 77.169V77.1777ZM76.6313 79.2608C76.6489 79.0147 76.728 78.7949 76.8774 78.5928C77.0181 78.3906 77.2202 78.2324 77.44 78.1094C77.6861 77.9863 77.9674 77.9248 78.2311 77.9248C78.5124 77.9248 78.7761 77.9863 79.0398 78.1094C79.2595 78.2324 79.4617 78.3906 79.6023 78.5928C79.743 78.7949 79.8221 79.0147 79.8484 79.2608H76.6313Z" fill="white"/>
<path id="Vector_14" d="M84.0588 77.0376C83.7511 77.1958 83.5138 77.4419 83.3468 77.7231L83.2677 76.853H82.1338V82.6187L83.3908 82.6011V80.0698C83.3292 79.481 83.5138 78.9184 83.9006 78.4966C84.2434 78.1889 84.7093 78.0132 85.1751 78.0307C85.2367 78.0307 85.3158 78.0483 85.3773 78.0483L85.6234 76.853C85.4652 76.8091 85.2982 76.8091 85.14 76.8091C84.7532 76.7915 84.3928 76.8706 84.0676 77.0288L84.0588 77.0376Z" fill="white"/>
<path id="Vector_15" d="M90.4668 77.9414C90.2822 77.5811 90.0009 77.291 89.6581 77.0889C89.3153 76.8691 88.911 76.7637 88.4891 76.7637C88.0056 76.7637 87.5222 76.9043 87.1178 77.168C86.6959 77.4317 86.3531 77.792 86.107 78.2403C85.5972 79.1543 85.5972 80.2618 86.107 81.1934C86.3531 81.6153 86.6959 82.002 87.1178 82.2657C87.5222 82.5294 88.0056 82.67 88.4891 82.67C88.911 82.67 89.3153 82.5733 89.6581 82.3712C90.0009 82.169 90.2822 81.8878 90.4668 81.545L90.5459 82.6173H91.6798V76.8516H90.5459L90.4668 77.9414ZM90.2031 80.587C90.0625 80.8506 89.8427 81.0704 89.579 81.211C89.3153 81.3692 89.0165 81.4571 88.7088 81.4571C88.4012 81.4571 88.1023 81.378 87.8386 81.211C87.5749 81.0528 87.3552 80.8506 87.2145 80.587C87.0739 80.3233 86.9948 80.0245 86.9948 79.7168C86.9772 79.4092 87.0563 79.1104 87.2145 78.8467C87.3727 78.583 87.5749 78.3809 87.8386 78.2227C88.1023 78.0645 88.4012 77.9766 88.7088 77.9766C89.0165 77.9766 89.3153 78.0557 89.579 78.2227C89.8427 78.3633 90.0449 78.583 90.2031 78.8467C90.3438 79.1104 90.4229 79.4092 90.4229 79.7168C90.4405 80.0245 90.3613 80.3233 90.2031 80.587Z" fill="white"/>
<path id="Vector_16" d="M94.2289 74.4434H92.9719V82.6085H94.2289V74.4434Z" fill="white"/>
<path id="Vector_17" d="M100.54 74.9707L97.8328 82.6173H99.2919L99.916 80.8594H102.623L103.23 82.6173H104.689L101.982 74.9707H100.549H100.54ZM100.276 79.6026L101.243 76.7725L102.237 79.6026H100.276Z" fill="white"/>
<path id="Vector_18" d="M109.172 79.7793C109.189 80.1045 109.11 80.4297 108.987 80.7286C108.891 80.9747 108.724 81.1504 108.504 81.2911C108.056 81.5372 107.537 81.5372 107.106 81.2911C106.904 81.1504 106.719 80.9483 106.623 80.7286C106.5 80.4209 106.421 80.1045 106.438 79.7793V76.8438H105.181V79.7793C105.164 80.3243 105.26 80.8692 105.463 81.3965C105.621 81.8008 105.911 82.1436 106.271 82.3633C106.632 82.5831 107.062 82.6885 107.484 82.6885C107.845 82.6885 108.196 82.5919 108.513 82.4073C108.794 82.2227 109.04 81.9854 109.198 81.6778L109.277 82.6094H110.411V76.8438H109.154V79.7793H109.172Z" fill="white"/>
<path id="Vector_19" d="M114.182 81.5186C113.901 81.5362 113.62 81.422 113.435 81.2198C113.233 80.9561 113.154 80.6573 113.171 80.3321V77.9854H114.525V76.8692H113.171V74.9883H112.143L111.985 76.8692H111.176V77.9854H111.941V80.3497C111.897 81.0001 112.099 81.6417 112.53 82.1515C112.934 82.5382 113.479 82.7403 114.024 82.714C114.349 82.714 114.648 82.6524 114.938 82.5558L114.613 81.4395C114.472 81.5011 114.332 81.5186 114.191 81.5186H114.182Z" fill="white"/>
<path id="Vector_20" d="M119.904 77.0713C119.544 76.8692 119.14 76.7637 118.709 76.7637C118.366 76.7461 118.023 76.8428 117.716 77.0274C117.434 77.2119 117.188 77.4493 117.03 77.7393V74.4434H115.773V82.5909H117.004V79.6553C116.986 79.3301 117.048 79.0049 117.188 78.7061C117.311 78.46 117.47 78.2842 117.698 78.1436C117.9 78.0206 118.146 77.959 118.384 77.959C118.621 77.959 118.867 78.0206 119.069 78.1436C119.272 78.2842 119.456 78.4864 119.553 78.7061C119.676 79.0137 119.755 79.3301 119.737 79.6553V82.5909H120.994V79.6553C121.012 79.1104 120.915 78.5655 120.713 78.0381C120.555 77.6338 120.265 77.2911 119.904 77.0713Z" fill="white"/>
<path id="Vector_21" d="M126.383 77.1768C125.469 76.6494 124.344 76.6494 123.429 77.1768C122.981 77.4404 122.621 77.8008 122.357 78.249C121.83 79.1631 121.83 80.2881 122.357 81.2022C122.603 81.668 122.981 82.0284 123.429 82.2921C123.878 82.5557 124.379 82.6964 124.906 82.6964C125.433 82.6964 125.935 82.5557 126.383 82.2921C126.831 82.0284 127.191 81.6417 127.455 81.2022C127.983 80.2881 127.983 79.1631 127.455 78.249C127.209 77.8008 126.831 77.4404 126.383 77.1768ZM126.365 80.5694C126.058 81.0967 125.513 81.4219 124.906 81.4219C124.598 81.4219 124.317 81.3604 124.036 81.2022C123.79 81.044 123.57 80.8418 123.429 80.5782C123.289 80.3145 123.21 80.0332 123.21 79.7256V79.6641C123.227 78.7324 124.001 77.9854 124.932 78.0029C125.864 78.0205 126.611 78.794 126.594 79.7256C126.594 80.0332 126.515 80.3145 126.374 80.5782L126.365 80.5694Z" fill="white"/>
<path id="Vector_22" d="M130.787 77.0376C130.479 77.1958 130.242 77.4419 130.075 77.7231L129.995 76.853H128.862V82.6187H130.119V80.0874C130.057 79.4985 130.242 78.936 130.628 78.5142C131.033 78.1714 131.578 77.9868 132.105 78.0483L132.351 76.853C132.193 76.8091 132.026 76.8091 131.868 76.8091C131.481 76.7915 131.121 76.8706 130.795 77.0288L130.787 77.0376Z" fill="white"/>
<path id="Vector_23" d="M134.426 74.9707H133.134V76.2627H134.426V74.9707Z" fill="white"/>
<path id="Vector_24" d="M134.408 76.8516H133.151V82.6173H134.408V76.8516Z" fill="white"/>
<path id="Vector_25" d="M138.17 81.5186C137.889 81.5362 137.608 81.422 137.423 81.2198C137.221 80.9561 137.142 80.6573 137.159 80.3321V77.9854H138.513V76.8692H137.159V74.9883H136.131L135.973 76.8692H135.164V77.9854H135.929V80.3497C135.885 81.0001 136.087 81.6417 136.518 82.1515C136.922 82.5382 137.467 82.7403 138.012 82.714C138.337 82.714 138.636 82.6524 138.926 82.5558L138.601 81.4395C138.46 81.5011 138.32 81.5186 138.179 81.5186H138.17Z" fill="white"/>
<path id="Vector_26" d="M142.187 80.7549L140.71 76.8525H139.374L141.642 82.4512V82.5128C141.537 82.7589 141.422 82.9962 141.282 83.2247C141.176 83.3829 141.018 83.5323 140.86 83.6466C140.702 83.7432 140.517 83.8048 140.333 83.8048C140.227 83.8048 140.113 83.7872 139.99 83.7608C139.893 83.7432 139.77 83.6993 139.664 83.6641L139.304 84.7804C139.489 84.8595 139.647 84.9034 139.831 84.9386C140.016 84.9825 140.218 85.0001 140.394 85.0001C140.754 85.0001 141.106 84.921 141.405 84.754C141.73 84.5694 142.011 84.3058 142.214 84.0069C142.495 83.5587 142.741 83.0928 142.899 82.6094L144.965 76.8438H143.646L142.187 80.7461V80.7549Z" fill="white"/>
<path id="Vector_27" d="M77.6509 43.5072H83.6545V16.8233H90.6689V10.8203H70.6277V16.8233H77.6509V43.5072Z" fill="white"/>
<path id="Vector_28" d="M116.837 32.616V26.1032H105.577V28.9509H105.621L110.877 32.3435V32.5896C110.877 35.7801 108.293 38.3729 105.093 38.3729C101.894 38.3729 99.3095 35.7889 99.3095 32.5896V21.735C99.3095 18.5445 101.894 15.9517 105.093 15.9693C108.082 15.9693 110.569 18.2545 110.833 21.2252H116.837C116.555 14.7388 111.053 9.70263 104.566 9.98389C98.2811 10.2651 93.3059 15.442 93.3059 21.7526V32.6072C93.3059 39.12 98.5799 44.3759 105.076 44.3759C111.572 44.3759 116.846 39.1024 116.846 32.6072L116.837 32.616Z" fill="white"/>
<path id="Vector_29" d="M126.356 35.5882H136.913L139.04 43.516H145.009L136.254 10.8203H127.033L118.278 43.516H124.247L126.374 35.5882H126.356ZM131.63 15.8565L135.313 29.5852H127.956L131.639 15.8565H131.63Z" fill="white"/>
<path id="Vector_30" d="M140.025 52.5059H138.188L138.126 63.6857C138.126 64.9777 137.616 65.6281 136.606 65.6281H134.628V62.6134C134.645 61.339 134.144 60.1085 133.213 59.2208C132.298 58.3067 131.068 57.8057 129.793 57.8233H125.829V65.6281H123.06C122.049 65.6281 121.539 64.9777 121.539 63.6857V57.8585H119.702V63.6857C119.702 64.9777 119.193 65.6281 118.208 65.6281H116.89C115.896 65.6281 115.395 64.9777 115.395 63.6857V57.8585H113.558V63.6857C113.558 64.9777 113.048 65.6281 112.037 65.6281H111.352C110.359 65.6281 109.858 64.9777 109.858 63.6857V57.8585H105.287C102.641 57.8409 100.479 59.9591 100.435 62.6134C100.417 65.2589 102.535 67.4211 105.19 67.465H105.296C106.693 67.5265 108.003 66.841 108.75 65.6632C109.093 66.8146 110.165 67.5617 111.361 67.465H112.046C113.04 67.5265 113.989 67.0168 114.49 66.1466C115 66.9992 115.923 67.5002 116.916 67.465H118.234C119.228 67.5265 120.159 67.0168 120.66 66.1466C121.17 66.9992 122.093 67.5002 123.104 67.465H125.891C125.908 68.7394 126.374 69.9963 127.209 70.9455C128 71.7717 129.108 72.2375 130.259 72.2024C131.411 72.22 132.527 71.7805 133.336 70.9279C134.188 69.9787 134.672 68.7482 134.654 67.4738H136.658C137.59 67.5177 138.495 67.131 139.128 66.4455C139.752 65.6808 140.078 64.6876 140.042 63.6945V52.5146L140.025 52.5059ZM108.012 62.6573H107.994C108.038 63.4484 107.748 64.213 107.229 64.8019C106.72 65.3293 106.016 65.6281 105.287 65.6105C103.652 65.6105 102.333 64.2921 102.333 62.6749V62.6573C102.316 61.8663 102.641 61.1017 103.204 60.5567C103.749 59.9942 104.496 59.669 105.287 59.6866H108.02V62.6573H108.012ZM132.782 67.3508C132.826 68.1594 132.562 68.968 132.035 69.6184C131.586 70.1633 130.901 70.4709 130.198 70.4445C129.512 70.4621 128.862 70.1984 128.422 69.6975C127.939 69.0734 127.657 68.2824 127.657 67.4738H129.257C129.987 67.4914 130.69 67.3332 131.358 67.0256C131.947 66.7619 132.43 66.34 132.791 65.8302V67.3508H132.782ZM131.894 64.7843C131.27 65.3468 130.417 65.6544 129.565 65.6105H127.64V59.6251H129.785C131.419 59.6251 132.773 60.9435 132.773 62.5958C132.817 63.422 132.492 64.2306 131.885 64.7755L131.894 64.7843Z" fill="white"/>
<path id="Vector_31" d="M72.6758 67.4924H86.854C87.7858 67.5363 88.6911 67.1496 89.2977 66.464C89.9217 65.6994 90.247 64.7062 90.2118 63.713V52.5332H88.3747V63.6954C88.3747 64.9874 87.8649 65.6378 86.854 65.6378H82.125C82.67 65.049 83.0743 64.6271 83.2941 64.3458C83.5402 64.0646 83.8391 63.6779 84.2258 63.1945C84.5511 62.7902 84.8323 62.3243 85.0345 61.8409C85.1927 61.4542 85.2806 61.0323 85.2806 60.628C85.2806 58.8087 84.0061 57.8946 81.4394 57.8946H74.2228V61.1114L77.2729 65.6642H72.6845C71.6737 65.6642 71.1639 65.0138 71.1639 63.7218V52.542H69.3443V63.7218C69.3004 64.715 69.608 65.6818 70.2321 66.4728C70.8386 67.1847 71.7528 67.5451 72.6758 67.5012V67.4924ZM76.3588 60.962V59.6876H80.7889C81.413 59.6436 82.0459 59.7491 82.626 59.9952C83.048 60.2149 83.2765 60.6808 83.215 61.1466C83.215 61.3312 83.171 61.4894 83.1359 61.6739C83.0568 61.8761 82.9776 62.0782 82.8546 62.2628C82.7139 62.4825 82.5909 62.6847 82.4678 62.8517C82.3096 63.0978 82.125 63.3175 81.9228 63.5197C81.6767 63.8009 81.5009 64.0294 81.3339 64.1876C81.1933 64.3458 80.9735 64.5919 80.6659 64.9171C80.3582 65.2423 80.1385 65.4621 79.9978 65.6291H79.4353L76.3588 60.9796V60.962Z" fill="white"/>
<path id="Vector_32" d="M66.769 62.5968C66.7514 60.0128 64.6242 57.8859 62.0136 57.8683C59.3678 57.8683 57.223 60.0128 57.223 62.6584C57.223 63.8273 57.8119 64.9436 58.7788 65.6115H55.7287C54.7354 65.6115 54.2344 64.9611 54.2344 63.6691V57.8419H49.6636C47.0178 57.8243 44.8555 59.9425 44.8115 62.5968C44.7939 65.2424 46.9123 67.4045 49.5669 67.4485H49.6636C51.0612 67.51 52.3709 66.8244 53.1181 65.6467C53.4609 66.7981 54.5333 67.5451 55.7287 67.4485H62.0136C64.6594 67.4309 66.7865 65.2424 66.769 62.5968ZM52.3885 62.6584C52.4324 63.4494 52.1424 64.2141 51.6238 64.8029C51.1139 65.3303 50.4107 65.6291 49.6812 65.6115C48.0462 65.6115 46.7277 64.2932 46.7277 62.6759V62.6584C46.7102 61.8673 47.0354 61.1027 47.5979 60.5578C48.1429 59.9953 48.8901 59.6701 49.6812 59.6876H52.4149L52.3973 62.6584H52.3885ZM64.1144 64.759C62.9629 65.9104 61.0818 65.9104 59.9303 64.759C59.3853 64.2141 59.0601 63.4406 59.0601 62.6584C59.0425 61.8673 59.3678 61.1027 59.9303 60.5578C61.0642 59.4064 62.9453 59.3888 64.0968 60.5402L64.1144 60.5578C64.6769 61.1027 64.9846 61.8761 64.9846 62.6584C64.9846 63.4406 64.6769 64.2141 64.1144 64.759Z" fill="white"/>
<path id="Vector_33" d="M145 52.4883H143.18V67.4474H145V52.4883Z" fill="white"/>
<path id="Vector_34" d="M52.3884 54.5898H50.4106V56.5674H52.3884V54.5898Z" fill="white"/>
<path id="Vector_35" d="M105.102 54.5898H103.124V56.5674H105.102V54.5898Z" fill="white"/>
<path id="Vector_36" d="M30.7123 67.465C31.7056 67.509 32.6374 66.9992 33.156 66.1466C33.6658 66.9992 34.5887 67.5002 35.582 67.465H36.2676C37.1994 67.509 38.1047 67.1222 38.7376 66.4367C39.3617 65.672 39.6869 64.6788 39.6518 63.6857V52.5059H37.8147V63.6857H37.718C37.718 64.9777 37.2082 65.6281 36.1973 65.6281H35.5117C34.5008 65.6281 33.991 64.9777 33.991 63.6857V52.5059H32.1715V63.6857C32.1715 64.9777 31.6617 65.6281 30.6508 65.6281H29.9212C28.9104 65.6281 28.4006 64.9777 28.4006 63.6857V57.8585H26.581V63.6857C26.581 64.9777 26.0712 65.6281 25.0604 65.6281H22.9947V62.798C23.0387 61.4796 22.5288 60.2315 21.6235 59.2823C20.7357 58.3506 19.4963 57.8233 18.2042 57.8672C16.9736 57.8497 15.7781 58.3155 14.9079 59.1856C14.0377 60.0118 13.5542 61.1632 13.5718 62.3761C13.5718 63.6681 14.1959 64.881 15.2507 65.6105H11.8314C10.8206 65.6105 10.3107 64.9601 10.3107 63.6681V52.4883H8.4912V66.1994C8.53515 67.2101 8.20992 68.2033 7.54188 68.968C6.34644 70.26 4.30716 70.3654 3.01503 69.1525C2.9535 69.091 2.89197 69.0295 2.83044 68.968C2.1624 68.2033 1.83717 67.2101 1.88112 66.1994V59.7921H0.0615849V66.1994C5.48549e-05 67.6935 0.545035 69.1525 1.55589 70.2424C3.4809 72.2639 6.67167 72.343 8.69337 70.4445C9.68665 69.4777 10.2668 68.1769 10.3283 66.8058C10.7151 67.2541 11.2776 67.5177 11.8666 67.4738H25.1131C26.1064 67.5177 27.0381 67.008 27.5567 66.1554C28.0666 67.008 28.9895 67.509 29.9828 67.4738H30.7123V67.465ZM21.1664 65.6281H18.213C16.578 65.6281 15.2595 64.3097 15.2595 62.6925V62.6749C15.2419 61.8839 15.5672 61.1192 16.1297 60.5743C17.2812 59.4229 19.1447 59.4054 20.3138 60.5567C20.8763 61.1017 21.184 61.8751 21.184 62.6573L21.1664 65.6281Z" fill="white"/>
<path id="Vector_37" d="M107.994 54.5898H106.016V56.5674H107.994V54.5898Z" fill="white"/>
<path id="Vector_38" d="M95.2397 52.4883H93.4202V67.4474H95.2397V52.4883Z" fill="white"/>
<path id="Vector_39" d="M49.479 54.5898H47.5012V56.5674H49.479V54.5898Z" fill="white"/>
<path id="Vector_40" d="M120.168 69.3105H118.19V71.2881H120.168V69.3105Z" fill="white"/>
<path id="Vector_41" d="M123.078 69.3105H121.1V71.2881H123.078V69.3105Z" fill="white"/>
<path id="Vector_42" d="M28.4884 54.5898H26.5106V56.5674H28.4884V54.5898Z" fill="white"/>
<path id="Vector_43" d="M20.9203 54.5898H18.9425V56.5674H20.9203V54.5898Z" fill="white"/>
<path id="Vector_44" d="M18.0107 54.5898H16.033V56.5674H18.0107V54.5898Z" fill="white"/>
<path id="Vector_45" d="M112.626 56.5766H116.125L116.107 55.768H114.674C114.455 55.768 114.252 55.6713 114.085 55.5043C113.927 55.3461 113.839 55.1176 113.839 54.8978C113.822 54.6957 113.918 54.4759 114.085 54.3353C114.244 54.1947 114.446 54.1156 114.674 54.1156C114.938 54.098 115.202 54.2123 115.36 54.4408L115.923 53.8959C115.597 53.5355 115.131 53.3334 114.648 53.3334C114.226 53.3158 113.822 53.474 113.514 53.7552C113.233 54.0365 113.066 54.4232 113.066 54.8275C113.066 55.1703 113.189 55.5131 113.426 55.7767H112.618V56.5853L112.626 56.5766Z" fill="white"/>
<path id="Vector_46" d="M11.4182 0H0.0175781V0.0175783H11.4182V0Z" fill="white"/>
<path id="Vector_47" d="M64.6241 29.0129V28.9953C64.6241 28.1692 64.2022 27.3781 63.4902 26.9299L37.7706 10.3887L63.5166 26.9475C64.2022 27.3957 64.6329 28.1779 64.6329 29.0129H64.6241Z" fill="white"/>
<path id="Vector_48" d="M36.417 9.52745V9.51866L21.6146 0H12.7806V0.0175783H21.6322L36.417 9.52745Z" fill="white"/>
<path id="Vector_49" d="M49.602 43.2082H56.7219L12.1126 22.3867L7.09351 24.7334L48.6087 43.0149C48.9164 43.1555 49.2592 43.217 49.602 43.217V43.2082Z" fill="white"/>
<path id="Vector_50" d="M10.5128 21.6309L0.0175781 16.7441V21.6133L5.44101 24.004L10.5128 21.6309Z" fill="white"/>
<path id="Vector_51" d="M36.417 9.52745L21.6322 0.0175781H12.7719V3.03226H11.4182V0.0175781H0.0175781V15.2228L12.1126 20.8831L36.417 9.51866V9.52745ZM8.39446 2.14456L10.8644 4.55279H13.4136L15.8835 2.14456L16.8329 3.11136L14.1607 5.72175C14.0201 5.86237 13.8531 5.9239 13.6773 5.9239H10.5656C10.381 5.9239 10.2052 5.84479 10.0821 5.72175L7.40998 3.11136L8.40325 2.14456H8.39446ZM4.50927 11.549L8.89549 8.15634L4.26315 7.36532L4.50927 6.02937L10.6183 7.08407H13.6069L19.716 6.02937L19.9357 7.36532L15.3034 8.15634L19.6896 11.549L18.8634 12.6212L13.4223 8.42002H10.7765L5.33553 12.6212L4.50927 11.549ZM8.47357 14.8625L7.44514 13.9748L11.0842 9.80871C11.2073 9.6505 11.3918 9.56261 11.594 9.56261H12.6664C12.851 9.56261 13.0532 9.65929 13.1762 9.80871L16.8153 13.9748L15.822 14.8625L12.8334 11.4435V17.8772H11.4798V11.4435L8.49115 14.8625H8.47357Z" fill="white"/>
<path id="Vector_52" d="M59.9127 43.2074H62.1541C63.5254 43.2074 64.6241 42.0912 64.6241 40.7377V29.0129C64.6241 28.1867 64.2022 27.3957 63.5078 26.9475L37.7619 10.3887L13.7036 21.63L59.9039 43.2074H59.9127Z" fill="white"/>
</g>
<defs>
<clipPath id="clip0_729_1939">
<rect width="145" height="85" fill="white"/>
</clipPath>
</defs>
</svg>
