<svg width="162" height="57" viewBox="0 0 162 57" fill="none" xmlns="http://www.w3.org/2000/svg">
<g id="Layer_1-1" clip-path="url(#clip0_729_1830)">
<path id="Vector" d="M159.347 6.07251C160.81 6.07251 162 4.88668 162 3.38879C162 1.89091 160.801 0.705078 159.347 0.705078C157.893 0.705078 156.694 1.87307 156.694 3.38879C156.694 4.90452 157.893 6.07251 159.347 6.07251ZM159.347 1.21329C160.519 1.21329 161.453 2.14055 161.453 3.37096C161.453 4.60137 160.519 5.54647 159.347 5.54647C158.175 5.54647 157.214 4.58354 157.214 3.37096C157.214 2.15839 158.148 1.21329 159.347 1.21329Z" fill="white"/>
<path id="Vector_2" d="M158.818 3.67272H159.488L160.035 4.77831H160.599L159.99 3.56573C160.273 3.42307 160.475 3.17343 160.475 2.76329C160.475 2.19267 160.07 1.89844 159.603 1.89844H158.73C158.448 1.89844 158.307 2.04109 158.307 2.29074V4.75156H158.818V3.66381V3.67272ZM158.818 2.36207H159.567C159.788 2.36207 159.955 2.50473 159.955 2.77221C159.955 3.03969 159.77 3.20017 159.532 3.20017H158.818V2.36207Z" fill="white"/>
<path id="Vector_3" d="M59.2825 6.00973C64.8617 6.00973 65.5492 11.814 65.5492 11.814L72.1772 10.2359C72.1332 10.0754 70.9785 0.0449219 59.2825 0.0449219C52.0462 0.0449219 45.2683 4.51184 45.2683 15.9422C45.2683 27.3725 52.3811 31.6343 59.7672 31.6343C64.8 31.6343 68.3255 29.9314 69.5595 29.2359C71.1636 28.2908 72.0538 27.3725 72.0538 25.4199V18.4297C72.0538 16.6019 70.8551 15.4964 68.9073 15.4964H59.8201V20.6676H65.5139V24.6888C65.5139 24.6888 63.5043 26.0618 59.9788 26.0618C56.2505 26.0618 52.3547 23.7882 52.3547 15.9511C52.3547 8.1139 55.7393 6.02756 59.2648 6.02756L59.2825 6.00973Z" fill="white"/>
<path id="Vector_4" d="M83.0449 30.581L91.6208 22.0038C91.8059 21.8166 91.7442 21.7364 91.5415 21.7364H90.3869C89.9021 21.7364 89.4526 21.8612 89.0296 22.1019L83.2741 25.4454L88.7475 6.73965C88.7475 6.73965 95.2522 29.3863 95.781 31.2052H103.097L94.2121 3.61905C93.463 1.31872 91.5768 -0.00976562 88.7563 -0.00976562C85.9359 -0.00976562 84.2965 1.20281 83.4856 3.68146L74.4866 31.223H81.5994C82.1106 31.223 82.6923 30.9109 83.0361 30.5632L83.0449 30.581Z" fill="white"/>
<path id="Vector_5" d="M118.168 31.67C129.864 31.67 131.142 21.2293 131.142 21.2293L124.514 19.776C124.514 19.776 123.986 25.7854 118.292 25.7854C114.766 25.7854 111.338 23.5118 111.338 15.7995C111.32 8.1674 114.687 5.9384 118.212 5.9384C123.792 5.9384 124.514 12.1529 124.514 12.1529L131.142 10.7352C131.142 10.7352 130.146 0.0449219 118.204 0.0449219C110.967 0.0449219 104.189 4.39593 104.189 15.8173C104.189 27.2387 110.897 31.67 118.16 31.67H118.168Z" fill="white"/>
<path id="Vector_6" d="M147.096 0.000253879C144.319 0.000253879 142.636 1.21283 141.807 3.69148L132.808 31.233H139.921C140.432 31.233 141.014 30.9209 141.358 30.5732L149.934 21.996C150.119 21.8088 150.057 21.7286 149.854 21.7286H148.7C148.215 21.7286 147.748 21.8534 147.342 22.0941L141.587 25.4376L147.06 6.73184C147.06 6.73184 153.565 29.3785 154.094 31.1973H161.436L152.551 3.61123C151.802 1.31091 149.934 -0.0175781 147.096 -0.0175781V0.000253879Z" fill="white"/>
<path id="Vector_7" d="M36.1107 22.0668L34.4272 9.94102C33.6339 4.29719 29.5443 0.46331 24.7583 0.365234H0.185092C0.0793253 0.365234 0 0.445478 0 0.55247C0 0.659462 0.0440696 0.757538 0.0969532 0.757538C3.68422 1.94337 6.48705 5.04614 7.11284 9.5933L8.7963 21.7191C9.58955 27.3361 13.6792 31.1968 18.4652 31.3216H43.0384C43.1354 31.3216 43.2235 31.2146 43.2235 31.0987C43.2235 31.0006 43.1794 30.9115 43.1177 30.8758C39.5305 29.69 36.7276 26.6139 36.1018 22.0757L36.1107 22.0668ZM17.0902 11.8312C17.4956 11.4211 18.0245 11.0734 18.5092 10.7435C19.1174 10.3512 19.7432 9.9856 20.4131 9.67354C20.5981 9.5933 20.8009 9.4863 20.9771 9.40606C19.8578 8.74628 18.5004 8.22023 17.5309 7.89034C17.5133 7.89034 17.4868 7.84576 17.4868 7.82793C17.4868 7.8101 17.4868 7.8101 17.5045 7.8101C17.8129 7.49804 18.1743 7.29297 18.6238 7.33755C19.0116 7.38213 19.3906 7.4802 19.7785 7.56045C20.2015 7.65852 20.607 7.78335 21.0388 7.926C21.2856 8.00625 21.506 8.08649 21.7528 8.17565C21.7968 8.19348 21.8321 8.19348 21.8762 8.22023C22.0172 6.865 22.4226 5.88424 22.9074 5.88424C23.3922 5.88424 23.7976 6.865 23.9386 8.22023C23.9827 8.2024 24.018 8.17565 24.062 8.17565C24.2824 8.09541 24.5292 7.98842 24.776 7.926C25.1814 7.78335 25.6045 7.67636 26.0363 7.56045C26.4242 7.46237 26.8032 7.35538 27.191 7.33755C27.6405 7.29297 28.0018 7.49804 28.3103 7.8101L28.328 7.82793C28.328 7.82793 28.328 7.89034 28.2839 7.89034C27.3144 8.22023 25.9482 8.75519 24.8376 9.40606C25.0227 9.4863 25.2255 9.56655 25.4017 9.67354C26.0716 9.9856 26.6974 10.3512 27.3055 10.7435C27.7903 11.0466 28.3015 11.4211 28.7246 11.8312C29.13 12.2235 29.2094 12.7317 29.1477 13.2845C29.1477 13.2845 29.1418 13.2994 29.13 13.3291C29.13 13.3291 29.0683 13.3737 29.0507 13.3469C27.9313 12.6693 26.1069 11.8669 24.6878 11.3943C24.5027 11.3319 24.2383 11.2517 23.9739 11.1893C23.8329 16.1911 23.3657 20.0874 22.881 20.0874C22.3962 20.0874 21.9291 16.1911 21.8233 11.1893C21.5765 11.2517 21.3121 11.3319 21.1094 11.3943C19.6903 11.8669 17.8658 12.6693 16.7465 13.3469C16.7288 13.3648 16.6848 13.3648 16.6671 13.3291C16.6671 13.3113 16.6495 13.3113 16.6495 13.2845C16.5878 12.7496 16.6671 12.2413 17.0726 11.8312H17.0902ZM21.7087 21.8617L20.3073 22.3967L17.4075 20.8364C17.3106 20.774 17.3106 20.7383 17.4251 20.7383H18.5445C18.7032 20.7205 18.9059 20.7383 19.0293 20.8007L21.7087 21.8706V21.8617ZM17.5926 26.1236H13.2121C13.0887 26.1236 13.0887 26.079 13.1945 26.0433L26.6181 20.872C26.7415 20.8096 26.9618 20.7918 27.0852 20.7918H28.2046C28.328 20.7918 28.328 20.8364 28.2222 20.8899L19.0205 25.8293C18.474 26.1146 18.1302 26.1146 17.6014 26.1146L17.5926 26.1236ZM32.5586 26.1236H28.1781C27.6493 26.1236 27.3055 26.1236 26.7591 25.8383L23.7623 24.2423L25.4899 23.315L32.5675 26.0433C32.6909 26.0879 32.6909 26.1236 32.5675 26.1236H32.5586Z" fill="white"/>
<path id="Vector_8" d="M48.3356 53.1207H49.5343V54.1461C49.3492 54.3512 49.0055 54.5562 48.5824 54.5562C47.7715 54.5562 47.2251 53.736 47.2251 52.4431C47.2251 51.1503 47.7715 50.33 48.5824 50.33C49.0672 50.33 49.4109 50.6599 49.6137 51.0701L50.3805 50.7223C50.0543 50.0626 49.5079 49.5098 48.5736 49.5098C47.1546 49.5098 46.2379 50.6956 46.2379 52.461C46.2379 54.2263 47.1722 55.4389 48.5736 55.4389C49.3669 55.4389 49.975 55.0912 50.4157 54.5562V52.3005H48.3268V53.1207H48.3356Z" fill="white"/>
<path id="Vector_9" d="M53.0599 51.0703C51.967 51.0703 51.2971 52.0511 51.2971 53.2458C51.2971 54.5386 52.0287 55.4213 53.1657 55.4035C53.7121 55.4035 54.241 55.1806 54.5847 54.7705L54.1793 54.2622C53.9325 54.5476 53.5711 54.717 53.245 54.717C52.5751 54.717 52.2138 54.1998 52.1697 53.5311H54.7874V53.2815C54.7874 52.0332 54.1793 51.0881 53.0599 51.0881V51.0703ZM52.1433 52.9159C52.1873 52.4255 52.4077 51.7658 53.0599 51.7658C53.7121 51.7658 53.9501 52.3988 53.9501 52.9159H52.1433Z" fill="white"/>
<path id="Vector_10" d="M57.7841 51.1152C57.2729 51.1152 56.8146 51.4451 56.5854 51.775V51.2222H55.7305V55.3414H56.5854V52.4259C56.7264 52.1406 57.0526 51.8553 57.4139 51.8553C57.7753 51.8553 58.0045 52.0158 58.0045 52.515V55.3682H58.8594V52.2476C58.8594 51.5254 58.5333 51.1152 57.7841 51.1152Z" fill="white"/>
<path id="Vector_11" d="M61.6006 51.0703C60.5076 51.0703 59.8378 52.0511 59.8378 53.2458C59.8378 54.5386 60.5517 55.4213 61.7063 55.4035C62.2528 55.4035 62.7816 55.1806 63.1254 54.7705L62.7199 54.2622C62.4731 54.5476 62.1118 54.717 61.7856 54.717C61.1158 54.717 60.7544 54.1998 60.7103 53.5311H63.3281V53.2815C63.3281 52.0332 62.7199 51.0881 61.6006 51.0881V51.0703ZM60.6839 52.9159C60.728 52.4255 60.9483 51.7658 61.6006 51.7658C62.2528 51.7658 62.4908 52.3988 62.4908 52.9159H60.6839Z" fill="white"/>
<path id="Vector_12" d="M65.1085 51.8115V51.1963H64.2535V55.3423H65.1085V52.5159C65.2671 52.2038 65.6726 51.9453 66.0251 51.9453C66.1045 51.9453 66.1838 51.9453 66.2455 51.9631V51.125C65.7784 51.125 65.3553 51.4371 65.1085 51.8204V51.8115Z" fill="white"/>
<path id="Vector_13" d="M68.5283 51.1152C67.9995 51.1152 67.453 51.3025 67.0299 51.7126L67.3561 52.31C67.6822 51.9801 68.0259 51.8374 68.3873 51.8374C68.9161 51.8374 69.1982 52.1227 69.1982 52.6131V53.2105C68.9514 52.8806 68.5283 52.7201 68.1052 52.7201C67.4354 52.7201 66.8448 53.1748 66.8448 54.0575C66.8448 54.9402 67.4354 55.4306 68.1052 55.4306C68.5283 55.4306 68.9602 55.2701 69.1982 54.9134V55.3682H70.0267V52.5418C70.0267 51.5343 69.4009 51.1241 68.5283 51.1241V51.1152ZM69.1982 54.3785C69.0395 54.6638 68.7134 54.8332 68.4314 54.851C67.9818 54.851 67.7174 54.5211 67.7174 54.0753C67.7174 53.6295 67.9818 53.3175 68.4314 53.3175C68.7398 53.3175 69.0395 53.478 69.1982 53.7722V54.3874V54.3785Z" fill="white"/>
<path id="Vector_14" d="M72.0627 49.6172H71.2078V55.3234H72.0627V49.6172Z" fill="white"/>
<path id="Vector_15" d="M76.4432 49.6172L74.7421 55.3234H75.7733L76.0818 54.1911H77.9503L78.2588 55.3234H79.29L77.589 49.6172H76.452H76.4432ZM76.2581 53.353L77.0072 50.6247L77.7388 53.353H76.2581Z" fill="white"/>
<path id="Vector_16" d="M82.1987 54.1287C82.04 54.414 81.7315 54.6815 81.3702 54.6815C81.0088 54.6815 80.7796 54.4942 80.7796 54.0217V51.1953H79.9247V54.3159C79.9247 55.0381 80.2684 55.4215 81 55.4215C81.5288 55.4215 81.9695 55.1094 82.1987 54.7617V55.3323H83.0536V51.2131H82.1987V54.1287Z" fill="white"/>
<path id="Vector_17" d="M85.5657 54.6632C85.3453 54.6632 85.2395 54.5027 85.2395 54.2084V51.9349H85.927V51.1948H85.2395V50.0625H84.3846V51.1948H83.8381V51.9349H84.3846V54.3957C84.3846 55.0733 84.6931 55.421 85.3365 55.4032C85.6979 55.4032 85.927 55.3051 86.0857 55.1535L85.883 54.5205C85.8213 54.6007 85.6979 54.6632 85.5568 54.6632H85.5657Z" fill="white"/>
<path id="Vector_18" d="M88.8708 51.0883C88.3596 51.0883 87.9013 51.4182 87.6721 51.7481V49.6172H86.8171V55.3234H87.6721V52.4079C87.8307 52.1226 88.1392 51.8373 88.5006 51.8373C88.8884 51.8373 89.1088 52.0245 89.1088 52.4971V55.3234H89.9373V52.2028C89.9373 51.4806 89.5935 51.0972 88.862 51.0972L88.8708 51.0883Z" fill="white"/>
<path id="Vector_19" d="M92.6961 51.0703C91.5238 51.0703 90.9156 52.0778 90.9156 53.2458C90.9156 54.4138 91.5414 55.4213 92.6961 55.4213C93.8507 55.4213 94.4765 54.4138 94.4765 53.2458C94.4765 52.0778 93.8683 51.0703 92.6961 51.0703ZM92.6961 54.6635C92.0703 54.6635 91.7794 53.9858 91.7794 53.2458C91.7794 52.5058 92.0615 51.8282 92.6961 51.8282C93.3307 51.8282 93.6127 52.5058 93.6127 53.2458C93.6127 53.9858 93.3307 54.6635 92.6961 54.6635Z" fill="white"/>
<path id="Vector_20" d="M96.3098 51.8115V51.1963H95.4548V55.3423H96.3098V52.5159C96.4684 52.2038 96.8739 51.9453 97.2264 51.9453C97.3058 51.9453 97.3851 51.9453 97.4468 51.9631V51.125C96.9796 51.125 96.5566 51.4371 96.3098 51.8204V51.8115Z" fill="white"/>
<path id="Vector_21" d="M98.6983 49.5898C98.3898 49.5898 98.1519 49.8127 98.1519 50.1248C98.1519 50.4369 98.3986 50.6598 98.6983 50.6598C98.9804 50.6598 99.2272 50.4101 99.2272 50.1248C99.2272 49.8395 98.9804 49.5898 98.6983 49.5898Z" fill="white"/>
<path id="Vector_22" d="M99.1126 51.1953H98.2577V55.3145H99.1126V51.1953Z" fill="white"/>
<path id="Vector_23" d="M101.642 54.6632C101.422 54.6632 101.316 54.5027 101.316 54.2084V51.9349H102.004V51.1948H101.316V50.0625H100.461V51.1948H99.9147V51.9349H100.444V54.3957C100.444 55.0733 100.752 55.421 101.413 55.4032C101.774 55.4032 102.004 55.3051 102.162 55.1535L101.96 54.5205C101.898 54.6007 101.774 54.6632 101.633 54.6632H101.642Z" fill="white"/>
<path id="Vector_24" d="M104.198 54.2892L103.282 51.1953H102.365L103.74 55.4037L103.581 55.894C103.502 56.1615 103.335 56.2418 103.114 56.2418C103.052 56.2418 102.929 56.2239 102.85 56.1794L102.726 56.9372C102.85 56.9818 103.07 56.9996 103.194 56.9996C103.784 56.9996 104.189 56.7946 104.41 56.0991L106.032 51.1953H105.115L104.181 54.2892H104.198Z" fill="white"/>
<path id="Vector_25" d="M110.28 51.0703C109.108 51.0703 108.5 52.0778 108.5 53.2458C108.5 54.4138 109.125 55.4213 110.28 55.4213C111.435 55.4213 112.06 54.4138 112.06 53.2458C112.06 52.0778 111.452 51.0703 110.28 51.0703ZM110.28 54.6635C109.654 54.6635 109.363 53.9858 109.363 53.2458C109.363 52.5058 109.645 51.8282 110.28 51.8282C110.915 51.8282 111.197 52.5058 111.197 53.2458C111.197 53.9858 110.915 54.6635 110.28 54.6635Z" fill="white"/>
<path id="Vector_26" d="M113.215 50.8043V51.1966H112.686V51.9366H113.215V55.3247H114.07V51.9366H114.757V51.1966H114.07V50.8043C114.07 50.4566 114.228 50.2515 114.537 50.2515C114.696 50.2515 114.801 50.3139 114.925 50.412L115.207 49.8146C114.986 49.6095 114.678 49.5293 114.378 49.5293C113.664 49.5293 113.224 50.0018 113.224 50.8043H113.215Z" fill="white"/>
<path id="Vector_27" d="M119.711 50.3576C120.178 50.3576 120.522 50.6608 120.724 51.1155L121.518 50.7678C121.209 50.1347 120.707 49.5195 119.711 49.5195C118.274 49.5195 117.375 50.7499 117.375 52.4707C117.375 54.1915 118.265 55.4219 119.711 55.4219C120.707 55.4219 121.236 54.7443 121.518 54.0845L120.724 53.7368C120.566 54.2093 120.196 54.5749 119.711 54.5749C118.882 54.5749 118.353 53.6744 118.353 52.4618C118.353 51.2492 118.882 50.3487 119.711 50.3487V50.3576Z" fill="white"/>
<path id="Vector_28" d="M123.236 51.1953H122.381V55.3145H123.236V51.1953Z" fill="white"/>
<path id="Vector_29" d="M122.813 49.5898C122.505 49.5898 122.267 49.8127 122.267 50.1248C122.267 50.4369 122.514 50.6598 122.813 50.6598C123.095 50.6598 123.342 50.4101 123.342 50.1248C123.342 49.8395 123.095 49.5898 122.813 49.5898Z" fill="white"/>
<path id="Vector_30" d="M125.748 54.307L124.84 51.1953H123.924L125.281 55.3145H126.198L127.573 51.1953H126.665L125.748 54.307Z" fill="white"/>
<path id="Vector_31" d="M128.692 49.5898C128.384 49.5898 128.146 49.8127 128.146 50.1248C128.146 50.4369 128.393 50.6598 128.692 50.6598C128.974 50.6598 129.221 50.4101 129.221 50.1248C129.221 49.8395 128.974 49.5898 128.692 49.5898Z" fill="white"/>
<path id="Vector_32" d="M129.098 51.1953H128.243V55.3145H129.098V51.1953Z" fill="white"/>
<path id="Vector_33" d="M131.142 49.6172H130.287V55.3234H131.142V49.6172Z" fill="white"/>
<path id="Vector_34" d="M135.541 49.6172L133.839 55.3234H134.853L135.162 54.1911H137.03L137.339 55.3234H138.396L136.695 49.6172H135.558H135.541ZM135.32 53.353L136.069 50.6247L136.801 53.353H135.32Z" fill="white"/>
<path id="Vector_35" d="M140.247 54.307L139.331 51.1953H138.423L139.78 55.3145H140.714L142.072 51.1953H141.155L140.247 54.307Z" fill="white"/>
<path id="Vector_36" d="M143.182 49.5898C142.874 49.5898 142.636 49.8127 142.636 50.1248C142.636 50.4369 142.9 50.6598 143.182 50.6598C143.464 50.6598 143.711 50.4101 143.711 50.1248C143.711 49.8395 143.464 49.5898 143.182 49.5898Z" fill="white"/>
<path id="Vector_37" d="M143.614 51.1953H142.759V55.3145H143.614V51.1953Z" fill="white"/>
<path id="Vector_38" d="M146.267 51.1152C145.721 51.1152 145.174 51.3025 144.742 51.7126L145.068 52.31C145.395 51.9801 145.738 51.8374 146.1 51.8374C146.629 51.8374 146.911 52.1227 146.911 52.6131V53.2105C146.664 52.8806 146.241 52.7201 145.818 52.7201C145.165 52.7201 144.557 53.1748 144.557 54.0575C144.557 54.9402 145.148 55.4306 145.818 55.4306C146.241 55.4306 146.673 55.2701 146.911 54.9134V55.3682H147.766V52.5418C147.766 51.5343 147.14 51.1241 146.267 51.1241V51.1152ZM146.919 54.3785C146.761 54.6638 146.452 54.8332 146.153 54.851C145.703 54.851 145.439 54.5211 145.439 54.0753C145.439 53.6295 145.703 53.3175 146.153 53.3175C146.461 53.3175 146.761 53.478 146.919 53.7722V54.3874V54.3785Z" fill="white"/>
<path id="Vector_39" d="M150.286 54.6632C150.066 54.6632 149.96 54.5027 149.96 54.2084V51.9349H150.648V51.1948H149.96V50.0625H149.105V51.1948H148.576V51.9349H149.105V54.3957C149.105 55.0733 149.414 55.421 150.057 55.4032C150.419 55.4032 150.648 55.3051 150.806 55.1535L150.604 54.5205C150.542 54.6007 150.419 54.6632 150.277 54.6632H150.286Z" fill="white"/>
<path id="Vector_40" d="M151.943 49.5898C151.661 49.5898 151.414 49.8127 151.414 50.1248C151.414 50.4369 151.679 50.6598 151.943 50.6598C152.225 50.6598 152.472 50.4101 152.472 50.1248C152.472 49.8395 152.225 49.5898 151.943 49.5898Z" fill="white"/>
<path id="Vector_41" d="M152.393 51.1953H151.538V55.3145H152.393V51.1953Z" fill="white"/>
<path id="Vector_42" d="M155.152 51.0703C153.979 51.0703 153.371 52.0778 153.371 53.2458C153.371 54.4138 153.979 55.4213 155.152 55.4213C156.324 55.4213 156.932 54.4138 156.932 53.2458C156.932 52.0778 156.324 51.0703 155.152 51.0703ZM155.134 54.6635C154.508 54.6635 154.217 53.9858 154.217 53.2458C154.217 52.5058 154.499 51.8282 155.134 51.8282C155.768 51.8282 156.051 52.5058 156.051 53.2458C156.051 53.9858 155.786 54.6635 155.134 54.6635Z" fill="white"/>
<path id="Vector_43" d="M159.955 51.1152C159.444 51.1152 158.986 51.4451 158.756 51.775V51.2222H157.901V55.3414H158.756V52.4259C158.897 52.1406 159.224 51.8553 159.585 51.8553C159.946 51.8553 160.175 52.0158 160.175 52.515V55.3682H161.03V52.2476C161.03 51.5254 160.704 51.1152 159.955 51.1152Z" fill="white"/>
<path id="Vector_44" d="M106.366 38.9711C106.366 39.2564 106.587 39.4882 106.878 39.4882C107.169 39.4882 107.389 39.2653 107.389 38.9711C107.389 38.6769 107.169 38.4629 106.878 38.4629C106.587 38.4629 106.366 38.6858 106.366 38.9711Z" fill="white"/>
<path id="Vector_45" d="M107.988 38.9711C107.988 39.2564 108.209 39.4882 108.499 39.4882C108.79 39.4882 109.011 39.2653 109.011 38.9711C109.011 38.6769 108.79 38.4629 108.499 38.4629C108.209 38.4629 107.988 38.6858 107.988 38.9711Z" fill="white"/>
<path id="Vector_46" d="M136.396 38.9711C136.396 38.6858 136.175 38.4629 135.884 38.4629C135.594 38.4629 135.373 38.6858 135.373 38.9711C135.373 39.2564 135.594 39.4882 135.884 39.4882C136.175 39.4882 136.396 39.2653 136.396 38.9711Z" fill="white"/>
<path id="Vector_47" d="M138.017 38.9711C138.017 38.6858 137.797 38.4629 137.506 38.4629C137.215 38.4629 136.995 38.6858 136.995 38.9711C136.995 39.2564 137.242 39.4882 137.506 39.4882C137.788 39.4882 138.017 39.2653 138.017 38.9711Z" fill="white"/>
<path id="Vector_48" d="M145.033 40.7101C145.518 40.7279 145.985 40.7547 146.47 40.7547C146.549 40.7547 147.14 40.7368 147.483 40.7101L147.404 40.0503C147.043 40.1127 146.232 40.3624 146.144 39.8007C146.1 39.5154 146.302 39.23 146.593 39.1676C146.814 39.1231 147.06 39.2122 147.263 39.2925L147.466 38.6594C146.999 38.5168 146.496 38.4544 146.091 38.7575C145.641 39.0696 145.483 39.7204 145.765 40.193C145.359 40.2108 145.033 40.2108 145.033 40.2108V40.7012V40.7101Z" fill="white"/>
<path id="Vector_49" d="M87.1257 46.5152C87.1257 46.2477 86.9053 45.998 86.6145 45.998C86.3236 45.998 86.1033 46.2209 86.1033 46.5152C86.1033 46.8094 86.3236 47.0323 86.6145 47.0323C86.9053 47.0323 87.1257 46.8094 87.1257 46.5152Z" fill="white"/>
<path id="Vector_50" d="M88.7474 46.5152C88.7474 46.2477 88.527 45.998 88.2362 45.998C87.9453 45.998 87.725 46.2209 87.725 46.5152C87.725 46.8094 87.9453 47.0323 88.2362 47.0323C88.527 47.0323 88.7474 46.8094 88.7474 46.5152Z" fill="white"/>
<path id="Vector_51" d="M148.841 46.5152C148.841 46.2477 148.62 45.998 148.33 45.998C148.039 45.998 147.818 46.2209 147.818 46.5152C147.818 46.8094 148.039 47.0323 148.33 47.0323C148.62 47.0323 148.841 46.8094 148.841 46.5152Z" fill="white"/>
<path id="Vector_52" d="M150.463 46.5152C150.463 46.2477 150.242 45.998 149.951 45.998C149.661 45.998 149.44 46.2209 149.44 46.5152C149.44 46.8094 149.661 47.0323 149.951 47.0323C150.242 47.0323 150.463 46.8094 150.463 46.5152Z" fill="white"/>
<path id="Vector_53" d="M48.9085 47.7456C48.9085 47.4603 48.6882 47.2285 48.3973 47.2285C48.1065 47.2285 47.8861 47.4514 47.8861 47.7456C47.8861 48.0399 48.1065 48.2628 48.3973 48.2628C48.6882 48.2628 48.9085 48.0399 48.9085 47.7456Z" fill="white"/>
<path id="Vector_54" d="M50.019 47.2363C49.737 47.2363 49.5078 47.4592 49.5078 47.7535C49.5078 48.0477 49.7282 48.2706 50.019 48.2706C50.3099 48.2706 50.5302 48.0477 50.5302 47.7535C50.5302 47.4592 50.3099 47.2363 50.019 47.2363Z" fill="white"/>
<path id="Vector_55" d="M76.4608 40.9789C76.4608 41.2642 76.6812 41.496 76.972 41.496C77.2629 41.496 77.4832 41.2731 77.4832 40.9789C77.4832 40.6847 77.2629 40.4707 76.972 40.4707C76.6812 40.4707 76.4608 40.6936 76.4608 40.9789Z" fill="white"/>
<path id="Vector_56" d="M54.4172 39.9976C54.4172 39.7123 54.1968 39.4805 53.906 39.4805C53.6151 39.4805 53.3948 39.7034 53.3948 39.9976C53.3948 40.2918 53.6151 40.5147 53.906 40.5147C54.1968 40.5147 54.4172 40.2918 54.4172 39.9976Z" fill="white"/>
<path id="Vector_57" d="M160.969 38.6875H160.096V44.9644H160.969V38.6875Z" fill="white"/>
<path id="Vector_58" d="M131.592 38.6875H130.719V44.9644H131.592V38.6875Z" fill="white"/>
<path id="Vector_59" d="M81.5113 38.6875H80.6387V44.9644H81.5113V38.6875Z" fill="white"/>
<path id="Vector_60" d="M158.677 43.6266V38.6426H157.805V43.6712C157.805 44.0011 157.54 44.2686 157.214 44.2686H154.781C154.781 44.2686 154.825 44.224 154.825 44.2062C155.011 43.9565 155.213 43.5107 155.028 42.8688C154.922 42.4765 154.579 41.2728 153.733 41.246H153.715C152.719 41.246 152.093 42.949 151.987 43.2789C151.926 43.484 151.829 43.8317 151.741 44.2418H149.59C149.669 44.0546 149.713 43.8495 149.713 43.6445V41.4868H148.841V43.6445C148.841 43.9743 148.576 44.2418 148.25 44.2418H147.721C147.395 44.2418 147.131 43.9743 147.131 43.6445V41.4868H146.258V43.6445C146.258 43.9743 145.994 44.2418 145.668 44.2418H138.246C137.92 44.2418 137.656 43.9743 137.656 43.6445V40.3812H136.783V40.7913C136.537 40.8716 136.069 41.0142 135.585 41.246C134.553 41.7186 133.981 42.2892 133.84 42.9312C133.778 43.2611 133.857 43.5464 134.06 43.7693C134.183 43.9119 134.65 44.2864 135.884 44.2864C136.166 44.2864 136.493 44.2686 136.88 44.224C137.101 44.759 137.63 45.1245 138.22 45.1245H145.641C146.047 45.1245 146.408 44.964 146.673 44.6965C146.937 44.964 147.298 45.1245 147.704 45.1245H148.233C148.62 45.1245 148.982 44.964 149.246 44.7144V45.1245H151.661C151.679 45.9448 151.943 46.7651 152.86 47.1574C153.107 47.2554 153.371 47.3 153.627 47.3C154.314 47.3 154.984 46.9701 155.249 46.4173C155.372 46.1944 155.495 45.6773 155.063 45.1067H157.196C158.007 45.1067 158.66 44.4469 158.66 43.6266H158.677ZM136.801 43.4037C135.946 43.484 134.932 43.4483 134.73 43.2165C134.73 43.1987 134.712 43.1987 134.73 43.1541C134.835 42.6191 135.902 42.0663 136.801 41.781V43.4037ZM152.816 43.591C153.124 42.6904 153.565 42.1555 153.706 42.1555C153.706 42.1555 153.926 42.2357 154.191 43.1184C154.27 43.4216 154.191 43.591 154.129 43.6712C153.882 43.9743 153.274 44.1438 152.631 44.2062C152.693 44.0189 152.754 43.8139 152.816 43.591ZM154.499 46.0696C154.376 46.3371 153.75 46.5867 153.204 46.3549C152.754 46.1677 152.534 45.7397 152.534 45.1067C153.001 45.0621 153.486 44.9819 153.891 44.8392L153.733 45.1513C154.297 45.499 154.605 45.8467 154.499 46.0785V46.0696Z" fill="white"/>
<path id="Vector_61" d="M71.2078 38.6875H70.3352V44.9644H71.2078V38.6875Z" fill="white"/>
<path id="Vector_62" d="M65.1085 44.937V45.1243H67.4794C68.2903 45.1243 68.9425 44.4645 68.9425 43.6442V38.6602H68.0699V43.662C68.0699 43.9919 67.8055 44.2594 67.4794 44.2594H65.7519C65.7519 44.2594 65.7695 44.197 65.7959 44.1613C66.0604 43.4837 65.9017 42.6634 65.6726 42.1909C65.3641 41.5311 64.8176 41.1477 64.2359 41.1477C63.6542 41.1477 63.0989 41.54 62.7728 42.2176C62.6141 42.5475 62.5083 42.8507 62.4114 43.1449C62.147 43.9473 62.0236 44.2772 61.151 44.2772H60.3225C60.1198 42.1463 58.1719 41.0942 58.0926 41.0407L57.6871 41.8164C57.6871 41.8164 59.2472 42.6545 59.4499 44.2594H56.7352V45.1421H61.1774C61.8032 45.1421 62.2351 44.9816 62.5172 44.732C62.9402 45.0173 63.5925 45.1421 64.1566 45.1421C64.4827 45.1421 64.7647 45.0975 64.9674 45.0173C65.0115 44.9994 65.0732 44.9727 65.1085 44.9549V44.937ZM64.6413 44.197C64.2799 44.3396 63.3457 44.2148 63.0019 44.0098C63.0813 43.8047 63.1606 43.5996 63.2223 43.3946C63.3016 43.1271 63.4074 42.8596 63.5308 42.5921C63.7159 42.2444 63.9538 42.0215 64.2183 42.0215C64.465 42.0215 64.703 42.2266 64.8705 42.5743C65.0379 42.922 65.1349 43.457 64.9939 43.8493C64.9322 44.0365 64.8088 44.1346 64.6501 44.197H64.6413Z" fill="white"/>
<path id="Vector_63" d="M117.454 42.1914C117.19 41.5584 116.643 41.1661 116.053 41.1661C115.462 41.1661 114.898 41.5584 114.572 42.236C114.414 42.5659 114.308 42.869 114.228 43.1365C113.964 43.9389 113.841 44.2688 112.968 44.2688H109.416C109.09 44.2688 108.826 44.0014 108.826 43.6715V40.4082H107.953V40.8183C107.706 40.8986 107.239 41.0412 106.754 41.2731C105.723 41.7456 105.15 42.3162 105.009 42.9582C104.947 43.2881 105.027 43.5734 105.229 43.7963C105.353 43.9389 105.82 44.3134 107.054 44.3134C107.336 44.3134 107.662 44.2956 108.05 44.251C108.27 44.786 108.799 45.1515 109.39 45.1515H112.942C113.567 45.1515 113.999 44.991 114.281 44.7414C114.934 45.1693 116.185 45.2585 116.732 45.0267C117.119 44.884 117.419 44.572 117.56 44.1618C117.825 43.4842 117.657 42.664 117.437 42.1914H117.454ZM107.962 43.404C107.107 43.4842 106.12 43.4486 105.89 43.2167C105.89 43.2167 105.873 43.1989 105.89 43.1543C105.987 42.6194 107.063 42.0666 107.962 41.7813V43.404ZM116.802 43.8587C116.74 44.0459 116.617 44.144 116.458 44.2064C116.097 44.3491 115.163 44.2243 114.819 44.0192C114.898 43.8141 114.978 43.609 115.039 43.404C115.119 43.1365 115.224 42.869 115.348 42.6015C115.533 42.2538 115.771 42.0309 116.035 42.0309C116.282 42.0309 116.52 42.236 116.688 42.5837C116.873 42.9314 116.97 43.4664 116.811 43.8587H116.802Z" fill="white"/>
<path id="Vector_64" d="M100.972 45.1243C101.783 45.1243 102.436 44.4645 102.436 43.6442V38.6602H101.563V43.662H101.581C101.581 43.9919 101.316 44.2594 100.99 44.2594H100.461C100.135 44.2594 99.8706 43.9919 99.8706 43.662V38.678H98.9981V43.662C98.9981 43.9919 98.7337 44.2594 98.4075 44.2594H97.1471C97.1295 43.3767 96.962 42.289 96.2569 41.6738C95.4284 40.9783 94.2914 41.4063 93.4982 41.9234C93.031 42.2087 92.608 42.5832 92.2025 42.9666V38.6602H91.33V44.2416H87.7603C87.8396 44.0543 87.8837 43.8493 87.8837 43.6442V41.4865H87.0111V43.6442C87.0111 43.9741 86.7467 44.2416 86.4206 44.2416H84.5785C84.2524 44.2416 83.9879 43.9741 83.9879 43.6442V41.4865H83.0713V44.9103C83.0713 45.5879 82.5248 46.1407 81.855 46.1407V47.0234C82.9743 47.0234 83.8998 46.1228 83.9439 44.9905C84.129 45.0708 84.3317 45.1153 84.5344 45.1153H86.3765C86.685 45.1153 86.9406 45.0351 87.1698 44.8657V45.1153H98.3635C98.7689 45.1153 99.1303 44.9549 99.3947 44.6874C99.6591 44.9549 100.02 45.1153 100.426 45.1153H100.955L100.972 45.1243ZM92.1761 44.2862V43.9563H92.1937C92.5551 43.6085 92.9429 43.2786 93.366 42.9933C93.8331 42.6634 94.3619 42.3335 94.926 42.2533C95.1728 42.2087 95.4372 42.2087 95.6135 42.3781C95.7986 42.503 95.8956 42.708 95.9749 42.8953C96.16 43.3232 96.2217 43.8225 96.2393 44.2862H92.1673H92.1761Z" fill="white"/>
<path id="Vector_65" d="M54.8227 43.6711H54.8051C54.8051 44.001 54.5406 44.2684 54.2145 44.2684H53.8267C53.483 44.2684 53.2009 44.001 53.2009 43.6711V42.5031C53.2009 42.1375 53.0599 41.8255 52.7955 41.6204C52.487 41.3707 52.0816 41.3172 51.6409 41.4153C50.83 41.6026 50.2395 42.298 50.2395 43.0559V45.062C50.2395 45.3116 50.0191 45.4543 49.834 45.5345C49.2699 45.7842 48.2739 45.695 47.6834 45.1065C47.1193 44.5538 47.0312 43.6711 47.4631 42.5387L46.6522 42.2267C45.903 44.1971 46.6081 45.2581 47.0753 45.7307C47.6393 46.2835 48.4326 46.5331 49.1201 46.5331C49.5079 46.5331 49.8693 46.4529 50.1778 46.328C50.7683 46.0784 51.112 45.6058 51.112 45.0531V43.047C51.112 42.6992 51.4205 42.3693 51.8436 42.2713C52.0463 42.2267 52.205 42.2713 52.2667 42.3158C52.2843 42.3337 52.346 42.3783 52.346 42.5209V43.6889C52.346 44.4913 53.0335 45.169 53.8443 45.169H54.2322C55.043 45.169 55.6953 44.5092 55.6953 43.6889V41.5312H54.8227V43.6622V43.6711Z" fill="white"/>
<path id="Vector_66" d="M78.4263 45.0611H78.444C78.444 45.3108 78.2236 45.4534 78.0385 45.5337C77.4744 45.7833 76.4785 45.6942 75.8703 45.1057C75.3062 44.5529 75.2181 43.6702 75.65 42.5379L74.8391 42.2258C74.0899 44.1963 74.795 45.2573 75.2621 45.7298C75.8262 46.2826 76.6195 46.5323 77.307 46.5323C77.6948 46.5323 78.0562 46.452 78.3646 46.3272C78.9552 46.0776 79.2989 45.605 79.2989 45.0522V41.5215H78.4263V45.0522V45.0611Z" fill="white"/>
<path id="Vector_67" d="M128.428 43.6698C128.428 43.9997 128.163 44.2672 127.837 44.2672H127.511C126.656 44.2851 125.933 44.2048 125.343 44.0621L125.405 43.9997C125.59 43.8392 126.524 42.9922 126.374 42.1363C126.33 41.851 126.127 41.4765 125.546 41.2536L125.501 41.2358H125.457C124.691 41.1377 123.88 41.1377 123.104 41.2179H123.06L123.016 41.2358C122.531 41.423 122.346 41.7262 122.302 41.9758C122.143 42.7337 122.91 43.5985 123.254 43.9462C123.316 44.0087 123.351 44.0443 123.413 44.0889C122.928 44.2137 122.399 44.2494 121.791 44.2494H120.513C120.187 44.2494 119.922 43.9819 119.922 43.652V38.668H119.05V43.652C119.05 44.4723 119.702 45.1321 120.513 45.1321H121.791C122.804 45.1321 123.615 45.0518 124.409 44.6595C125.219 44.9894 126.251 45.1321 127.529 45.1321H127.837C128.648 45.1321 129.3 44.4723 129.3 43.652V38.668H128.428V43.6698ZM124.858 43.34C124.699 43.4826 124.532 43.6074 124.373 43.6877C124.171 43.5896 124.012 43.4648 123.862 43.3221C123.377 42.8317 123.113 42.3592 123.148 42.172C123.148 42.1541 123.21 42.1095 123.245 42.0917C123.933 42.0293 124.602 42.0293 125.29 42.1095C125.387 42.1541 125.493 42.2076 125.51 42.2968C125.554 42.5464 125.246 42.9922 124.84 43.34H124.858Z" fill="white"/>
</g>
<defs>
<clipPath id="clip0_729_1830">
<rect width="162" height="57" fill="white"/>
</clipPath>
</defs>
</svg>
