<svg width="81" height="108" viewBox="0 0 81 108" fill="none" xmlns="http://www.w3.org/2000/svg">
<g id="Layer_1-09" clip-path="url(#clip0_729_1917)">
<g id="Group">
<path id="Vector" d="M35.4205 74.1719H33.3799C33.2304 74.1719 33.0984 74.2948 33.0984 74.4529V80.107C33.0984 81.2133 32.1925 82.1176 31.0842 82.1176H20.1599V76.1298C20.1599 73.5222 18.0489 71.4238 15.4454 71.4238H11.6192C11.1443 71.4238 10.766 71.8014 10.766 72.2755V85.3485C10.766 85.928 10.2911 86.4021 9.71055 86.4021H5.6645C4.08127 86.1212 3.06976 84.9447 2.62118 83.3643V79.15C2.62118 78.9042 2.41887 78.7023 2.17259 78.7023H0.835639C0.60695 78.7023 0.404648 78.8779 0.387056 79.1061L0.263916 83.3555C0.263916 86.4548 2.5596 88.9834 5.6733 88.9834H9.71934C11.7336 88.9834 13.3696 87.3503 13.3696 85.3398V74.0051H15.4542C16.6328 74.0051 17.5739 74.9621 17.5739 76.121V84.6988H31.0754C33.6174 84.6988 35.6756 82.6444 35.6756 80.107V74.4529C35.6932 74.2773 35.57 74.1543 35.4205 74.1543V74.1719Z" fill="white"/>
<path id="Vector_2" d="M41.5422 69.3438H39.6072C39.4313 69.3438 39.2817 69.493 39.2817 69.6686V84.1377C39.2817 84.3133 39.4313 84.4625 39.6072 84.4625H41.5422C41.7182 84.4625 41.8677 84.3133 41.8677 84.1377V69.6686C41.8677 69.493 41.7182 69.3438 41.5422 69.3438Z" fill="white"/>
<path id="Vector_3" d="M35.4733 69.2207H33.5382C33.3623 69.2207 33.2128 69.37 33.2128 69.5456V71.7756C33.2128 71.9512 33.3623 72.1005 33.5382 72.1005H35.4733C35.6492 72.1005 35.7987 71.9512 35.7987 71.7756V69.5456C35.7987 69.37 35.6492 69.2207 35.4733 69.2207Z" fill="white"/>
<path id="Vector_4" d="M3.36876 74.4096H4.7321C5.03995 74.4096 5.30383 74.155 5.30383 73.839C5.30383 73.5229 5.04875 73.2683 4.7321 73.2683H3.36876C2.59474 73.2683 1.97904 72.6449 1.97904 71.8811V71.5299C1.97904 70.9329 2.4628 70.45 3.06091 70.45H4.41546C4.72331 70.45 4.98718 70.1953 4.98718 69.8793C4.98718 69.5632 4.7321 69.3086 4.41546 69.3086H3.06091C1.8471 69.3086 0.844385 70.3095 0.844385 71.5211V71.8723C0.844385 72.3815 1.00271 72.8556 1.26658 73.2595H0.580512C0.272661 73.2595 0.00878906 73.5141 0.00878906 73.8302C0.00878906 74.1462 0.263866 74.4009 0.580512 74.4009H3.37756L3.36876 74.4096Z" fill="white"/>
</g>
<g id="Group_2">
<path id="Vector_5" d="M11.5313 92.916H13.6511C13.9061 92.916 14.1084 93.1179 14.1084 93.3725V107.526C14.1084 107.78 13.9061 107.982 13.6511 107.982H11.8567C11.6104 107.982 11.4081 107.789 11.3993 107.534L11.0915 99.1145L8.37361 104.646C8.29444 104.804 8.12732 104.9 7.95141 104.9H6.58807C6.42975 104.9 6.26263 104.804 6.18347 104.672L3.10495 99.1233V107.526C3.10495 107.78 2.90265 107.982 2.64758 107.982H0.703717C0.44864 107.982 0.246338 107.78 0.246338 107.526V93.355C0.246338 93.1004 0.44864 92.8984 0.703717 92.8984H2.84988C3.02579 92.8984 3.17532 92.995 3.25448 93.1531L7.25655 100.993L11.0827 93.1706C11.1882 92.995 11.3554 92.8984 11.5313 92.8984V92.916Z" fill="white"/>
<path id="Vector_6" d="M45.4477 92.916H47.1541C47.4532 92.916 47.6818 93.197 47.6027 93.4955L43.8205 107.666C43.7677 107.868 43.5918 108 43.3719 108H41.7359C41.5336 108 41.3401 107.868 41.2873 107.666L38.587 98.14L35.8867 107.666C35.834 107.868 35.6581 108 35.4382 108H33.5735C33.3712 108 33.1777 107.868 33.1249 107.666L29.3427 93.4955C29.2636 93.197 29.4922 92.916 29.7913 92.916H31.8847C32.1046 92.916 32.2805 93.0653 32.3333 93.2672L34.6202 102.284L37.2677 93.2584C37.3205 93.0653 37.514 92.9336 37.7163 92.9336H39.3699C39.5722 92.9336 39.7481 93.0653 39.8009 93.2584L42.6507 102.337L45.0167 93.2848C45.0871 93.0565 45.263 92.9248 45.4653 92.9248L45.4477 92.916Z" fill="white"/>
<path id="Vector_7" d="M29.3602 107.385L23.9948 92.9333C23.9245 92.7577 23.7486 92.6348 23.5639 92.6348H22.1213C21.9278 92.6348 21.7607 92.7577 21.6904 92.9333L16.2458 107.385C16.1402 107.683 16.3513 108.008 16.6768 108.008H18.8141C19.0165 108.008 19.1924 107.885 19.2451 107.701L20.0192 105.357H22.9833C23.3088 105.357 23.5199 105.032 23.4143 104.733L22.8162 103.197C22.7458 103.021 22.5699 102.898 22.3852 102.898H20.8284L21.0043 102.372L22.9394 97.2266L24.6193 102.372L25.3318 104.54L26.3609 107.683C26.4313 107.876 26.6072 107.991 26.7919 107.991H28.9381C29.2635 108.008 29.4922 107.683 29.369 107.385H29.3602Z" fill="white"/>
<path id="Vector_8" d="M61.2008 107.385L55.8354 92.9333C55.7651 92.7577 55.5891 92.6348 55.4044 92.6348H53.9619C53.7684 92.6348 53.6013 92.7577 53.5309 92.9333L48.0864 107.385C47.9808 107.683 48.1919 108.008 48.5174 108.008H50.6547C50.857 108.008 51.0329 107.885 51.0857 107.701L51.8597 105.357H54.8239C55.1494 105.357 55.3604 105.032 55.2549 104.733L54.6568 103.197C54.5864 103.021 54.4105 102.898 54.2258 102.898H52.669L52.8449 102.372L54.7799 97.2266L56.4599 102.372L57.1724 104.54L58.2015 107.683C58.2718 107.876 58.4478 107.991 58.6325 107.991H60.7786C61.1041 108.008 61.3152 107.683 61.2096 107.385H61.2008Z" fill="white"/>
<path id="Vector_9" d="M72.5561 92.915H74.4472C74.7023 92.915 74.9046 93.117 74.9046 93.3716V107.525C74.9046 107.779 74.7023 107.981 74.4472 107.981H72.6353C72.4858 107.981 72.3363 107.902 72.2571 107.779L66.2936 98.815V107.516C66.2936 107.77 66.0913 107.972 65.8362 107.972H63.6988C63.4438 107.972 63.2415 107.77 63.2415 107.516V93.3628C63.2415 93.1082 63.4438 92.9062 63.6988 92.9062H65.7131C65.8626 92.9062 66.0121 92.9853 66.0913 93.1082L72.0812 102.151V93.3628C72.0988 93.1082 72.3011 92.9062 72.5561 92.9062V92.915Z" fill="white"/>
<path id="Vector_10" d="M78.5021 92.916H80.5339C80.7889 92.916 80.9913 93.1179 80.9913 93.3726V107.526C80.9913 107.78 80.7889 107.982 80.5339 107.982H78.5021C78.247 107.982 78.0447 107.78 78.0447 107.526V93.3726C78.0447 93.1179 78.247 92.916 78.5021 92.916Z" fill="white"/>
</g>
<path id="Vector_11" d="M75.8809 71.4238C72.9607 71.3711 70.5858 73.8295 70.5858 76.7268V79.4836C70.5858 80.9235 69.4072 82.1 67.9647 82.1H55.5715V72.4949L55.5891 72.2491C53.1263 71.5379 50.9273 71.4677 50.0829 71.4677H49.7311C48.3502 71.5379 47.0572 72.2228 46.2744 73.3817C45.7906 74.0929 45.5004 74.9621 45.5004 75.8927V79.9138C45.5004 82.5566 47.6465 84.7076 50.3028 84.7076C50.4348 84.7076 50.5579 84.6023 50.5579 84.453V82.3722C50.5579 82.2405 50.4524 82.1176 50.3028 82.1176C49.089 82.1176 48.0951 81.1342 48.0951 79.9138V75.8927C48.0951 74.8391 48.9483 73.9875 50.0038 73.9875H52.9943V85.6031C52.9943 86.086 52.5985 86.4811 52.1148 86.4811H46.3975C46.1513 86.4811 45.949 86.6831 45.949 86.9289V88.1054C45.949 88.3337 46.1249 88.5268 46.3536 88.5356L52.1148 89.0711C54.0322 89.0711 55.5891 87.5171 55.5891 85.6031V84.6813H67.9559C70.8321 84.6813 73.1718 82.3458 73.1718 79.4749V76.6127C73.1718 75.1289 74.412 73.926 75.9336 73.9963C77.341 74.0665 78.4228 75.2781 78.4228 76.6917V81.9683H75.3443C75.142 81.9683 74.9485 82.0912 74.8694 82.2756L74.2361 83.856C74.1041 84.1896 74.3416 84.5408 74.711 84.5408H80.2699C80.6921 84.5408 81.0264 84.2072 81.0264 83.7857V76.6039C81.0264 73.768 78.7395 71.4589 75.9073 71.4062L75.8809 71.4238Z" fill="white"/>
<path id="Vector_12" d="M43.6533 11.2557L41.041 0.272173C40.997 0.114137 40.8475 0 40.6891 0C40.5308 0 40.3813 0.105357 40.3373 0.272173L37.725 11.2557C37.725 11.2557 37.4259 12.5551 38.5782 12.318C39.7304 12.0985 39.2291 11.9405 40.6891 11.9405C42.1492 11.9405 41.6391 12.0985 42.8001 12.318C43.9524 12.5463 43.6533 11.2557 43.6533 11.2557Z" fill="white"/>
<path id="Vector_13" d="M53.4781 4.88077L47.541 14.4858C47.4618 14.6175 47.4706 14.8107 47.5938 14.9336C47.7169 15.0565 47.8928 15.0653 48.0423 14.9863L57.6649 9.05994C57.6649 9.05994 58.7995 8.35756 57.8232 7.69908C56.8469 7.0406 57.0932 7.50592 56.0641 6.48747C55.035 5.46902 55.5099 5.70607 54.8503 4.73151C54.173 3.74818 53.4693 4.88077 53.4693 4.88077H53.4781Z" fill="white"/>
<path id="Vector_14" d="M51.1649 24.7317L62.1684 22.1241C62.3267 22.0802 62.441 21.931 62.441 21.7729C62.441 21.6149 62.3355 21.4656 62.1684 21.4217L51.1649 18.8142C51.1649 18.8142 49.8631 18.5156 50.1006 19.6658C50.3381 20.8159 50.4788 20.3155 50.4788 21.7729C50.4788 23.2304 50.3205 22.7212 50.1006 23.8801C49.8719 25.0302 51.1649 24.7317 51.1649 24.7317Z" fill="white"/>
<path id="Vector_15" d="M57.6297 34.4873L48.0072 28.5609C47.8753 28.4819 47.6818 28.4907 47.5586 28.6136C47.4355 28.7365 47.4267 28.9121 47.5058 29.0614L53.443 38.6664C53.443 38.6664 54.1466 39.799 54.8063 38.8245C55.466 37.8499 54.9998 38.0958 56.0201 37.0685C57.0404 36.0413 56.8029 36.5154 57.7793 35.8569C58.7644 35.1809 57.6297 34.4785 57.6297 34.4785V34.4873Z" fill="white"/>
<path id="Vector_16" d="M27.9265 38.6489L33.8636 29.0438C33.9428 28.9121 33.934 28.7189 33.8109 28.596C33.6877 28.4731 33.5118 28.4643 33.3623 28.5433L23.7397 34.4697C23.7397 34.4697 22.6051 35.1721 23.5814 35.8306C24.5578 36.489 24.3115 36.0237 25.3406 37.0422C26.3697 38.0606 25.8947 37.8236 26.5544 38.7981C27.2317 39.7814 27.9353 38.6489 27.9353 38.6489H27.9265Z" fill="white"/>
<path id="Vector_17" d="M30.143 18.7536L19.1395 21.3612C18.9812 21.4051 18.8668 21.5544 18.8668 21.7124C18.8668 21.8704 18.9724 22.0197 19.1395 22.0636L30.143 24.6712C30.143 24.6712 31.4447 24.9697 31.2072 23.8195C30.9874 22.6694 30.829 23.1698 30.829 21.7124C30.829 20.2549 30.9874 20.7642 31.2072 19.6052C31.4359 18.4551 30.143 18.7536 30.143 18.7536Z" fill="white"/>
<path id="Vector_18" d="M23.766 9.07856L33.3886 15.0049C33.5205 15.0839 33.714 15.0751 33.8372 14.9522C33.9603 14.8293 33.9691 14.6537 33.8899 14.5045L27.9528 4.89938C27.9528 4.89938 27.2492 3.76679 26.5895 4.74135C25.9298 5.7159 26.396 5.47007 25.3757 6.4973C24.3466 7.52454 24.5928 7.05043 23.6165 7.70891C22.6314 8.38495 23.766 9.08734 23.766 9.08734V9.07856Z" fill="white"/>
<path id="Vector_19" d="M62.8632 46.2167C62.6873 46.1377 62.485 46.1464 62.3267 46.243L57.0405 49.6583C56.7326 49.8603 56.7062 50.3168 56.9877 50.5451L57.7881 51.1948C53.4254 55.2159 46.0546 56.6295 44.8408 56.6734C43.6269 56.7173 43.5038 55.374 43.5038 55.374L42.5539 27.7352L42.5363 27.7177C45.0519 26.9363 46.8902 24.5833 46.8902 21.8177C46.8902 18.4023 44.1195 15.6367 40.698 15.6367C37.2764 15.6367 34.5058 18.4023 34.5058 21.8177C34.5058 24.6096 36.3617 26.9626 38.8948 27.7265L37.9449 55.3652C37.9449 55.3652 37.8218 56.6997 36.6079 56.6646C35.3941 56.6207 28.0233 55.2072 23.6606 51.2124L24.5138 50.5275C24.7865 50.308 24.7601 49.9042 24.4698 49.7198L19.1308 46.2694C18.9725 46.164 18.7702 46.1464 18.5943 46.243C18.3656 46.3484 18.2424 46.603 18.2952 46.8488L19.5794 53.2142C19.6585 53.5917 20.1071 53.7409 20.4062 53.4951L21.4177 52.6435C21.4177 52.6435 27.8826 62.0993 40.6364 62.0993H40.8387C53.6013 62.0993 60.0574 52.6435 60.0574 52.6435L61.0073 53.4424C61.3328 53.7146 61.8341 53.539 61.9133 53.1351L63.1799 46.8488C63.2063 46.5766 63.0831 46.3396 62.8544 46.2167H62.8632ZM37.5843 21.8352C37.5843 20.1232 38.974 18.736 40.6892 18.736C42.4043 18.736 43.7941 20.1232 43.7941 21.8352C43.7941 23.5473 42.4043 24.9345 40.6892 24.9345C38.974 24.9345 37.5843 23.5473 37.5843 21.8352Z" fill="white"/>
</g>
<defs>
<clipPath id="clip0_729_1917">
<rect width="81" height="108" fill="white"/>
</clipPath>
</defs>
</svg>
