<svg width="118" height="63" viewBox="0 0 118 63" fill="none" xmlns="http://www.w3.org/2000/svg">
<g id="Layer_1n" clip-path="url(#clip0_729_5612)">
<g id="&#217;&#136;&#216;&#178;&#216;&#167;&#216;&#177;&#216;&#169; &#216;&#167;&#217;&#132;&#216;&#168;&#217;&#138;&#216;&#166;&#216;&#169; &#217;&#136;&#216;&#167;&#217;&#132;&#217;&#133;&#217;&#138;&#216;&#167;&#217;&#135; &#217;&#136;&#216;&#167;&#217;&#132;&#216;&#178;&#216;&#177;&#216;&#167;&#216;&#185;&#216;&#169; - &#216;&#183;&#217;&#136;&#217;&#132;&#217;&#138;">
<g id="Group">
<path id="Vector" d="M3.63001 57.0508L2.40001 60.2108H2.38001L1.16001 57.0508H0.26001V61.1708H0.81001V57.7308H0.83001L2.19001 61.1708H2.57001L3.92001 57.7308H3.94001V61.1708H4.52001V57.0508H3.63001Z" fill="white"/>
<path id="Vector_2" d="M6.05 58.4102H5.5V61.1802H6.05V58.4102Z" fill="white"/>
<g id="Group_2">
<path id="Vector_3" d="M5.75998 57.0508C5.65998 57.0508 5.57998 57.0808 5.50998 57.1508C5.37998 57.2808 5.37998 57.5108 5.50998 57.6508C5.57998 57.7208 5.67998 57.7508 5.75998 57.7508C5.85998 57.7508 5.93998 57.7208 6.00998 57.6508C6.07998 57.5808 6.12998 57.5008 6.12998 57.4008C6.12998 57.3008 6.09998 57.2208 6.00998 57.1508C5.93998 57.0808 5.85998 57.0508 5.75998 57.0508Z" fill="white"/>
<path id="Vector_4" d="M9.20997 58.6598C9.12997 58.5598 9.00997 58.4798 8.89997 58.4098C8.66997 58.3098 8.39997 58.2898 8.14997 58.3598C8.04997 58.3898 7.96997 58.4298 7.88997 58.4798C7.80997 58.5298 7.73997 58.5798 7.66997 58.6498C7.61997 58.7198 7.56997 58.7798 7.51997 58.8498H7.49997V58.6298C7.49997 58.5498 7.47997 58.4598 7.47997 58.3998H6.96997C6.98997 58.4998 6.98997 58.5998 6.98997 58.7098V61.1598H7.53997V59.6898C7.51997 59.4598 7.60997 59.2098 7.73997 59.0298C7.86997 58.8598 8.06997 58.7798 8.26997 58.7798C8.38997 58.7798 8.48997 58.7998 8.57997 58.8498C8.65997 58.8998 8.72997 58.9698 8.77997 59.0298C8.82997 59.1098 8.85997 59.2098 8.87997 59.2898C8.89997 59.3898 8.90997 59.5098 8.90997 59.5998V61.1198H9.45997V59.3998C9.45997 59.2498 9.43997 59.0998 9.38997 58.9698C9.35997 58.8898 9.28997 58.7698 9.20997 58.6598Z" fill="white"/>
<path id="Vector_5" d="M10.93 58.4102H10.38V61.1802H10.93V58.4102Z" fill="white"/>
<path id="Vector_6" d="M10.67 57.0508C10.57 57.0508 10.49 57.0808 10.42 57.1508C10.29 57.2808 10.29 57.5108 10.42 57.6508C10.49 57.7208 10.59 57.7508 10.67 57.7508C10.77 57.7508 10.85 57.7208 10.92 57.6508C10.99 57.5808 11.04 57.5008 11.04 57.4008C11.04 57.3008 11.01 57.2208 10.92 57.1508C10.85 57.1008 10.77 57.0508 10.67 57.0508Z" fill="white"/>
<path id="Vector_7" d="M13.53 59.8205C13.45 59.7505 13.35 59.7005 13.23 59.6505C13.11 59.6005 12.98 59.5705 12.87 59.5305C12.7 59.5005 12.56 59.4505 12.41 59.3805C12.31 59.3305 12.24 59.2305 12.26 59.1205C12.26 59.0505 12.28 59.0005 12.31 58.9505C12.34 58.9005 12.38 58.8705 12.43 58.8305C12.48 58.7905 12.53 58.7805 12.6 58.7605C12.67 58.7405 12.72 58.7405 12.78 58.7405C12.91 58.7405 13.04 58.7705 13.16 58.8405C13.26 58.9105 13.36 58.9905 13.42 59.0905L13.8 58.7805C13.7 58.6305 13.55 58.5205 13.37 58.4305C13.19 58.3405 12.99 58.3105 12.79 58.3105C12.66 58.3105 12.53 58.3305 12.41 58.3605C12.29 58.3905 12.18 58.4405 12.08 58.5105C11.98 58.5805 11.9 58.6805 11.85 58.7705C11.78 58.8905 11.75 59.0205 11.75 59.1505C11.75 59.2705 11.77 59.3705 11.82 59.4605C11.87 59.5405 11.94 59.6305 12 59.6805C12.08 59.7505 12.17 59.7805 12.26 59.8105C12.35 59.8405 12.44 59.8805 12.54 59.8905C12.72 59.9205 12.9 59.9905 13.09 60.0605C13.21 60.1105 13.27 60.2305 13.27 60.3405C13.27 60.4105 13.25 60.4705 13.22 60.5405C13.19 60.5905 13.15 60.6405 13.09 60.6605C13.04 60.6905 12.97 60.7105 12.92 60.7305C12.85 60.7505 12.79 60.7505 12.72 60.7505C12.57 60.7505 12.42 60.7205 12.29 60.6305C12.17 60.5605 12.06 60.4605 11.99 60.3505L11.59 60.6805C11.72 60.8505 11.89 60.9805 12.09 61.0605C12.29 61.1405 12.49 61.1805 12.7 61.1805C12.83 61.1805 12.98 61.1605 13.11 61.1305C13.24 61.1005 13.36 61.0505 13.46 60.9805C13.56 60.9105 13.64 60.8105 13.71 60.7005C13.78 60.5705 13.81 60.4405 13.81 60.2905C13.81 60.1705 13.79 60.0705 13.74 59.9805C13.66 59.9505 13.59 59.8605 13.52 59.8105" fill="white"/>
<path id="Vector_8" d="M15.1 57.6094H14.55V58.3994H14.02V58.8494H14.55V60.3394C14.53 60.5694 14.62 60.7994 14.77 60.9894C14.94 61.1394 15.15 61.2194 15.37 61.2094C15.45 61.2094 15.54 61.2094 15.62 61.1894C15.69 61.1694 15.77 61.1594 15.84 61.1394L15.82 60.6894C15.82 60.6894 15.72 60.7194 15.67 60.7394C15.62 60.7594 15.57 60.7594 15.5 60.7594C15.38 60.7794 15.28 60.7294 15.2 60.6394C15.13 60.5394 15.1 60.4094 15.12 60.2794V58.8394H15.85V58.3894H15.12L15.1 57.6094Z" fill="white"/>
<path id="Vector_9" d="M17.27 58.4804C17.12 58.5804 17.01 58.7104 16.94 58.8804H16.92V58.6504C16.92 58.5704 16.9 58.4804 16.9 58.4004H16.39C16.41 58.5004 16.41 58.6004 16.41 58.7104V61.1604H16.96V59.7204C16.96 59.6004 16.98 59.4904 17.01 59.3904C17.04 59.2904 17.09 59.1904 17.16 59.1104C17.23 59.0304 17.31 58.9604 17.41 58.9104C17.51 58.8604 17.64 58.8304 17.76 58.8404C17.84 58.8404 17.93 58.8604 18.01 58.8704L18.03 58.3704C17.96 58.3504 17.88 58.3404 17.81 58.3504C17.61 58.3204 17.43 58.3704 17.28 58.4704" fill="white"/>
<path id="Vector_10" d="M19.5599 60.5802L18.6799 58.4102H18.0699L19.2499 61.1802L19.0699 61.6402C19.0199 61.7602 18.9699 61.8702 18.8699 61.9902C18.7899 62.0702 18.6699 62.1202 18.5599 62.1102C18.4599 62.1102 18.3799 62.0902 18.2799 62.0602L18.2299 62.5402C18.2999 62.5602 18.3499 62.5702 18.4099 62.5702H18.5899C18.7099 62.5702 18.8199 62.5502 18.9399 62.5202C19.0399 62.4902 19.1199 62.4402 19.1999 62.3702C19.2799 62.3002 19.3299 62.2202 19.3999 62.1402C19.4499 62.0402 19.5199 61.9402 19.5499 61.8302L20.8899 58.4202H20.3399L19.5599 60.5902V60.5802Z" fill="white"/>
<path id="Vector_11" d="M25.27 58.7406C25.14 58.6106 24.97 58.5106 24.79 58.4406C24.41 58.2906 24 58.2906 23.61 58.4406C23.43 58.5106 23.28 58.6106 23.15 58.7406C23.02 58.8706 22.92 59.0206 22.84 59.2006C22.76 59.3806 22.72 59.5806 22.72 59.7806C22.72 59.9806 22.75 60.1806 22.84 60.3606C22.91 60.5306 23.02 60.6906 23.15 60.8206C23.28 60.9506 23.45 61.0506 23.61 61.1206C23.79 61.1906 23.99 61.2406 24.19 61.2406C24.39 61.2406 24.59 61.2106 24.77 61.1206C24.95 61.0506 25.1 60.9506 25.25 60.8206C25.38 60.6906 25.5 60.5406 25.56 60.3606C25.71 59.9806 25.71 59.5706 25.56 59.1806C25.49 59.0106 25.39 58.8706 25.26 58.7306M25.04 60.1506C24.96 60.3806 24.79 60.5806 24.58 60.7006C24.45 60.7506 24.32 60.7806 24.18 60.7806C24.04 60.7806 23.92 60.7506 23.78 60.7006C23.66 60.6506 23.56 60.5706 23.5 60.4806C23.42 60.3806 23.37 60.2806 23.32 60.1706C23.29 60.0506 23.25 59.9206 23.25 59.7906C23.25 59.6606 23.27 59.5406 23.32 59.4106C23.35 59.2906 23.42 59.1806 23.5 59.1006C23.58 59.0006 23.68 58.9306 23.78 58.8806C23.9 58.8306 24.04 58.8006 24.18 58.8006C24.32 58.8006 24.44 58.8306 24.58 58.8806C24.7 58.9306 24.8 59.0006 24.86 59.1006C24.94 59.2006 24.99 59.3006 25.04 59.4106C25.07 59.5306 25.11 59.6606 25.11 59.7906C25.11 59.9106 25.09 60.0406 25.04 60.1506Z" fill="white"/>
<path id="Vector_12" d="M27.11 56.7902C26.98 56.8402 26.88 56.9202 26.8 57.0202C26.72 57.1202 26.65 57.2502 26.62 57.3802C26.59 57.5302 26.57 57.6802 26.57 57.8302V58.4102H26.02V58.8602H26.57V61.1802H27.12V58.8602H27.77V58.4102H27.12V57.8302C27.12 57.7502 27.12 57.6602 27.14 57.5802C27.16 57.5002 27.17 57.4302 27.21 57.3602C27.25 57.2902 27.29 57.2402 27.36 57.2102C27.44 57.1802 27.53 57.1402 27.61 57.1602C27.66 57.1602 27.71 57.1602 27.76 57.1802C27.81 57.1802 27.84 57.2002 27.89 57.2102L27.96 56.7502C27.84 56.7202 27.73 56.7202 27.61 56.7202C27.44 56.7002 27.28 56.7202 27.13 56.7902" fill="white"/>
<path id="Vector_13" d="M30.45 59.2908H32.39V58.7908H30.45V57.5508H32.52V57.0508H29.88V61.1708H32.61V60.6608H30.45V59.2908Z" fill="white"/>
<path id="Vector_14" d="M35.5599 58.6598C35.4799 58.5598 35.3599 58.4798 35.2499 58.4098C35.0199 58.3098 34.7499 58.2898 34.4999 58.3598C34.3999 58.3898 34.3199 58.4298 34.2399 58.4798C34.1599 58.5298 34.0899 58.5798 34.0199 58.6498C33.9699 58.7198 33.9199 58.7798 33.8699 58.8498H33.8499V58.6298C33.8499 58.5498 33.8299 58.4598 33.8299 58.3998H33.3199C33.3399 58.4998 33.3399 58.5998 33.3399 58.7098V61.1598H33.8899V59.6898C33.8699 59.4598 33.9599 59.2098 34.0899 59.0298C34.2199 58.8598 34.4199 58.7798 34.6199 58.7798C34.7399 58.7798 34.8399 58.7998 34.9299 58.8498C35.0099 58.8998 35.0799 58.9698 35.1299 59.0298C35.1799 59.1098 35.2099 59.2098 35.2299 59.2898C35.2499 59.3898 35.2599 59.5098 35.2599 59.5998V61.1198H35.8099V59.3998C35.8099 59.2498 35.7899 59.0998 35.7399 58.9698C35.7099 58.8898 35.6599 58.7698 35.5599 58.6598Z" fill="white"/>
<path id="Vector_15" d="M37.7399 60.5802L36.9299 58.4102H36.3199L37.4399 61.1702H38.0399L39.1499 58.4102H38.5699L37.7399 60.5802Z" fill="white"/>
<path id="Vector_16" d="M39.9599 57.0508C39.8599 57.0508 39.7799 57.0808 39.7099 57.1508C39.5799 57.2808 39.5799 57.5108 39.7099 57.6508C39.7799 57.7208 39.8799 57.7508 39.9599 57.7508C40.0599 57.7508 40.1399 57.7208 40.2199 57.6508C40.2899 57.5808 40.3399 57.5008 40.3399 57.4008C40.3399 57.3008 40.3099 57.2208 40.2199 57.1508C40.1399 57.1008 40.0399 57.0508 39.9599 57.0508Z" fill="white"/>
<path id="Vector_17" d="M40.2299 58.4102H39.6799V61.1802H40.2299V58.4102Z" fill="white"/>
<path id="Vector_18" d="M42.06 58.4804C41.91 58.5804 41.8 58.7104 41.71 58.8804H41.69V58.6504C41.69 58.5704 41.69 58.4804 41.67 58.4004H41.16C41.18 58.5004 41.18 58.6004 41.18 58.7104V61.1604H41.73V59.7204C41.73 59.6004 41.75 59.4904 41.78 59.3904C41.81 59.2904 41.86 59.1904 41.93 59.1104C42 59.0304 42.08 58.9604 42.18 58.9104C42.28 58.8604 42.41 58.8304 42.53 58.8404C42.61 58.8404 42.7 58.8604 42.78 58.8704L42.8 58.3704C42.73 58.3504 42.65 58.3404 42.58 58.3504C42.4 58.3204 42.22 58.3704 42.07 58.4704" fill="white"/>
<path id="Vector_19" d="M45.56 58.7406C45.43 58.6106 45.26 58.5106 45.08 58.4406C44.7 58.2906 44.29 58.2906 43.9 58.4406C43.72 58.5106 43.57 58.6106 43.44 58.7406C43.31 58.8706 43.21 59.0206 43.13 59.2006C43.05 59.3806 43.01 59.5806 43.01 59.7806C43.01 59.9806 43.04 60.1806 43.13 60.3606C43.2 60.5306 43.31 60.6906 43.44 60.8206C43.57 60.9506 43.74 61.0506 43.9 61.1206C44.08 61.1906 44.28 61.2406 44.48 61.2406C44.68 61.2406 44.88 61.2106 45.06 61.1206C45.24 61.0506 45.39 60.9506 45.54 60.8206C45.67 60.6906 45.79 60.5406 45.85 60.3606C46 59.9806 46 59.5706 45.85 59.1806C45.78 59.0106 45.68 58.8706 45.55 58.7306M45.35 60.1506C45.27 60.3806 45.1 60.5806 44.89 60.7006C44.76 60.7506 44.63 60.7806 44.49 60.7806C44.35 60.7806 44.23 60.7506 44.09 60.7006C43.97 60.6506 43.87 60.5706 43.81 60.4806C43.73 60.3806 43.68 60.2806 43.63 60.1706C43.6 60.0506 43.56 59.9206 43.56 59.7906C43.56 59.6606 43.58 59.5406 43.63 59.4106C43.66 59.2906 43.73 59.1806 43.81 59.1006C43.89 59.0006 43.99 58.9306 44.09 58.8806C44.22 58.8306 44.35 58.8006 44.49 58.8006C44.63 58.8006 44.75 58.8306 44.89 58.8806C45.01 58.9306 45.11 59.0006 45.17 59.1006C45.25 59.2006 45.3 59.3006 45.35 59.4106C45.43 59.6406 45.43 59.9106 45.35 60.1606" fill="white"/>
<path id="Vector_20" d="M48.95 58.6598C48.87 58.5598 48.75 58.4798 48.64 58.4098C48.41 58.3098 48.14 58.2898 47.89 58.3598C47.81 58.3898 47.71 58.4298 47.63 58.4798C47.55 58.5298 47.48 58.5798 47.41 58.6498C47.36 58.7198 47.31 58.7798 47.26 58.8498H47.24V58.6298C47.24 58.5498 47.22 58.4598 47.22 58.3998H46.71C46.73 58.4998 46.73 58.5998 46.73 58.7098V61.1598H47.28V59.6898C47.26 59.4598 47.35 59.2098 47.48 59.0298C47.61 58.8598 47.81 58.7798 48.01 58.7798C48.13 58.7798 48.23 58.7998 48.32 58.8498C48.4 58.8998 48.47 58.9698 48.52 59.0298C48.57 59.1098 48.6 59.2098 48.62 59.2898C48.64 59.3898 48.65 59.5098 48.65 59.5998V61.1198H49.2V59.3998C49.2 59.2498 49.18 59.0998 49.13 58.9698C49.1 58.8898 49.03 58.7698 48.95 58.6598Z" fill="white"/>
<path id="Vector_21" d="M54.12 58.6605C54.04 58.5605 53.92 58.4805 53.81 58.4105C53.66 58.3405 53.51 58.3105 53.35 58.3105C53.15 58.3105 52.97 58.3605 52.8 58.4605C52.63 58.5605 52.5 58.6905 52.4 58.8705C52.33 58.6905 52.2 58.5405 52.05 58.4405C51.9 58.3605 51.72 58.3105 51.54 58.3105C51.18 58.3105 50.83 58.5105 50.66 58.8405H50.64V58.6205C50.64 58.5405 50.62 58.4505 50.62 58.3905H50.11C50.11 58.4905 50.13 58.5905 50.13 58.7005V61.1505H50.68V59.6805C50.66 59.4505 50.75 59.2205 50.88 59.0205C51 58.8505 51.19 58.7705 51.38 58.7705C51.48 58.7705 51.56 58.7905 51.66 58.8205C51.73 58.8505 51.79 58.9005 51.84 58.9705C51.89 59.0405 51.92 59.1205 51.94 59.2005C51.96 59.3005 51.97 59.4005 51.97 59.5005V61.1405H52.52V59.6505C52.52 59.5305 52.54 59.4305 52.55 59.3405C52.57 59.2405 52.62 59.1405 52.67 59.0605C52.72 58.9805 52.8 58.9105 52.89 58.8605C52.99 58.8105 53.11 58.7805 53.2 58.7805C53.4 58.7605 53.58 58.8605 53.68 59.0305C53.73 59.1105 53.76 59.2105 53.78 59.2905C53.8 59.3905 53.81 59.5105 53.81 59.6005V61.1205H54.36V59.4005C54.36 59.2505 54.34 59.1005 54.29 58.9705C54.27 58.8905 54.21 58.7705 54.12 58.6605Z" fill="white"/>
<path id="Vector_22" d="M57.5099 58.7198C57.3899 58.5898 57.2499 58.4898 57.0999 58.4398C56.9199 58.3698 56.7399 58.3398 56.5499 58.3398C56.3499 58.3398 56.1699 58.3698 55.9899 58.4598C55.8199 58.5298 55.6599 58.6298 55.5299 58.7598C55.3999 58.8898 55.2999 59.0398 55.2299 59.2198C55.0799 59.5998 55.0799 60.0298 55.2299 60.4098C55.2999 60.5798 55.3999 60.7398 55.5299 60.8698C55.6599 60.9998 55.8099 61.0998 55.9899 61.1698C56.3899 61.3198 56.8499 61.2998 57.2299 61.1398C57.4499 61.0398 57.6099 60.8898 57.7599 60.7098L57.3799 60.3998C57.2999 60.5198 57.1799 60.6298 57.0699 60.6998C56.9199 60.7798 56.7599 60.8298 56.5899 60.8198C56.3599 60.8198 56.1399 60.7398 55.9599 60.5698C55.7899 60.4198 55.6999 60.2098 55.6799 59.9698H57.8799V59.7698C57.8799 59.5698 57.8499 59.3698 57.7999 59.1698C57.7299 58.9998 57.6299 58.8398 57.5199 58.7198M55.6799 59.5498C55.6999 59.3298 55.7999 59.1398 55.9399 58.9998C56.0199 58.9298 56.1099 58.8698 56.1999 58.8298C56.2899 58.7898 56.4199 58.7598 56.5299 58.7598C56.6399 58.7598 56.7599 58.7798 56.8599 58.8298C56.9399 58.8598 57.0299 58.9298 57.0899 58.9998C57.1499 59.0698 57.2099 59.1498 57.2399 59.2498C57.2699 59.3498 57.2899 59.4498 57.2899 59.5498H55.6699H55.6799Z" fill="white"/>
<path id="Vector_23" d="M60.84 58.6598C60.76 58.5598 60.64 58.4798 60.53 58.4098C60.3 58.3098 60.03 58.2898 59.77 58.3598C59.69 58.3898 59.59 58.4298 59.52 58.4798C59.44 58.5298 59.37 58.5798 59.3 58.6498C59.25 58.7198 59.2 58.7798 59.15 58.8498H59.13V58.6298C59.13 58.5498 59.11 58.4598 59.11 58.3998H58.6C58.62 58.4998 58.62 58.5998 58.62 58.7098V61.1598H59.17V59.6898C59.15 59.4598 59.24 59.2098 59.37 59.0298C59.5 58.8598 59.7 58.7798 59.9 58.7798C60.02 58.7798 60.12 58.7998 60.21 58.8498C60.29 58.8998 60.36 58.9698 60.41 59.0298C60.46 59.1098 60.49 59.2098 60.51 59.2898C60.53 59.3898 60.54 59.5098 60.54 59.5998V61.1198H61.09V59.3998C61.09 59.2498 61.07 59.0998 61.02 58.9698C60.99 58.8898 60.92 58.7698 60.84 58.6598Z" fill="white"/>
<path id="Vector_24" d="M62.6299 57.6094H62.0799V58.3994H61.5699V58.8494H62.0999V60.3394C62.0799 60.5694 62.1499 60.7994 62.3199 60.9894C62.4899 61.1394 62.6999 61.2194 62.9199 61.2094C62.9999 61.2094 63.0899 61.2094 63.1699 61.1894C63.2399 61.1694 63.3199 61.1594 63.3899 61.1394L63.3699 60.6894C63.3699 60.6894 63.2699 60.7194 63.2199 60.7394C63.1699 60.7594 63.1199 60.7594 63.0499 60.7594C62.9299 60.7794 62.8299 60.7294 62.7499 60.6394C62.6799 60.5394 62.6499 60.4094 62.6499 60.2794V58.8394H63.3799V58.3894H62.6499L62.6299 57.6094Z" fill="white"/>
<path id="Vector_25" d="M69.0199 60.3308H69.0099L68.0599 57.0508H67.4199L66.4599 60.3308H66.4399L65.5299 57.0508H64.9199L66.1299 61.1708H66.7199L67.7199 57.8608H67.7299L68.7399 61.1708H69.3399L70.5499 57.0508H69.9399L69.0199 60.3308Z" fill="white"/>
<path id="Vector_26" d="M73.11 60.6301V59.4201C73.11 59.2701 73.09 59.1401 73.04 58.9901C72.96 58.7301 72.74 58.5101 72.48 58.4101C72.31 58.3401 72.15 58.3301 71.97 58.3301C71.75 58.3301 71.54 58.3601 71.34 58.4501C71.16 58.5201 70.99 58.6201 70.84 58.7501L71.14 59.1001C71.24 59.0001 71.36 58.9201 71.49 58.8701C71.62 58.8001 71.77 58.7701 71.94 58.7701C72.12 58.7501 72.29 58.8201 72.44 58.9201C72.57 59.0401 72.64 59.2001 72.62 59.3801V59.4501C72.39 59.4501 72.16 59.4501 71.92 59.4801C71.7 59.5001 71.51 59.5301 71.31 59.6101C71.14 59.6601 71 59.7601 70.86 59.8901C70.74 60.0201 70.68 60.2001 70.69 60.3901C70.69 60.5201 70.72 60.6701 70.79 60.7901C70.86 60.8901 70.94 60.9901 71.04 61.0501C71.14 61.1201 71.26 61.1701 71.35 61.2001C71.47 61.2301 71.58 61.2501 71.68 61.2501C71.86 61.2501 72.06 61.2201 72.23 61.1301C72.38 61.0501 72.51 60.9301 72.61 60.7801H72.63C72.63 60.9101 72.65 61.0401 72.68 61.1801H73.18C73.16 61.1001 73.15 61.0101 73.15 60.9301C73.12 60.8101 73.12 60.7101 73.12 60.6301M72.59 60.0001C72.59 60.2201 72.52 60.4101 72.37 60.5801C72.22 60.7501 72.01 60.8301 71.77 60.8101C71.7 60.8101 71.64 60.8101 71.57 60.7901C71.5 60.7701 71.44 60.7601 71.39 60.7201C71.34 60.6801 71.29 60.6401 71.26 60.5901C71.23 60.5201 71.21 60.4601 71.21 60.3901C71.21 60.2901 71.24 60.1701 71.33 60.1101C71.42 60.0501 71.51 59.9801 71.63 59.9601C71.76 59.9301 71.89 59.8901 72.03 59.8901C72.18 59.8701 72.31 59.8701 72.44 59.8701H72.57V59.9901H72.59V60.0001Z" fill="white"/>
<path id="Vector_27" d="M74.59 57.6094H74.04V58.3994H73.51V58.8494H74.04V60.3394C74.02 60.5694 74.09 60.7994 74.26 60.9894C74.43 61.1394 74.64 61.2194 74.86 61.2094C74.94 61.2094 75.03 61.2094 75.11 61.1894C75.18 61.1694 75.26 61.1594 75.33 61.1394L75.31 60.6894C75.31 60.6894 75.21 60.7194 75.16 60.7394C75.11 60.7594 75.06 60.7594 74.99 60.7594C74.87 60.7794 74.77 60.7294 74.69 60.6394C74.62 60.5394 74.59 60.4094 74.61 60.2794V58.8394H75.34V58.3894H74.61L74.59 57.6094Z" fill="white"/>
<path id="Vector_28" d="M78.1 58.7198C77.98 58.5898 77.84 58.4898 77.67 58.4398C77.49 58.3698 77.31 58.3398 77.12 58.3398C76.92 58.3398 76.74 58.3698 76.56 58.4598C76.39 58.5298 76.23 58.6298 76.1 58.7598C75.97 58.8898 75.87 59.0398 75.8 59.2198C75.65 59.5998 75.65 60.0298 75.8 60.4098C75.87 60.5798 75.97 60.7398 76.1 60.8698C76.23 60.9998 76.38 61.0998 76.56 61.1698C76.96 61.3198 77.42 61.2998 77.8 61.1398C78.02 61.0398 78.18 60.8898 78.33 60.7098L77.95 60.3998C77.87 60.5198 77.75 60.6298 77.64 60.6998C77.49 60.7798 77.33 60.8298 77.16 60.8198C76.93 60.8198 76.71 60.7398 76.53 60.5698C76.36 60.4198 76.27 60.2098 76.25 59.9698H78.47V59.7698C78.47 59.5698 78.44 59.3698 78.37 59.1698C78.32 58.9998 78.22 58.8598 78.11 58.7198M76.27 59.5498C76.29 59.3298 76.39 59.1398 76.53 58.9998C76.61 58.9298 76.7 58.8698 76.79 58.8298C76.88 58.7898 77.01 58.7598 77.12 58.7598C77.23 58.7598 77.35 58.7798 77.45 58.8298C77.53 58.8598 77.62 58.9298 77.68 58.9998C77.74 59.0698 77.8 59.1498 77.83 59.2498C77.86 59.3498 77.88 59.4498 77.88 59.5498H76.26H76.27Z" fill="white"/>
<path id="Vector_29" d="M80.1 58.4804C79.95 58.5804 79.84 58.7104 79.75 58.8804H79.73V58.6504C79.73 58.5704 79.71 58.4804 79.71 58.4004H79.2C79.22 58.5004 79.22 58.6004 79.22 58.7104V61.1604H79.77V59.7204C79.77 59.6004 79.79 59.4904 79.82 59.3904C79.85 59.2904 79.9 59.1904 79.97 59.1104C80.04 59.0304 80.12 58.9604 80.22 58.9104C80.32 58.8604 80.45 58.8304 80.57 58.8404C80.65 58.8404 80.74 58.8604 80.82 58.8704L80.84 58.3704C80.77 58.3504 80.69 58.3404 80.62 58.3504C80.42 58.3204 80.26 58.3704 80.11 58.4704" fill="white"/>
<path id="Vector_30" d="M86.31 58.9705H85.66L85.15 59.8505L84.32 59.0105C84.44 58.9605 84.55 58.8905 84.65 58.8305C84.75 58.7605 84.85 58.6805 84.93 58.6005C85.01 58.5205 85.08 58.4205 85.13 58.3005C85.18 58.1805 85.21 58.0505 85.2 57.9405C85.2 57.7905 85.17 57.6605 85.12 57.5305C85.07 57.4105 84.99 57.3105 84.89 57.2305C84.79 57.1505 84.67 57.0805 84.54 57.0505C84.41 57.0205 84.28 56.9805 84.13 56.9805C84 56.9805 83.85 57.0005 83.72 57.0505C83.59 57.0805 83.47 57.1505 83.37 57.2305C83.27 57.3105 83.19 57.4305 83.12 57.5405C83.05 57.6705 83.02 57.8205 83.04 57.9705C83.04 58.1505 83.09 58.3205 83.17 58.4805C83.27 58.6505 83.39 58.7805 83.52 58.9105C83.4 58.9605 83.29 59.0305 83.17 59.1105C83.05 59.1805 82.95 59.2805 82.87 59.3705C82.79 59.4605 82.7 59.5905 82.65 59.7005C82.6 59.8305 82.57 59.9805 82.57 60.1105C82.55 60.4405 82.7 60.7705 82.97 60.9905C83.1 61.0905 83.23 61.1705 83.4 61.2205C83.57 61.2705 83.73 61.3005 83.91 61.2905C84.16 61.3105 84.41 61.2405 84.64 61.1205C84.84 61.0005 85.02 60.8605 85.17 60.6705L85.68 61.2205H86.44L85.5 60.2405L86.31 58.9605V58.9705ZM83.76 57.5505C83.86 57.4505 84.01 57.4005 84.16 57.4005C84.46 57.4005 84.69 57.6505 84.69 57.9305C84.69 58.0105 84.67 58.1005 84.64 58.1605C84.61 58.2405 84.56 58.3105 84.49 58.3605C84.42 58.4305 84.36 58.4805 84.27 58.5305C84.18 58.5805 84.1 58.6105 84.02 58.6605L83.87 58.5105C83.77 58.3905 83.7 58.2805 83.64 58.1305C83.56 57.9505 83.61 57.7205 83.76 57.5505ZM84.44 60.6505C84.29 60.7505 84.11 60.7805 83.94 60.7805C83.84 60.7805 83.74 60.7605 83.66 60.7305C83.58 60.7005 83.49 60.6505 83.41 60.5805C83.26 60.4505 83.18 60.2705 83.18 60.0705C83.16 59.8905 83.23 59.7105 83.36 59.5605C83.49 59.4305 83.66 59.3105 83.84 59.2505L84.82 60.2805C84.72 60.4505 84.59 60.5605 84.44 60.6605" fill="white"/>
<path id="Vector_31" d="M89.69 57.0508L87.9 61.1708H88.55L88.96 60.1608H90.91L91.32 61.1708H91.97L90.21 57.0508H89.68H89.69ZM89.16 59.6508L89.94 57.7108L90.72 59.6508H89.16Z" fill="white"/>
<path id="Vector_32" d="M94.6899 58.8601C94.5699 58.6901 94.4299 58.5501 94.2399 58.4601C94.0599 58.3801 93.8599 58.3301 93.6799 58.3301C93.4799 58.3301 93.2799 58.3601 93.1199 58.4501C92.9499 58.5201 92.8099 58.6301 92.6899 58.7601C92.5699 58.8901 92.4699 59.0401 92.4099 59.2201C92.3499 59.4001 92.3099 59.5801 92.3099 59.7801C92.3099 59.9601 92.3399 60.1601 92.4099 60.3401C92.4799 60.5101 92.5799 60.6501 92.6899 60.7901C92.7999 60.9301 92.9699 61.0201 93.1399 61.0901C93.3199 61.1601 93.5199 61.2101 93.7199 61.2101C93.9199 61.2101 94.0999 61.1801 94.2799 61.0901C94.4499 61.0101 94.5899 60.8901 94.6899 60.7301H94.7099V61.0901C94.7099 61.2201 94.6899 61.3501 94.6599 61.4901C94.6299 61.6101 94.5799 61.7201 94.4899 61.8001C94.4099 61.9001 94.3099 61.9701 94.1899 62.0201C94.0399 62.0701 93.8899 62.1001 93.7299 62.1001C93.5299 62.1001 93.3499 62.0701 93.1699 61.9801C92.9999 61.9001 92.8399 61.8001 92.7199 61.6501L92.3699 62.0801C92.5499 62.2501 92.7699 62.3801 92.9999 62.4401C93.2299 62.5201 93.4799 62.5701 93.7299 62.5701C93.9799 62.5701 94.2299 62.5401 94.4599 62.4401C94.6399 62.3701 94.8099 62.2401 94.9199 62.0901C95.0399 61.9401 95.1399 61.7801 95.1799 61.6101C95.2299 61.4301 95.2599 61.2301 95.2499 61.0301V58.4101H94.6899V58.8401V58.8601ZM94.6599 60.1501C94.6099 60.2701 94.5599 60.3701 94.4599 60.4601C94.2799 60.6401 94.0299 60.7401 93.7799 60.7401C93.6499 60.7401 93.5199 60.7101 93.3999 60.6601C93.2799 60.6101 93.1799 60.5401 93.1199 60.4401C93.0399 60.3601 92.9699 60.2401 92.9399 60.1301C92.9099 60.0101 92.8699 59.8801 92.8699 59.7701C92.8699 59.6401 92.8899 59.5201 92.9399 59.3901C92.9699 59.2701 93.0399 59.1701 93.1199 59.0801C93.1999 59.0001 93.2999 58.9101 93.3999 58.8601C93.6499 58.7601 93.9299 58.7601 94.1599 58.8601C94.2799 58.9101 94.3799 58.9801 94.4599 59.0801C94.5399 59.1601 94.6099 59.2801 94.6599 59.3901C94.7099 59.5001 94.7299 59.6401 94.7299 59.7701C94.7299 59.9001 94.6999 60.0301 94.6599 60.1501Z" fill="white"/>
<path id="Vector_33" d="M97.04 58.4804C96.89 58.5804 96.78 58.7104 96.69 58.8804H96.67V58.6504C96.67 58.5704 96.65 58.4804 96.65 58.4004H96.14C96.14 58.5004 96.16 58.6004 96.16 58.7104V61.1604H96.71V59.7204C96.71 59.6004 96.73 59.4904 96.76 59.3904C96.79 59.2904 96.84 59.1904 96.91 59.1104C96.98 59.0304 97.06 58.9604 97.16 58.9104C97.26 58.8604 97.39 58.8304 97.51 58.8404C97.59 58.8404 97.68 58.8604 97.76 58.8704L97.78 58.3704C97.71 58.3504 97.63 58.3404 97.56 58.3504C97.38 58.3204 97.2 58.3704 97.05 58.4704" fill="white"/>
<path id="Vector_34" d="M98.84 58.4102H98.29V61.1802H98.84V58.4102Z" fill="white"/>
<path id="Vector_35" d="M98.55 57.0508C98.45 57.0508 98.37 57.0808 98.3 57.1508C98.17 57.2808 98.17 57.5108 98.3 57.6508C98.37 57.7208 98.47 57.7508 98.55 57.7508C98.65 57.7508 98.73 57.7208 98.81 57.6508C98.88 57.5808 98.93 57.5008 98.93 57.4008C98.93 57.3008 98.9 57.2208 98.81 57.1508C98.73 57.0808 98.64 57.0508 98.55 57.0508Z" fill="white"/>
<path id="Vector_36" d="M101.47 60.7094C101.35 60.7594 101.22 60.7894 101.09 60.7894C100.96 60.7894 100.83 60.7594 100.71 60.7094C100.59 60.6594 100.49 60.5794 100.43 60.4894C100.35 60.3894 100.3 60.2894 100.25 60.1794C100.17 59.9294 100.17 59.6694 100.25 59.4194C100.28 59.2994 100.35 59.1894 100.43 59.1094C100.51 59.0094 100.61 58.9394 100.71 58.8894C100.83 58.8394 100.96 58.8094 101.09 58.8094C101.22 58.8094 101.35 58.8394 101.47 58.9094C101.57 58.9594 101.67 59.0394 101.73 59.1394L102.13 58.8294C102.01 58.6794 101.85 58.5694 101.67 58.4794C101.49 58.3894 101.29 58.3594 101.09 58.3594C100.89 58.3594 100.69 58.3894 100.51 58.4594C100.34 58.5294 100.18 58.6294 100.05 58.7594C99.9199 58.8894 99.8199 59.0394 99.7399 59.2194C99.5899 59.5994 99.5899 60.0294 99.7399 60.4094C99.8099 60.5794 99.9199 60.7394 100.05 60.8694C100.18 60.9994 100.35 61.0994 100.51 61.1694C100.69 61.2394 100.91 61.2694 101.11 61.2694C101.31 61.2694 101.51 61.2394 101.71 61.1494C101.88 61.0794 102.02 60.9694 102.14 60.8394L101.78 60.5094C101.7 60.5794 101.6 60.6394 101.48 60.7094" fill="white"/>
<path id="Vector_37" d="M105.11 60.5802V58.4102H104.56V59.8802C104.58 60.1102 104.49 60.3602 104.36 60.5402C104.23 60.7102 104.03 60.7902 103.83 60.7902C103.71 60.7902 103.61 60.7702 103.52 60.7202C103.44 60.6702 103.37 60.6002 103.32 60.5402C103.27 60.4602 103.24 60.3602 103.22 60.2802C103.2 60.1802 103.19 60.0602 103.19 59.9702V58.4502H102.64V60.1702C102.64 60.3202 102.66 60.4702 102.71 60.6002C102.74 60.7302 102.81 60.8502 102.89 60.9602C102.97 61.0602 103.09 61.1402 103.2 61.2102C103.35 61.2802 103.5 61.2902 103.66 61.2902C103.86 61.2902 104.04 61.2402 104.21 61.1402C104.36 61.0602 104.49 60.9202 104.56 60.7602H104.58V60.9802C104.58 61.0602 104.6 61.1502 104.6 61.2102H105.11C105.11 61.1102 105.09 61.0102 105.09 60.9002C105.11 60.7502 105.11 60.6502 105.11 60.5902" fill="white"/>
<path id="Vector_38" d="M106.6 56.7695H106.05V61.1795H106.6V56.7695Z" fill="white"/>
<path id="Vector_39" d="M108.19 57.6094H107.64V58.3994H107.11V58.8494H107.64V60.3394C107.62 60.5694 107.69 60.7994 107.86 60.9894C108.03 61.1394 108.24 61.2194 108.46 61.2094C108.54 61.2094 108.63 61.2094 108.71 61.1894C108.78 61.1694 108.86 61.1594 108.93 61.1394L108.91 60.6894C108.91 60.6894 108.81 60.7194 108.76 60.7394C108.71 60.7594 108.66 60.7594 108.59 60.7594C108.47 60.7794 108.37 60.7294 108.29 60.6394C108.22 60.5394 108.19 60.4094 108.19 60.2794V58.8394H108.92V58.3894H108.19V57.6094Z" fill="white"/>
<path id="Vector_40" d="M111.92 60.5802V58.4102H111.37V59.8802C111.39 60.1102 111.3 60.3602 111.17 60.5402C111.04 60.7102 110.84 60.7902 110.64 60.7902C110.52 60.7902 110.42 60.7702 110.33 60.7202C110.25 60.6702 110.18 60.6002 110.13 60.5402C110.08 60.4602 110.05 60.3602 110.03 60.2802C110.01 60.1802 110 60.0602 110 59.9702V58.4502H109.45V60.1702C109.45 60.3202 109.47 60.4702 109.52 60.6002C109.55 60.7302 109.62 60.8502 109.7 60.9602C109.78 61.0602 109.9 61.1402 110.01 61.2102C110.16 61.2802 110.31 61.2902 110.47 61.2902C110.67 61.2902 110.85 61.2402 111.02 61.1402C111.17 61.0602 111.3 60.9202 111.37 60.7602H111.39V60.9802C111.39 61.0602 111.41 61.1502 111.41 61.2102H111.92C111.92 61.1102 111.9 61.0102 111.9 60.9002C111.92 60.7502 111.92 60.6502 111.92 60.5902" fill="white"/>
<path id="Vector_41" d="M113.74 58.4804C113.59 58.5804 113.48 58.7104 113.39 58.8804H113.37V58.6504C113.37 58.5704 113.35 58.4804 113.35 58.4004H112.84C112.86 58.5004 112.86 58.6004 112.86 58.7104V61.1604H113.41V59.7204C113.41 59.6004 113.43 59.4904 113.46 59.3904C113.49 59.2904 113.54 59.1904 113.61 59.1104C113.68 59.0304 113.76 58.9604 113.86 58.9104C113.96 58.8604 114.09 58.8304 114.21 58.8404C114.29 58.8404 114.38 58.8604 114.46 58.8704L114.48 58.3704C114.41 58.3504 114.33 58.3404 114.26 58.3504C114.08 58.3204 113.91 58.3704 113.75 58.4704" fill="white"/>
<path id="Vector_42" d="M117.36 59.1698C117.31 58.9998 117.21 58.8598 117.1 58.7198C116.98 58.5898 116.84 58.4898 116.69 58.4398C116.51 58.3698 116.33 58.3398 116.14 58.3398C115.76 58.3398 115.39 58.4898 115.11 58.7498C114.98 58.8798 114.88 59.0298 114.81 59.2098C114.66 59.5898 114.66 60.0198 114.81 60.3998C114.88 60.5698 114.98 60.7298 115.11 60.8598C115.24 60.9898 115.39 61.0898 115.57 61.1598C115.97 61.3098 116.43 61.2898 116.81 61.1298C117.03 61.0298 117.19 60.8798 117.34 60.6998L116.96 60.3898C116.88 60.5098 116.76 60.6198 116.65 60.6898C116.5 60.7698 116.34 60.8198 116.17 60.8098C115.94 60.8098 115.72 60.7298 115.54 60.5598C115.37 60.4098 115.28 60.1998 115.26 59.9598H117.46V59.7598C117.44 59.5598 117.43 59.3498 117.36 59.1598M115.24 59.5398C115.26 59.3198 115.36 59.1298 115.5 58.9898C115.58 58.9198 115.67 58.8598 115.76 58.8198C115.85 58.7798 115.98 58.7498 116.09 58.7498C116.2 58.7498 116.32 58.7698 116.42 58.8198C116.5 58.8498 116.59 58.9198 116.65 58.9898C116.71 59.0598 116.77 59.1398 116.8 59.2398C116.83 59.3398 116.85 59.4398 116.85 59.5398H115.23H115.24Z" fill="white"/>
<path id="Vector_43" d="M80.02 44.5608H79.09V44.2608C79.07 44.0908 79.14 43.9508 79.27 43.8508C79.44 43.7308 79.65 43.6808 79.85 43.6808V42.8008H79.82C79.62 42.8208 79.39 42.8508 79.36 42.8508C79.03 42.9008 78.73 43.0708 78.52 43.3108C78.27 43.5608 78.14 43.8908 78.16 44.2408V45.4008H80L80.03 44.5608H80.02Z" fill="white"/>
<path id="Vector_44" d="M75.07 45.54C75.29 45.54 75.5 45.46 75.65 45.31C75.8 45.16 75.88 44.96 75.88 44.75C75.88 44.54 75.8 44.34 75.65 44.17C75.34 43.86 74.82 43.86 74.51 44.17C74.34 44.32 74.26 44.52 74.28 44.73C74.28 44.95 74.36 45.14 74.51 45.29C74.66 45.46 74.86 45.55 75.07 45.54Z" fill="white"/>
<path id="Vector_45" d="M73.02 45.54C73.24 45.54 73.43 45.46 73.58 45.31C73.73 45.16 73.81 44.96 73.81 44.75C73.81 44.54 73.73 44.32 73.58 44.17C73.27 43.86 72.77 43.86 72.45 44.17C72.3 44.32 72.22 44.53 72.22 44.75C72.22 44.97 72.3 45.16 72.45 45.31C72.58 45.48 72.8 45.56 73.01 45.54" fill="white"/>
<path id="Vector_46" d="M100.97 45.5395C101.19 45.5395 101.4 45.4595 101.55 45.3095C101.7 45.1595 101.78 44.9595 101.78 44.7495C101.78 44.5395 101.7 44.3395 101.55 44.1895C101.24 43.8795 100.72 43.8795 100.41 44.1895C100.24 44.3395 100.16 44.5395 100.18 44.7495C100.18 44.9695 100.26 45.1595 100.41 45.3095C100.56 45.4595 100.76 45.5595 100.97 45.5395Z" fill="white"/>
<path id="Vector_47" d="M98.92 45.5395C99.14 45.5395 99.33 45.4595 99.48 45.3095C99.63 45.1595 99.71 44.9595 99.71 44.7495C99.71 44.5395 99.63 44.3395 99.48 44.1895C99.17 43.8795 98.67 43.8795 98.35 44.1895C98.2 44.3395 98.12 44.5495 98.12 44.7695C98.12 44.9895 98.2 45.1795 98.35 45.3295C98.48 45.4795 98.7 45.5595 98.91 45.5495" fill="white"/>
<path id="Vector_48" d="M104.02 52.7604C104.47 52.3604 104.75 51.8204 104.81 51.2204L104.84 46.4004H103.5C103.5 49.5104 103.48 50.9704 103.48 51.0504C103.46 51.3104 103.33 51.5604 103.15 51.7504C102.93 51.9204 102.65 52.0104 102.37 52.0104V53.3704C102.5 53.3504 102.68 53.3404 102.7 53.3404C103.16 53.2704 103.63 53.0804 104.01 52.7604" fill="white"/>
<path id="Vector_49" d="M110.31 52.7604C110.76 52.3604 111.04 51.8204 111.1 51.2204L111.13 46.4004H109.79C109.79 49.5104 109.77 50.9704 109.77 51.0504C109.75 51.3104 109.62 51.5604 109.44 51.7504C109.22 51.9204 108.94 52.0104 108.66 52.0104V53.3704C108.79 53.3504 108.97 53.3404 108.99 53.3404C109.47 53.2704 109.93 53.0804 110.3 52.7604" fill="white"/>
<path id="Vector_50" d="M97.99 51.0194C98.77 51.4794 99.75 51.4794 100.52 51.0194C100.9 50.7994 101.22 50.4694 101.45 50.0894C101.68 49.7094 101.8 49.2594 101.8 48.8094C101.8 48.1294 101.78 46.9094 101.77 46.3794L99.19 46.3594C98.76 46.3594 98.33 46.4594 97.95 46.6694C97.59 46.8894 97.29 47.1794 97.09 47.5494C96.87 47.9294 96.78 48.3594 96.78 48.7894C96.75 49.7194 97.23 50.5494 98.01 51.0094M98.41 48.0094C98.61 47.7894 98.89 47.6794 99.19 47.6994L100.47 47.7194V48.8294C100.47 49.1394 100.35 49.4394 100.12 49.6694C99.67 50.1294 98.94 50.1294 98.48 49.6894L98.46 49.6694C98.01 49.2094 98 48.4894 98.41 48.0094Z" fill="white"/>
<path id="Vector_51" d="M107.83 51.2595V48.5295C107.85 47.7995 107.85 45.6695 107.85 44.0395L106.51 44.0195C106.51 45.5895 106.51 47.8595 106.49 48.5095V51.2395H107.83V51.2595Z" fill="white"/>
<path id="Vector_52" d="M110.41 45.4394C110.63 45.4394 110.82 45.3594 110.97 45.2094C111.12 45.0594 111.2 44.8594 111.2 44.6494C111.2 44.1994 110.85 43.8594 110.41 43.8594C110.19 43.8594 110 43.9394 109.85 44.0894C109.54 44.3994 109.54 44.8994 109.85 45.2194C109.98 45.3694 110.2 45.4694 110.41 45.4494" fill="white"/>
<path id="Vector_53" d="M86.51 52.6602C86.36 52.8102 86.26 53.0202 86.26 53.2402C86.26 53.6902 86.62 54.0302 87.07 54.0502C87.29 54.0502 87.5 53.9702 87.63 53.8002C87.78 53.6502 87.86 53.4502 87.86 53.2402C87.86 53.0302 87.78 52.8302 87.63 52.6602C87.33 52.3502 86.82 52.3502 86.5 52.6602" fill="white"/>
<path id="Vector_54" d="M80.72 51.2593H81.65C81.91 51.2593 82.18 51.2393 82.44 51.1793C82.69 51.0993 82.94 50.9593 83.14 50.7993L83.19 50.8193C83.39 50.9993 83.64 51.1293 83.89 51.1993C84.15 51.2493 84.4 51.2793 84.67 51.2693H85.56C85.82 51.2693 86.09 51.2493 86.35 51.1893C86.6 51.1093 86.85 50.9693 87.05 50.8093H87.07L87.1 50.8293C87.3 51.0093 87.55 51.1393 87.8 51.2093C88.05 51.2593 88.31 51.2893 88.58 51.2793H90.85L90.87 44.0793V44.0293H89.55L89.53 49.9293H88.74C88.46 49.9493 88.18 49.8593 87.96 49.6793C87.79 49.4493 87.73 49.1693 87.76 48.8893L87.78 46.4393V46.3893H86.42L86.4 48.9693C86.42 49.1893 86.38 49.3793 86.3 49.5793C86.22 49.7293 86.08 49.8293 85.92 49.8393C85.61 49.8893 85.29 49.9093 84.98 49.9093L84.72 49.8893C84.49 49.8893 84.26 49.8093 84.07 49.6593C83.9 49.4293 83.84 49.1493 83.87 48.8693L83.89 46.3693H82.53L82.51 48.9493C82.53 49.1693 82.49 49.3593 82.41 49.5593C82.33 49.7093 82.19 49.8093 82.03 49.8193C81.7 49.8693 81.38 49.8893 81.05 49.8893C80.98 49.8893 80.82 49.8893 80.79 49.8693C80.56 49.8693 80.33 49.7893 80.14 49.6393C79.97 49.4093 79.91 49.1293 79.94 48.8493L79.96 46.3993V46.3493H78.6L78.58 48.9293C78.6 49.1493 78.56 49.3393 78.48 49.5393C78.4 49.6893 78.26 49.7893 78.1 49.7993C77.95 49.8293 77.11 49.8493 76.69 49.8493C76.19 49.8493 76.11 49.6693 76.06 49.6193C75.96 49.3693 75.91 49.0893 75.94 48.8293C75.94 48.1493 75.92 47.5193 75.91 47.0093L75.89 46.3593L73.31 46.3393C72.88 46.3393 72.45 46.4393 72.07 46.6493C71.71 46.8693 71.41 47.1593 71.19 47.5293C70.97 47.9093 70.88 48.3393 70.88 48.7693C70.88 49.1993 71 49.6493 71.21 50.0293C71.42 50.4093 71.74 50.7293 72.12 50.9593C72.5 51.1893 72.95 51.3093 73.38 51.3093C73.69 51.3093 74.01 51.2393 74.31 51.1293C74.61 51.0093 74.89 50.8293 75.12 50.6193L75.17 50.6493C75.3 50.7793 75.42 50.8793 75.48 50.9493C75.6 51.0193 75.73 51.0793 75.88 51.0993C76.13 51.1493 76.39 51.1793 76.64 51.1993H77.72C77.98 51.1993 78.25 51.1793 78.51 51.1193C78.76 51.0393 79.01 50.8993 79.21 50.7393L79.26 50.7593C79.46 50.9393 79.71 51.0693 79.96 51.1393C80.21 51.2693 80.47 51.2893 80.74 51.2893M74.55 48.8693C74.55 49.1793 74.43 49.4793 74.2 49.7093C73.75 50.1693 73.01 50.1693 72.56 49.7293L72.54 49.7093C72.09 49.2593 72.08 48.5293 72.49 48.0693C72.69 47.8493 72.97 47.7393 73.27 47.7593L74.55 47.7793V48.8693Z" fill="white"/>
<path id="Vector_55" d="M83.9299 54.04C84.1499 54.04 84.36 53.96 84.51 53.81C84.66 53.66 84.7399 53.46 84.7399 53.25C84.7399 53.04 84.66 52.82 84.51 52.67C84.2 52.36 83.68 52.36 83.37 52.67C83.06 52.98 83.0599 53.48 83.3499 53.8L83.37 53.82C83.52 53.97 83.7199 54.07 83.9299 54.05" fill="white"/>
<path id="Vector_56" d="M81.2999 52.6597C81.1499 52.8097 81.0699 53.0197 81.0699 53.2397C81.0699 53.4597 81.1499 53.6497 81.2999 53.7997C81.4499 53.9697 81.6499 54.0497 81.8599 54.0497C82.0699 54.0497 82.2699 53.9697 82.4199 53.7997C82.5699 53.6497 82.6499 53.4497 82.6499 53.2397C82.6499 52.8097 82.2999 52.4497 81.8699 52.4297C81.6399 52.4297 81.4399 52.5097 81.2899 52.6597" fill="white"/>
<path id="Vector_57" d="M26.5299 51.24V48.51C26.5499 47.78 26.5499 45.65 26.5499 44.02L25.2099 44C25.2099 45.56 25.2099 47.84 25.1899 48.49V51.22L26.5299 51.24Z" fill="white"/>
<path id="Vector_58" d="M4.28998 45.5302C4.50998 45.5302 4.71998 45.4502 4.86998 45.3002C5.01998 45.1502 5.09998 44.9502 5.09998 44.7402C5.09998 44.5302 5.01998 44.3102 4.86998 44.1602C4.55998 43.8502 4.03998 43.8502 3.72998 44.1602C3.57998 44.3102 3.47998 44.5102 3.49998 44.7202C3.49998 44.9402 3.57998 45.1302 3.72998 45.2802C3.87998 45.4502 4.07998 45.5302 4.28998 45.5302Z" fill="white"/>
<path id="Vector_59" d="M13.56 51.24V48.51C13.58 47.78 13.58 45.65 13.58 44.02L12.24 44C12.24 45.56 12.24 47.83 12.22 48.49V51.22L13.56 51.24Z" fill="white"/>
<path id="Vector_60" d="M2.23994 45.5301C2.45994 45.5301 2.64994 45.4501 2.79994 45.3001C3.10994 45.0001 3.12994 44.4901 2.82994 44.1601C2.52994 43.8501 2.01994 43.8302 1.69994 44.1302C1.67994 44.1302 1.67994 44.1502 1.66994 44.1502C1.51994 44.3002 1.43994 44.5101 1.43994 44.7301C1.43994 44.9501 1.51994 45.1402 1.66994 45.2902C1.79994 45.4602 1.99994 45.5402 2.22994 45.5402" fill="white"/>
<path id="Vector_61" d="M8.83998 51.2197C8.91998 51.2397 9.01998 51.2397 9.09998 51.2397L10.99 51.2197V49.8797L9.09998 49.8997C8.79998 49.9197 8.51998 49.7997 8.31998 49.5897C8.11998 49.3697 8.00998 49.0797 8.01998 48.7797C8.01998 48.5497 8.08998 48.3297 8.19998 48.1297C8.47998 47.6797 9.02998 47.4797 9.51998 47.6297C9.51998 47.6297 9.64998 47.6597 9.76998 47.7097L10.56 46.6297C10.44 46.5597 10.3 46.5097 10.25 46.4997C9.49998 46.1497 8.63998 46.1997 7.92998 46.5997C7.54998 46.8197 7.22998 47.1297 6.99998 47.5097C6.76998 47.8897 6.64998 48.3197 6.64998 48.7697C6.64998 49.1197 6.71998 49.4797 6.84998 49.7997L6.87998 49.8797H5.79998C5.29998 49.8797 5.19998 49.7097 5.16998 49.6497C5.06998 49.3997 5.01998 49.1197 5.03998 48.8597C5.03998 48.1797 5.01998 47.5497 5.00998 47.0397L4.98998 46.3897L2.40998 46.3697C1.97998 46.3697 1.54998 46.4697 1.16998 46.6797C0.80998 46.8997 0.50998 47.1897 0.28998 47.5597C0.0699805 47.9397 -0.0200195 48.3697 -0.0200195 48.7997C-0.0200195 49.2297 0.0999805 49.6797 0.30998 50.0597C0.51998 50.4397 0.83998 50.7597 1.21998 50.9897C1.59998 51.2197 2.04998 51.3397 2.47998 51.3397C2.78998 51.3397 3.10998 51.2697 3.40998 51.1597C3.70998 51.0397 3.96998 50.8597 4.21998 50.6497L4.26998 50.6697C4.36998 50.7697 4.48998 50.8697 4.57998 50.9697C4.69998 51.0497 4.82998 51.0997 4.97998 51.1197C5.22998 51.1697 5.48998 51.1997 5.73998 51.2197L8.81998 51.2397L8.83998 51.2197ZM3.75998 48.8197C3.75998 49.1297 3.63998 49.4297 3.40998 49.6597C2.95998 50.1197 2.22998 50.1197 1.76998 49.6797L1.74998 49.6597C1.29998 49.2097 1.28998 48.4797 1.69998 48.0197C1.89998 47.7997 2.17998 47.6897 2.47998 47.7097L3.75998 47.7297V48.8197Z" fill="white"/>
<path id="Vector_62" d="M19.4799 45.5593C19.6999 45.5593 19.8899 45.4793 20.0399 45.3293C20.3499 45.0193 20.3499 44.5193 20.0399 44.1993C19.7299 43.8893 19.2299 43.8893 18.9099 44.1993C18.7599 44.3493 18.6799 44.5493 18.6799 44.7593C18.6799 45.1893 19.0299 45.5493 19.4699 45.5493L19.4799 45.5593Z" fill="white"/>
<path id="Vector_63" d="M40.85 46.3891L38.27 46.3691C37.84 46.3691 37.41 46.4691 37.03 46.6791C36.67 46.8991 36.37 47.1891 36.15 47.5591C35.93 47.9391 35.84 48.3691 35.84 48.7991C35.84 49.6891 36.32 50.5391 37.08 50.9891C37.86 51.4491 38.82 51.4491 39.6 50.9891C39.98 50.7691 40.3 50.4391 40.53 50.0591C40.76 49.6791 40.88 49.2291 40.88 48.7991C40.88 48.0891 40.86 47.4891 40.85 47.0091V46.3791H40.87L40.85 46.3891ZM39.54 48.8191C39.54 49.1291 39.42 49.4291 39.19 49.6591C38.74 50.1191 38 50.1191 37.55 49.6791L37.53 49.6591C37.08 49.2091 37.07 48.4791 37.48 48.0191C37.68 47.7991 37.96 47.6891 38.26 47.7091L39.54 47.7291V48.8191Z" fill="white"/>
<path id="Vector_64" d="M45.6099 54.0205C45.8299 54.0205 46.0199 53.9405 46.1699 53.7905C46.3199 53.6405 46.3999 53.4405 46.3999 53.2305C46.3999 53.0205 46.3199 52.8005 46.1699 52.6505C45.8599 52.3405 45.3599 52.3405 45.0399 52.6505C44.8899 52.8005 44.8099 53.0105 44.8099 53.2305C44.8099 53.4505 44.8899 53.6405 45.0399 53.7905C45.1699 53.9405 45.3699 54.0205 45.5999 54.0205" fill="white"/>
<path id="Vector_65" d="M57.2999 43.9807L57.2799 49.8807H56.0399C55.7799 49.8807 55.5099 49.7807 55.3099 49.6007C55.1299 49.3707 55.0099 49.0907 54.9999 48.7907C54.9999 48.3407 54.8799 47.9107 54.6699 47.5307C54.4599 47.1507 54.1399 46.8307 53.7599 46.6207C52.5499 45.9207 51.0099 46.3407 50.3199 47.5307C50.0899 47.9107 49.9699 48.3607 49.9699 48.7907L49.9899 49.8807H48.4499C48.1999 49.8807 47.9699 49.8007 47.7699 49.6507C47.5999 49.4207 47.5399 49.1407 47.5699 48.8607L47.5899 46.4107V46.3607H46.2299L46.2099 48.9407C46.2299 49.1607 46.1899 49.3507 46.1099 49.5507C46.0299 49.7007 45.8899 49.8007 45.7299 49.8107C45.4699 49.8607 45.1999 49.8807 44.9399 49.8807H43.7799L43.7599 43.9807H42.4399L42.4599 51.2207H45.4099C45.6699 51.2207 45.9399 51.2007 46.1999 51.1407C46.4599 51.0607 46.6999 50.9207 46.8999 50.7607L46.9499 50.7807C47.1499 50.9607 47.3999 51.0907 47.6499 51.1607C47.8999 51.2107 48.1599 51.2407 48.4299 51.2307H52.6199C53.2799 51.2507 53.9099 51.0007 54.3799 50.5307L54.4299 50.5607C54.8799 51.0107 55.4899 51.2607 56.1199 51.2207H58.6499L58.6699 44.0207V43.9707L57.3299 43.9907L57.2999 43.9807ZM53.6099 49.2307C53.5599 49.3607 53.4799 49.4807 53.3799 49.5907C53.3799 49.5907 53.3699 49.6007 53.3499 49.6207C53.3499 49.6207 53.2699 49.7007 53.2199 49.7407C53.0399 49.8607 52.8099 49.9207 52.5899 49.9107H51.3299V48.8007C51.3299 48.6807 51.3499 48.5507 51.3999 48.4407C51.3999 48.4107 51.4199 48.3707 51.4299 48.3407C51.4599 48.2707 51.4999 48.2107 51.5499 48.1407C51.6799 47.9407 51.8599 47.7907 52.0799 47.6907C52.0999 47.6707 52.1299 47.6707 52.1499 47.6607C52.1799 47.6407 52.1999 47.6407 52.2299 47.6407L52.2999 47.6207C52.4499 47.5907 52.6099 47.5907 52.7599 47.6207C52.8399 47.6407 52.9099 47.6507 52.9799 47.6907C53.1299 47.7607 53.2599 47.8407 53.3599 47.9507C53.4799 48.0707 53.5599 48.2007 53.6199 48.3307C53.6399 48.3807 53.6499 48.4507 53.6699 48.5007C53.7199 48.7507 53.6999 49.0007 53.6199 49.2307" fill="white"/>
<path id="Vector_66" d="M63.94 52.2509V53.6109C66.04 53.6109 67.8 52.0509 68.08 49.9709C68.08 49.9509 68.11 49.4409 68.11 49.4409V48.7909C68.11 47.9009 67.63 47.0709 66.87 46.6209C65.66 45.9209 64.12 46.3409 63.43 47.5309C63.2 47.9109 63.08 48.3409 63.08 48.7909C63.08 49.2409 63.18 49.6709 63.39 50.0509C63.59 50.4109 63.89 50.7309 64.27 50.9309C64.65 51.1509 65.08 51.2609 65.51 51.2409H66.09C65.54 51.8909 64.77 52.2509 63.94 52.2509ZM65.51 49.9109H65.49C65.34 49.9109 65.19 49.8909 65.06 49.8309C64.99 49.8009 64.93 49.7609 64.88 49.7309C64.81 49.7009 64.76 49.6509 64.71 49.6009C64.56 49.4309 64.46 49.2409 64.43 49.0209C64.41 48.9409 64.41 48.8709 64.41 48.7909C64.41 48.6409 64.44 48.4809 64.49 48.3309C64.56 48.1809 64.64 48.0709 64.75 47.9509C64.97 47.7209 65.28 47.6009 65.59 47.6009C65.9 47.6009 66.2 47.7209 66.42 47.9509C66.54 48.0709 66.62 48.1809 66.68 48.3309C66.73 48.4809 66.76 48.6309 66.76 48.7809V49.9109H65.48V49.9309L65.51 49.9109Z" fill="white"/>
<path id="Vector_67" d="M28.83 52.2509V53.6109C30.93 53.6109 32.71 52.0509 32.97 49.9709C32.97 49.9509 33 49.4409 33 49.4409V48.7909C33 47.9009 32.52 47.0709 31.76 46.6209C30.55 45.9209 29.01 46.3409 28.32 47.5309C28.09 47.9109 27.97 48.3409 27.97 48.7909C27.97 49.2409 28.07 49.6709 28.28 50.0509C28.48 50.4109 28.78 50.7309 29.14 50.9309C29.52 51.1509 29.95 51.2609 30.38 51.2409H30.96C30.43 51.8909 29.65 52.2509 28.82 52.2509M30.36 49.9109C30.06 49.9309 29.78 49.8109 29.58 49.6009C29.13 49.1009 29.18 48.3609 29.66 47.9109C29.88 47.7109 30.16 47.6009 30.45 47.6009C30.76 47.6009 31.06 47.7209 31.28 47.9509C31.51 48.1709 31.63 48.4609 31.63 48.7809V49.9109H30.35V49.9309L30.36 49.9109Z" fill="white"/>
<path id="Vector_68" d="M113.29 52.2509V53.6109C115.39 53.6109 117.15 52.0509 117.43 49.9709C117.43 49.9509 117.46 49.4409 117.46 49.4409V48.7909C117.46 47.9009 116.98 47.0709 116.22 46.6209C115.01 45.9209 113.47 46.3409 112.78 47.5309C112.55 47.9109 112.43 48.3409 112.43 48.7909C112.43 49.2409 112.53 49.6709 112.74 50.0509C112.94 50.4109 113.24 50.7309 113.62 50.9309C114 51.1509 114.43 51.2609 114.86 51.2409H115.44C114.88 51.8909 114.1 52.2509 113.29 52.2509ZM114.9 49.9109H114.78C114.78 49.9109 114.71 49.9109 114.68 49.8909H114.66C114.43 49.8609 114.21 49.7609 114.06 49.5909C113.61 49.1109 113.66 48.3509 114.14 47.9209C114.27 47.8009 114.42 47.7209 114.59 47.6609H114.62C114.62 47.6609 114.72 47.6409 114.75 47.6309H114.95C115.26 47.6309 115.56 47.7509 115.78 47.9809C116.01 48.2009 116.13 48.4909 116.13 48.8109V49.9209V49.9509C115.65 49.9209 115.07 49.9209 114.89 49.9209" fill="white"/>
<path id="Vector_69" d="M48.24 53.7905C48.55 53.4805 48.55 52.9605 48.24 52.6505C47.93 52.3405 47.41 52.3405 47.1 52.6505C46.95 52.8005 46.87 53.0105 46.87 53.2305C46.87 53.6805 47.23 54.0205 47.68 54.0405C47.88 54.0205 48.09 53.9405 48.24 53.7905Z" fill="white"/>
<path id="Vector_70" d="M60.35 48.5198V51.2498H61.69V48.5198C61.71 47.7898 61.71 45.6598 61.71 44.0298L60.37 44.0098C60.35 45.5998 60.35 47.8698 60.35 48.5098" fill="white"/>
<path id="Vector_71" d="M16.94 46.4004H15.6C15.6 49.5104 15.58 50.9704 15.58 51.0504C15.56 51.3104 15.43 51.5604 15.23 51.7504C15.01 51.9204 14.73 52.0104 14.47 52.0104V53.3704C14.6 53.3504 14.78 53.3404 14.8 53.3404C15.28 53.2904 15.74 53.0904 16.12 52.7804C16.57 52.3804 16.85 51.8404 16.91 51.2404L16.93 46.4004H16.94Z" fill="white"/>
<path id="Vector_72" d="M19.39 52.76C19.84 52.36 20.12 51.82 20.18 51.24H23.44L23.46 44H22.14L22.12 49.9H20.2L20.22 46.42H18.88C18.88 49.53 18.88 50.99 18.86 51.07C18.84 51.33 18.71 51.58 18.51 51.77C18.29 51.94 18.01 52.03 17.73 52.03V53.39C17.86 53.37 18.04 53.36 18.06 53.36C18.54 53.28 19 53.08 19.38 52.76" fill="white"/>
<path id="Vector_73" d="M94 51.2595V48.5295C94.02 47.7995 94.02 45.6695 94.02 44.0395L92.68 44.0195C92.68 45.5895 92.68 47.8595 92.66 48.5095V51.2395H94V51.2595Z" fill="white"/>
<path id="Vector_74" d="M65.0499 49.8496C65.1799 49.8996 65.3299 49.9296 65.4799 49.9296C65.3499 49.9096 65.1999 49.8996 65.0499 49.8496Z" fill="white"/>
<path id="Vector_75" d="M64.4199 49.0195C64.4499 49.2395 64.5499 49.4295 64.6999 49.5995C64.5499 49.4495 64.4499 49.2495 64.4199 49.0195Z" fill="white"/>
<path id="Vector_76" d="M58.82 7.6132e-05C47.89 -0.0299239 39 8.81008 38.96 19.7401C38.93 30.6701 47.77 39.5601 58.7 39.6001C69.63 39.6301 78.52 30.8101 78.56 19.8601V19.7901C78.56 8.89008 69.74 0.0300761 58.82 7.6132e-05ZM58.82 37.6301C48.98 37.6601 40.98 29.7001 40.95 19.8601C40.92 10.0201 48.89 2.02008 58.72 1.99008C68.56 1.96008 76.56 9.92008 76.59 19.7601V19.8101C76.61 29.6301 68.64 37.6101 58.82 37.6301Z" fill="white"/>
<path id="Vector_77" d="M69.29 27.391C68.56 27.091 67.8 26.941 67 26.981C65.16 26.981 62.35 27.541 58.82 30.141L58.8 30.161L58.73 30.111C55.2 27.511 52.44 27.001 50.6 27.001C49.82 26.971 49.04 27.121 48.31 27.411C48.28 27.431 48.19 27.481 48.21 27.561C48.23 27.611 48.28 27.631 48.34 27.631H48.41C48.84 27.511 49.29 27.461 49.73 27.461C52.11 27.461 55.19 29.271 57.66 31.051C57.16 31.461 56.65 31.891 56.14 32.391C56.07 32.321 56.04 32.311 55.97 32.261C55.79 32.091 55.57 31.961 55.34 31.881C55.22 31.831 55.09 31.831 54.96 31.851C54.71 31.921 54.55 32.151 54.6 32.401C54.6 32.621 54.77 32.801 54.98 32.811C55.13 32.811 55.28 32.731 55.34 32.591C55.44 32.671 55.52 32.741 55.6 32.821L55.72 32.941L55.57 33.071C55.45 33.171 55.34 33.291 55.21 33.381C54.98 33.601 54.71 33.761 54.43 33.891C54.33 33.941 54.23 33.971 54.12 33.971C54.07 33.971 54 33.951 53.95 33.941L53.9 33.921H53.88C53.88 33.921 53.81 33.891 53.76 33.891H53.71C53.63 33.891 53.54 33.941 53.51 34.021C53.46 34.121 53.44 34.241 53.48 34.331C53.5 34.401 53.55 34.461 53.6 34.531C53.77 34.731 54.01 34.861 54.26 34.891H54.56C54.78 34.861 54.99 34.811 55.19 34.711C55.57 34.531 55.92 34.311 56.25 34.031L56.56 33.781C56.66 33.881 56.78 33.981 56.87 34.081C57 34.211 57.18 34.331 57.35 34.391C57.4 34.411 57.47 34.421 57.52 34.421H57.59C57.59 34.421 57.64 34.421 57.67 34.401C57.85 34.351 57.98 34.201 58.02 34.021C58.05 33.821 57.99 33.621 57.82 33.511C57.67 33.411 57.47 33.441 57.36 33.561C57.34 33.581 57.33 33.591 57.31 33.631C57.23 33.551 57.14 33.461 57.08 33.381C57.59 32.921 58.22 32.441 58.82 31.961C59.42 32.441 60.08 32.921 60.59 33.381C60.51 33.461 60.42 33.551 60.36 33.631C60.34 33.611 60.33 33.581 60.31 33.561C60.19 33.431 60 33.411 59.85 33.511C59.7 33.631 59.62 33.821 59.65 34.021C59.67 34.201 59.8 34.371 59.98 34.401C60.01 34.401 60.03 34.421 60.06 34.421H60.13C60.2 34.421 60.25 34.401 60.3 34.391C60.48 34.321 60.65 34.211 60.78 34.081C60.88 33.981 61 33.881 61.09 33.781L61.4 34.031C61.71 34.291 62.08 34.531 62.46 34.711C62.66 34.811 62.87 34.881 63.09 34.891H63.39C63.65 34.861 63.89 34.721 64.05 34.531C64.1 34.481 64.15 34.411 64.17 34.331C64.19 34.231 64.19 34.111 64.14 34.021C64.11 33.941 64.02 33.891 63.92 33.891H63.87C63.87 33.891 63.79 33.911 63.75 33.921H63.73L63.7 33.941C63.7 33.941 63.58 33.971 63.53 33.971C63.41 33.971 63.31 33.951 63.22 33.891C62.94 33.761 62.67 33.581 62.44 33.381C62.32 33.281 62.21 33.181 62.08 33.071L61.93 32.941L62.05 32.821C62.13 32.741 62.22 32.671 62.31 32.591C62.39 32.721 62.53 32.811 62.67 32.811C62.89 32.781 63.03 32.591 63.05 32.401C63.08 32.151 62.93 31.901 62.69 31.851C62.56 31.821 62.44 31.831 62.31 31.881C62.08 31.981 61.86 32.101 61.68 32.261C61.61 32.331 61.58 32.341 61.51 32.391C61 31.911 60.48 31.451 59.99 31.051C62.46 29.261 65.54 27.461 67.91 27.461C68.36 27.461 68.8 27.511 69.23 27.631H69.3C69.37 27.631 69.42 27.611 69.43 27.561C69.4 27.481 69.31 27.431 69.26 27.391" fill="white"/>
<path id="Vector_78" d="M59.85 26.2796C59.63 26.7096 59.47 27.1596 59.34 27.6196C59.85 27.3596 60.42 27.1696 60.98 27.0896C63.84 26.4796 64.03 23.8596 64.11 23.3496C64.03 23.4996 63.83 23.7996 62.07 23.8796C61.16 23.9296 59.62 24.0296 58.84 25.5496C58.99 25.8496 59.09 26.1596 59.17 26.4796C60.16 24.1296 62.58 24.4396 63 24.3596C62.6 24.5396 60.85 24.6196 59.85 26.2796Z" fill="white"/>
<path id="Vector_79" d="M58.76 29.0494L59.19 28.8294C59.09 24.2094 56.59 23.9394 55.38 23.8894C53.62 23.8094 53.43 23.5094 53.34 23.3594C53.42 23.8694 53.6 26.4894 56.47 27.0994C56.93 27.1494 57.38 27.2994 57.78 27.5294C57.45 24.5194 54.95 24.5794 54.45 24.3694C54.93 24.4694 58.47 23.7194 58.31 28.8394L58.76 29.0394V29.0494Z" fill="white"/>
<path id="Vector_80" d="M57.3199 15.7308C57.2899 16.5708 57.9199 17.3008 58.7599 17.3908C59.5999 17.3208 60.2499 16.5808 60.1799 15.7308C60.1999 14.4508 58.7599 12.0508 58.7599 12.0508C58.7599 12.0508 57.2399 14.4008 57.3199 15.7308ZM59.3699 16.8108C59.1899 16.9608 58.9699 17.0408 58.7399 17.0408C58.0799 16.9908 57.5799 16.4308 57.6299 15.7608C57.6599 15.4308 57.7499 15.1008 57.8799 14.8008C57.8299 14.9508 57.8099 15.1108 57.7999 15.2608C57.7499 16.0708 58.3499 16.7708 59.1599 16.8208C59.2399 16.8208 59.3099 16.8208 59.3799 16.8008L59.3699 16.8108Z" fill="white"/>
<path id="Vector_81" d="M54.7999 20.621C54.7999 23.251 58.5399 24.101 58.5399 24.101V23.271C58.5399 20.541 54.7999 19.791 54.7999 19.791V20.621Z" fill="white"/>
<path id="Vector_82" d="M58.9199 23.2808V24.1108C58.9199 24.1108 62.6599 23.2708 62.6599 20.6308V19.8008C62.6599 19.8008 58.9199 20.5308 58.9199 23.2808Z" fill="white"/>
<path id="Vector_83" d="M55.74 17.6502C55.74 19.7902 58.59 20.4802 58.59 20.4802V19.8202C58.59 17.6002 55.74 16.9902 55.74 16.9902V17.6502Z" fill="white"/>
<path id="Vector_84" d="M58.89 19.8202V20.4802C58.89 20.4802 61.74 19.8002 61.74 17.6502V16.9902C61.74 16.9902 58.89 17.5902 58.89 19.8202Z" fill="white"/>
<path id="Vector_85" d="M48.8 13.1007C51.27 10.6207 52.86 10.1707 54.83 9.8707C52.81 11.1607 50.92 14.1407 51.52 16.2507C52.6 14.0107 54.45 11.8307 56.17 11.0307C55.19 12.3707 55.18 14.1807 56.1 15.5507C56.32 13.6607 57.64 11.8607 58.73 10.6307C59.82 11.8407 61.15 13.6607 61.36 15.5507C62.29 14.1807 62.27 12.3707 61.29 11.0307C63.01 11.8207 64.87 14.0107 65.94 16.2507C66.54 14.1507 64.65 11.1507 62.63 9.8707C64.6 10.1807 66.19 10.6207 68.66 13.1007C67.85 9.7707 64.98 8.6307 62.68 8.2107C65.2 7.9907 65.69 8.2607 67.93 9.1707C65.51 6.7907 63.81 6.3507 61.39 6.5907C61.8 6.2407 62.28 5.9907 62.81 5.8807C61.8 5.4807 60.21 5.7007 59.58 6.2807C59.51 5.6707 59.2 5.1207 58.74 4.7407C58.26 5.1207 57.96 5.6707 57.9 6.2807C57.29 5.6807 55.7 5.4907 54.67 5.8807C55.2 6.0007 55.68 6.2407 56.09 6.5907C53.67 6.3607 51.97 6.7907 49.55 9.1707C51.79 8.2407 52.28 7.9907 54.8 8.2107C52.46 8.6107 49.6 9.7507 48.79 13.1007" fill="white"/>
</g>
</g>
</g>
</g>
<defs>
<clipPath id="clip0_729_5612">
<rect width="117.46" height="62.58" fill="white"/>
</clipPath>
</defs>
</svg>
