<svg width="177" height="41" viewBox="0 0 177 41" fill="none" xmlns="http://www.w3.org/2000/svg">
<g clip-path="url(#clip0_729_2008)">
<path d="M56.71 11.7999H59.53C60.11 11.7999 60.65 11.6499 61.13 11.3799C61.62 11.6599 62.15 11.7999 62.73 11.7999H62.84C63.42 11.7999 63.96 11.6499 64.44 11.3799C64.94 11.6599 65.49 11.7999 66.08 11.7999H71.62C72.22 11.7999 72.77 11.6599 73.26 11.3799C73.75 11.6599 74.28 11.7999 74.86 11.7999H74.93C74.93 11.7999 74.98 11.7999 75 11.7999C75.82 11.7799 76.59 11.4499 77.04 10.9999V6.16992H76.12V10.6099C75.81 10.7699 75.36 10.8599 74.92 10.8599C74.48 10.8599 74.04 10.7699 73.73 10.6099V7.94992H72.81V10.6099C72.48 10.7699 72.08 10.8599 71.61 10.8599H70.03C70.55 10.4499 70.81 9.92992 70.81 9.31992C70.81 8.25992 70.01 7.54992 68.86 7.54992C67.71 7.54992 66.9 8.25992 66.9 9.31992C66.9 9.92992 67.16 10.4499 67.68 10.8599H66.1C65.66 10.8599 65.22 10.7699 64.91 10.6099V7.94992H63.99V10.6099C63.66 10.7699 63.26 10.8599 62.79 10.8599C62.35 10.8599 61.91 10.7699 61.6 10.6099V7.94992H60.68V10.6099C60.35 10.7699 59.95 10.8599 59.48 10.8599H58.31V8.29992C57.91 8.07992 57.27 7.87992 56.62 7.87992C55.35 7.87992 54.51 8.63992 54.51 9.84992C54.51 11.0499 55.39 11.8199 56.72 11.8199L56.71 11.7999ZM68.84 8.41992C69.45 8.41992 69.88 8.80992 69.88 9.41992C69.88 9.71992 69.77 9.98992 69.56 10.2199C69.35 10.4399 69.11 10.6099 68.84 10.7199C68.56 10.6099 68.32 10.4399 68.11 10.2199C67.9 9.99992 67.8 9.72992 67.8 9.41992C67.8 8.82992 68.23 8.41992 68.84 8.41992ZM56.53 8.71992C56.85 8.71992 57.13 8.77992 57.37 8.90992V10.8399H56.57C55.86 10.8399 55.4 10.4699 55.4 9.78992C55.4 9.10992 55.88 8.71992 56.53 8.71992Z" fill="white"/>
<path d="M55.86 7.19031C56.16 7.19031 56.41 6.94031 56.41 6.63031C56.41 6.32031 56.16 6.07031 55.86 6.07031C55.56 6.07031 55.29 6.32031 55.29 6.63031C55.29 6.94031 55.54 7.19031 55.86 7.19031Z" fill="white"/>
<path d="M57.3699 7.19031C57.6799 7.19031 57.9299 6.94031 57.9299 6.63031C57.9299 6.32031 57.6799 6.07031 57.3699 6.07031C57.0599 6.07031 56.8199 6.32031 56.8199 6.63031C56.8199 6.94031 57.0599 7.19031 57.3699 7.19031Z" fill="white"/>
<path d="M61.35 12.9194C61.35 13.2194 61.59 13.4694 61.9 13.4694C62.21 13.4694 62.46 13.2194 62.46 12.9194C62.46 12.6194 62.21 12.3594 61.9 12.3594C61.59 12.3594 61.35 12.5994 61.35 12.9194Z" fill="white"/>
<path d="M60.3899 13.4694C60.6899 13.4694 60.9399 13.2194 60.9399 12.9194C60.9399 12.6194 60.6999 12.3594 60.3899 12.3594C60.0799 12.3594 59.8199 12.5994 59.8199 12.9194C59.8199 13.2394 60.0699 13.4694 60.3899 13.4694Z" fill="white"/>
<path d="M64.44 7.23937C64.75 7.23937 65 6.98937 65 6.67937C65 6.36937 64.75 6.10938 64.44 6.10938C64.13 6.10938 63.87 6.35937 63.87 6.67937C63.87 6.99937 64.12 7.23937 64.44 7.23937Z" fill="white"/>
<path d="M68.09 6.87C68.39 6.87 68.64 6.62 68.64 6.31C68.64 6 68.39 5.75 68.09 5.75C67.77 5.75 67.52 6 67.52 6.31C67.52 6.62 67.77 6.87 68.09 6.87Z" fill="white"/>
<path d="M69.59 6.87C69.9 6.87 70.15 6.62 70.15 6.31C70.15 6 69.9 5.75 69.59 5.75C69.28 5.75 69.04 6 69.04 6.31C69.04 6.62 69.28 6.87 69.59 6.87Z" fill="white"/>
<path d="M72.52 7.23914C72.82 7.23914 73.07 6.98914 73.07 6.67914C73.07 6.36914 72.82 6.11914 72.52 6.11914C72.22 6.11914 71.95 6.36914 71.95 6.67914C71.95 6.98914 72.2 7.23914 72.52 7.23914Z" fill="white"/>
<path d="M74.02 7.23914C74.33 7.23914 74.58 6.98914 74.58 6.67914C74.58 6.36914 74.33 6.11914 74.02 6.11914C73.71 6.11914 73.47 6.36914 73.47 6.67914C73.47 6.98914 73.71 7.23914 74.02 7.23914Z" fill="white"/>
<path d="M79.5 6.16016H78.58V11.8002H79.5V6.16016Z" fill="white"/>
<path d="M82.96 11.8H83.63C83.58 12.56 83.18 12.93 82.29 12.93C81.83 12.93 81.35 12.83 81.05 12.71L80.89 13.58C81.3 13.73 81.81 13.8 82.26 13.8C83.67 13.8 84.54 13.1 84.54 11.52V8.42C83.97 8.14 83.41 8 82.84 8C81.55 8 80.72 8.77 80.72 9.91C80.72 11.05 81.55 11.79 82.95 11.8H82.96ZM82.8 8.87C83.08 8.87 83.37 8.93 83.64 9.06V10.85H82.82C82.13 10.85 81.65 10.49 81.65 9.86C81.65 9.23 82.13 8.86 82.8 8.86V8.87Z" fill="white"/>
<path d="M90.96 10.8492H89.84C89.32 10.7992 89 10.5492 89 10.0192C89 9.54922 89.27 9.27922 89.69 9.27922C89.9 9.27922 90.08 9.34922 90.23 9.47922L90.85 8.89922C90.57 8.62922 90.12 8.44922 89.64 8.44922C88.77 8.44922 88.16 9.07922 88.16 9.90922C88.16 10.2792 88.27 10.5892 88.49 10.8492H87.74V11.7992H90.95V10.8492H90.96Z" fill="white"/>
<path d="M92.6899 11.3799C93.1199 11.6199 93.7199 11.7899 94.3799 11.7999H107.83C108.67 11.7999 109.47 11.4599 109.94 10.9999V6.16992H109.02V10.6099C108.71 10.7699 108.26 10.8599 107.82 10.8599H106.24C106.76 10.4499 107.02 9.92992 107.02 9.31992C107.02 8.25992 106.22 7.54992 105.07 7.54992C103.92 7.54992 103.11 8.25992 103.11 9.31992C103.11 9.92992 103.37 10.4499 103.89 10.8599H101.18V9.81992C101.18 9.12992 101 8.59992 100.65 8.23992C100.3 7.87992 99.8399 7.68992 99.2599 7.68992C98.3199 7.68992 97.5099 8.17992 96.5599 9.16992V8.23992H95.6399V10.8599H94.4399C93.9999 10.8599 93.5599 10.7699 93.2399 10.6099V6.16992H92.3199V10.7599C92.3199 11.0899 92.4099 11.2499 92.6899 11.3899V11.3799ZM105.06 8.41992C105.67 8.41992 106.1 8.80992 106.1 9.41992C106.1 9.71992 105.99 9.98992 105.78 10.2199C105.57 10.4399 105.33 10.6099 105.06 10.7199C104.78 10.6099 104.53 10.4399 104.33 10.2199C104.12 9.99992 104.02 9.72992 104.02 9.41992C104.02 8.82992 104.45 8.41992 105.06 8.41992ZM96.5499 10.2799C97.5599 9.10992 98.3199 8.56992 99.0999 8.56992C99.5099 8.56992 99.8 8.69992 99.9799 8.95992C100.17 9.21992 100.26 9.54992 100.26 9.94992V10.8399H96.5499V10.2699V10.2799Z" fill="white"/>
<path d="M97.45 6.98937C97.76 6.98937 98.01 6.73937 98.01 6.42937C98.01 6.11937 97.76 5.85938 97.45 5.85938C97.14 5.85938 96.88 6.10937 96.88 6.42937C96.88 6.74937 97.13 6.98937 97.45 6.98937Z" fill="white"/>
<path d="M105.05 6.87023C105.36 6.87023 105.61 6.62023 105.61 6.31023C105.61 6.00023 105.36 5.74023 105.05 5.74023C104.74 5.74023 104.48 5.99023 104.48 6.31023C104.48 6.63023 104.73 6.87023 105.05 6.87023Z" fill="white"/>
<path d="M112.41 6.16016H111.49V11.8002H112.41V6.16016Z" fill="white"/>
<path d="M115.87 11.8H116.54C116.49 12.56 116.09 12.93 115.2 12.93C114.74 12.93 114.26 12.83 113.96 12.71L113.8 13.58C114.21 13.73 114.72 13.8 115.17 13.8C116.58 13.8 117.46 13.1 117.46 11.52V8.42C116.89 8.14 116.33 8 115.76 8C114.47 8 113.64 8.77 113.64 9.91C113.64 11.05 114.47 11.79 115.87 11.8ZM115.71 8.87C115.99 8.87 116.28 8.93 116.55 9.06V10.85H115.73C115.04 10.85 114.56 10.49 114.56 9.86C114.56 9.23 115.04 8.86 115.71 8.86V8.87Z" fill="white"/>
<path d="M122.93 11.7995H125.98C127.09 11.7995 127.96 11.6095 128.48 11.3295V7.93945H127.56V10.6295C127.28 10.7595 126.76 10.8495 126.11 10.8495H122.99C122.06 10.8495 121.6 10.4595 121.6 9.66945C121.6 9.40945 121.65 9.09945 121.75 8.74945L120.91 8.59945C120.76 9.07945 120.69 9.52945 120.69 9.93945C120.69 11.2795 121.51 11.7995 122.93 11.7995Z" fill="white"/>
<path d="M125.36 8.19031C125.67 8.19031 125.92 7.94031 125.92 7.63031C125.92 7.32031 125.67 7.07031 125.36 7.07031C125.05 7.07031 124.81 7.32031 124.81 7.63031C124.81 7.94031 125.05 8.19031 125.36 8.19031Z" fill="white"/>
<path d="M123.85 8.19031C124.15 8.19031 124.4 7.94031 124.4 7.63031C124.4 7.32031 124.15 7.07031 123.85 7.07031C123.53 7.07031 123.28 7.32031 123.28 7.63031C123.28 7.94031 123.53 8.19031 123.85 8.19031Z" fill="white"/>
<path d="M134.06 10.9999V6.16992H133.14V10.5599C132.87 10.7499 132.49 10.8399 132.01 10.8499L131.15 7.14992H130.24L131.09 10.8499H129.61V11.7999H131.98C132.82 11.7999 133.61 11.4599 134.07 10.9999H134.06Z" fill="white"/>
<path d="M136 11.3802C136.43 11.6202 137.03 11.7902 137.69 11.8002H145.67C146.06 11.8002 146.44 11.7402 146.81 11.6402C147.19 11.5302 147.5 11.4002 147.73 11.2402V7.94016H146.81V10.6502C146.54 10.7702 146.08 10.8502 145.61 10.8502H144.48V9.81016C144.48 9.12016 144.3 8.59016 143.95 8.23016C143.6 7.87016 143.14 7.68016 142.56 7.68016C141.62 7.68016 140.81 8.17016 139.86 9.16016V8.23016H138.94V10.8502H137.74C137.3 10.8502 136.86 10.7602 136.54 10.6002V6.16016H135.62V10.7502C135.62 11.0802 135.71 11.2302 135.99 11.3802H136ZM139.86 10.2802C140.87 9.11016 141.63 8.57016 142.41 8.57016C142.82 8.57016 143.11 8.70016 143.29 8.96016C143.48 9.22016 143.57 9.55016 143.57 9.95016V10.8402H139.86V10.2702V10.2802Z" fill="white"/>
<path d="M146.48 7.23914C146.78 7.23914 147.03 6.98914 147.03 6.67914C147.03 6.36914 146.78 6.11914 146.48 6.11914C146.16 6.11914 145.91 6.36914 145.91 6.67914C145.91 6.98914 146.16 7.23914 146.48 7.23914Z" fill="white"/>
<path d="M147.99 7.23914C148.3 7.23914 148.55 6.98914 148.55 6.67914C148.55 6.36914 148.3 6.11914 147.99 6.11914C147.68 6.11914 147.44 6.36914 147.44 6.67914C147.44 6.98914 147.68 7.23914 147.99 7.23914Z" fill="white"/>
<path d="M153.3 10.9999V6.16992H152.38V10.5599C152.11 10.7499 151.73 10.8399 151.25 10.8499L150.39 7.14992H149.48L150.33 10.8499H148.85V11.7999H151.22C152.06 11.7999 152.85 11.4599 153.31 10.9999H153.3Z" fill="white"/>
<path d="M155.78 6.16016H154.86V11.8002H155.78V6.16016Z" fill="white"/>
<path d="M161.82 7.19031C162.13 7.19031 162.38 6.94031 162.38 6.63031C162.38 6.32031 162.13 6.07031 161.82 6.07031C161.51 6.07031 161.27 6.32031 161.27 6.63031C161.27 6.94031 161.51 7.19031 161.82 7.19031Z" fill="white"/>
<path d="M160.31 7.19031C160.61 7.19031 160.86 6.94031 160.86 6.63031C160.86 6.32031 160.61 6.07031 160.31 6.07031C160.01 6.07031 159.74 6.32031 159.74 6.63031C159.74 6.94031 159.99 7.19031 160.31 7.19031Z" fill="white"/>
<path d="M166.4 6.60945H165.95C165.62 6.60945 165.46 6.46945 165.46 6.25945C165.46 6.09945 165.58 5.96945 165.75 5.96945C165.84 5.96945 165.93 5.99945 166 6.05945L166.33 5.69945C166.18 5.54945 165.96 5.43945 165.69 5.43945C165.26 5.43945 164.96 5.74945 164.96 6.13945C164.96 6.31945 165.02 6.46945 165.14 6.59945H164.77V7.19945H166.4V6.59945V6.60945Z" fill="white"/>
<path d="M168.69 12.9194C168.69 12.6094 168.45 12.3594 168.14 12.3594C167.83 12.3594 167.57 12.5994 167.57 12.9194C167.57 13.2394 167.82 13.4694 168.14 13.4694C168.46 13.4694 168.69 13.2194 168.69 12.9194Z" fill="white"/>
<path d="M169.65 12.3594C169.34 12.3594 169.1 12.5994 169.1 12.9194C169.1 13.2394 169.34 13.4694 169.65 13.4694C169.96 13.4694 170.21 13.2194 170.21 12.9194C170.21 12.5994 169.96 12.3594 169.65 12.3594Z" fill="white"/>
<path d="M175.43 7.45969C174.84 6.93969 174.06 6.67969 173.08 6.67969C172.77 6.67969 172.45 6.69969 172.12 6.74969V7.59969C172.43 7.54969 172.75 7.50969 173.06 7.50969C173.74 7.50969 174.3 7.69969 174.74 8.05969C175.18 8.41969 175.4 9.01969 175.4 9.83969V10.8497H174.14C174.42 10.5497 174.56 10.1897 174.56 9.73969C174.56 8.79969 173.83 8.19969 172.92 8.19969C172.01 8.19969 171.29 8.78969 171.29 9.73969C171.29 10.1797 171.43 10.5497 171.71 10.8397H170.52C170.08 10.8397 169.64 10.7497 169.33 10.5897V7.92969H168.41V10.5897C168.08 10.7497 167.68 10.8397 167.21 10.8397C166.77 10.8397 166.33 10.7497 166.02 10.5897V7.92969H165.1V10.5897C164.77 10.7497 164.37 10.8397 163.9 10.8397H162.73V8.27969C162.33 8.05969 161.69 7.85969 161.04 7.85969C159.77 7.85969 158.93 8.61969 158.93 9.82969C158.93 11.0397 159.81 11.7997 161.15 11.7997H163.96C164.54 11.7997 165.08 11.6497 165.56 11.3797C166.05 11.6597 166.58 11.7997 167.16 11.7997H167.27C167.85 11.7997 168.39 11.6497 168.87 11.3797C169.36 11.6597 169.89 11.7997 170.47 11.7997H176.32V9.88969C176.32 8.77969 176.02 7.96969 175.42 7.45969H175.43ZM161.83 10.8497H161.03C160.32 10.8497 159.86 10.4797 159.86 9.79969C159.86 9.11969 160.34 8.72969 160.99 8.72969C161.31 8.72969 161.59 8.78969 161.83 8.91969V10.8497ZM172.93 10.8497C172.41 10.7797 172.13 10.3997 172.13 9.86969C172.13 9.36969 172.47 9.02969 172.93 9.02969C173.39 9.02969 173.73 9.35969 173.73 9.86969C173.73 10.4197 173.46 10.7797 172.93 10.8497Z" fill="white"/>
<path d="M57.32 18.9503C57.87 18.9503 58.39 19.2003 58.72 19.6203L59.55 19.1003C59.04 18.4303 58.22 18.0103 57.32 18.0103C55.8 17.9803 54.47 19.2803 54.5 20.7703C54.47 22.2603 55.8 23.5603 57.32 23.5303C58.22 23.5303 59.04 23.1203 59.55 22.4403L58.72 21.9003C58.37 22.3303 57.88 22.5903 57.32 22.5903C56.32 22.5903 55.54 21.7703 55.54 20.7703C55.54 19.7703 56.31 18.9503 57.32 18.9503Z" fill="white"/>
<path d="M63.3099 19.5398C62.1199 19.5398 61.1899 20.4098 61.1899 21.5298C61.1899 22.6498 62.1299 23.5198 63.3099 23.5198C64.4999 23.5398 65.4699 22.6398 65.4499 21.5298C65.4699 20.4198 64.4999 19.5098 63.3099 19.5398ZM63.3099 22.7298C62.6299 22.7298 62.1099 22.2098 62.1099 21.5298C62.1099 20.8498 62.6299 20.3298 63.3099 20.3298C63.9899 20.3298 64.5299 20.8498 64.5299 21.5298C64.5299 22.2098 64.0099 22.7298 63.3099 22.7298Z" fill="white"/>
<path d="M72.1499 20.2991C72.6399 20.2991 72.9399 20.6091 72.9399 21.1691V23.4491H73.8799V20.8991C73.8799 20.0191 73.3199 19.5391 72.5199 19.5391C71.9299 19.5391 71.4299 19.7091 70.8999 20.1591C70.6899 19.7491 70.2599 19.5391 69.7499 19.5391C69.2399 19.5391 68.7199 19.7391 68.2599 20.1391V19.6191H67.3199V23.4491H68.2599V20.7091C68.6299 20.4091 68.9399 20.2991 69.3399 20.2991C69.8299 20.2991 70.1399 20.6091 70.1399 21.1691V23.4491H71.0699V21.2491C71.0699 21.0591 71.0599 20.8691 71.0199 20.7091C71.3599 20.4291 71.74 20.2891 72.16 20.2891L72.1499 20.2991Z" fill="white"/>
<path d="M81.06 19.5393C80.47 19.5393 79.97 19.7093 79.44 20.1593C79.23 19.7493 78.8 19.5393 78.29 19.5393C77.78 19.5393 77.26 19.7393 76.8 20.1393V19.6193H75.86V23.4493H76.8V20.7093C77.17 20.4093 77.48 20.2993 77.88 20.2993C78.37 20.2993 78.68 20.6093 78.68 21.1693V23.4493H79.61V21.2493C79.61 21.0593 79.6 20.8693 79.56 20.7093C79.9 20.4293 80.28 20.2993 80.7 20.2993C81.19 20.2993 81.49 20.6093 81.49 21.1693V23.4493H82.43V20.8993C82.43 20.0193 81.87 19.5293 81.06 19.5293V19.5393Z" fill="white"/>
<path d="M87.33 22.2894C86.98 22.5994 86.55 22.7594 86.14 22.7594C85.59 22.7594 85.28 22.4494 85.28 21.8894V19.6094H84.35V22.1594C84.35 23.0094 84.88 23.5194 85.75 23.5194C86.3 23.5194 86.86 23.3194 87.33 22.9494V23.4394H88.27V19.6094H87.33V22.2794V22.2894Z" fill="white"/>
<path d="M93.2999 21.1788V23.4588H94.2299V20.9088C94.2299 20.0588 93.6999 19.5488 92.8299 19.5488C92.2799 19.5488 91.7199 19.7488 91.2499 20.1088V19.6288H90.3099V23.4588H91.2499V20.7888C91.5999 20.4788 92.0299 20.3088 92.4399 20.3088C92.9899 20.3088 93.2999 20.6288 93.2999 21.1788Z" fill="white"/>
<path d="M97.22 19.6191H96.29V23.4491H97.22V19.6191Z" fill="white"/>
<path d="M96.75 18.1699C96.47 18.1699 96.24 18.3799 96.24 18.6399C96.24 18.8999 96.47 19.1099 96.75 19.1099C97.03 19.1099 97.26 18.8999 97.26 18.6399C97.26 18.3899 97.03 18.1699 96.75 18.1699Z" fill="white"/>
<path d="M101.24 22.7394C100.59 22.7394 100.07 22.2094 100.07 21.5394C100.07 20.8694 100.58 20.3394 101.24 20.3394C101.62 20.3394 101.93 20.4694 102.17 20.7394L102.88 20.3394C102.49 19.8394 101.88 19.5394 101.22 19.5394C100.12 19.5194 99.14 20.4494 99.16 21.5294C99.14 22.6094 100.12 23.5494 101.22 23.5194C101.89 23.5194 102.51 23.2094 102.91 22.6894L102.19 22.2894C101.97 22.5594 101.63 22.7194 101.24 22.7194V22.7394Z" fill="white"/>
<path d="M106.64 19.5391C106.02 19.5391 105.4 19.7091 104.87 20.0391L105.17 20.6891C105.58 20.4191 106 20.2791 106.43 20.2791C107.04 20.2791 107.35 20.5491 107.35 21.0591V21.1091H106.05C105.13 21.1091 104.55 21.5591 104.55 22.3091C104.55 23.0591 105.1 23.5291 105.98 23.5291C106.49 23.5291 106.95 23.3591 107.34 23.0291V23.4491H108.27V20.9691C108.27 20.0591 107.68 19.5391 106.64 19.5391ZM107.35 22.5191C107.01 22.7291 106.65 22.8391 106.26 22.8391C105.76 22.8391 105.47 22.6291 105.47 22.2491C105.47 21.8691 105.77 21.6591 106.28 21.6591H107.35V22.5191Z" fill="white"/>
<path d="M112.68 22.5988C112.5 22.6888 112.3 22.7388 112.09 22.7388C111.7 22.7388 111.42 22.4988 111.42 22.0488V20.3588H112.51V19.6188H111.42V18.5488H110.49V19.6188H109.88V20.3588H110.49V22.1888C110.49 23.0388 111.04 23.5188 111.79 23.5188C112.13 23.5188 112.46 23.4288 112.79 23.2488L112.67 22.5888L112.68 22.5988Z" fill="white"/>
<path d="M115.56 19.6191H114.63V23.4491H115.56V19.6191Z" fill="white"/>
<path d="M115.09 18.1699C114.81 18.1699 114.58 18.3799 114.58 18.6399C114.58 18.8999 114.81 19.1099 115.09 19.1099C115.37 19.1099 115.6 18.8999 115.6 18.6399C115.6 18.3899 115.37 18.1699 115.09 18.1699Z" fill="white"/>
<path d="M121.77 21.5396C121.79 20.4296 120.82 19.5195 119.63 19.5495C118.44 19.5495 117.51 20.4196 117.51 21.5396C117.51 22.6596 118.45 23.5296 119.63 23.5296C120.82 23.5496 121.79 22.6496 121.77 21.5396ZM118.43 21.5396C118.43 20.8696 118.95 20.3396 119.63 20.3396C120.31 20.3396 120.85 20.8596 120.85 21.5396C120.85 22.2196 120.33 22.7395 119.63 22.7395C118.93 22.7395 118.43 22.2196 118.43 21.5396Z" fill="white"/>
<path d="M126.63 21.1788V23.4588H127.56V20.9088C127.56 20.0588 127.03 19.5488 126.16 19.5488C125.61 19.5488 125.05 19.7488 124.58 20.1088V19.6288H123.64V23.4588H124.58V20.7888C124.93 20.4788 125.36 20.3088 125.77 20.3088C126.32 20.3088 126.63 20.6288 126.63 21.1788Z" fill="white"/>
<path d="M131.4 21.1988L130.97 21.0888C130.44 20.9388 130.31 20.8588 130.31 20.6388C130.31 20.3588 130.52 20.2188 130.94 20.2188C131.36 20.2188 131.85 20.3588 132.22 20.5788L132.53 19.9688C132.1 19.6988 131.52 19.5488 130.96 19.5488C130 19.5488 129.42 19.9888 129.42 20.7188C129.42 20.9988 129.51 21.2088 129.7 21.3688C129.89 21.5288 130.22 21.6788 130.69 21.8088L131.17 21.9388C131.65 22.0888 131.77 22.1688 131.77 22.3888C131.77 22.6988 131.54 22.8588 131.07 22.8588C130.57 22.8588 130.03 22.6988 129.57 22.4188L129.25 23.0088C129.74 23.3388 130.38 23.5188 131.04 23.5188C132.05 23.5188 132.64 23.0688 132.64 22.3088C132.64 21.7288 132.29 21.4288 131.4 21.1788V21.1988Z" fill="white"/>
<path d="M134.45 24.5501L135.18 23.3201C135.23 23.2301 135.26 23.1401 135.26 23.0601C135.26 22.7901 135.02 22.5801 134.74 22.5801C134.46 22.5801 134.23 22.7901 134.23 23.0601C134.23 23.2501 134.34 23.4101 134.52 23.5001L134.17 24.4301L134.45 24.5601V24.5501Z" fill="white"/>
<path d="M142.57 20.3295L141.99 20.1695C141.14 19.9395 140.99 19.8195 140.99 19.5295C140.99 19.0895 141.38 18.8795 141.96 18.8795C142.54 18.8795 143.21 19.0795 143.78 19.3895L144.22 18.5895C143.61 18.2295 142.81 18.0195 142.04 18.0195C141.41 18.0195 140.9 18.1595 140.51 18.4295C140.12 18.6995 139.92 19.0895 139.92 19.6095C139.95 20.4795 140.46 20.7995 141.73 21.1195L142.34 21.2695C143.11 21.4595 143.31 21.5695 143.31 21.9395C143.31 22.4395 142.88 22.6695 142.23 22.6695C141.58 22.6695 140.79 22.4595 140.15 22.0795L139.69 22.8295C140.36 23.2895 141.26 23.5395 142.14 23.5395C143.5 23.5395 144.36 22.9595 144.36 21.8795C144.33 20.9495 143.78 20.6595 142.58 20.3295H142.57Z" fill="white"/>
<path d="M148.43 19.5394C147.91 19.5394 147.47 19.7294 147.17 20.0594V19.6094H146.23V24.9394H147.17V22.9894C147.47 23.3194 147.91 23.5194 148.43 23.5194C149.46 23.5394 150.3 22.6194 150.28 21.5294C150.3 20.4394 149.46 19.5194 148.43 19.5394ZM149.04 22.3894C148.83 22.6094 148.57 22.7294 148.24 22.7294C147.78 22.7294 147.4 22.5394 147.17 22.2094V20.8594C147.39 20.5294 147.78 20.3394 148.24 20.3394C148.57 20.3394 148.84 20.4494 149.04 20.6894C149.25 20.9094 149.35 21.1994 149.35 21.5394C149.35 21.8894 149.24 22.1694 149.04 22.3994V22.3894Z" fill="white"/>
<path d="M154.07 19.5391C153.45 19.5391 152.83 19.7091 152.3 20.0391L152.6 20.6891C153.01 20.4191 153.43 20.2791 153.86 20.2791C154.47 20.2791 154.78 20.5491 154.78 21.0591V21.1091H153.48C152.56 21.1091 151.98 21.5591 151.98 22.3091C151.98 23.0591 152.53 23.5291 153.41 23.5291C153.92 23.5291 154.38 23.3591 154.77 23.0291V23.4491H155.7V20.9691C155.7 20.0591 155.11 19.5391 154.07 19.5391ZM154.77 22.5191C154.43 22.7291 154.07 22.8391 153.68 22.8391C153.18 22.8391 152.89 22.6291 152.89 22.2491C152.89 21.8691 153.19 21.6591 153.7 21.6591H154.77V22.5191Z" fill="white"/>
<path d="M161.28 22.6996L160.56 22.2996C160.34 22.5796 160.01 22.7296 159.61 22.7296C158.96 22.7296 158.44 22.1996 158.44 21.5296C158.44 20.8596 158.95 20.3296 159.61 20.3296C159.99 20.3296 160.3 20.4596 160.54 20.7296L161.25 20.3296C160.86 19.8296 160.25 19.5296 159.59 19.5296C158.49 19.5096 157.51 20.4396 157.53 21.5196C157.51 22.5996 158.49 23.5396 159.59 23.5096C160.26 23.5096 160.88 23.1996 161.28 22.6796V22.6996Z" fill="white"/>
<path d="M166.03 22.3888C165.75 22.6588 165.36 22.7988 164.88 22.7988C164.26 22.7988 163.84 22.4388 163.75 21.8288H166.85V21.5388C166.85 20.3988 165.99 19.5488 164.83 19.5488C163.67 19.5488 162.81 20.4288 162.81 21.5288C162.81 22.6288 163.68 23.5288 164.85 23.5288C165.5 23.5288 166.09 23.2888 166.55 22.8688L166.03 22.3888ZM164.83 20.2688C165.14 20.2688 165.41 20.3588 165.62 20.5488C165.83 20.7388 165.93 20.9588 165.93 21.2488H163.74C163.83 20.6388 164.22 20.2688 164.83 20.2688Z" fill="white"/>
<path d="M175.65 20.8195C175.49 21.1995 175.3 21.5195 175.09 21.7995L174.04 20.6895C174.89 20.2595 175.22 19.8895 175.22 19.2595C175.22 18.5495 174.61 18.0195 173.79 18.0195C172.92 18.0195 172.24 18.6195 172.24 19.3895C172.24 19.7395 172.38 20.0295 172.71 20.3995L172.8 20.4895C171.82 20.9795 171.44 21.4295 171.44 22.0795C171.44 22.9895 172.18 23.5395 173.37 23.5395C174.02 23.5395 174.58 23.3595 175.05 22.9995L175.53 23.5395L176.19 22.9795L175.64 22.3995C175.89 22.0695 176.11 21.6495 176.32 21.1295L175.64 20.8195H175.65ZM173.78 18.6995C174.17 18.6995 174.43 18.9195 174.43 19.2695C174.43 19.6195 174.28 19.8195 173.53 20.1595L173.4 20.0195C173.21 19.8095 173.06 19.5395 173.06 19.3095C173.06 18.9695 173.36 18.6995 173.77 18.6995H173.78ZM173.41 22.7595C172.8 22.7595 172.41 22.4695 172.41 21.9895C172.41 21.6395 172.63 21.3895 173.31 21.0495L174.52 22.3895C174.17 22.6395 173.81 22.7695 173.42 22.7695L173.41 22.7595Z" fill="white"/>
<path d="M54.49 29.2198H56.23V33.7498H57.23V29.2198H58.96V28.3398H54.49V29.2198Z" fill="white"/>
<path d="M62.01 29.8086C60.84 29.8086 59.98 30.6986 59.98 31.8086C59.98 32.9186 60.85 33.8286 62.03 33.8286C62.68 33.8286 63.28 33.5886 63.74 33.1686L63.22 32.6786C62.94 32.9486 62.55 33.0886 62.06 33.0886C61.43 33.0886 61.02 32.7286 60.92 32.1186H64.04V31.8286C64.04 30.6786 63.18 29.8286 62.01 29.8186V29.8086ZM60.92 31.5186C61.01 30.8986 61.41 30.5286 62.02 30.5286C62.34 30.5286 62.61 30.6186 62.82 30.8086C63.03 30.9986 63.14 31.2286 63.14 31.5086H60.93L60.92 31.5186Z" fill="white"/>
<path d="M67.82 33.0191C67.16 33.0191 66.65 32.4891 66.65 31.8091C66.65 31.1291 67.17 30.5991 67.82 30.5991C68.21 30.5991 68.51 30.7291 68.76 30.9991L69.48 30.5991C69.09 30.0991 68.47 29.7991 67.81 29.7991C66.7 29.7791 65.71 30.7191 65.73 31.8091C65.71 32.8991 66.69 33.8391 67.81 33.8191C68.49 33.8191 69.11 33.5091 69.51 32.9791L68.78 32.5791C68.55 32.8591 68.22 33.0191 67.82 33.0191Z" fill="white"/>
<path d="M73.89 29.8096C73.34 29.8096 72.77 30.0096 72.3 30.3796V28.3496H71.36V33.7596H72.3V31.0696C72.65 30.7596 73.09 30.5796 73.5 30.5796C74.06 30.5796 74.36 30.8996 74.36 31.4596V33.7496H75.3V31.1896C75.3 30.3296 74.77 29.8096 73.89 29.8096Z" fill="white"/>
<path d="M79.8399 29.8088C79.2899 29.8088 78.7199 30.0088 78.2499 30.3788V29.8888H77.3099V33.7488H78.2499V31.0588C78.5999 30.7488 79.0399 30.5688 79.4499 30.5688C80.0099 30.5688 80.3099 30.8888 80.3099 31.4488V33.7388H81.2499V31.1788C81.2499 30.3188 80.7199 29.7988 79.8399 29.7988V29.8088Z" fill="white"/>
<path d="M85.22 29.8089C84.02 29.8089 83.08 30.6789 83.08 31.8189C83.08 32.9589 84.02 33.8289 85.22 33.8289C86.42 33.8489 87.4 32.9389 87.38 31.8189C87.4 30.6989 86.42 29.7889 85.22 29.8089ZM85.22 33.0189C84.53 33.0189 84.01 32.4989 84.01 31.8089C84.01 31.1189 84.54 30.5989 85.22 30.5989C85.9 30.5989 86.45 31.1289 86.45 31.8089C86.45 32.4889 85.92 33.0189 85.22 33.0189Z" fill="white"/>
<path d="M90.21 28.3398H89.27V33.7498H90.21V28.3398Z" fill="white"/>
<path d="M94.25 29.8089C93.05 29.8089 92.11 30.6789 92.11 31.8189C92.11 32.9589 93.05 33.8289 94.25 33.8289C95.45 33.8489 96.43 32.9389 96.41 31.8189C96.43 30.6989 95.45 29.7889 94.25 29.8089ZM94.25 33.0189C93.56 33.0189 93.04 32.4989 93.04 31.8089C93.04 31.1189 93.57 30.5989 94.25 30.5989C94.93 30.5989 95.48 31.1289 95.48 31.8089C95.48 32.4889 94.96 33.0189 94.25 33.0189Z" fill="white"/>
<path d="M101.23 30.3289C100.93 29.9989 100.49 29.8089 99.96 29.8089C98.92 29.7889 98.08 30.7089 98.1 31.8089C98.08 32.9189 98.93 33.8289 99.96 33.8089C100.49 33.8089 100.92 33.6189 101.23 33.2889V33.4589C101.23 34.2389 100.75 34.6189 100.03 34.6189C99.47 34.6189 98.97 34.4789 98.52 34.1989L98.22 34.8589C98.77 35.1889 99.42 35.3589 100.17 35.3589C100.76 35.3589 101.25 35.2089 101.61 34.8889C101.98 34.5689 102.17 34.0989 102.17 33.4689V29.8989H101.23V30.3389V30.3289ZM101.23 32.4889C101.01 32.8189 100.62 33.0089 100.16 33.0089C99.83 33.0089 99.56 32.8889 99.35 32.6689C99.14 32.4389 99.03 32.1489 99.03 31.8089C99.03 31.1289 99.51 30.5989 100.16 30.5989C100.62 30.5989 101.01 30.7889 101.23 31.1189V32.4789V32.4889Z" fill="white"/>
<path d="M105.98 32.7389L104.84 29.8889H103.85L105.56 33.8689L105.5 33.9889C105.26 34.4289 105.04 34.6089 104.67 34.6089C104.48 34.6089 104.27 34.5589 104.04 34.4689L103.77 35.1189C104.15 35.2589 104.5 35.3289 104.8 35.3289C105.51 35.3289 106 34.9489 106.33 34.1189L108.04 29.8789H107.07L105.99 32.7289L105.98 32.7389Z" fill="white"/>
<path d="M115.33 29.2103C115.89 29.2103 116.4 29.4703 116.74 29.8903L117.58 29.3603C117.06 28.6803 116.24 28.2603 115.33 28.2603C113.8 28.2303 112.46 29.5403 112.49 31.0403C112.46 32.5403 113.8 33.8503 115.33 33.8203C116.23 33.8203 117.06 33.4003 117.58 32.7203L116.74 32.1803C116.39 32.6103 115.89 32.8703 115.33 32.8703C114.32 32.8703 113.54 32.0403 113.54 31.0303C113.54 30.0203 114.32 29.2003 115.33 29.2003V29.2103Z" fill="white"/>
<path d="M121.36 29.8089C120.16 29.8089 119.22 30.6789 119.22 31.8189C119.22 32.9589 120.16 33.8289 121.36 33.8289C122.56 33.8489 123.54 32.9389 123.52 31.8189C123.54 30.6989 122.56 29.7889 121.36 29.8089ZM121.36 33.0189C120.67 33.0189 120.15 32.4989 120.15 31.8089C120.15 31.1189 120.68 30.5989 121.36 30.5989C122.04 30.5989 122.59 31.1289 122.59 31.8089C122.59 32.4889 122.07 33.0189 121.36 33.0189Z" fill="white"/>
<path d="M130.63 29.8093C130.04 29.8093 129.53 29.9793 129 30.4393C128.78 30.0293 128.36 29.8093 127.84 29.8093C127.32 29.8093 126.8 30.0093 126.34 30.4093V29.8893H125.4V33.7493H126.34V30.9893C126.71 30.6893 127.03 30.5693 127.43 30.5693C127.92 30.5693 128.23 30.8893 128.23 31.4493V33.7393H129.17V31.5193C129.17 31.3293 129.16 31.1393 129.12 30.9793C129.46 30.6993 129.85 30.5593 130.27 30.5593C130.76 30.5593 131.07 30.8793 131.07 31.4393V33.7293H132.01V31.1593C132.01 30.2693 131.44 29.7793 130.63 29.7793V29.8093Z" fill="white"/>
<path d="M139.23 29.8093C138.64 29.8093 138.13 29.9793 137.6 30.4393C137.38 30.0293 136.96 29.8093 136.44 29.8093C135.92 29.8093 135.4 30.0093 134.94 30.4093V29.8893H134V33.7493H134.94V30.9893C135.31 30.6893 135.63 30.5693 136.03 30.5693C136.52 30.5693 136.83 30.8893 136.83 31.4493V33.7393H137.77V31.5193C137.77 31.3293 137.76 31.1393 137.72 30.9793C138.06 30.6993 138.45 30.5593 138.87 30.5593C139.36 30.5593 139.67 30.8793 139.67 31.4393V33.7293H140.61V31.1593C140.61 30.2693 140.04 29.7793 139.23 29.7793V29.8093Z" fill="white"/>
<path d="M143.62 29.8887H142.68V33.7487H143.62V29.8887Z" fill="white"/>
<path d="M143.15 28.4297C142.87 28.4297 142.63 28.6397 142.63 28.9097C142.63 29.1797 142.86 29.3897 143.15 29.3897C143.44 29.3897 143.66 29.1797 143.66 28.9097C143.66 28.6497 143.43 28.4297 143.15 28.4297Z" fill="white"/>
<path d="M147.6 31.4786L147.17 31.3586C146.64 31.2086 146.51 31.1286 146.51 30.8986C146.51 30.6186 146.72 30.4786 147.14 30.4786C147.56 30.4786 148.05 30.6186 148.43 30.8386L148.75 30.2286C148.32 29.9586 147.73 29.8086 147.17 29.8086C146.21 29.8086 145.62 30.2486 145.62 30.9886C145.62 31.2686 145.71 31.4786 145.9 31.6486C146.09 31.8086 146.42 31.9586 146.9 32.0886L147.39 32.2186C147.88 32.3686 147.99 32.4486 147.99 32.6786C147.99 32.9986 147.76 33.1586 147.29 33.1586C146.79 33.1586 146.24 32.9986 145.78 32.7186L145.46 33.3086C145.95 33.6386 146.6 33.8286 147.26 33.8286C148.28 33.8286 148.87 33.3786 148.87 32.6086C148.87 32.0286 148.52 31.7286 147.62 31.4786H147.6Z" fill="white"/>
<path d="M152.59 31.4786L152.16 31.3586C151.63 31.2086 151.5 31.1286 151.5 30.8986C151.5 30.6186 151.71 30.4786 152.13 30.4786C152.55 30.4786 153.04 30.6186 153.42 30.8386L153.74 30.2286C153.31 29.9586 152.72 29.8086 152.16 29.8086C151.2 29.8086 150.61 30.2486 150.61 30.9886C150.61 31.2686 150.7 31.4786 150.89 31.6486C151.08 31.8086 151.41 31.9586 151.89 32.0886L152.38 32.2186C152.87 32.3686 152.98 32.4486 152.98 32.6786C152.98 32.9986 152.75 33.1586 152.28 33.1586C151.78 33.1586 151.23 32.9986 150.77 32.7186L150.45 33.3086C150.94 33.6386 151.59 33.8286 152.25 33.8286C153.27 33.8286 153.86 33.3786 153.86 32.6086C153.86 32.0286 153.51 31.7286 152.61 31.4786H152.59Z" fill="white"/>
<path d="M156.25 28.4297C155.97 28.4297 155.73 28.6397 155.73 28.9097C155.73 29.1797 155.96 29.3897 156.25 29.3897C156.54 29.3897 156.76 29.1797 156.76 28.9097C156.76 28.6497 156.53 28.4297 156.25 28.4297Z" fill="white"/>
<path d="M156.73 29.8887H155.79V33.7487H156.73V29.8887Z" fill="white"/>
<path d="M160.81 29.8089C159.61 29.8089 158.67 30.6789 158.67 31.8189C158.67 32.9589 159.61 33.8289 160.81 33.8289C162.01 33.8489 162.99 32.9389 162.97 31.8189C162.99 30.6989 162.01 29.7889 160.81 29.8089ZM160.81 33.0189C160.12 33.0189 159.6 32.4989 159.6 31.8089C159.6 31.1189 160.13 30.5989 160.81 30.5989C161.49 30.5989 162.04 31.1289 162.04 31.8089C162.04 32.4889 161.52 33.0189 160.81 33.0189Z" fill="white"/>
<path d="M167.39 29.8088C166.84 29.8088 166.27 30.0088 165.8 30.3788V29.8888H164.86V33.7488H165.8V31.0588C166.15 30.7488 166.59 30.5688 167 30.5688C167.56 30.5688 167.86 30.8888 167.86 31.4488V33.7388H168.8V31.1788C168.8 30.3188 168.27 29.7988 167.39 29.7988V29.8088Z" fill="white"/>
<path d="M46.43 0H45.89V40.79H46.43V0Z" fill="white"/>
<path d="M16.76 22.3197C16.27 22.8097 15.58 23.1197 14.83 23.1197C13.32 23.1197 12.1 21.8997 12.1 20.3897C12.1 18.8797 13.32 17.6597 14.83 17.6597C15.58 17.6597 16.26 17.9597 16.76 18.4597L18.69 16.5297C17.7 15.5397 16.34 14.9297 14.83 14.9297C11.82 14.9297 9.37 17.3697 9.37 20.3897C9.37 23.4097 11.81 25.8497 14.83 25.8497C16.34 25.8497 17.7 25.2397 18.69 24.2497L16.76 22.3197Z" fill="white"/>
<path d="M37.82 14.9785H29.92V17.7085H34.07L32.51 18.5985V25.8285H35.23V17.7085H37.82V14.9785Z" fill="white"/>
<path d="M2.03998 13.7482L1.84998 13.6582C1.80998 13.7482 1.75998 13.8282 1.72998 13.9182L1.89998 14.0082C1.93998 13.9182 1.98998 13.8282 2.03998 13.7482Z" fill="white"/>
<path d="M1.96005 11.2484L1.68005 11.0684C1.64005 11.1284 1.59005 11.1984 1.55005 11.2584L1.82005 11.4384C1.87005 11.3784 1.91005 11.3184 1.96005 11.2484Z" fill="white"/>
<path d="M1.89999 12.549L1.72999 12.459C1.68999 12.529 1.63999 12.599 1.60999 12.679L1.76999 12.769C1.80999 12.699 1.85999 12.619 1.90999 12.549H1.89999Z" fill="white"/>
<path d="M2.54994 12.8993L2.32994 12.7793C2.27994 12.8593 2.23994 12.9393 2.18994 13.0093L2.38994 13.1293C2.43994 13.0493 2.48994 12.9693 2.53994 12.8893L2.54994 12.8993Z" fill="white"/>
<path d="M2.22002 14.9697L2.11002 14.9297C2.08002 15.0097 2.04002 15.0997 2.02002 15.1797L2.11002 15.2197C2.15002 15.1397 2.19002 15.0497 2.22002 14.9697Z" fill="white"/>
<path d="M2.19994 11.7L2.39994 11.84C2.44994 11.77 2.49994 11.71 2.54994 11.64L2.32994 11.5C2.27994 11.57 2.23994 11.63 2.18994 11.7H2.19994Z" fill="white"/>
<path d="M1.04994 12.0781C1.00994 12.1481 0.969941 12.2081 0.939941 12.2781L1.16994 12.4081C1.20994 12.3381 1.25994 12.2781 1.29994 12.2081L1.05994 12.0781H1.04994Z" fill="white"/>
<path d="M2.69005 10.3494L2.37005 10.1094C2.31005 10.1894 2.24005 10.2694 2.18005 10.3494L2.48005 10.5794C2.48005 10.5794 2.55005 10.4994 2.58005 10.4594C2.61005 10.4194 2.65005 10.3794 2.68005 10.3394L2.69005 10.3494Z" fill="white"/>
<path d="M1.54996 14.7082L1.40996 14.6582C1.37996 14.7282 1.34996 14.7982 1.32996 14.8682L1.45996 14.9282C1.48996 14.8582 1.52996 14.7882 1.55996 14.7082H1.54996Z" fill="white"/>
<path d="M4.35001 8.73938L3.98001 8.35938C3.87001 8.46937 3.75001 8.56937 3.64001 8.68937L4.00001 9.04938C4.12001 8.94938 4.23001 8.84938 4.35001 8.74938V8.73938Z" fill="white"/>
<path d="M3.62999 11.4695C3.69999 11.3895 3.76999 11.3095 3.83999 11.2295L3.55999 11.0195C3.48999 11.0995 3.41999 11.1795 3.35999 11.2695L3.61999 11.4695H3.62999Z" fill="white"/>
<path d="M3.77 10.28C3.86 10.19 3.96 10.1 4.05 10.01L3.76 9.75C3.67 9.84 3.59 9.94 3.5 10.03L3.78 10.27L3.77 10.28Z" fill="white"/>
<path d="M3.34998 12.4798L3.60998 12.6598C3.66998 12.5898 3.71998 12.5098 3.77998 12.4398L3.49998 12.2598C3.44998 12.3398 3.39998 12.4098 3.34998 12.4798Z" fill="white"/>
<path d="M3.16001 12.0389L2.91001 11.8789C2.86001 11.9489 2.81001 12.0189 2.76001 12.0889L3.00001 12.2489C3.05001 12.1789 3.11001 12.1089 3.16001 12.0389Z" fill="white"/>
<path d="M3.01006 10.5996C3.01006 10.5996 2.94006 10.6896 2.90006 10.7296C2.87006 10.7696 2.84006 10.8096 2.81006 10.8396L3.05006 11.0296C3.12006 10.9496 3.19006 10.8696 3.26006 10.7896L3.00006 10.5996H3.01006Z" fill="white"/>
<path d="M1.36 13.4389L1.23 13.3789C1.19 13.4589 1.16 13.5389 1.12 13.6189L1.23 13.6789C1.27 13.5989 1.32 13.5189 1.36 13.4489V13.4389Z" fill="white"/>
<path d="M2.89001 9.48945L3.22001 9.77945C3.31001 9.68945 3.40001 9.58945 3.49001 9.49945L3.14001 9.18945C3.05001 9.28945 2.97001 9.37945 2.89001 9.47945V9.48945Z" fill="white"/>
<path d="M3.18995 13.2589L2.95995 13.1289C2.90995 13.2189 2.86995 13.2989 2.81995 13.3889L3.02995 13.5089C3.07995 13.4289 3.13995 13.3389 3.18995 13.2589Z" fill="white"/>
<path d="M2.70001 14.0585L2.52001 13.9785C2.47001 14.0685 2.43001 14.1685 2.39001 14.2685L2.55001 14.3485C2.60001 14.2585 2.65001 14.1585 2.71001 14.0685L2.70001 14.0585Z" fill="white"/>
<path d="M5.50994 9.93945C5.39994 10.0395 5.29994 10.1395 5.18994 10.2395L5.49994 10.5495C5.59994 10.4495 5.70994 10.3495 5.81994 10.2595L5.51994 9.94945L5.50994 9.93945Z" fill="white"/>
<path d="M5.9 8.79906C5.76 8.89906 5.63 9.00906 5.5 9.10906L6.21 9.91906C6.33 9.81906 6.46 9.70906 6.59 9.60906L5.91 8.78906L5.9 8.79906Z" fill="white"/>
<path d="M0.849951 14.4499L0.769951 14.4199C0.749951 14.4799 0.719951 14.5399 0.699951 14.5999L0.759951 14.6299C0.789951 14.5699 0.819951 14.5099 0.839951 14.4499H0.849951Z" fill="white"/>
<path d="M5.82006 6.83984C5.65006 6.95984 5.48006 7.08984 5.31006 7.21984L5.70006 7.72984C5.87006 7.61984 6.04006 7.50984 6.22006 7.39984L5.82006 6.83984Z" fill="white"/>
<path d="M4.78002 10.6584C4.69002 10.7484 4.61002 10.8484 4.52002 10.9384L4.84002 11.2184C4.84002 11.2184 4.86002 11.1984 4.87002 11.1884C4.95002 11.1084 5.02002 11.0184 5.10002 10.9384L4.77002 10.6484L4.78002 10.6584Z" fill="white"/>
<path d="M6.82997 6.18945C6.62997 6.30945 6.41997 6.43945 6.21997 6.56945L7.71997 8.80945C7.88997 8.69945 8.05997 8.59945 8.23997 8.49945L6.81997 6.18945H6.82997Z" fill="white"/>
<path d="M14.91 4.03906C12.51 4.03906 10.22 4.55906 8.17004 5.49906L9.41004 7.91906C11.09 7.16906 12.95 6.75906 14.91 6.75906C16.56 6.75906 18.15 7.04906 19.61 7.59906L20.55 5.04906C18.79 4.39906 16.89 4.04906 14.9 4.04906L14.91 4.03906Z" fill="white"/>
<path d="M7.88004 5.62891C7.64004 5.73891 7.40004 5.86891 7.17004 5.98891L8.55004 8.33891C8.74004 8.23891 8.94004 8.13891 9.14004 8.03891L7.88004 5.62891Z" fill="white"/>
<path d="M6.33997 7.56859C6.16997 7.67859 6.00997 7.79859 5.83997 7.90859L6.92997 9.33859C7.07997 9.22859 7.21997 9.12859 7.37997 9.02859L6.33997 7.55859V7.56859Z" fill="white"/>
<path d="M0.15 14.3584C0.17 14.3084 0.19 14.2584 0.22 14.2084L0.06 14.1484C0.06 14.1484 0.02 14.2484 0 14.2984L0.15 14.3684V14.3584Z" fill="white"/>
<path d="M4.28002 10.2188C4.19002 10.3088 4.10002 10.3987 4.02002 10.4987L4.30002 10.7487C4.39002 10.6587 4.48002 10.5687 4.58002 10.4787L4.29002 10.2188H4.28002Z" fill="white"/>
<path d="M3.90002 11.6897L4.20002 11.9197C4.27002 11.8397 4.34002 11.7497 4.42002 11.6697L4.11002 11.4297C4.04002 11.5097 3.98002 11.5997 3.91002 11.6797L3.90002 11.6897Z" fill="white"/>
<path d="M0.430054 13.2684L0.620054 13.3684C0.660054 13.2984 0.690054 13.2284 0.730054 13.1584L0.530054 13.0684C0.500054 13.1384 0.460054 13.2084 0.430054 13.2784V13.2684Z" fill="white"/>
<path d="M5.42001 8.22875C5.28001 8.33875 5.14001 8.44875 5.01001 8.55875L5.34001 8.93875C5.48001 8.83875 5.62001 8.73875 5.77001 8.63875L5.42001 8.21875V8.22875Z" fill="white"/>
<path d="M4.55998 8.95922C4.44998 9.05922 4.33998 9.16922 4.22998 9.26922L4.53998 9.57922C4.64998 9.47922 4.76998 9.38922 4.88998 9.28922L4.56998 8.94922L4.55998 8.95922Z" fill="white"/>
<path d="M5.36998 9.79852L5.05998 9.47852C4.94998 9.57852 4.83998 9.67852 4.72998 9.77852L5.02998 10.0785C5.13998 9.98852 5.24998 9.88852 5.36998 9.79852Z" fill="white"/>
<path d="M5.25995 8.02859L4.86995 7.55859C4.72995 7.67859 4.58995 7.78859 4.44995 7.91859L4.81995 8.34859C4.95995 8.23859 5.10995 8.13859 5.24995 8.02859H5.25995Z" fill="white"/>
<path d="M24.5299 33.3991L24.2599 33.0391C24.1499 33.1091 24.0499 33.1891 23.9399 33.2591L24.2199 33.6291C24.3199 33.5491 24.4299 33.4791 24.5299 33.3991Z" fill="white"/>
<path d="M24.03 32.7373L23.81 32.4473C23.7 32.5173 23.59 32.5873 23.48 32.6573L23.72 32.9773C23.82 32.9073 23.93 32.8273 24.03 32.7473V32.7373Z" fill="white"/>
<path d="M24.66 30.3591L24.43 30.1191C24.36 30.1791 24.29 30.2391 24.22 30.2991L24.47 30.5491C24.53 30.4891 24.6 30.4291 24.66 30.3591Z" fill="white"/>
<path d="M23.2901 32.3989C23.3901 32.3289 23.5 32.2489 23.6 32.1789L23.3701 31.8789C23.2601 31.9489 23.16 32.0189 23.05 32.0889L23.2901 32.3989Z" fill="white"/>
<path d="M23.6201 34.0489L23.3401 33.6289C23.2101 33.7089 23.0701 33.7889 22.9301 33.8589L23.2201 34.3089C23.3501 34.2189 23.4901 34.1389 23.6201 34.0489Z" fill="white"/>
<path d="M25.39 32.6787L25.14 32.3887C25.09 32.4287 25.04 32.4687 24.99 32.5087C24.96 32.5287 24.93 32.5587 24.9 32.5787L25.16 32.8787C25.24 32.8087 25.32 32.7487 25.39 32.6787Z" fill="white"/>
<path d="M24.73 32.1879C24.73 32.1879 24.82 32.1079 24.86 32.0679L24.66 31.8379C24.58 31.9079 24.49 31.9679 24.41 32.0279L24.62 32.2679C24.62 32.2679 24.69 32.2079 24.72 32.1779L24.73 32.1879Z" fill="white"/>
<path d="M25.37 29.5687L25.17 29.3887C25.1 29.4587 25.04 29.5287 24.97 29.5987L25.19 29.7887C25.25 29.7187 25.31 29.6487 25.37 29.5687Z" fill="white"/>
<path d="M25.15 30.8484L24.96 30.6484C24.9 30.7084 24.83 30.7584 24.77 30.8184L24.98 31.0184C25.04 30.9584 25.1 30.9084 25.16 30.8384L25.15 30.8484Z" fill="white"/>
<path d="M25.64 31.3382L25.47 31.1582C25.41 31.2082 25.35 31.2682 25.28 31.3182L25.46 31.4982C25.52 31.4382 25.58 31.3882 25.64 31.3282V31.3382Z" fill="white"/>
<path d="M23.4399 30.9285L23.7099 31.2385C23.7899 31.1685 23.8799 31.0985 23.9599 31.0285L23.6999 30.7285C23.6099 30.7985 23.5299 30.8685 23.4399 30.9285Z" fill="white"/>
<path d="M22.24 33.899L21.99 33.459C21.83 33.529 21.67 33.609 21.51 33.669L21.77 34.149C21.93 34.069 22.09 33.989 22.25 33.899H22.24Z" fill="white"/>
<path d="M20.8 34.8174L21.08 35.4574C21.28 35.3674 21.47 35.2774 21.67 35.1874L21.39 34.6074C21.2 34.6874 21 34.7574 20.8 34.8274V34.8174Z" fill="white"/>
<path d="M18.67 33.4277C18.45 33.4977 18.23 33.5577 18.01 33.6077L18.77 36.2477C19.04 36.1777 19.3 36.1077 19.56 36.0277L18.66 33.4277H18.67Z" fill="white"/>
<path d="M22.76 32.7487L22.52 32.3887C22.39 32.4587 22.26 32.5287 22.12 32.5987L22.36 32.9787C22.49 32.8987 22.62 32.8187 22.75 32.7387L22.76 32.7487Z" fill="white"/>
<path d="M24.4001 31.5391L24.1901 31.2891C24.1001 31.3591 24.0201 31.4191 23.9301 31.4791L24.1501 31.7391C24.2301 31.6691 24.3101 31.6091 24.3901 31.5391H24.4001Z" fill="white"/>
<path d="M23.16 33.3583L22.92 32.9883C22.79 33.0683 22.65 33.1383 22.52 33.2083L22.77 33.6083C22.9 33.5283 23.03 33.4483 23.16 33.3583Z" fill="white"/>
<path d="M22.67 34.6484L22.39 34.1484C22.23 34.2284 22.06 34.3084 21.89 34.3784L22.18 34.9184C22.35 34.8284 22.51 34.7384 22.67 34.6484Z" fill="white"/>
<path d="M22.02 32.4381C22.15 32.3581 22.27 32.2881 22.4 32.2081L22.15 31.8281C22.03 31.9081 21.9 31.9881 21.78 32.0581L22.02 32.4381Z" fill="white"/>
<path d="M28.08 29.2684L28.23 29.3584C28.23 29.3584 28.28 29.2784 28.31 29.2384L28.17 29.1484C28.17 29.1484 28.11 29.2384 28.08 29.2784V29.2684Z" fill="white"/>
<path d="M27.55 30.3276C27.59 30.2676 27.64 30.2076 27.68 30.1476L27.51 30.0176C27.46 30.0776 27.42 30.1376 27.37 30.1976L27.55 30.3276Z" fill="white"/>
<path d="M22.89 31.8691C22.99 31.7991 23.1 31.7191 23.2 31.6391L22.93 31.2891C22.93 31.2891 22.88 31.3291 22.86 31.3391C22.78 31.3991 22.7 31.4491 22.62 31.5091L22.89 31.8691Z" fill="white"/>
<path d="M27.66 28.788L27.6 28.748C27.56 28.798 27.53 28.848 27.49 28.898L27.56 28.938C27.59 28.888 27.62 28.838 27.65 28.788H27.66Z" fill="white"/>
<path d="M21.41 33.4984C21.57 33.4184 21.72 33.3484 21.88 33.2684L21.34 32.3184C21.19 32.3984 21.05 32.4784 20.9 32.5484L21.41 33.4984Z" fill="white"/>
<path d="M25.89 30.0484L25.72 29.8984C25.66 29.9684 25.6 30.0284 25.53 30.0984L25.71 30.2484C25.77 30.1784 25.83 30.1184 25.88 30.0484H25.89Z" fill="white"/>
<path d="M19.95 35.8991C20.18 35.8191 20.41 35.7291 20.64 35.6391L19.6 33.1191C19.41 33.1891 19.21 33.2591 19.01 33.3191L19.95 35.8891V35.8991Z" fill="white"/>
<path d="M20.72 34.6283C20.91 34.5483 21.1 34.4683 21.29 34.3783L20.49 32.7383C20.32 32.8183 20.15 32.8883 19.98 32.9583L20.72 34.6183V34.6283Z" fill="white"/>
<path d="M17.72 33.6785C16.76 33.8885 15.77 34.0085 14.75 34.0085C12.11 34.0085 9.65 33.2685 7.56 31.9785L6.12 34.3185C8.63 35.8685 11.59 36.7585 14.75 36.7585C16.03 36.7585 17.27 36.6085 18.47 36.3385L17.72 33.6985V33.6785Z" fill="white"/>
<path d="M26.41 30.4989L26.28 30.3789C26.22 30.4389 26.17 30.4989 26.11 30.5589L26.26 30.6789C26.31 30.6189 26.36 30.5589 26.42 30.4989H26.41Z" fill="white"/>
<path d="M26.36 29.4687C26.42 29.3987 26.47 29.3187 26.53 29.2487L26.4 29.1387C26.34 29.2087 26.28 29.2887 26.22 29.3587L26.37 29.4687H26.36Z" fill="white"/>
<path d="M26.1901 31.9077L25.97 31.6777C25.91 31.7277 25.85 31.7777 25.8 31.8277L26.0401 32.0577C26.0901 32.0077 26.1501 31.9477 26.2001 31.8977L26.1901 31.9077Z" fill="white"/>
<path d="M25.96 28.7977L25.81 28.6777C25.74 28.7577 25.67 28.8377 25.6 28.9177L25.78 29.0477C25.84 28.9677 25.9 28.8877 25.96 28.7977Z" fill="white"/>
<path d="M27.1 28.3981L27.01 28.3281C26.97 28.3881 26.92 28.4481 26.88 28.5081L26.99 28.5781C27.03 28.5181 27.07 28.4581 27.11 28.3981H27.1Z" fill="white"/>
<path d="M26.63 31.0177L26.84 31.1977C26.89 31.1377 26.93 31.0877 26.98 31.0277L26.79 30.8477C26.74 30.9077 26.68 30.9577 26.63 31.0177Z" fill="white"/>
<path d="M26.91 29.8679C26.96 29.7979 27.01 29.7379 27.06 29.6679L26.96 29.5879C26.91 29.6579 26.85 29.7179 26.8 29.7879L26.91 29.8679Z" fill="white"/>
<path d="M26.4 27.9082C26.35 27.9782 26.3 28.0482 26.25 28.1182L26.37 28.1982C26.42 28.1282 26.46 28.0582 26.51 27.9882L26.4 27.9082Z" fill="white"/>
<path d="M9.32001 26.5894C9.23001 26.5094 9.13001 26.4394 9.04001 26.3594L8.76001 26.6294C8.85001 26.7194 8.94001 26.8094 9.03001 26.8994L9.32001 26.5894Z" fill="white"/>
<path d="M8.48 25.8088L8.25 25.9988C8.33 26.0988 8.41 26.1988 8.49 26.2988L8.75 26.0688C8.66 25.9788 8.57 25.8888 8.49 25.7988L8.48 25.8088Z" fill="white"/>
<path d="M9.55009 27.6495C9.44009 27.5795 9.33009 27.5095 9.22009 27.4395L8.97009 27.7395C9.07009 27.8295 9.18009 27.9095 9.29009 27.9895L9.55009 27.6495Z" fill="white"/>
<path d="M7.5501 25.9087C7.4801 25.8187 7.4101 25.7287 7.3401 25.6387L7.2301 25.7187C7.2901 25.8187 7.3501 25.9187 7.4201 26.0087L7.5601 25.9087H7.5501Z" fill="white"/>
<path d="M8.81005 27.1387C8.71005 27.0587 8.61005 26.9787 8.51005 26.8887L8.30005 27.0987C8.39005 27.1987 8.49005 27.2887 8.58005 27.3887L8.81005 27.1387Z" fill="white"/>
<path d="M7.98009 26.7488L8.17009 26.5788C8.08009 26.4888 7.98009 26.3888 7.89009 26.2988L7.72009 26.4388C7.80009 26.5488 7.89009 26.6488 7.97009 26.7588L7.98009 26.7488Z" fill="white"/>
<path d="M19.2301 27.4199C17.9201 28.2499 16.3501 28.7199 14.6801 28.6799C14.1801 28.6699 13.6901 28.6099 13.2101 28.5099L12.6201 31.1599C13.2701 31.2999 13.9301 31.3799 14.6101 31.3899C16.8401 31.4399 18.9201 30.8199 20.6701 29.7099L19.2201 27.4199H19.2301Z" fill="white"/>
<path d="M6.22006 26.4082L6.06006 26.5182C6.13006 26.6182 6.20006 26.7282 6.27006 26.8282L6.45006 26.6982C6.37006 26.6082 6.30006 26.5082 6.23006 26.4082H6.22006Z" fill="white"/>
<path d="M12.4301 28.3086L11.6201 30.8786C11.8001 30.9386 11.9901 30.9986 12.1801 31.0586C12.2501 31.0786 12.3101 31.0886 12.3801 31.1086L12.9901 28.4586C12.8001 28.4086 12.6101 28.3686 12.4301 28.3086Z" fill="white"/>
<path d="M6.84002 27.1682L6.65002 27.3282C6.74002 27.4482 6.84002 27.5582 6.93002 27.6682L7.14002 27.4782C7.04002 27.3782 6.94002 27.2682 6.84002 27.1582V27.1682Z" fill="white"/>
<path d="M9.40002 27.2191C9.49002 27.2991 9.59002 27.3791 9.69002 27.4491L9.98002 27.0591C9.88002 26.9991 9.79002 26.9291 9.69002 26.8691L9.40002 27.2291V27.2191Z" fill="white"/>
<path d="M10.0801 28.5091L10.3401 28.0591C10.2101 27.9991 10.0701 27.9391 9.95005 27.8691L9.68005 28.2691C9.81005 28.3591 9.94005 28.4391 10.0801 28.5191V28.5091Z" fill="white"/>
<path d="M7.00004 26.2995C6.92004 26.2095 6.85004 26.1095 6.78004 26.0195L6.67004 26.0995C6.73004 26.1995 6.80004 26.2995 6.87004 26.3995L7.00004 26.3095V26.2995Z" fill="white"/>
<path d="M8.17004 25.469C8.10004 25.379 8.03004 25.299 7.96004 25.209L7.79004 25.329C7.85004 25.429 7.91004 25.519 7.97004 25.609L8.17004 25.469Z" fill="white"/>
<path d="M10.5501 29.7791C10.3601 29.7091 10.1801 29.6291 10.0001 29.5391L9.74011 30.0191C9.92011 30.1191 10.1101 30.2291 10.3001 30.3191L10.5501 29.7691V29.7791Z" fill="white"/>
<path d="M11.54 30.1082C11.33 30.0482 11.12 29.9882 10.91 29.9082L10.67 30.4882C10.89 30.5882 11.1 30.6782 11.33 30.7682L11.55 30.1082H11.54Z" fill="white"/>
<path d="M10.8701 29.0689C10.7001 29.0089 10.5301 28.9489 10.3601 28.8789L10.1201 29.3389C10.2901 29.4289 10.4601 29.5189 10.6401 29.5989L10.8801 29.0689H10.8701Z" fill="white"/>
<path d="M12.1701 28.2191C12.0101 28.1591 11.8501 28.0991 11.6901 28.0391L10.9701 29.7491C11.1701 29.8391 11.3701 29.9091 11.5801 29.9791L12.1701 28.2191Z" fill="white"/>
<path d="M10.0601 27.7088C10.1801 27.7888 10.3001 27.8588 10.4201 27.9288L10.6701 27.5088C10.5601 27.4388 10.4501 27.3688 10.3401 27.2988L10.0601 27.7088Z" fill="white"/>
<path d="M7.66008 27.0285C7.56008 26.9285 7.47008 26.8285 7.37008 26.7285L7.21008 26.8585C7.30008 26.9685 7.39008 27.0785 7.48008 27.1885L7.66008 27.0385V27.0285Z" fill="white"/>
<path d="M10.4401 28.7092C10.6001 28.7892 10.7601 28.8692 10.9201 28.9392L11.3901 27.8992C11.2501 27.8292 11.1201 27.7692 10.9901 27.6992L10.4401 28.7192V28.7092Z" fill="white"/>
<path d="M8.70008 28.7991C8.64008 28.7591 8.58008 28.7191 8.52008 28.6791C8.45008 28.6291 8.39008 28.5891 8.33008 28.5391L8.08008 28.8391C8.20008 28.9391 8.33008 29.0491 8.45008 29.1491L8.70008 28.8091V28.7991Z" fill="white"/>
<path d="M8.34008 27.6489C8.23008 27.5589 8.13008 27.4689 8.02008 27.3789L7.83008 27.5689C7.93008 27.6689 8.03008 27.7689 8.13008 27.8689L8.34008 27.6489Z" fill="white"/>
<path d="M9.97005 28.6985C9.83005 28.6285 9.68005 28.5585 9.54005 28.4785L9.30005 28.8385C9.44005 28.9385 9.58005 29.0285 9.73005 29.1185L9.97005 28.7085V28.6985Z" fill="white"/>
<path d="M7.86005 28.1691C7.75005 28.0691 7.63005 27.9791 7.52005 27.8691L7.30005 28.0891C7.41005 28.1991 7.51005 28.3091 7.63005 28.4191L7.86005 28.1591V28.1691Z" fill="white"/>
<path d="M9.60001 29.3381C9.44001 29.2581 9.29001 29.1681 9.14001 29.0781L8.88 29.4681C9.03 29.5781 9.18 29.6781 9.34 29.7781L9.60001 29.3381Z" fill="white"/>
<path d="M8.90006 28.5285L9.13006 28.2185C9.01006 28.1385 8.90006 28.0585 8.78006 27.9785L8.56006 28.2485C8.62006 28.2985 8.67006 28.3485 8.73006 28.3885C8.79006 28.4385 8.84006 28.4785 8.90006 28.5185V28.5285Z" fill="white"/>
<path d="M13.48 11.4407L13.45 11.2207C13.31 11.2307 13.16 11.2507 13.02 11.2807L13.06 11.5407C13.19 11.5107 13.33 11.4707 13.47 11.4507L13.48 11.4407Z" fill="white"/>
<path d="M13.57 12.1789L13.53 11.8789C13.39 11.8889 13.25 11.9089 13.12 11.9289L13.17 12.2689C13.3 12.2389 13.43 12.2089 13.57 12.1789Z" fill="white"/>
<path d="M7.88 11.9488L8.31999 12.4888C8.47999 12.3488 8.64 12.2088 8.8 12.0788L8.43 11.5488C8.24 11.6788 8.06 11.8088 7.87 11.9488H7.88Z" fill="white"/>
<path d="M9.95008 12.1807L9.69008 11.7207C9.53008 11.8107 9.37008 11.9107 9.21008 12.0107L9.53008 12.4907C9.67008 12.3807 9.81008 12.2807 9.95008 12.1807Z" fill="white"/>
<path d="M12.8 9.86883L12.85 10.1488C13 10.1188 13.15 10.0888 13.31 10.0588L13.28 9.79883C13.12 9.81883 12.96 9.83883 12.81 9.85883L12.8 9.86883Z" fill="white"/>
<path d="M10.4201 11.0298L10.2301 10.5898C10.0601 10.6598 9.8901 10.7398 9.7301 10.8198L9.9701 11.2798C10.1201 11.1898 10.2701 11.1098 10.4301 11.0298H10.4201Z" fill="white"/>
<path d="M9.58002 11.5193L9.30002 11.0293C9.12002 11.1293 8.94002 11.2293 8.77002 11.3393L9.10002 11.8493C9.25002 11.7393 9.41002 11.6293 9.57002 11.5193H9.58002Z" fill="white"/>
<path d="M13.9 9.76977V9.98977C14.05 9.97977 14.19 9.95977 14.33 9.94977V9.75977C14.18 9.75977 14.04 9.75977 13.9 9.76977Z" fill="white"/>
<path d="M14.3501 10.63V10.5C14.2101 10.5 14.0701 10.5 13.9401 10.5V10.66C14.0801 10.65 14.2201 10.63 14.3501 10.62V10.63Z" fill="white"/>
<path d="M7.62006 12.1504C7.49006 12.2504 7.37006 12.3604 7.25006 12.4704C7.19006 12.5304 7.12006 12.5904 7.06006 12.6504L8.97006 14.5804C9.10006 14.4604 9.23006 14.3404 9.36006 14.2204L7.61006 12.1604L7.62006 12.1504Z" fill="white"/>
<path d="M14.4 12.0596V11.8496C14.27 11.8496 14.14 11.8496 14.01 11.8496V12.0996C14.15 12.0796 14.27 12.0696 14.4 12.0496V12.0596Z" fill="white"/>
<path d="M13.39 10.7491L13.36 10.5391C13.21 10.5491 13.06 10.5791 12.91 10.5991L12.95 10.8391C13.09 10.8091 13.24 10.7791 13.39 10.7491Z" fill="white"/>
<path d="M14.3701 11.3099V11.1699C14.2301 11.1699 14.1001 11.1699 13.9701 11.1699V11.3399C14.1101 11.3299 14.2401 11.3099 14.3701 11.2999V11.3099Z" fill="white"/>
<path d="M12.31 10.2907L12.24 9.9707C12.08 10.0007 11.93 10.0407 11.77 10.0807L11.86 10.4307C12.01 10.3807 12.15 10.3407 12.3 10.2907H12.31Z" fill="white"/>
<path d="M12.62 11.6594L12.55 11.3594C12.41 11.3894 12.28 11.4194 12.14 11.4594L12.23 11.7894C12.36 11.7394 12.49 11.6994 12.61 11.6594H12.62Z" fill="white"/>
<path d="M12.7801 12.3798L12.7001 12.0098C12.5701 12.0398 12.4401 12.0698 12.3201 12.0998L12.4301 12.4998C12.5501 12.4598 12.6701 12.4198 12.7901 12.3798H12.7801Z" fill="white"/>
<path d="M10.0401 12.3398C9.89011 12.4298 9.75011 12.5198 9.61011 12.6098L10.2401 13.5598C10.3601 13.4798 10.4801 13.4098 10.6101 13.3398L10.0401 12.3398Z" fill="white"/>
<path d="M10.7101 11.6991L10.5301 11.2891C10.3801 11.3591 10.2301 11.4291 10.0701 11.4991L10.2901 11.9291C10.4301 11.8391 10.5601 11.7591 10.7001 11.6891L10.7101 11.6991Z" fill="white"/>
<path d="M11.0801 12.5391C10.9501 12.5991 10.8301 12.6591 10.7001 12.7191L10.9301 13.1591C11.0401 13.0991 11.1601 13.0391 11.2801 12.9891L11.0801 12.5391Z" fill="white"/>
<path d="M6.88005 12.8203C4.97005 14.7803 3.80005 17.4503 3.80005 20.4003H6.52005C6.52005 18.2003 7.39005 16.2003 8.82005 14.7303L6.89005 12.8203H6.88005Z" fill="white"/>
<path d="M8.90002 12.219C8.73002 12.339 8.56002 12.459 8.40002 12.589L9.58002 14.029C9.71002 13.929 9.83002 13.829 9.96002 13.739L8.89003 12.209L8.90002 12.219Z" fill="white"/>
<path d="M11.2101 10.67C11.2101 10.67 11.2801 10.64 11.3201 10.63L11.1901 10.25C11.0401 10.3 10.8801 10.35 10.7301 10.41L10.8901 10.82C11.0001 10.77 11.1001 10.73 11.2101 10.68V10.67Z" fill="white"/>
<path d="M11.01 12.3597L10.82 11.9297C10.68 11.9897 10.54 12.0597 10.41 12.1297L10.64 12.5797C10.76 12.4997 10.89 12.4197 11.01 12.3497V12.3597Z" fill="white"/>
<path d="M11.54 11.299L11.43 10.959C11.43 10.959 11.36 10.979 11.33 10.989C11.22 11.029 11.11 11.069 11.01 11.109L11.15 11.479C11.28 11.419 11.41 11.359 11.54 11.299Z" fill="white"/>
<path d="M11.99 12.6702L11.85 12.2402C11.73 12.2802 11.61 12.3202 11.5 12.3602L11.68 12.8102C11.78 12.7602 11.89 12.7102 12 12.6702H11.99Z" fill="white"/>
<path d="M11.76 11.9794L11.64 11.6094C11.51 11.6494 11.38 11.6994 11.26 11.7494L11.41 12.1494C11.53 12.0894 11.64 12.0394 11.76 11.9794Z" fill="white"/>
<path d="M12.4601 10.9692L12.4001 10.6992C12.2501 10.7292 12.1101 10.7692 11.9601 10.7992L12.0401 11.0992C12.1801 11.0492 12.3201 11.0092 12.4601 10.9692Z" fill="white"/>
<path d="M24.8799 19.2583C23.8099 19.0183 22.8799 18.7983 22.8799 18.2183C22.8799 17.4283 23.9299 17.3083 24.5499 17.3083C25.2199 17.3083 25.8899 17.4583 26.5699 17.7483L26.6199 17.7683L28.3599 16.0283L28.1699 15.9083C27.2399 15.3183 25.9199 14.9883 24.5599 14.9883C21.8499 14.9883 20.0999 16.3083 20.0999 18.3483C20.0999 20.7083 22.2199 21.2083 23.9399 21.6083C25.0099 21.8583 25.9399 22.0683 25.9399 22.6683C25.9399 23.3983 24.8699 23.5083 24.2399 23.5083C23.3399 23.5083 22.3799 23.2583 21.5799 22.8283L21.5199 22.7983L19.8199 24.4983L19.9899 24.6283C20.9399 25.3683 22.5999 25.8383 24.2199 25.8383C27.5299 25.8383 28.7099 24.0383 28.7099 22.4983C28.7099 20.1483 26.5899 19.6683 24.8699 19.2683L24.8799 19.2583Z" fill="white"/>
</g>
<defs>
<clipPath id="clip0_729_2008">
<rect width="176.33" height="40.79" fill="white"/>
</clipPath>
</defs>
</svg>
