<svg width="144" height="71" viewBox="0 0 144 71" fill="none" xmlns="http://www.w3.org/2000/svg">
<g id="Layer_1j" clip-path="url(#clip0_729_13380)">
<path id="Vector" d="M55.3335 70.477C52.5408 70.477 53.4388 66.4044 49.766 62.6833C46.3447 59.2504 41.6034 58.7278 41.6034 56.4843C41.6034 54.9525 43.112 55.1147 43.8932 54.3489C45.1594 53.0784 42.8246 52.1684 42.8246 50.069C42.8246 48.9157 43.6508 48.3301 44.5937 48.3301C48.4191 48.3301 47.6917 55.2949 51.8763 59.5297C53.2681 60.9263 53.8698 61.2687 54.8935 61.2687C58.8985 61.2687 57.5066 54.8715 60.6046 54.8715C62.0953 54.8715 63.1549 55.7635 63.1549 57.2501C63.1549 59.2053 60.5418 61.1695 58.7907 62.9445C56.8152 64.8817 58.3507 70.477 55.3335 70.477Z" fill="white"/>
<path id="Vector_2" d="M18.1213 33.0584C20.5548 33.0584 20.5189 37.3382 23.1859 37.3382C24.2096 37.3382 24.892 36.5723 24.892 35.356C24.892 33.6981 23.9222 33.2566 23.9222 31.3014C23.9222 30.2292 24.7034 29.4453 26.1133 29.4453C30.3966 29.4453 25.5475 36.0678 29.0946 39.6358C30.8815 41.4288 32.1746 41.3928 34.2041 41.3928C35.2906 41.3928 35.8294 41.8973 35.8294 42.6812C35.8294 43.7895 33.9975 44.294 33.9975 45.2671C33.9975 47.79 38.4425 47.1863 38.4425 49.9885C38.4425 51.6013 37.5984 52.5744 35.991 52.5744C33.6743 52.5744 31.2677 48.3756 29.5974 46.6998C23.3026 40.3836 15.9841 38.7438 15.9841 35.2929C15.9661 34.0585 16.7653 33.0494 18.1123 33.0494" fill="white"/>
<path id="Vector_3" d="M74.3617 48.7173C74.5413 50.4112 70.2221 49.4201 70.68 53.844C70.7788 54.8892 70.4017 55.8443 69.1894 55.9795C68.1208 56.0786 67.4024 54.9703 67.2947 54.1414C67.133 52.5286 67.4383 49.5822 65.8489 48.2668C64.0619 46.8161 62.0235 47.1765 59.7786 45.3204C57.5695 43.5274 58.27 41.7704 56.0968 37.815C54.9923 35.8328 53.9866 34.6074 53.825 33.4721C53.6813 32.481 54.2919 31.4358 55.3964 31.2736C56.5009 31.1114 57.6324 31.7962 57.794 32.9675C57.9557 34.1388 57.5336 35.8508 58.6022 36.7428C59.6259 37.5717 60.3353 36.7067 61.9427 36.4815C63.0113 36.3373 63.568 36.8419 63.6758 37.8961C63.8195 39.3107 63.6129 43.122 65.6513 44.7798C69.4139 47.8703 74.2181 47.0234 74.3797 48.7173" fill="white"/>
<path id="Vector_4" d="M37.9396 31.2656C39.6727 31.2656 40.3372 32.518 41.5765 32.518C42.8157 32.518 43.5071 32.3198 44.5757 32.3198C45.5186 32.3198 46.0664 33.0226 46.0664 33.8966C46.0664 34.7706 45.4198 35.167 45.4198 36.059C45.4198 36.951 46.5872 37.6358 46.5872 38.9062C46.5872 40.1767 45.779 40.9605 44.6116 40.9605C41.8189 40.9605 42.5822 38.4377 40.912 36.7618C39.3405 35.185 36.4221 35.4734 36.4221 33.0046C36.44 31.9774 37.0237 31.2656 37.9307 31.2656" fill="white"/>
<path id="Vector_5" d="M5.33398 4.73852C7.20178 4.49525 7.46219 5.71162 7.60587 6.65769C7.80343 8.20743 6.84259 11.0366 6.84259 11.8205C6.84259 12.7666 7.44423 13.0729 8.18956 12.9738C9.15938 12.8296 9.69816 11.2799 10.641 11.1808C11.4672 11.0817 12.1137 11.5862 12.2125 12.271C12.4729 14.1091 10.7039 16.5508 6.74381 19.371C5.4597 20.2991 4.69642 21.3262 4.95683 22.3173C5.18133 23.2274 5.94461 23.6058 7.1479 23.6508C8.80018 23.7139 12.0958 22.02 12.3741 24.1554C12.6346 26.2097 10.2818 25.8673 9.32101 25.9755C8.67447 26.0565 8.25242 26.5161 8.35119 27.2279C8.61161 29.3633 13.0386 27.309 13.3619 29.8678C13.5236 31.1022 12.7154 32.0303 11.7366 32.1654C9.12346 32.5078 7.79445 30.1472 5.5046 28.3722C3.21475 26.5972 0.942862 27.2459 0.655509 25.1015C0.395095 22.9661 1.80492 21.7947 2.9723 20.2991C4.12171 18.8034 5.01969 16.4607 4.59764 13.3522C4.09477 9.64005 2.28085 5.11695 5.34296 4.73852" fill="white"/>
<path id="Vector_6" d="M60.5597 54.412C58.7279 54.5292 58.1621 56.187 57.6413 57.7818C57.1025 59.3766 56.6176 60.8723 54.8665 60.7912C53.9775 60.7912 53.5555 60.593 52.1726 59.1964C50.3407 57.4034 49.4966 54.9977 48.7513 52.9163C47.8084 50.2493 47.0002 47.9878 44.5667 47.8887C43.4981 47.8887 42.3577 48.5734 42.3307 50.0691C42.3487 51.1774 42.9144 52.0514 43.3185 52.6731C43.5789 53.0335 43.7855 53.3578 43.7585 53.6011C43.7585 53.7002 43.7226 53.8444 43.4981 54.0696C43.3365 54.2498 43.0581 54.376 42.7348 54.4931C42.0075 54.7995 41.1095 55.1779 41.1095 56.5294C41.1903 58.0792 42.7169 58.854 44.6296 59.8361C46.1741 60.62 47.9252 61.512 49.4158 63.0437C51.0681 64.6566 51.7506 66.4135 52.2893 67.8281C52.9089 69.459 53.4118 70.7745 55.109 70.9547V70.9907L55.3335 70.9727L55.558 70.9907V70.9547C57.5515 70.7114 57.8299 68.549 58.0544 66.6568C58.216 65.3233 58.3956 63.9538 59.123 63.287C59.4822 62.9266 59.8862 62.5392 60.2903 62.1607C61.9157 60.647 63.5859 59.0973 63.6129 57.2772C63.5949 55.5833 62.3826 54.412 60.5777 54.412M53.2951 67.675C52.7294 66.2424 51.9661 64.2871 50.1162 62.386C48.428 60.7281 46.4525 59.701 44.89 58.872C43.2198 58.0071 42.0165 57.3764 42.0703 56.5114C42.0524 55.8446 42.4295 55.6825 43.0402 55.4031C43.4263 55.241 43.8214 55.0608 44.2075 54.7003C44.5488 54.376 44.7104 53.9976 44.7104 53.5921C44.6745 52.9884 44.3512 52.5199 44.0279 52.0153C43.6418 51.4477 43.2646 50.862 43.2646 50.0962C43.2826 49.069 43.992 48.8437 44.5757 48.8257H44.6745C46.2819 48.8257 46.9104 50.6007 47.7905 53.0245C48.5537 55.1599 49.5236 57.8269 51.535 59.9082C52.9628 61.3588 53.6902 61.7643 54.8576 61.7643H54.8935C57.4078 61.6832 58.1083 59.5208 58.6919 57.7908C59.2128 56.2411 59.5809 55.304 60.6046 55.3671C61.9336 55.3851 62.6969 56.0969 62.7149 57.2863C62.7508 58.6198 61.0267 60.2506 59.5181 61.6652C59.1589 62.0076 58.8177 62.3139 58.4944 62.6563C57.5515 63.7015 57.309 65.3774 57.1025 66.8731C56.8421 68.7922 56.6176 69.9996 55.5939 70.0627V70.0446L55.3694 70.0627L55.1449 70.0446V70.0627C54.22 69.9996 53.8788 69.1977 53.2951 67.684" fill="white"/>
<path id="Vector_7" d="M36.1077 47.005C35.0032 46.4824 34.3208 46.14 34.3746 45.2931V45.23C34.3387 45.0318 34.6351 44.7885 34.9763 44.5272C35.4971 44.1037 36.1437 43.5541 36.2065 42.6891C36.2065 41.6169 35.3983 40.9321 34.1322 40.9321H33.8269C31.977 40.9141 30.9713 40.9141 29.337 39.3193C28.4749 38.4544 28.0529 37.3011 28.0529 35.6702C28.0529 34.9044 28.1337 34.1565 28.2145 33.4087C28.2953 32.7419 28.3582 32.1202 28.3582 31.5526C28.3582 29.8947 27.55 29.0117 26.0055 29.0117C24.461 29.0117 23.3475 29.9578 23.3475 31.3363C23.3654 32.4896 23.6528 33.1744 23.9132 33.7781C24.1377 34.2827 24.3352 34.7242 24.3173 35.4089C24.2993 36.355 23.8503 36.9046 23.0332 36.9046H22.9523C21.9646 36.9046 21.4617 36.0396 20.8601 35.0305C20.2135 33.9403 19.4951 32.7059 17.9865 32.6248C16.2983 32.6248 15.3914 33.9943 15.3914 35.3278C15.4722 37.5443 17.7261 38.9409 20.887 40.8781C23.3385 42.3738 26.3826 44.2479 29.1574 47.0771C29.5974 47.5186 30.1452 48.1853 30.6839 48.8971C32.1297 50.7352 33.8987 53.0328 35.8743 53.0778C37.6613 53.0778 38.7927 51.9065 38.7927 50.0324C38.7119 48.2124 37.2841 47.5726 36.1167 47.023M25.2512 35.3999C25.2332 34.4719 24.9908 33.9042 24.7483 33.3456C24.4879 32.778 24.2814 32.2374 24.2814 31.3453C24.2993 30.4533 24.901 29.9488 26.0145 29.9308C27.2806 29.9668 27.4243 30.4173 27.4602 31.5616C27.4602 32.0662 27.3794 32.6698 27.3165 33.3005C27.2357 34.0484 27.1369 34.8773 27.1369 35.7063C27.1369 37.5624 27.6398 38.9769 28.6815 40.0041C30.4146 41.7611 31.8423 41.8782 33.5485 41.8782H34.0873C35.0302 41.9143 35.2367 42.2206 35.2547 42.7432C35.2906 43.0225 34.9494 43.3288 34.5722 43.6532C34.0693 44.0767 33.4856 44.5452 33.4228 45.284V45.3201C33.5216 46.9149 34.8147 47.5005 35.9371 48.0231C37.0057 48.5097 37.9127 48.9512 37.8498 50.0234C37.8139 51.474 37.2033 52.1228 35.8563 52.1588H35.8204C34.4285 52.1588 32.7224 50.0234 31.3305 48.2844C30.7648 47.5816 30.2439 46.9329 29.786 46.4464C26.8316 43.5181 23.6887 41.5629 21.1564 39.9861C18.3008 38.2111 16.2444 36.9226 16.2893 35.3639C16.3073 34.2556 16.9359 33.5709 17.9775 33.5709H18.0584C18.8396 33.5709 19.3245 34.3547 19.8723 35.2828C20.5547 36.4361 21.318 37.7696 23.0332 37.8417C24.3442 37.8056 25.2422 36.7965 25.2422 35.3819" fill="white"/>
<path id="Vector_8" d="M36.1077 47.005C35.0032 46.4824 34.3208 46.14 34.3746 45.2931V45.23C34.3387 45.0318 34.6351 44.7885 34.9763 44.5272C35.4971 44.1037 36.1437 43.5541 36.2065 42.6891C36.2065 41.6169 35.3983 40.9321 34.1322 40.9321H33.8269C31.977 40.9141 30.9713 40.9141 29.337 39.3193C28.4749 38.4544 28.0529 37.3011 28.0529 35.6702C28.0529 34.9044 28.1337 34.1565 28.2145 33.4087C28.2953 32.7419 28.3582 32.1202 28.3582 31.5526C28.3582 29.8947 27.55 29.0117 26.0055 29.0117C24.461 29.0117 23.3475 29.9578 23.3475 31.3363C23.3654 32.4896 23.6528 33.1744 23.9132 33.7781C24.1377 34.2827 24.3352 34.7242 24.3173 35.4089C24.2993 36.355 23.8503 36.9046 23.0332 36.9046H22.9523C21.9646 36.9046 21.4617 36.0396 20.8601 35.0305C20.2135 33.9403 19.4951 32.7059 17.9865 32.6248C16.2983 32.6248 15.3914 33.9943 15.3914 35.3278C15.4722 37.5443 17.7261 38.9409 20.887 40.8781C23.3385 42.3738 26.3826 44.2479 29.1574 47.0771C29.5974 47.5186 30.1452 48.1853 30.6839 48.8971C32.1297 50.7352 33.8987 53.0328 35.8743 53.0778C37.6613 53.0778 38.7927 51.9065 38.7927 50.0324C38.7119 48.2124 37.2841 47.5726 36.1167 47.023M25.2512 35.3999C25.2332 34.4719 24.9908 33.9042 24.7483 33.3456C24.4879 32.778 24.2814 32.2374 24.2814 31.3453C24.2993 30.4533 24.901 29.9488 26.0145 29.9308C27.2806 29.9668 27.4243 30.4173 27.4602 31.5616C27.4602 32.0662 27.3794 32.6698 27.3165 33.3005C27.2357 34.0484 27.1369 34.8773 27.1369 35.7063C27.1369 37.5624 27.6398 38.9769 28.6815 40.0041C30.4146 41.7611 31.8423 41.8782 33.5485 41.8782H34.0873C35.0302 41.9143 35.2367 42.2206 35.2547 42.7432C35.2906 43.0225 34.9494 43.3288 34.5722 43.6532C34.0693 44.0767 33.4856 44.5452 33.4228 45.284V45.3201C33.5216 46.9149 34.8147 47.5005 35.9371 48.0231C37.0057 48.5097 37.9127 48.9512 37.8498 50.0234C37.8139 51.474 37.2033 52.1228 35.8563 52.1588H35.8204C34.4285 52.1588 32.7224 50.0234 31.3305 48.2844C30.7648 47.5816 30.2439 46.9329 29.786 46.4464C26.8316 43.5181 23.6887 41.5629 21.1564 39.9861C18.3008 38.2111 16.2444 36.9226 16.2893 35.3639C16.3073 34.2556 16.9359 33.5709 17.9775 33.5709H18.0584C18.8396 33.5709 19.3245 34.3547 19.8723 35.2828C20.5547 36.4361 21.318 37.7696 23.0332 37.8417C24.3442 37.8056 25.2422 36.7965 25.2422 35.3819" fill="white"/>
<path id="Vector_9" d="M74.703 48.6631L74.685 48.4649H74.6491C74.3079 47.4558 73.0417 47.1764 71.4882 46.8341C69.782 46.4466 67.6448 45.9871 65.7771 44.4103C64.2505 43.1759 64.1068 40.3558 64.008 38.6619C63.9901 38.3555 63.9721 38.0582 63.9452 37.8509C63.8644 36.7427 63.1639 35.9948 62.1582 35.9948H62.1223C62.0055 35.9948 61.8619 36.0129 61.7002 36.0309C61.0806 36.112 60.5957 36.2922 60.1916 36.4363C59.8504 36.5535 59.59 36.6616 59.3475 36.6616C59.1679 36.6616 58.9883 36.5985 58.7459 36.4003C58.1801 35.9588 58.1442 35.1119 58.1442 34.2379V33.9766C58.1442 33.6162 58.1442 33.2738 58.0814 32.9494C57.8838 31.5528 56.6536 30.832 55.5491 30.832C55.4323 30.832 55.2887 30.85 55.1629 30.8681C53.8788 31.0483 53.1874 32.2016 53.1874 33.2287C53.1874 33.3459 53.1874 33.472 53.2053 33.5891C53.3221 34.4811 53.8698 35.3281 54.5343 36.4183C54.8397 36.9049 55.1809 37.4635 55.5221 38.0942C56.447 39.725 56.8062 40.9594 57.1475 42.0497C57.5875 43.4823 57.9287 44.5905 59.3206 45.7438C60.6047 46.789 61.8349 47.1764 62.9215 47.5188C63.8644 47.7981 64.6725 48.0594 65.3999 48.6902C66.5044 49.5551 66.5673 51.5374 66.6301 53.1322C66.6481 53.5376 66.666 53.898 66.693 54.2404C66.7918 55.1685 67.5371 56.4839 68.8841 56.502C68.9469 56.502 69.0008 56.502 69.0637 56.4839C70.4286 56.3668 71.0123 55.2495 70.9943 54.2224C70.9943 54.1233 70.9943 53.9791 70.9764 53.862C70.9584 53.6638 70.9404 53.4565 70.9404 53.2763C70.9225 51.4022 71.9821 50.9337 73.0148 50.4742C73.7601 50.1498 74.5234 49.8074 74.667 48.9244H74.7299V48.6811L74.703 48.6631ZM70.0604 53.2223C70.0604 53.4475 70.0784 53.6457 70.0963 53.889C70.1143 53.9701 70.1143 54.0692 70.1143 54.1503C70.0963 54.9973 69.7551 55.4207 69.0098 55.5018H68.893C68.2285 55.5018 67.6897 54.6369 67.6269 54.0512C67.591 53.7268 67.564 53.3033 67.5461 52.8979C67.4832 51.2851 67.4293 49.0866 65.9746 47.8702C65.0317 47.1044 64.1068 46.8251 63.119 46.5187C62.0774 46.1943 61.0088 45.852 59.9043 44.9239C58.7818 43.9959 58.4765 43.1039 58.0544 41.7343C57.7132 40.6621 57.2911 39.3286 56.3213 37.5356C55.9621 36.9139 55.6209 36.3282 55.3156 35.8417C54.696 34.8145 54.2111 34.0036 54.1123 33.3549C54.0943 33.2738 54.0943 33.2107 54.0943 33.1296C54.0943 32.4809 54.5164 31.7781 55.2797 31.679C55.3605 31.661 55.4413 31.661 55.5401 31.661C56.2674 31.661 57.0487 32.1025 57.1654 32.9764C57.2013 33.2377 57.2013 33.5171 57.2013 33.8865V34.1658C57.2013 35.1119 57.2013 36.2832 58.1442 37.031C58.5034 37.3374 58.9075 37.4725 59.3296 37.4725C59.7516 37.4725 60.1377 37.3283 60.5598 37.1932C60.9459 37.0761 61.3231 36.9319 61.8439 36.8508C61.9427 36.8328 62.0415 36.8328 62.1043 36.8328C62.6431 36.8508 62.9305 37.013 63.0472 37.8599C63.0831 38.1032 63.0831 38.4006 63.1101 38.77C63.1909 40.545 63.3525 43.5093 65.2023 45.0501C67.4383 46.8251 70.0335 47.4107 71.7396 47.7981C72.889 48.0594 73.814 48.2667 73.787 48.6451V48.8253C73.8499 48.9875 73.5446 49.1316 72.9788 49.3929C71.8923 49.8795 70.0784 50.6454 70.0425 53.2313" fill="white"/>
<path id="Vector_10" d="M46.2639 36.8975C46.0394 36.5731 45.8419 36.2938 45.8598 36.0866V36.0505C45.8419 35.7442 45.9586 35.4829 46.1202 35.2036C46.2998 34.8612 46.4794 34.4738 46.5064 33.8881C46.5064 32.879 45.8419 31.8698 44.5578 31.8518C43.992 31.8518 43.5341 31.9149 43.112 31.9329C42.6451 31.996 42.1691 32.032 41.5405 32.032H41.4777C41.0916 32.032 40.7324 31.8068 40.3283 31.5905C39.7266 31.2481 39.0172 30.8247 37.8947 30.8066C36.7723 30.8066 35.9192 31.7527 35.9192 33.0051C35.982 34.8792 37.3111 35.4288 38.6131 35.9695C39.3136 36.2488 40.0589 36.5731 40.5438 37.0777C41.0826 37.5823 41.325 38.267 41.5854 38.9338C42.0255 40.1412 42.5104 41.3756 44.5667 41.4206C46.0125 41.4206 47.0003 40.3754 47.0003 38.8978C47.0182 38.0058 46.5962 37.4021 46.2549 36.8975M42.5373 38.7536C42.2769 38.0238 41.9536 37.2038 41.2262 36.429C40.4989 35.7442 39.6368 35.3838 38.8915 35.0594C37.7241 34.5549 36.8621 34.1945 36.898 33.0231C36.9159 32.2122 37.3021 31.7347 37.9396 31.7347H38.0025C38.7658 31.7347 39.2687 32.041 39.7895 32.3384C40.2924 32.6447 40.8311 32.942 41.5765 32.9601C42.241 32.9601 42.7438 32.897 43.2467 32.861C43.6688 32.7979 44.0908 32.7799 44.5757 32.7799C45.2223 32.7799 45.5994 33.2033 45.5994 33.8881C45.6174 34.1674 45.5006 34.3927 45.339 34.672C45.1594 35.0144 44.9529 35.4198 44.9349 36.0415C44.9708 36.6452 45.2761 37.0867 45.5545 37.5192C45.8329 37.9427 46.1202 38.3481 46.0933 38.8707C46.0753 39.8979 45.5276 40.4655 44.5667 40.4835H44.4859C43.1749 40.5016 42.8965 39.8168 42.5104 38.7446" fill="white"/>
<path id="Vector_11" d="M13.7391 29.7693C13.4966 28.0304 11.7904 27.9763 10.7847 27.9132C9.50059 27.8321 8.77323 27.7691 8.73731 27.1474C8.73731 27.1113 8.73731 27.0663 8.71935 27.0302C8.73731 26.6698 8.89895 26.4896 9.30304 26.4266C9.41978 26.4085 9.62631 26.4085 9.86876 26.3905C10.8565 26.3725 12.7243 26.3094 12.7872 24.4353C12.7872 24.3362 12.7872 24.192 12.7692 24.0749C12.6525 22.9667 11.7635 22.5792 10.9823 22.5792H10.9014C10.2369 22.5792 9.49161 22.7414 8.77323 22.9036C8.17158 23.0478 7.60586 23.1649 7.14789 23.1649H7.08503C5.98051 23.1018 5.47764 22.8405 5.31601 22.1918C5.29805 22.1107 5.28009 22.0116 5.28009 21.9305C5.28009 21.2818 5.88174 20.4799 6.93237 19.732C10.6949 17.065 12.6076 14.6683 12.6256 12.605C12.6256 12.4608 12.6076 12.3437 12.5896 12.1995C12.4909 11.3346 11.7006 10.7038 10.7757 10.7038C10.6949 10.7038 10.5961 10.7038 10.4973 10.7219C9.81489 10.839 9.34794 11.3706 8.92589 11.8301C8.62057 12.1725 8.32424 12.4969 8.03689 12.5149C7.95607 12.5329 7.89321 12.5329 7.83933 12.5329C7.41728 12.5149 7.21973 12.4158 7.19279 11.8301C7.19279 11.6319 7.29156 11.1003 7.4532 10.5417C7.69565 9.55055 7.99199 8.19903 7.99199 7.17187C7.99199 6.99167 7.97403 6.81146 7.95607 6.64928C7.77647 4.69408 6.64502 4.30664 5.7201 4.30664H5.68418C5.52254 4.30664 5.34295 4.32466 5.18131 4.34268C3.78944 4.50486 3.0082 5.55004 3.0531 7.22593C3.0531 8.33418 3.31351 9.64966 3.57393 10.9021C3.73556 11.731 3.91516 12.596 4.01394 13.4069C4.0768 13.8934 4.09476 14.353 4.09476 14.8395C4.09476 17.3623 3.1878 19.0382 2.46941 20.0294C2.27186 20.2906 2.04736 20.5519 1.84981 20.7952C0.960808 21.8674 0.0628281 22.9306 0.0358887 24.5885C0.0358887 24.7867 0.0538483 24.9759 0.0718079 25.1922C0.332222 26.7689 1.38286 27.1294 2.60411 27.5348C3.36739 27.7961 4.25639 28.1025 5.08253 28.7692C5.68418 29.2377 6.23195 29.7603 6.75278 30.2649C8.03689 31.4993 9.24916 32.6706 11.081 32.6886C11.2606 32.6886 11.4402 32.6706 11.6468 32.6526C12.8141 32.5084 13.6942 31.4632 13.6942 30.2108C13.8109 30.0306 13.7929 29.9045 13.775 29.7874M7.543 29.5441C7.00421 29.0215 6.43848 28.4989 5.77398 27.9673C4.70538 27.1834 3.69965 26.841 2.90044 26.5347C1.81389 26.1743 1.16734 25.931 1.11346 25.003C1.0955 24.8408 1.07755 24.6966 1.07755 24.5344C1.07755 23.246 1.82287 22.354 2.70289 21.3088C2.90044 21.0475 3.12494 20.8042 3.32249 20.5429C4.16659 19.4527 5.15437 17.5786 5.15437 14.8125C5.15437 14.3079 5.11845 13.7853 5.05559 13.2627C4.95682 12.4158 4.77722 11.5238 4.58864 10.6588C4.32823 9.37035 4.08578 8.15398 4.08578 7.18989C4.1217 5.85639 4.44497 5.35182 5.41479 5.20766C5.55846 5.18964 5.6752 5.17161 5.81888 5.17161C6.92339 5.18964 7.02217 5.82035 7.16585 6.72136C7.18381 6.83849 7.18381 6.98266 7.18381 7.14484C7.18381 8.03684 6.92339 9.2442 6.68094 10.1903C6.5193 10.875 6.37562 11.4787 6.37562 11.8211C6.37562 12.7672 6.99523 13.4519 7.92015 13.4519C8.01893 13.4519 8.14464 13.4519 8.26138 13.4159C8.96181 13.2717 9.46467 12.7131 9.86876 12.2626C10.1471 11.9382 10.4345 11.6139 10.6769 11.6139C10.7398 11.6139 10.7757 11.5959 10.8386 11.5959C11.3235 11.5959 11.6827 11.8752 11.7455 12.2806C11.7635 12.3617 11.7635 12.4608 11.7635 12.5599C11.7815 14.2178 9.85081 16.5604 6.45644 18.9391C5.10947 19.8852 4.42701 20.8943 4.40905 21.9035C4.40905 22.0656 4.42701 22.2278 4.47191 22.372C4.73232 23.4442 5.63928 24.0299 7.10299 24.0479H7.18381C7.74953 24.0479 8.432 23.8857 9.07854 23.7415C9.72509 23.5974 10.3627 23.4622 10.9104 23.4622C11.6108 23.4983 11.8174 23.6244 11.8802 24.147C11.8982 24.2281 11.8982 24.3092 11.8982 24.4083C11.9162 24.6696 11.8353 24.8318 11.7186 24.9939C11.3774 25.3814 10.5333 25.4174 9.86876 25.4174C9.62631 25.4354 9.42876 25.4354 9.22222 25.4535C8.41404 25.5346 7.83035 26.1833 7.83035 26.9672C7.83035 27.0483 7.83035 27.1294 7.84831 27.2285C8.07281 28.6431 9.43773 28.7061 10.5243 28.7782L10.7667 28.7962C12.1137 28.8773 12.7603 29.0395 12.877 29.8684C12.895 29.9495 12.895 30.0306 12.895 30.1297C12.895 31.0398 12.2753 31.5804 11.6288 31.6615C11.4851 31.6795 11.3504 31.6975 11.2068 31.6975H11.1708C9.80591 31.6795 8.75527 30.6703 7.55198 29.517" fill="white"/>
<path id="Vector_12" d="M32.6415 1.02734H21.3C20.8151 1.02734 20.438 1.14448 20.1776 1.38775C19.9172 1.63102 19.7914 1.91034 19.7914 2.21668C19.7914 2.29778 19.7914 2.37887 19.8094 2.47798C19.8094 2.55907 19.8274 2.64016 19.8274 2.70323C19.8274 2.78432 19.8453 2.84739 19.8633 2.92849H25.0895V17.6421H27.2626V2.92849H31.1688C31.6717 2.92849 32.0578 2.81135 32.2913 2.54105C32.5517 2.27975 32.6774 1.97341 32.6774 1.59498C32.6774 1.53191 32.6774 1.45082 32.6595 1.33369C32.6774 1.21656 32.6595 1.10844 32.6415 1.02734Z" fill="white"/>
<path id="Vector_13" d="M44.4769 8.29759C44.3961 7.95521 44.2524 7.61282 44.0549 7.30648C43.8573 7.00013 43.6148 6.7028 43.2916 6.47754C42.9863 6.23427 42.6091 6.05407 42.1871 5.89188C41.765 5.7297 41.2442 5.66663 40.6784 5.66663C39.9331 5.66663 39.2327 5.78376 38.5682 6.05407C37.9037 6.31536 37.3649 6.65775 36.9429 7.14429V1.69315C36.9608 1.07145 36.8261 0.620945 36.5208 0.377671C36.2155 0.116376 35.8204 -0.00976562 35.3175 -0.00976562C35.2367 -0.00976562 35.0751 -0.00976562 34.8775 0.00825468V17.5871H36.9878V9.35178C36.9878 9.12653 37.0686 8.9283 37.2122 8.70305C37.3559 8.4778 37.5714 8.2976 37.8319 8.11739C38.0923 7.95521 38.4335 7.81105 38.8196 7.69391C39.2058 7.5948 39.6278 7.53173 40.1037 7.53173C40.8042 7.53173 41.3519 7.63084 41.7111 7.87412C42.0703 8.11739 42.3128 8.44176 42.4385 8.86523C42.5193 9.12653 42.5552 9.38782 42.5822 9.67615C42.5822 9.95546 42.6001 10.2798 42.6001 10.5862V17.551H44.7104V10.5051C44.7104 10.1176 44.7104 9.73922 44.6924 9.33376C44.6296 8.99138 44.5757 8.63097 44.4949 8.28858" fill="white"/>
<path id="Vector_14" d="M56.3392 7.24462C55.9531 6.77609 55.4771 6.39766 54.8665 6.13637C54.2559 5.87507 53.5375 5.71289 52.7114 5.71289C52.0289 5.71289 51.3823 5.812 50.7358 6.05528C50.1162 6.29855 49.5325 6.65896 49.0476 7.1455C48.5627 7.63205 48.1406 8.25375 47.8443 9.01962C47.548 9.78548 47.4043 10.6775 47.4043 11.7227C47.4043 12.876 47.548 13.8581 47.8443 14.669C48.1227 15.4529 48.5447 16.1196 49.0476 16.6242C49.5505 17.1107 50.1521 17.4711 50.8346 17.7144C51.517 17.9577 52.2624 18.0568 53.0256 18.0568C53.8697 18.0568 54.5971 17.9757 55.1808 17.7775C55.7824 17.5793 56.2674 17.354 56.6265 17.0747C56.8241 16.9305 56.9678 16.7954 57.0486 16.6512C57.1294 16.5071 57.1653 16.3899 57.1653 16.2277C57.1653 16.0836 57.0845 15.8673 56.9408 15.6241C56.7972 15.3628 56.6355 15.1195 56.4559 14.8762C56.3572 14.9933 56.1955 15.1375 56.0159 15.2997C55.8363 15.4619 55.6118 15.606 55.3694 15.7412C55.109 15.8854 54.8036 16.0025 54.4445 16.1286C54.0853 16.2097 53.6812 16.2728 53.1963 16.2728C51.966 16.2728 51.0681 15.9124 50.5023 15.1645C49.9007 14.4167 49.5954 13.4526 49.5594 12.2543H57.327C57.3629 12.029 57.3898 11.8308 57.3898 11.5695C57.3898 11.3262 57.4078 11.101 57.4078 10.8667C57.4078 10.1999 57.327 9.57825 57.1474 8.94754C56.9678 8.26276 56.7074 7.71314 56.3212 7.25363M49.5415 10.6054C49.6223 9.61429 49.9276 8.8304 50.4844 8.28078C51.0501 7.71314 51.7505 7.43383 52.6126 7.43383C53.1154 7.43383 53.5555 7.51492 53.8967 7.69512C54.2559 7.85731 54.5432 8.10058 54.7408 8.3799C54.9653 8.65921 55.1 9.0016 55.1808 9.38903C55.2616 9.77647 55.3245 10.1729 55.3245 10.6414L49.5325 10.6054H49.5415Z" fill="white"/>
<path id="Vector_15" d="M73.9037 9.86562C74.3258 9.60433 74.7119 9.26194 75.0531 8.8745C75.3944 8.46905 75.6548 8.00953 75.8344 7.45991C76.0319 6.9193 76.1128 6.28859 76.1128 5.60382C76.1128 3.97298 75.6278 2.77463 74.6401 2.00877C73.6523 1.24291 72.0269 0.855469 69.773 0.855469C69.1534 0.855469 68.4889 0.873489 67.7975 0.91854C67.106 0.963591 66.4685 0.999631 65.8848 1.09874V17.6324H68.0399V10.8477H70.231L74.0743 16.9025C74.4964 17.5513 75.0621 17.8756 75.8434 17.8756C76.023 17.8756 76.2295 17.8576 76.445 17.8126C76.6605 17.7675 76.8491 17.7315 77.0287 17.6324L72.5029 10.4513C72.9878 10.3071 73.4458 10.1269 73.8947 9.86562M69.791 9.00065H68.004V2.80166H67.9681C68.2285 2.76562 68.4889 2.73859 68.7763 2.72057C69.0636 2.70255 69.4228 2.70255 69.8179 2.70255C70.4196 2.70255 70.9853 2.73859 71.4882 2.81968C71.991 2.90077 72.431 3.06296 72.7723 3.26118C73.1315 3.48643 73.3919 3.80179 73.5805 4.20725C73.778 4.6127 73.8588 5.11727 73.8588 5.72095C73.8588 6.32463 73.778 6.8292 73.5535 7.23466C73.356 7.65813 73.0686 8.00052 72.7094 8.24379C72.3502 8.50509 71.9282 8.68529 71.4253 8.82945C70.9583 8.92857 70.4016 8.99164 69.8 8.99164" fill="white"/>
<path id="Vector_16" d="M87.3375 7.24462C86.9514 6.77609 86.4754 6.39766 85.8648 6.13637C85.2632 5.85705 84.5358 5.71289 83.7097 5.71289C83.0272 5.71289 82.3806 5.812 81.7341 6.05528C81.1145 6.29855 80.5308 6.65896 80.0459 7.1455C79.561 7.63205 79.1389 8.25375 78.8426 9.01962C78.5463 9.78548 78.4026 10.6775 78.4026 11.7227C78.4026 12.876 78.5463 13.8581 78.8426 14.669C79.121 15.4529 79.543 16.1196 80.0459 16.6242C80.5488 17.1107 81.1504 17.4711 81.8329 17.7144C82.5153 17.9397 83.2607 18.0568 84.0239 18.0568C84.868 18.0568 85.5954 17.9757 86.1791 17.7775C86.7628 17.5793 87.2656 17.354 87.6248 17.0747C87.8224 16.9305 87.9661 16.7954 88.0469 16.6512C88.1277 16.5071 88.1636 16.3899 88.1636 16.2277C88.1636 16.0836 88.0828 15.8673 87.9391 15.6241C87.7955 15.3628 87.6338 15.1195 87.4542 14.8762C87.3554 14.9933 87.1938 15.1375 87.0142 15.2997C86.8346 15.4619 86.6101 15.606 86.3677 15.7412C86.1073 15.8854 85.8019 16.0025 85.4428 16.1286C85.0836 16.2097 84.6795 16.2728 84.1946 16.2728C82.9643 16.2728 82.0663 15.9124 81.5006 15.1645C80.899 14.4167 80.5937 13.4526 80.5577 12.2543H88.3612C88.3971 12.029 88.424 11.8308 88.424 11.5695C88.424 11.3262 88.442 11.101 88.442 10.8667C88.442 10.1999 88.3612 9.57825 88.1816 8.94754C87.9571 8.26276 87.6967 7.71314 87.3195 7.25363M80.5398 10.6054C80.6206 9.61429 80.9259 8.8304 81.4827 8.28078C82.0484 7.71314 82.7488 7.43383 83.6109 7.43383C84.1137 7.43383 84.5538 7.51492 84.895 7.69512C85.2542 7.85731 85.5415 8.10058 85.7391 8.3799C85.9636 8.65921 86.0983 9.0016 86.1791 9.38903C86.2599 9.77647 86.3228 10.1729 86.3228 10.6414L80.5308 10.6054H80.5398Z" fill="white"/>
<path id="Vector_17" d="M100.367 0.387437C100.062 0.126142 99.6668 0 99.1639 0C99.0831 0 98.9215 0 98.7239 0.0180203V6.90178C98.4006 6.59543 97.9606 6.2981 97.4398 6.05482C96.919 5.79353 96.2904 5.66739 95.545 5.66739C94.8985 5.66739 94.2789 5.78452 93.6773 6.05482C93.0756 6.31612 92.5548 6.67652 92.0878 7.18109C91.6209 7.68566 91.2796 8.33439 91.0013 9.13629C90.7229 9.9382 90.5792 10.8753 90.5792 11.9655C90.5792 13.0557 90.696 14.0018 90.9833 14.7947C91.2707 15.5876 91.6029 16.1912 92.0699 16.6508C92.5099 17.1193 93.0397 17.4617 93.6413 17.6779C94.243 17.8942 94.8446 18.0023 95.4912 18.0023C95.9132 18.0023 96.2724 17.9392 96.6136 17.8581C96.9549 17.777 97.2602 17.6599 97.5565 17.5157C97.8169 17.3986 98.0594 17.2364 98.2569 17.0742C98.4545 16.9121 98.6161 16.7679 98.7419 16.6327V17.6239H100.789V1.69391C100.807 1.07221 100.673 0.648731 100.367 0.378426M98.7419 8.77589V14.5694C98.7419 14.7676 98.661 14.9749 98.5443 15.1731C98.4276 15.3713 98.221 15.5605 97.9606 15.6957C97.7002 15.8398 97.4218 15.957 97.0716 16.0831C96.7304 16.1642 96.3712 16.2273 95.9671 16.2273C95.3655 16.2273 94.8626 16.1282 94.4765 15.8849C94.0724 15.6596 93.7311 15.3443 93.5066 14.9388C93.2462 14.5334 93.0846 14.0468 92.9858 13.5062C92.905 12.9656 92.8421 12.3799 92.8421 11.7132C92.8421 10.3166 93.1025 9.27145 93.6503 8.56865C94.1981 7.86586 94.9344 7.49645 95.8863 7.49645C96.2904 7.49645 96.6496 7.53249 96.9549 7.64061C97.2602 7.7217 97.5565 7.83883 97.781 7.98299C98.0235 8.10013 98.2031 8.24429 98.3827 8.40647C98.5443 8.56865 98.661 8.71282 98.7419 8.79391V8.77589Z" fill="white"/>
<path id="Vector_18" d="M118.03 9.73192C117.626 9.34449 117.186 9.02913 116.665 8.78586C116.145 8.54258 115.597 8.31733 115.04 8.13713C114.483 7.95692 113.954 7.77672 113.514 7.59652C113.074 7.41631 112.687 7.20908 112.391 6.99284C112.095 6.77659 111.825 6.50629 111.664 6.22697C111.502 5.92063 111.403 5.57824 111.403 5.15477C111.403 4.84842 111.466 4.53307 111.565 4.2087C111.664 3.88434 111.843 3.62304 112.086 3.42482C112.328 3.19956 112.652 3.01936 113.029 2.88421C113.406 2.74906 113.891 2.65895 114.474 2.65895C114.959 2.65895 115.417 2.72203 115.839 2.83916C116.261 2.95629 116.621 3.10045 116.944 3.26263C117.267 3.42482 117.545 3.587 117.788 3.7672C118.03 3.94741 118.21 4.09157 118.327 4.2087C118.569 3.96543 118.749 3.74017 118.91 3.52393C119.072 3.28066 119.153 3.08243 119.153 2.8752C119.153 2.6139 119.072 2.40667 118.892 2.22647C118.713 2.02824 118.488 1.86606 118.228 1.68586C117.743 1.37951 117.123 1.16327 116.441 1.00109C115.759 0.838904 115.094 0.757812 114.465 0.757812C113.702 0.757812 113.02 0.838904 112.355 1.03713C111.691 1.23535 111.152 1.52368 110.685 1.9021C110.218 2.28053 109.841 2.74906 109.58 3.33472C109.32 3.92038 109.158 4.56911 109.158 5.31695C109.158 6.06479 109.275 6.71352 109.562 7.23611C109.823 7.74068 110.164 8.18218 110.604 8.52456C111.044 8.86695 111.547 9.14626 112.095 9.38954C112.66 9.63281 113.244 9.81301 113.864 9.99322C114.385 10.1554 114.852 10.3356 115.274 10.5158C115.696 10.696 116.037 10.9213 116.297 11.1645C116.558 11.4258 116.782 11.7322 116.899 12.0746C117.043 12.4169 117.123 12.8404 117.123 13.2819C117.123 13.6423 117.061 14.0117 116.944 14.3271C116.845 14.6695 116.639 14.9758 116.378 15.2371C116.118 15.4984 115.776 15.7237 115.354 15.8859C114.932 16.048 114.385 16.1472 113.747 16.1472C112.903 16.1472 112.122 15.985 111.394 15.6606C110.667 15.3362 110.029 14.9578 109.5 14.5343C109.302 14.7956 109.113 15.0389 108.979 15.3182C108.844 15.5975 108.754 15.8228 108.754 16.003C108.754 16.3274 108.952 16.6247 109.356 16.931C109.796 17.2554 110.425 17.5347 111.188 17.7149C111.951 17.9131 112.813 17.9942 113.72 17.9942C114.546 17.9942 115.31 17.8951 115.992 17.6699C116.674 17.4446 117.276 17.1293 117.761 16.6968C118.246 16.2733 118.65 15.7507 118.91 15.102C119.171 14.4532 119.332 13.7505 119.332 12.9215C119.332 12.1917 119.216 11.57 118.973 11.0474C118.731 10.5428 118.434 10.0743 118.03 9.7139" fill="white"/>
<path id="Vector_19" d="M130.503 7.24462C130.117 6.77609 129.641 6.39766 129.031 6.13637C128.429 5.85705 127.702 5.71289 126.876 5.71289C126.193 5.71289 125.547 5.812 124.9 6.05528C124.253 6.29855 123.697 6.65896 123.212 7.1455C122.727 7.63205 122.305 8.25375 122.008 9.01962C121.712 9.78548 121.568 10.6775 121.568 11.7227C121.568 12.876 121.712 13.8581 122.008 14.669C122.287 15.4529 122.709 16.1196 123.212 16.6242C123.715 17.1288 124.316 17.4711 124.999 17.7144C125.681 17.9397 126.427 18.0568 127.19 18.0568C128.034 18.0568 128.761 17.9757 129.345 17.7775C129.947 17.5793 130.432 17.354 130.791 17.0747C130.988 16.9305 131.132 16.7954 131.213 16.6512C131.294 16.5071 131.33 16.3899 131.33 16.2277C131.33 16.0836 131.249 15.8673 131.105 15.6241C130.961 15.3628 130.8 15.1195 130.62 14.8762C130.521 14.9933 130.36 15.1375 130.18 15.2997C130.001 15.4619 129.776 15.606 129.534 15.7412C129.273 15.8854 128.968 16.0025 128.609 16.1286C128.249 16.2097 127.845 16.2728 127.36 16.2728C126.13 16.2728 125.232 15.9124 124.667 15.1645C124.065 14.4167 123.76 13.4526 123.724 12.2543H131.527C131.563 12.029 131.59 11.8308 131.59 11.5695C131.59 11.3262 131.608 11.101 131.608 10.8667C131.608 10.1999 131.527 9.57825 131.347 8.94754C131.15 8.26276 130.863 7.71314 130.485 7.25363M123.706 10.6054C123.786 9.61429 124.092 8.8304 124.649 8.28078C125.214 7.71314 125.915 7.43383 126.777 7.43383C127.28 7.43383 127.72 7.51492 128.061 7.69512C128.42 7.85731 128.707 8.10058 128.905 8.3799C129.129 8.65921 129.264 9.0016 129.345 9.38903C129.426 9.77647 129.489 10.1729 129.489 10.6414L123.697 10.6054H123.706Z" fill="white"/>
<path id="Vector_20" d="M143.515 16.5701C143.353 16.5341 143.237 16.471 143.129 16.3449C143.048 16.2458 142.985 16.0836 142.949 15.8583C142.913 15.6331 142.887 15.3177 142.887 14.9123V10.0288C142.887 9.32596 142.806 8.69525 142.662 8.15464C142.518 7.61403 142.276 7.16353 141.917 6.7851C141.575 6.42469 141.135 6.1634 140.552 5.97418C139.986 5.79398 139.286 5.71289 138.442 5.71289C137.957 5.71289 137.454 5.74893 136.933 5.83002C136.43 5.91111 135.963 6.02825 135.523 6.17241C135.101 6.31657 134.76 6.49677 134.499 6.67698C134.239 6.8752 134.095 7.08243 134.095 7.28066C134.095 7.42482 134.131 7.62304 134.239 7.88434C134.32 8.14563 134.437 8.37089 134.58 8.56911H134.841C135.326 8.24474 135.81 7.96543 136.313 7.80325C136.816 7.60502 137.436 7.52393 138.181 7.52393C139.187 7.52393 139.869 7.72215 140.211 8.10959C140.57 8.51505 140.749 9.05566 140.749 9.8035V10.1909C140.606 10.1729 140.426 10.1729 140.229 10.1729H139.708C139.106 10.1909 138.424 10.254 137.696 10.3711C136.951 10.4703 136.268 10.6955 135.622 11.0199C134.975 11.3262 134.437 11.7677 133.997 12.3083C133.574 12.8489 133.35 13.5607 133.35 14.4257C133.35 15.1285 133.449 15.6961 133.691 16.1376C133.934 16.5791 134.212 16.9215 134.58 17.2098C134.948 17.4982 135.343 17.6513 135.766 17.7505C136.188 17.8496 136.628 17.8946 137.05 17.8946C137.993 17.8946 138.738 17.7505 139.322 17.4711C139.905 17.1918 140.408 16.8494 140.794 16.426C140.875 16.9485 141.073 17.336 141.459 17.5342C141.845 17.7324 142.285 17.8406 142.788 17.8406C143.03 17.8406 143.228 17.8225 143.452 17.7775C143.677 17.7414 143.856 17.6964 143.991 17.6604V16.6692C143.874 16.6062 143.668 16.5881 143.506 16.5701M140.848 14.2906C140.848 14.4888 140.767 14.696 140.588 14.8942C140.408 15.1195 140.166 15.3177 139.887 15.4979C139.609 15.6781 139.241 15.8403 138.864 15.9394C138.459 16.0565 138.082 16.1196 137.633 16.1196C136.825 16.1196 136.268 15.9214 135.981 15.534C135.676 15.1465 135.541 14.723 135.541 14.2185C135.541 13.7139 135.685 13.2724 135.963 12.93C136.241 12.6057 136.61 12.3444 137.05 12.1642C137.472 11.984 137.993 11.8578 138.522 11.7767C139.052 11.6956 139.609 11.6956 140.13 11.6956H140.857V14.2815L140.848 14.2906Z" fill="white"/>
<path id="Vector_21" d="M68.9738 28.5797C68.9738 28.7239 68.9558 28.8861 68.9109 29.0482C68.875 29.2104 68.8122 29.3546 68.6864 29.4897C68.6056 29.6339 68.462 29.751 68.3003 29.8321C68.1387 29.9132 67.9411 29.9492 67.7166 29.9492C67.4742 29.9492 67.2946 29.9132 67.1329 29.8321C66.9713 29.751 66.8546 29.6339 66.7468 29.4897C66.6391 29.3456 66.5852 29.2104 66.5493 29.0482C66.5133 28.8861 66.4864 28.7239 66.4864 28.5797V25.5703H65.8219V28.6968C65.8219 28.9762 65.8848 29.2374 65.9656 29.4627C66.0464 29.706 66.208 29.8862 66.3697 30.0664C66.5313 30.2466 66.7558 30.3727 66.9713 30.4718C67.2138 30.5529 67.4562 30.616 67.7346 30.616C68.013 30.616 68.2554 30.5529 68.4979 30.4718C68.7403 30.3907 68.9199 30.2466 69.0995 30.0664C69.2791 29.8862 69.4048 29.6789 69.5036 29.4627C69.5844 29.2194 69.6473 28.9762 69.6473 28.6968V25.5703H68.9828L68.9648 28.5797H68.9738Z" fill="white"/>
<path id="Vector_22" d="M75.9691 29.5888L73.2752 25.5703H72.3951V30.4718H73.0596V26.4353H73.0776L75.7895 30.4718H76.6336V25.5703H75.9691V29.5888Z" fill="white"/>
<path id="Vector_23" d="M79.4891 30.4718H80.1536V28.3544H82.4076V27.7328H80.1536V26.174H82.5692V25.5703H79.4891V30.4718Z" fill="white"/>
<path id="Vector_24" d="M89.1424 26.1744C88.9179 25.9311 88.6575 25.7509 88.3342 25.6338C88.0289 25.5166 87.6697 25.4355 87.3105 25.4355C86.9244 25.4355 86.5831 25.5166 86.2868 25.6338C85.9905 25.7509 85.7031 25.9401 85.4786 26.1744C85.2541 26.4086 85.0745 26.6789 84.9578 26.9853C84.8411 27.2916 84.7603 27.634 84.7603 28.0125C84.7603 28.3729 84.8411 28.7152 84.9578 29.0396C85.0745 29.346 85.2631 29.6433 85.4786 29.8505C85.7031 30.0938 85.9635 30.274 86.2868 30.3911C86.5921 30.5083 86.9513 30.5894 87.3105 30.5894C87.6967 30.5894 88.0379 30.5083 88.3342 30.3911C88.6305 30.274 88.9179 30.0848 89.1424 29.8505C89.3669 29.6163 89.5465 29.346 89.6632 29.0396C89.78 28.7333 89.8608 28.3909 89.8608 28.0125C89.8608 27.652 89.78 27.3097 89.6632 26.9853C89.5195 26.6789 89.3579 26.4177 89.1424 26.1744ZM88.9987 28.7783C88.9179 29.0216 88.7742 29.2198 88.6126 29.382C88.451 29.5622 88.2534 29.6883 88.0289 29.8055C87.7864 29.9046 87.544 29.9677 87.2656 29.9677C86.9872 29.9677 86.7268 29.9046 86.5023 29.8055C86.2778 29.7064 86.0803 29.5442 85.9186 29.382C85.757 29.2198 85.6403 28.9946 85.5325 28.7783C85.4248 28.5621 85.4158 28.2918 85.4158 28.0125C85.4158 27.7331 85.4517 27.4899 85.5325 27.2466C85.6133 27.0033 85.757 26.8051 85.9186 26.6429C86.0803 26.4627 86.2778 26.3366 86.5023 26.2194C86.7268 26.1203 86.9872 26.0572 87.2656 26.0572C87.544 26.0572 87.8044 26.1203 88.0289 26.2194C88.2714 26.3185 88.451 26.4807 88.6126 26.6429C88.7742 26.8231 88.891 27.0303 88.9987 27.2466C89.0795 27.4899 89.1155 27.7331 89.1155 28.0125C89.1514 28.2918 89.0975 28.5531 88.9987 28.7783Z" fill="white"/>
<path id="Vector_25" d="M94.9973 28.0751C95.141 27.994 95.2577 27.8949 95.3834 27.7688C95.4822 27.6517 95.563 27.5075 95.6259 27.3633C95.6887 27.2192 95.7067 27.084 95.7067 26.9218C95.7067 26.7777 95.6887 26.6155 95.6259 26.4533C95.563 26.2911 95.5091 26.147 95.3654 26.0118C95.2487 25.8947 95.105 25.7685 94.8805 25.6874C94.683 25.6064 94.4136 25.5703 94.1173 25.5703H92.3842V30.4538H93.0487V28.2914H93.794L95.0422 30.4538H95.8683L94.4764 28.2103C94.674 28.2103 94.8356 28.1742 94.9973 28.0661M93.9556 27.7237H93.0666V26.1289H93.9556C94.0724 26.1289 94.216 26.147 94.3418 26.165C94.4585 26.183 94.5842 26.2281 94.683 26.2641C94.7638 26.3272 94.8626 26.4083 94.9254 26.5074C94.9883 26.6065 95.0063 26.7506 95.0063 26.9308C95.0063 27.111 94.9703 27.2372 94.9254 27.3543C94.8626 27.4534 94.7818 27.5345 94.683 27.5976C94.5842 27.6607 94.4585 27.6787 94.3418 27.6967C94.1981 27.6967 94.0813 27.7147 93.9556 27.7147" fill="white"/>
<path id="Vector_26" d="M100.654 28.3543H101.741V29.7238C101.597 29.8049 101.418 29.868 101.202 29.922C100.978 29.9581 100.78 30.0031 100.538 30.0031C100.277 30.0031 100.017 29.9401 99.7745 29.859C99.532 29.7598 99.3524 29.6157 99.1728 29.4355C98.9932 29.2553 98.8675 29.048 98.7687 28.8318C98.6879 28.5885 98.625 28.3453 98.625 28.0659C98.625 27.8046 98.661 27.5434 98.7418 27.3001C98.8226 27.0568 98.9663 26.8586 99.1279 26.6964C99.2895 26.5162 99.4871 26.3901 99.7116 26.2729C99.9541 26.1738 100.197 26.1107 100.475 26.1107C100.735 26.1107 100.96 26.1468 101.202 26.2098C101.445 26.2909 101.624 26.4351 101.849 26.6333L102.316 26.1288C102.118 25.9305 101.894 25.7684 101.588 25.6602C101.31 25.5611 100.942 25.498 100.484 25.498C100.098 25.498 99.7565 25.5791 99.4602 25.6963C99.1638 25.8134 98.8765 26.0026 98.652 26.2369C98.4275 26.4711 98.2479 26.7414 98.1312 27.0478C98.0144 27.3541 97.9336 27.6965 97.9336 28.075C97.9336 28.4173 97.9965 28.7597 98.1132 29.0661C98.2299 29.3724 98.3916 29.6697 98.6161 29.895C98.8406 30.1383 99.1189 30.3185 99.4422 30.4626C99.7655 30.6068 100.143 30.6879 100.547 30.6879C100.69 30.6879 100.852 30.6699 101.014 30.6519C101.175 30.6338 101.355 30.5888 101.517 30.5708C101.678 30.5527 101.84 30.4897 101.983 30.4266C102.127 30.3635 102.262 30.3095 102.406 30.2284V27.8046H100.654L100.672 28.3453L100.654 28.3543Z" fill="white"/>
<path id="Vector_27" d="M105.881 28.2734H108.198V27.6517H105.881V26.174H108.377V25.5703H105.216V30.4718H108.494V29.8501H105.881V28.2734Z" fill="white"/>
<path id="Vector_28" d="M110.487 26.174H112.059V30.4718H112.723V26.174H114.286V25.5703H110.487V26.174Z" fill="white"/>
<path id="Vector_29" d="M116.037 26.174H117.626V30.4718H118.291V26.174H119.862V25.5703H116.037V26.174Z" fill="white"/>
<path id="Vector_30" d="M123.679 25.5703L121.524 30.4718H122.287L122.772 29.2645H125.107L125.591 30.4718H126.355L124.262 25.5703H123.679ZM123.014 28.6788L123.957 26.4173H123.975L124.9 28.6788H123.005H123.014Z" fill="white"/>
<path id="Vector_31" d="M131.707 28.2562C131.626 28.1571 131.509 28.058 131.365 27.9949C131.249 27.9138 131.105 27.8958 130.943 27.8958V27.8778C131.204 27.7967 131.383 27.6525 131.545 27.4723C131.707 27.2921 131.787 27.0489 131.787 26.7876C131.787 26.5893 131.752 26.3821 131.689 26.247C131.608 26.1028 131.509 25.9676 131.383 25.8595C131.258 25.7514 131.105 25.6793 130.916 25.6162C130.737 25.5532 130.53 25.5352 130.315 25.5352H128.609V30.4637H130.279C130.521 30.4637 130.746 30.4277 130.943 30.3826C131.141 30.3195 131.347 30.2385 131.482 30.1213C131.644 30.0222 131.761 29.86 131.868 29.6978C131.949 29.5357 132.012 29.3374 132.012 29.0942C132.012 28.932 131.976 28.7698 131.931 28.6256C131.895 28.5085 131.832 28.4004 131.707 28.2652M129.291 26.1659H130.333C130.593 26.1659 130.8 26.247 130.934 26.3911C131.051 26.5353 131.114 26.6975 131.114 26.8957C131.114 27.0128 131.096 27.157 131.033 27.2381C130.97 27.3192 130.934 27.4003 130.836 27.4813C130.755 27.5444 130.656 27.5805 130.557 27.5985C130.458 27.6165 130.315 27.6345 130.198 27.6345H129.291V26.1569V26.1659ZM131.204 29.4996C131.123 29.5987 131.042 29.6978 130.943 29.7609C130.845 29.824 130.719 29.86 130.602 29.878C130.485 29.8961 130.36 29.9141 130.261 29.9141H129.291V28.2022H130.279C130.602 28.2022 130.863 28.2833 131.042 28.4274C131.24 28.5716 131.321 28.7878 131.321 29.0761C131.321 29.2563 131.285 29.4005 131.204 29.4996Z" fill="white"/>
<path id="Vector_32" d="M135.245 25.5703H134.589V30.4718H137.481V29.8501H135.245V25.5703Z" fill="white"/>
<path id="Vector_33" d="M140.417 29.8501V28.2734H142.752V27.6517H140.417V26.174H142.931V25.5703H139.753V30.4718H143.057V29.8501H140.417Z" fill="white"/>
</g>
<defs>
<clipPath id="clip0_729_13380">
<rect width="144" height="71" fill="white"/>
</clipPath>
</defs>
</svg>
