<svg width="164" height="54" viewBox="0 0 164 54" fill="none" xmlns="http://www.w3.org/2000/svg">
<g id="Layer_1k" clip-path="url(#clip0_729_5701)">
<g id="Group">
<g id="Group_2">
<path id="Vector" d="M50.25 24.1003C50.25 24.7503 49.74 25.2803 49.1 25.2803H39.01V24.1003H41.71V16.3003H43.79L44.02 16.4803V24.1003H46.8C47.45 24.1003 47.98 23.5903 47.98 22.9503V10.4903C47.98 9.16031 47.65 8.94031 47.08 8.69031V8.38031L50.06 7.07031L50.29 7.25031V24.1203H50.25V24.1003Z" fill="white"/>
<path id="Vector_2" d="M100.05 22.3408V7.23078L99.82 7.05078L96.86 8.36078V8.67078C97.43 8.93078 97.76 9.14078 97.76 10.4708V22.3208C97.76 23.9908 97.6 24.6708 96.84 24.9308V25.2608H100.97V24.9308C100.21 24.6708 100.05 23.9908 100.05 22.3208V22.3408Z" fill="white"/>
<path id="Vector_3" d="M87.25 27.9599C87.25 27.2399 86.72 26.6699 85.98 26.6699C85.27 26.6699 84.71 27.2399 84.71 27.9599C84.71 28.6799 85.28 29.2299 85.98 29.2299C86.68 29.2299 87.25 28.6599 87.25 27.9599Z" fill="white"/>
<path id="Vector_4" d="M44.59 13.6802V12.7602C44.59 12.7602 42.47 13.4802 42 12.0102C42 12.0102 41.71 11.1502 42.35 10.5202C42.78 10.0902 43.53 10.0902 44.39 10.6402L44.76 10.3702C44.21 9.94016 43.57 9.66016 42.84 9.66016C41.47 9.66016 40.63 10.5002 40.63 11.8702C40.63 11.8702 40.61 12.8902 41.47 13.4402L40.33 13.7302V14.3402C41.04 14.0502 41.96 13.8702 42.95 13.7702C43.5 13.7102 44.03 13.6702 44.58 13.6702L44.59 13.6802Z" fill="white"/>
<path id="Vector_5" d="M87.65 25.2708H93.49C94.14 25.2708 94.64 24.7408 94.64 24.0908V7.23078L94.41 7.05078L91.43 8.36078V8.67078C92 8.93078 92.33 9.14078 92.33 10.4708V22.9308C92.33 23.5808 91.8 24.0808 91.15 24.0808H88.86C88.21 24.0808 87.71 23.5708 87.71 22.9308V15.1908L87.48 15.0108L84.5 16.3208V16.6308C85.07 16.8908 85.4 17.1008 85.4 18.4308L85.38 22.9208C85.38 23.5708 84.87 24.0708 84.23 24.0708H81L75.93 17.1708C74.29 14.8808 72.6 14.2508 70.6 15.6608C69.78 16.2508 69.15 17.2708 68.74 18.4208L69.01 18.8108C69.3 18.0308 69.73 17.4208 70.26 17.0308C71.71 15.9908 72.75 16.7608 74.18 18.7708L78.12 24.0608H65.25V15.1708L65.02 14.9908L62.04 16.3008V16.6108C62.61 16.8708 62.94 17.0808 62.94 18.4108V24.7208C62.94 28.7008 60.96 30.1908 57.98 30.1908H57.96V30.6608C58.25 30.7008 58.55 30.7208 58.86 30.7208C61.84 30.7208 64.89 29.4108 65.21 25.2708H84.31C85.07 25.2708 85.39 25.1908 85.95 24.9608C86.58 25.1608 86.89 25.2208 87.65 25.2308V25.2708Z" fill="white"/>
<path id="Vector_6" d="M56.5899 24.9408C55.8299 24.6808 55.6699 24.0008 55.6699 22.3308V7.23078L55.4399 7.05078L52.4599 8.36078V8.67078C53.0299 8.93078 53.3599 9.14078 53.3599 10.4708V22.3208C53.3599 23.9908 53.1999 24.6708 52.4399 24.9308V25.2608H56.5899V24.9308V24.9408Z" fill="white"/>
<path id="Vector_7" d="M32.09 17.2015L37.16 24.1015V25.2815H7.25C6.94 29.4115 3.88 30.7315 0.9 30.7315C0.59 30.7315 0.29 30.7115 0 30.6715V30.2015H0.02C3 30.2015 4.96 28.7115 4.96 24.7315L4.98 18.4215C4.98 17.0915 4.65 16.8715 4.08 16.6215V16.3115L7.06 15.0015L7.29 15.1815V24.0715H11.27V20.9915C11.27 15.0515 16.28 15.3915 16.28 15.3915C18.96 15.4515 21.28 17.1115 21.28 17.1115V24.0615H34.31L30.37 18.7715C28.94 16.7515 27.9 15.9915 26.45 17.0315C25.92 17.4015 25.49 18.0115 25.2 18.8115L24.93 18.4215C25.34 17.2415 25.97 16.2515 26.79 15.6615C28.77 14.2715 30.47 14.9015 32.1 17.2115L32.09 17.2015ZM18.71 17.4215C17.26 16.5815 16.26 16.5815 16.26 16.5815C16.26 16.5815 13.79 16.2315 13.79 20.2615V24.1015H18.69V17.4215H18.71Z" fill="white"/>
</g>
<g id="Group_3">
<path id="Vector_8" d="M100.17 43.6504V31.5604L99.97 31.4004L97.35 32.5504V32.8204C97.84 33.0404 98.15 33.2304 98.15 34.4104V43.6404C98.15 45.1104 98.01 45.7204 97.33 45.9304V46.2204H100.97V45.9304C100.3 45.7104 100.17 45.1104 100.17 43.6404V43.6504Z" fill="white"/>
<path id="Vector_9" d="M60.71 47.4512C60.08 47.4512 59.59 47.9412 59.59 48.5912C59.59 49.2412 60.08 49.7112 60.71 49.7112C61.34 49.7112 61.83 49.2212 61.83 48.5912C61.85 47.9412 61.38 47.4512 60.71 47.4512Z" fill="white"/>
<path id="Vector_10" d="M79.85 38.5807V45.6107C79.85 49.7407 77.01 51.0407 74.25 51.0407C73.98 51.0407 73.72 51.0207 73.47 51.0007V50.5907H73.49C76.1 50.5907 77.84 49.2407 77.84 45.7307C77.84 45.7307 76.98 46.2607 75.92 46.2407C75.92 46.2407 71.96 46.4607 71.96 41.6407C71.96 36.8207 75.92 37.2107 75.92 37.2107C78.02 37.2507 79.86 38.5807 79.86 38.5807H79.85ZM77.83 38.8007C76.69 38.1307 75.91 38.1307 75.91 38.1307C75.91 38.1307 73.97 37.8407 73.97 41.0307V42.3407C73.97 45.5307 75.91 45.2407 75.91 45.2407C75.91 45.2407 76.69 45.2407 77.83 44.5707V38.7907V38.8007Z" fill="white"/>
<path id="Vector_11" d="M69.88 31.4102L70.08 31.5702V45.2002C70.08 45.7702 69.63 46.2402 69.06 46.2402H63.79C63.12 46.2402 62.85 46.1802 62.34 45.9702C61.83 46.1902 61.56 46.2402 60.89 46.2402H49.59C48.94 46.2402 48.51 45.7302 48.51 45.7302C48.51 45.7302 47.65 46.2602 46.59 46.2402C46.59 46.2402 42.63 46.4602 42.63 41.6402C42.63 36.8202 46.59 37.2102 46.59 37.2102C48.71 37.2502 50.55 38.5802 50.55 38.5802V45.2002H60.95C61.52 45.2002 61.97 44.7502 61.97 44.1802V40.2202C61.97 39.0402 61.68 38.8502 61.19 38.6302V38.3602L63.81 37.2102L64.01 37.3702V44.1902C64.01 44.7602 64.46 45.2102 65.03 45.2102H67.05C67.62 45.2102 68.07 44.7602 68.07 44.1902V34.4302C68.07 33.2502 67.78 33.0602 67.27 32.8402V32.5702L69.89 31.4202L69.88 31.4102ZM48.53 38.8002C47.39 38.1302 46.61 38.1302 46.61 38.1302C46.61 38.1302 44.67 37.8402 44.67 41.0302V42.3402C44.67 45.5302 46.61 45.2402 46.61 45.2402C46.61 45.2402 47.39 45.2402 48.53 44.5702V38.7902V38.8002Z" fill="white"/>
<path id="Vector_12" d="M92.31 32.5599V32.8299C92.8 33.0499 93.09 33.2399 93.09 34.4199V44.1799C93.09 44.7499 92.62 45.1999 92.07 45.1999H89.76C89.19 45.1999 88.74 44.7499 88.74 44.1799V40.9099C88.74 38.4799 87.6 37.2099 85.21 37.2099C83.92 37.2099 82.78 37.6799 81.82 38.4499L82.08 38.6499C82.77 38.1799 83.47 37.9799 84.18 37.9799C85.65 37.9799 86.67 38.7399 86.71 40.6999V44.1899C86.71 44.7599 86.26 45.2099 85.69 45.2099H81.77V46.2499H86.63C87.3 46.2499 87.57 46.1899 88.08 45.9799C88.59 46.1999 88.86 46.2499 89.53 46.2499H94.08C94.65 46.2499 95.1 45.7799 95.1 45.2099V31.5799L94.9 31.4199L92.31 32.5699V32.5599Z" fill="white"/>
<path id="Vector_13" d="M63.71 47.4512C63.08 47.4512 62.59 47.9412 62.59 48.5912C62.59 49.2412 63.08 49.7112 63.71 49.7112C64.34 49.7112 64.83 49.2212 64.83 48.5912C64.85 47.9412 64.38 47.4512 63.71 47.4512Z" fill="white"/>
<path id="Vector_14" d="M45.6801 36.1897C46.3101 36.1897 46.8001 35.6997 46.8001 35.0697C46.8001 34.4397 46.3301 33.9297 45.6801 33.9297C45.0301 33.9297 44.5601 34.4197 44.5601 35.0697C44.5601 35.7197 45.0501 36.1897 45.6801 36.1897Z" fill="white"/>
<path id="Vector_15" d="M47.5601 35.0697C47.5601 35.6997 48.0501 36.1897 48.6801 36.1897C49.3101 36.1897 49.8001 35.6997 49.8001 35.0697C49.8001 34.4397 49.3301 33.9297 48.6801 33.9297C48.0301 33.9297 47.5601 34.4197 47.5601 35.0697Z" fill="white"/>
</g>
</g>
<path id="SVGID" d="M112.68 39.28C115.82 40.42 119.07 42.86 119.14 47.35C119.77 47.88 120.41 48.37 121.08 48.84C121.06 48.35 121.04 47.88 121.04 47.39C120.96 41.57 116.52 38.1 111.6 36.95C111.93 37.77 112.29 38.54 112.68 39.28ZM109.84 23.57C110.35 24.02 110.84 24.55 111.31 25.02C111.82 25.55 112.27 26 112.66 26.31C114.07 27.46 115.81 27.8 117.52 28.11C119.36 28.44 120.95 28.74 121.77 30.03C122.24 30.74 122.28 31.5 122.34 32.36C122.4 33.28 122.48 34.34 123.09 35.42C123.87 36.83 124.66 37.52 125.38 38.16C125.89 38.61 126.36 39.04 126.89 39.73C126.93 39.79 130.79 44.92 128.22 48.88C128 49.21 127.79 49.39 127.57 49.43C127.22 49.47 126.75 49.14 126.59 48.98C125.79 48.16 124.92 44.46 124.57 42.1V42.06C123.81 38.16 120.14 36.57 117.18 35.3L116.69 35.08C113.83 33.83 111.05 32.34 109.83 29.91C109.97 31.2 110.22 32.5 110.54 33.73C112.07 35.02 113.99 35.98 115.93 36.83L116.42 37.05C119.22 38.26 122.12 39.52 122.69 42.42C122.87 43.52 123.73 48.79 125.24 50.34C125.36 50.46 126.28 51.36 127.51 51.36C127.59 51.36 127.67 51.36 127.77 51.34C128.34 51.28 129.14 50.99 129.83 49.95C131.2 47.82 131.38 45.17 130.36 42.27C129.61 40.17 128.48 38.67 128.42 38.61C127.77 37.77 127.18 37.24 126.66 36.79C125.97 36.18 125.39 35.67 124.76 34.54C124.37 33.83 124.31 33.11 124.25 32.29C124.19 31.31 124.11 30.17 123.37 29.06C122.1 27.1 119.94 26.71 117.87 26.32C116.34 26.05 114.91 25.77 113.87 24.93C113.58 24.67 113.15 24.24 112.68 23.78C111.9 22.98 111.05 22.11 110.21 21.49C110.05 22.16 109.94 22.88 109.86 23.61M145.24 22.51C144.48 25.16 145.75 28 146.81 29.27C147.61 30.23 148.51 30.99 149.4 31.74C149.6 31.9 149.79 32.07 149.99 32.23C151.69 33.7 152.77 35.6 153.48 38.4C154.13 41.02 154.75 43.49 154.89 46.14C154.89 46.24 154.89 46.36 154.91 46.47C155.54 45.88 156.12 45.28 156.67 44.65C156.41 42.36 155.89 40.2 155.32 37.93C154.52 34.72 153.26 32.52 151.23 30.78C151.03 30.6 150.82 30.45 150.62 30.27C149.78 29.56 148.98 28.88 148.29 28.06C147.47 27.08 146.57 24.85 147.1 23.02V23C147.24 22.45 147.79 21.57 148.94 21.57H149.06C149.98 21.61 151.43 22.41 153.02 25.9L153.08 26.02C156.25 32.86 159.31 35.29 161.62 36.48C161.85 35.89 162.05 35.29 162.25 34.66C160.21 33.54 157.63 31.29 154.81 25.22L154.77 25.12C153.16 21.63 151.28 19.81 149.19 19.69H148.97C146.93 19.67 145.64 21.12 145.27 22.51M111.71 16.63C113.02 16.83 114.36 17.02 115.59 17.41C119.92 18.76 122.33 21.29 123.88 26.11C124.68 28.6 126.13 30.83 127.94 32.4C128.74 33.09 129.64 33.54 130.53 33.95C131.08 34.22 131.59 34.46 132.08 34.77C134.25 36.14 135.59 38.79 135.39 41.35C135.23 43.47 134.18 45.38 133.06 47.44C132.84 47.85 132.61 48.26 132.39 48.65C131.74 49.86 131.04 51.41 130.71 53.1C131.32 53.24 131.95 53.36 132.57 53.45C132.8 52.3 133.29 51 134.08 49.55C134.3 49.16 134.51 48.75 134.73 48.36C135.88 46.23 137.1 44.03 137.3 41.5C137.53 38.25 135.85 34.9 133.11 33.17C132.54 32.82 131.96 32.52 131.39 32.25C130.59 31.86 129.82 31.49 129.22 30.98C127.65 29.65 126.42 27.71 125.73 25.55C124.49 21.73 122.42 17.58 116.21 15.62C115.02 15.25 113.76 15.03 112.58 14.86C112.27 15.41 111.99 16 111.74 16.62M118.69 6.84C120.88 8.84 123.02 11.23 123.98 14.09C124.27 14.99 124.47 15.93 124.67 16.93C125 18.56 125.34 20.24 126.2 21.77C127.67 24.36 130.27 25.84 132.78 27.27C135.15 28.62 137.4 29.92 138.64 32.01C140.11 34.52 139.79 37.55 139.48 40.77C139.17 44.02 138.83 47.37 140.36 50.35C140.83 51.27 141.46 52.09 142.04 52.86C142.1 52.94 142.18 53.04 142.24 53.12C142.91 52.98 143.57 52.81 144.22 52.61C144 52.3 143.77 52 143.55 51.71C142.98 50.96 142.43 50.26 142.04 49.48C140.77 46.99 141.06 44.05 141.37 40.96C141.7 37.59 142.06 34.08 140.27 31.05C138.78 28.5 136.21 27.03 133.73 25.62C131.34 24.25 129.07 22.96 127.85 20.82C127.13 19.57 126.83 18.1 126.54 16.55C126.34 15.53 126.13 14.49 125.79 13.47C124.73 10.3 122.5 7.75 120.19 5.59C119.64 6 119.15 6.41 118.68 6.84M152.71 10.19C153.69 12.03 157.69 16.81 160.06 18.48C160.14 18.54 160.24 18.62 160.37 18.71C161.09 19.24 161.84 19.75 162.56 20.22C162.3 19.22 161.99 18.24 161.62 17.28C161.56 17.24 161.52 17.2 161.46 17.16C161.32 17.06 161.2 16.96 161.13 16.93C159.03 15.46 155.23 10.92 154.37 9.31C153.72 8.07 153.27 6.84 152.92 5.59C152.16 5 151.35 4.44 150.51 3.95C151.04 5.99 151.59 8.08 152.7 10.2M124.35 2.95C125.19 4.52 126.09 6.05 127.05 7.55C127.52 8.27 127.99 8.96 128.69 9.51C129.41 10.08 130.24 10.35 131.02 10.65C131.59 10.85 132.12 11.04 132.57 11.32C134.29 12.4 134.69 14.51 135.14 16.98C135.47 18.84 135.83 20.76 136.82 22.37C137.57 23.58 138.62 24.53 139.64 25.43C140.85 26.51 141.99 27.53 142.46 28.86C142.6 29.23 142.69 29.68 142.81 30.13C142.95 30.72 143.08 31.31 143.3 31.85C144.08 33.89 145.79 34.79 146.79 35.32L146.89 35.38C150.85 37.5 150.18 40.91 149.42 44.86C149.11 46.47 148.77 48.15 148.85 49.68C148.87 50.05 148.91 50.39 148.97 50.68C149.58 50.37 150.16 50.01 150.75 49.66V49.6C150.69 48.29 150.98 46.8 151.3 45.21C152.06 41.31 153 36.47 147.81 33.69L147.69 33.63C146.77 33.14 145.61 32.53 145.07 31.14C144.91 30.71 144.78 30.2 144.66 29.67C144.54 29.18 144.43 28.67 144.27 28.22C143.64 26.4 142.25 25.18 140.92 23.99C139.96 23.15 139.06 22.35 138.45 21.37C137.65 20.06 137.33 18.31 137.02 16.63C136.53 13.97 136.04 11.2 133.59 9.69C132.96 9.3 132.32 9.08 131.67 8.85C131 8.62 130.36 8.38 129.87 8.01C129.4 7.64 129.03 7.09 128.66 6.52C127.74 5.11 126.88 3.64 126.07 2.15C125.48 2.38 124.92 2.66 124.35 2.95ZM146.6 9.45V9.47C146.95 10.94 147.32 12.47 148.07 13.9C148.93 15.53 150.3 17.01 152.26 18.48C153.26 19.23 154.3 19.89 155.32 20.54C157.12 21.68 158.81 22.75 160.22 24.18C161.46 25.43 162.47 26.96 163.3 28.84C163.34 28.19 163.38 27.53 163.38 26.86C163.38 26.19 163.36 25.59 163.32 24.96C162.81 24.21 162.24 23.51 161.58 22.84C160.01 21.25 158.15 20.08 156.35 18.92C155.37 18.29 154.33 17.65 153.41 16.94C151.67 15.65 150.49 14.35 149.77 12.98C149.14 11.79 148.81 10.43 148.46 9V8.98C147.93 6.85 147.31 4.18 146.09 1.75C145.23 1.42 144.33 1.14 143.43 0.89C145.02 3.24 145.82 6.18 146.62 9.43M135.78 0C135.88 0.14 135.98 0.27 136.09 0.41C136.74 1.23 137.52 1.96 138.26 2.66C139.69 3.99 141.04 5.25 141.28 6.91C141.34 7.36 141.34 7.83 141.32 8.34C141.3 8.69 141.3 9.06 141.32 9.44C141.38 10.81 142.14 12.18 142.89 13.5C144.26 15.93 144.52 16.81 143.5 17.52C143.11 17.79 142.7 17.78 142.4 17.72C141.85 17.6 141.32 17.23 141.03 16.74C140.56 15.96 140.38 15 140.21 13.98C140.13 13.55 140.05 13.1 139.95 12.67C139.2 9.48 137.4 6.85 135.01 5.44C134.32 5.03 133.76 4.72 133.25 4.44C131 3.2 130.8 3.09 130.27 0.78C129.64 0.92 129.03 1.09 128.45 1.29C129.17 4.27 129.82 4.72 132.35 6.11C132.84 6.38 133.41 6.7 134.07 7.09C136.01 8.23 137.48 10.42 138.1 13.1C138.2 13.49 138.26 13.88 138.33 14.31C138.53 15.46 138.74 16.64 139.39 17.74C139.96 18.68 140.92 19.37 142 19.58C142.26 19.64 142.51 19.66 142.75 19.66C143.42 19.66 144.04 19.46 144.57 19.09C147.18 17.29 145.65 14.57 144.53 12.59C143.9 11.47 143.26 10.32 143.2 9.38C143.18 9.07 143.2 8.75 143.2 8.42C143.22 7.85 143.24 7.27 143.14 6.66C142.79 4.35 141.14 2.8 139.54 1.31C139.11 0.9 138.68 0.51 138.29 0.1C137.68 0.06 137.08 0.04 136.47 0.04C136.25 0.02 136.02 0.02 135.78 0.02" fill="white"/>
</g>
<defs>
<clipPath id="clip0_729_5701">
<rect width="163.32" height="53.43" fill="white"/>
</clipPath>
</defs>
</svg>
