<svg width="165" height="102" viewBox="0 0 165 102" fill="none" xmlns="http://www.w3.org/2000/svg">
<g id="Layer_1j" clip-path="url(#clip0_729_5466)">
<path id="Vector" d="M5.56998 98.3399V99.6099H0.0299833V98.6199L3.61998 93.0499H0.229983V91.8099H5.42998V92.8199L1.88998 98.3399H5.56998ZM7.17998 94.9599L6.94998 94.0899C8.71998 93.3099 11.14 93.2199 11.14 95.6999V99.5899H9.80998V98.8799C9.36998 99.3899 8.72998 99.6899 8.03998 99.6899C7.22998 99.7099 6.58998 99.0699 6.56998 98.2899V98.1299C6.56998 96.8399 7.78998 95.9399 9.78998 96.0399V95.6899C9.80998 94.3099 8.42998 94.4699 7.18998 94.9799L7.17998 94.9599ZM7.81998 97.9299C7.81998 98.4099 8.18998 98.6199 8.62998 98.6199C9.08998 98.6199 9.49998 98.4099 9.79998 98.0899V96.7999C8.46998 96.6599 7.81998 97.3799 7.81998 97.9299ZM18.56 94.9599L18.33 94.0899C20.1 93.3099 22.52 93.2199 22.52 95.6999V99.5899H21.23V98.8799C20.79 99.3899 20.15 99.6899 19.46 99.6899C18.65 99.7099 17.99 99.0699 17.99 98.2599V98.0999C17.99 96.8099 19.21 95.9099 21.21 96.0099V95.6899C21.23 94.3099 19.83 94.4699 18.56 94.9799V94.9599ZM19.23 97.9299C19.23 98.4099 19.6 98.6199 20.04 98.6199C20.5 98.6199 20.94 98.4399 21.21 98.0899V96.7999C19.88 96.6599 19.23 97.3799 19.23 97.9299ZM25.49 98.1099C25.44 98.3899 25.65 98.6399 25.93 98.6899H26.05C26.21 98.6899 26.37 98.6699 26.56 98.6399V99.6299C26.21 99.6999 25.87 99.7199 25.52 99.7199C24.51 99.7199 24.19 99.1699 24.19 98.2199V95.0199H23.5L23.66 94.0099H24.19V92.5799L25.52 92.2299V93.9999H26.62L26.46 95.0399H25.52V98.0999H25.5L25.49 98.1099ZM28.57 101.49H27.76C27.97 100.68 28.11 99.8599 28.2 99.0299V98.6199H29.19L29.14 99.0299C29.02 99.8599 28.82 100.69 28.56 101.49H28.57ZM34.48 93.0499V99.6099H33.03V93.0499H30.94V91.8099H36.48V93.0499H34.48ZM38.18 94.9599L37.95 94.0899C39.72 93.3099 42.14 93.2199 42.14 95.6999V99.5899H40.81V98.8799C40.37 99.3899 39.73 99.6899 39.04 99.6899C38.23 99.7099 37.57 99.0699 37.57 98.2599V98.0999C37.57 96.8099 38.79 95.9099 40.79 96.0099V95.6899C40.81 94.3099 39.43 94.4699 38.19 94.9799L38.18 94.9599ZM38.82 97.9299C38.82 98.4099 39.19 98.6199 39.63 98.6199C40.09 98.6199 40.5 98.4099 40.8 98.0899V96.7999C39.44 96.6599 38.82 97.3799 38.82 97.9299ZM44.8 93.8399L45.58 95.0599L46.02 95.9299L46.48 95.0599L47.24 93.8599H48.6L46.83 96.6399L48.67 99.5799H47.08L46.32 98.4099L45.86 97.5399L45.4 98.4099L44.66 99.6099H43.19L45.05 96.6399L43.21 93.8299H44.8V93.8399ZM52.64 94.9699L52.41 94.0999C54.18 93.3199 56.6 93.2299 56.6 95.7099V99.5999H55.27V98.8899C54.83 99.3999 54.19 99.6999 53.5 99.6999C52.69 99.7199 52.03 99.0799 52.03 98.2699V98.1099C52.03 96.8199 53.25 95.9199 55.25 96.0199V95.6999C55.3 94.3199 53.92 94.4799 52.65 94.9899L52.64 94.9699ZM53.31 97.9399C53.31 98.4199 53.68 98.6299 54.12 98.6299C54.58 98.6299 55.02 98.4199 55.29 98.0999V96.8099C53.91 96.6699 53.29 97.3899 53.31 97.9399ZM58.03 99.5999V93.8699H59.36V94.3999C59.87 93.9899 60.49 93.7599 61.13 93.7599C62.23 93.7599 62.79 94.4299 62.79 95.6199V99.5999H61.48V96.0599C61.48 95.4199 61.2 95.0699 60.61 95.0699C60.15 95.1199 59.74 95.2999 59.39 95.5999V99.5999H58.03ZM66.17 99.6899C64.72 99.6899 64.05 98.4199 64.05 96.6999C64.05 94.9799 64.79 93.7099 66.24 93.7099C66.79 93.7099 67.3 93.9399 67.67 94.3499V91.7499H68.94V99.5899H67.65V98.9899C67.28 99.4299 66.73 99.6599 66.18 99.6799L66.17 99.6899ZM66.65 94.8099C65.87 94.8099 65.43 95.4799 65.43 96.6699C65.43 97.8599 65.89 98.5299 66.65 98.5299C67.02 98.5299 67.39 98.3899 67.66 98.1399V95.1699C67.38 94.9599 67.02 94.8199 66.65 94.7999V94.8099ZM76.13 99.7299C73.74 99.7299 72.75 98.0999 72.75 95.6999C72.75 93.2999 73.74 91.6699 76.13 91.6699C77 91.6699 77.86 91.8499 78.64 92.2499V93.3999C77.88 93.0999 77.08 92.9399 76.27 92.8899C74.89 92.8899 74.18 93.8299 74.18 95.6699C74.18 97.5099 74.92 98.4299 76.27 98.4299C77.08 98.4099 77.88 98.2499 78.64 97.9699V99.1199C77.88 99.5099 77.01 99.7199 76.13 99.7199V99.7299ZM84.85 93.8399V99.5899H83.52V99.0399C83.04 99.4799 82.39 99.7099 81.75 99.7099C80.65 99.7099 80.12 99.0399 80.12 97.8499V93.8499H81.45V97.3899C81.45 98.0099 81.73 98.3799 82.32 98.3799C82.78 98.3299 83.19 98.1499 83.54 97.8499V93.8499H84.85V93.8399ZM86.07 99.3099V98.2499C86.67 98.5499 87.31 98.7099 87.98 98.7299C88.81 98.7299 89.02 98.3199 89.02 98.0399C89.02 97.5799 88.49 97.4199 87.89 97.1699C87.13 96.8899 86.19 96.5299 86.19 95.3999C86.19 94.2699 87.02 93.5099 88.58 93.5099C89.22 93.5099 89.87 93.6699 90.44 93.9699V95.0099C89.98 94.7299 89.45 94.5699 88.92 94.5499C88.05 94.5499 87.7 94.9599 87.7 95.3099C87.7 95.6599 88.28 95.9799 88.94 96.1799C89.6 96.3799 90.57 96.8499 90.57 97.8799C90.57 99.0799 89.6 99.7699 88.27 99.7699C87.49 99.7699 86.75 99.6099 86.06 99.3099H86.07ZM93.27 98.1399C93.22 98.4199 93.43 98.6699 93.71 98.7199H93.83C93.99 98.7199 94.15 98.6999 94.31 98.6699V99.6599C93.96 99.7299 93.62 99.7499 93.27 99.7499C92.26 99.7499 91.94 99.1999 91.94 98.2499V95.0099H91.23L91.41 93.9699H91.92V92.5699L93.25 92.2199V93.9899H94.35L94.17 95.0299H93.23L93.28 98.1399H93.27ZM95.27 96.6699C95.27 94.9699 96.08 93.6799 97.85 93.6799C99.62 93.6799 100.4 94.9699 100.4 96.6699C100.4 98.3699 99.59 99.6599 97.85 99.6599C96.11 99.6599 95.27 98.3699 95.27 96.6699ZM96.49 96.6699C96.49 97.7699 96.9 98.6699 97.82 98.6699C98.74 98.6699 99.13 97.7999 99.13 96.6699C99.13 95.5399 98.74 94.6699 97.82 94.6699C96.9 94.6699 96.49 95.5699 96.49 96.6699ZM109.81 95.5899V99.5899H108.5V96.0499C108.5 95.4099 108.22 95.0599 107.63 95.0599C107.17 95.1099 106.76 95.2899 106.43 95.5899V99.5899H105.12V96.0499C105.12 95.4099 104.84 95.0599 104.25 95.0599C103.81 95.0799 103.4 95.2899 103.08 95.5899V99.5899H101.75V93.8599H103.08V94.6199C103.52 94.0699 104.16 93.7499 104.85 93.7499C105.49 93.6799 106.12 94.0699 106.32 94.6899C106.8 94.1099 107.49 93.7699 108.23 93.7499C109.27 93.7299 109.82 94.3899 109.82 95.5899H109.81ZM111.08 99.3199V98.2599C111.68 98.5599 112.32 98.7199 112.99 98.7399C113.82 98.7399 114.03 98.3299 114.03 98.0499C114.03 97.5899 113.5 97.4299 112.9 97.1799C112.14 96.8999 111.2 96.5399 111.2 95.4099C111.2 94.2799 112.03 93.5199 113.57 93.5199C114.21 93.5199 114.86 93.6799 115.43 93.9799V95.0199C114.97 94.7399 114.44 94.5799 113.91 94.5599C113.04 94.5599 112.69 94.9699 112.69 95.3199C112.69 95.6699 113.27 95.9899 113.93 96.1899C114.57 96.4199 115.54 96.8599 115.54 97.8899C115.54 99.0899 114.57 99.7799 113.24 99.7799C112.5 99.7799 111.77 99.6199 111.08 99.3199ZM120.86 97.7599L120.28 99.6499H118.88L121.66 91.7799H122.86L125.55 99.6499H124.1L123.5 97.7599H120.85H120.86ZM121.11 96.6299H123.2L122.14 93.3399L121.1 96.6299H121.11ZM131.35 93.8899V99.6399H130.04V99.0899C129.56 99.5299 128.91 99.7599 128.27 99.7599C127.17 99.7599 126.64 99.0899 126.64 97.8999V93.8499H127.95V97.3899C127.95 98.0099 128.23 98.3799 128.82 98.3799C129.28 98.3299 129.69 98.1499 130.04 97.8499V93.8499L131.35 93.8999V93.8899ZM134.34 98.1199C134.29 98.3999 134.5 98.6499 134.78 98.6999H134.9C135.06 98.6999 135.22 98.6799 135.38 98.6499V99.6399C135.03 99.7099 134.69 99.7299 134.34 99.7299C133.33 99.7299 133.01 99.1799 133.01 98.2299V95.0299H132.3L132.48 93.9899H133.01V92.5899L134.34 92.2399V94.0099H135.44L135.26 95.0499H134.32V98.1099H134.34V98.1199ZM141.22 95.6099V99.5899H139.89V96.0499C139.89 95.4099 139.61 95.0799 139.08 95.0799C138.6 95.0999 138.14 95.2899 137.77 95.5899V99.5899H136.44V91.8099H137.77V94.3599C138.23 93.9699 138.83 93.7399 139.43 93.7199C140.35 93.6699 141.16 94.3899 141.2 95.3099C141.2 95.3999 141.2 95.5199 141.18 95.6099H141.23H141.22ZM142.46 96.6699C142.46 94.9699 143.27 93.6799 145.01 93.6799C146.75 93.6799 147.59 94.9899 147.59 96.6699C147.59 98.3499 146.78 99.6599 145.04 99.6599C143.3 99.6599 142.46 98.3699 142.46 96.6699ZM143.68 96.6699C143.68 97.7699 144.09 98.6699 145.01 98.6699C145.93 98.6699 146.32 97.7999 146.32 96.6699C146.32 95.5399 145.91 94.6699 145.01 94.6699C144.11 94.6699 143.68 95.5699 143.68 96.6699ZM148.9 99.5699V93.8599H150.26V94.9599C150.63 94.2699 151.34 93.8299 152.12 93.8599V94.9199C151.34 94.8999 150.62 95.3099 150.26 95.9999V99.5899H148.95L148.9 99.5699ZM152.99 92.5999C153.01 92.2099 153.34 91.9299 153.7 91.9299C154.06 91.9299 154.37 92.2799 154.37 92.6399C154.35 93.0099 154.05 93.3099 153.68 93.3099C153.29 93.3099 152.99 93.0099 152.99 92.5999ZM154.35 99.5699H153.04V94.0299H154.35V99.5699ZM157.69 98.0999C157.64 98.3799 157.85 98.6299 158.13 98.6799H158.25C158.41 98.6799 158.57 98.6599 158.73 98.6299V99.6199C158.38 99.6899 158.04 99.7099 157.69 99.7099C156.68 99.7099 156.36 99.1599 156.36 98.2099V95.0099H155.67L155.85 93.9699H156.38V92.5699L157.71 92.2199V93.9899H158.81L158.63 95.0299H157.69V98.0899V98.0999ZM164.96 93.8399L162.31 101.66H161.04L161.59 99.9999L159.4 93.8099H160.9L162.19 98.2299L163.52 93.8099L164.95 93.8299L164.96 93.8399ZM17.14 99.5899H15.6L13.83 96.9399V99.5899H12.54V91.8099H13.85V96.2299L15.48 93.7199H16.98L15.05 96.4999L17.14 99.5799V99.5899ZM62.44 85.6999C61.91 85.7499 61.52 86.2299 61.57 86.7599C61.62 87.2199 61.98 87.5899 62.44 87.6299C62.97 87.5799 63.36 87.0999 63.31 86.5699C63.26 86.1099 62.9 85.7399 62.44 85.6999ZM6.21998 78.5199H4.94998C4.66998 78.3599 4.48998 78.0799 4.48998 77.7599C4.48998 77.4099 4.66998 77.2799 4.94998 77.2799C5.22998 77.2799 5.40998 77.4599 5.47998 77.8299H6.23998C6.16998 76.9599 5.70998 76.4499 4.96998 76.4499C4.34998 76.4299 3.83998 76.8899 3.79998 77.5099V77.6699C3.77998 77.9899 3.88998 78.3099 4.11998 78.5399H3.58998V79.3499H6.18998V78.5199H6.20998H6.21998ZM8.49998 81.6499C8.49998 82.2699 8.26998 82.7799 7.48998 82.7799H2.85998C2.14998 82.7999 1.54998 82.2499 1.52998 81.5399V79.3499H-1.66518e-05V81.4199C-0.0700167 82.9799 1.12998 84.3199 2.68998 84.3899H8.02998C9.10998 84.3899 9.98998 83.5199 9.98998 82.4299V74.7899H8.46998L8.48998 81.6499H8.49998ZM12.55 84.5299C12.6 85.2399 12.04 85.8599 11.33 85.9299H10.57V87.5199H11.21C12.77 87.5199 14.06 86.2499 14.06 84.6699V77.7199H12.54V84.5299H12.55ZM30.7 85.4699C30.17 85.4199 29.71 85.8199 29.69 86.3399C29.64 86.8699 30.04 87.3299 30.56 87.3499C31.09 87.3999 31.55 86.9999 31.57 86.4799V86.4099C31.55 85.9299 31.18 85.5099 30.7 85.4899V85.4699ZM36.89 82.1599C36.91 82.4599 36.71 82.7399 36.41 82.7799H34.62C34.34 82.7299 34.02 82.7099 33.29 80.9199C31.96 77.9799 29.89 76.7999 27.52 77.7199V79.1699C29.5 78.3599 30.67 79.1699 31.64 81.1299C31.89 81.7099 32.19 82.2599 32.51 82.7899H26.6C26.14 82.7899 25.77 82.4399 25.75 81.9799V80.3699C25.82 78.7599 24.58 77.4299 22.99 77.3299H22.71C21.1 77.3299 19.81 78.6399 19.81 80.2299V81.9099C19.83 82.3699 19.51 82.7599 19.05 82.7799H17.9C17.6 82.7799 17.35 82.5299 17.35 82.2299V74.7999H15.83V82.7599C15.81 83.6299 16.5 84.3899 17.37 84.4199H18.98C19.67 84.4399 20.34 84.0999 20.75 83.5499C21.35 84.0799 22.15 84.3799 22.96 84.3799C23.67 84.3599 24.34 84.0099 24.8 83.4399C25.19 84.0399 25.86 84.4099 26.57 84.3799H36.83C37.7 84.3799 38.42 83.6399 38.39 82.7699V74.7599H36.87L36.89 82.1699V82.1599ZM24.24 81.2599C24.26 82.0199 23.69 82.6399 22.95 82.6899C22.33 82.7099 21.73 82.4099 21.36 81.9299V80.3399C21.29 79.5999 21.84 78.9599 22.58 78.9099H22.86C23.6 78.8899 24.22 79.4599 24.24 80.1999V81.2599ZM41.75 74.7499H40.19V84.3899H41.71L41.76 74.7499H41.75ZM46.37 77.2999H46.23C44.64 77.2999 43.33 78.5899 43.33 80.1799V81.3299C43.26 82.9399 44.5 84.2699 46.11 84.3699H47.72V84.6199C47.72 85.7199 46.91 86.3499 44.32 85.8599V87.3299C47.52 88.1099 49.24 86.9399 49.24 85.0099V80.3599C49.31 78.7699 48.09 77.4399 46.5 77.3499H46.34L46.36 77.2999H46.37ZM47.73 82.7499H46.12C45.36 82.6799 44.81 82.0599 44.83 81.2999V80.3299C44.78 79.5899 45.34 78.9499 46.07 78.8999H46.35C47.09 78.8799 47.71 79.4799 47.71 80.2099V80.3499L47.73 82.7399V82.7499ZM55.07 76.1899C55.6 76.2399 56.06 75.8399 56.08 75.3199C56.13 74.7899 55.73 74.3299 55.21 74.3099C54.69 74.2899 54.22 74.6599 54.2 75.1799V75.2499C54.18 75.7599 54.55 76.1899 55.05 76.2399L55.07 76.1899ZM57.65 76.1899C58.18 76.1899 58.59 75.7499 58.59 75.2199C58.59 74.6899 58.15 74.2799 57.65 74.2799C57.15 74.2799 56.71 74.7199 56.71 75.2499C56.71 75.7799 57.15 76.1899 57.65 76.1899ZM68.46 85.6899C67.95 85.7399 67.59 86.1499 67.59 86.6299C67.64 87.1099 68.05 87.4799 68.53 87.4399C69.01 87.3999 69.38 86.9799 69.34 86.4999C69.29 86.0399 68.93 85.6899 68.47 85.6899H68.46ZM69.33 82.7199V77.8399H67.79V82.1599C67.81 82.4799 67.58 82.7599 67.28 82.7799H64.5C63.74 82.7799 63.49 82.2699 63.49 81.6499V77.8499H61.97V81.6899C61.97 82.2899 61.74 82.7699 60.98 82.7699H59.94C59.48 82.7899 59.09 82.4499 59.07 81.9899V77.2699H56.08C54.49 77.2699 53.2 78.5799 53.2 80.1699V81.2499C53.15 82.8599 54.4 84.2199 56.01 84.2899C56.79 84.3099 57.55 83.9899 58.06 83.4199C58.52 83.9999 59.21 84.3199 59.95 84.2899H60.99C61.66 84.3099 62.32 84.0399 62.76 83.5299C63.15 83.9899 63.73 84.2699 64.32 84.2899H67.77C68.64 84.2899 69.36 83.5799 69.33 82.6999V82.7199ZM57.57 81.9799C57.2 82.4599 56.63 82.7599 56.01 82.7399C55.25 82.7199 54.68 82.0699 54.72 81.3099V80.3399C54.65 79.5999 55.2 78.9599 55.94 78.9099H57.57V81.9699V81.9799ZM65.9 85.6799C65.37 85.7299 64.98 86.2099 65.03 86.7399C65.08 87.1999 65.44 87.5699 65.9 87.6099C66.43 87.5599 66.82 87.0799 66.77 86.5499C66.72 86.0899 66.36 85.7199 65.9 85.6799ZM81.84 76.4999C82.37 76.5499 82.83 76.1499 82.88 75.6299C82.93 75.1099 82.53 74.6399 82.01 74.5899C81.49 74.5399 81.02 74.9399 80.97 75.4599V75.5299C80.97 76.0399 81.34 76.4699 81.84 76.4999ZM87.31 82.1599C87.33 82.4599 87.13 82.7399 86.83 82.7799H85.27V81.5599C85.27 78.7299 84.17 77.4199 81.91 77.4199C80.46 77.4199 79.2 78.4599 78.16 79.6999V78.0899H76.64V82.7799H74.55V77.7199H73.01V84.5299C73.08 85.2399 72.55 85.8599 71.84 85.9299H71.06V87.5199H71.7C73.26 87.5199 74.55 86.2499 74.55 84.6699V84.3699H87.27C88.14 84.3699 88.86 83.6299 88.83 82.7599V74.7499H87.31V82.1599ZM83.79 82.7799H78.13V81.1899C79.3 79.7399 80.5 78.9799 81.67 78.9799C82.84 78.9799 83.76 79.7199 83.76 81.5599L83.78 82.7799H83.79ZM92.12 74.8199H90.6V84.3699H92.12V74.8199ZM96.77 77.3699H96.63C95.04 77.3699 93.73 78.6599 93.73 80.2499V81.3499C93.68 82.9599 94.93 84.2899 96.51 84.3899H98.1V84.6399C98.1 85.7399 97.29 86.3699 94.7 85.8799V87.3499C97.9 88.1299 99.62 86.9599 99.62 85.0299V80.3399C99.69 78.7499 98.47 77.3999 96.88 77.3299H96.79L96.77 77.3799V77.3699ZM98.13 82.7799H96.54C95.78 82.7099 95.23 82.0899 95.25 81.3299V80.3599C95.2 79.6199 95.76 78.9799 96.49 78.9299H96.77C97.51 78.9099 98.13 79.5099 98.13 80.2399V82.7699V82.7799ZM108.02 76.4099C108.55 76.4099 108.96 75.9699 108.96 75.4399C108.96 74.9099 108.52 74.4999 108.02 74.4999C107.52 74.4999 107.08 74.9399 107.08 75.4699C107.06 75.9799 107.49 76.4099 108.02 76.4099ZM105.44 76.4099C105.97 76.4599 106.43 76.0599 106.45 75.5399C106.5 75.0099 106.1 74.5499 105.58 74.5299C105.06 74.5099 104.59 74.8799 104.57 75.3999V75.4699C104.57 75.9999 104.96 76.4099 105.49 76.4399H105.44V76.4199V76.4099ZM106.57 77.2799H106.36C104.77 77.2999 103.51 78.6099 103.53 80.1999V81.3699C103.48 82.9599 104.73 84.2699 106.31 84.2899H106.68C108.2 84.2199 109.37 82.9599 109.33 81.4599V80.2399C109.38 78.6799 108.16 77.3599 106.59 77.2999L106.57 77.2799ZM107.88 81.6299C107.9 82.2699 107.4 82.7999 106.75 82.7999H106.36C105.62 82.7799 105.05 82.1799 105.07 81.4399V80.2399C105.02 79.5299 105.58 78.9299 106.29 78.8799H106.59C107.3 78.8799 107.88 79.4299 107.88 80.1499V81.6199V81.6299ZM125.52 76.4799C126.05 76.5299 126.51 76.1299 126.56 75.6099C126.61 75.0899 126.21 74.6199 125.69 74.5699C125.17 74.5199 124.7 74.9199 124.65 75.4399V75.5099C124.63 76.0199 125.02 76.4299 125.52 76.4799ZM128.63 82.1599C128.65 82.4599 128.45 82.7399 128.15 82.7799H126.33V77.7199H124.81V84.5299C124.88 85.2399 124.35 85.8599 123.64 85.9299H122.86V87.5199H123.5C125.06 87.5199 126.35 86.2499 126.35 84.6699V84.3699H128.63C129.5 84.3699 130.19 83.6599 130.19 82.7799V74.7699H128.63V82.1499V82.1599ZM133.48 74.7799H131.96V84.3699H133.48V74.7799ZM139.53 76.2099C140.06 76.2599 140.52 75.8599 140.54 75.3399C140.56 74.8199 140.19 74.3499 139.67 74.3299C139.15 74.3099 138.68 74.6799 138.66 75.1999V75.2699C138.66 75.7499 139.03 76.1699 139.51 76.2099H139.53ZM142.13 76.2099C142.66 76.2099 143.07 75.7699 143.07 75.2399C143.07 74.7099 142.63 74.2999 142.13 74.2999C141.63 74.2999 141.19 74.7399 141.19 75.2699C141.17 75.7999 141.6 76.2099 142.13 76.2099ZM148.32 75.7299H146.94C146.64 75.5699 146.48 75.2699 146.48 74.9499C146.48 74.5999 146.64 74.4399 146.94 74.4399C147.24 74.4399 147.45 74.6499 147.49 75.0199H148.27C148.2 74.0499 147.69 73.5699 146.94 73.5699C146.3 73.5199 145.74 74.0099 145.7 74.6699V74.8799C145.7 75.1999 145.79 75.5199 146 75.7499H145.54V76.6199H148.37V75.7199H148.32V75.7299ZM150.62 85.6699C150.09 85.6199 149.63 86.0199 149.58 86.5399C149.53 87.0599 149.93 87.5299 150.45 87.5799C150.97 87.6299 151.44 87.2299 151.49 86.7099V86.6199C151.49 86.0899 151.08 85.6799 150.55 85.6799H150.53H150.62V85.6699ZM153.22 85.6699C152.69 85.6199 152.23 86.0199 152.18 86.5399C152.13 87.0599 152.53 87.5299 153.05 87.5799C153.57 87.6299 154.04 87.2299 154.09 86.7099V86.6199C154.09 86.0899 153.65 85.6799 153.15 85.6799H153.22V85.6699ZM158.19 77.5699V78.3799C157.09 78.6299 156.3 79.6199 156.3 80.7699V81.5099C156.3 81.9699 156.46 82.4299 156.76 82.7999H153.86C153.1 82.7999 152.85 82.2899 152.85 81.6699V77.8699H151.33V81.7099C151.33 82.3099 151.1 82.7899 150.34 82.7899H148.71C147.93 82.7899 147.7 82.2799 147.7 81.6599V77.8599H146.2V81.6299C146.2 82.2499 145.99 82.7599 145.21 82.7599H144.43C143.97 82.8099 143.58 82.4599 143.56 81.9999V77.3099H140.57C138.98 77.3099 137.69 78.6199 137.69 80.2099V81.2899C137.64 82.8999 138.89 84.2599 140.5 84.3299C141.28 84.3799 142.04 84.0299 142.55 83.4599C143.01 84.0399 143.7 84.3599 144.44 84.3299H145.22C145.89 84.3499 146.55 84.0799 146.99 83.5699C147.38 84.0299 147.93 84.3299 148.55 84.3299H150.32C150.99 84.3499 151.65 84.0799 152.09 83.5699C152.48 84.0299 153.06 84.3299 153.65 84.3299H162.09C163.68 84.3099 164.97 82.9999 164.92 81.3899V80.4499C164.9 78.1999 162.21 76.5399 158.13 77.5699H158.18H158.19ZM142.11 81.9899C141.74 82.4999 141.14 82.7699 140.55 82.7499C139.79 82.6999 139.22 82.0799 139.26 81.3199V80.3499C139.19 79.6099 139.74 78.9699 140.46 78.9199H142.05L142.12 81.9799L142.11 81.9899ZM160.21 82.8199H158.88C158.19 82.7699 157.66 82.1999 157.64 81.5099V80.8899C157.57 80.1799 158.1 79.5599 158.81 79.5099C159.52 79.4399 160.14 79.9699 160.19 80.6799V82.8199H160.21ZM162.14 82.8199H161.5V80.9099C161.57 79.9199 160.92 79.0199 159.96 78.7899C161.94 78.5799 163.5 79.4099 163.5 80.4899V81.3599C163.55 82.1199 162.95 82.7599 162.19 82.8099H162.07H162.14V82.8199ZM121.97 81.7599C122.02 83.1599 120.91 84.3599 119.51 84.4099H112.63C111.76 84.4099 111.04 83.6699 111.07 82.7999V74.7899H112.59V82.1499C112.57 82.4699 112.8 82.7499 113.1 82.7699H119.36C120 82.7499 120.49 82.2199 120.46 81.5699V81.4999C120.48 80.7899 119.91 80.1899 119.19 80.1899H115.03L114.75 79.0199L117.07 74.7399L118.47 75.2899L116.7 78.5799H119.02C120.68 78.5999 122.01 79.9799 121.96 81.6599C121.96 81.7099 121.96 81.7299 121.96 81.7499L121.97 81.7599Z" fill="white"/>
<g id="Group">
<path id="Vector_2" d="M83.8099 0.51L83.4599 0L57.5599 18.47L57.8799 19L83.8099 0.51Z" fill="white"/>
<path id="Vector_3" d="M78.6799 0.830781L78.3299 0.300781L57.5599 15.1108L57.9099 15.6208L78.6799 0.830781Z" fill="white"/>
<path id="Vector_4" d="M72.3699 1.93039L72.0199 1.40039L57.5299 11.7504L57.8799 12.2604L72.3699 1.93039Z" fill="white"/>
<path id="Vector_5" d="M63.9299 4.58078L63.5799 4.05078L57.5499 8.42078L57.8999 8.93078L63.9299 4.58078Z" fill="white"/>
<path id="Vector_6" d="M96.8 23.8595L92.54 26.8495L70.99 42.2395L71.43 42.9095L68.51 45.0495L68.74 45.3995L62.48 49.9795L62.83 50.4895L69.73 45.4495L72.05 43.8195L94 28.1295L93.56 27.4395L97.42 24.6795L97.21 24.3295L111.31 14.2795L110.99 13.7695L96.8 23.8695V23.8595Z" fill="white"/>
<path id="Vector_7" d="M98 26.3409L93.49 29.5409L72.58 44.4709L73.02 45.1409L69.87 47.4409L70.1 47.7609L63.96 52.2509L64.31 52.7609L70.45 48.2509L73.58 45.9709L94.56 30.9909L94.12 30.3009L98.61 27.1709L98.38 26.8209L111.29 17.6409L110.94 17.1309L98.01 26.3309L98 26.3409Z" fill="white"/>
<path id="Vector_8" d="M99.1499 28.8909L95.4199 31.5409L74.0499 46.7709L74.4899 47.4609L71.6099 49.5509L71.8399 49.8709L65.6499 54.4009L65.9999 54.9109L72.1899 50.3809L75.0699 48.2609L96.4399 33.0309L95.9999 32.3409L99.7299 29.6909L99.5199 29.3409L111.23 20.9709L110.88 20.4609L99.1499 28.8809V28.8909Z" fill="white"/>
<path id="Vector_9" d="M100.9 30.9598L97.29 33.5798L75.67 48.8998L76.13 49.5898L72.52 52.2798L72.75 52.6298L67.64 56.3798L67.99 56.8898L73.83 52.6098L77.76 49.7598L98.46 34.9898L98.02 34.2998L101.52 31.7898L101.29 31.4398L111.23 24.3498L110.88 23.8398L100.9 30.9498V30.9598Z" fill="white"/>
<path id="Vector_10" d="M103.06 32.7607L99.01 35.6407L80.28 48.9807L80.72 49.6507L76.28 52.8907L76.51 53.2407L69.59 58.3007L69.94 58.8107L77.46 53.3107L81.26 50.5307L100.1 37.1007L99.66 36.4107L103.59 33.6007L103.38 33.2507L111.16 27.7507L110.81 27.2207L103.06 32.7607Z" fill="white"/>
<path id="Vector_11" d="M107.87 32.9198L107.75 32.7598L103.01 36.1398L84.91 49.0698L85.37 49.7598L80.49 53.3698L80.7 53.7198L72.14 59.9798L72.49 60.4898L81.69 53.7298L86.41 50.2798L104.01 37.6698L103.57 36.9998L108.31 33.6198L108.03 33.2098L108.19 33.4598L111.13 31.2698L110.78 30.7598L107.86 32.9198H107.87Z" fill="white"/>
<path id="Vector_12" d="M107.96 35.9593L105.29 37.8493L94.64 45.4593L95.08 46.1493L90.55 49.4893L90.78 49.8393L74.52 61.7293L74.87 62.2393L91.76 49.8893L95.72 47.0093L106.28 39.4893L105.84 38.7993L108.51 36.9093L108.3 36.5593L111.08 34.5593L110.73 34.0293L107.97 35.9593H107.96Z" fill="white"/>
<path id="Vector_13" d="M108.49 39.0395V38.9495L105.98 40.7395L97.54 46.7695L98 47.4595L94.04 50.3395L94.27 50.6895L77.13 63.2295L77.48 63.7395L95.42 50.5795L98.87 48.0495L106.92 42.2495L106.48 41.5795L108.99 39.8295L108.71 39.4195L110.67 38.0395L110.46 37.6895L108.48 39.0495L108.49 39.0395Z" fill="white"/>
<path id="Vector_14" d="M59.97 22.3794L62.39 20.6294L71.5 14.1394L71.06 13.4494L75.06 10.5994L74.85 10.2794L88.34 0.619375L88.02 0.109375L74.45 9.74938L70.45 12.5994L60.79 19.4794L61.23 20.1694L58.93 21.8294L59.16 22.1794L57.48 23.3794L57.83 23.8894L59.99 22.3894L59.97 22.3794Z" fill="white"/>
<path id="Vector_15" d="M61.4499 24.6603L63.8699 22.9103L75.1199 14.8803L74.6799 14.1903L77.7899 11.9603L77.5799 11.6403L92.2099 1.08031L91.8599 0.570312L77.2099 11.1503L74.0999 13.3803L62.1099 21.9103L62.5499 22.6003L60.4799 24.1203L60.6899 24.4703L57.5399 26.7703L57.8899 27.2803L61.4599 24.6603H61.4499Z" fill="white"/>
<path id="Vector_16" d="M61.98 27.6305L65.13 25.3305L77.39 16.5905L76.95 15.9005L80.24 13.5505L80.03 13.2305L95.86 1.84055L95.51 1.31055L79.68 12.7005L76.23 15.1205L63.39 24.3005L63.83 24.9905L61.05 27.0105L61.28 27.3605L57.46 30.1905L57.81 30.7005L61.97 27.6405L61.98 27.6305Z" fill="white"/>
<path id="Vector_17" d="M63.2399 30.0693L66.6699 27.5593L79.7099 18.2693L79.2699 17.5793L82.7399 15.0993L82.5099 14.7293L99.3999 2.7893L99.0499 2.2793L81.8699 14.3593L78.5999 16.7093L64.6099 26.6693L65.0699 27.3593L61.8699 29.7093L62.0999 30.0593L57.5499 33.5293L57.8999 34.0593L63.2399 30.0793V30.0693Z" fill="white"/>
<path id="Vector_18" d="M64.8099 32.3L67.0399 30.69L82.0599 19.97L81.5999 19.33L85.4899 16.57L85.2799 16.22L102.33 4.03L101.98 3.5L84.9299 15.69L81.0399 18.47L66.0199 29.12L66.4599 29.81L63.6099 31.9L63.8399 32.25L57.8099 36.64L58.1599 37.17L64.8299 32.34L64.8099 32.29V32.3Z" fill="white"/>
<path id="Vector_19" d="M66.2799 34.5801L68.8099 32.7401L84.3399 21.6501L83.8999 20.9601L88.1999 17.9001L87.9899 17.5801L105.5 5.09008L105.18 4.58008L87.6699 17.0501L83.1199 20.3201L67.3199 31.5701L67.7599 32.2601L65.0499 34.2401L65.2599 34.5901L58.3099 39.6701L58.6599 40.1801L66.2999 34.5901L66.2799 34.5801Z" fill="white"/>
<path id="Vector_20" d="M66.7099 37.6307L70.3199 34.9807L88.6499 21.9807L88.1899 21.2907L92.2399 18.3907L92.0299 18.0707L108.29 6.4807L107.94 5.9707L91.6799 17.5607L87.4899 20.5307L68.4899 34.0107L68.9299 34.7007L65.5499 37.1807L65.7799 37.5307L59.0399 42.4507L59.3899 42.9807L66.7099 37.6207V37.6307Z" fill="white"/>
<path id="Vector_21" d="M67.22 40.6306L70.44 38.2806L90.29 24.1306L89.85 23.4606L93.92 20.5206L93.71 20.2006L110.92 7.92063L110.57 7.39062L93.36 19.6706L89.29 22.5706L68.95 37.0606L69.39 37.7506L65.94 40.2806L66.17 40.6306L59.98 45.1406L60.33 45.6506L67.21 40.6406L67.22 40.6306Z" fill="white"/>
<path id="Vector_22" d="M67.7999 43.5209L70.5399 41.5209L91.7699 26.3809L91.3299 25.6909L95.1899 22.9309L94.9799 22.5809L111.27 10.9909L110.92 10.4609L94.6599 22.0509L90.7699 24.8109L69.5399 39.9509L69.9799 40.6409L66.7599 42.9909L66.9899 43.3409L61.1699 47.6009L61.5199 48.1309L67.8499 43.5509L67.7999 43.5309V43.5209Z" fill="white"/>
<path id="Vector_23" d="M79.5 64.7298L79.85 65.2398L109.23 43.8498L108.88 43.3398L79.5 64.7298Z" fill="white"/>
<path id="Vector_24" d="M81.99 66.37L82.34 66.88L107.07 48.78L106.72 48.25L81.99 66.38V66.37Z" fill="white"/>
<path id="Vector_25" d="M90.75 63.3795L91.1 63.8895L101.96 55.9495L101.61 55.4395L90.75 63.3795Z" fill="white"/>
</g>
</g>
<defs>
<clipPath id="clip0_729_5466">
<rect width="164.97" height="101.66" fill="white"/>
</clipPath>
</defs>
</svg>
